/* XPM */
static xpm_row_t const E_xpm[] = {
"101 123 13 1",
" 	c None",
".	c #000000",
"+	c #000000",
"@	c #000000",
"#	c #000000",
"$	c #3D3D3D",
"%	c #6E6E6E",
"&	c #B1B1B1",
"*	c #DADADA",
"=	c #E3E3E3",
"-	c #ECECEC",
";	c #F5F5F5",
">	c #FFFFFF",
"                                                                                                     ",
"                                                                                                     ",
"                                                                                                     ",
"                                                                                                     ",
"                                                                                                     ",
"                                                                                                     ",
"                                                                                                     ",
"                                                                                                     ",
"                                                                                                     ",
"                                                                                                     ",
"                                                                                                     ",
"                    ###################################################################              ",
"                    ###################################################################              ",
"                    ###################################################################              ",
"                    ###################################################################              ",
"                    ###################################################################              ",
"                    ###################################################################              ",
"                    ###################################################################              ",
"                    ###################################################################              ",
"                    ###################################################################              ",
"                    ###################################################################              ",
"                    ###################################################################              ",
"                    ###################################################################              ",
"                    ###################################################################              ",
"                    ###################################################################              ",
"                    ###################################################################              ",
"                    ###################################################################              ",
"                    ###################################################################              ",
"                    ###################################################################              ",
"                    ###################################################################              ",
"                    ###################################################################              ",
"                    ###################################################################              ",
"                    ###################################################################              ",
"                    ###################################################################              ",
"                    ###################################################################              ",
"                    ###################################################################              ",
"                    ###################################################################              ",
"                    ###################################################################              ",
"                    ###################################################################              ",
"                    ###################################################################              ",
"                    ###################################################################              ",
"                    ###################################################################              ",
"                    ###################################################################              ",
"                    ###################################################################              ",
"                    ###############%&&&&&&&&&&&&&&&&&&&&&&&&&##########################              ",
"                    ###############&>>>>>>>>>>>>>>>>>>>>>>>>>##########################              ",
"                    ###############&>>>>>>>>>>>>>>>>>>>>>>>>>##########################              ",
"                    ###############&>>>>>>>>>>>>>>>>>>>>>>>>>##########################              ",
"                    ###############&>>>>>>>>>>>>>>>>>>>>>>>>>##########################              ",
"                    ###############&>>>>>>>>>>>>>>>>>>>>>>>>>##########################              ",
"                    ###############&>>>>>>>>>>>>>>>>>>>>>>>>>##########################              ",
"                    ###############&>>>>>>;******************##########################              ",
"                    ###############&>>>>>>*############################################              ",
"                    ###############&>>>>>>*############################################              ",
"                    ###############&>>>>>>*############################################              ",
"                    ###############&>>>>>>*############################################              ",
"                    ###############&>>>>>>*############################################              ",
"                    ###############&>>>>>>*############################################              ",
"                    ###############&>>>>>>*############################################              ",
"                    ###############&>>>>>>>>>>>>>>>>>>>>>%#############################              ",
"                    ###############&>>>>>>>>>>>>>>>>>>>>>%#############################              ",
"                    ###############&>>>>>>>>>>>>>>>>>>>>>%#############################              ",
"                    ###############&>>>>>>-&&&&&&&&&&&&&&$#############################              ",
"                    ###############&>>>>>>*############################################              ",
"                    ###############&>>>>>>*############################################              ",
"                    ###############&>>>>>>*############################################              ",
"                    ###############&>>>>>>*############################################              ",
"                    ###############&>>>>>>*############################################              ",
"                    ###############&>>>>>>*############################################              ",
"                    ###############&>>>>>>=%%%%%%%%%%%%%%%%%%##########################              ",
"                    ###############&>>>>>>>>>>>>>>>>>>>>>>>>>##########################              ",
"                    ###############&>>>>>>>>>>>>>>>>>>>>>>>>>##########################              ",
"                    ###############&>>>>>>>>>>>>>>>>>>>>>>>>>##########################              ",
"                    ###############&>>>>>>>>>>>>>>>>>>>>>>>>>##########################              ",
"                    ###############&>>>>>>>>>>>>>>>>>>>>>>>>>##########################              ",
"                    ###############&>>>>>>>>>>>>>>>>>>>>>>>>>##########################              ",
"                    ###############&>>>>>>>>>>>>>>>>>>>>>>>>>##########################              ",
"                    ###################################################################              ",
"                    ###################################################################              ",
"                    ###################################################################              ",
"                    ###################################################################              ",
"                    ###################################################################              ",
"                    ###################################################################              ",
"                    ###################################################################              ",
"                    ###################################################################              ",
"                    ###################################################################              ",
"                    ###################################################################              ",
"                    ###################################################################              ",
"                    ###################################################################              ",
"                    ###################################################################              ",
"                    ###################################################################              ",
"                    ###################################################################              ",
"                    ###################################################################              ",
"                    ###################################################################              ",
"                    ###################################################################              ",
"                    @@@@@@@@@@@@@@@@@@@@@@@@@@@@@@@@@@@@@@@@@@@@@@@@@@@@@@@@@@@@@@@@@@@              ",
"                                                                                                     ",
"                                                                                                     ",
"                                                                                                     ",
"                                                                                                     ",
"                                                                                                     ",
"                                                                                                     ",
"                                                                                                     ",
"                                                                                                     ",
"                                                                                                     ",
"                                                                                                     ",
"                                                                                                     ",
"                                                                                                     ",
"                                                                                                     ",
"                                                                                                     ",
"                                                                                                     ",
"                                                                                                     ",
"                                                                                                     ",
"                                                                                                     ",
"                                                                                                     ",
"                                                                                                     ",
"                                                                                                     ",
"                                                                                                     ",
"                                                                                                     ",
"                                                                                                     ",
"                                                                                                     ",
"                                                                                                     ",
"                                                                                                     "};
