/* XPM */
static xpm_row_t const H_xpm[] = {
"105 123 11 1",
" 	c None",
".	c #000000",
"+	c #000000",
"@	c #000000",
"#	c #000000",
"$	c #6E6E6E",
"%	c #939393",
"&	c #B1B1B1",
"*	c #DADADA",
"=	c #E3E3E3",
"-	c #FFFFFF",
"                                                                                                         ",
"                                                                                                         ",
"                                                                                                         ",
"                                                                                                         ",
"                                                                                                         ",
"                                                                                                         ",
"                                                                                                         ",
"                                                                                                         ",
"                                                                                                         ",
"                                                                                                         ",
"                                                                                                         ",
"                    ###################################################################                  ",
"                    ###################################################################                  ",
"                    ###################################################################                  ",
"                    ###################################################################                  ",
"                    ###################################################################                  ",
"                    ###################################################################                  ",
"                    ###################################################################                  ",
"                    ###################################################################                  ",
"                    ###################################################################                  ",
"                    ###################################################################                  ",
"                    ###################################################################                  ",
"                    ###################################################################                  ",
"                    ###################################################################                  ",
"                    ###################################################################                  ",
"                    ###################################################################                  ",
"                    ###################################################################                  ",
"                    ###################################################################                  ",
"                    ###################################################################                  ",
"                    ###################################################################                  ",
"                    ###################################################################                  ",
"                    ###################################################################                  ",
"                    ###################################################################                  ",
"                    ###################################################################                  ",
"                    ###################################################################                  ",
"                    ###################################################################                  ",
"                    ###################################################################                  ",
"                    ###################################################################                  ",
"                    ###################################################################                  ",
"                    ###################################################################                  ",
"                    ###################################################################                  ",
"                    ###################################################################                  ",
"                    ###################################################################                  ",
"                    ###################################################################                  ",
"                    ###############$&&&&&&&&&&$##########%&&&&&&$######################                  ",
"                    ###############&----------&##########*------&######################                  ",
"                    ###############&----------&##########*------&######################                  ",
"                    ###############&----------&##########*------&######################                  ",
"                    ###############&----------&##########*------&######################                  ",
"                    ###############&----------&##########*------&######################                  ",
"                    ###############&----------&##########*------&######################                  ",
"                    ###############&----------&##########*------&######################                  ",
"                    ###############&----------&##########*------&######################                  ",
"                    ###############&----------&##########*------&######################                  ",
"                    ###############&----------&##########*------&######################                  ",
"                    ###############&----------&##########*------&######################                  ",
"                    ###############&----------&##########*------&######################                  ",
"                    ###############&----------&##########*------&######################                  ",
"                    ###############&----------&##########*------&######################                  ",
"                    ###############&----------------------------&######################                  ",
"                    ###############&----------------------------&######################                  ",
"                    ###############&----------------------------&######################                  ",
"                    ###############&----------------------------&######################                  ",
"                    ###############&----------------------------&######################                  ",
"                    ###############&----------------------------&######################                  ",
"                    ###############&----------------------------&######################                  ",
"                    ###############&------=$$$$$$$$$$$$$$=------&######################                  ",
"                    ###############&------*##############*------&######################                  ",
"                    ###############&------*##############*------&######################                  ",
"                    ###############&------*##############*------&######################                  ",
"                    ###############&------*##############*------&######################                  ",
"                    ###############&------*##############*------&######################                  ",
"                    ###############&------*##############*------&######################                  ",
"                    ###############&------*##############*------&######################                  ",
"                    ###############&------*##############*------&######################                  ",
"                    ###############&------*##############*------&######################                  ",
"                    ###############&------*##############*------&######################                  ",
"                    ###################################################################                  ",
"                    ###################################################################                  ",
"                    ###################################################################                  ",
"                    ###################################################################                  ",
"                    ###################################################################                  ",
"                    ###################################################################                  ",
"                    ###################################################################                  ",
"                    ###################################################################                  ",
"                    ###################################################################                  ",
"                    ###################################################################                  ",
"                    ###################################################################                  ",
"                    ###################################################################                  ",
"                    ###################################################################                  ",
"                    ###################################################################                  ",
"                    ###################################################################                  ",
"                    ###################################################################                  ",
"                    ###################################################################                  ",
"                    ###################################################################                  ",
"                    @@@@@@@@@@@@@@@@@@@@@@@@@@@@@@@@@@@@@@@@@@@@@@@@@@@@@@@@@@@@@@@@@@@                  ",
"                                                                                                         ",
"                                                                                                         ",
"                                                                                                         ",
"                                                                                                         ",
"                                                                                                         ",
"                                                                                                         ",
"                                                                                                         ",
"                                                                                                         ",
"                                                                                                         ",
"                                                                                                         ",
"                                                                                                         ",
"                                                                                                         ",
"                                                                                                         ",
"                                                                                                         ",
"                                                                                                         ",
"                                                                                                         ",
"                                                                                                         ",
"                                                                                                         ",
"                                                                                                         ",
"                                                                                                         ",
"                                                                                                         ",
"                                                                                                         ",
"                                                                                                         ",
"                                                                                                         ",
"                                                                                                         ",
"                                                                                                         ",
"                                                                                                         "};
