/* XPM */
static xpm_row_t const L_xpm[] = {
"105 123 12 1",
" 	c None",
".	c #000000",
"+	c #000000",
"@	c #000000",
"#	c #000000",
"$	c #3D3D3D",
"%	c #6E6E6E",
"&	c #B1B1B1",
"*	c #C7C7C7",
"=	c #DADADA",
"-	c #E3E3E3",
";	c #FFFFFF",
"                                                                                                         ",
"                                                                                                         ",
"                                                                                                         ",
"                                                                                                         ",
"                                                                                                         ",
"                                                                                                         ",
"                                                                                                         ",
"                                                                                                         ",
"                                                                                                         ",
"                                                                                                         ",
"                                                                                                         ",
"                    ###################################################################                  ",
"                    ###################################################################                  ",
"                    ###################################################################                  ",
"                    ###################################################################                  ",
"                    ###################################################################                  ",
"                    ###################################################################                  ",
"                    ###################################################################                  ",
"                    ###################################################################                  ",
"                    ###################################################################                  ",
"                    ###################################################################                  ",
"                    ###################################################################                  ",
"                    ###################################################################                  ",
"                    ###################################################################                  ",
"                    ###################################################################                  ",
"                    ###################################################################                  ",
"                    ###################################################################                  ",
"                    ###################################################################                  ",
"                    ###################################################################                  ",
"                    ###################################################################                  ",
"                    ###################################################################                  ",
"                    ###################################################################                  ",
"                    ###################################################################                  ",
"                    ###################################################################                  ",
"                    ###################################################################                  ",
"                    ###################################################################                  ",
"                    ###################################################################                  ",
"                    ###################################################################                  ",
"                    ###################################################################                  ",
"                    ###################################################################                  ",
"                    ###################################################################                  ",
"                    ###################################################################                  ",
"                    ###################################################################                  ",
"                    ###################################################################                  ",
"                    ######################$&&&&&&&#####################################                  ",
"                    ######################%;;;;;;;#####################################                  ",
"                    ######################%;;;;;;;#####################################                  ",
"                    ######################%;;;;;;;#####################################                  ",
"                    ######################%;;;;;;;#####################################                  ",
"                    ######################%;;;;;;;#####################################                  ",
"                    ######################%;;;;;;;#####################################                  ",
"                    ######################%;;;;;;;#####################################                  ",
"                    ######################%;;;;;;;#####################################                  ",
"                    ######################%;;;;;;;#####################################                  ",
"                    ######################%;;;;;;;#####################################                  ",
"                    ###################===-;;;;;;;#####################################                  ",
"                    ###################;;;;;;;;;;;#####################################                  ",
"                    ###################;;;;;;;;;;;#####################################                  ",
"                    ###################;;;;;;;;;;;#####################################                  ",
"                    ###################;;;;;;;&########################################                  ",
"                    ###################;;;;;;;&########################################                  ",
"                    ###################;;;;;;;&########################################                  ",
"                    ###################;;;;;;;&########################################                  ",
"                    ###################;;;;;;;&########################################                  ",
"                    ###################;;;;;;;&########################################                  ",
"                    ###################;;;;;;;&########################################                  ",
"                    ###############&;;;;;;;;;;&########################################                  ",
"                    ###############&;;;;;;;;;;&########################################                  ",
"                    ###############&;;;;;;;;;;&########################################                  ",
"                    ###############&;;;;;;;;;;*%%%%%%%%%%%%%%%%%$######################                  ",
"                    ###############&;;;;;;;;;;;;;;;;;;;;;;;;;;;;&######################                  ",
"                    ###############&;;;;;;;;;;;;;;;;;;;;;;;;;;;;&######################                  ",
"                    ###############&;;;;;;;;;;;;;;;;;;;;;;;;;;;;&######################                  ",
"                    ###############&;;;;;;;;;;;;;;;;;;;;;;;;;;;;&######################                  ",
"                    ###############&;;;;;;;;;;;;;;;;;;;;;;;;;;;;&######################                  ",
"                    ###############&;;;;;;;;;;;;;;;;;;;;;;;;;;;;&######################                  ",
"                    ###############&;;;;;;;;;;;;;;;;;;;;;;;;;;;;&######################                  ",
"                    ###################################################################                  ",
"                    ###################################################################                  ",
"                    ###################################################################                  ",
"                    ###################################################################                  ",
"                    ###################################################################                  ",
"                    ###################################################################                  ",
"                    ###################################################################                  ",
"                    ###################################################################                  ",
"                    ###################################################################                  ",
"                    ###################################################################                  ",
"                    ###################################################################                  ",
"                    ###################################################################                  ",
"                    ###################################################################                  ",
"                    ###################################################################                  ",
"                    ###################################################################                  ",
"                    ###################################################################                  ",
"                    ###################################################################                  ",
"                    ###################################################################                  ",
"                    @@@@@@@@@@@@@@@@@@@@@@@@@@@@@@@@@@@@@@@@@@@@@@@@@@@@@@@@@@@@@@@@@@@                  ",
"                                                                                                         ",
"                                                                                                         ",
"                                                                                                         ",
"                                                                                                         ",
"                                                                                                         ",
"                                                                                                         ",
"                                                                                                         ",
"                                                                                                         ",
"                                                                                                         ",
"                                                                                                         ",
"                                                                                                         ",
"                                                                                                         ",
"                                                                                                         ",
"                                                                                                         ",
"                                                                                                         ",
"                                                                                                         ",
"                                                                                                         ",
"                                                                                                         ",
"                                                                                                         ",
"                                                                                                         ",
"                                                                                                         ",
"                                                                                                         ",
"                                                                                                         ",
"                                                                                                         ",
"                                                                                                         ",
"                                                                                                         ",
"                                                                                                         "};
