/* XPM */
static xpm_row_t const N_xpm[] = {
"105 123 13 1",
" 	c None",
".	c #000000",
"+	c #000000",
"@	c #000000",
"#	c #000000",
"$	c #6E6E6E",
"%	c #939393",
"&	c #B1B1B1",
"*	c #BCBCBC",
"=	c #C7C7C7",
"-	c #DADADA",
";	c #F5F5F5",
">	c #FFFFFF",
"                                                                                                         ",
"                                                                                                         ",
"                                                                                                         ",
"                                                                                                         ",
"                                                                                                         ",
"                                                                                                         ",
"                                                                                                         ",
"                                                                                                         ",
"                                                                                                         ",
"                                                                                                         ",
"                                                                                                         ",
"                    ###################################################################                  ",
"                    ###################################################################                  ",
"                    ###################################################################                  ",
"                    ###################################################################                  ",
"                    ###################################################################                  ",
"                    ###################################################################                  ",
"                    ###################################################################                  ",
"                    ###################################################################                  ",
"                    ###################################################################                  ",
"                    ###################################################################                  ",
"                    ###################################################################                  ",
"                    ###################################################################                  ",
"                    ###################################################################                  ",
"                    ###################################################################                  ",
"                    ###################################################################                  ",
"                    ###################################################################                  ",
"                    ###################################################################                  ",
"                    ###################################################################                  ",
"                    ###################################################################                  ",
"                    ###################################################################                  ",
"                    ###################################################################                  ",
"                    ###################################################################                  ",
"                    ###################################################################                  ",
"                    ###################################################################                  ",
"                    ###################################################################                  ",
"                    ###################################################################                  ",
"                    ###################################################################                  ",
"                    ###################################################################                  ",
"                    ###################################################################                  ",
"                    ###################################################################                  ",
"                    ###################################################################                  ",
"                    ###################################################################                  ",
"                    ###################################################################                  ",
"                    ###################&&&%##############%&&&&&&$######################                  ",
"                    ###################>>>-##############->>>>>>&######################                  ",
"                    ###################>>>-##############->>>>>>&######################                  ",
"                    ###################>>>-##############->>>>>>&######################                  ",
"                    ###############&>>>>>>>>>>&##########->>>>>>&######################                  ",
"                    ###############&>>>>>>>>>>&##########->>>>>>&######################                  ",
"                    ###############&>>>>>>>>>>&##########->>>>>>&######################                  ",
"                    ###############&>>>>>>>>>>=$$$#######->>>>>>&######################                  ",
"                    ###############&>>>>>>>>>>>>>>#######->>>>>>&######################                  ",
"                    ###############&>>>>>>>>>>>>>>#######->>>>>>&######################                  ",
"                    ###############&>>>>>>>>>>>>>>#######->>>>>>&######################                  ",
"                    ###############&>>>>>>>>>>>>>>---*###->>>>>>&######################                  ",
"                    ###############&>>>>>>>>>>>>>>>>>-###->>>>>>&######################                  ",
"                    ###############&>>>>>>>>>>>>>>>>>-###->>>>>>&######################                  ",
"                    ###############&>>>>>>>>>>>>>>>>>-###->>>>>>&######################                  ",
"                    ###############&>>>>>>-###->>>>>>>>>>>>>>>>>&######################                  ",
"                    ###############&>>>>>>-###->>>>>>>>>>>>>>>>>&######################                  ",
"                    ###############&>>>>>>-###->>>>>>>>>>>>>>>>>&######################                  ",
"                    ###############&>>>>>>-###%&&&>>>>>>>>>>>>>>&######################                  ",
"                    ###############&>>>>>>-#######>>>>>>>>>>>>>>&######################                  ",
"                    ###############&>>>>>>-#######>>>>>>>>>>>>>>&######################                  ",
"                    ###############&>>>>>>-#######>>>>>>>>>>>>>>&######################                  ",
"                    ###############&>>>>>>-#######$$$=>>>>>>>>>>&######################                  ",
"                    ###############&>>>>>>-##########&>>>>>>>>>>&######################                  ",
"                    ###############&>>>>>>-##########&>>>>>>>>>>&######################                  ",
"                    ###############&>>>>>>-##########%---;>>>>>>&######################                  ",
"                    ###############&>>>>>>-##############->>>>>>&######################                  ",
"                    ###############&>>>>>>-##############->>>>>>&######################                  ",
"                    ###############&>>>>>>-##############->>>>>>&######################                  ",
"                    ###############&>>>>>>-##############%&&&&&&$######################                  ",
"                    ###############&>>>>>>-############################################                  ",
"                    ###############&>>>>>>-############################################                  ",
"                    ###############&>>>>>>-############################################                  ",
"                    ###################################################################                  ",
"                    ###################################################################                  ",
"                    ###################################################################                  ",
"                    ###################################################################                  ",
"                    ###################################################################                  ",
"                    ###################################################################                  ",
"                    ###################################################################                  ",
"                    ###################################################################                  ",
"                    ###################################################################                  ",
"                    ###################################################################                  ",
"                    ###################################################################                  ",
"                    ###################################################################                  ",
"                    ###################################################################                  ",
"                    ###################################################################                  ",
"                    ###################################################################                  ",
"                    ###################################################################                  ",
"                    ###################################################################                  ",
"                    ###################################################################                  ",
"                    @@@@@@@@@@@@@@@@@@@@@@@@@@@@@@@@@@@@@@@@@@@@@@@@@@@@@@@@@@@@@@@@@@@                  ",
"                                                                                                         ",
"                                                                                                         ",
"                                                                                                         ",
"                                                                                                         ",
"                                                                                                         ",
"                                                                                                         ",
"                                                                                                         ",
"                                                                                                         ",
"                                                                                                         ",
"                                                                                                         ",
"                                                                                                         ",
"                                                                                                         ",
"                                                                                                         ",
"                                                                                                         ",
"                                                                                                         ",
"                                                                                                         ",
"                                                                                                         ",
"                                                                                                         ",
"                                                                                                         ",
"                                                                                                         ",
"                                                                                                         ",
"                                                                                                         ",
"                                                                                                         ",
"                                                                                                         ",
"                                                                                                         ",
"                                                                                                         ",
"                                                                                                         "};
