/* XPM */
static xpm_row_t const Nine_xpm[] = {
"108 123 15 1",
" 	c None",
".	c #000000",
"+	c #000000",
"@	c #000000",
"#	c #000000",
"$	c #1F1F1F",
"%	c #3D3D3D",
"&	c #6E6E6E",
"*	c #B1B1B1",
"=	c #C7C7C7",
"-	c #DADADA",
";	c #E3E3E3",
">	c #ECECEC",
",	c #F5F5F5",
"'	c #FFFFFF",
"                                                                                                            ",
"                                                                                                            ",
"                                                                                                            ",
"                                                                                                            ",
"                                                                                                            ",
"                                                                                                            ",
"                                                                                                            ",
"                                                                                                            ",
"                                                                                                            ",
"                                                                                                            ",
"                                                                                                            ",
"                    ###################################################################                     ",
"                    ###################################################################                     ",
"                    ###################################################################                     ",
"                    ###################################################################                     ",
"                    ###################################################################                     ",
"                    ###################################################################                     ",
"                    ###################################################################                     ",
"                    ###################################################################                     ",
"                    ###################################################################                     ",
"                    ###################################################################                     ",
"                    ###################################################################                     ",
"                    ###################################################################                     ",
"                    ###################################################################                     ",
"                    ###################################################################                     ",
"                    ###################################################################                     ",
"                    ###################################################################                     ",
"                    ###################################################################                     ",
"                    ###################################################################                     ",
"                    ###################################################################                     ",
"                    ###################################################################                     ",
"                    ###################################################################                     ",
"                    ###################################################################                     ",
"                    ###################################################################                     ",
"                    ###################################################################                     ",
"                    ###################################################################                     ",
"                    ###################################################################                     ",
"                    ###################################################################                     ",
"                    ###################################################################                     ",
"                    ###################################################################                     ",
"                    ###################################################################                     ",
"                    ###################################################################                     ",
"                    ###################################################################                     ",
"                    ###################################################################                     ",
"                    ######################%******************##########################                     ",
"                    ######################&''''''''''''''''''##########################                     ",
"                    ######################&''''''''''''''''''##########################                     ",
"                    ######################&''''''''''''''''''##########################                     ",
"                    ###################'''''''''''''''''''''''''*######################                     ",
"                    ###################'''''''''''''''''''''''''*######################                     ",
"                    ###################'''''''''''''''''''''''''*######################                     ",
"                    ###############%&&&'''''''>----------,''''''=&&&$##################                     ",
"                    ###############*''''''''''*##########-''''''''''&##################                     ",
"                    ###############*''''''''''*##########-''''''''''&##################                     ",
"                    ###############*''''''''''*##########-''''''''''&##################                     ",
"                    ###############*''''''''''*##########-''''''''''&##################                     ",
"                    ###############*''''''''''*##########-''''''''''&##################                     ",
"                    ###############*''''''''''*##########-''''''''''&##################                     ",
"                    ###############*''''''''''*##########-''''''''''&##################                     ",
"                    ###################'''''''''''''''''''''''''*######################                     ",
"                    ###################'''''''''''''''''''''''''*######################                     ",
"                    ###################'''''''''''''''''''''''''*######################                     ",
"                    ###################**************-'''''''***&######################                     ",
"                    #################################*'''''''##########################                     ",
"                    #################################*'''''''##########################                     ",
"                    #################################*'''''''##########################                     ",
"                    #################################*'''''''##########################                     ",
"                    #################################*'''''''##########################                     ",
"                    #################################*'''''''##########################                     ",
"                    ##############################&&&=''';---##########################                     ",
"                    ##############################'''''''&#############################                     ",
"                    ##############################'''''''&#############################                     ",
"                    ##############################'''''''&#############################                     ",
"                    ##############################'''''''&#############################                     ",
"                    ##############################'''''''&#############################                     ",
"                    ##############################'''''''&#############################                     ",
"                    ##############################'''''''&#############################                     ",
"                    ###################################################################                     ",
"                    ###################################################################                     ",
"                    ###################################################################                     ",
"                    ###################################################################                     ",
"                    ###################################################################                     ",
"                    ###################################################################                     ",
"                    ###################################################################                     ",
"                    ###################################################################                     ",
"                    ###################################################################                     ",
"                    ###################################################################                     ",
"                    ###################################################################                     ",
"                    ###################################################################                     ",
"                    ###################################################################                     ",
"                    ###################################################################                     ",
"                    ###################################################################                     ",
"                    ###################################################################                     ",
"                    ###################################################################                     ",
"                    ###################################################################                     ",
"                    @@@@@@@@@@@@@@@@@@@@@@@@@@@@@@@@@@@@@@@@@@@@@@@@@@@@@@@@@@@@@@@@@@@                     ",
"                                                                                                            ",
"                                                                                                            ",
"                                                                                                            ",
"                                                                                                            ",
"                                                                                                            ",
"                                                                                                            ",
"                                                                                                            ",
"                                                                                                            ",
"                                                                                                            ",
"                                                                                                            ",
"                                                                                                            ",
"                                                                                                            ",
"                                                                                                            ",
"                                                                                                            ",
"                                                                                                            ",
"                                                                                                            ",
"                                                                                                            ",
"                                                                                                            ",
"                                                                                                            ",
"                                                                                                            ",
"                                                                                                            ",
"                                                                                                            ",
"                                                                                                            ",
"                                                                                                            ",
"                                                                                                            ",
"                                                                                                            ",
"                                                                                                            "};
