/* XPM */
static xpm_row_t const One_xpm[] = {
"87 123 10 1",
" 	c None",
".	c #000000",
"+	c #000000",
"@	c #000000",
"#	c #000000",
"$	c #6E6E6E",
"%	c #939393",
"&	c #B1B1B1",
"*	c #DADADA",
"=	c #FFFFFF",
"                                                                                       ",
"                                                                                       ",
"                                                                                       ",
"                                                                                       ",
"                                                                                       ",
"                                                                                       ",
"                                                                                       ",
"                                                                                       ",
"                                                                                       ",
"                                                                                       ",
"                                                                                       ",
"                    ###################################################################",
"                    ###################################################################",
"                    ###################################################################",
"                    ###################################################################",
"                    ###################################################################",
"                    ###################################################################",
"                    ###################################################################",
"                    ###################################################################",
"                    ###################################################################",
"                    ###################################################################",
"                    ###################################################################",
"                    ###################################################################",
"                    ###################################################################",
"                    ###################################################################",
"                    ###################################################################",
"                    ###################################################################",
"                    ###################################################################",
"                    ###################################################################",
"                    ###################################################################",
"                    ###################################################################",
"                    ###################################################################",
"                    ###################################################################",
"                    ###################################################################",
"                    ###################################################################",
"                    ###################################################################",
"                    ###################################################################",
"                    ###################################################################",
"                    ###################################################################",
"                    ###################################################################",
"                    ###################################################################",
"                    ###################################################################",
"                    ###################################################################",
"                    ###################################################################",
"                    ###############$&&&&&&&&&&$########################################",
"                    ###############&==========&########################################",
"                    ###############&==========&########################################",
"                    ###############&==========&########################################",
"                    ###############&==========&########################################",
"                    ###############&==========&########################################",
"                    ###############&==========&########################################",
"                    ###############%***=======&########################################",
"                    ###################=======&########################################",
"                    ###################=======&########################################",
"                    ###################=======&########################################",
"                    ###################=======&########################################",
"                    ###################=======&########################################",
"                    ###################=======&########################################",
"                    ###################=======&########################################",
"                    ###################=======&########################################",
"                    ###################=======&########################################",
"                    ###################=======&########################################",
"                    ###################=======&########################################",
"                    ###################=======&########################################",
"                    ###################=======&########################################",
"                    ###################=======&########################################",
"                    ###################=======&########################################",
"                    ###################=======&########################################",
"                    ###################=======&########################################",
"                    ###################=======&########################################",
"                    ###################=======&########################################",
"                    ###################=======&########################################",
"                    ###################=======&########################################",
"                    ###################=======&########################################",
"                    ###################=======&########################################",
"                    ###################=======&########################################",
"                    ###################=======&########################################",
"                    ###################################################################",
"                    ###################################################################",
"                    ###################################################################",
"                    ###################################################################",
"                    ###################################################################",
"                    ###################################################################",
"                    ###################################################################",
"                    ###################################################################",
"                    ###################################################################",
"                    ###################################################################",
"                    ###################################################################",
"                    ###################################################################",
"                    ###################################################################",
"                    ###################################################################",
"                    ###################################################################",
"                    ###################################################################",
"                    ###################################################################",
"                    ###################################################################",
"                    @@@@@@@@@@@@@@@@@@@@@@@@@@@@@@@@@@@@@@@@@@@@@@@@@@@@@@@@@@@@@@@@@@@",
"                                                                                       ",
"                                                                                       ",
"                                                                                       ",
"                                                                                       ",
"                                                                                       ",
"                                                                                       ",
"                                                                                       ",
"                                                                                       ",
"                                                                                       ",
"                                                                                       ",
"                                                                                       ",
"                                                                                       ",
"                                                                                       ",
"                                                                                       ",
"                                                                                       ",
"                                                                                       ",
"                                                                                       ",
"                                                                                       ",
"                                                                                       ",
"                                                                                       ",
"                                                                                       ",
"                                                                                       ",
"                                                                                       ",
"                                                                                       ",
"                                                                                       ",
"                                                                                       ",
"                                                                                       "};
