/* XPM */
static xpm_row_t const Q_xpm[] = {
"108 123 15 1",
" 	c None",
".	c #000000",
"+	c #000000",
"@	c #000000",
"#	c #000000",
"$	c #1F1F1F",
"%	c #3D3D3D",
"&	c #6E6E6E",
"*	c #939393",
"=	c #B1B1B1",
"-	c #C7C7C7",
";	c #DADADA",
">	c #E3E3E3",
",	c #ECECEC",
"'	c #FFFFFF",
"                                                                                                            ",
"                                                                                                            ",
"                                                                                                            ",
"                                                                                                            ",
"                                                                                                            ",
"                                                                                                            ",
"                                                                                                            ",
"                                                                                                            ",
"                                                                                                            ",
"                                                                                                            ",
"                                                                                                            ",
"                    ###################################################################                     ",
"                    ###################################################################                     ",
"                    ###################################################################                     ",
"                    ###################################################################                     ",
"                    ###################################################################                     ",
"                    ###################################################################                     ",
"                    ###################################################################                     ",
"                    ###################################################################                     ",
"                    ###################################################################                     ",
"                    ###################################################################                     ",
"                    ###################################################################                     ",
"                    ###################################################################                     ",
"                    ###################################################################                     ",
"                    ###################################################################                     ",
"                    ###################################################################                     ",
"                    ###################################################################                     ",
"                    ###################################################################                     ",
"                    ###################################################################                     ",
"                    ###################################################################                     ",
"                    ###################################################################                     ",
"                    ###################################################################                     ",
"                    ###################################################################                     ",
"                    ###################################################################                     ",
"                    ###################################################################                     ",
"                    ###################################################################                     ",
"                    ###################################################################                     ",
"                    ###################################################################                     ",
"                    ###################################################################                     ",
"                    ###################################################################                     ",
"                    ###################################################################                     ",
"                    ###################################################################                     ",
"                    ###################################################################                     ",
"                    ###################################################################                     ",
"                    ######################%==============%#############################                     ",
"                    ######################&''''''''''''''&#############################                     ",
"                    ######################&''''''''''''''&#############################                     ",
"                    ######################&''''''''''''''&#############################                     ",
"                    ###################''''''''''''''''''''''##########################                     ",
"                    ###################''''''''''''''''''''''##########################                     ",
"                    ###################''''''''''''''''''''''##########################                     ",
"                    ###############%&&&''''''',;;;;;;,'''''''&&&%######################                     ",
"                    ###############=''''''''''=######=''''''''''=######################                     ",
"                    ###############=''''''''''=######=''''''''''=######################                     ",
"                    ###############=''''''''''=######=''''''''''=######################                     ",
"                    ###############=''''''>&&&%######%&&&>''''''=######################                     ",
"                    ###############='''''';##############;''''''=######################                     ",
"                    ###############='''''';##############;''''''=######################                     ",
"                    ###############='''''';##############;''''''=######################                     ",
"                    ###############='''''';##############;''''''=######################                     ",
"                    ###############='''''';##############;''''''=######################                     ",
"                    ###############='''''';##############;''''''=######################                     ",
"                    ###############='''''';#######=======,''''''=######################                     ",
"                    ###############='''''';#######''''''''''''''=######################                     ",
"                    ###############='''''';#######''''''''''''''=######################                     ",
"                    ###############='''''';#######''''''''''''''=######################                     ",
"                    ###############=''''''''''=###&&&-''''''''''=######################                     ",
"                    ###############=''''''''''=######=''''''''''=######################                     ",
"                    ###############=''''''''''=######=''''''''''=######################                     ",
"                    ###############*;;;'''''''-&&&&&&-''''''''''-&&&$##################                     ",
"                    ###################'''''''''''''''''''''''''''''&##################                     ",
"                    ###################'''''''''''''''''''''''''''''&##################                     ",
"                    ###################'''''''''''''''''''''''''''''&##################                     ",
"                    ###################===-''''''''''''''-==-''';===%##################                     ",
"                    ######################&''''''''''''''&##&'''=######################                     ",
"                    ######################&''''''''''''''&##&'''=######################                     ",
"                    ######################&''''''''''''''&##&'''=######################                     ",
"                    ###################################################################                     ",
"                    ###################################################################                     ",
"                    ###################################################################                     ",
"                    ###################################################################                     ",
"                    ###################################################################                     ",
"                    ###################################################################                     ",
"                    ###################################################################                     ",
"                    ###################################################################                     ",
"                    ###################################################################                     ",
"                    ###################################################################                     ",
"                    ###################################################################                     ",
"                    ###################################################################                     ",
"                    ###################################################################                     ",
"                    ###################################################################                     ",
"                    ###################################################################                     ",
"                    ###################################################################                     ",
"                    ###################################################################                     ",
"                    ###################################################################                     ",
"                    @@@@@@@@@@@@@@@@@@@@@@@@@@@@@@@@@@@@@@@@@@@@@@@@@@@@@@@@@@@@@@@@@@@                     ",
"                                                                                                            ",
"                                                                                                            ",
"                                                                                                            ",
"                                                                                                            ",
"                                                                                                            ",
"                                                                                                            ",
"                                                                                                            ",
"                                                                                                            ",
"                                                                                                            ",
"                                                                                                            ",
"                                                                                                            ",
"                                                                                                            ",
"                                                                                                            ",
"                                                                                                            ",
"                                                                                                            ",
"                                                                                                            ",
"                                                                                                            ",
"                                                                                                            ",
"                                                                                                            ",
"                                                                                                            ",
"                                                                                                            ",
"                                                                                                            ",
"                                                                                                            ",
"                                                                                                            ",
"                                                                                                            ",
"                                                                                                            ",
"                                                                                                            "};
