/* XPM */
static xpm_row_t const Seven_xpm[] = {
"105 123 14 1",
" 	c None",
".	c #000000",
"+	c #000000",
"@	c #000000",
"#	c #000000",
"$	c #3D3D3D",
"%	c #575757",
"&	c #6E6E6E",
"*	c #B1B1B1",
"=	c #C7C7C7",
"-	c #DADADA",
";	c #ECECEC",
">	c #F5F5F5",
",	c #FFFFFF",
"                                                                                                         ",
"                                                                                                         ",
"                                                                                                         ",
"                                                                                                         ",
"                                                                                                         ",
"                                                                                                         ",
"                                                                                                         ",
"                                                                                                         ",
"                                                                                                         ",
"                                                                                                         ",
"                                                                                                         ",
"                    ###################################################################                  ",
"                    ###################################################################                  ",
"                    ###################################################################                  ",
"                    ###################################################################                  ",
"                    ###################################################################                  ",
"                    ###################################################################                  ",
"                    ###################################################################                  ",
"                    ###################################################################                  ",
"                    ###################################################################                  ",
"                    ###################################################################                  ",
"                    ###################################################################                  ",
"                    ###################################################################                  ",
"                    ###################################################################                  ",
"                    ###################################################################                  ",
"                    ###################################################################                  ",
"                    ###################################################################                  ",
"                    ###################################################################                  ",
"                    ###################################################################                  ",
"                    ###################################################################                  ",
"                    ###################################################################                  ",
"                    ###################################################################                  ",
"                    ###################################################################                  ",
"                    ###################################################################                  ",
"                    ###################################################################                  ",
"                    ###################################################################                  ",
"                    ###################################################################                  ",
"                    ###################################################################                  ",
"                    ###################################################################                  ",
"                    ###################################################################                  ",
"                    ###################################################################                  ",
"                    ###################################################################                  ",
"                    ###################################################################                  ",
"                    ###################################################################                  ",
"                    ###############&*********************$#############################                  ",
"                    ###############*,,,,,,,,,,,,,,,,,,,,,&#############################                  ",
"                    ###############*,,,,,,,,,,,,,,,,,,,,,&#############################                  ",
"                    ###############*,,,,,,,,,,,,,,,,,,,,,&#############################                  ",
"                    ###############*,,,,,,,,,,,,,,,,,,,,,,,,,##########################                  ",
"                    ###############*,,,,,,,,,,,,,,,,,,,,,,,,,##########################                  ",
"                    ###############*,,,,,,,,,,,,,,,,,,,,,,,,,##########################                  ",
"                    ###############*,,,,,,>----------;,,,,,,,&&&$######################                  ",
"                    ###############*,,,,,,-##########*,,,,,,,,,,*######################                  ",
"                    ###############*,,,,,,-##########*,,,,,,,,,,*######################                  ",
"                    ###############*,,,,,,-##########*,,,,,,,,,,*######################                  ",
"                    ###############$&&&&&&%##########*,,,,,,,&&&$######################                  ",
"                    #################################*,,,,,,,##########################                  ",
"                    #################################*,,,,,,,##########################                  ",
"                    #################################*,,,,,,,##########################                  ",
"                    ##############################,,,,,,,,,,,##########################                  ",
"                    ##############################,,,,,,,,,,,##########################                  ",
"                    ##############################,,,,,,,,,,,##########################                  ",
"                    ##############################,,,,,,,=***##########################                  ",
"                    ##############################,,,,,,,&#############################                  ",
"                    ##############################,,,,,,,&#############################                  ",
"                    ##############################,,,,,,,&#############################                  ",
"                    ##########################-,,,,,,,,,,&#############################                  ",
"                    ##########################-,,,,,,,,,,&#############################                  ",
"                    ##########################-,,,,,,,,,,&#############################                  ",
"                    ##########################-,,,,,,>---%#############################                  ",
"                    ##########################-,,,,,,-#################################                  ",
"                    ##########################-,,,,,,-#################################                  ",
"                    ##########################-,,,,,,-#################################                  ",
"                    ##########################-,,,,,,-#################################                  ",
"                    ##########################-,,,,,,-#################################                  ",
"                    ##########################-,,,,,,-#################################                  ",
"                    ##########################-,,,,,,-#################################                  ",
"                    ###################################################################                  ",
"                    ###################################################################                  ",
"                    ###################################################################                  ",
"                    ###################################################################                  ",
"                    ###################################################################                  ",
"                    ###################################################################                  ",
"                    ###################################################################                  ",
"                    ###################################################################                  ",
"                    ###################################################################                  ",
"                    ###################################################################                  ",
"                    ###################################################################                  ",
"                    ###################################################################                  ",
"                    ###################################################################                  ",
"                    ###################################################################                  ",
"                    ###################################################################                  ",
"                    ###################################################################                  ",
"                    ###################################################################                  ",
"                    ###################################################################                  ",
"                    @@@@@@@@@@@@@@@@@@@@@@@@@@@@@@@@@@@@@@@@@@@@@@@@@@@@@@@@@@@@@@@@@@@                  ",
"                                                                                                         ",
"                                                                                                         ",
"                                                                                                         ",
"                                                                                                         ",
"                                                                                                         ",
"                                                                                                         ",
"                                                                                                         ",
"                                                                                                         ",
"                                                                                                         ",
"                                                                                                         ",
"                                                                                                         ",
"                                                                                                         ",
"                                                                                                         ",
"                                                                                                         ",
"                                                                                                         ",
"                                                                                                         ",
"                                                                                                         ",
"                                                                                                         ",
"                                                                                                         ",
"                                                                                                         ",
"                                                                                                         ",
"                                                                                                         ",
"                                                                                                         ",
"                                                                                                         ",
"                                                                                                         ",
"                                                                                                         ",
"                                                                                                         "};
