/* XPM */
static xpm_row_t const T_xpm[] = {
"105 123 11 1",
" 	c None",
".	c #000000",
"+	c #000000",
"@	c #000000",
"#	c #000000",
"$	c #6E6E6E",
"%	c #939393",
"&	c #B1B1B1",
"*	c #DADADA",
"=	c #F5F5F5",
"-	c #FFFFFF",
"                                                                                                         ",
"                                                                                                         ",
"                                                                                                         ",
"                                                                                                         ",
"                                                                                                         ",
"                                                                                                         ",
"                                                                                                         ",
"                                                                                                         ",
"                                                                                                         ",
"                                                                                                         ",
"                                                                                                         ",
"                    ###################################################################                  ",
"                    ###################################################################                  ",
"                    ###################################################################                  ",
"                    ###################################################################                  ",
"                    ###################################################################                  ",
"                    ###################################################################                  ",
"                    ###################################################################                  ",
"                    ###################################################################                  ",
"                    ###################################################################                  ",
"                    ###################################################################                  ",
"                    ###################################################################                  ",
"                    ###################################################################                  ",
"                    ###################################################################                  ",
"                    ###################################################################                  ",
"                    ###################################################################                  ",
"                    ###################################################################                  ",
"                    ###################################################################                  ",
"                    ###################################################################                  ",
"                    ###################################################################                  ",
"                    ###################################################################                  ",
"                    ###################################################################                  ",
"                    ###################################################################                  ",
"                    ###################################################################                  ",
"                    ###################################################################                  ",
"                    ###################################################################                  ",
"                    ###################################################################                  ",
"                    ###################################################################                  ",
"                    ###################################################################                  ",
"                    ###################################################################                  ",
"                    ###################################################################                  ",
"                    ###################################################################                  ",
"                    ###################################################################                  ",
"                    ###################################################################                  ",
"                    ###############$&&&&&&&&&&&&&&&&&&&&&&&&&&&&$######################                  ",
"                    ###############&----------------------------&######################                  ",
"                    ###############&----------------------------&######################                  ",
"                    ###############&----------------------------&######################                  ",
"                    ###############&----------------------------&######################                  ",
"                    ###############&----------------------------&######################                  ",
"                    ###############&----------------------------&######################                  ",
"                    ###############%**********=------=**********%######################                  ",
"                    ##########################*------*#################################                  ",
"                    ##########################*------*#################################                  ",
"                    ##########################*------*#################################                  ",
"                    ##########################*------*#################################                  ",
"                    ##########################*------*#################################                  ",
"                    ##########################*------*#################################                  ",
"                    ##########################*------*#################################                  ",
"                    ##########################*------*#################################                  ",
"                    ##########################*------*#################################                  ",
"                    ##########################*------*#################################                  ",
"                    ##########################*------*#################################                  ",
"                    ##########################*------*#################################                  ",
"                    ##########################*------*#################################                  ",
"                    ##########################*------*#################################                  ",
"                    ######################$----------*#################################                  ",
"                    ######################$----------*#################################                  ",
"                    ######################$----------*#################################                  ",
"                    ######################$----------*#################################                  ",
"                    ######################$----------*#################################                  ",
"                    ######################$----------*#################################                  ",
"                    ######################$----------*#################################                  ",
"                    ######################$----------*#################################                  ",
"                    ######################$----------*#################################                  ",
"                    ######################$----------*#################################                  ",
"                    ######################$----------*#################################                  ",
"                    ###################################################################                  ",
"                    ###################################################################                  ",
"                    ###################################################################                  ",
"                    ###################################################################                  ",
"                    ###################################################################                  ",
"                    ###################################################################                  ",
"                    ###################################################################                  ",
"                    ###################################################################                  ",
"                    ###################################################################                  ",
"                    ###################################################################                  ",
"                    ###################################################################                  ",
"                    ###################################################################                  ",
"                    ###################################################################                  ",
"                    ###################################################################                  ",
"                    ###################################################################                  ",
"                    ###################################################################                  ",
"                    ###################################################################                  ",
"                    ###################################################################                  ",
"                    @@@@@@@@@@@@@@@@@@@@@@@@@@@@@@@@@@@@@@@@@@@@@@@@@@@@@@@@@@@@@@@@@@@                  ",
"                                                                                                         ",
"                                                                                                         ",
"                                                                                                         ",
"                                                                                                         ",
"                                                                                                         ",
"                                                                                                         ",
"                                                                                                         ",
"                                                                                                         ",
"                                                                                                         ",
"                                                                                                         ",
"                                                                                                         ",
"                                                                                                         ",
"                                                                                                         ",
"                                                                                                         ",
"                                                                                                         ",
"                                                                                                         ",
"                                                                                                         ",
"                                                                                                         ",
"                                                                                                         ",
"                                                                                                         ",
"                                                                                                         ",
"                                                                                                         ",
"                                                                                                         ",
"                                                                                                         ",
"                                                                                                         ",
"                                                                                                         ",
"                                                                                                         "};
