/* XPM */
static xpm_row_t const Three_xpm[] = {
"101 123 16 1",
" 	c None",
".	c #000000",
"+	c #000000",
"@	c #000000",
"#	c #000000",
"$	c #3D3D3D",
"%	c #575757",
"&	c #6E6E6E",
"*	c #939393",
"=	c #A3A3A3",
"-	c #B1B1B1",
";	c #BCBCBC",
">	c #DADADA",
",	c #E3E3E3",
"'	c #ECECEC",
")	c #FFFFFF",
"                                                                                                     ",
"                                                                                                     ",
"                                                                                                     ",
"                                                                                                     ",
"                                                                                                     ",
"                                                                                                     ",
"                                                                                                     ",
"                                                                                                     ",
"                                                                                                     ",
"                                                                                                     ",
"                                                                                                     ",
"                    ###################################################################              ",
"                    ###################################################################              ",
"                    ###################################################################              ",
"                    ###################################################################              ",
"                    ###################################################################              ",
"                    ###################################################################              ",
"                    ###################################################################              ",
"                    ###################################################################              ",
"                    ###################################################################              ",
"                    ###################################################################              ",
"                    ###################################################################              ",
"                    ###################################################################              ",
"                    ###################################################################              ",
"                    ###################################################################              ",
"                    ###################################################################              ",
"                    ###################################################################              ",
"                    ###################################################################              ",
"                    ###################################################################              ",
"                    ###################################################################              ",
"                    ###################################################################              ",
"                    ###################################################################              ",
"                    ###################################################################              ",
"                    ###################################################################              ",
"                    ###################################################################              ",
"                    ###################################################################              ",
"                    ###################################################################              ",
"                    ###################################################################              ",
"                    ###################################################################              ",
"                    ###################################################################              ",
"                    ###################################################################              ",
"                    ###################################################################              ",
"                    ###################################################################              ",
"                    ###################################################################              ",
"                    ###############&-----------------*#################################              ",
"                    ###############-)))))))))))))))))>#################################              ",
"                    ###############-)))))))))))))))))>#################################              ",
"                    ###############-)))))))))))))))))>#################################              ",
"                    ###############-)))))))))))))))))))))&#############################              ",
"                    ###############-)))))))))))))))))))))&#############################              ",
"                    ###############-)))))))))))))))))))))&#############################              ",
"                    ###############*>>>>>>>>>>>>>>)))))))=&&&##########################              ",
"                    ##############################)))))))))))##########################              ",
"                    ##############################)))))))))))##########################              ",
"                    ##############################)))))))))))##########################              ",
"                    ##########################;>>>)))))))=&&&##########################              ",
"                    ##########################>))))))))))&#############################              ",
"                    ##########################>))))))))))&#############################              ",
"                    ##########################>))))))))))&#############################              ",
"                    ######################&))))))))))>#################################              ",
"                    ######################&))))))))))>#################################              ",
"                    ######################&))))))))))>#################################              ",
"                    ######################$---'))))))'---$#############################              ",
"                    ##########################>))))))))))&#############################              ",
"                    ##########################>))))))))))&#############################              ",
"                    ##########################>))))))))))&#############################              ",
"                    ##########################%&&&)))))))))))##########################              ",
"                    ##############################)))))))))))##########################              ",
"                    ##############################)))))))))))##########################              ",
"                    ###############$&&&&&&&&&&&&&&))))))),>>>##########################              ",
"                    ###############-)))))))))))))))))))))&#############################              ",
"                    ###############-)))))))))))))))))))))&#############################              ",
"                    ###############-)))))))))))))))))))))&#############################              ",
"                    ###############-)))))))))))))))))'---$#############################              ",
"                    ###############-)))))))))))))))))>#################################              ",
"                    ###############-)))))))))))))))))>#################################              ",
"                    ###############-)))))))))))))))))>#################################              ",
"                    ###################################################################              ",
"                    ###################################################################              ",
"                    ###################################################################              ",
"                    ###################################################################              ",
"                    ###################################################################              ",
"                    ###################################################################              ",
"                    ###################################################################              ",
"                    ###################################################################              ",
"                    ###################################################################              ",
"                    ###################################################################              ",
"                    ###################################################################              ",
"                    ###################################################################              ",
"                    ###################################################################              ",
"                    ###################################################################              ",
"                    ###################################################################              ",
"                    ###################################################################              ",
"                    ###################################################################              ",
"                    ###################################################################              ",
"                    @@@@@@@@@@@@@@@@@@@@@@@@@@@@@@@@@@@@@@@@@@@@@@@@@@@@@@@@@@@@@@@@@@@              ",
"                                                                                                     ",
"                                                                                                     ",
"                                                                                                     ",
"                                                                                                     ",
"                                                                                                     ",
"                                                                                                     ",
"                                                                                                     ",
"                                                                                                     ",
"                                                                                                     ",
"                                                                                                     ",
"                                                                                                     ",
"                                                                                                     ",
"                                                                                                     ",
"                                                                                                     ",
"                                                                                                     ",
"                                                                                                     ",
"                                                                                                     ",
"                                                                                                     ",
"                                                                                                     ",
"                                                                                                     ",
"                                                                                                     ",
"                                                                                                     ",
"                                                                                                     ",
"                                                                                                     ",
"                                                                                                     ",
"                                                                                                     ",
"                                                                                                     "};
