/* XPM */
static xpm_row_t const W_xpm[] = {
"108 123 16 1",
" 	c None",
".	c #000000",
"+	c #000000",
"@	c #000000",
"#	c #000000",
"$	c #1F1F1F",
"%	c #3D3D3D",
"&	c #6E6E6E",
"*	c #939393",
"=	c #B1B1B1",
"-	c #BCBCBC",
";	c #C7C7C7",
">	c #DADADA",
",	c #ECECEC",
"'	c #F5F5F5",
")	c #FFFFFF",
"                                                                                                            ",
"                                                                                                            ",
"                                                                                                            ",
"                                                                                                            ",
"                                                                                                            ",
"                                                                                                            ",
"                                                                                                            ",
"                                                                                                            ",
"                                                                                                            ",
"                                                                                                            ",
"                                                                                                            ",
"                    ###################################################################                     ",
"                    ###################################################################                     ",
"                    ###################################################################                     ",
"                    ###################################################################                     ",
"                    ###################################################################                     ",
"                    ###################################################################                     ",
"                    ###################################################################                     ",
"                    ###################################################################                     ",
"                    ###################################################################                     ",
"                    ###################################################################                     ",
"                    ###################################################################                     ",
"                    ###################################################################                     ",
"                    ###################################################################                     ",
"                    ###################################################################                     ",
"                    ###################################################################                     ",
"                    ###################################################################                     ",
"                    ###################################################################                     ",
"                    ###################################################################                     ",
"                    ###################################################################                     ",
"                    ###################################################################                     ",
"                    ###################################################################                     ",
"                    ###################################################################                     ",
"                    ###################################################################                     ",
"                    ###################################################################                     ",
"                    ###################################################################                     ",
"                    ###################################################################                     ",
"                    ###################################################################                     ",
"                    ###################################################################                     ",
"                    ###################################################################                     ",
"                    ###################################################################                     ",
"                    ###################################################################                     ",
"                    ###################################################################                     ",
"                    ###################################################################                     ",
"                    ###############&======*#################%=======%##################                     ",
"                    ###############=))))))>#################&)))))))&##################                     ",
"                    ###############=))))))>#################&)))))))&##################                     ",
"                    ###############=))))))>#################&)))))))&##################                     ",
"                    ###############=))))))>#################&)))))))&##################                     ",
"                    ###############=))))))>#################&)))))))&##################                     ",
"                    ###############=))))))>#################&)))))))&##################                     ",
"                    ###############=))))))>#################&)))))))&##################                     ",
"                    ###############=))))))>#################&)))))))&##################                     ",
"                    ###############=))))))>#################&)))))))&##################                     ",
"                    ###############=))))))>#################&)))))))&##################                     ",
"                    ###############=))))))>#######>>>-######&)))))))&##################                     ",
"                    ###############=))))))>#######)))>######&)))))))&##################                     ",
"                    ###############=))))))>#######)))>######&)))))))&##################                     ",
"                    ###############=))))))>#######)))>######&)))))))&##################                     ",
"                    ###############=))))))>###>))))))))))&##&)))))))&##################                     ",
"                    ###############=))))))>###>))))))))))&##&)))))))&##################                     ",
"                    ###############=))))))>###>))))))))))&##&)))))))&##################                     ",
"                    ###############=)))))),===,))))))))));==;)))))))&##################                     ",
"                    ###############=))))))))))))))))))))))))))))))))&##################                     ",
"                    ###############=))))))))))))))))))))))))))))))))&##################                     ",
"                    ###############=))))))))))))))))))))))))))))))))&##################                     ",
"                    ###############%&&&)))))))))))&&&;))))))))));&&&$##################                     ",
"                    ###################)))))))))))###=))))))))))=######################                     ",
"                    ###################)))))))))))###=))))))))))=######################                     ",
"                    ###################))))))),>>>###*>>>'))))))=######################                     ",
"                    ###################)))))))=##########>))))))=######################                     ",
"                    ###################)))))))=##########>))))))=######################                     ",
"                    ###################)))))))=##########>))))))=######################                     ",
"                    ###################))),===&##########*==;)))=######################                     ",
"                    ###################)))>#################&)))=######################                     ",
"                    ###################)))>#################&)))=######################                     ",
"                    ###################)))>#################&)))=######################                     ",
"                    ###################################################################                     ",
"                    ###################################################################                     ",
"                    ###################################################################                     ",
"                    ###################################################################                     ",
"                    ###################################################################                     ",
"                    ###################################################################                     ",
"                    ###################################################################                     ",
"                    ###################################################################                     ",
"                    ###################################################################                     ",
"                    ###################################################################                     ",
"                    ###################################################################                     ",
"                    ###################################################################                     ",
"                    ###################################################################                     ",
"                    ###################################################################                     ",
"                    ###################################################################                     ",
"                    ###################################################################                     ",
"                    ###################################################################                     ",
"                    ###################################################################                     ",
"                    @@@@@@@@@@@@@@@@@@@@@@@@@@@@@@@@@@@@@@@@@@@@@@@@@@@@@@@@@@@@@@@@@@@                     ",
"                                                                                                            ",
"                                                                                                            ",
"                                                                                                            ",
"                                                                                                            ",
"                                                                                                            ",
"                                                                                                            ",
"                                                                                                            ",
"                                                                                                            ",
"                                                                                                            ",
"                                                                                                            ",
"                                                                                                            ",
"                                                                                                            ",
"                                                                                                            ",
"                                                                                                            ",
"                                                                                                            ",
"                                                                                                            ",
"                                                                                                            ",
"                                                                                                            ",
"                                                                                                            ",
"                                                                                                            ",
"                                                                                                            ",
"                                                                                                            ",
"                                                                                                            ",
"                                                                                                            ",
"                                                                                                            ",
"                                                                                                            ",
"                                                                                                            "};
