/* XPM */
static xpm_row_t const Z_xpm[] = {
"101 123 14 1",
" 	c None",
".	c #000000",
"+	c #000000",
"@	c #000000",
"#	c #000000",
"$	c #3D3D3D",
"%	c #6E6E6E",
"&	c #939393",
"*	c #A3A3A3",
"=	c #B1B1B1",
"-	c #BCBCBC",
";	c #C7C7C7",
">	c #DADADA",
",	c #FFFFFF",
"                                                                                                     ",
"                                                                                                     ",
"                                                                                                     ",
"                                                                                                     ",
"                                                                                                     ",
"                                                                                                     ",
"                                                                                                     ",
"                                                                                                     ",
"                                                                                                     ",
"                                                                                                     ",
"                                                                                                     ",
"                    ###################################################################              ",
"                    ###################################################################              ",
"                    ###################################################################              ",
"                    ###################################################################              ",
"                    ###################################################################              ",
"                    ###################################################################              ",
"                    ###################################################################              ",
"                    ###################################################################              ",
"                    ###################################################################              ",
"                    ###################################################################              ",
"                    ###################################################################              ",
"                    ###################################################################              ",
"                    ###################################################################              ",
"                    ###################################################################              ",
"                    ###################################################################              ",
"                    ###################################################################              ",
"                    ###################################################################              ",
"                    ###################################################################              ",
"                    ###################################################################              ",
"                    ###################################################################              ",
"                    ###################################################################              ",
"                    ###################################################################              ",
"                    ###################################################################              ",
"                    ###################################################################              ",
"                    ###################################################################              ",
"                    ###################################################################              ",
"                    ###################################################################              ",
"                    ###################################################################              ",
"                    ###################################################################              ",
"                    ###################################################################              ",
"                    ###################################################################              ",
"                    ###################################################################              ",
"                    ###################################################################              ",
"                    ###############%=====================$#############################              ",
"                    ###############=,,,,,,,,,,,,,,,,,,,,,%#############################              ",
"                    ###############=,,,,,,,,,,,,,,,,,,,,,%#############################              ",
"                    ###############=,,,,,,,,,,,,,,,,,,,,,%#############################              ",
"                    ###############=,,,,,,,,,,,,,,,,,,,,,,,,,##########################              ",
"                    ###############=,,,,,,,,,,,,,,,,,,,,,,,,,##########################              ",
"                    ###############=,,,,,,,,,,,,,,,,,,,,,,,,,##########################              ",
"                    ###############&>>>>>>>>>>>>>>,,,,,,,,,,,##########################              ",
"                    ##############################,,,,,,,,,,,##########################              ",
"                    ##############################,,,,,,,,,,,##########################              ",
"                    ##############################,,,,,,,,,,,##########################              ",
"                    ##########################->>>,,,,,,,*%%%##########################              ",
"                    ##########################>,,,,,,,,,,%#############################              ",
"                    ##########################>,,,,,,,,,,%#############################              ",
"                    ##########################>,,,,,,,,,,%#############################              ",
"                    ######################%,,,,,,,,,,>#################################              ",
"                    ######################%,,,,,,,,,,>#################################              ",
"                    ######################%,,,,,,,,,,>#################################              ",
"                    ###################===;,,,,,,,===&#################################              ",
"                    ###################,,,,,,,,,,,#####################################              ",
"                    ###################,,,,,,,,,,,#####################################              ",
"                    ###################,,,,,,,,,,,#####################################              ",
"                    ###############=,,,,,,,,,,;%%%#####################################              ",
"                    ###############=,,,,,,,,,,=########################################              ",
"                    ###############=,,,,,,,,,,=########################################              ",
"                    ###############=,,,,,,,,,,;%%%%%%%%%%%%%%##########################              ",
"                    ###############=,,,,,,,,,,,,,,,,,,,,,,,,,##########################              ",
"                    ###############=,,,,,,,,,,,,,,,,,,,,,,,,,##########################              ",
"                    ###############=,,,,,,,,,,,,,,,,,,,,,,,,,##########################              ",
"                    ###############=,,,,,,,,,,,,,,,,,,,,,,,,,##########################              ",
"                    ###############=,,,,,,,,,,,,,,,,,,,,,,,,,##########################              ",
"                    ###############=,,,,,,,,,,,,,,,,,,,,,,,,,##########################              ",
"                    ###############=,,,,,,,,,,,,,,,,,,,,,,,,,##########################              ",
"                    ###################################################################              ",
"                    ###################################################################              ",
"                    ###################################################################              ",
"                    ###################################################################              ",
"                    ###################################################################              ",
"                    ###################################################################              ",
"                    ###################################################################              ",
"                    ###################################################################              ",
"                    ###################################################################              ",
"                    ###################################################################              ",
"                    ###################################################################              ",
"                    ###################################################################              ",
"                    ###################################################################              ",
"                    ###################################################################              ",
"                    ###################################################################              ",
"                    ###################################################################              ",
"                    ###################################################################              ",
"                    ###################################################################              ",
"                    @@@@@@@@@@@@@@@@@@@@@@@@@@@@@@@@@@@@@@@@@@@@@@@@@@@@@@@@@@@@@@@@@@@              ",
"                                                                                                     ",
"                                                                                                     ",
"                                                                                                     ",
"                                                                                                     ",
"                                                                                                     ",
"                                                                                                     ",
"                                                                                                     ",
"                                                                                                     ",
"                                                                                                     ",
"                                                                                                     ",
"                                                                                                     ",
"                                                                                                     ",
"                                                                                                     ",
"                                                                                                     ",
"                                                                                                     ",
"                                                                                                     ",
"                                                                                                     ",
"                                                                                                     ",
"                                                                                                     ",
"                                                                                                     ",
"                                                                                                     ",
"                                                                                                     ",
"                                                                                                     ",
"                                                                                                     ",
"                                                                                                     ",
"                                                                                                     ",
"                                                                                                     "};
