/* XPM */
static xpm_row_t const A_xpm[] = {
"42 44 75 1",
" 	c None",
".	c #000000",
"+	c #040709",
"@	c #2B353C",
"#	c #404040",
"$	c #363529",
"%	c #010000",
"&	c #0E1922",
"*	c #9ABBD6",
"=	c #E2E2E2",
"-	c #BEBC91",
";	c #050000",
">	c #101C26",
",	c #AED3F1",
"'	c #FFFFFF",
")	c #D6D4A3",
"!	c #DDDBB2",
"~	c #2D2828",
"{	c #282828",
"]	c #1E160D",
"^	c #F6F6EC",
"/	c #CCCACA",
"(	c #CACACA",
"_	c #977142",
":	c #BF8E53",
"<	c #010103",
"[	c #13141B",
"}	c #232323",
"|	c #303B44",
"1	c #B9DAF3",
"2	c #C79E6B",
"3	c #110605",
"4	c #060818",
"5	c #9197C6",
"6	c #7A2F24",
"7	c #F5EBDF",
"8	c #634520",
"9	c #2A2B83",
"0	c #FCFFFF",
"a	c #010304",
"b	c #35393C",
"c	c #626262",
"d	c #666771",
"e	c #BCBFDC",
"f	c #03070A",
"g	c #89939C",
"h	c #000003",
"i	c #2B343C",
"j	c #656969",
"k	c #6A6C6E",
"l	c #BAC0C5",
"m	c #F9F4EC",
"n	c #A3917B",
"o	c #696969",
"p	c #8181B6",
"q	c #FDFFFF",
"r	c #000006",
"s	c #697F92",
"t	c #F8FFFF",
"u	c #FDFAF8",
"v	c #DCD5CC",
"w	c #C5C5C5",
"x	c #CFCFCF",
"y	c #FEFFFF",
"z	c #2A2A2B",
"A	c #FCFDFE",
"B	c #000004",
"C	c #3C4853",
"D	c #8C9090",
"E	c #909090",
"F	c #8B857E",
"G	c #382712",
"H	c #181818",
"I	c #8F9090",
"J	c #451B14",
"..........................................",
"..........................................",
"..........................................",
"..........................................",
"..........................................",
"...............+@#######$%................",
"...............&*=======-;................",
"...............>,''''''');................",
"...............>,'''''''!~{]..............",
"...............>,'''''''^/(_..............",
"...............>,'''''''''':..............",
"............<[}|1''''''''''2}}3...........",
"............45''''''''''''''''6...........",
"............45''''''''''''''''6...........",
"............45''''''''''''''''6...........",
"............45'78.......90''''6...........",
"............45'78.......90''''6...........",
".........abcde'78.......90''''6...........",
".........fg''''78.......90''''6...........",
".........fg''''78.......90''''6...........",
".........fg''''78.......90''''6...........",
".........fg''''78.......90''''6...........",
".........fg''''78.......90''''6...........",
"......hijkl''''mnooooooopq''''6...........",
"......rst'''''''''''''''''''''6...........",
"......rst'''''''''''''''''''''6...........",
"......rst''''''uvwwwwxy'''''''6...........",
"......rst''''''78....zA'''''''6...........",
"......rst''''''78....zA'''''''6...........",
"......rst''''''78....zA'''''''6...........",
"......rst''''''78....zA'''''''6...........",
"......rst''''''78....zA'''''''6...........",
"......BCDEEEEEEFG....HIEEEEEEEJ...........",
"..........................................",
"..........................................",
"..........................................",
"..........................................",
"..........................................",
"..........................................",
"..........................................",
"..........................................",
"..........................................",
"..........................................",
".........................................."};
