/* XPM */
static xpm_row_t const A_lil_xpm[] = {
"19 28 149 2",
"  	c None",
". 	c #000000",
"+ 	c #020203",
"@ 	c #1E272C",
"# 	c #414345",
"$ 	c #434242",
"% 	c #424242",
"& 	c #414142",
"* 	c #333328",
"= 	c #06080C",
"- 	c #6C889D",
"; 	c #E6EDF4",
"> 	c #EBEAE9",
", 	c #E9E9E9",
"' 	c #E9E9EA",
") 	c #E9E9E7",
"! 	c #B2AF8B",
"~ 	c #07090D",
"{ 	c #7895AC",
"] 	c #FBFFFF",
"^ 	c #FFFFFF",
"/ 	c #FDFDFA",
"( 	c #C6C39C",
"_ 	c #040000",
": 	c #040505",
"< 	c #020101",
"[ 	c #07090E",
"} 	c #FEFEFD",
"| 	c #E3E2D0",
"1 	c #898788",
"2 	c #7D7265",
"3 	c #2A1D0C",
"4 	c #07090C",
"5 	c #7693AA",
"6 	c #FEFEFE",
"7 	c #FFFEFC",
"8 	c #E8D4BB",
"9 	c #4E3314",
"0 	c #05060A",
"a 	c #25262E",
"b 	c #3B4043",
"c 	c #94ABBE",
"d 	c #FFFEFD",
"e 	c #EFE0CE",
"f 	c #746148",
"g 	c #2A2D31",
"h 	c #000002",
"i 	c #1A1C31",
"j 	c #BABFE2",
"k 	c #F8F3F2",
"l 	c #B8BDE0",
"m 	c #B9BEE1",
"n 	c #FFFDFA",
"o 	c #BAAA97",
"p 	c #5E5953",
"q 	c #565657",
"r 	c #585858",
"s 	c #585857",
"t 	c #58585A",
"u 	c #8080B0",
"v 	c #000001",
"w 	c #191B30",
"x 	c #BABEE3",
"y 	c #FDFAF6",
"z 	c #91785B",
"A 	c #070000",
"B 	c #010107",
"C 	c #343581",
"D 	c #020303",
"E 	c #2C3034",
"F 	c #717273",
"G 	c #868792",
"H 	c #DADDF1",
"I 	c #FBF9F6",
"J 	c #967E62",
"K 	c #080200",
"L 	c #020208",
"M 	c #3D3E86",
"N 	c #050606",
"O 	c #626B72",
"P 	c #F6F8F9",
"Q 	c #F9F7F4",
"R 	c #606970",
"S 	c #F5F7F9",
"T 	c #60686F",
"U 	c #967E61",
"V 	c #3C3D86",
"W 	c #010000",
"X 	c #616A71",
"Y 	c #F5F8F9",
"Z 	c #090300",
"` 	c #010101",
" .	c #010100",
"..	c #3E3F87",
"+.	c #525C63",
"@.	c #898B8C",
"#.	c #B4B7BB",
"$.	c #FAFCFC",
"%.	c #FCFBFA",
"&.	c #CDC2B3",
"*.	c #8A8782",
"=.	c #848586",
"-.	c #868686",
";.	c #868688",
">.	c #A2A2C5",
",.	c #A2B2C2",
"'.	c #9EB0BF",
").	c #F5F3F1",
"!.	c #E7E7E7",
"~.	c #E8E8E8",
"{.	c #F7F7F7",
"].	c #FAF9F6",
"^.	c #A8947B",
"/.	c #322D25",
"(.	c #27292A",
"_.	c #292929",
":.	c #363636",
"<.	c #BABABB",
"[.	c #937B5D",
"}.	c #0B0B0B",
"|.	c #A9AAAB",
"1.	c #0D0D0D",
"2.	c #ACACAD",
"3.	c #FAF8F6",
"4.	c #9A8265",
"5.	c #090100",
"6.	c #0D0D0E",
"7.	c #AEAEAF",
"8.	c #76838E",
"9.	c #C4C5C3",
"0.	c #BDBDBD",
"a.	c #BEBFBF",
"b.	c #BDB9B6",
"c.	c #705E48",
"d.	c #060100",
"e.	c #09090A",
"f.	c #818182",
"g.	c #C9C9C9",
"h.	c #BEBEBE",
"i.	c #BBB9B9",
"j.	c #0D0E10",
"k.	c #151615",
"l.	c #151515",
"m.	c #141414",
"n.	c #0C0B08",
"o.	c #0D0E0E",
"p.	c #161616",
"q.	c #141515",
"r.	c #000000",
". . . . . . . . . . . . . . . . . . . ",
". . . . . . . . . . . . . . . . . . . ",
". . . . . . . . . . . . . . . . . . . ",
". . . . . . . . . . . . . . . . . . . ",
". . . . . . . @ $ $ $ $ $ $ * . . . . ",
". . . . . . . - S > > > > > ! . . . . ",
". . . . . . L 5 ^ ^ ^ ^ ^ ^ ( . . . . ",
". . . . . . L { ^ ^ ^ ^ ^ ^ | 1 2 3 . ",
". . . . . . L 5 ^ ^ ^ ^ ^ ^ ^ ^ 8 9 . ",
". . . . . a b >.Y ^ ^ ^ ^ ^ ^ ^ e c.a ",
". . . . i j ^ ^ ^ ^ ^ ^ ^ ^ ^ ^ ^ ^ ^ ",
". . . . w j ^ ^ ^ ^ ^ ^ ^ ^ ^ ^ ^ ^ k ",
". . . . w l ^ o q q q q q q u ^ ^ ^ y ",
". . . . w x ^ z . . . . . . C ^ ^ ^ k ",
". . a F 1 H ^ z . . . . . . C ^ ^ ^ k ",
". . F ^ ^ ^ y z . . . . . . V ^ ^ ^ k ",
". . R Y ^ ^ y 4.. . . . . . C ^ ^ ^ y ",
". . R Y ^ ^ y z . . . . . . ..^ ^ ^ k ",
". . R Y ^ ^ ^ J 5.. . . . L C ^ ^ ^ y ",
"+.G <.^ ^ ^ y &.*.1 1 1 1 1 >.^ ^ ^ k ",
",.^ ^ ^ ^ ^ ^ ^ ^ ^ ^ ^ ^ ^ ^ ^ ^ ^ y ",
"'.^ ^ ^ ^ ^ ^ > > > > > ^ ^ ^ ^ ^ ^ k ",
"c ^ ^ ^ ^ ^ ^ ^.(.(.(.(.<.^ ^ ^ ^ ^ k ",
"'.^ ^ ^ ^ ^ > z . . . . |.^ ^ ^ ^ ^ k ",
"c ^ ^ ^ ^ ^ ^ J . . . j.|.^ ^ ^ ^ ^ ^ ",
",.^ ^ ^ ^ ^ y z 5.. . . <.^ ^ ^ ^ ^ k ",
"- &.<.<.<.<.<.f . . . j.F g.<.<.<.<.<.",
". j.j.j.j.j.j.5.. . . . j.j.j.j.j.j.j."};
