/* XPM */
static xpm_row_t const A_xpm[] = {
"37 36 147 2",
"  	c None",
". 	c #000000",
"+ 	c #010101",
"@ 	c #020406",
"# 	c #283239",
"$ 	c #404142",
"% 	c #424242",
"& 	c #434343",
"* 	c #3D3C30",
"= 	c #090806",
"- 	c #071017",
"; 	c #8CADC7",
"> 	c #DEE2E4",
", 	c #E5E4E4",
"' 	c #E4E4E4",
") 	c #E6E6E9",
"! 	c #CFCEA6",
"~ 	c #201B14",
"{ 	c #08121A",
"] 	c #9DC2E0",
"^ 	c #F9FCFF",
"/ 	c #FFFFFF",
"( 	c #E8E7BA",
"_ 	c #231E16",
": 	c #ECEBC6",
"< 	c #49443E",
"[ 	c #2A292B",
"} 	c #241D14",
"| 	c #050402",
"1 	c #FAFAF1",
"2 	c #D5D3D1",
"3 	c #D0D2D5",
"4 	c #AB895E",
"5 	c #191209",
"6 	c #D7AA75",
"7 	c #1F160B",
"8 	c #000002",
"9 	c #14151D",
"0 	c #262626",
"a 	c #2E363E",
"b 	c #ADCCE4",
"c 	c #FAFDFF",
"d 	c #DBB78A",
"e 	c #423A31",
"f 	c #262829",
"g 	c #180E0D",
"h 	c #030100",
"i 	c #000210",
"j 	c #858BBB",
"k 	c #F8F8FC",
"l 	c #9D594F",
"m 	c #150502",
"n 	c #8489B8",
"o 	c #9B584F",
"p 	c #FBFAF9",
"q 	c #F9F9F9",
"r 	c #FAFAFB",
"s 	c #FEFEFF",
"t 	c #F8F9FD",
"u 	c #FDF5EA",
"v 	c #71522D",
"w 	c #080501",
"x 	c #141468",
"y 	c #DDE0EF",
"z 	c #010202",
"A 	c #030302",
"B 	c #030512",
"C 	c #858BBA",
"D 	c #745631",
"E 	c #171869",
"F 	c #DEE1EF",
"G 	c #000102",
"H 	c #35393C",
"I 	c #666767",
"J 	c #6A6B72",
"K 	c #B7BAD6",
"L 	c #FBFCFF",
"M 	c #FDF4EA",
"N 	c #000205",
"O 	c #808A93",
"P 	c #F9FAFA",
"Q 	c #FCF4EA",
"R 	c #7E8891",
"S 	c #020202",
"T 	c #040404",
"U 	c #030609",
"V 	c #818B94",
"W 	c #765934",
"X 	c #0C0905",
"Y 	c #030304",
"Z 	c #020100",
"` 	c #1B1B6C",
" .	c #2C363E",
"..	c #6C7070",
"+.	c #717374",
"@.	c #B8BEC3",
"#.	c #FCFCFC",
"$.	c #FDFAF3",
"%.	c #B2A28D",
"&.	c #767573",
"*.	c #727272",
"=.	c #71716E",
"-.	c #7F7FAD",
";.	c #ECEEF6",
">.	c #000003",
",.	c #64798D",
"'.	c #F7FAFB",
").	c #62778A",
"!.	c #F3FAFB",
"~.	c #FEFDFD",
"{.	c #FDFDFD",
"].	c #FFFBFA",
"^.	c #DAD2C7",
"/.	c #BCBBBA",
"(.	c #BABABA",
"_.	c #B9B9B9",
":.	c #C1C0C1",
"<.	c #F7F8F8",
"[.	c #FDF4E9",
"}.	c #70512B",
"|.	c #151415",
"1.	c #E2E3E4",
"2.	c #19191A",
"3.	c #E3E4E5",
"4.	c #607588",
"5.	c #EDF4F5",
"6.	c #F6EFE5",
"7.	c #715430",
"8.	c #191919",
"9.	c #DDDEDF",
"0.	c #FBFBFC",
"a.	c #97564D",
"b.	c #140402",
"c.	c #333E48",
"d.	c #7C8181",
"e.	c #838383",
"f.	c #838384",
"g.	c #827E79",
"h.	c #3C2C19",
"i.	c #040301",
"j.	c #0D0D0D",
"k.	c #757676",
"l.	c #848484",
"m.	c #888A8B",
"n.	c #502E28",
"o.	c #0B0301",
"p.	c #000000",
". . . . . . . . . . . . . . . . . . . . . . . . . . . . . . . . . . . . . ",
". . . . . . . . . . . . . . . . . . . . . . . . . . . . . . . . . . . . . ",
". . . . . . . . . . . . . . . . . . . . . . . . . . . . . . . . . . . . . ",
". . . . . . . . . . . . . . . . . . . . . . . . . . . . . . . . . . . . . ",
". . . . . . . . . . . . . . . . . . . . . . . . . . . . . . . . . . . . . ",
". . . . . . . . . . . . . . . . # & & & & & & & H . . . . . . . . . . . . ",
". . . . . . . . . . . . . . . - ; 9.;.9.;.9.6.;.! 7 . . . . . . . . . . . ",
". . . . . . . . . . . . . . . - ] / / / / / / / ( } . . . . . . . . . . . ",
". . . . . . . . . . . . . . . i ] / / / / / / / : & 0 7 . . . . . . . . . ",
". . . . . . . . . . . . . . . - ] / / / / / / / $.^.9.4 X . . . . . . . . ",
". . . . . . . . . . . . . . . - ] !./ / / / / / / / / 6 7 . . . . . . . . ",
". . . . . . . . . . . . . |.0  .b / / / / / / / / / / d e 0 X . . . . . . ",
". . . . . . . . . . . . i j / / / / / / / / / / / / / / / / l b.. . . . . ",
". . . . . . . . . . . . i j / / / / / / / / / / / / / / / / a.b.. . . . . ",
". . . . . . . . . . . . . j ;./ / ;./ !.$.;./ 5./ / / / / / a.b.. . . . . ",
". . . . . . . . . . . . i j / M }.. . . . . . . x y / / / / a.b.. . . . . ",
". . . . . . . . . . . . i n k $.}.. . . . . . . x y / / / / a.b.. . . . . ",
". . . . . . . . . . H I J K / M }.. . . . . . . x ) / / / / a.b.. . . . . ",
". . . . . . . . . . R / / / / $.D . . . . . . . x y / / / / a.b.. . . . . ",
". . . . . . . . . . R / / / / M }.. . . . . . . x ) / / / / a.b.. . . . . ",
". . . . . . . . . . d./ / / / $.D b.. . . . . . x y / / / / a.b.. . . . . ",
". . . . . . . . . . R / / / / M }.. . . . . . . x ) / / / / a.b.. . . . . ",
". . . . . . . . . i R !./ / / $.D b.. . . . . . x y / / / / a.b.. . . . . ",
". . . . . . .  ...k.@./ / / / $.%.k.k.k.k.k.k.=.-.;./ / / / a.b.. . . . . ",
". . . . . . . 4./ / / / / / / / / / / / / / / / / / / / / / a.b.. . . . . ",
". . . . . . . ).!./ / / / / / / / / / / / / / / / / / / / / a.b.. . . . . ",
". . . . . . . 4.!./ / / / / / / ^././././././ / / / / / / / a.b.. . . . . ",
". . . . . . . ).!./ / / / / / 6.}.. . . . |.9./ / / / / / / a.b.. . . . . ",
". . . . . . . 4.!./ / / / / / $.}.. . . . |.) / / / / / / / a.b.. . . . . ",
". . . . . . . ).!./ / / / / / 6.}.. . . . |.;./ / / / / / / a.b.. . . . . ",
". . . . . . . 4.!./ / / / / / $.D . . . . |.9./ / / / / / / a.b.. . . . . ",
". . . . . . . 4.!.!./ ;./ M / 6.}.b.. . . |.> / $.!./ / / / a.b.. . . . . ",
". . . . . . .  .d.g.k.m.k.d.k.g.h.. . . . . =.m.k.m.k.k.k.m.n.. . . . . . ",
". . . . . . . . . . . . . . . . . . . . . . . . . . . . . . . . . . . . . ",
". . . . . . . . . . . . . . . . . . . . . . . . . . . . . . . . . . . . . ",
". . . . . . . . . . . . . . . . . . . . . . . . . . . . . . . . . . . . . "};
