/* XPM */
static xpm_row_t const B_xpm[] = {
"42 44 77 1",
" 	c None",
".	c #000000",
"+	c #000002",
"@	c #1A2024",
"#	c #3E4040",
"$	c #404040",
"%	c #363529",
"&	c #010000",
"*	c #000006",
"=	c #5D7182",
"-	c #DBE2E2",
";	c #E2E2E2",
">	c #BEBC91",
",	c #050000",
"'	c #697F92",
")	c #F8FFFF",
"!	c #FFFFFF",
"~	c #D6D4A3",
"{	c #DDDBB2",
"]	c #2D2828",
"^	c #282828",
"/	c #1E160D",
"(	c #F6F6EC",
"_	c #CCCACA",
":	c #CACACA",
"<	c #977142",
"[	c #BF8E53",
"}	c #FFFEFE",
"|	c #F6F5F3",
"1	c #EDEDED",
"2	c #F0F0F0",
"3	c #FCF9F3",
"4	c #9C9482",
"5	c #4B4B4B",
"6	c #696969",
"7	c #FDFEFF",
"8	c #FBF7EE",
"9	c #72674D",
"0	c #2A2A2B",
"a	c #FCFDFE",
"b	c #FCFAF5",
"c	c #A9A292",
"d	c #626262",
"e	c #7C7C7D",
"f	c #FEFEFF",
"g	c #E6E4C6",
"h	c #666262",
"i	c #493720",
"j	c #FEFDFA",
"k	c #D6D2CB",
"l	c #B3B3B3",
"m	c #C0C0C0",
"n	c #D1AF85",
"o	c #240E0B",
"p	c #FBF7EF",
"q	c #7C725A",
"r	c #111111",
"s	c #383939",
"t	c #FBF7F3",
"u	c #722C21",
"v	c #7A2F24",
"w	c #FCF9F2",
"x	c #928A76",
"y	c #3A3A3A",
"z	c #5A5A5A",
"A	c #F0E5D8",
"B	c #C5C5C5",
"C	c #5F251C",
"D	c #FDFDFB",
"E	c #F3F3F3",
"F	c #B6884F",
"G	c #000004",
"H	c #3C4853",
"I	c #8C9090",
"J	c #909090",
"K	c #79785D",
"L	c #030000",
"..........................................",
"..........................................",
"..........................................",
"..........................................",
"..........................................",
"......+@#$$$$$$$$$$$$$$$%&................",
"......*=-;;;;;;;;;;;;;;;>,................",
"......*')!!!!!!!!!!!!!!!~,................",
"......*')!!!!!!!!!!!!!!!{]^/..............",
"......*')!!!!!!!!!!!!!!!(_:<..............",
"......*')!!!!!!!!!!!!!!!!!![..............",
"......*')!!!}|11111112!!!!![..............",
"......*')!!!34555555567!!!![..............",
"......*')!!!89.......0a!!!![..............",
"......*')!!!89.......0a!!!![..............",
"......*')!!!89.......0a!~,................",
"......*')!!!89.......0a!~,................",
"......*')!!!bcdddddddef!ghdi..............",
"......*')!!!!!!!!!!!!!!!!!![..............",
"......*')!!!!!!!!!!!!!!!!!![..............",
"......*')!!!jklllllllmf!!!!n55o...........",
"......*')!!!pqrrrrrrrs7!!!!t11u...........",
"......*')!!!89.......0a!!!!!!!v...........",
"......*')!!!89.......0a!!!!!!!v...........",
"......*')!!!89.......0a!!!!!!!v...........",
"......*')!!!89.......0a!!!!!!!v...........",
"......*')!!!wxyyyyyyyz7!!!!ABBC...........",
"......*')!!!!!!!!!!!!!!!!!![..............",
"......*')!!!!!!!!!!!!!!!!!![..............",
"......*')!!!!!!!!!!!!!!!DEEF..............",
"......*')!!!!!!!!!!!!!!!~,................",
"......*')!!!!!!!!!!!!!!!~,................",
"......GHIJJJJJJJJJJJJJJJKL................",
"..........................................",
"..........................................",
"..........................................",
"..........................................",
"..........................................",
"..........................................",
"..........................................",
"..........................................",
"..........................................",
"..........................................",
".........................................."};
