/* XPM */
static xpm_row_t const B_lil_xpm[] = {
"18 29 139 2",
"  	c None",
". 	c #979B9C",
"+ 	c #9F9F9F",
"@ 	c #9D9D9D",
"# 	c #9D9D9E",
"$ 	c #84836A",
"% 	c #15150F",
"& 	c #000000",
"* 	c #EFF4F6",
"= 	c #FEFEFD",
"- 	c #FBFBFB",
"; 	c #FBFBFC",
"> 	c #FFFFFF",
", 	c #D3D1A8",
"' 	c #1F1F16",
") 	c #F2F5F8",
"! 	c #DAD8B1",
"~ 	c #29271F",
"{ 	c #060506",
"] 	c #F0F4F7",
"^ 	c #E9E9D3",
"/ 	c #878482",
"( 	c #74706D",
"_ 	c #FCFCF9",
": 	c #F1F1F2",
"< 	c #EEE8E0",
"[ 	c #FFFDF4",
"} 	c #EEEBE6",
"| 	c #C2BFBB",
"1 	c #AFAEAE",
"2 	c #AEAEAE",
"3 	c #AFAFAF",
"4 	c #B5B5B5",
"5 	c #F2F2F3",
"6 	c #FFFAF1",
"7 	c #CFC8B8",
"8 	c #565145",
"9 	c #242323",
"0 	c #222223",
"a 	c #232323",
"b 	c #212121",
"c 	c #363636",
"d 	c #DBDCDD",
"e 	c #C6BEAB",
"f 	c #363023",
"g 	c #101011",
"h 	c #D4D5D6",
"i 	c #FFFFFC",
"j 	c #C7BFAD",
"k 	c #3A3527",
"l 	c #030200",
"m 	c #151516",
"n 	c #D5D6D7",
"o 	c #F2F1E4",
"p 	c #B8B9B6",
"q 	c #ADA8A3",
"r 	c #373224",
"s 	c #121213",
"t 	c #D4D5D8",
"u 	c #D3D1A5",
"v 	c #0F0E04",
"w 	c #CCC5B4",
"x 	c #4B463A",
"y 	c #171615",
"z 	c #141415",
"A 	c #151515",
"B 	c #121212",
"C 	c #29292A",
"D 	c #D9D9DB",
"E 	c #DAD8B3",
"F 	c #34332B",
"G 	c #111111",
"H 	c #E7E4DC",
"I 	c #A9A7A2",
"J 	c #8F8F8F",
"K 	c #909090",
"L 	c #8E8E8E",
"M 	c #99999A",
"N 	c #EEEEEF",
"O 	c #EEECDB",
"P 	c #9E9B99",
"Q 	c #8F8A86",
"R 	c #FDFCFB",
"S 	c #F7F6F6",
"T 	c #F4F4F4",
"U 	c #F5F5F5",
"V 	c #FDFDFD",
"W 	c #E8E5DC",
"X 	c #ACA9A4",
"Y 	c #919292",
"Z 	c #929292",
"` 	c #919191",
" .	c #9C9C9C",
"..	c #EDEEEF",
"+.	c #FFFCF7",
"@.	c #C8C0AE",
"#.	c #3E382C",
"$.	c #030302",
"%.	c #020303",
"&.	c #040404",
"*.	c #010101",
"=.	c #191A1A",
"-.	c #D6D7D8",
";.	c #C7BFAC",
">.	c #393426",
",.	c #020100",
"'.	c #151415",
").	c #3A3427",
"!.	c #020200",
"~.	c #3D372A",
"{.	c #060503",
"].	c #030303",
"^.	c #181819",
"/.	c #D7D2C4",
"(.	c #726E65",
"_.	c #464645",
":.	c #464647",
"<.	c #484848",
"[.	c #474747",
"}.	c #454545",
"|.	c #575757",
"1.	c #E1E2E2",
"2.	c #FFFEFB",
"3.	c #FDFDFA",
"4.	c #F3F5F7",
"5.	c #F2ECE4",
"6.	c #D6D4AC",
"7.	c #222218",
"8.	c #F1F5F8",
"9.	c #D7D5AD",
"0.	c #8F9494",
"a.	c #979797",
"b.	c #959595",
"c.	c #959596",
"d.	c #989897",
"e.	c #7E7D65",
"f.	c #14140E",
"g.	c #050505",
"h.	c #000000",
"M X M M M M M M M M M M M M + $ v & ",
"8.> > > > > > > > > > > > > > ! G & ",
"8.> > > > > > > > > > > > > > E ~ & ",
"8.> > > > > > > > > > > > > > O / e.",
"] > > > > > > > > > > > > > > > N N ",
"8.> > > > > > > > > > > > > > > > 6 ",
"] > > > N p X X X 3 X X e N > > > 6 ",
"8.> > > 7 8 0 0 0 0 =.=.C 1.> > > 6 ",
"] > > > ;.~ & & & & & & g t > > > > ",
"8.> > > ;.f & & & & & & G d > O p I ",
"] > > > ;.f & & & & & & g t > ! & & ",
"8.> > > 7 x G G G G G G C d > ! f G ",
"] > > > O X / M 0.M M 0.M N > O P / ",
"8.> > > > > > > > > > > > > > > > > ",
"] > > > > N > ] 6 ] N ; 8.> > > > > ",
"8.> > > H I / L L L Q L M N > > > 6 ",
"] > > > ;.).& & & & & & G d > > > > ",
"8.> > > ;.f & & & & & & G d > > > > ",
"] > > > 7 f & & & & & & G t > > > > ",
"8.> > > ;.f & & & & & & G d > > > > ",
"] > > > , ).& & & & & & G t > > > > ",
"8.> > > /.(.}.}.<.<.}.}.|.N > > > > ",
"] > > > > > > > > > > > > > > > > 6 ",
"8.> > > > > > > > > > > > > > > > 6 ",
"] > > > > > > > > > > > > > > > N 6 ",
"8.> > > > > > > > > > > > > > , G & ",
"8.> > > > > > > > > > > > > > ! ' & ",
"0.M / M L M / M M / M M / M M e.v & ",
"& & & & & & & & & & & & & & & & & & "};
