/* XPM */
static xpm_row_t const Bar_xpm[] = {
"22 33 81 1",
" 	c None",
".	c #000000",
"+	c #000000",
"@	c #000000",
"#	c #010101",
"$	c #030303",
"%	c #040404",
"&	c #050505",
"*	c #090909",
"=	c #0B0B0B",
"-	c #0C0C0C",
";	c #0D0D0D",
">	c #0E0E0E",
",	c #0F0F0F",
"'	c #101010",
")	c #171717",
"!	c #1A1A1A",
"~	c #1B1B1B",
"{	c #1D1D1D",
"]	c #202020",
"^	c #262626",
"/	c #282828",
"(	c #2A2A2A",
"_	c #2F2F2F",
":	c #353535",
"<	c #363636",
"[	c #393939",
"}	c #3C3C3C",
"|	c #3E3E3E",
"1	c #3F3F3F",
"2	c #424242",
"3	c #494949",
"4	c #4B4B4B",
"5	c #515151",
"6	c #565656",
"7	c #5D5D5D",
"8	c #646464",
"9	c #686868",
"0	c #6C6C6C",
"a	c #6F6F6F",
"b	c #757575",
"c	c #767676",
"d	c #787878",
"e	c #7D7D7D",
"f	c #828282",
"g	c #838383",
"h	c #848484",
"i	c #8E8E8E",
"j	c #959595",
"k	c #9E9E9E",
"l	c #A4A4A4",
"m	c #A6A6A6",
"n	c #A8A8A8",
"o	c #ABABAB",
"p	c #AFAFAF",
"q	c #B6B6B6",
"r	c #B8B8B8",
"s	c #BBBBBB",
"t	c #BFBFBF",
"u	c #C1C1C1",
"v	c #C6C6C6",
"w	c #CCCCCC",
"x	c #CFCFCF",
"y	c #D2D2D2",
"z	c #D9D9D9",
"A	c #DCDCDC",
"B	c #DDDDDD",
"C	c #E0E0E0",
"D	c #E1E1E1",
"E	c #E4E4E4",
"F	c #ECECEC",
"G	c #EDEDED",
"H	c #EEEEEE",
"I	c #F0F0F0",
"J	c #F6F6F6",
"K	c #FAFAFA",
"L	c #FBFBFB",
"M	c #FCFCFC",
"N	c #FDFDFD",
"O	c #FEFEFE",
"P	c #FFFFFF",
"++++++++++++++++++++++",
"@@@@@@@@@@@@@@@@@@@@@@",
"@@@@@@@@@@@@@@@@@@@@@@",
"@@@@@@@@@@@@@@@@@@@@@@",
"@@@@@@@@@@@@@@*;%@@@@@",
"@@@@@@@@@@@@@2svc#@@@@",
"@@@@@@@@@@@@&kMOf@@@@@",
"@@@@@@@@@@@@/zPG1@@@@@",
"@@@@@@@@@@@@9KPr'@@@@@",
"@@@@@@@@@@@;oPMb#@@@@@",
"@@@@@@@@@@@:DPD<@@@@@@",
"@@@@@@@@@@@cNPn-@@@@@@",
"@@@@@@@@@@;sPL8#@@@@@@",
"@@@@@@@@@@|HPA^@@@@@@@",
"@@@@@@@@@@hOPk$@@@@@@@",
"@@@@@@@@@~vPJ6@@@@@@@@",
"@@@@@@@@@5IPw{@@@@@@@@",
"@@@@@@@@&jOPi$@@@@@@@@",
"@@@@@@@@]yPG3@@@@@@@@@",
"@@@@@@@@7KPt)@@@@@@@@@",
"@@@@@@@$lPPe#@@@@@@@@@",
"@@@@@@@(CPF[@@@@@@@@@@",
"@@@@@@@0MPq-@@@@@@@@@@",
"@@@@@@,pPNa@@@@@@@@@@@",
"@@@@@@}EPB_@@@@@@@@@@@",
"@@@@@#gPPm=@@@@@@@@@@@",
"@@@@@$dxu4@@@@@@@@@@@@",
"@@@@@@>!)&@@@@@@@@@@@@",
"@@@@@@@@@@@@@@@@@@@@@@",
"@@@@@@@@@@@@@@@@@@@@@@",
"@@@@@@@@@@@@@@@@@@@@@@",
"@@@@@@@@@@@@@@@@@@@@@@",
"                      "};
