/* XPM */
static xpm_row_t const C_lil_xpm[] = {
"18 28 225 2",
"  	c None",
". 	c #000000",
"+ 	c #030509",
"@ 	c #2E3941",
"# 	c #4F4F51",
"$ 	c #50504F",
"% 	c #4F4F4F",
"& 	c #4F4F50",
"* 	c #505050",
"= 	c #4E4E4C",
"- 	c #363427",
"; 	c #081118",
"> 	c #89A9C4",
", 	c #E8EDF1",
"' 	c #EEEDEC",
") 	c #ECECEC",
"! 	c #EDEDED",
"~ 	c #E8E8E1",
"{ 	c #9D9A73",
"] 	c #020202",
"^ 	c #020203",
"/ 	c #0C151E",
"( 	c #97B9D4",
"_ 	c #FCFFFF",
": 	c #FFFFFF",
"< 	c #FCFCF4",
"[ 	c #ABA97E",
"} 	c #030202",
"| 	c #020100",
"1 	c #010102",
"2 	c #171922",
"3 	c #363638",
"4 	c #434B50",
"5 	c #AEC8DE",
"6 	c #FCFBF5",
"7 	c #BDBB9A",
"8 	c #322E31",
"9 	c #383430",
"0 	c #1C1308",
"a 	c #040407",
"b 	c #55597C",
"c 	c #C8CAD7",
"d 	c #E0E1DF",
"e 	c #F1F5F8",
"f 	c #FEFEFD",
"g 	c #F2F2EC",
"h 	c #DADADA",
"i 	c #CEC1AF",
"j 	c #664621",
"k 	c #000101",
"l 	c #07070B",
"m 	c #666B93",
"n 	c #EDEFFD",
"o 	c #FEFEFE",
"p 	c #F4E4D1",
"q 	c #7A5529",
"r 	c #111416",
"s 	c #383A39",
"t 	c #42434B",
"u 	c #8C91AD",
"v 	c #F1F1FC",
"w 	c #FFFEFC",
"x 	c #EAE6E0",
"y 	c #D8D6D6",
"z 	c #D6D6D6",
"A 	c #D7D7D7",
"B 	c #E0E0E0",
"C 	c #FFFEFE",
"D 	c #F5E9DB",
"E 	c #998060",
"F 	c #495158",
"G 	c #E4E9EF",
"H 	c #FAF6ED",
"I 	c #968064",
"J 	c #3A3632",
"K 	c #333335",
"L 	c #343434",
"M 	c #363636",
"N 	c #666666",
"O 	c #424A51",
"P 	c #D7DCE0",
"Q 	c #FFFFFE",
"R 	c #F8F5EC",
"S 	c #795C3A",
"T 	c #020000",
"U 	c #3A3A3B",
"V 	c #FEFEFF",
"W 	c #646A70",
"X 	c #DFE3E6",
"Y 	c #EFEDEA",
"Z 	c #D7D7D6",
"` 	c #CEC9C2",
" .	c #654E33",
"..	c #060300",
"+.	c #333334",
"@.	c #D5D5D7",
"#.	c #E2E2F0",
"$.	c #FDFAF7",
"%.	c #E8E1DA",
"&.	c #FBFAF9",
"*.	c #998E76",
"=.	c #040100",
"-.	c #000003",
";.	c #494A9F",
">.	c #F0DFCA",
",.	c #6D4517",
"'.	c #A19780",
").	c #16130B",
"!.	c #040514",
"~.	c #5859A8",
"{.	c #F5E5D1",
"].	c #795427",
"^.	c #A09680",
"/.	c #15130B",
"(.	c #040410",
"_.	c #464784",
":.	c #D0CFCC",
"<.	c #C0B3A3",
"[.	c #5E411F",
"}.	c #000001",
"|.	c #05050A",
"1.	c #0F0F10",
"2.	c #0E0D0B",
"3.	c #070502",
"4.	c #020209",
"5.	c #2A2A4E",
"6.	c #818280",
"7.	c #726B61",
"8.	c #382712",
"9.	c #9F957F",
"0.	c #131008",
"a.	c #040411",
"b.	c #5657A5",
"c.	c #F1E2CD",
"d.	c #755224",
"e.	c #FBFBFA",
"f.	c #AAA08C",
"g.	c #2C2A22",
"h.	c #171616",
"i.	c #0C0A06",
"j.	c #010100",
"k.	c #060606",
"l.	c #1A1A19",
"m.	c #1C1C2B",
"n.	c #6869AF",
"o.	c #F4E5D3",
"p.	c #85643C",
"q.	c #FDFDFD",
"r.	c #DAD6CF",
"s.	c #A5A4A2",
"t.	c #97928E",
"u.	c #4C3B26",
"v.	c #040200",
"w.	c #010101",
"x.	c #272727",
"y.	c #A1A2A1",
"z.	c #9E9EA4",
"A.	c #BDBEDD",
"B.	c #F9F3EC",
"C.	c #CABCAC",
"D.	c #FCFAF6",
"E.	c #80623F",
"F.	c #060100",
"G.	c #3E3E3F",
"H.	c #F6F7F7",
"I.	c #FDFEFE",
"J.	c #F9F3EB",
"K.	c #806646",
"L.	c #13100A",
"M.	c #0C0C0C",
"N.	c #0E0E0E",
"O.	c #474748",
"P.	c #FFFDFD",
"Q.	c #F8F7F5",
"R.	c #A2A6A9",
"S.	c #ECEFF1",
"T.	c #FCF9F5",
"U.	c #BDAF9D",
"V.	c #83817E",
"W.	c #7F7F80",
"X.	c #808080",
"Y.	c #818181",
"Z.	c #9E9E9E",
"`.	c #F8F0E6",
" +	c #BAA993",
".+	c #383F47",
"++	c #D6DBE0",
"@+	c #F1DFCB",
"#+	c #6F4718",
"$+	c #464E55",
"%+	c #DAE0E5",
"&+	c #FDFDFE",
"*+	c #FDFCFB",
"=+	c #F4E5D1",
"-+	c #785427",
";+	c #292D31",
">+	c #818587",
",+	c #9F9FA1",
"'+	c #BFC1D2",
")+	c #F7F8FD",
"!+	c #FEFEFB",
"~+	c #DCDBCB",
"{+	c #969899",
"]+	c #8F877B",
"^+	c #483117",
"/+	c #565C88",
"(+	c #EDEEFE",
"_+	c #FBFAF6",
":+	c #A6A373",
"<+	c #040408",
"[+	c #53587B",
"}+	c #C7C9D4",
"|+	c #DADAD9",
"1+	c #D8D8D8",
"2+	c #D8D8D9",
"3+	c #D5D4CD",
"4+	c #8F8D69",
"5+	c #010103",
"6+	c #1D1F2B",
"7+	c #45464A",
"8+	c #4D4D4B",
"9+	c #4B4B4B",
"0+	c #4A4948",
"a+	c #323125",
"b+	c #000000",
". . . . . . @ O = * O.* * O.a+. . . ",
". . . . . ; > (+B.! ! ! ! ! { . . . ",
". . . . . ; ( : : : : : : < [ . . . ",
". . . / +.F 5 : : : : : : : 7 g.+.0 ",
". . . /+c h )+: : : : : : : < h i j ",
". . . m : : : : : : : : : : : : {.d.",
"1.+.O.u (+: D r.++3+h h : : : : D I ",
"F (+: : : < E x.;++.+.N : : : : : : ",
".+h : : : ! S . . . . +.: : : : : : ",
"W G : ! ~+:.j . . . . +.h 3+#.: : %.",
": : : *.. . . . . . . . . . ;.: >.,.",
": : : *.0.. . . . . . . . a.~.: {.#+",
": : : f.0.. . . . . . . . . _.:.<.[.",
": : < *.0.. . . . . . . . . . . . . ",
": : : t.0.. . . . . . . . . . 1.F.. ",
": : < { 0.. . . . . . . . . 5.>+7.8.",
": : : f.F.. . . . . . . . a.~.: {.d.",
": : : f.l.0 . . . . . . 1.6+n.: D p.",
": : : ~+R.{+[.. . . . x.R.z.A.: < C.",
": : : : : : S . . . . O.: : : : : : ",
")+: : : : < K.1.F.1.. O.: : : : : : ",
"R.! : : : <  +>+>+>+>+Z.: : : : D  +",
"@ ++: : : : : : : : : : : : : : >.,.",
"O #.: : : : : : : : : : : : : : {.d.",
"x.6.{+'+: : : : : : : : : : ~+{+]+^+",
". . . /+(+: : : : : : : : < :+. . . ",
". . . _.:.h c ~+h y ~+h y r.4+. . . ",
". . . 2 O.O.O.O.O.O.O.O.O.O.x.. . . "};
