/* XPM */
static xpm_row_t const D_xpm[] = {
"42 44 90 1",
" 	c None",
".	c #000000",
"+	c #00000B",
"@	c #384040",
"#	c #404040",
"$	c #40403B",
"%	c #140707",
"&	c #000028",
"*	c #C7E2E2",
"=	c #E2E2E2",
"-	c #E2E2D0",
";	c #481A17",
">	c #00002E",
",	c #E0FFFF",
"'	c #FFFFFF",
")	c #FFFFEA",
"!	c #511E1A",
"~	c #FFFFEE",
"{	c #6D423E",
"]	c #282828",
"^	c #272523",
"/	c #0F0D0B",
"(	c #FFFFFB",
"_	c #DBD0D0",
":	c #CACACA",
"<	c #C6BCB1",
"[	c #4D4235",
"}	c #F9EDDE",
"|	c #615342",
"1	c #FEFDFC",
"2	c #F4F2F1",
"3	c #EDEDED",
"4	c #EDEDF0",
"5	c #FBFDFD",
"6	c #FAF0E3",
"7	c #776B5C",
"8	c #232323",
"9	c #222222",
"0	c #110C09",
"a	c #F4EBE7",
"b	c #927C70",
"c	c #4B4B4B",
"d	c #4B4B65",
"e	c #D6EAEF",
"f	c #FAF6F4",
"g	c #805842",
"h	c #F0E3DD",
"i	c #654534",
"j	c #000025",
"k	c #C5E1E8",
"l	c #0D1C28",
"m	c #A6B7C5",
"n	c #6D4C23",
"o	c #3A4244",
"p	c #545E67",
"q	c #C0CCD6",
"r	c #000023",
"s	c #B7D2D8",
"t	c #EEEFF0",
"u	c #F9FAFB",
"v	c #495863",
"w	c #696969",
"x	c #69697F",
"y	c #DCEDF1",
"z	c #FEFDFD",
"A	c #E5DDD8",
"B	c #573C1C",
"C	c #B2D5F2",
"D	c #FBF7F6",
"E	c #947260",
"F	c #110C06",
"G	c #F3E9E4",
"H	c #886F62",
"I	c #3A3A3A",
"J	c #C4DFF5",
"K	c #FEFBF7",
"L	c #DCD8D4",
"M	c #C5C5C5",
"N	c #C1BEBD",
"O	c #634433",
"P	c #FFFFFE",
"Q	c #F7F4F4",
"R	c #F3F3F3",
"S	c #EEE2D4",
"T	c #5C4F3F",
"U	c #00001A",
"V	c #809090",
"W	c #909090",
"X	c #909085",
"Y	c #2E110F",
"..........................................",
"..........................................",
"..........................................",
"..........................................",
"..........................................",
".......+@##########$%.....................",
".......&*==========-;.....................",
".......>,'''''''''')!.....................",
".......>,''''''''''~{]^/..................",
".......>,''''''''''(_:<[..................",
".......>,'''''''''''''}|..................",
".......>,''''12333345'67890...............",
".......>,''''abccccde''''fg...............",
".......>,''''hi....jk''''fg...............",
".......>,''''hi....jk''''fg...............",
".......>,''''hi.......lm'''''n............",
".......>,''''hi.......lm'''''n............",
".......>,''''hi.......lm'''''n............",
".......>,''''hi.......lm'''''n............",
".......>,''''hi.......lm'''''n............",
".......>,''''hi....+ocpq'''''n............",
".......>,''''hi....rs3tu'''''n............",
".......>,''''hi....jk''''''''n............",
".......>,''''hi..vwxy''''zA::B............",
".......>,''''hi..C'''''''DE]]F............",
".......>,''''hi..C'''''''fg...............",
".......>,''''GHIIJ''''KLMNO...............",
".......>,'''''''''''''}|..................",
".......>,'''''''''''''}|..................",
".......>,''''''''''PQRST..................",
".......>,'''''''''')!.....................",
".......>,'''''''''')!.....................",
".......UVWWWWWWWWWWXY.....................",
"..........................................",
"..........................................",
"..........................................",
"..........................................",
"..........................................",
"..........................................",
"..........................................",
"..........................................",
"..........................................",
"..........................................",
".........................................."};
