/* XPM */
static xpm_row_t const D_lil_xpm[] = {
"18 29 156 2",
"  	c None",
". 	c #000000",
"+ 	c #0F0F0F",
"@ 	c #0E0E0E",
"# 	c #090706",
"$ 	c #010000",
"% 	c #7A7D7B",
"& 	c #767575",
"* 	c #767676",
"= 	c #767576",
"- 	c #7D7F79",
"; 	c #483733",
"> 	c #0B0202",
", 	c #FEFFFF",
"' 	c #F7F6F6",
") 	c #F6F6F6",
"! 	c #F6F6F8",
"~ 	c #FFFFFC",
"{ 	c #96746A",
"] 	c #170403",
"^ 	c #FFFFFF",
"/ 	c #9E7C72",
"( 	c #1F0B0A",
"_ 	c #020303",
": 	c #030303",
"< 	c #BBA39D",
"[ 	c #635655",
"} 	c #504E4C",
"| 	c #2F2A25",
"1 	c #070605",
"2 	c #F4F0EF",
"3 	c #E6E4E5",
"4 	c #E5DED5",
"5 	c #827566",
"6 	c #14100B",
"7 	c #FFFFF5",
"8 	c #968877",
"9 	c #19150F",
"0 	c #010101",
"a 	c #F4F0EE",
"b 	c #DBD8D6",
"c 	c #CFCFCF",
"d 	c #CFCFCE",
"e 	c #CCCBD0",
"f 	c #E4E8EB",
"g 	c #FCFFFF",
"h 	c #FFFDF6",
"i 	c #B5AB9F",
"j 	c #5E5B58",
"k 	c #4A4949",
"l 	c #2E2520",
"m 	c #080402",
"n 	c #D1C0B7",
"o 	c #675951",
"p 	c #333231",
"q 	c #323233",
"r 	c #343431",
"s 	c #272537",
"t 	c #8F9EAE",
"u 	c #F1FAFC",
"v 	c #9E7F6F",
"w 	c #1D0F08",
"x 	c #C5ADA2",
"y 	c #3D2A21",
"z 	c #748799",
"A 	c #F2FDFF",
"B 	c #FBF6F3",
"C 	c #947666",
"D 	c #170A03",
"E 	c #C6AFA4",
"F 	c #402E25",
"G 	c #020000",
"H 	c #000004",
"I 	c #657585",
"J 	c #CED8D9",
"K 	c #DFE0E1",
"L 	c #EDEFF1",
"M 	c #FCF7F5",
"N 	c #A48B7D",
"O 	c #3A2F29",
"P 	c #010100",
"Q 	c #000005",
"R 	c #6C7F8E",
"S 	c #E9EFF4",
"T 	c #010B13",
"U 	c #748694",
"V 	c #EAF0F4",
"W 	c #010A12",
"X 	c #020202",
"Y 	c #020100",
"Z 	c #050E16",
"` 	c #768795",
" .	c #EBF0F5",
"..	c #000002",
"+.	c #262D33",
"@.	c #4E5151",
"#.	c #565B61",
"$.	c #A1ADB7",
"%.	c #F1F5F8",
"&.	c #6E8191",
"*.	c #E1ECEE",
"=.	c #F4F3F4",
"-.	c #F8F9F9",
";.	c #FEFEFE",
">.	c #000001",
",.	c #020200",
"'.	c #000007",
").	c #75889A",
"!.	c #EFF9FC",
"~.	c #FFFFFE",
"{.	c #232C34",
"].	c #5B6265",
"^.	c #63616F",
"/.	c #ADB8C3",
"(.	c #F5FCFD",
"_.	c #FEFDFD",
":.	c #E8E2DF",
"<.	c #D2D1D2",
"[.	c #546B7D",
"}.	c #D9EAF4",
"|.	c #FCF7F6",
"1.	c #A78E80",
"2.	c #3B322D",
"3.	c #402D25",
"4.	c #FCF6F4",
"5.	c #967969",
"6.	c #1B0F08",
"7.	c #D2C0B6",
"8.	c #695B54",
"9.	c #27221F",
"0.	c #748693",
"a.	c #E2EFF7",
"b.	c #FFFEFC",
"c.	c #E9E5E1",
"d.	c #D0D0CF",
"e.	c #C6C2C1",
"f.	c #766053",
"g.	c #150B05",
"h.	c #FBFAFA",
"i.	c #F9F8F8",
"j.	c #FBFBFC",
"k.	c #FFFBF1",
"l.	c #1D1913",
"m.	c #030302",
"n.	c #938574",
"o.	c #17130D",
"p.	c #FFFEFE",
"q.	c #FFF9EF",
"r.	c #928473",
"s.	c #A28178",
"t.	c #2A1716",
"u.	c #0A0908",
"v.	c #020101",
"w.	c #9D796F",
"x.	c #190402",
"y.	c #000000",
". . . . . . . . . . . . . . . . . . ",
". + + . + + . + + . . . . . . . . . ",
"- * * * * * * * * - ; . . . . . . . ",
"^ ^ ^ ^ ^ ^ ^ ^ ^ ^ 5.x.. . . . . . ",
"^ ^ ^ ^ ^ ^ ^ ^ ^ ^ s.x.. . . . . . ",
"^ ^ ^ ^ ^ ^ ^ ^ ^ ^ < [ @.l . . . . ",
"^ ^ ^ ^ ^ ^ ^ ^ ^ ^ B L c.5 g.. . . ",
"^ ^ ^ ^ ^ ^ ^ ^ ^ ^ ^ ^ k.8 + . . . ",
"^ ^ ^ ^ L <.e e e e K ^ ^ i 8.k l . ",
"^ ^ ^ ^ 7.o 9.| | s t A ^ ^ ^ ^ v w ",
"^ ^ ^ ^ x l . . . . &.A ^ ^ ^ ^ 5.> ",
"^ ^ ^ ^ x y . . . . I J K L ^ k.N l ",
"^ ^ ^ ^ E F . . . . . . . I L ^ ^ ^ ",
"^ ^ ^ ^ x y . . . . . . '.).%.^ ^ ^ ",
"^ ^ ^ ^ 7.F . . . . . . T &.L ^ ^ ^ ",
"^ ^ ^ ^ x t.. . . . . . '.).A ^ ^ ^ ",
"^ ^ ^ k.7.F . . . . . . T &.L ^ ^ ^ ",
"^ ^ ^ ^ x y . . . . {.@.].$.A ^ ^ ^ ",
"^ ^ ^ ^ E y . . . . &.L L ^ ^ ^ ^ ^ ",
"^ ^ ^ ^ x y . . . . ).A ^ ^ ^ ^ ^ ^ ",
"^ ^ ^ ^ 7.F . s ].^./.A ^ ^ ^ ^ c.e ",
"^ ^ ^ ^ < y . [.a.^ ^ ^ ^ ^ ^ B N | ",
"^ ^ ^ ^ 7.y . [.a.^ ^ ^ ^ ^ ^ k.5.g.",
"^ ^ ^ ^ 7.o l.).a.^ ^ ^ ^ K e n [ > ",
"^ ^ ^ ^ ^ ^ ^ ^ ^ ^ ^ ^ k.8 + . . . ",
"^ ^ ^ ^ ^ ^ ^ ^ ^ ^ ^ ^ k.v g.. . . ",
"^ ^ ^ ^ ^ ^ ^ ^ ^ ^ ^ ^ k.8 + . . . ",
"^ ^ ^ ^ ^ ^ ^ ^ ^ ^ 5.l.. . . . . . ",
"^ ^ ^ ^ ^ ^ ^ ^ ^ ^ s.x.. . . . . . "};
