/* XPM */
static xpm_row_t const E_xpm[] = {
"42 44 48 1",
" 	c None",
".	c #000000",
"+	c #00000B",
"@	c #384040",
"#	c #404040",
"$	c #1B1309",
"%	c #000028",
"&	c #C7E2E2",
"*	c #E2E2E2",
"=	c #61431F",
"-	c #00002E",
";	c #E0FFFF",
">	c #FFFFFF",
",	c #6D4C23",
"'	c #FEFDFC",
")	c #F4F2F1",
"!	c #EDEDED",
"~	c #664721",
"{	c #F4EBE7",
"]	c #927C70",
"^	c #4B4B4B",
"/	c #20160A",
"(	c #F0E3DD",
"_	c #654534",
":	c #F6EEEA",
"<	c #A18D82",
"[	c #626262",
"}	c #605F5E",
"|	c #32221A",
"1	c #FAF6F4",
"2	c #805842",
"3	c #FBF7F5",
"4	c #D2C8C3",
"5	c #B3B3B3",
"6	c #B0ADAC",
"7	c #5B3E2F",
"8	c #F1E5DF",
"9	c #705242",
"0	c #111111",
"a	c #090604",
"b	c #F3E9E4",
"c	c #886F62",
"d	c #3A3A3A",
"e	c #191108",
"f	c #00001A",
"g	c #809090",
"h	c #909090",
"i	c #3E2B14",
"..........................................",
"..........................................",
"..........................................",
"..........................................",
"..........................................",
".......+@####################$............",
".......%&********************=............",
".......-;>>>>>>>>>>>>>>>>>>>>,............",
".......-;>>>>>>>>>>>>>>>>>>>>,............",
".......-;>>>>>>>>>>>>>>>>>>>>,............",
".......-;>>>>>>>>>>>>>>>>>>>>,............",
".......-;>>>>')!!!!!!!!!!!!!!~............",
".......-;>>>>{]^^^^^^^^^^^^^^/............",
".......-;>>>>(_...........................",
".......-;>>>>(_...........................",
".......-;>>>>(_...........................",
".......-;>>>>(_...........................",
".......-;>>>>:<[[[[[[[[[[}|...............",
".......-;>>>>>>>>>>>>>>>>12...............",
".......-;>>>>>>>>>>>>>>>>12...............",
".......-;>>>>34555555555567...............",
".......-;>>>>8900000000000a...............",
".......-;>>>>(_...........................",
".......-;>>>>(_...........................",
".......-;>>>>(_...........................",
".......-;>>>>(_...........................",
".......-;>>>>bcdddddddddddddde............",
".......-;>>>>>>>>>>>>>>>>>>>>,............",
".......-;>>>>>>>>>>>>>>>>>>>>,............",
".......-;>>>>>>>>>>>>>>>>>>>>,............",
".......-;>>>>>>>>>>>>>>>>>>>>,............",
".......-;>>>>>>>>>>>>>>>>>>>>,............",
".......fghhhhhhhhhhhhhhhhhhhhi............",
"..........................................",
"..........................................",
"..........................................",
"..........................................",
"..........................................",
"..........................................",
"..........................................",
"..........................................",
"..........................................",
"..........................................",
".........................................."};
