/* XPM */
static xpm_row_t const E_lil_xpm[] = {
"19 29 110 2",
"  	c None",
". 	c #1C1B1B",
"+ 	c #1B1B1B",
"@ 	c #1C1C1D",
"# 	c #1A1918",
"$ 	c #A3A2A2",
"% 	c #A2A2A2",
"& 	c #A7A9AA",
"* 	c #9A9792",
"= 	c #FDFBFB",
"- 	c #FCFCFC",
"; 	c #FBFBFB",
"> 	c #FFFFFF",
", 	c #EDE7DE",
"' 	c #F0E9E0",
") 	c #EFE8DF",
"! 	c #F1EBE3",
"~ 	c #FBF7F5",
"{ 	c #CFC5BF",
"] 	c #9A9592",
"^ 	c #8C8D8E",
"/ 	c #909090",
"( 	c #8F8F8F",
"_ 	c #949597",
": 	c #898681",
"< 	c #F7EFEB",
"[ 	c #9C8578",
"} 	c #2D211B",
"| 	c #101213",
"1 	c #161616",
"2 	c #161516",
"3 	c #161617",
"4 	c #151413",
"5 	c #F6EDE8",
"6 	c #917769",
"7 	c #180A03",
"8 	c #000000",
"9 	c #93796B",
"0 	c #1B0E06",
"a 	c #907668",
"b 	c #150800",
"c 	c #F8F1ED",
"d 	c #A89388",
"e 	c #453B36",
"f 	c #2C2E2F",
"g 	c #313131",
"h 	c #323333",
"i 	c #2F2E2D",
"j 	c #1C1613",
"k 	c #060201",
"l 	c #FDFBFA",
"m 	c #E7E1DE",
"n 	c #CBC8C6",
"o 	c #C4C4C5",
"p 	c #C6C6C6",
"q 	c #C5C5C5",
"r 	c #C8C9C9",
"s 	c #BDB6B3",
"t 	c #705B50",
"u 	c #150A04",
"v 	c #FFF7F2",
"w 	c #977B6C",
"x 	c #1C0E05",
"y 	c #FEFDFC",
"z 	c #F1EDEA",
"A 	c #DFDDDC",
"B 	c #DADBDB",
"C 	c #DBDBDB",
"D 	c #DFE0E0",
"E 	c #D2CBC7",
"F 	c #7C6559",
"G 	c #170B05",
"H 	c #F9F3EF",
"I 	c #B5A399",
"J 	c #5E5651",
"K 	c #494B4C",
"L 	c #4F4E4E",
"M 	c #4E4E4E",
"N 	c #505051",
"O 	c #4C4948",
"P 	c #2C2420",
"Q 	c #080402",
"R 	c #92786B",
"S 	c #180B04",
"T 	c #1B0D06",
"U 	c #F7EFEA",
"V 	c #9C8579",
"W 	c #2E221B",
"X 	c #111414",
"Y 	c #171717",
"Z 	c #181818",
"` 	c #161515",
" .	c #FCFAF8",
"..	c #DFD7D3",
"+.	c #BAB7B5",
"@.	c #B1B2B2",
"#.	c #B4B4B4",
"$.	c #B6B7B8",
"%.	c #A9A59E",
"&.	c #F8F2E8",
"*.	c #F5EFE5",
"=.	c #C6C4C4",
"-.	c #C4C4C4",
";.	c #C9CACB",
">.	c #B9B5AE",
",.	c #343333",
"'.	c #333333",
").	c #353536",
"!.	c #31302E",
"~.	c #000000",
"| 3 j | 3 j | 3 j | 3 j | 3 j | 3 j | ",
"& & & & & & & & & & & & & & & & & & _ ",
"> > > > > > > > > > > > > > > > > > *.",
"> > > > > > > > > > > > > > > > > > ' ",
"> > > > > > > > > > > > > > > > > > ' ",
"> > > > > > > > > > > > > > > > > > ' ",
"> > > > > > > > > > > > > > > > > > z ",
"> > > c { ( : : : : : : : : ^ : : _ : ",
"> > > c [ j | 3 3 3 3 3 3 3 | | | | | ",
"> > > c w b 8 8 8 8 8 8 8 8 8 8 8 8 8 ",
"> > > c w b 8 8 8 8 8 8 8 8 8 8 8 8 8 ",
"> > > ' a b 8 8 8 8 8 8 8 8 8 8 8 8 8 ",
"> > > c d e f '.'.'.'.'.'.'.'.'.j 8 8 ",
"> > > > m ;.;.;.;.;.;.;.;.;.;.$.t b 8 ",
"> > > > > > > > > > > > > > > > w b 8 ",
"> > > > z A A A ..B A A A A A { F b 8 ",
"> > > c I N ).O O O O O O O O O P 8 8 ",
"> > > c w b 8 8 8 8 8 8 8 8 8 8 8 8 8 ",
"> > > c w b 8 8 8 8 8 8 8 8 8 8 8 8 8 ",
"> > > *.a b 8 8 8 8 8 8 8 8 8 8 8 8 8 ",
"> > > c w b 8 8 8 8 8 8 8 8 8 8 8 8 8 ",
"> > > c w @ | | | | | | | | | | | | | ",
"> > > v A { $.$.$.$.$.$.$.$.$.$.$.$.& ",
"> > > > > > > > > > > > > > > > > > v ",
"> > > > > > > > > > > > > > > > > > ' ",
"> > > > > > > > > > > > > > > > > > ' ",
"> > > > > > > > > > > > > > > > > > c ",
";.$.;.$.;.$.;.{ o ;.$.;.{ r $.;.{ ;.>.",
"'.'.!.'.'.'.i f f !.'.'.f f '.'.f '.@ "};
