/* XPM */
static xpm_row_t const Eight_xpm[] = {
"42 44 92 2",
"  	c None",
". 	c #000000",
"+ 	c #1C1F2E",
"@ 	c #404040",
"# 	c #392B1A",
"$ 	c #676EA3",
"% 	c #E2E2E2",
"& 	c #CB995C",
"* 	c #747DB8",
"= 	c #FFFFFF",
"- 	c #E5AD67",
"; 	c #06090C",
"> 	c #282828",
", 	c #8A91C3",
"' 	c #FDFBF9",
") 	c #E1DEDA",
"! 	c #D6D6D6",
"~ 	c #D6D6E2",
"{ 	c #FEFFFF",
"] 	c #E9BA7F",
"^ 	c #110604",
"/ 	c #1D2E3C",
"( 	c #CACACA",
"_ 	c #E3E4F0",
": 	c #F4EADE",
"< 	c #6B5A46",
"[ 	c #343434",
"} 	c #34346D",
"| 	c #FCFFFF",
"1 	c #FAEEE0",
"2 	c #571C15",
"3 	c #243A4B",
"4 	c #F1E5D5",
"5 	c #443016",
"6 	c #000048",
"7 	c #FBFFFF",
"8 	c #6E231B",
"9 	c #000004",
"0 	c #1E2323",
"a 	c #232323",
"b 	c #435564",
"c 	c #82413A",
"d 	c #212121",
"e 	c #040301",
"f 	c #00001F",
"g 	c #DDFFFF",
"h 	c #F1F0EE",
"i 	c #1B1308",
"j 	c #0B1116",
"k 	c #4B4B4B",
"l 	c #9DA3CD",
"m 	c #FBF7F3",
"n 	c #C8C2BA",
"o 	c #B3B3B3",
"p 	c #B3B3C9",
"q 	c #EDC594",
"r 	c #200B08",
"s 	c #223646",
"t 	c #EDEDED",
"u 	c #F5F6FA",
"v 	c #F2E7D9",
"w 	c #513E26",
"x 	c #111111",
"y 	c #111154",
"z 	c #FDF9F5",
"A 	c #672119",
"B 	c #00000C",
"C 	c #5B6969",
"D 	c #696969",
"E 	c #7E8B95",
"F 	c #AA7E78",
"G 	c #636362",
"H 	c #0B0803",
"I 	c #000018",
"J 	c #ABC5C5",
"K 	c #C5C5C5",
"L 	c #CDD2D6",
"M 	c #F4EBDF",
"N 	c #6E5E4B",
"O 	c #3A3A3A",
"P 	c #3A3A71",
"Q 	c #DECDCB",
"R 	c #BAB9B8",
"S 	c #150F07",
"T 	c #233747",
"U 	c #F3F3F3",
"V 	c #F8F9FC",
"W 	c #FEFBF8",
"X 	c #692219",
"Y 	c #424769",
"Z 	c #909090",
"` 	c #82623B",
". . . . . . . . . . . . . . . . . . . . . . . . . . . . . . . . . . . . . . . . . . ",
". . . . . . . . . . . . . . . . . . . . . . . . . . . . . . . . . . . . . . . . . . ",
". . . . . . . . . . . . . . . . . . . . . . . . . . . . . . . . . . . . . . . . . . ",
". . . . . . . . . . . . . . . . . . . . . . . . . . . . . . . . . . . . . . . . . . ",
". . . . . . . . . . . . . . . . . . . . . . . . . . . . . . . . . . . . . . . . . . ",
". . . . . . . . . . . . + @ @ @ @ @ @ @ @ @ @ @ @ # . . . . . . . . . . . . . . . . ",
". . . . . . . . . . . . $ % % % % % % % % % % % % & . . . . . . . . . . . . . . . . ",
". . . . . . . . . . . . * = = = = = = = = = = = = - . . . . . . . . . . . . . . . . ",
". . . . . . . . . ; > > , = ' ) ! ! ! ! ! ! ~ { = ] > > ^ . . . . . . . . . . . . . ",
". . . . . . . . . / ( ( _ = : < [ [ [ [ [ [ } | = 1 ( ( 2 . . . . . . . . . . . . . ",
". . . . . . . . . 3 = = = = 4 5 . . . . . . 6 7 = = = = 8 . . . . . . . . . . . . . ",
". . . . . . 9 0 a b = = = = 4 5 . . . . . . 6 7 = = = = c a d e . . . . . . . . . . ",
". . . . . . f g = = = = = = 4 5 . . . . . . 6 7 = = = = = = h i . . . . . . . . . . ",
". . . . . . f g = = = = = = 4 5 . . . . . . 6 7 = = = = = = h i . . . . . . . . . . ",
". . . . . . f g = = = = = = 4 5 . . . . . . 6 7 = = = = = = h i . . . . . . . . . . ",
". . . . . . . . . 3 = = = = = = = = = = = = = = = = = = 8 . . . . . . . . . . . . . ",
". . . . . . . . . 3 = = = = = = = = = = = = = = = = = = 8 . . . . . . . . . . . . . ",
". . . . . . . . . 3 = = = = = = = = = = = = = = = = = = 8 . . . . . . . . . . . . . ",
". . . . . . . . . . . . * = = = = = = = = = = = = - . . . . . . . . . . . . . . . . ",
". . . . . . . . . . . . * = = = = = = = = = = = = - . . . . . . . . . . . . . . . . ",
". . . . . . . . . j k k l = m n o o o o o o p { = q k k r . . . . . . . . . . . . . ",
". . . . . . . . . s t t u = v w x x x x x x y | = z t t A . . . . . . . . . . . . . ",
". . . . . . . . . 3 = = = = 4 5 . . . . . . 6 7 = = = = 8 . . . . . . . . . . . . . ",
". . . . . . B C D E = = = = 4 5 . . . . . . 6 7 = = = = F D G H . . . . . . . . . . ",
". . . . . . f g = = = = = = 4 5 . . . . . . 6 7 = = = = = = h i . . . . . . . . . . ",
". . . . . . f g = = = = = = 4 5 . . . . . . 6 7 = = = = = = h i . . . . . . . . . . ",
". . . . . . I J K L = = = = M N O O O O O O P | = = = = Q K R S . . . . . . . . . . ",
". . . . . . . . . 3 = = = = = = = = = = = = = = = = = = 8 . . . . . . . . . . . . . ",
". . . . . . . . . 3 = = = = = = = = = = = = = = = = = = 8 . . . . . . . . . . . . . ",
". . . . . . . . . T U U V = = = = = = = = = = = = W U U X . . . . . . . . . . . . . ",
". . . . . . . . . . . . * = = = = = = = = = = = = - . . . . . . . . . . . . . . . . ",
". . . . . . . . . . . . * = = = = = = = = = = = = - . . . . . . . . . . . . . . . . ",
". . . . . . . . . . . . Y Z Z Z Z Z Z Z Z Z Z Z Z ` . . . . . . . . . . . . . . . . ",
". . . . . . . . . . . . . . . . . . . . . . . . . . . . . . . . . . . . . . . . . . ",
". . . . . . . . . . . . . . . . . . . . . . . . . . . . . . . . . . . . . . . . . . ",
". . . . . . . . . . . . . . . . . . . . . . . . . . . . . . . . . . . . . . . . . . ",
". . . . . . . . . . . . . . . . . . . . . . . . . . . . . . . . . . . . . . . . . . ",
". . . . . . . . . . . . . . . . . . . . . . . . . . . . . . . . . . . . . . . . . . ",
". . . . . . . . . . . . . . . . . . . . . . . . . . . . . . . . . . . . . . . . . . ",
". . . . . . . . . . . . . . . . . . . . . . . . . . . . . . . . . . . . . . . . . . ",
". . . . . . . . . . . . . . . . . . . . . . . . . . . . . . . . . . . . . . . . . . ",
". . . . . . . . . . . . . . . . . . . . . . . . . . . . . . . . . . . . . . . . . . ",
". . . . . . . . . . . . . . . . . . . . . . . . . . . . . . . . . . . . . . . . . . ",
". . . . . . . . . . . . . . . . . . . . . . . . . . . . . . . . . . . . . . . . . . "};
