/* XPM */
static xpm_row_t const Eight_lil_xpm[] = {
"19 28 188 2",
"  	c None",
". 	c #000000",
"+ 	c #06080D",
"@ 	c #404350",
"# 	c #5F5F5E",
"$ 	c #5C5C5C",
"% 	c #5D5E5F",
"& 	c #574837",
"* 	c #0A0602",
"= 	c #111323",
"- 	c #ABB0D3",
"; 	c #FCFBF8",
"> 	c #F6F6F6",
", 	c #F5F5F5",
"' 	c #F5F8FD",
") 	c #E9C291",
"! 	c #1B1207",
"~ 	c #020204",
"{ 	c #0F0F0D",
"] 	c #252736",
"^ 	c #BABFE1",
"/ 	c #FFFFFF",
"( 	c #F4F3F2",
"_ 	c #EDEDED",
": 	c #ECECED",
"< 	c #F2F2F7",
"[ 	c #F5D0A1",
"} 	c #2E261B",
"| 	c #0E0E0F",
"1 	c #040100",
"2 	c #0D1821",
"3 	c #A0A2A3",
"4 	c #BBBBC0",
"5 	c #E9EBF7",
"6 	c #FFFBF4",
"7 	c #908272",
"8 	c #4A4948",
"9 	c #4B4B4B",
"0 	c #4B4B4A",
"a 	c #44444B",
"b 	c #7C7DA3",
"c 	c #FCEFE0",
"d 	c #BEBDBA",
"e 	c #A09291",
"f 	c #290804",
"g 	c #12212E",
"h 	c #E5E9EB",
"i 	c #FDF6EC",
"j 	c #5F4D34",
"k 	c #46477B",
"l 	c #FEFEFE",
"m 	c #E6D1CE",
"n 	c #3A0904",
"o 	c #7B8483",
"p 	c #8A9097",
"q 	c #F3F4F6",
"r 	c #614E36",
"s 	c #46477C",
"t 	c #FEFEFF",
"u 	c #F2E9E7",
"v 	c #9D8582",
"w 	c #7C7E7E",
"x 	c #604D35",
"y 	c #EDFEFD",
"z 	c #F6F5F6",
"A 	c #FEF6ED",
"B 	c #68563F",
"C 	c #0A0908",
"D 	c #0C0C0C",
"E 	c #0C0C0B",
"F 	c #03030C",
"G 	c #4F5082",
"H 	c #FEFDFD",
"I 	c #F6F5F5",
"J 	c #F3F3F2",
"K 	c #020100",
"L 	c #182733",
"M 	c #E6E9EC",
"N 	c #FFFFFE",
"O 	c #FCFCFB",
"P 	c #FBFBFB",
"Q 	c #FCFCFD",
"R 	c #E6D3D0",
"S 	c #3E100B",
"T 	c #000203",
"U 	c #152633",
"V 	c #E6EAEC",
"W 	c #E8D2D0",
"X 	c #3F0D07",
"Y 	c #080D11",
"Z 	c #4F5050",
"` 	c #666872",
" .	c #CDD1E9",
"..	c #F8DEBD",
"+.	c #6E6961",
"@.	c #4E4848",
"#.	c #150402",
"$.	c #101223",
"%.	c #AFB4DB",
"&.	c #F2C893",
"*.	c #1C1206",
"=.	c #091015",
"-.	c #616262",
";.	c #787983",
">.	c #D3D7ED",
",.	c #FFFFFA",
"'.	c #BBB3A8",
").	c #90908F",
"!.	c #919191",
"~.	c #8D8D91",
"{.	c #AFAFC7",
"].	c #F9E1C5",
"^.	c #7F7B74",
"/.	c #605958",
"(.	c #190503",
"_.	c #10202C",
":.	c #E2E6E8",
"<.	c #FDF6ED",
"[.	c #635038",
"}.	c #010000",
"|.	c #030303",
"1.	c #030302",
"2.	c #000003",
"3.	c #484A7E",
"4.	c #FFFEFE",
"5.	c #E3CECB",
"6.	c #380903",
"7.	c #3E4241",
"8.	c #505B65",
"9.	c #ECEEF0",
"0.	c #EDDDDC",
"a.	c #6D4A46",
"b.	c #3C3F3F",
"c.	c #EAFCFA",
"d.	c #F3F2F3",
"e.	c #604D34",
"f.	c #FDFCFC",
"g.	c #F4F1F1",
"h.	c #F0F0EF",
"i.	c #F9FEFE",
"j.	c #625038",
"k.	c #020202",
"l.	c #020201",
"m.	c #000002",
"n.	c #47497E",
"o.	c #69706F",
"p.	c #778087",
"q.	c #F0F2F4",
"r.	c #FEFBF7",
"s.	c #BCB3AA",
"t.	c #929291",
"u.	c #939393",
"v.	c #8F8F93",
"w.	c #B0B1C8",
"x.	c #F1E5E4",
"y.	c #8E736F",
"z.	c #696A6A",
"A.	c #0C1E2A",
"B.	c #E4E8EB",
"C.	c #E4CFCD",
"D.	c #370601",
"E.	c #12202B",
"F.	c #CFD2D4",
"G.	c #EBEBEC",
"H.	c #F7F8FC",
"I.	c #FEFAF5",
"J.	c #EDEEED",
"K.	c #CFBDBB",
"L.	c #350B06",
"M.	c #131627",
"N.	c #B5BAE0",
"O.	c #F7CE9A",
"P.	c #1E1409",
"Q.	c #0F111E",
"R.	c #959AB9",
"S.	c #DCDCD9",
"T.	c #D5D5D5",
"U.	c #D6D9DC",
"V.	c #CCAA7F",
"W.	c #181005",
"X.	c #030306",
"Y.	c #1D1E24",
"Z.	c #2A2A2A",
"`.	c #292929",
" +	c #292A2A",
".+	c #272119",
"++	c #040301",
"@+	c #000000",
". . . . . . . . . . . . . . . . . . . ",
". . . . . . . . . . . . . . . . . . . ",
". . . . . . . . . . . . . . . . . . . ",
". . . . . . . . . . . . . . . . . . . ",
". . . F b.z.Z /.Z z.Z Z z.Z & . . . . ",
". . . $.%./ / / / / / / / / &.W.. . . ",
". . . ] ^ / J.J.B.x.J.J.< / O.Y.#.. . ",
". $.3 4 < / y.a a a a b.b / c K.u.(.. ",
". E.J./ / 6 j . . . . . k / / / W n . ",
"o p y / / 6 & . . . . . k / / / A 7 ;.",
"/ / / / / 6 e.. . . . . k / / / / / / ",
"y / / / / c [.. W.F 1.F G / / / / / J.",
". E.>./ / / / / / / / / / / / / W D.. ",
". g J./ / / / / / / / / / / / / W D.. ",
". Y a z. ./ / / / / / / / / ..# a #.. ",
". . . $.%./ / / / / / / / / &.W.. . . ",
". Y 8.^.>./ s.~.~.~.~.~.{./ ].^./.#.. ",
". E.J./ / 6 & . . . . . k / / / W D.. ",
"b.8.J./ / 6 e.. . . . . k / / / x.a.Z.",
"y y / / / A & . . . . . k / / / / 6 / ",
"/ / / / / 6 [.. . . . . k / / / / / / ",
"z.;.J./ / 6 s.e p u.u.p w./ / / 0.y.z.",
". 2 B./ / / / / / / / / / / / / W D.. ",
". A.U.J.< / / / / / / / / / 6 J.K.(.. ",
". . . 2 %./ / / / / / / / / O.#.. . . ",
". . . F R.S.S.F.S.F.S.F.S.S.V.W.. . . ",
". . . . Y.Y.Y.Y.Y.Y.Y.Y.Y.Y..+. . . . ",
". . . . . . . . . . . . . . . . . . . "};
