/* XPM */
static xpm_row_t const Elmistake_xpm[] = {
"19 28 84 1",
" 	c None",
".	c #000000",
"+	c #000000",
"@	c #040000",
"#	c #040507",
"$	c #070000",
"%	c #080000",
"&	c #0B0606",
"*	c #100000",
"=	c #130000",
"-	c #141518",
";	c #191717",
">	c #1B0000",
",	c #1B0100",
"'	c #1B1B1B",
")	c #1B212D",
"!	c #1C1D1D",
"~	c #1D1D1C",
"{	c #232B3B",
"]	c #261412",
"^	c #273042",
"/	c #273142",
"(	c #283244",
"_	c #524A4B",
":	c #584C3C",
"<	c #5E312E",
"[	c #615F58",
"}	c #653332",
"|	c #6A3734",
"1	c #6B3735",
"2	c #6C3836",
"3	c #775E59",
"4	c #7E899B",
"5	c #8A755A",
"6	c #8E7A60",
"7	c #907C62",
"8	c #917C62",
"9	c #989692",
"0	c #A4B0CA",
"a	c #A78079",
"b	c #A9A1A0",
"c	c #AB8780",
"d	c #AD8981",
"e	c #AD8982",
"f	c #AE8982",
"g	c #AFAFAF",
"h	c #B1B3B3",
"i	c #B2ADAD",
"j	c #B3C1DE",
"k	c #B4C3DF",
"l	c #B4C3E0",
"m	c #B5C4E0",
"n	c #B7AA9A",
"o	c #B7C6E4",
"p	c #BAB8B5",
"q	c #D4BCBA",
"r	c #DABEBD",
"s	c #DFD1CD",
"t	c #E3E3E3",
"u	c #E3E3E4",
"v	c #E4E4E4",
"w	c #E9CBCA",
"x	c #EAEEEE",
"y	c #EBCDCB",
"z	c #EBCDCC",
"A	c #F0EEEB",
"B	c #F2EBE1",
"C	c #F2F5F4",
"D	c #F7EEE3",
"E	c #F7F6F4",
"F	c #F8F0E6",
"G	c #F9F1E6",
"H	c #FAF5EF",
"I	c #FBFBFB",
"J	c #FBFBFD",
"K	c #FCFDFE",
"L	c #FDF4F2",
"M	c #FDFCFC",
"N	c #FFF6F4",
"O	c #FFF7F5",
"P	c #FFF8F6",
"Q	c #FFFCFB",
"R	c #FFFEFD",
"S	c #FFFFFF",
"                   ",
"+++++++++++++++++++",
"+++++++++++++++++++",
"+++++++++++++++++++",
"++#-~'''''''!;&++++",
"++{0Auvvvvvtxq<++++",
"++(oSSSSSSSSSz2++++",
"++^kSSSSSSSSSw|++++",
"++/lSSSSSSSSSw|++++",
"++/lSSSSSSSSSy1++++",
"++/lSSSSSSRECr}++++",
"++/lSSSSSSHn[_]++++",
"++/lSSSSSSD5+++++++",
"++/lSSSSSSF7$++++++",
"++/lSSSSSSF7$++++++",
"++/lSSSSSSG8%++++++",
"++/lSSSSMJB6%++++++",
"++/lSSSQsb9:@++++++",
"++/lSSSNa*+++++++++",
"++/lSSSOe>+++++++++",
"++/lSSSOd>+++++++++",
"++/mSSSPf>+++++++++",
"++^jSIKLc,+++++++++",
"++)4pghi3=+++++++++",
"+++++++++++++++++++",
"+++++++++++++++++++",
"+++++++++++++++++++",
"+++++++++++++++++++"};
