/* XPM */
static xpm_row_t const F_lil_xpm[] = {
"18 29 87 1",
" 	c None",
".	c #393939",
"+	c #373737",
"@	c #393A3B",
"#	c #DBDDDB",
"$	c #D6D6D6",
"%	c #D6D5D5",
"&	c #DEE0E2",
"*	c #FFFFFF",
"=	c #FEFEFE",
"-	c #FEFEFD",
";	c #FCFCFC",
">	c #FBFBFC",
",	c #FBFBFB",
"'	c #D4C6BE",
")	c #8A837F",
"!	c #707070",
"~	c #717171",
"{	c #757678",
"]	c #B79E91",
"^	c #372A23",
"/	c #0E0C0C",
"(	c #0C0D0D",
"_	c #0D0D0D",
":	c #0D0D0E",
"<	c #B2978A",
"[	c #2A1C14",
"}	c #000000",
"|	c #B3988B",
"1	c #2C1E17",
"2	c #010000",
"3	c #B09588",
"4	c #261810",
"5	c #C3AEA3",
"6	c #584D47",
"7	c #343433",
"8	c #343434",
"9	c #353636",
"0	c #323130",
"a	c #1A130F",
"b	c #030201",
"c	c #EFE9E6",
"d	c #D2CFCD",
"e	c #C7C8C7",
"f	c #C8C8C8",
"g	c #CACACB",
"h	c #C0B9B6",
"i	c #60483A",
"j	c #0B0603",
"k	c #FFF8F4",
"l	c #81604E",
"m	c #0F0804",
"n	c #F6F2F1",
"o	c #E5E3E2",
"p	c #DFDFDF",
"q	c #E2E3E3",
"r	c #D7CFCC",
"s	c #6B5042",
"t	c #0D0703",
"u	c #CEBDB4",
"v	c #776E69",
"w	c #595858",
"x	c #595A5A",
"y	c #5A5A5A",
"z	c #5C5C5C",
"A	c #575453",
"B	c #2C201A",
"C	c #050301",
"D	c #B3988A",
"E	c #2B1D15",
"F	c #B2988A",
"G	c #2B1D16",
"H	c #B59A8D",
"I	c #2D1F17",
"J	c #EFEFEF",
"K	c #ECEBEB",
"L	c #ECECEC",
"M	c #F2EFED",
"N	c #A58D80",
"O	c #291C15",
"P	c #717271",
"Q	c #6F6E6E",
"R	c #6F7070",
"S	c #72716F",
"T	c #4E433D",
"U	c #130E0A",
"V	c #000000",
"777777777777777777",
"#################&",
"******************",
"******************",
"******************",
"******************",
"******>*>>*>>*>***",
"****u)QQQQQQQQQQQR",
"****]^bbbbbbbbbbb}",
"****34}}}}bbbbbbb}",
"****]4}}}}}}}}}}}}",
"****N4}}}}}}}}}}}}",
"****5A7777@77@77:}",
"****nrgggggggg%hit",
"****************lt",
"****no##&#&#&#&rit",
"****uvAAAAAAAAAAI}",
"****N4}}}}}}}}}}}}",
"****][}}}}}}}}}}}}",
"****H4}}}}}}}}}}}}",
"****H[}}}}}}}}}}}}",
"****H4}}}}}}}}}}}}",
"****H[}}}}}}}}}}}}",
"****H4}}}}}}}}}}}}",
"****H[}}}}}}}}}}}}",
"****H4}}}}}}}}}}}}",
"****][}}}}}}}}}}}}",
"JJJJN4}}}}}}}}}}}}",
"QQQQ6t}}}}}}}}}}}}"};
