/* XPM */
static xpm_row_t const Five_lil_xpm[] = {
"19 28 152 2",
"  	c None",
". 	c #000000",
"+ 	c #000000",
"@ 	c #000004",
"# 	c #010000",
"$ 	c #010100",
"% 	c #010101",
"& 	c #020303",
"* 	c #030200",
"= 	c #030201",
"- 	c #030202",
"; 	c #030303",
"> 	c #050301",
", 	c #060502",
"' 	c #060707",
") 	c #070707",
"! 	c #080707",
"~ 	c #080805",
"{ 	c #0B0705",
"] 	c #0C0A08",
"^ 	c #0D0F12",
"/ 	c #0F0D0B",
"( 	c #0F0D0C",
"_ 	c #130F0F",
": 	c #151515",
"< 	c #160F0B",
"[ 	c #171717",
"} 	c #171B22",
"| 	c #19100C",
"1 	c #191919",
"2 	c #1B1A18",
"3 	c #1B1B1B",
"4 	c #1C1C1C",
"5 	c #1D130E",
"6 	c #1E130D",
"7 	c #1E140E",
"8 	c #1E1610",
"9 	c #1E1E1C",
"0 	c #20150F",
"a 	c #201912",
"b 	c #211610",
"c 	c #221610",
"d 	c #262E38",
"e 	c #282A2C",
"f 	c #2A313D",
"g 	c #2B2926",
"h 	c #2E2E2E",
"i 	c #30302F",
"j 	c #303030",
"k 	c #3A302C",
"l 	c #3C4758",
"m 	c #414E61",
"n 	c #465368",
"o 	c #473827",
"p 	c #475469",
"q 	c #493928",
"r 	c #493A28",
"s 	c #494136",
"t 	c #495469",
"u 	c #4A5267",
"v 	c #4B4F51",
"w 	c #565556",
"x 	c #565656",
"y 	c #57524D",
"z 	c #585859",
"A 	c #585958",
"B 	c #5D5448",
"C 	c #625D57",
"D 	c #665B4D",
"E 	c #665C4F",
"F 	c #67798A",
"G 	c #697A8A",
"H 	c #697A8B",
"I 	c #6C7D8E",
"J 	c #766C61",
"K 	c #796F64",
"L 	c #798185",
"M 	c #7A665C",
"N 	c #7D7876",
"O 	c #84838A",
"P 	c #848B8F",
"Q 	c #857165",
"R 	c #888482",
"S 	c #8C8C8B",
"T 	c #8C8C8C",
"U 	c #909190",
"V 	c #918F96",
"W 	c #989797",
"X 	c #989897",
"Y 	c #989898",
"Z 	c #9C9D9C",
"` 	c #9E8578",
" .	c #A1877A",
"..	c #AB8F7F",
"+.	c #AC9182",
"@.	c #AD9283",
"#.	c #AF9586",
"$.	c #B3B3B3",
"%.	c #B4B4B4",
"&.	c #B5B5B4",
"*.	c #BAC1CB",
"=.	c #BBBABA",
"-.	c #BEC9CE",
";.	c #C2C8D0",
">.	c #C7C7C7",
",.	c #C8BFB3",
"'.	c #C8C8C8",
").	c #CDBDB4",
"!.	c #CDCECD",
"~.	c #CFDAE2",
"{.	c #D1C3BA",
"].	c #D3CFCB",
"^.	c #D8CBBC",
"/.	c #D9DDE5",
"(.	c #DADADA",
"_.	c #DADADB",
":.	c #DADFE8",
"<.	c #DAE0E8",
"[.	c #DAE0E9",
"}.	c #DBE2EB",
"|.	c #DBE2EC",
"1.	c #DCE0E9",
"2.	c #DCE2EA",
"3.	c #DDD0C0",
"4.	c #DED1C0",
"5.	c #DFDCD9",
"6.	c #E0D2C2",
"7.	c #E1E1E1",
"8.	c #E1E2E1",
"9.	c #E8F0F4",
"0.	c #E9F0F4",
"a.	c #EDE2D5",
"b.	c #EFEFEF",
"c.	c #EFF0F0",
"d.	c #F2F2F1",
"e.	c #F4F4F3",
"f.	c #F5F8FA",
"g.	c #F6F7F6",
"h.	c #F6F9FB",
"i.	c #F7F7F8",
"j.	c #FCFCFB",
"k.	c #FCFCFC",
"l.	c #FDFDFE",
"m.	c #FEFCFB",
"n.	c #FEFEFE",
"o.	c #FFF8E8",
"p.	c #FFF8E9",
"q.	c #FFF9ED",
"r.	c #FFFAEC",
"s.	c #FFFFFB",
"t.	c #FFFFFD",
"u.	c #FFFFFF",
". . . . . . . . . . . . . . . . . . . ",
". . . . . . . . . . . . . . . . . . . ",
". . . . . . . . . . . . . . . . . . . ",
". . . . . . . . . . . . . . . . . . . ",
"} v A w x x x x x x x x x x z k { . . ",
"m ~.g.b.b.b.b.b.b.b.b.b.b.c.i. .7 . . ",
"n <.u.u.u.u.u.u.u.u.u.u.u.u.u.@.0 . . ",
"n :.u.u.u.u.u.u.u.u.u.u.u.u.u.+.0 . . ",
"n :.u.u.u.u.u.u.u.u.u.u.u.u.u.#.b . . ",
"n [.s.].&.$.%.%.%.%.%.%.%.%.=.M < . . ",
"n }.r.J 2 : [ [ [ [ [ [ [ [ [ / = . . ",
"n |.p.E , . . . . . . . . . . . . . . ",
"n |.o.D > . . . . . . . . . . . . . . ",
"n }.q.K 9 1 3 3 3 3 3 3 3 3 4 _ - . . ",
"n <.t.5.'.>.'.'.'.'.>.>.>.>.!.Q | . . ",
"p 2.u.u.u.u.u.u.u.u.u.n.n.n.u.@.6 . . ",
"f P Z W Y Y Y Y X V ;.h.u.u.u.).N y 8 ",
"& ' ! ) ) ) ) ) ~ @ I 0.u.u.u.j.u.^.o ",
". . . . . . . . . . H 0.u.u.u.u.u.3.r ",
". . . . . . . . . . G 0.u.u.u.u.u.4.r ",
". . . . . . . . . . F 9.u.u.u.u.u.6.q ",
"d L U T T T T T S O *.f.u.u.u.{.R C a ",
"u /.u.k.k.k.k.k.k.k.l.u.u.u.u...c . $ ",
"n <.u.u.u.u.u.u.u.u.u.u.m.d.e.` 5 . . ",
"t 1.u.u.u.u.u.u.u.u.u.u.a.B ] ; $ . . ",
"l -.8.(.(.(.(.(.(.(._.7.,.s * . . . . ",
"^ e j h h h h h h h h i g ( # . . . . ",
". % % % % % % % % % % % % . . . . . . "};
