/* XPM */
static xpm_row_t const Five_xpm[] = {
"42 44 73 1",
" 	c None",
".	c #000000",
"+	c #00000B",
"@	c #384040",
"#	c #404040",
"$	c #3E3D3D",
"%	c #201611",
"&	c #000028",
"*	c #C7E2E2",
"=	c #E2E2E2",
"-	c #DEDAD8",
";	c #714E3B",
">	c #00002E",
",	c #E0FFFF",
"'	c #FFFFFF",
")	c #FAF6F4",
"!	c #805842",
"~	c #FEFDFC",
"{	c #F2F1F0",
"]	c #EDEDED",
"^	c #E9E5E3",
"/	c #77523E",
"(	c #F9EDDF",
"_	c #777169",
":	c #4B4B4B",
"<	c #494847",
"[	c #261A13",
"}	c #F7E6D1",
"|	c #3F362B",
"1	c #FAF0E3",
"2	c #89837C",
"3	c #626262",
"4	c #605F5E",
"5	c #32221A",
"6	c #000020",
"7	c #9EB3B3",
"8	c #B3B3B3",
"9	c #B3B3BE",
"0	c #EEF6F8",
"a	c #FCF9F7",
"b	c #A5897A",
"c	c #20160A",
"d	c #000003",
"e	c #0F1111",
"f	c #111111",
"g	c #111134",
"h	c #C9E3E9",
"i	c #FFFEFE",
"j	c #F6F3F2",
"k	c #664721",
"l	c #000025",
"m	c #C5E1E8",
"n	c #6D4C23",
"o	c #00000A",
"p	c #333A3A",
"q	c #3A3A3A",
"r	c #3A3A57",
"s	c #D2E8ED",
"t	c #FEFDFD",
"u	c #E2D9D4",
"v	c #C5C5C5",
"w	c #543B1B",
"x	c #F8F7F6",
"y	c #F3F3F3",
"z	c #EEEBE8",
"A	c #7A543F",
"B	c #F9EDDE",
"C	c #615342",
"D	c #00001A",
"E	c #809090",
"F	c #909090",
"G	c #8E877E",
"H	c #372F26",
"..........................................",
"..........................................",
"..........................................",
"..........................................",
"..........................................",
".......+@################$%...............",
".......&*================-;...............",
".......>,'''''''''''''''')!...............",
".......>,'''''''''''''''')!...............",
".......>,'''''''''''''''')!...............",
".......>,'''''''''''''''')!...............",
".......>,'~{]]]]]]]]]]]]]^/...............",
".......>,'(_:::::::::::::<[...............",
".......>,'}|..............................",
".......>,'}|..............................",
".......>,'}|..............................",
".......>,'}|..............................",
".......>,'12333333333333345...............",
".......>,'''''''''''''''')!...............",
".......>,'''''''''''''''')!...............",
".......67888888888890''''ab::c............",
".......deffffffffffgh''''ij]]k............",
"...................lm''''''''n............",
"...................lm''''''''n............",
"...................lm''''''''n............",
"...................lm''''''''n............",
".......opqqqqqqqqqqrs''''tuvvw............",
".......>,'''''''''''''''')!...............",
".......>,'''''''''''''''')!...............",
".......>,'''''''''''''ixyzA...............",
".......>,'''''''''''''BC..................",
".......>,'''''''''''''BC..................",
".......DEFFFFFFFFFFFFFGH..................",
"..........................................",
"..........................................",
"..........................................",
"..........................................",
"..........................................",
"..........................................",
"..........................................",
"..........................................",
"..........................................",
"..........................................",
".........................................."};
