/* XPM */
static xpm_row_t const Four_xpm[] = {
"42 44 101 2",
"  	c None",
". 	c #000000",
"+ 	c #182021",
"@ 	c #3E4040",
"# 	c #403F3F",
"$ 	c #0E0E0E",
"% 	c #000001",
"& 	c #577175",
"* 	c #DEE2E2",
"= 	c #E2E1E1",
"- 	c #313030",
"; 	c #627F84",
"> 	c #FBFFFF",
", 	c #FFFEFE",
"' 	c #373636",
") 	c #030608",
"! 	c #1F2327",
"~ 	c #282829",
"{ 	c #7B9498",
"] 	c #FCFFFF",
"^ 	c #565656",
"/ 	c #282828",
"( 	c #282822",
"_ 	c #010000",
": 	c #111D27",
"< 	c #9EB2C3",
"[ 	c #CACACB",
"} 	c #DFE5E6",
"| 	c #FEFFFF",
"1 	c #FFFFFF",
"2 	c #D6D6D6",
"3 	c #CACACA",
"4 	c #CACAAB",
"5 	c #050000",
"6 	c #152431",
"7 	c #C7E1F5",
"8 	c #FFFFD8",
"9 	c #060000",
"0 	c #101119",
"a 	c #232323",
"b 	c #35424D",
"c 	c #CFE5F7",
"d 	c #F1F1F1",
"e 	c #EDEDED",
"f 	c #EDEDC9",
"g 	c #747DB8",
"h 	c #727171",
"i 	c #4B4B4B",
"j 	c #4B4B40",
"k 	c #020000",
"l 	c #243A4B",
"m 	c #B57F7C",
"n 	c #070000",
"o 	c #010102",
"p 	c #C9C9C9",
"q 	c #E5AD67",
"r 	c #00000B",
"s 	c #556262",
"t 	c #626262",
"u 	c #798690",
"v 	c #00001F",
"w 	c #DDFFFF",
"x 	c #F1E5D5",
"y 	c #443016",
"z 	c #DFDAD1",
"A 	c #B3B3B3",
"B 	c #AAA196",
"C 	c #302110",
"D 	c #998B6C",
"E 	c #111111",
"F 	c #100F0E",
"G 	c #040301",
"H 	c #928261",
"I 	c #000019",
"J 	c #B0CACA",
"K 	c #D2D6DA",
"L 	c #BEB5A2",
"M 	c #696969",
"N 	c #69696A",
"O 	c #DFE0E0",
"P 	c #F0CFA6",
"Q 	c #636362",
"R 	c #0B0803",
"S 	c #000005",
"T 	c #232828",
"U 	c #475967",
"V 	c #F1F0EE",
"W 	c #1B1308",
"X 	c #1C2D3A",
"Y 	c #C5C5C5",
"Z 	c #E0E2EF",
"` 	c #6F77B0",
" .	c #F3F3F3",
"..	c #FCFCFC",
"+.	c #FEFBF8",
"@.	c #E6E5E3",
"#.	c #1A1208",
"$.	c #000101",
"%.	c #717272",
"&.	c #909090",
"*.	c #82623B",
". . . . . . . . . . . . . . . . . . . . . . . . . . . . . . . . . . . . . . . . . . ",
". . . . . . . . . . . . . . . . . . . . . . . . . . . . . . . . . . . . . . . . . . ",
". . . . . . . . . . . . . . . . . . . . . . . . . . . . . . . . . . . . . . . . . . ",
". . . . . . . . . . . . . . . . . . . . . . . . . . . . . . . . . . . . . . . . . . ",
". . . . . . . . . . . . . . . . . . . . . . . . . . . . . . . . . . . . . . . . . . ",
". . . . . . . . . . . . . . . . . + @ # $ . . . . . . . . . . . . . . . . . . . . . ",
". . . . . . . . . . . . . . . . % & * = - . . . . . . . . . . . . . . . . . . . . . ",
". . . . . . . . . . . . . . . . % ; > , ' . . . . . . . . . . . . . . . . . . . . . ",
". . . . . . . . . . . . . . ) ! ~ { ] , ^ / ( _ . . . . . . . . . . . . . . . . . . ",
". . . . . . . . . . . . . . : < [ } | 1 2 3 4 5 . . . . . . . . . . . . . . . . . . ",
". . . . . . . . . . . . . . 6 7 1 1 1 1 1 1 8 9 . . . . . . . . . . . . . . . . . . ",
". . . . . . . . . . . . 0 a b c 1 1 1 1 d e f 9 . . . . . . . . . . . . . . . . . . ",
". . . . . . . . . . . . g 1 1 1 1 1 1 , h i j k . . . . . . . . . . . . . . . . . . ",
". . . . . . . . . . . . g 1 1 1 1 1 1 , ' . . . . . . . . . . . . . . . . . . . . . ",
". . . . . . . . . . . . g 1 1 1 1 1 1 , ' . . . . . . . . . . . . . . . . . . . . . ",
". . . . . . . . . l 1 1 1 1 1 1 1 m n o p 1 1 1 1 q . . . . . . . . . . . . . . . . ",
". . . . . . . . . l 1 1 1 1 1 1 1 m n o p 1 1 1 1 q . . . . . . . . . . . . . . . . ",
". . . . . . r s t u 1 1 1 1 1 1 1 m n o p 1 1 1 1 q . . . . . . . . . . . . . . . . ",
". . . . . . v w 1 1 1 1 1 1 x y . . . o p 1 1 1 1 q . . . . . . . . . . . . . . . . ",
". . . . . . v w 1 1 1 1 1 1 x y . . . o p 1 1 1 1 q . . . . . . . . . . . . . . . . ",
". . . . . . v w 1 1 1 1 z A B C . . . o p 1 1 1 1 q . . . . . . . . . . . . . . . . ",
". . . . . . v w 1 1 1 1 D E F G . . . o p 1 1 1 1 q . . . . . . . . . . . . . . . . ",
". . . . . . v w 1 1 1 1 H . . . . . . o p 1 1 1 1 q . . . . . . . . . . . . . . . . ",
". . . . . . I J 3 K 1 1 L M M M M M M N O 1 1 1 1 P M M M M Q R . . . . . . . . . . ",
". . . . . . S T / U 1 1 1 1 1 1 1 1 1 1 1 1 1 1 1 1 1 1 1 1 V W . . . . . . . . . . ",
". . . . . . . . . l 1 1 1 1 1 1 1 1 1 1 1 1 1 1 1 1 1 1 1 1 V W . . . . . . . . . . ",
". . . . . . . . . X Y Y Z 1 1 1 1 1 1 1 1 1 1 1 1 1 1 1 1 1 V W . . . . . . . . . . ",
". . . . . . . . . . . . g 1 1 1 1 1 1 1 1 1 1 1 1 1 1 1 1 1 V W . . . . . . . . . . ",
". . . . . . . . . . . . g 1 1 1 1 1 1 1 1 1 1 1 1 1 1 1 1 1 V W . . . . . . . . . . ",
". . . . . . . . . . . . `  . . . . . . ...1 1 1 1 +. . . . .@.#.. . . . . . . . . . ",
". . . . . . . . . . . . . . . . . . . o p 1 1 1 1 q . . . . . . . . . . . . . . . . ",
". . . . . . . . . . . . . . . . . . . o p 1 1 1 1 q . . . . . . . . . . . . . . . . ",
". . . . . . . . . . . . . . . . . . . $.%.&.&.&.&.*.. . . . . . . . . . . . . . . . ",
". . . . . . . . . . . . . . . . . . . . . . . . . . . . . . . . . . . . . . . . . . ",
". . . . . . . . . . . . . . . . . . . . . . . . . . . . . . . . . . . . . . . . . . ",
". . . . . . . . . . . . . . . . . . . . . . . . . . . . . . . . . . . . . . . . . . ",
". . . . . . . . . . . . . . . . . . . . . . . . . . . . . . . . . . . . . . . . . . ",
". . . . . . . . . . . . . . . . . . . . . . . . . . . . . . . . . . . . . . . . . . ",
". . . . . . . . . . . . . . . . . . . . . . . . . . . . . . . . . . . . . . . . . . ",
". . . . . . . . . . . . . . . . . . . . . . . . . . . . . . . . . . . . . . . . . . ",
". . . . . . . . . . . . . . . . . . . . . . . . . . . . . . . . . . . . . . . . . . ",
". . . . . . . . . . . . . . . . . . . . . . . . . . . . . . . . . . . . . . . . . . ",
". . . . . . . . . . . . . . . . . . . . . . . . . . . . . . . . . . . . . . . . . . ",
". . . . . . . . . . . . . . . . . . . . . . . . . . . . . . . . . . . . . . . . . . "};
