/* XPM */
static xpm_row_t const Four_lil_xpm[] = {
"19 28 186 2",
"  	c None",
". 	c #000000",
"+ 	c #030404",
"@ 	c #090909",
"# 	c #070707",
"$ 	c #010101",
"% 	c #232B2D",
"& 	c #6B7071",
"* 	c #595858",
"= 	c #111111",
"- 	c #4F5F62",
"; 	c #E8F3F4",
"> 	c #BFBDBD",
", 	c #262626",
"' 	c #0C0E11",
") 	c #1E2225",
"! 	c #6E7B7E",
"~ 	c #E8F1F2",
"{ 	c #C5C4C4",
"] 	c #494949",
"^ 	c #1E1E1B",
"/ 	c #0D0D0A",
"( 	c #43515F",
"_ 	c #AEB8C2",
": 	c #DDE0E0",
"< 	c #F9FBFB",
"[ 	c #F0F0F0",
"} 	c #D7D7D6",
"| 	c #B5B4A5",
"1 	c #403F34",
"2 	c #050506",
"3 	c #05090D",
"4 	c #637685",
"5 	c #E7F3FC",
"6 	c #FFFFFF",
"7 	c #FEFEFE",
"8 	c #E3E1D3",
"9 	c #515043",
"0 	c #000005",
"a 	c #3B3D4F",
"b 	c #878A95",
"c 	c #BFC7CB",
"d 	c #F2F8FB",
"e 	c #E0E0E0",
"f 	c #ACABAB",
"g 	c #87867A",
"h 	c #302F26",
"i 	c #000007",
"j 	c #696E90",
"k 	c #EEF1FF",
"l 	c #B8B7B7",
"m 	c #282828",
"n 	c #000102",
"o 	c #121414",
"p 	c #29292F",
"q 	c #7F839C",
"r 	c #E9ECFB",
"s 	c #F3EEEE",
"t 	c #E8E4E4",
"u 	c #A5A4A4",
"v 	c #403F3F",
"w 	c #222122",
"x 	c #2A2A2B",
"y 	c #2C2824",
"z 	c #15110B",
"A 	c #00070E",
"B 	c #88939C",
"C 	c #BB9C9B",
"D 	c #1A0504",
"E 	c #3C3F40",
"F 	c #E2E2E2",
"G 	c #FFFADC",
"H 	c #866A47",
"I 	c #373F44",
"J 	c #A0A7AD",
"K 	c #F9F9F7",
"L 	c #F5F1EF",
"M 	c #B29594",
"N 	c #251110",
"O 	c #444646",
"P 	c #D8D8D8",
"Q 	c #FFEFD1",
"R 	c #816644",
"S 	c #E6EDEC",
"T 	c #F0F0F1",
"U 	c #C6BBAD",
"V 	c #60584F",
"W 	c #2D2727",
"X 	c #020000",
"Y 	c #49494A",
"Z 	c #D8D8D9",
"` 	c #FBFBFB",
" .	c #FDFAF5",
"..	c #A1927E",
"+.	c #1A1004",
"@.	c #4B4B4B",
"#.	c #FFFFFC",
"$.	c #CCC8C0",
"%.	c #89857F",
"&.	c #4E4740",
"*.	c #110C07",
"=.	c #4A4A4B",
"-.	c #806643",
";.	c #FFFFFA",
">.	c #9D9482",
",.	c #181409",
"'.	c #060606",
").	c #4E4E4E",
"!.	c #D9D9D9",
"~.	c #FFEED1",
"{.	c #836948",
"].	c #060401",
"^.	c #040506",
"/.	c #040403",
"(.	c #D3DBDA",
"_.	c #EAEAEC",
":.	c #FFFFFE",
"<.	c #C1BBB0",
"[.	c #67655F",
"}.	c #535456",
"|.	c #5A5B5B",
"1.	c #5B5B5B",
"2.	c #505050",
"3.	c #878788",
"4.	c #E6E6E7",
"5.	c #FFF4E2",
"6.	c #AE9C87",
"7.	c #595856",
"8.	c #58595A",
"9.	c #5E5F5F",
"0.	c #373734",
"a.	c #283137",
"b.	c #99A1A8",
"c.	c #FAFAFA",
"d.	c #FBFCFC",
"e.	c #FEFFFF",
"f.	c #FDFCFB",
"g.	c #FBFAFA",
"h.	c #9A9791",
"i.	c #000108",
"j.	c #778188",
"k.	c #EDEFEF",
"l.	c #F7F7F9",
"m.	c #FEFEFF",
"n.	c #9F9B95",
"o.	c #000305",
"p.	c #2B2E2F",
"q.	c #55565B",
"r.	c #9A9CB1",
"s.	c #EEF0FC",
"t.	c #9D9A94",
"u.	c #000001",
"v.	c #5E6384",
"w.	c #E4E6FA",
"x.	c #9E9A94",
"y.	c #000006",
"z.	c #4E516A",
"A.	c #B7B9C6",
"B.	c #CECDCA",
"C.	c #C6C6C7",
"D.	c #C7C7C7",
"E.	c #C4C4C4",
"F.	c #D7D7D8",
"G.	c #F7F7F7",
"H.	c #FFFCF6",
"I.	c #E4DED7",
"J.	c #C7C6C6",
"K.	c #D1D1D1",
"L.	c #7C7773",
"M.	c #424243",
"N.	c #D6D6D6",
"O.	c #FDFFFF",
"P.	c #FFEDCE",
"Q.	c #7B5F3C",
"R.	c #373737",
"S.	c #A1A2A2",
"T.	c #C3C2C2",
"U.	c #BEC2C6",
"V.	c #C3B39F",
"W.	c #5F4B32",
"X.	c #151515",
"Y.	c #191919",
"Z.	c #19191A",
"`.	c #1A1815",
" +	c #0D0A07",
".+	c #000000",
". . . . . . . . . . . . . . . . . . . ",
". . . . . . . . . . . . . . . . . . . ",
". . . . . . . . . . . . . . . . . . . ",
". . . . . . . . . . . . . . . . . . . ",
". . . . . . . p L.}.= . . . . . . . . ",
". . . . . . . - d > w . . . . . . . . ",
". . . . . 3 ) & S B.O w . . . . . . . ",
". . . . . ( _ S d ; : <.h . . . . . . ",
". . . . . 4 d 6 6 6 H.t 9 . . . . . . ",
". . . a B c d 6 6 : f g h . . . . . . ",
". . . j k 6 6 6 6 > w . . . . . . . . ",
". = p q k 6 6 k.t t.I w w w *.. . . . ",
"A B 6 6 6 6 6 C D 0.t 6 6 H.H . . . . ",
"I J 6 6 6 6 k.M D O : 6 6 P.Q.. . . . ",
"k.k 6 6 6 U 9 W . O : 6 6 G H . . . . ",
"6 6 6 6 H...D . . O : 6 6 P.Q.. . . . ",
"6 6 6 $.g O D . . O 8 6 6 P.H . . . . ",
"6 6 6 ..D . . . . 2.: 6 6 P.-.. . . . ",
"(.k.6 <.[.}.- |.2.3.: 6 6 H.6.}.}.[.0.",
"p r.6 6 6 6 6 6 6 6 6 6 6 H.6 6 6 6 t.",
". g k.; 6 6 6 6 6 6 6 6 6 6 6 6 6 6 t.",
". p ( u k 6 6 6 6 6 6 6 6 6 6 6 6 6 t.",
". . . v.w.6 6 6 6 6 6 6 6 6 6 6 6 6 t.",
". . . ( A.B.> B.> : k.6 6 H.8 > B.B.L.",
". . . . . . . . . 0.K.6 6 P.Q.. . . . ",
". . . . . . . . . 0.f > A.V.W.. . . . ",
". . . . . . . . . . = = = = . . . . . ",
". . . . . . . . . . . . . . . . . . . "};
