/* XPM */
static xpm_row_t const G_xpm[] = {
"42 44 112 2",
"  	c None",
". 	c #000000",
"+ 	c #040709",
"@ 	c #2B353C",
"# 	c #404040",
"$ 	c #363529",
"% 	c #010000",
"& 	c #0E1922",
"* 	c #9ABBD6",
"= 	c #E2E2E2",
"- 	c #BEBC91",
"; 	c #050000",
"> 	c #101C26",
", 	c #AED3F1",
"' 	c #FFFFFF",
") 	c #D6D4A3",
"! 	c #010104",
"~ 	c #17181F",
"{ 	c #282828",
"] 	c #354048",
"^ 	c #BBDAF4",
"/ 	c #DDDBB2",
"( 	c #2D2828",
"_ 	c #1E160D",
": 	c #050613",
"< 	c #73789E",
"[ 	c #CACACA",
"} 	c #CED0D2",
"| 	c #EFF6FC",
"1 	c #F6F6EC",
"2 	c #CCCACA",
"3 	c #977142",
"4 	c #060818",
"5 	c #9197C6",
"6 	c #BF8E53",
"7 	c #000101",
"8 	c #121415",
"9 	c #232323",
"0 	c #282A37",
"a 	c #A1A6CE",
"b 	c #FEFEFD",
"c 	c #F4F2F0",
"d 	c #EDEDED",
"e 	c #F0F0F0",
"f 	c #C79E6B",
"g 	c #110605",
"h 	c #03070A",
"i 	c #89939C",
"j 	c #F8F1E8",
"k 	c #917C61",
"l 	c #4B4B4B",
"m 	c #696969",
"n 	c #FDFEFF",
"o 	c #7A2F24",
"p 	c #F5EBDF",
"q 	c #634520",
"r 	c #2A2A2B",
"s 	c #FCFDFE",
"t 	c #000006",
"u 	c #697F92",
"v 	c #F8FFFF",
"w 	c #FBF7EE",
"x 	c #72674D",
"y 	c #0C1013",
"z 	c #576262",
"A 	c #626262",
"B 	c #30130E",
"C 	c #212B31",
"D 	c #E0FFFF",
"E 	c #171E23",
"F 	c #9EB3B3",
"G 	c #B3B3B3",
"H 	c #C0C0DA",
"I 	c #FEFFFF",
"J 	c #020303",
"K 	c #0F1111",
"L 	c #111111",
"M 	c #38398B",
"N 	c #FCFFFF",
"O 	c #2A2B83",
"P 	c #FCFAF5",
"Q 	c #ACA596",
"R 	c #65605B",
"S 	c #291D0D",
"T 	c #121212",
"U 	c #686868",
"V 	c #8181B6",
"W 	c #FDFFFF",
"X 	c #000005",
"Y 	c #526371",
"Z 	c #BFC5C5",
"` 	c #C6C7C7",
" .	c #E4E7E9",
"..	c #F8F0E6",
"+.	c #866F52",
"@.	c #3A3A3A",
"#.	c #5A5A5A",
"$.	c #F0E5D8",
"%.	c #C5C5C5",
"&.	c #5F251C",
"*.	c #030609",
"=.	c #838D95",
"-.	c #F3F3F3",
";.	c #F3F3F4",
">.	c #FAFAFC",
",.	c #FDFDFB",
"'.	c #B6884F",
").	c #03050E",
"!.	c #535671",
"~.	c #909090",
"{.	c #79785D",
"].	c #030000",
". . . . . . . . . . . . . . . . . . . . . . . . . . . . . . . . . . . . . . . . . . ",
". . . . . . . . . . . . . . . . . . . . . . . . . . . . . . . . . . . . . . . . . . ",
". . . . . . . . . . . . . . . . . . . . . . . . . . . . . . . . . . . . . . . . . . ",
". . . . . . . . . . . . . . . . . . . . . . . . . . . . . . . . . . . . . . . . . . ",
". . . . . . . . . . . . . . . . . . . . . . . . . . . . . . . . . . . . . . . . . . ",
". . . . . . . . . . . . . . . + @ # # # # # # # $ % . . . . . . . . . . . . . . . . ",
". . . . . . . . . . . . . . . & * = = = = = = = - ; . . . . . . . . . . . . . . . . ",
". . . . . . . . . . . . . . . > , ' ' ' ' ' ' ' ) ; . . . . . . . . . . . . . . . . ",
". . . . . . . . . . . . ! ~ { ] ^ ' ' ' ' ' ' ' / ( { _ . . . . . . . . . . . . . . ",
". . . . . . . . . . . . : < [ } | ' ' ' ' ' ' ' 1 2 [ 3 . . . . . . . . . . . . . . ",
". . . . . . . . . . . . 4 5 ' ' ' ' ' ' ' ' ' ' ' ' ' 6 . . . . . . . . . . . . . . ",
". . . . . . . . . 7 8 9 0 a ' b c d d d d e ' ' ' ' ' f 9 9 g . . . . . . . . . . . ",
". . . . . . . . . h i ' ' ' ' j k l l l l m n ' ' ' ' ' ' ' o . . . . . . . . . . . ",
". . . . . . . . . h i ' ' ' ' p q . . . . r s ' ' ' ' ' ' ' o . . . . . . . . . . . ",
". . . . . . . . . h i ' ' ' ' p q . . . . r s ' ' ' ' ' ' ' o . . . . . . . . . . . ",
". . . . . . t u v ' ' ' w x . . . . . . . . . . . . . . . . . . . . . . . . . . . . ",
". . . . . . t u v ' ' ' w x . . . . . . . . . . . . . . . . . . . . . . . . . . . . ",
". . . . . . t u v ' ' ' w x . . . . y z A A A A A A A A A A B . . . . . . . . . . . ",
". . . . . . t u v ' ' ' w x . . . . C D ' ' ' ' ' ' ' ' ' ' o . . . . . . . . . . . ",
". . . . . . t u v ' ' ' w x . . . . C D ' ' ' ' ' ' ' ' ' ' o . . . . . . . . . . . ",
". . . . . . t u v ' ' ' w x . . . . E F G G G G H I ' ' ' ' o . . . . . . . . . . . ",
". . . . . . t u v ' ' ' w x . . . . J K L L L L M N ' ' ' ' o . . . . . . . . . . . ",
". . . . . . t u v ' ' ' w x . . . . . . . . . . O N ' ' ' ' o . . . . . . . . . . . ",
". . . . . . t u v ' ' ' P Q m R S . . . . T U m V W ' ' ' ' o . . . . . . . . . . . ",
". . . . . . t u v ' ' ' ' ' ' p q . . . . r s ' ' ' ' ' ' ' o . . . . . . . . . . . ",
". . . . . . t u v ' ' ' ' ' ' p q . . . . r s ' ' ' ' ' ' ' o . . . . . . . . . . . ",
". . . . . . X Y Z `  .' ' ' ' ..+.@.@.@.@.#.n ' ' ' ' $.%.%.&.. . . . . . . . . . . ",
". . . . . . . . . h i ' ' ' ' ' ' ' ' ' ' ' ' ' ' ' ' 6 . . . . . . . . . . . . . . ",
". . . . . . . . . h i ' ' ' ' ' ' ' ' ' ' ' ' ' ' ' ' 6 . . . . . . . . . . . . . . ",
". . . . . . . . . *.=.-.;.>.' ' ' ' ' ' ' ' ' ' ,.-.-.'.. . . . . . . . . . . . . . ",
". . . . . . . . . . . . 4 5 ' ' ' ' ' ' ' ' ' ' ) ; . . . . . . . . . . . . . . . . ",
". . . . . . . . . . . . 4 5 ' ' ' ' ' ' ' ' ' ' ) ; . . . . . . . . . . . . . . . . ",
". . . . . . . . . . . . ).!.~.~.~.~.~.~.~.~.~.~.{.].. . . . . . . . . . . . . . . . ",
". . . . . . . . . . . . . . . . . . . . . . . . . . . . . . . . . . . . . . . . . . ",
". . . . . . . . . . . . . . . . . . . . . . . . . . . . . . . . . . . . . . . . . . ",
". . . . . . . . . . . . . . . . . . . . . . . . . . . . . . . . . . . . . . . . . . ",
". . . . . . . . . . . . . . . . . . . . . . . . . . . . . . . . . . . . . . . . . . ",
". . . . . . . . . . . . . . . . . . . . . . . . . . . . . . . . . . . . . . . . . . ",
". . . . . . . . . . . . . . . . . . . . . . . . . . . . . . . . . . . . . . . . . . ",
". . . . . . . . . . . . . . . . . . . . . . . . . . . . . . . . . . . . . . . . . . ",
". . . . . . . . . . . . . . . . . . . . . . . . . . . . . . . . . . . . . . . . . . ",
". . . . . . . . . . . . . . . . . . . . . . . . . . . . . . . . . . . . . . . . . . ",
". . . . . . . . . . . . . . . . . . . . . . . . . . . . . . . . . . . . . . . . . . ",
". . . . . . . . . . . . . . . . . . . . . . . . . . . . . . . . . . . . . . . . . . "};
