/* XPM */
static xpm_row_t const G_lil_xpm[] = {
"19 28 227 2",
"  	c None",
". 	c #000000",
"+ 	c #030405",
"@ 	c #08090A",
"# 	c #090909",
"$ 	c #09090A",
"% 	c #090908",
"& 	c #040403",
"* 	c #000103",
"= 	c #253039",
"- 	c #565D63",
"; 	c #636261",
"> 	c #616161",
", 	c #626263",
"' 	c #5E5E53",
") 	c #2A281D",
"! 	c #000307",
"~ 	c #5E7A91",
"{ 	c #DAECFA",
"] 	c #F9F7F5",
"^ 	c #F5F5F5",
"/ 	c #F7F7FA",
"( 	c #EEEDD3",
"_ 	c #6A664A",
": 	c #020203",
"< 	c #040404",
"[ 	c #050A0E",
"} 	c #67839B",
"| 	c #E5F7FF",
"1 	c #FFFFFF",
"2 	c #F9F9DE",
"3 	c #726E53",
"4 	c #060505",
"5 	c #030201",
"6 	c #000001",
"7 	c #181925",
"8 	c #414148",
"9 	c #4E5254",
"0 	c #92A6B7",
"a 	c #ECF8FF",
"b 	c #FAF9E7",
"c 	c #9B9784",
"d 	c #48474A",
"e 	c #484036",
"f 	c #1E150A",
"g 	c #454A6C",
"h 	c #C0C4D8",
"i 	c #EBEBE9",
"j 	c #F0F3F5",
"k 	c #FDFFFF",
"l 	c #FEFEFB",
"m 	c #F0F0ED",
"n 	c #E8EAEE",
"o 	c #D4BDA0",
"p 	c #573D1D",
"q 	c #050504",
"r 	c #010108",
"s 	c #54597E",
"t 	c #DADDF3",
"u 	c #FFFFFE",
"v 	c #FDFCFC",
"w 	c #FCFCFC",
"x 	c #FEFEFE",
"y 	c #EFD6B7",
"z 	c #674A28",
"A 	c #4E5050",
"B 	c #5C5D61",
"C 	c #8F93AA",
"D 	c #E6E8F6",
"E 	c #EBE6DF",
"F 	c #CBC7C3",
"G 	c #C0C1C1",
"H 	c #C2C2C2",
"I 	c #C1C1C1",
"J 	c #C4C4C4",
"K 	c #E6E6E6",
"L 	c #F3E3CF",
"M 	c #9B8972",
"N 	c #595C5F",
"O 	c #E0E5E9",
"P 	c #FFFFFB",
"Q 	c #B8A48B",
"R 	c #463929",
"S 	c #212325",
"T 	c #262626",
"U 	c #242424",
"V 	c #2D2D2D",
"W 	c #A7A8A9",
"X 	c #D4D8DD",
"Y 	c #FCFDFE",
"Z 	c #FFFFFA",
"` 	c #AA9274",
" .	c #211200",
"..	c #030304",
"+.	c #949495",
"@.	c #FBFBFB",
"#.	c #E1E5E8",
"$.	c #E8E5DF",
"%.	c #BFBEBB",
"&.	c #B4B1AE",
"*.	c #786853",
"=.	c #1A1002",
"-.	c #050506",
";.	c #6A6A6B",
">.	c #BABBBB",
",.	c #B2B2B2",
"'.	c #B8BBBB",
").	c #ACA28B",
"!.	c #1D1709",
"~.	c #010101",
"{.	c #B5AC97",
"].	c #2B2619",
"^.	c #000102",
"/.	c #111414",
"(.	c #202222",
"_.	c #202020",
":.	c #212222",
"<.	c #2B2519",
"[.	c #030608",
"}.	c #576568",
"|.	c #A3ACAC",
"1.	c #A5A4A4",
"2.	c #A4A4A4",
"3.	c #A9ACAC",
"4.	c #060A0F",
"5.	c #90A2A6",
"6.	c #04080B",
"7.	c #778C8F",
"8.	c #E0EFEE",
"9.	c #E5E3E3",
"0.	c #E3E3E3",
"a.	c #E3E3E2",
"b.	c #E4E4E9",
"c.	c #F4F4F9",
"d.	c #B4AB97",
"e.	c #2A2518",
"f.	c #020405",
"g.	c #374042",
"h.	c #676D6D",
"i.	c #696868",
"j.	c #686868",
"k.	c #666663",
"l.	c #6C6C89",
"m.	c #BFC0DE",
"n.	c #B3AB96",
"o.	c #000133",
"p.	c #8E91C5",
"q.	c #C2BBA9",
"r.	c #504C42",
"s.	c #292828",
"t.	c #1F1A15",
"u.	c #070401",
"v.	c #1A1A1A",
"w.	c #2C2C28",
"x.	c #33335B",
"y.	c #A6A8D1",
"z.	c #EAE8E2",
"A.	c #C5C4C2",
"B.	c #BCB8B5",
"C.	c #7D6C56",
"D.	c #1B1002",
"E.	c #060606",
"F.	c #6E6F6F",
"G.	c #C1C2C0",
"H.	c #BBBBC9",
"I.	c #E1E2F0",
"J.	c #B49C7D",
"K.	c #261603",
"L.	c #080808",
"M.	c #9B9B9C",
"N.	c #FBFBFC",
"O.	c #B49E85",
"P.	c #3C2E1E",
"Q.	c #151719",
"R.	c #1B1B1B",
"S.	c #181818",
"T.	c #222222",
"U.	c #A2A3A3",
"V.	c #FDFAF7",
"W.	c #EEEBE8",
"X.	c #EAEEEF",
"Y.	c #E3E6E9",
"Z.	c #FFFFFD",
"`.	c #E2DACF",
" +	c #B3AEA7",
".+	c #A4A5A6",
"++	c #A6A6A6",
"@+	c #A5A5A5",
"#+	c #A9A9A9",
"$+	c #DBDCDC",
"%+	c #F2E1CD",
"&+	c #98846D",
"*+	c #53575A",
"=+	c #D2D8DC",
"-+	c #ECCFAE",
";+	c #5D3D17",
">+	c #CCD1D5",
",+	c #F8F7F7",
"'+	c #F6F6F8",
")+	c #FDFDFE",
"!+	c #F8F8F6",
"~+	c #F5F8FB",
"{+	c #E4CBAC",
"]+	c #614421",
"^+	c #545657",
"/+	c #646467",
"(+	c #9496AD",
"_+	c #E7E8F6",
":+	c #FBFBEA",
"<+	c #A7A594",
"[+	c #606063",
"}+	c #5D5447",
"|+	c #261B0D",
"1+	c #44486E",
"2+	c #D2D5ED",
"3+	c #FEFEFF",
"4+	c #F6F5D7",
"5+	c #686747",
"6+	c #000002",
"7+	c #3A3E5A",
"8+	c #9EA0B1",
"9+	c #C0C0BE",
"0+	c #BCBCBC",
"a+	c #BEBEC0",
"b+	c #B6B5A2",
"c+	c #514D39",
"d+	c #000000",
". . . . . . r . . . . . . . . . . . . ",
". . . . . = }.k.k.k.k.k.k.' ) . . . . ",
". . . . . ~ { 1 1 1 1 1 1 2 5+. . . . ",
". . . . r } a 1 1 1 1 1 1 2 ' . . . . ",
". . 7 8 9 0 a 1 1 1 1 1 1 :+).8 e  .. ",
". . g >+m a 1 1 1 1 1 1 1 1 m m o p . ",
". r g t 1 1 1 1 / 1 / 1 1 1 1 1 y ]+. ",
"^+- 8+a / E %.>.>.>.>.m 1 1 1 1 4+M - ",
"8.1 1 1 1 O.R T.T.T.T.M.1 1 1 1 1 1 1 ",
"$+1 1 1 1 ` D.. . . . M.1 1 / 1 / 1 1 ",
"t 1 E >. +C.u.. . . . k.>.#+#+#+ +#+>.",
"1 1 ).u.. . . . . . . . . . . . . . . ",
"1 1 {.<.. . . . /.T.T.T.T.7 T.T.7 T.T.",
"1 1 {.|+. . . . }.,.#+#+#+<+#+#+<+#+#+",
"1 1 {.<.. . . [ C 1 1 1 1 1 1 1 1 1 1 ",
"1 1 {.|+. . . . 7.8.$+b.$+b.a 1 1 1 1 ",
"1 1 {.<.. . . . g.k.k.k.k.l.m.1 1 1 1 ",
"1 1 {.|+. . . . . . . . . o.p.1 1 1 1 ",
"1 1 q.}+S |+. . . . . /.T.x.y.1 1 1 1 ",
"1 1 m J >.C.=.. . . . F.>+H.t 1 1 1 1 ",
"1 1 1 1 1 Q  .. . . . M.1 1 1 1 1 1 1 ",
"1 1 1 1 1 J.P./.T./.T.#+1 1 1 1 1 E m ",
"8.1 1 1 1 `.q.#+#+#+#+$+1 1 1 1 %+&+^+",
"$+1 1 1 1 1 1 1 1 1 1 1 1 1 1 1 -+;+. ",
">+] a 1 1 1 1 1 1 1 1 1 1 1 :+a -+;+. ",
"^+- (+m 1 1 1 1 1 1 1 1 1 :+<+^+}+ .. ",
". . x.2+1 1 a 1 1 1 1 1 1 2 5+. . . . ",
". . 7+8+>.>.>.>.>.>.>.>.>.{.e . . . . "};
