/* XPM */
static xpm_row_t const H_xpm[] = {
"42 44 53 1",
" 	c None",
".	c #000000",
"+	c #000002",
"@	c #1A2024",
"#	c #3E4040",
"$	c #404040",
"%	c #3D3B38",
"&	c #191108",
"*	c #0A0A21",
"=	c #3F4040",
"-	c #1F0C09",
";	c #000006",
">	c #5D7182",
",	c #DBE2E2",
"'	c #E2E2E2",
")	c #DAD1C6",
"!	c #583D1C",
"~	c #252674",
"{	c #DFE2E2",
"]	c #6D2A20",
"^	c #697F92",
"/	c #F8FFFF",
"(	c #FFFFFF",
"_	c #F5EBDF",
":	c #634520",
"<	c #2A2B83",
"[	c #FCFFFF",
"}	c #7A2F24",
"|	c #F9F3EB",
"1	c #9F8D76",
"2	c #626262",
"3	c #7C7DB3",
"4	c #FDFFFF",
"5	c #FEFDFB",
"6	c #E2E0DB",
"7	c #CACACA",
"8	c #D3D3E5",
"9	c #FEFFFF",
"0	c #FBF8F1",
"a	c #89806A",
"b	c #282828",
"c	c #4B4C96",
"d	c #FBF7EE",
"e	c #72674D",
"f	c #000004",
"g	c #3C4853",
"h	c #8C9090",
"i	c #909090",
"j	c #8E8C87",
"k	c #413B2C",
"l	c #18184A",
"m	c #8F9090",
"n	c #451B14",
"..........................................",
"..........................................",
"..........................................",
"..........................................",
"..........................................",
"......+@#$$$$$$%&.......*=$$$$-...........",
"......;>,'''''')!.......~{'''']...........",
"......;^/((((((_:.......<[((((}...........",
"......;^/((((((_:.......<[((((}...........",
"......;^/((((((_:.......<[((((}...........",
"......;^/((((((_:.......<[((((}...........",
"......;^/((((((_:.......<[((((}...........",
"......;^/((((((_:.......<[((((}...........",
"......;^/((((((_:.......<[((((}...........",
"......;^/((((((_:.......<[((((}...........",
"......;^/((((((_:.......<[((((}...........",
"......;^/((((((_:.......<[((((}...........",
"......;^/((((((|1222222234((((}...........",
"......;^/(((((((((((((((((((((}...........",
"......;^/(((((((((((((((((((((}...........",
"......;^/(((((((((((((((((((((}...........",
"......;^/(((((((((((((((((((((}...........",
"......;^/(((((((((((((((((((((}...........",
"......;^/(((56777777777789((((}...........",
"......;^/(((0abbbbbbbbbbc[((((}...........",
"......;^/(((de..........<[((((}...........",
"......;^/(((de..........<[((((}...........",
"......;^/(((de..........<[((((}...........",
"......;^/(((de..........<[((((}...........",
"......;^/(((de..........<[((((}...........",
"......;^/(((de..........<[((((}...........",
"......;^/(((de..........<[((((}...........",
"......fghiiijk..........lmiiiin...........",
"..........................................",
"..........................................",
"..........................................",
"..........................................",
"..........................................",
"..........................................",
"..........................................",
"..........................................",
"..........................................",
"..........................................",
".........................................."};
