/* XPM */
static xpm_row_t const H_lil_xpm[] = {
"19 28 99 2",
"  	c None",
". 	c #CBCACA",
"+ 	c #CACACA",
"@ 	c #CBCBCC",
"# 	c #CDC9C2",
"$ 	c #705A3F",
"% 	c #100A02",
"& 	c #000000",
"* 	c #0B0B42",
"= 	c #979AB1",
"- 	c #D0D1CE",
"; 	c #FFFEFE",
"> 	c #FEFEFE",
", 	c #FFFFFF",
"' 	c #FFFCF5",
") 	c #8D7250",
"! 	c #140C02",
"~ 	c #0E0F54",
"{ 	c #BFC1DF",
"] 	c #8E7250",
"^ 	c #C0C2E0",
"/ 	c #FFFCF4",
"( 	c #0E0F53",
"_ 	c #BFC2DF",
": 	c #8B6F4D",
"< 	c #130A00",
"[ 	c #0C0C52",
"} 	c #BEC1DF",
"| 	c #8F7553",
"1 	c #1A1208",
"2 	c #030405",
"3 	c #060606",
"4 	c #030300",
"5 	c #141457",
"6 	c #C0C3E0",
"7 	c #FFFEF9",
"8 	c #BFB19D",
"9 	c #7C7872",
"0 	c #6F7070",
"a 	c #717171",
"b 	c #6F6F6C",
"c 	c #797A9F",
"d 	c #DCDDED",
"e 	c #FFFFFE",
"f 	c #F6F5F2",
"g 	c #EDEDEC",
"h 	c #ECECEC",
"i 	c #ECECEB",
"j 	c #EDEDF2",
"k 	c #FAFAFD",
"l 	c #FEFFFF",
"m 	c #DDDAD2",
"n 	c #B1B0AE",
"o 	c #A8A8A8",
"p 	c #A9A9A9",
"q 	c #A8A8A6",
"r 	c #AEAEC5",
"s 	c #E9EAF4",
"t 	c #A99F8B",
"u 	c #393630",
"v 	c #222223",
"w 	c #252525",
"x 	c #22221D",
"y 	c #31316C",
"z 	c #C8CAE4",
"A 	c #FFFFFD",
"B 	c #988D75",
"C 	c #16130D",
"D 	c #0C0D52",
"E 	c #998E76",
"F 	c #0E0E53",
"G 	c #998F77",
"H 	c #16140D",
"I 	c #998F76",
"J 	c #9E947B",
"K 	c #17140E",
"L 	c #0F1057",
"M 	c #C4C5E3",
"N 	c #E2E2E2",
"O 	c #E2E2E3",
"P 	c #E8E7E1",
"Q 	c #89806A",
"R 	c #14120C",
"S 	c #0D0D4A",
"T 	c #AAABC6",
"U 	c #E8E9E6",
"V 	c #5A5A5A",
"W 	c #5C5B59",
"X 	c #36322A",
"Y 	c #080705",
"Z 	c #05051D",
"` 	c #43444E",
" .	c #5C5D5C",
"..	c #080808",
"+.	c #050504",
"@.	c #010100",
"#.	c #000003",
"$.	c #060607",
"%.	c #000000",
"@ @ @ @ @ @ $ < & & & & & & * = - @ @ ",
", , , , , / : < & & & & & & [ 6 , , , ",
", , , , , , | < & & & & & & [ } , , , ",
", , , , , / : < & & & & & & [ 6 , , , ",
", , , , , / : < & & & & & & [ 6 , , , ",
", , , , , / : < & & & & & & [ 6 , , , ",
", , , , , , | < & & & & & & [ 6 , , , ",
", , , , , / : < & & & & & & [ 6 , , , ",
", , , , , / : < & & & & & & [ 6 , , , ",
", , , , , / : < & & & & & & [ 6 , , , ",
", , , , , , | ! & & & & & & L 6 , , , ",
", , , , , / 8 9 9 9 9 9 9 b c d , , , ",
", , , , , , , g g g g s g g g , , , , ",
", , , , , , , , , , , , , , , , , , , ",
", , , , , , , , , , , , , , , , , , , ",
", , , , , , , , , , , , , , , , , , , ",
", , , , , , , , , , , , , , , , , , , ",
", , , m p q t o o = q o o = T g , , , ",
", , , t X v v v v v x v x x y z , , , ",
", , , B < & & & & & & & & & * ^ , , , ",
", , , B R & & & & & & & & & [ } , , , ",
", , , B ! & & & & & & & & & [ M , , , ",
", , , J R & & & & & & & & & [ } , , , ",
", , , B ! & & & & & & & & & [ 6 , , , ",
", , , J R & & & & & & & & & [ M , , , ",
"g N P Q ! & & & & & & & & & * T g N N ",
"V V V u & & & & & & & & & & 2 ` V V V ",
"& & & & & & & & & & & & & & 2 & & & & "};
