/* XPM */
static xpm_row_t const I_xpm[] = {
"42 44 11 1",
" 	c None",
".	c #000000",
"+	c #607FB9",
"@	c #FFFFFF",
"#	c #FFFFFA",
"$	c #770604",
"%	c #90652E",
"&	c #984332",
"*	c #4A638F",
"=	c #C5C5C5",
"-	c #763427",
"..........................................",
"..........................................",
"..........................................",
"..........................................",
"..........................................",
"..........................................",
"..........+@@@@@@@@@@@@@@#$...............",
"..........+@@@@@@@@@@@@@@#$...............",
"..........+@@@@@@@@@@@@@@#$...............",
"..........+@@@@@@@@@@@@@@#$...............",
"..........+@@@@@@@@@@@@@@#$...............",
"..........+@@@@@@@@@@@@@@#$...............",
"..........+@@@@@@@@@@@@@@#$...............",
"..........+@@@@@@@@@@@@@@#$...............",
"..........+@@@@@@@@@@@@@@#$...............",
"..........+@@@@@@@@@@@%...................",
"..........+@@@@@@@@@@@%...................",
"..........+@@@@@@@@@@@%...................",
"..........+@@@@@@@@@@@%...................",
"..........+@@@@@@@@@@@%...................",
"..........+@@@@@@@@@@@%...................",
"..........+@@@@@@@@@@@%...................",
"..........+@@@@@@@@@@@%...................",
"..........+@@@@@@@@@@@%...................",
"..........+@@@@@@@&.......................",
"..........+@@@@@@@&.......................",
"..........+@@@@@@@&.......................",
"..........+@@@@@@@&.......................",
"..........+@@@@@@@&.......................",
"..........+@@@@@@@&.......................",
"..........+@@@@@@@&.......................",
"..........+@@@@@@@&.......................",
"..........*=======-.......................",
"..........................................",
"..........................................",
"..........................................",
"..........................................",
"..........................................",
"..........................................",
"..........................................",
"..........................................",
"..........................................",
"..........................................",
".........................................."};
