/* XPM */
static xpm_row_t const J_xpm[] = {
"42 44 84 1",
" 	c None",
".	c #000000",
"+	c #0A0A0A",
"@	c #3F3F40",
"#	c #404040",
"$	c #1F0C09",
"%	c #252526",
"&	c #E0E1E2",
"*	c #E2E2E2",
"=	c #6D2A20",
"-	c #2A2A2B",
";	c #FCFDFE",
">	c #FFFFFF",
",	c #7A2F24",
"'	c #272728",
")	c #EBECED",
"!	c #EDEDED",
"~	c #F0F0F6",
"{	c #0C0C0C",
"]	c #4A4B4B",
"^	c #4B4B4B",
"/	c #6969A7",
"(	c #FDFFFF",
"_	c #2A2B83",
":	c #FCFFFF",
"<	c #010203",
"[	c #282B2E",
"}	c #4A4946",
"|	c #221F17",
"1	c #030609",
"2	c #7F8992",
"3	c #E9E6DE",
"4	c #6B6148",
"5	c #03070A",
"6	c #89939C",
"7	c #FBF7EE",
"8	c #72674D",
"9	c #000003",
"0	c #2B343C",
"a	c #656969",
"b	c #6A6C6E",
"c	c #BAC0C5",
"d	c #FCFAF5",
"e	c #ACA596",
"f	c #696969",
"g	c #65605B",
"h	c #291D0D",
"i	c #121212",
"j	c #686868",
"k	c #8181B6",
"l	c #000006",
"m	c #697F92",
"n	c #F8FFFF",
"o	c #F5EBDF",
"p	c #634520",
"q	c #000005",
"r	c #526371",
"s	c #BFC5C5",
"t	c #C6C7C7",
"u	c #E4E7E9",
"v	c #F8F0E6",
"w	c #866F52",
"x	c #3A3A3A",
"y	c #5A5A5A",
"z	c #FDFEFF",
"A	c #F0E5D8",
"B	c #C5C5C5",
"C	c #5F251C",
"D	c #BF8E53",
"E	c #838D95",
"F	c #F3F3F3",
"G	c #F3F3F4",
"H	c #FAFAFC",
"I	c #FDFDFB",
"J	c #B6884F",
"K	c #060818",
"L	c #9197C6",
"M	c #D6D4A3",
"N	c #050000",
"O	c #03050E",
"P	c #535671",
"Q	c #909090",
"R	c #79785D",
"S	c #030000",
"..........................................",
"..........................................",
"..........................................",
"..........................................",
"..........................................",
".....................+@#######$...........",
".....................%&*******=...........",
".....................-;>>>>>>>,...........",
".....................-;>>>>>>>,...........",
".....................-;>>>>>>>,...........",
".....................-;>>>>>>>,...........",
".....................')!~>>>>>,...........",
".....................{]^/(>>>>,...........",
"........................_:>>>>,...........",
"........................_:>>>>,...........",
"........................_:>>>>,...........",
"........................_:>>>>,...........",
"........................_:>>>>,...........",
"........................_:>>>>,...........",
"........................_:>>>>,...........",
".........<[^}|.........._:>>>>,...........",
".........12!34.........._:>>>>,...........",
".........56>78.........._:>>>>,...........",
"......90abc>defgh....ijfk(>>>>,...........",
"......lmn>>>>>>op....-;>>>>>>>,...........",
"......lmn>>>>>>op....-;>>>>>>>,...........",
"......qrstu>>>>vwxxxxyz>>>>ABBC...........",
".........56>>>>>>>>>>>>>>>>D..............",
".........56>>>>>>>>>>>>>>>>D..............",
".........1EFGH>>>>>>>>>>IFFJ..............",
"............KL>>>>>>>>>>MN................",
"............KL>>>>>>>>>>MN................",
"............OPQQQQQQQQQQRS................",
"..........................................",
"..........................................",
"..........................................",
"..........................................",
"..........................................",
"..........................................",
"..........................................",
"..........................................",
"..........................................",
"..........................................",
".........................................."};
