/* XPM */
static xpm_row_t const J_lil_xpm[] = {
"19 28 120 2",
"  	c None",
". 	c #000000",
"+ 	c #0E0E0E",
"@ 	c #39393A",
"# 	c #373737",
"$ 	c #020202",
"% 	c #3A3A3B",
"& 	c #DEDEDF",
"* 	c #D5D5D5",
"= 	c #D6D7D7",
"- 	c #030303",
"; 	c #454546",
"> 	c #FFFFFF",
", 	c #FEFEFE",
"' 	c #464647",
") 	c #020203",
"! 	c #404041",
"~ 	c #F4F5F6",
"{ 	c #ECECEC",
"] 	c #F1F1F7",
"^ 	c #010101",
"/ 	c #161616",
"( 	c #545554",
"_ 	c #53535A",
": 	c #7E7FB7",
"< 	c #050504",
"[ 	c #070711",
"} 	c #434497",
"| 	c #02020C",
"1 	c #414296",
"2 	c #02020D",
"3 	c #424397",
"4 	c #030302",
"5 	c #3A3C3F",
"6 	c #5B5B5A",
"7 	c #504E49",
"8 	c #1E1C14",
"9 	c #99A2AA",
"0 	c #F5F4F3",
"a 	c #D4D0C4",
"b 	c #504730",
"c 	c #01010C",
"d 	c #3F4196",
"e 	c #AAB3BB",
"f 	c #E8E4D7",
"g 	c #5C533D",
"h 	c #000102",
"i 	c #070606",
"j 	c #020200",
"k 	c #070706",
"l 	c #0A0A14",
"m 	c #47489A",
"n 	c #D2D7DA",
"o 	c #F2EFE8",
"p 	c #A7A297",
"q 	c #777777",
"r 	c #6B645B",
"s 	c #241808",
"t 	c #222222",
"u 	c #7E7F7F",
"v 	c #7C7C81",
"w 	c #9C9CC9",
"x 	c #FBFCFC",
"y 	c #FEFEFD",
"z 	c #F8F8F7",
"A 	c #F6F5F4",
"B 	c #E0D1C0",
"C 	c #4A300E",
"D 	c #424243",
"E 	c #F4F4F5",
"F 	c #F7F7FB",
"G 	c #E2D4C3",
"H 	c #4C3110",
"I 	c #FFFFFE",
"J 	c #E0E4E7",
"K 	c #EBE2D6",
"L 	c #897862",
"M 	c #555758",
"N 	c #595959",
"O 	c #5B5B5B",
"P 	c #858585",
"Q 	c #FDFCFA",
"R 	c #E2D1BE",
"S 	c #A3A4A5",
"T 	c #A7AFB8",
"U 	c #FDFCFB",
"V 	c #F5F3F1",
"W 	c #F0F0F0",
"X 	c #F4F4F4",
"Y 	c #FAF5EF",
"Z 	c #AC7D45",
"` 	c #06090B",
" .	c #ABB4BC",
"..	c #FFFAF3",
"+.	c #B07F44",
"@.	c #81888D",
"#.	c #C9C9C9",
"$.	c #CACBD1",
"%.	c #ECEDF6",
"&.	c #FFFEFD",
"*.	c #F0EFE5",
"=.	c #C3C2C3",
"-.	c #C0BDB8",
";.	c #836034",
">.	c #0C0D0D",
",.	c #101011",
"'.	c #262736",
").	c #AFB4DE",
"!.	c #FEFEF8",
"~.	c #C4C293",
"{.	c #08080B",
"].	c #121211",
"^.	c #0C0905",
"/.	c #171A2F",
"(.	c #A0A5CD",
"_.	c #F6F6F3",
":.	c #EFEFEF",
"<.	c #EDEDE7",
"[.	c #B2AF83",
"}.	c #000000",
". . . . . . . . . . . . . . . . . . . ",
". . . . . . . . . . . . 5 # # # # # # ",
". . . . . . . . . . . # J G & & #.& & ",
". . . . . . . . . . . ; > > > > > > > ",
". . . . . . . . . . . ; > > > > > > > ",
". . . . . . . . . . . ; > > > > > > > ",
". . . . . . . . . . . ; > > > > > > > ",
". . . . . . . . . . . ; F :.] > > > > ",
". . . . . . . . . . . ,._ ' : > > > > ",
". . . . . . . . . . . . . 2 } > > > > ",
". . . . . . . . . . . . . . d > > > > ",
". . . . . . . . . . . . . 2 } > > > > ",
". . . . . . . . . . . . . . d > > > > ",
". . . . . . . . . . . . . 2 } > > > > ",
". . . . . . . . . . . . . 2 d > > > > ",
". . . . . . . . . . . . . 2 } > > > > ",
"; ( 7 ,.. . . . . . . . . . d > > > > ",
"9 > G b . . . . . . . . . 2 d > > > > ",
"T > *.g . . . . . . . . . 2 } > > > > ",
"& > *.p q r s . . . . t P v w > > > > ",
"F > > > Y K C . . . . 5 > > > > > > > ",
"> > > > > B C . . . . ; > > > > > > > ",
"& > > > > K L ( ( ( ( P > > > > > B S ",
"T > > > > > :.> :.> ] > > > > > Y Z . ",
"T > > > > > > > > > > > > > > > ..Z . ",
"@.#.#.:.> > > > > > > > > > *.-.-.;.. ",
"< 2 /.).> > > > > > > > > > ~.. ,.. . ",
". . /.(.:.:.:.:.:.:.:.:.:.*.[.. . . . "};
