/* XPM */
static xpm_row_t const K_xpm[] = {
"42 44 108 2",
"  	c None",
". 	c #000000",
"+ 	c #00000B",
"@ 	c #384040",
"# 	c #404040",
"$ 	c #3C3937",
"% 	c #19110D",
"& 	c #03070A",
"* 	c #292E31",
"= 	c #3E3D3D",
"- 	c #201611",
"; 	c #000028",
"> 	c #C7E2E2",
", 	c #E2E2E2",
"' 	c #D5CAC4",
") 	c #5A3E2E",
"! 	c #0B1923",
"~ 	c #93A2AF",
"{ 	c #DEDAD8",
"] 	c #714E3B",
"^ 	c #00002E",
"/ 	c #E0FFFF",
"( 	c #FFFFFF",
"_ 	c #F0E3DD",
": 	c #654534",
"< 	c #0D1C28",
"[ 	c #A6B7C5",
"} 	c #FAF6F4",
"| 	c #805842",
"1 	c #000006",
"2 	c #202425",
"3 	c #282828",
"4 	c #333F4A",
"5 	c #B4C2CE",
"6 	c #FBF7F6",
"7 	c #947260",
"8 	c #110C06",
"9 	c #00001E",
"0 	c #9DB3B8",
"a 	c #CACACA",
"b 	c #CDD0D3",
"c 	c #EDF0F3",
"d 	c #FEFDFD",
"e 	c #E5DDD8",
"f 	c #573C1C",
"g 	c #000025",
"h 	c #C5E1E8",
"i 	c #6D4C23",
"j 	c #181D21",
"k 	c #232323",
"l 	c #232343",
"m 	c #CDE5EB",
"n 	c #FFFEFE",
"o 	c #F6F3F2",
"p 	c #EDEDED",
"q 	c #664721",
"r 	c #B2D5F2",
"s 	c #FCF9F7",
"t 	c #A5897A",
"u 	c #4B4B4B",
"v 	c #20160A",
"w 	c #F9EDDE",
"x 	c #615342",
"y 	c #FFFFEA",
"z 	c #511E1A",
"A 	c #FFFFF0",
"B 	c #84605D",
"C 	c #494641",
"D 	c #1D1913",
"E 	c #FFFFFE",
"F 	c #F3EFEF",
"G 	c #E8DDCF",
"H 	c #5B4E3E",
"I 	c #FCF9F8",
"J 	c #DFD9D5",
"K 	c #EFF6FC",
"L 	c #FCF4EC",
"M 	c #A1998F",
"N 	c #696969",
"O 	c #676564",
"P 	c #35241B",
"Q 	c #F2E8E2",
"R 	c #7E6354",
"S 	c #BEDCF4",
"T 	c #8AA5BB",
"U 	c #C5C5C5",
"V 	c #C5C5CE",
"W 	c #F2F8FA",
"X 	c #FBF8F6",
"Y 	c #9D7E6D",
"Z 	c #3A3A3A",
"` 	c #191108",
" .	c #000024",
"..	c #BBD6DD",
"+.	c #F3F3F3",
"@.	c #F4F4F5",
"#.	c #FBFCFC",
"$.	c #F9F7F6",
"%.	c #684821",
"&.	c #00001A",
"*.	c #809090",
"=.	c #909090",
"-.	c #88817D",
";.	c #3A281E",
">.	c #071016",
",.	c #5E6870",
"'.	c #8E8C8A",
").	c #493226",
". . . . . . . . . . . . . . . . . . . . . . . . . . . . . . . . . . . . . . . . . . ",
". . . . . . . . . . . . . . . . . . . . . . . . . . . . . . . . . . . . . . . . . . ",
". . . . . . . . . . . . . . . . . . . . . . . . . . . . . . . . . . . . . . . . . . ",
". . . . . . . . . . . . . . . . . . . . . . . . . . . . . . . . . . . . . . . . . . ",
". . . . . . . . . . . . . . . . . . . . . . . . . . . . . . . . . . . . . . . . . . ",
". . . . . . . + @ # # # # $ % . . . . . . . & * # = - . . . . . . . . . . . . . . . ",
". . . . . . . ; > , , , , ' ) . . . . . . . ! ~ , { ] . . . . . . . . . . . . . . . ",
". . . . . . . ^ / ( ( ( ( _ : . . . . . . . < [ ( } | . . . . . . . . . . . . . . . ",
". . . . . . . ^ / ( ( ( ( _ : . . . . 1 2 3 4 5 ( 6 7 3 3 8 . . . . . . . . . . . . ",
". . . . . . . ^ / ( ( ( ( _ : . . . . 9 0 a b c ( d e a a f . . . . . . . . . . . . ",
". . . . . . . ^ / ( ( ( ( _ : . . . . g h ( ( ( ( ( ( ( ( i . . . . . . . . . . . . ",
". . . . . . . ^ / ( ( ( ( _ : . . j k l m ( ( ( ( n o p p q . . . . . . . . . . . . ",
". . . . . . . ^ / ( ( ( ( _ : . . r ( ( ( ( ( ( ( s t u u v . . . . . . . . . . . . ",
". . . . . . . ^ / ( ( ( ( _ : . . r ( ( ( ( ( ( ( } | . . . . . . . . . . . . . . . ",
". . . . . . . ^ / ( ( ( ( _ : . . r ( ( ( ( ( ( ( } | . . . . . . . . . . . . . . . ",
". . . . . . . ^ / ( ( ( ( ( ( ( ( ( ( ( ( ( w x . . . . . . . . . . . . . . . . . . ",
". . . . . . . ^ / ( ( ( ( ( ( ( ( ( ( ( ( ( w x . . . . . . . . . . . . . . . . . . ",
". . . . . . . ^ / ( ( ( ( ( ( ( ( ( ( ( ( ( w x . . . . . . . . . . . . . . . . . . ",
". . . . . . . ^ / ( ( ( ( ( ( ( ( ( ( y z . . . . . . . . . . . . . . . . . . . . . ",
". . . . . . . ^ / ( ( ( ( ( ( ( ( ( ( y z . . . . . . . . . . . . . . . . . . . . . ",
". . . . . . . ^ / ( ( ( ( ( ( ( ( ( ( A B u C D . . . . . . . . . . . . . . . . . . ",
". . . . . . . ^ / ( ( ( ( ( ( ( ( ( ( E F p G H . . . . . . . . . . . . . . . . . . ",
". . . . . . . ^ / ( ( ( ( ( ( ( ( ( ( ( ( ( w x . . . . . . . . . . . . . . . . . . ",
". . . . . . . ^ / ( ( ( ( I J a a K ( ( ( ( L M N O P . . . . . . . . . . . . . . . ",
". . . . . . . ^ / ( ( ( ( Q R 3 3 S ( ( ( ( ( ( ( } | . . . . . . . . . . . . . . . ",
". . . . . . . ^ / ( ( ( ( _ : . . r ( ( ( ( ( ( ( } | . . . . . . . . . . . . . . . ",
". . . . . . . ^ / ( ( ( ( _ : . . T U V W ( ( ( ( X Y Z Z ` . . . . . . . . . . . . ",
". . . . . . . ^ / ( ( ( ( _ : . . . . g h ( ( ( ( ( ( ( ( i . . . . . . . . . . . . ",
". . . . . . . ^ / ( ( ( ( _ : . . . . g h ( ( ( ( ( ( ( ( i . . . . . . . . . . . . ",
". . . . . . . ^ / ( ( ( ( _ : . . . .  ...+.@.#.( n $.+.+.%.. . . . . . . . . . . . ",
". . . . . . . ^ / ( ( ( ( _ : . . . . . . . < [ ( } | . . . . . . . . . . . . . . . ",
". . . . . . . ^ / ( ( ( ( _ : . . . . . . . < [ ( } | . . . . . . . . . . . . . . . ",
". . . . . . . &.*.=.=.=.=.-.;.. . . . . . . >.,.=.'.).. . . . . . . . . . . . . . . ",
". . . . . . . . . . . . . . . . . . . . . . . . . . . . . . . . . . . . . . . . . . ",
". . . . . . . . . . . . . . . . . . . . . . . . . . . . . . . . . . . . . . . . . . ",
". . . . . . . . . . . . . . . . . . . . . . . . . . . . . . . . . . . . . . . . . . ",
". . . . . . . . . . . . . . . . . . . . . . . . . . . . . . . . . . . . . . . . . . ",
". . . . . . . . . . . . . . . . . . . . . . . . . . . . . . . . . . . . . . . . . . ",
". . . . . . . . . . . . . . . . . . . . . . . . . . . . . . . . . . . . . . . . . . ",
". . . . . . . . . . . . . . . . . . . . . . . . . . . . . . . . . . . . . . . . . . ",
". . . . . . . . . . . . . . . . . . . . . . . . . . . . . . . . . . . . . . . . . . ",
". . . . . . . . . . . . . . . . . . . . . . . . . . . . . . . . . . . . . . . . . . ",
". . . . . . . . . . . . . . . . . . . . . . . . . . . . . . . . . . . . . . . . . . ",
". . . . . . . . . . . . . . . . . . . . . . . . . . . . . . . . . . . . . . . . . . "};
