/* XPM */
static xpm_row_t const K_lil_xpm[] = {
"19 29 171 2",
"  	c None",
". 	c #000000",
"+ 	c #010101",
"@ 	c #0C0E18",
"# 	c #404746",
"$ 	c #434343",
"% 	c #434242",
"& 	c #383431",
"* 	c #130C08",
"= 	c #000001",
"- 	c #080D10",
"; 	c #303537",
"> 	c #444444",
", 	c #3D3B3A",
"' 	c #292F51",
") 	c #DBF2F0",
"! 	c #E4E2E2",
"~ 	c #E2E2E2",
"{ 	c #E3E3E3",
"] 	c #E3E1E0",
"^ 	c #C1B1A9",
"/ 	c #432A1C",
"( 	c #000203",
"_ 	c #1C2B36",
": 	c #A5B2BE",
"< 	c #E8E7E6",
"[ 	c #D3CBC7",
"} 	c #2E355C",
"| 	c #F6FFFF",
"1 	c #FFFFFF",
"2 	c #FFFDFC",
"3 	c #D8C6BE",
"4 	c #4B2F20",
"5 	c #000103",
"6 	c #20303D",
"7 	c #BAC9D5",
"8 	c #EDE5E0",
"9 	c #D8C7BE",
"0 	c #04050A",
"a 	c #202324",
"b 	c #252628",
"c 	c #404D5A",
"d 	c #C4D0DB",
"e 	c #F0E8E5",
"f 	c #000002",
"g 	c #151834",
"h 	c #A8BCBE",
"i 	c #C7C6C6",
"j 	c #CCD0D3",
"k 	c #F0F3F5",
"l 	c #FBF9F8",
"m 	c #1A1E41",
"n 	c #D7F1F5",
"o 	c #FDFDFE",
"p 	c #030304",
"q 	c #131719",
"r 	c #17161C",
"s 	c #323555",
"t 	c #DDF4F8",
"u 	c #FFFDFE",
"v 	c #191F23",
"w 	c #BDDBF4",
"x 	c #F4F2F1",
"y 	c #F2F2F4",
"z 	c #FDFEFF",
"A 	c #F4EEEB",
"B 	c #1B2126",
"C 	c #CAEAFF",
"D 	c #EEE6E1",
"E 	c #D6C4BB",
"F 	c #412414",
"G 	c #0F151A",
"H 	c #C6E8FF",
"I 	c #FAF1EC",
"J 	c #EAE7E5",
"K 	c #E1E1E1",
"L 	c #E5E6E6",
"M 	c #F9FCFF",
"N 	c #FFFFFD",
"O 	c #EADECF",
"P 	c #615648",
"Q 	c #18191A",
"R 	c #1B1A1A",
"S 	c #E6D9C9",
"T 	c #4A3D2E",
"U 	c #F5E7D6",
"V 	c #514434",
"W 	c #EBE5D4",
"X 	c #5B3432",
"Y 	c #262828",
"Z 	c #262421",
"` 	c #0D0A08",
" .	c #E7DECA",
"..	c #330200",
"+.	c #ECE6D5",
"@.	c #603A38",
"#.	c #2D2F2F",
"$.	c #2C2A26",
"%.	c #0F0D09",
"&.	c #FAF8F5",
"*.	c #D6CCCC",
"=.	c #CAC9C7",
"-.	c #B7ADA0",
";.	c #3D3327",
">.	c #E7D9C8",
",.	c #473B2B",
"'.	c #ECE9E7",
").	c #E7E7E8",
"!.	c #FFFFFE",
"~.	c #EEE3D8",
"{.	c #7A7166",
"].	c #3F3F40",
"^.	c #3E3B3A",
"/.	c #FFFEFD",
"(.	c #E6DAD4",
"_.	c #89776D",
":.	c #515252",
"<.	c #696D70",
"[.	c #DCF1FF",
"}.	c #FBF9F7",
"|.	c #E3E2DF",
"1.	c #D8D8D8",
"2.	c #C9C2BE",
"3.	c #D9C8BF",
"4.	c #4F3425",
"5.	c #20262B",
"6.	c #CEEEFF",
"7.	c #F3EAE5",
"8.	c #4A2E1F",
"9.	c #171C21",
"0.	c #B6D3EA",
"a.	c #EAE8E7",
"b.	c #E9E9ED",
"c.	c #FBFEFE",
"d.	c #EFE7E3",
"e.	c #07080A",
"f.	c #343D43",
"g.	c #414044",
"h.	c #565974",
"i.	c #E3F6F9",
"j.	c #FAF8F7",
"k.	c #13173C",
"l.	c #D8F3F8",
"m.	c #000003",
"n.	c #1C2046",
"o.	c #E1FCFF",
"p.	c #0B0C1B",
"q.	c #555F61",
"r.	c #666667",
"s.	c #78828A",
"t.	c #D5DEE6",
"u.	c #F5EFEC",
"v.	c #2F365F",
"w.	c #FDFFFF",
"x.	c #DFCCC4",
"y.	c #4D3021",
"z.	c #152735",
"A.	c #BCCCD9",
"B.	c #F4EAE5",
"C.	c #252A4A",
"D.	c #C6DBD8",
"E.	c #CECDCD",
"F.	c #CDCDCD",
"G.	c #CDCBCA",
"H.	c #AEA099",
"I.	c #3D261A",
"J.	c #192731",
"K.	c #95A2AC",
"L.	c #D1D1D0",
"M.	c #BFB8B4",
"N.	c #000000",
". . . . . . . . . . . . . . . . . . . ",
"0 > > > > > ; ` . . . . . . . 0 ; > ; ",
"' ) ) D t.D ^ F . . . . . . . z.h A *.",
"' 1 1 1 1 1 3.F . . . . . . . 6 A.1 D ",
"' 1 1 1 1 1 3.4.. . . . . a a c A.1 A ",
"' 1 1 1 1 1 3.F . . . . g h F.d I 1 1 ",
"' | 1 1 1 1 3.4 . . . . g [.1 1 1 1 1 ",
"v.1 1 1 1 1 3.F . . @ G s o.1 1 1 1 1 ",
"' | 1 1 1 1 3.4.. 9.w 1 l 1 1 1 1 1 I ",
"' 1 1 1 1 1 E F . a 6.1 1 1 1 1 1 1 ~.",
"' | 1 1 1 1 3.F . 0 6.1 1 1 1 1 1 1 I ",
"' 1 1 1 1 1 1 A t.A 1 1 1 1 1 O V @ @ ",
"' | 1 1 1 1 1 1 1 1 1 1 1 1 1 O V . . ",
"v.1 1 1 1 1 1 1 1 1 1 1 1 1 1 O V . . ",
"' | 1 1 1 1 1 1 1 1 1 1 ~.y.a a . . . ",
"' 1 1 1 1 1 1 1 1 1 1 1 O ... . . . . ",
"' | 1 1 1 1 1 1 1 1 1 1 D X ;.$.` . . ",
"' 1 1 1 1 1 1 1 1 1 1 1 &.*.F.-.;.. . ",
"' | 1 1 1 1 1 1 1 1 1 1 1 1 1 O 4 . . ",
"v.| 1 1 1 1 A A K K 1 1 1 1 1 D {., ; ",
"' | 1 1 1 1 K _.> r.6.1 1 1 1 &.|.K 2.",
"' 1 1 1 1 1 E F . a 6.1 1 1 1 1 1 1 I ",
"' | 1 1 1 1 3.4 . G 0.~.) 1 1 1 1 1 D ",
"' 1 1 1 1 1 3.F . 0 f.f.h.k 1 1 1 1 1 ",
"' | 1 1 1 1 3.4 . . . . g 6.1 1 1 1 1 ",
"v.| 1 1 1 1 3.F . . . . k.| 1 1 1 1 1 ",
"' | 1 1 1 1 3.4 . . . . p.c q.s.D.1 I ",
"v.1 1 1 1 1 3.4 . . . . . . . z.A.1 A ",
"m D.F.F.F.F.H.I.. . . . . . . z.K.F.M."};
