/* XPM */
static xpm_row_t const L_xpm[] = {
"42 44 39 1",
" 	c None",
".	c #000000",
"+	c #010206",
"@	c #242631",
"#	c #404040",
"$	c #3A3534",
"%	c #0E0000",
"&	c #050715",
"*	c #8186B0",
"=	c #E2E2E2",
"-	c #CDBCB9",
";	c #310000",
">	c #060818",
",	c #9197C6",
"'	c #FFFFFF",
")	c #E7D4D1",
"!	c #370000",
"~	c #03070A",
"{	c #89939C",
"]	c #F5EBDF",
"^	c #634520",
"/	c #000003",
"(	c #2B343C",
"_	c #656969",
":	c #6A6C6E",
"<	c #BAC0C5",
"[	c #000006",
"}	c #697F92",
"|	c #F8FFFF",
"1	c #F8F0E6",
"2	c #866F52",
"3	c #3A3A3A",
"4	c #1C0B08",
"5	c #7A2F24",
"6	c #000004",
"7	c #3C4853",
"8	c #8C9090",
"9	c #909090",
"0	c #451B14",
"..........................................",
"..........................................",
"..........................................",
"..........................................",
"..........................................",
"............+@####$%......................",
"............&*====-;......................",
"............>,'''')!......................",
"............>,'''')!......................",
"............>,'''')!......................",
"............>,'''')!......................",
"............>,'''')!......................",
"............>,'''')!......................",
"............>,'''')!......................",
"............>,'''')!......................",
".........~{''''''')!......................",
".........~{''''''')!......................",
".........~{''''''')!......................",
".........~{'''']^.........................",
".........~{'''']^.........................",
".........~{'''']^.........................",
".........~{'''']^.........................",
".........~{'''']^.........................",
"....../(_:<'''']^.........................",
"......[}|'''''']^.........................",
"......[}|'''''']^.........................",
"......[}|''''''1233333333333334...........",
"......[}|'''''''''''''''''''''5...........",
"......[}|'''''''''''''''''''''5...........",
"......[}|'''''''''''''''''''''5...........",
"......[}|'''''''''''''''''''''5...........",
"......[}|'''''''''''''''''''''5...........",
"......6789999999999999999999990...........",
"..........................................",
"..........................................",
"..........................................",
"..........................................",
"..........................................",
"..........................................",
"..........................................",
"..........................................",
"..........................................",
"..........................................",
".........................................."};
