/* XPM */
static xpm_row_t const L_lil_xpm[] = {
"19 28 96 2",
"  	c None",
". 	c #000000",
"+ 	c #010101",
"@ 	c #010102",
"# 	c #0C0E13",
"$ 	c #252528",
"% 	c #2A2A29",
"& 	c #292929",
"* 	c #282828",
"= 	c #1F1919",
"- 	c #040000",
"; 	c #040508",
"> 	c #414560",
", 	c #B6B8C6",
"' 	c #CFCECB",
") 	c #C9C9C9",
"! 	c #C7C5C5",
"~ 	c #97817F",
"{ 	c #130000",
"] 	c #06060B",
"^ 	c #54597C",
"/ 	c #E9EBFE",
"( 	c #FFFFFF",
"_ 	c #FEFBFB",
": 	c #C2A6A3",
"< 	c #190000",
"[ 	c #53587A",
"} 	c #E7EAFC",
"| 	c #FCF9F9",
"1 	c #C0A4A1",
"2 	c #05060A",
"3 	c #525779",
"4 	c #E7E9FC",
"5 	c #060606",
"6 	c #0F0F13",
"7 	c #55587B",
"8 	c #000001",
"9 	c #1E2226",
"0 	c #ABB2B8",
"a 	c #F6F5F5",
"b 	c #F3F3F6",
"c 	c #FDFDFF",
"d 	c #FCFAF9",
"e 	c #C0A4A2",
"f 	c #202629",
"g 	c #BAC1C7",
"h 	c #FEFEFE",
"i 	c #FBF8F8",
"j 	c #C4A7A6",
"k 	c #202429",
"l 	c #B7BFC6",
"m 	c #FBF9F6",
"n 	c #D8D2C9",
"o 	c #BAB8B7",
"p 	c #8D7977",
"q 	c #120000",
"r 	c #EFE5D9",
"s 	c #5F4321",
"t 	c #F1E7DC",
"u 	c #695031",
"v 	c #1F2429",
"w 	c #F0E7DC",
"x 	c #695030",
"y 	c #030404",
"z 	c #B8C0C6",
"A 	c #676C6C",
"B 	c #7F8183",
"C 	c #D6DADE",
"D 	c #FCFFFF",
"E 	c #684F2E",
"F 	c #F9FFFF",
"G 	c #F1E8DD",
"H 	c #6F5637",
"I 	c #060504",
"J 	c #080809",
"K 	c #090909",
"L 	c #F8F5EF",
"M 	c #BBB0A2",
"N 	c #8C8B8B",
"O 	c #8D8D8D",
"P 	c #8E8E8E",
"Q 	c #8F8F8E",
"R 	c #FFFDFC",
"S 	c #FDF9F9",
"T 	c #FAFFFF",
"U 	c #FDFAF9",
"V 	c #F4FBFC",
"W 	c #FBFBFA",
"X 	c #F9F9F9",
"Y 	c #FAFAFA",
"Z 	c #F8F4F4",
"` 	c #777A7A",
" .	c #7A7A7A",
"..	c #797979",
"+.	c #797A7A",
"@.	c #000000",
". . . . . . . . . . . . . . . . . . . ",
". . . . . . . . . . . . . . . . . . . ",
". . . . 6 9 * 9 9 = . . . . . . . . . ",
". . . . > g n ' ' p q . . . . . . . . ",
". . . ] 3 / ( ( ( j q . . . . . . . . ",
". . . . ^ / ( ( ( 1 q . . . . . . . . ",
". . . ] 3 / ( ( ( : q . . . . . . . . ",
". . . . ^ / ( ( L 1 q . . . . . . . . ",
". . . ] 3 / ( ( ( : < . . . . . . . . ",
". . . . 3 / ( ( S 1 q . . . . . . . . ",
". . . ] 3 / ( ( ( : q . . . . . . . . ",
". 9 g ( S ( ( ( L 1 q . . . . . . . . ",
". 6 g ( ( ( ( ( ( j < . . . . . . . . ",
". k g ( ( ( L n M p q . . . . . . . . ",
". 9 g ( ( ( r s . . . . . . . . . . . ",
". 9 g ( ( ( r E . . . . . . . . . . . ",
". 9 , ( ( ( G E . . . . . . . . . . . ",
". 9 g ( ( ( r E . . . . . . . . . . . ",
"A B C ( ( ( G E . . . . . . . . . . . ",
"( ( ( ( ( ( G s . . . . . . . . . . . ",
"( ( ( ( ( ( L H . ] . . . . . . . . . ",
"( ( ( ( ( ( L M N Q Q Q Q Q Q Q Q Q Q ",
"V ( ( ( ( ( ( ( ( ( ( ( ( ( ( ( ( ( ( ",
"( ( ( ( ( ( ( ( ( ( ( ( ( ( ( ( ( ( ( ",
"( ( ( ( ( ( ( ( ( ( ( ( ( ( ( ( ( ( ( ",
"V ( V ( b ( b ( ( ( ( ( ( ( ( ( ( ( L ",
"....A ....A ....A ..A ..A ..A ..A ....",
". . . . . . . . . . . . . . . . . . . "};
