/* XPM */
static xpm_row_t const L_xpm[] = {
"36 36 99 2",
"  	c None",
". 	c #000000",
"+ 	c #000001",
"@ 	c #050607",
"# 	c #0A0A0A",
"$ 	c #070505",
"% 	c #010000",
"& 	c #020309",
"* 	c #44475B",
"= 	c #787878",
"- 	c #797979",
"; 	c #797777",
"> 	c #4F3C3B",
", 	c #080000",
"' 	c #050714",
") 	c #8D91BD",
"! 	c #F9F9F9",
"~ 	c #FAFAFA",
"{ 	c #FAF7F6",
"] 	c #A27D7B",
"^ 	c #110000",
"/ 	c #050715",
"( 	c #9196C3",
"_ 	c #FFFFFF",
": 	c #FFFFFE",
"< 	c #A6817F",
"[ 	c #9095C2",
"} 	c #FFFDFC",
"| 	c #A5807E",
"1 	c #00000E",
"2 	c #8D92C0",
"3 	c #5D656C",
"4 	c #DDDFE0",
"5 	c #EBEBEC",
"6 	c #F6F6FA",
"7 	c #666F77",
"8 	c #F3F5F6",
"9 	c #FFFEFD",
"0 	c #656E76",
"a 	c #F1F3F4",
"b 	c #FDFDFC",
"c 	c #F5F3F2",
"d 	c #F1EFEE",
"e 	c #9C7977",
"f 	c #100000",
"g 	c #E1D3C2",
"h 	c #432A0C",
"i 	c #E2D4C3",
"j 	c #462E10",
"k 	c #626B73",
"l 	c #050608",
"m 	c #161718",
"n 	c #1B1C1C",
"o 	c #767E85",
"p 	c #F3F4F5",
"q 	c #1E2732",
"r 	c #879197",
"s 	c #ADAFAF",
"t 	c #CFD1D4",
"u 	c #FBFBFC",
"v 	c #2F3B4B",
"w 	c #CEDCE6",
"x 	c #E2D3C2",
"y 	c #432B0C",
"z 	c #2D3948",
"A 	c #C6D4DD",
"B 	c #E4D7C7",
"C 	c #543D21",
"D 	c #101112",
"E 	c #131313",
"F 	c #121010",
"G 	c #060201",
"H 	c #F7F3EE",
"I 	c #CCC6BD",
"J 	c #B7B8B9",
"K 	c #B9B9B9",
"L 	c #BABABA",
"M 	c #AB9F9E",
"N 	c #3C110B",
"O 	c #F4E3E1",
"P 	c #561810",
"Q 	c #EBDBD9",
"R 	c #53170F",
"S 	c #2E3A49",
"T 	c #C8D6E0",
"U 	c #EEDEDC",
"V 	c #54170F",
"W 	c #1B232B",
"X 	c #777F84",
"Y 	c #9B9C9B",
"Z 	c #989898",
"` 	c #9A9B9B",
" .	c #8D8381",
"..	c #320F09",
"+.	c #010101",
"@.	c #030303",
"#.	c #040404",
"$.	c #040303",
"%.	c #000000",
". . . . . . . . . . . . . . . . . . . . . . . . . . . . . . . . . . . . ",
". . . . . . . . . . . . . . . . . . . . . . . . . . . . . . . . . . . . ",
". . . . . . . . . . . . . . . . . . . . . . . . . . . . . . . . . . . . ",
". . . . . . . . . . . . . . . . . . . . . . . . . . . . . . . . . . . . ",
". . . . . . . . . . . . . . D . . . . . . . . . . . . . . . . . . . . . ",
". . . . . . . . . . . . * o = ;  .> . . . . . . . . . . . . . . . . . . ",
". . . . . . . . . . . 1 ) _ _ _ _ ] ^ . . . . . . . . . . . . . . . . . ",
". . . . . . . . . . . 1 ( _ _ _ _ ] ^ . . . . . . . . . . . . . . . . . ",
". . . . . . . . . . . 1 ( _ _ _ _ ] ^ . . . . . . . . . . . . . . . . . ",
". . . . . . . . . . . 1 ( _ _ _ _ ] ^ . . . . . . . . . . . . . . . . . ",
". . . . . . . . . . . 1 ( _ _ _ _ ] ^ . . . . . . . . . . . . . . . . . ",
". . . . . . . . . . . 1 ( _ _ _ _ ] ^ . . . . . . . . . . . . . . . . . ",
". . . . . . . . . . . 1 ( _ _ _ _ ] ^ . . . . . . . . . . . . . . . . . ",
". . . . . . . . . . . 1 ( _ _ _ _ ] ^ . . . . . . . . . . . . . . . . . ",
". . . . . . . . . 3 4 d _ _ _ _ _ ] ^ . . . . . . . . . . . . . . . . . ",
". . . . . . . . . k _ _ _ _ _ _ _ ] ^ . . . . . . . . . . . . . . . . . ",
". . . . . . . . . 3 d _ _ _ _ H H e ^ . . . . . . . . . . . . . . . . . ",
". . . . . . . . . 7 6 _ _ _ g ... . . . . . . . . . . . . . . . . . . . ",
". . . . . . . . . 3 d _ _ _ B y . . . . . . . . . . . . . . . . . . . . ",
". . . . . . . . . 7 6 _ _ _ g y . . . . . . . . . . . . . . . . . . . . ",
". . . . . . . . . 3 d _ _ _ B y . . . . . . . . . . . . . . . . . . . . ",
". . . . . . . D n X 6 _ _ _ g h . . . . . . . . . . . . . . . . . . . . ",
". . . . . . q r s A _ _ _ _ B j . . . . . . . . . . . . . . . . . . . . ",
". . . . . . z 4 _ _ _ _ _ _ g ... . . . . . . . . . . . . . . . . . . . ",
". . . . . . z A _ _ _ _ _ _ U C D D D D D D D D D D D D . . . . . . . . ",
". . . . . . z T _ _ _ _ _ _ H I L L L L L L L L L L L M ... . . . . . . ",
". . . . . . z A _ _ _ _ _ _ _ _ _ _ _ _ _ _ _ _ _ _ _ H V . . . . . . . ",
". . . . . . z T _ _ _ _ _ _ _ _ _ _ _ _ _ _ _ _ _ _ _ U V . . . . . . . ",
". . . . . . z A _ _ _ _ _ _ _ _ _ _ _ _ _ _ _ _ _ _ _ U V . . . . . . . ",
". . . . . . z T _ _ _ _ _ _ _ _ _ _ _ _ _ _ _ _ _ _ _ U V . . . . . . . ",
". . . . . . n = Z Z r Z Z r Z Z Z Z Z Z Z Z Z Z Z Z Z ; ... . . . . . . ",
". . . . . . . . . . . . . . . . . . . . . . . . . . . . . . . . . . . . ",
". . . . . . . . . . . . . . . . . . . . . . . . . . . . . . . . . . . . ",
". . . . . . . . . . . . . . . . . . . . . . . . . . . . . . . . . . . . ",
". . . . . . . . . . . . . . . . . . . . . . . . . . . . . . . . . . . . ",
". . . . . . . . . . . . . . . . . . . . . . . . . . . . . . . . . . . . "};
