/* XPM */
static xpm_row_t const M_xpm[] = {
"42 44 84 1",
" 	c None",
".	c #000000",
"+	c #090E13",
"@	c #404040",
"#	c #3C3935",
"$	c #110C06",
"%	c #000012",
"&	c #3F4040",
"*	c #1C0907",
"=	c #203342",
"-	c #E2E2E2",
";	c #D6CBBD",
">	c #3C2A13",
",	c #00003F",
"'	c #DFE2E2",
")	c #611F18",
"!	c #243A4B",
"~	c #FFFFFF",
"{	c #F1E5D5",
"]	c #443016",
"^	c #000048",
"/	c #FBFFFF",
"(	c #6E231B",
"_	c #B57F7C",
":	c #070000",
"<	c #010102",
"[	c #C9C9C9",
"}	c #D2B1AF",
"|	c #676262",
"1	c #636363",
"2	c #DEDEDE",
"3	c #00000C",
"4	c #5B6969",
"5	c #696969",
"6	c #7E8B95",
"7	c #E9E6DF",
"8	c #CACACA",
"9	c #CFD2D5",
"0	c #F4F9FD",
"a	c #FFFFF7",
"b	c #CCCACA",
"c	c #D7E5F1",
"d	c #AA7E78",
"e	c #636362",
"f	c #0B0803",
"g	c #00001F",
"h	c #DDFFFF",
"i	c #A3967A",
"j	c #282828",
"k	c #3A4752",
"l	c #D0E6F7",
"m	c #FFFFDE",
"n	c #2E2828",
"o	c #5B95C4",
"p	c #F1F0EE",
"q	c #1B1308",
"r	c #928261",
"s	c #152431",
"t	c #C7E1F5",
"u	c #FFFFD8",
"v	c #060000",
"w	c #3B81B9",
"x	c #101D26",
"y	c #9AAEBE",
"z	c #C5C5C5",
"A	c #DBE2E3",
"B	c #FEFFFF",
"C	c #D1D1D1",
"D	c #C5C5A7",
"E	c #050000",
"F	c #000001",
"G	c #627F84",
"H	c #FFFEFE",
"I	c #373636",
"J	c #5D7A7E",
"K	c #EFF3F3",
"L	c #F3F2F2",
"M	c #343333",
"N	c #7E9090",
"O	c #909090",
"P	c #534A37",
"Q	c #22496A",
"R	c #898887",
"S	c #0F0B05",
"..........................................",
"..........................................",
"..........................................",
"..........................................",
"..........................................",
".........+@@@@#$......%&@@@@*.............",
".........=----;>......,'----).............",
".........!~~~~{]......^/~~~~(.............",
".........!~~~~{]......^/~~~~(.............",
".........!~~~~{]......^/~~~~(.............",
".........!~~~~{]......^/~~~~(.............",
".........!~~~~{]......^/~~~~(.............",
".........!~~~~{]......^/~~~~(.............",
".........!~~~~{]......^/~~~~(.............",
".........!~~~~{]......^/~~~~(.............",
".........!~~~~~~~_:<[~~~~~~~(.............",
".........!~~~~~~~_:<[~~~~~~~(.............",
".........!~~~~~~~}|12~~~~~~~(.............",
".........!~~~~~~~~~~~~~~~~~~(.............",
".........!~~~~~~~~~~~~~~~~~~(.............",
".........!~~~~~~~~~~~~~~~~~~(.............",
".........!~~~~~~~~~~~~~~~~~~(.............",
".........!~~~~~~~~~~~~~~~~~~(.............",
"......3456~~7890~~~~~~ab8c~~d5ef..........",
"......gh~~~~ijkl~~~~~~mnjo~~~~pq..........",
"......gh~~~~r.st~~~~~~uv.w~~~~pq..........",
"......gh~~~~r.xyzAB~CzDE.w~~~~pq..........",
"......gh~~~~r...FG/HI....w~~~~pq..........",
"......gh~~~~r...FG/HI....w~~~~pq..........",
"......gh~~~~r...FJKLM....w~~~~pq..........",
"......gh~~~~r............w~~~~pq..........",
"......gh~~~~r............w~~~~pq..........",
"......%NOOOOP............QOOOORS..........",
"..........................................",
"..........................................",
"..........................................",
"..........................................",
"..........................................",
"..........................................",
"..........................................",
"..........................................",
"..........................................",
"..........................................",
".........................................."};
