/* XPM */
static xpm_row_t const M_lil_xpm[] = {
"19 28 166 2",
"  	c None",
". 	c #000000",
"+ 	c #000000",
"@ 	c #000001",
"# 	c #000100",
"$ 	c #010101",
"% 	c #010102",
"& 	c #030303",
"* 	c #030404",
"= 	c #040404",
"- 	c #070707",
"; 	c #0D0B09",
"> 	c #0E1214",
", 	c #101921",
"' 	c #14181A",
") 	c #15120D",
"! 	c #151A1B",
"~ 	c #171616",
"{ 	c #191512",
"] 	c #1A1E21",
"^ 	c #1B1F22",
"/ 	c #1D0C0B",
"( 	c #1E0907",
"_ 	c #201A12",
": 	c #232432",
"< 	c #27323F",
"[ 	c #2D343B",
"} 	c #2D455F",
"| 	c #2E2D2D",
"1 	c #300A06",
"2 	c #31393F",
"3 	c #314C64",
"4 	c #322615",
"5 	c #333941",
"6 	c #333A42",
"7 	c #334F67",
"8 	c #335068",
"9 	c #343530",
"0 	c #34526A",
"a 	c #36110D",
"b 	c #362120",
"c 	c #363837",
"d 	c #37110D",
"e 	c #383020",
"f 	c #3A3939",
"g 	c #3A3B55",
"h 	c #3B2F20",
"i 	c #3C3021",
"j 	c #3C464E",
"k 	c #3E3627",
"l 	c #3E474F",
"m 	c #3E4A52",
"n 	c #3F4A52",
"o 	c #3F5970",
"p 	c #403827",
"q 	c #403928",
"r 	c #404950",
"s 	c #404A52",
"t 	c #413929",
"u 	c #413F3F",
"v 	c #41415B",
"w 	c #42435D",
"x 	c #42435E",
"y 	c #43423D",
"z 	c #454A4C",
"A 	c #455461",
"B 	c #46494A",
"C 	c #49575A",
"D 	c #4C473A",
"E 	c #4F514F",
"F 	c #505252",
"G 	c #545454",
"H 	c #555554",
"I 	c #555555",
"J 	c #565E61",
"K 	c #575553",
"L 	c #5A6669",
"M 	c #6E7275",
"N 	c #6F605F",
"O 	c #706961",
"P 	c #787A82",
"Q 	c #8D9296",
"R 	c #8F7A78",
"S 	c #8F8E8E",
"T 	c #8F9191",
"U 	c #929290",
"V 	c #949493",
"W 	c #978583",
"X 	c #ABA998",
"Y 	c #B1C0CB",
"Z 	c #B7B7B9",
"` 	c #BFBCB9",
" .	c #BFBDBD",
"..	c #BFC8CD",
"+.	c #C0BEBE",
"@.	c #C1BFBB",
"#.	c #C1DAEF",
"$.	c #C2CAD0",
"%.	c #C4AAA7",
"&.	c #C4CCD3",
"*.	c #C4CDD3",
"=.	c #C4E1F7",
"-.	c #C6C3BF",
";.	c #C6E2F9",
">.	c #C7ACA9",
",.	c #C7C1C1",
"'.	c #C7C4BB",
").	c #C7C4C0",
"!.	c #C7C6C5",
"~.	c #C8B1B1",
"{.	c #C8BEAF",
"].	c #C9AFAC",
"^.	c #C9C3B8",
"/.	c #CAAFAC",
"(.	c #CABEAE",
"_.	c #CAD1D7",
":.	c #CBCFD3",
"<.	c #CDC2B3",
"[.	c #CDC3B4",
"}.	c #CDE5F9",
"|.	c #CECCC8",
"1.	c #CECFCF",
"2.	c #CFC9BD",
"3.	c #CFDCE2",
"4.	c #CFDFE4",
"5.	c #D0CABF",
"6.	c #D1CCC0",
"7.	c #D4D4E5",
"8.	c #D4E2EC",
"9.	c #D4E5EB",
"0.	c #D5D0C5",
"a.	c #D5E6EC",
"b.	c #D7D9EA",
"c.	c #D7E5EC",
"d.	c #D9DAEB",
"e.	c #DADBEC",
"f.	c #DDD8D4",
"g.	c #DDDDE3",
"h.	c #DFE3E7",
"i.	c #E2D2D0",
"j.	c #E4EFF0",
"k.	c #EAF6F8",
"l.	c #EBEBEB",
"m.	c #EEEEE9",
"n.	c #EFEEEB",
"o.	c #F0E9E9",
"p.	c #F0F1F1",
"q.	c #F3F6F9",
"r.	c #F6F5F2",
"s.	c #F6F5F7",
"t.	c #F6FEFF",
"u.	c #F7F7FB",
"v.	c #F8F6F3",
"w.	c #FAFAFA",
"x.	c #FBFDFC",
"y.	c #FCFCFD",
"z.	c #FDFCFC",
"A.	c #FDFDFD",
"B.	c #FEFEFC",
"C.	c #FEFEFD",
"D.	c #FEFEFE",
"E.	c #FFFDFA",
"F.	c #FFFEFE",
"G.	c #FFFFFD",
"H.	c #FFFFFE",
"I.	c #FFFFFF",
". . . . . . . . . . . . . . . . . . . ",
". . . . . . . . . . . . . . . . . . . ",
". . . . . . . . . . . . . . . . . . . ",
". . . $ $ $ $ # . . . . @ $ $ $ $ . . ",
". . ^ M V S O _ . . . . : P U T N ( . ",
". . 2 ..I.G.{.h . . . . v 7.B.I.%.a . ",
". . 6 *.I.I.[.i . . . . x e.I.I./.d . ",
". . 5 &.I.I.<.i . . . . w d.I.I.].d . ",
". . 5 &.I.I.<.i . . . . w d.I.I.].d . ",
". . 5 &.I.I.<.i . . . . w d.I.I.].d . ",
". . 5 &.I.I.(.4 . . . . g b.I.I.].d . ",
". . 5 &.I.I.r.f.W / c Z g.u.I.I.].d . ",
". . 5 &.I.I.I.I.~.b F l.I.I.I.I.].d . ",
". . 5 &.I.I.I.I.o.,.1.w.I.I.I.I.].d . ",
". . 5 &.I.I.I.I.D.z.A.I.I.I.I.I.].d . ",
". . 5 &.I.I.I.I.I.I.I.I.I.I.I.I.].d . ",
". . [ $.I.I.I.I.I.I.I.I.I.I.I.I.>.1 . ",
"] J Q h.v.|.:.q.I.I.I.I.n.!._.t.i.R E ",
"l 3.z.I.0.D A 8.I.I.I.I.'.9 o }.H.F.` ",
"n a.I.I.2.e < Y p.x.s.m.X { } =.I.I.).",
"m 9.I.I.5.p . > L j.+.| ; @ 7 =.I.I.-.",
"m 9.I.I.5.q . . C k. .~ . . 8 =.I.I.-.",
"s c.I.I.6.t . . ! B f - . . 0 ;.I.I.).",
"j 4.C.y.^.k . . $ & & . . . 3 #.E.I.@.",
"' z H G y ) . . . . . . . . , r K I u ",
"$ * = = & $ . . . . . . . . % * = = & ",
". . . . . . . . . . . . . . . . . . . ",
". . . . . . . . . . . . . . . . . . . "};
