/* XPM */
static xpm_row_t const M_xpm[] = {
"37 36 147 2",
"  	c None",
". 	c #000000",
"+ 	c #0A0C0E",
"@ 	c #242424",
"# 	c #232323",
"$ 	c #232120",
"% 	c #0D0B08",
"& 	c #000005",
"* 	c #1B1B1E",
"= 	c #1E1A1A",
"- 	c #070100",
"; 	c #000001",
"> 	c #384551",
", 	c #CCCCCB",
"' 	c #C5C5C5",
") 	c #C6C6C7",
"! 	c #C4BEB6",
"~ 	c #4D3F2B",
"{ 	c #010000",
"] 	c #00001B",
"^ 	c #9597A7",
"/ 	c #CBCBC9",
"( 	c #CACCCC",
"_ 	c #A79290",
": 	c #280401",
"< 	c #485A69",
"[ 	c #FFFFFF",
"} 	c #FFF7ED",
"| 	c #655238",
"1 	c #000024",
"2 	c #C2C4D8",
"3 	c #D9BDBA",
"4 	c #350601",
"5 	c #FEF6EB",
"6 	c #645138",
"7 	c #C1C4D8",
"8 	c #340601",
"9 	c #645037",
"0 	c #000023",
"a 	c #FFFFFE",
"b 	c #F7F6F4",
"c 	c #F1EFEE",
"d 	c #976A67",
"e 	c #414141",
"f 	c #E3E3E3",
"g 	c #F3F3F6",
"h 	c #FCFCFD",
"i 	c #FFFDFC",
"j 	c #A67775",
"k 	c #020000",
"l 	c #4E4E4F",
"m 	c #F2F2F2",
"n 	c #FFFEFE",
"o 	c #D9C5C4",
"p 	c #939191",
"q 	c #B3B3B3",
"r 	c #F9F9F9",
"s 	c #000006",
"t 	c #576366",
"u 	c #747676",
"v 	c #9BA5AD",
"w 	c #F6F4F0",
"x 	c #CCCAC5",
"y 	c #BDC0C3",
"z 	c #E9EFF4",
"A 	c #FFFFFC",
"B 	c #CFCCC9",
"C 	c #BBBBBC",
"D 	c #D1E0ED",
"E 	c #EADBD9",
"F 	c #917774",
"G 	c #727575",
"H 	c #272520",
"I 	c #00000F",
"J 	c #C0DBE1",
"K 	c #DFD8CA",
"L 	c #4E4636",
"M 	c #1A242E",
"N 	c #B1C9DA",
"O 	c #FFFFF5",
"P 	c #555047",
"Q 	c #151517",
"R 	c #5E94C0",
"S 	c #595249",
"T 	c #BEDBE1",
"U 	c #DAD3C3",
"V 	c #382F1D",
"W 	c #000711",
"X 	c #A0B8CC",
"Y 	c #F7F9FB",
"Z 	c #FBFCFC",
"` 	c #FDFDFD",
" .	c #F7F7FA",
"..	c #FFFFEA",
"+.	c #3C392E",
"@.	c #4786B8",
"#.	c #585148",
"$.	c #DBD3C3",
"%.	c #393120",
"&.	c #000003",
"*.	c #3E474E",
"=.	c #606162",
"-.	c #A7B8BB",
";.	c #D4D3D3",
">.	c #686869",
",.	c #626258",
"'.	c #181612",
").	c #4987B8",
"!.	c #3A3221",
"~.	c #010202",
"{.	c #6D888D",
"].	c #B7B6B6",
"^.	c #090909",
"/.	c #010204",
"(.	c #718C8F",
"_.	c #0E0E0E",
":.	c #BFDBE1",
"<.	c #DBD4C4",
"[.	c #0B0D0D",
"}.	c #181818",
"|.	c #111111",
"1.	c #010101",
"2.	c #4988B9",
"3.	c #585249",
"4.	c #00000E",
"5.	c #B7D3D9",
"6.	c #F8FAFA",
"7.	c #F6F6F6",
"8.	c #FCFCFE",
"9.	c #D3CCBD",
"0.	c #383020",
"a.	c #4782B2",
"b.	c #F9F8F8",
"c.	c #F7F7F7",
"d.	c #FBFAFA",
"e.	c #544E46",
"f.	c #4F5A5D",
"g.	c #6A6B6B",
"h.	c #696969",
"i.	c #6B6C6C",
"j.	c #5A5750",
"k.	c #18150E",
"l.	c #1F374D",
"m.	c #6A6A6A",
"n.	c #6C6B6B",
"o.	c #24221E",
"p.	c #000000",
". . . . . . . . . . . . . . . . . . . . . . . . . . . . . . . . . . . . . ",
". . . . . . . . . . . . . . . . . . . . . . . . . . . . . . . . . . . . . ",
". . . . . . . . . . . . . . . . . . . . . . . . . . . . . . . . . . . . . ",
". . . . . . . . . . . . . . . . . . . . . . . . . . . . . . . . . . . . . ",
". . . . . . . . . # # # # . . . . . . . |.# # # k.. . . . . . . . . . . . ",
". . . . . . . . > J 9., ! ~ . . . . . 0 ^ , , , _ : . . . . . . . . . . . ",
". . . . . . . . < [ [ [ ..| . . . . . 0 2 [ [ [ 3 8 . . . . . . . . . . . ",
". . . . . . . . < [ [ [ 5 9 . . . . . 0 2 [ [ [ 3 8 . . . . . . . . . . . ",
". . . . . . . . < [ [ [ ..9 . . . . . 0 5.[ [ [ 3 8 . . . . . . . . . . . ",
". . . . . . . . < [ [ [ 5 9 . . . . . 0 2 [ [ [ 3 8 . . . . . . . . . . . ",
". . . . . . . . < [ [ [ 5 9 . . . . . 0 2 [ [ [ 3 8 . . . . . . . . . . . ",
". . . . . . . . < [ [ [ 5 9 . . . . . 0 2 [ [ [ 3 8 . . . . . . . . . . . ",
". . . . . . . . < [ [ [ 5 9 . . . . . 0 7 [ [ [ 3 8 . . . . . . . . . . . ",
". . . . . . . . < [ [ [ [  .c d . e c g [ [ [ [ 3 8 . . . . . . . . . . . ",
". . . . . . . . < [ [ [ [ [ [ j . e c [ [ [ [ [ 3 8 . . . . . . . . . . . ",
". . . . . . . . < [ [ [ [ [ [ 9.p C [ [ [ [ [ [ 3 8 . . . . . . . . . . . ",
". . . . . . . . < [ [ [ [ [ [ [ [ [ [ [ [ [ [ [ 3 8 . . . . . . . . . . . ",
". . . . . . . . < [ [ [ [ [ [ [ [ [ [ [ [ [ [ [ 3 8 . . . . . . . . . . . ",
". . . . . . . . < [ [ [ [ [ [ [ [ [ [ [ [ [ [ [ 3 8 . . . . . . . . . . . ",
". . . . . . . . < [ [ [ [ [ [ [ [ [ [ [ [ [ [ [ 3 8 . . . . . . . . . . . ",
". . . . . . t u ^ [ 5 , C c [ [ [ [ [ [ , C D [ E F u # . . . . . . . . . ",
". . . . . I D [ [ [ K +.* N [ [ [ [ [ ..e |.R [ [ [ [ P . . . . . . . . . ",
". . . . . . T [ [ [ K 0.I X g [ [ [ [ ..!.. @.[ [ [ [ P . . . . . . . . . ",
". . . . . I T [ [ [ 9.0.. > f.-.[ , =.j.|.. @.[ [ [ [ e.. . . . . . . . . ",
". . . . . . T [ [ [ K 0.. . . {.[ C . . . . @.[ [ [ [ P . . . . . . . . . ",
". . . . . I T [ [ [ 9.0.. . . (.[ C . . . . @.[ [ [ [ e.. . . . . . . . . ",
". . . . . I T [ [ [ K 0.. . . . |.|.. . . . @.[ [ [ [ P . . . . . . . . . ",
". . . . . I T [ g [ 9.V . . . . . . . . . . @.[ 5 [ [ e.. . . . . . . . . ",
". . . . . . l >.>.>.j.% . . . . . . . . . . l.>.t >.>.k.. . . . . . . . . ",
". . . . . . . . . . . . . . . . . . . . . . . . . . . . . . . . . . . . . ",
". . . . . . . . . . . . . . . . . . . . . . . . . . . . . . . . . . . . . ",
". . . . . . . . . . . . . . . . . . . . . . . . . . . . . . . . . . . . . ",
". . . . . . . . . . . . . . . . . . . . . . . . . . . . . . . . . . . . . ",
". . . . . . . . . . . . . . . . . . . . . . . . . . . . . . . . . . . . . ",
". . . . . . . . . . . . . . . . . . . . . . . . . . . . . . . . . . . . . ",
". . . . . . . . . . . . . . . . . . . . . . . . . . . . . . . . . . . . . "};
