/* XPM */
static xpm_row_t const mouse_xpm[] = {
"42 44 111 2",
"  	g None",
". 	g #000000",
"+ 	g #050505",
"@ 	g #262626",
"# 	g #8E8E8E",
"$ 	g #2C2C2C",
"% 	g #EEEEEE",
"& 	g #D3D3D3",
"* 	g #545454",
"= 	g #EBEBEB",
"- 	g #FFFFFF",
"; 	g #F2F2F2",
"> 	g #1A1A1A",
", 	g #C4C4C4",
"' 	g #434343",
") 	g #010101",
"! 	g #EAEAEA",
"~ 	g #7A7A7A",
"{ 	g #111111",
"] 	g #FCFCFC",
"^ 	g #B3B3B3",
"/ 	g #333333",
"( 	g #DFDFDF",
"_ 	g #676767",
": 	g #0A0A0A",
"< 	g #F8F8F8",
"[ 	g #A2A2A2",
"} 	g #555555",
"| 	g #8F8F8F",
"1 	g #1B1B1B",
"2 	g #C5C5C5",
"3 	g #444444",
"4 	g #7C7C7C",
"5 	g #B4B4B4",
"6 	g #343434",
"7 	g #E0E0E0",
"8 	g #686868",
"9 	g #D4D4D4",
"0 	g #565656",
"a 	g #909090",
"b 	g #454545",
"c 	g #121212",
"d 	g #FDFDFD",
"e 	g #B5B5B5",
"f 	g #353535",
"g 	g #E1E1E1",
"h 	g #696969",
"i 	g #0B0B0B",
"j 	g #FEFEFE",
"k 	g #A3A3A3",
"l 	g #272727",
"m 	g #F6F6F6",
"n 	g #828282",
"o 	g #5B5B5B",
"p 	g #5C5C5C",
"q 	g #5D5D5D",
"r 	g #020202",
"s 	g #969696",
"t 	g #E3E3E3",
"u 	g #ABABAB",
"v 	g #F7F7F7",
"w 	g #F1F1F1",
"x 	g #494949",
"y 	g #BCBCBC",
"z 	g #3A3A3A",
"A 	g #0E0E0E",
"B 	g #BEBEBE",
"C 	g #848484",
"D 	g #151515",
"E 	g #404040",
"F 	g #EDEDED",
"G 	g #FBFBFB",
"H 	g #6F6F6F",
"I 	g #CBCBCB",
"J 	g #4B4B4B",
"K 	g #030303",
"L 	g #040404",
"M 	g #919191",
"N 	g #DBDBDB",
"O 	g #F5F5F5",
"P 	g #979797",
"Q 	g #1F1F1F",
"R 	g #242424",
"S 	g #D9D9D9",
"T 	g #070707",
"U 	g #6B6B6B",
"V 	g #FAFAFA",
"W 	g #EFEFEF",
"X 	g #AAAAAA",
"Y 	g #BBBBBB",
"Z 	g #101010",
"` 	g #2D2D2D",
" .	g #D1D1D1",
"..	g #717171",
"+.	g #0D0D0D",
"@.	g #474747",
"#.	g #F0F0F0",
"$.	g #6A6A6A",
"%.	g #131313",
"&.	g #2E2E2E",
"*.	g #060606",
"=.	g #999999",
"-.	g #2A2A2A",
";.	g #DEDEDE",
">.	g #959595",
",.	g #747474",
"'.	g #B1B1B1",
").	g #181818",
"!.	g #141414",
"~.	g #BABABA",
"{.	g #3C3C3C",
".                                                                                   ",
". .                                                                                 ",
". . . .                                                                             ",
". . . . .                                                                           ",
". . + + . .                                                                         ",
". . @ # @ . . .                                                                     ",
". . $ % & * + . .                                                                   ",
". . $ = - ; # > . . .                                                               ",
". . $ = - - - , ' ) . .                                                             ",
". . $ = - - - - ! ~ { . . .                                                         ",
". . $ = - - - - - ] ^ / . . .                                                       ",
". . $ = - - - - - - - ( _ : . .                                                     ",
". . $ = - - - - - - - - < [ @ . . .                                                 ",
". . $ = - - - - - - - - - - & } + . .                                               ",
". . $ = - - - - - - - - - - - ; | 1 . . .                                           ",
". . $ = - - - - - - - - - - - - - 2 3 ) . .                                         ",
". . $ = - - - - - - - - - - - - - - ! 4 { . . .                                     ",
". . $ = - - - - - - - - - - - - - - - ] 5 6 . . .                                   ",
". . $ = - - - - - - - - - - - - - - - - - 7 8 : . .                                 ",
". . $ = - - - - - - - - - - - - - - - - - - < [ @ . . .                             ",
". . $ = - - - - - - - - - - - - - - - - - - - - 9 0 + . .                           ",
". . $ = - - - - - - - - - - - - - - - - - - - - - ; a 1 . . .                       ",
". . $ = - - - - - - - - - - - - - - - - - - - - - - - 2 b ) . .                     ",
". . $ = - - - - - - - - - - - - - - - - - - - - - - - - ! 4 c . . .                 ",
". . $ = - - - - - - - - - - - - - - - - - - - - - - - - - d e f . . .               ",
". . $ = - - - - - - - - - - - - - - - - - - - - - - - - - - - g h i . .             ",
". . $ = - - - - - - - - - - - - - - j d j j j j j j j j j j j - < k l ) . .         ",
". . $ = - - - - - - - - - - - - - - m n o p p p p p p p p p p p p q 6 r . . .       ",
". . $ = - - - - - - - - - - - - - - j s ) . . . . . . . . . . . . . . . . . . . .   ",
". . $ = - - - - - - - - - t u v - - - w x . . .                                     ",
". . $ = - - - - - - - j y z A 5 - - - - B c . .                                     ",
". . $ = - - - - - - % C D . . E F - - - G H . . .                                   ",
". . $ = - - - - - I J K . . . L M - - - - N l . .                                   ",
". . $ = - - - O P Q . . .   . . R S - - - - s + . .                                 ",
". . $ = - - S q T . .       . . . U V - - - W b . .                                 ",
". . $ F V X $ . . .           . . { y - - - - Y Z . .                               ",
". . `  ...+.. . .               . . @.#.- - - V $.. . .                             ",
". . %.&.. . .                   . . *.=.- - - - S R . .                             ",
". . . . . .                       . . -.;.- - - - >.*.. .                           ",
". . . .                           . . ) ,.] - - w '.).. .                           ",
". . .                               . . !.~.I C {.A ) . . .                         ",
".                                     . . 1 %.. . . .                               ",
"                                      . . . . .                                     ",
"                                        . .                                         "};
