/* XPM */
static xpm_row_t const mouse_clicking_xpm[] = {
"42 44 169 2",
"  	c None",
". 	c #000000",
"+ 	c #020202",
"@ 	c #282828",
"# 	c #595959",
"$ 	c #8E8E8E",
"% 	c #B7B7B7",
"& 	c #2E2E2E",
"* 	c #040404",
"= 	c #B8B8B8",
"- 	c #FCFCFC",
"; 	c #FFFFFF",
"> 	c #6C6C6C",
", 	c #888888",
"' 	c #AFAFAF",
") 	c #010101",
"! 	c #454545",
"~ 	c #F6F6F6",
"{ 	c #E1E1E1",
"] 	c #1B1B1B",
"^ 	c #111111",
"/ 	c #D6D6D6",
"( 	c #FBFBFB",
"_ 	c #555555",
": 	c #9F9F9F",
"< 	c #979797",
"[ 	c #5D5D5D",
"} 	c #D1D1D1",
"| 	c #0C0C0C",
"1 	c #212121",
"2 	c #E5E5E5",
"3 	c #F4F4F4",
"4 	c #3F3F3F",
"5 	c #B5B5B5",
"6 	c #808080",
"7 	c #131313",
"8 	c #3D3D3D",
"9 	c #707070",
"0 	c #A6A6A6",
"a 	c #7A7A7A",
"b 	c #191919",
"c 	c #060606",
"d 	c #757575",
"e 	c #FEFEFE",
"f 	c #BEBEBE",
"g 	c #222222",
"h 	c #CDCDCD",
"i 	c #CCCCCC",
"j 	c #090909",
"k 	c #868686",
"l 	c #DBDBDB",
"m 	c #525252",
"n 	c #181818",
"o 	c #7B7B7B",
"p 	c #343434",
"q 	c #F0F0F0",
"r 	c #EBEBEB",
"s 	c #292929",
"t 	c #070707",
"u 	c #CECECE",
"v 	c #F1F1F1",
"w 	c #373737",
"x 	c #5F5F5F",
"y 	c #999999",
"z 	c #313131",
"A 	c #ACACAC",
"B 	c #C9C9C9",
"C 	c #FDFDFD",
"D 	c #676767",
"E 	c #919191",
"F 	c #787878",
"G 	c #232323",
"H 	c #E6E6E6",
"I 	c #D2D2D2",
"J 	c #C6C6C6",
"K 	c #E3E3E3",
"L 	c #636363",
"M 	c #848484",
"N 	c #B2B2B2",
"O 	c #8D8D8D",
"P 	c #AAAAAA",
"Q 	c #4E4E4E",
"R 	c #F9F9F9",
"S 	c #B6B6B6",
"T 	c #F5F5F5",
"U 	c #404040",
"V 	c #878787",
"W 	c #4B4B4B",
"X 	c #F8F8F8",
"Y 	c #DEDEDE",
"Z 	c #161616",
"` 	c #141414",
" .	c #DDDDDD",
"..	c #E7E7E7",
"+.	c #767676",
"@.	c #828282",
"#.	c #DADADA",
"$.	c #505050",
"%.	c #A9A9A9",
"&.	c #323232",
"*.	c #EFEFEF",
"=.	c #C0C0C0",
"-.	c #0D0D0D",
";.	c #D4D4D4",
">.	c #A4A4A4",
",.	c #929292",
"'.	c #656565",
").	c #6A6A6A",
"!.	c #ECECEC",
"~.	c #626262",
"{.	c #2D2D2D",
"].	c #F7F7F7",
"^.	c #EEEEEE",
"/.	c #FAFAFA",
"(.	c #262626",
"_.	c #E8E8E8",
":.	c #B9B9B9",
"<.	c #3B3B3B",
"[.	c #383838",
"}.	c #ADADAD",
"|.	c #D7D7D7",
"1.	c #F2F2F2",
"2.	c #8F8F8F",
"3.	c #0B0B0B",
"4.	c #030303",
"5.	c #C5C5C5",
"6.	c #050505",
"7.	c #EAEAEA",
"8.	c #CFCFCF",
"9.	c #333333",
"0.	c #747474",
"a.	c #7D7D7D",
"b.	c #9D9D9D",
"c.	c #B4B4B4",
"d.	c #4F4F4F",
"e.	c #B1B1B1",
"f.	c #414141",
"g.	c #E9E9E9",
"h.	c #E2E2E2",
"i.	c #DCDCDC",
"j.	c #A0A0A0",
"k.	c #2C2C2C",
"l.	c #D8D8D8",
"m.	c #8A8A8A",
"n.	c #A1A1A1",
"o.	c #9E9E9E",
"p.	c #535353",
"q.	c #BABABA",
"r.	c #616161",
"s.	c #464646",
"t.	c #545454",
"u.	c #E4E4E4",
"v.	c #6E6E6E",
"w.	c #969696",
"x.	c #737373",
"y.	c #838383",
"z.	c #D0D0D0",
"A.	c #DFDFDF",
"B.	c #777777",
"C.	c #434343",
"D.	c #696969",
"E.	c #363636",
"F.	c #101010",
"G.	c #CACACA",
"H.	c #C1C1C1",
"I.	c #909090",
"J.	c #5C5C5C",
"K.	c #2B2B2B",
"L.	c #646464",
"                                                                                    ",
"              . . . +                                                               ",
"              @ # $ % & .                                                           ",
"            * = - ; ; > .                                                           ",
"          . . , ; ; ; ' ) .                                                         ",
"            . ! ~ ; ; { ] .                                                         ",
"            . ^ / ; ; ( _ .                                                         ",
"            . . : ; ; ; < . .                                                       ",
"              . [ - ; ; } | .                                                       ",
"              . 1 2 ; ; 3 4 . . . . . . +     . . . .         .                     ",
"              . ) 5 ; ; ; 6 . . 7 8 9 0 a . . . . + b c . . . .                     ",
"                . d e ; ; f + g h 3 ; ; i j . & k = l m . n o ! .                   ",
"                . p q ; ; r s t u ; ; ; v w . x ; ; ; y . z 3 A . . )               ",
"                . c B ; ; C D . E ; ; ; ; F . G H ; ; I | * J K L M N p .           ",
"                . . O ; ; ; P . Q R ; ; ; % + ) S ; ; T U . V ; C ; ; d . .         ",
"                  . W X ; ; Y Z `  .; ; ; ..G . +.; ; ; @.. ! ~ ; ; ; 5 ) .         ",
"                  . ` #.; ; R $.. %.; ; ; - x . &.*.; ; =.+ -.;.; ; ; 2 1 .         ",
"                  . . >.; ; ; ,.. '.C ; ; ; %.& ).r ; ; !.w g f ; ; ; - [ . .       ",
"                    . ~.C ; ; h c {.!.; ; ; ].^.C ; ; ; C #.2 /.; ; ; ; : . .       ",
"                    . (._.; ; 3 : :.].; ; ; ; ; ; ; ; ; ; ; ; ; ; ; ; ; / ^ .       ",
"        . . .       . + :.; ; ; ; ; ; ; ; ; ; ; ; ; ; ; ; ; ; ; ; ; ; ; ~ ! .       ",
"  . . . . ^ <.[.. . . . a ; ; ; ; ; ; ; ; ; ; ; ; ; ; ; ; ; ; ; ; ; ; ; ; V . .     ",
"  . . &.}.|.1.2.3.& W 4.[.1.; ; ; ; ; ; ; ; ; ; ; ; ; ; ; ; ; ; ; ; ; ; ; 5.6..     ",
"    . w 3 ; ; 7.8.^.^.9.c h ; ; ; ; ; ; ; ; ; ; ; ; ; ; ; ; ; ; ; ; ; ; ; *.z .     ",
"    . c B ; ; ; ; ; ; 0.. ,.; ; ; ; ; ; ; ; ; ; ; ; ; ; ; ; ; ; ; ; ; ; ; e 9 . .   ",
"    . . a.b.5 ; ; ; ; c.. d.R ; ; ; ; ; ; ; ; ; ; ; ; ; ; ; ; ; ; ; ; ; ; ; e.) .   ",
"          . f.g.h.( ; 2 ] ^ i.; ; ; ; ; ; ; ; ; ; ; ; ; ; ; ; ; ; ; ; ; /.j.m       ",
"          .   w k.l.; ( m.a.H ; ; ; ; ; ; ; ; ; ; ; ; ; ; ; ; ; ; ; ; ; ( # .       ",
"              . . n.; ; - ; ; ; ; ; ; ; ; ; ; ; ; ; ; ; ; ; ; ; ; ; ; ; ; o.. .     ",
"                . p.q.m.r./ ; ; ; ; ; ; ; ; ; ; ; ; ; ; ; ; ; ; ; ; ; ; ; / ^ .     ",
"                . ) + . . < ; ; ; ; ; ; ; ; ; ; ; ; ; ; ; ; ; ; ; ; ; ; ; X s..     ",
"                      . . t./.; ; ; ; ; ; ; ; ; ; ; ; ; ; ; ; ; ; ; ; ; ( u.v..     ",
"                        . ] h.; ; ; ; ; ; ; ; ; ; ; ; ; ; ; ; ; ; ; ; ; #.& 6.      ",
"                        . ) a.k i.; ; ; ; ; ; ; ; ; ; ; ; ; ; ; ; ; ; ; *.z .       ",
"                            . . w.; ; ; ; ; ; ; ; ; ; ; ; ; ; ; ; ; ; ; e x..       ",
"                              . t.C ; ; ; ; ; ; ; ; ; ; ; ; ; ; ; ; ; ; ; % + .     ",
"                              . ] n.y.z.; ; ; ; ; ; ; ; ; ; ; ; ; ; ; ~ A.n.j .     ",
"                                  . . B.e ; ; ; ; ; ; ; ; ; ; v / A F C.n + . .     ",
"                                  . . p q ; ; ; ; ; C !.i o.D.E.F.. . . . .         ",
"                                    . c G.; /.2 H.I.J.K.t . . . . .                 ",
"                                    . . L.M Q 1 4.. . . .                           ",
"                                    . . . . . . .                                   ",
"                                      . .                                           ",
"                                                                                    "};
