/* XPM */
static xpm_row_t const N_xpm[] = {
"42 44 103 2",
"  	c None",
". 	c #000000",
"+ 	c #010202",
"@ 	c #222527",
"# 	c #404040",
"$ 	c #3E3E3B",
"% 	c #1C1A13",
"& 	c #0A0A21",
"* 	c #3F4040",
"= 	c #1F0C09",
"- 	c #030609",
"; 	c #79838B",
"> 	c #E2E2E2",
", 	c #DEDBD3",
"' 	c #655C45",
") 	c #252674",
"! 	c #DFE2E2",
"~ 	c #6D2A20",
"{ 	c #03070A",
"] 	c #89939C",
"^ 	c #FFFFFF",
"/ 	c #FBF7EE",
"( 	c #72674D",
"_ 	c #2A2B83",
": 	c #FCFFFF",
"< 	c #7A2F24",
"[ 	c #000001",
"} 	c #101417",
"| 	c #272828",
"1 	c #2B2E30",
"2 	c #9CA5AC",
"3 	c #FBF8F1",
"4 	c #887F69",
"5 	c #282828",
"6 	c #272523",
"7 	c #100B05",
"8 	c #000005",
"9 	c #546574",
"0 	c #C5CACA",
"a 	c #CBCCCD",
"b 	c #E7E9EB",
"c 	c #FEFDFB",
"d 	c #E2E0DA",
"e 	c #CACACA",
"f 	c #C3BBB1",
"g 	c #4F3719",
"h 	c #000006",
"i 	c #697F92",
"j 	c #F8FFFF",
"k 	c #F5EBDF",
"l 	c #634520",
"m 	c #F7EEE3",
"n 	c #785E3E",
"o 	c #232323",
"p 	c #1F1D1C",
"q 	c #080000",
"r 	c #E7D4D1",
"s 	c #370000",
"t 	c #D5D5D4",
"u 	c #030201",
"v 	c #E5E5E5",
"w 	c #646363",
"x 	c #626262",
"y 	c #7C7DB3",
"z 	c #FDFFFF",
"A 	c #101C26",
"B 	c #AED3F1",
"C 	c #0B141B",
"D 	c #7B95AA",
"E 	c #B3B3B3",
"F 	c #BDC0C2",
"G 	c #F6FFFF",
"H 	c #010203",
"I 	c #0C0F10",
"J 	c #111111",
"K 	c #30393F",
"L 	c #E2FFFF",
"M 	c #212B31",
"N 	c #E0FFFF",
"O 	c #1A2227",
"P 	c #B2CACA",
"Q 	c #D3D3D3",
"R 	c #FEFFFF",
"S 	c #050708",
"T 	c #232828",
"U 	c #4B4C4C",
"V 	c #FDFEFF",
"W 	c #2A2A2B",
"X 	c #FCFDFE",
"Y 	c #202021",
"Z 	c #C3C4C5",
"` 	c #C5C5C5",
" .	c #CFCFE3",
"..	c #28297D",
"+.	c #F0F3F3",
"@.	c #F3F3F3",
"#.	c #752D22",
"$.	c #000004",
"%.	c #3C4853",
"&.	c #8C9090",
"*.	c #909090",
"=.	c #8E8C87",
"-.	c #413B2C",
". . . . . . . . . . . . . . . . . . . . . . . . . . . . . . . . . . . . . . . . . . ",
". . . . . . . . . . . . . . . . . . . . . . . . . . . . . . . . . . . . . . . . . . ",
". . . . . . . . . . . . . . . . . . . . . . . . . . . . . . . . . . . . . . . . . . ",
". . . . . . . . . . . . . . . . . . . . . . . . . . . . . . . . . . . . . . . . . . ",
". . . . . . . . . . . . . . . . . . . . . . . . . . . . . . . . . . . . . . . . . . ",
". . . . . . . . . + @ # $ % . . . . . . . . . . & * # # # # = . . . . . . . . . . . ",
". . . . . . . . . - ; > , ' . . . . . . . . . . ) ! > > > > ~ . . . . . . . . . . . ",
". . . . . . . . . { ] ^ / ( . . . . . . . . . . _ : ^ ^ ^ ^ < . . . . . . . . . . . ",
". . . . . . [ } | 1 2 ^ 3 4 5 6 7 . . . . . . . _ : ^ ^ ^ ^ < . . . . . . . . . . . ",
". . . . . . 8 9 0 a b ^ c d e f g . . . . . . . _ : ^ ^ ^ ^ < . . . . . . . . . . . ",
". . . . . . h i j ^ ^ ^ ^ ^ ^ k l . . . . . . . _ : ^ ^ ^ ^ < . . . . . . . . . . . ",
". . . . . . h i j ^ ^ ^ ^ ^ ^ m n o p q . . . . _ : ^ ^ ^ ^ < . . . . . . . . . . . ",
". . . . . . h i j ^ ^ ^ ^ ^ ^ ^ ^ ^ r s . . . . _ : ^ ^ ^ ^ < . . . . . . . . . . . ",
". . . . . . h i j ^ ^ ^ ^ ^ ^ ^ ^ ^ r s . . . . _ : ^ ^ ^ ^ < . . . . . . . . . . . ",
". . . . . . h i j ^ ^ ^ ^ ^ ^ ^ ^ ^ r s . . . . _ : ^ ^ ^ ^ < . . . . . . . . . . . ",
". . . . . . h i j ^ ^ ^ ^ ^ ^ ^ ^ ^ ^ ^ ^ t u . _ : ^ ^ ^ ^ < . . . . . . . . . . . ",
". . . . . . h i j ^ ^ ^ ^ ^ ^ ^ ^ ^ ^ ^ ^ t u . _ : ^ ^ ^ ^ < . . . . . . . . . . . ",
". . . . . . h i j ^ ^ ^ ^ ^ ^ ^ ^ ^ ^ ^ ^ v w x y z ^ ^ ^ ^ < . . . . . . . . . . . ",
". . . . . . h i j ^ ^ ^ / ( . A B ^ ^ ^ ^ ^ ^ ^ ^ ^ ^ ^ ^ ^ < . . . . . . . . . . . ",
". . . . . . h i j ^ ^ ^ / ( . A B ^ ^ ^ ^ ^ ^ ^ ^ ^ ^ ^ ^ ^ < . . . . . . . . . . . ",
". . . . . . h i j ^ ^ ^ / ( . C D E F G ^ ^ ^ ^ ^ ^ ^ ^ ^ ^ < . . . . . . . . . . . ",
". . . . . . h i j ^ ^ ^ / ( . H I J K L ^ ^ ^ ^ ^ ^ ^ ^ ^ ^ < . . . . . . . . . . . ",
". . . . . . h i j ^ ^ ^ / ( . . . . M N ^ ^ ^ ^ ^ ^ ^ ^ ^ ^ < . . . . . . . . . . . ",
". . . . . . h i j ^ ^ ^ / ( . . . . O P e Q R ^ ^ ^ ^ ^ ^ ^ < . . . . . . . . . . . ",
". . . . . . h i j ^ ^ ^ / ( . . . . S T 5 U V ^ ^ ^ ^ ^ ^ ^ < . . . . . . . . . . . ",
". . . . . . h i j ^ ^ ^ / ( . . . . . . . W X ^ ^ ^ ^ ^ ^ ^ < . . . . . . . . . . . ",
". . . . . . h i j ^ ^ ^ / ( . . . . . . . Y Z `  .R ^ ^ ^ ^ < . . . . . . . . . . . ",
". . . . . . h i j ^ ^ ^ / ( . . . . . . . . . . _ : ^ ^ ^ ^ < . . . . . . . . . . . ",
". . . . . . h i j ^ ^ ^ / ( . . . . . . . . . . _ : ^ ^ ^ ^ < . . . . . . . . . . . ",
". . . . . . h i j ^ ^ ^ / ( . . . . . . . . . . ..+.@.@.@.@.#.. . . . . . . . . . . ",
". . . . . . h i j ^ ^ ^ / ( . . . . . . . . . . . . . . . . . . . . . . . . . . . . ",
". . . . . . h i j ^ ^ ^ / ( . . . . . . . . . . . . . . . . . . . . . . . . . . . . ",
". . . . . . $.%.&.*.*.*.=.-.. . . . . . . . . . . . . . . . . . . . . . . . . . . . ",
". . . . . . . . . . . . . . . . . . . . . . . . . . . . . . . . . . . . . . . . . . ",
". . . . . . . . . . . . . . . . . . . . . . . . . . . . . . . . . . . . . . . . . . ",
". . . . . . . . . . . . . . . . . . . . . . . . . . . . . . . . . . . . . . . . . . ",
". . . . . . . . . . . . . . . . . . . . . . . . . . . . . . . . . . . . . . . . . . ",
". . . . . . . . . . . . . . . . . . . . . . . . . . . . . . . . . . . . . . . . . . ",
". . . . . . . . . . . . . . . . . . . . . . . . . . . . . . . . . . . . . . . . . . ",
". . . . . . . . . . . . . . . . . . . . . . . . . . . . . . . . . . . . . . . . . . ",
". . . . . . . . . . . . . . . . . . . . . . . . . . . . . . . . . . . . . . . . . . ",
". . . . . . . . . . . . . . . . . . . . . . . . . . . . . . . . . . . . . . . . . . ",
". . . . . . . . . . . . . . . . . . . . . . . . . . . . . . . . . . . . . . . . . . ",
". . . . . . . . . . . . . . . . . . . . . . . . . . . . . . . . . . . . . . . . . . "};
