/* XPM */
static xpm_row_t const N_lil_xpm[] = {
"18 28 159 2",
"  	c None",
". 	c #101315",
"+ 	c #53575A",
"@ 	c #858585",
"# 	c #69665B",
"$ 	c #201E16",
"% 	c #010100",
"& 	c #000000",
"* 	c #141537",
"= 	c #6D6E78",
"- 	c #848583",
"; 	c #7F7F7F",
"> 	c #1E2429",
", 	c #A3AAB1",
"' 	c #FFFFFF",
") 	c #CCC5B3",
"! 	c #3F392C",
"~ 	c #010000",
"{ 	c #292A6C",
"] 	c #D3D4E9",
"^ 	c #FAFAFA",
"/ 	c #2A2F34",
"( 	c #ADB3B9",
"_ 	c #D1C9B9",
": 	c #4A4538",
"< 	c #0D0C0B",
"[ 	c #070604",
"} 	c #020101",
"| 	c #2A2B6F",
"1 	c #D3D3EB",
"2 	c #7D8183",
"3 	c #CCD0D4",
"4 	c #FEFFFF",
"5 	c #E2DDD3",
"6 	c #908D86",
"7 	c #6D6C6A",
"8 	c #473D31",
"9 	c #110C05",
"0 	c #2A2B6E",
"a 	c #D2D2E9",
"b 	c #F4F4F4",
"c 	c #FAF9FA",
"d 	c #FCFBFA",
"e 	c #F2F2F3",
"f 	c #F7F5F2",
"g 	c #A38D70",
"h 	c #24190A",
"i 	c #B59E81",
"j 	c #332718",
"k 	c #090807",
"l 	c #040202",
"m 	c #D6CABA",
"n 	c #928C84",
"o 	c #7E7A78",
"p 	c #3B2323",
"q 	c #070000",
"r 	c #7F4C4B",
"s 	c #0D0000",
"t 	c #FFF7F4",
"u 	c #744544",
"v 	c #0C0000",
"w 	c #FFFAF9",
"x 	c #AF9292",
"y 	c #726868",
"z 	c #636362",
"A 	c #171716",
"B 	c #292A6D",
"C 	c #D1D2E9",
"D 	c #3A3A39",
"E 	c #28296C",
"F 	c #D1D1E9",
"G 	c #FFFFFE",
"H 	c #FEFEFE",
"I 	c #FDFDFD",
"J 	c #EDEDED",
"K 	c #575756",
"L 	c #222224",
"M 	c #4E4F87",
"N 	c #D9DAED",
"O 	c #E8E4DC",
"P 	c #A8A59F",
"Q 	c #8D8B8A",
"R 	c #B7C4CF",
"S 	c #F1F8FC",
"T 	c #F9F9F9",
"U 	c #C1C0C0",
"V 	c #ADADAD",
"W 	c #BDBED3",
"X 	c #F1F1F8",
"Y 	c #C6BEAB",
"Z 	c #2B2414",
"` 	c #4F6F89",
" .	c #DBEDF7",
"..	c #CCC4B3",
"+.	c #413B2C",
"@.	c #50697F",
"#.	c #BECBD4",
"$.	c #DDDEDE",
"%.	c #F1F5F6",
"&.	c #413A2D",
"*.	c #222D35",
"=.	c #4F5458",
"-.	c #606366",
";.	c #C2D3D4",
">.	c #FCFFFF",
",.	c #413B2E",
"'.	c #030200",
").	c #000004",
"!.	c #9CB8BA",
"~.	c #FBFFFF",
"{.	c #413C2E",
"].	c #03060A",
"^.	c #8DA4A6",
"/.	c #DEE6E6",
"(.	c #E7E6E6",
"_.	c #020406",
":.	c #475254",
"<.	c #6D7171",
"[.	c #7E7E7E",
"}.	c #E1E2E2",
"|.	c #020303",
"1.	c #171818",
"2.	c #CCCCCC",
"3.	c #0F0F0F",
"4.	c #ADAEAE",
"5.	c #E2E2E3",
"6.	c #E3E3EC",
"7.	c #F9F9FC",
"8.	c #070707",
"9.	c #484949",
"0.	c #5B5B5A",
"a.	c #73749F",
"b.	c #E1E1F1",
"c.	c #1C1D64",
"d.	c #D0D0EA",
"e.	c #282968",
"f.	c #C5C6DB",
"g.	c #F3F3F1",
"h.	c #CEC5B4",
"i.	c #423C2F",
"j.	c #121330",
"k.	c #61636B",
"l.	c #767674",
"m.	c #717171",
"n.	c #FFFEFE",
"o.	c #FCFCFC",
"p.	c #CBC3B2",
"q.	c #BCBCBC",
"r.	c #B9B9BA",
"s.	c #C0C0C1",
"t.	c #959083",
"u.	c #2F2C22",
"v.	c #020100",
"w.	c #363636",
"x.	c #343434",
"y.	c #373736",
"z.	c #2A2925",
"A.	c #0D0C0A",
"B.	c #000000",
"].K @ z h & & & & & & & & & j.= @ l.",
"L ( ' _ u.& & & & & & & & & c.N ' ' ",
"> ( ' m : 3.& & & & & & & & E N ' ' ",
"2 3 ' $.t.z : s & & & & & & E N ' ' ",
"' ' ' ' t ' g h & & & & & & c.d.' ' ",
"' ' ' ' ' ' i j & & & & & & | N ' ' ",
"' ' ' ' ' ' m t.o p & & & & c.d.' ' ",
"' ' ' ' ' ' ' ' ' r s & & & | N ' ' ",
"' ' ' ' ' ' ' ' ' u s & & & c.d.' ' ",
"' ' ' ' ' ' ' ' t x y z 3.& | N ' ' ",
"' ' ' ' ' ' ' ' ' ' ' ' : & c.d.' ' ",
"' ' ' ' ' ' ' ' ' ' ' J K L M N ' ' ",
"' ' ' /.x - R S ' ' ' t #.V W ' ' ' ",
"' ' ' Y h & `  .' ' ' ' ' ' ' ' ' ' ",
"' ' ' ) +.& @.#.$.J ' ' ' ' ' ' ' ' ",
"' ' ' ) u.& > :.-.;.' ' ' ' ' ' ' ' ",
"' ' ' ) : & & & & !.' ' ' ' ' ' ' ' ",
"' ' ' ) u.& & & & ^. .O ' ' ' ' ' ' ",
"' ' ' ) : & & & & :.z l.$.' ' ' ' ' ",
"' ' ' ) ! & & & & & & 3.2.' ' ' ' ' ",
"' ' ' ) +.& & & & & & 3.V $.N ' ' ' ",
"' ' ' ) ! & & & & & & & 9.K a.N ' ' ",
"' ' ' _ +.& & & & & & & & & c.1 ' ' ",
"' ' ' ) ! & & & & & & & & & c.f.t J ",
"' ' ' _ +.& & & & & & & & & j.z l.z ",
"' ' ' Y ! & & & & & & & & & & & & & ",
"q.q.q.t.u.& & & & & & & & & & & & & ",
"x.x.x.L 9 & & & & & & & & & & & & & "};
