/* XPM */
static xpm_row_t const Nine_lil_xpm[] = {
"19 28 175 2",
"  	c None",
". 	c #000000",
"+ 	c #010101",
"@ 	c #0A0B11",
"# 	c #222326",
"$ 	c #272727",
"% 	c #262626",
"& 	c #262627",
"* 	c #252320",
"= 	c #140E07",
"- 	c #030407",
"; 	c #3B405C",
"> 	c #B9BAC9",
", 	c #D1D1CD",
"' 	c #CACACA",
") 	c #CACBCB",
"! 	c #CCCCCD",
"~ 	c #C7BAAA",
"{ 	c #6C4D27",
"] 	c #030408",
"^ 	c #4B5075",
"/ 	c #E7E9FC",
"( 	c #FFFFFF",
"_ 	c #FEFEFE",
": 	c #FFFFFE",
"< 	c #F5EAD5",
"[ 	c #886130",
"} 	c #030305",
"| 	c #212528",
"1 	c #4E4D4D",
"2 	c #7F829D",
"3 	c #EEF0FD",
"4 	c #F9F0E2",
"5 	c #AA8F6D",
"6 	c #3A3E42",
"7 	c #2D1E1C",
"8 	c #030000",
"9 	c #08090E",
"0 	c #687681",
"a 	c #F7F6F3",
"b 	c #ECECF0",
"c 	c #FDFDFF",
"d 	c #FEFCFB",
"e 	c #F5F2ED",
"f 	c #E3E2E3",
"g 	c #895C58",
"h 	c #090000",
"i 	c #0A0F14",
"j 	c #778692",
"k 	c #F7F2F1",
"l 	c #9C6C65",
"m 	c #0E0000",
"n 	c #C3C3C5",
"o 	c #DCE0E3",
"p 	c #F1EBE3",
"q 	c #9C9489",
"r 	c #7C7D7D",
"s 	c #7F7F7F",
"t 	c #7E7E80",
"u 	c #8C8CAA",
"v 	c #FDFFFF",
"w 	c #FDFCFB",
"x 	c #E6D9D8",
"y 	c #C2BCBC",
"z 	c #FFFFFD",
"A 	c #E3D7C9",
"B 	c #3F2F19",
"C 	c #010203",
"D 	c #070707",
"E 	c #070706",
"F 	c #040409",
"G 	c #202059",
"H 	c #FCFFFF",
"I 	c #FFFEFE",
"J 	c #E2D7C7",
"K 	c #3A2913",
"L 	c #000005",
"M 	c #1C1C53",
"N 	c #E2D6C7",
"O 	c #37260F",
"P 	c #000004",
"Q 	c #1B1C51",
"R 	c #E6DBCD",
"S 	c #4D3D2A",
"T 	c #131416",
"U 	c #181818",
"V 	c #181817",
"W 	c #16161A",
"X 	c #313164",
"Y 	c #7E8183",
"Z 	c #B6BEC5",
"` 	c #F8F4F1",
" .	c #C9C5BF",
"..	c #B8B8B9",
"+.	c #B9B9B9",
"@.	c #C1C1D0",
"#.	c #FEFFFF",
"$.	c #FBF8F8",
"%.	c #CAB0AE",
"&.	c #7F7473",
"*.	c #0A0D10",
"=.	c #6D7F8C",
"-.	c #F8F2F1",
";.	c #97645F",
">.	c #0B0000",
",.	c #07090C",
"'.	c #59666F",
").	c #D2D1D0",
"!.	c #C2C2C2",
"~.	c #C3C3C3",
"{.	c #E2E2E2",
"].	c #FDFAF6",
"^.	c #E4DCD1",
"/.	c #BEBEBF",
"(.	c #764F4C",
"_.	c #070000",
":.	c #0C0D0E",
"<.	c #1B1B1B",
"[.	c #191919",
"}.	c #171717",
"|.	c #929393",
"1.	c #F7ECDA",
"2.	c #937045",
"3.	c #050A10",
"4.	c #100B0A",
"5.	c #010000",
"6.	c #0B0B0B",
"7.	c #858585",
"8.	c #F6EAD6",
"9.	c #896231",
"0.	c #858586",
"a.	c #896131",
"b.	c #848484",
"c.	c #F7EBD6",
"d.	c #8B6432",
"e.	c #030404",
"f.	c #101213",
"g.	c #1E1E1E",
"h.	c #FCFCFB",
"i.	c #E5E5E4",
"j.	c #DECFBE",
"k.	c #7A572C",
"l.	c #141B1D",
"m.	c #8EA1A3",
"n.	c #E8E6E6",
"o.	c #EEEEEE",
"p.	c #E7E7CE",
"q.	c #272322",
"r.	c #201E1B",
"s.	c #130D07",
"t.	c #182022",
"u.	c #A5BBBE",
"v.	c #E3E3C5",
"w.	c #020100",
"x.	c #182021",
"y.	c #A4B9BD",
"z.	c #E4E3C5",
"A.	c #050000",
"B.	c #192022",
"C.	c #A7BCBF",
"D.	c #E4E4CB",
"E.	c #141A1B",
"F.	c #889A9D",
"G.	c #DDDCDC",
"H.	c #D2D2D2",
"I.	c #D5D5D2",
"J.	c #BDBCA3",
"K.	c #040000",
"L.	c #040506",
"M.	c #1C2021",
"N.	c #2E2D2D",
"O.	c #2B2B2C",
"P.	c #2C2C2B",
"Q.	c #272721",
"R.	c #000000",
". . . . . . . . . . . . . . . . . . . ",
". . . . . . . . . . . . . . . . . . . ",
". . . F * * * * * * * * * * * m . . . ",
". . . ; @.I.! ! ! ! ! ! H.H.~ { . . . ",
". . . ^ 3 ( ( ( ( ( ( ( ( ( 4 d.. . . ",
". * 1 2 3 ( ( ( ( ( ( ( ( ( 4 5 N.7 . ",
"F 0 ( 3 ( ( ( ( ( ( ( ( ( ( ( ].o.g . ",
"3.j ( ( ( ( ( ( ( ( ( ( ( ( ( ( o.l m ",
"! o ( ( ( o.q &.&.t &.&.u ( ( ( ( x y ",
"( ( ( ( ( j.O . F . . F Q ( ( ( ( ( ( ",
"( ( ( ( ( ^.K . . . . . Q ( ( ( ( ( ( ",
"( ( ( ( ( v.O . . . . . Q ( ( ( ( ( ( ",
"( ( ( ( ( x B f.f.t.W W G ( ( ( ( ( ( ",
"t C.( ( ( ].! +.+.+.+.> H.( ( ( ( %.&.",
"F 0 ( ( ( ( ( ( ( ( ( ( ( ( ( ( -.g . ",
". '.G.+.y !.y ! +.! G.( ( ( ( ^.+.(.. ",
". f.f.f.f.f.f.f.f.f.|.( ( ( p 2.F m . ",
". . . . . . . . . m 0.( ( ( c.k.. . . ",
". . . . . . . . . E 0.( ( ( c.[ . . . ",
". . . . . . . . . 3.0.( ( ( c.[ . . . ",
". . . . . . . . f.E.|.( ( p j.k.. . . ",
". . . . . . . t.m.o.o.( D.f.r.m . . . ",
". . . . . . . E.C.( ( ( p.. . . . . . ",
". . . . . . . t.C.( ( ( z.. . . . . . ",
". . . . . . . E.C.( ( ( p.. . . . . . ",
". . . . . . . f.m.G.! ^.J.. . . . . . ",
". . . . . . . . t.O.* * r.. . . . . . ",
". . . . . . . . . . . . . . . . . . . "};
