/* XPM */
static xpm_row_t const Nine_xpm[] = {
"42 44 83 1",
" 	c None",
".	c #000000",
"+	c #1C1F2E",
"@	c #404040",
"#	c #392B1A",
"$	c #676EA3",
"%	c #E2E2E2",
"&	c #CB995C",
"*	c #747DB8",
"=	c #FFFFFF",
"-	c #E5AD67",
";	c #06090C",
">	c #282828",
",	c #8A91C3",
"'	c #E9BA7F",
")	c #110604",
"!	c #1D2E3C",
"~	c #CACACA",
"{	c #E3E4F0",
"]	c #FAEEE0",
"^	c #571C15",
"/	c #243A4B",
"(	c #6E231B",
"_	c #000004",
":	c #1E2323",
"<	c #232323",
"[	c #435564",
"}	c #FEFDFC",
"|	c #F2F1EF",
"1	c #EDEDED",
"2	c #EDEDF2",
"3	c #82413A",
"4	c #212121",
"5	c #040301",
"6	c #00001F",
"7	c #DDFFFF",
"8	c #F5ECE1",
"9	c #7B6C5A",
"0	c #4B4B4B",
"a	c #4B4B7E",
"b	c #FCFFFF",
"c	c #F1F0EE",
"d	c #1B1308",
"e	c #F1E5D5",
"f	c #443016",
"g	c #000048",
"h	c #FBFFFF",
"i	c #F7EFE6",
"j	c #8C7F70",
"k	c #626262",
"l	c #62628E",
"m	c #FDFFFF",
"n	c #1A2835",
"o	c #B3B3B3",
"p	c #B4B4B4",
"q	c #EFEFEF",
"r	c #F7E7D3",
"s	c #4D1912",
"t	c #020405",
"u	c #111111",
"v	c #121313",
"w	c #CDCDCD",
"x	c #E7B372",
"y	c #070202",
"z	c #010102",
"A	c #C9C9C9",
"B	c #161D1E",
"C	c #393A3A",
"D	c #3A3B3B",
"E	c #D4D5D5",
"F	c #FFFFF6",
"G	c #C7C5C5",
"H	c #C5C5C5",
"I	c #B18650",
"J	c #000001",
"K	c #627F84",
"L	c #FFFFD8",
"M	c #060000",
"N	c #38484B",
"O	c #8E9090",
"P	c #909090",
"Q	c #90907A",
"R	c #030000",
"..........................................",
"..........................................",
"..........................................",
"..........................................",
"..........................................",
"............+@@@@@@@@@@@@#................",
"............$%%%%%%%%%%%%&................",
"............*============-................",
".........;>>,============'>>).............",
".........!~~{============]~~^.............",
"........./==================(.............",
"......_:<[====}|1111112=====3<45..........",
"......67======89000000ab======cd..........",
"......67======ef......gh======cd..........",
"......67======ef......gh======cd..........",
"......67======ef......gh======cd..........",
"......67======ef......gh======cd..........",
"......67======ijkkkkkklm======cd..........",
"........./==================(.............",
"........./==================(.............",
".........nooooooooopq====roos.............",
".........tuuuuuuuuuvw====xuuy.............",
"...................zA====-................",
"...................zA====-................",
"...................zA====-................",
"...................zA====-................",
".................BCDE=FGHI................",
"................JKh===LM..................",
"................JKh===LM..................",
"................JKh===LM..................",
"................JKh===LM..................",
"................JKh===LM..................",
".................NOPPPQR..................",
"..........................................",
"..........................................",
"..........................................",
"..........................................",
"..........................................",
"..........................................",
"..........................................",
"..........................................",
"..........................................",
"..........................................",
".........................................."};
