/* XPM */
static xpm_row_t const O_lil_xpm[] = {
"19 29 188 2",
"  	c None",
". 	c #000000",
"+ 	c #000407",
"@ 	c #4F6476",
"# 	c #9CA5AC",
"$ 	c #ACABAA",
"% 	c #AAAAAA",
"& 	c #ACACAE",
"* 	c #A3A28B",
"= 	c #373426",
"- 	c #000308",
"; 	c #7494AE",
"> 	c #E8F5FF",
", 	c #FFFEFC",
"' 	c #FCFCFC",
") 	c #FFFFFF",
"! 	c #F1F0CE",
"~ 	c #4F4B36",
"{ 	c #050507",
"] 	c #0A0909",
"^ 	c #0C1217",
"/ 	c #7E9DB6",
"( 	c #EEFAFF",
"_ 	c #F6F5D4",
": 	c #5B5743",
"< 	c #050305",
"[ 	c #0B0907",
"} 	c #040201",
"| 	c #000002",
"1 	c #313349",
"2 	c #73747B",
"3 	c #848788",
"4 	c #BDCCD9",
"5 	c #F6FCFF",
"6 	c #FAF9E9",
"7 	c #ABA89E",
"8 	c #818184",
"9 	c #75644F",
"0 	c #251A0C",
"a 	c #585D85",
"b 	c #D5D7E6",
"c 	c #F4F4F3",
"d 	c #F8F9FB",
"e 	c #FEFEFC",
"f 	c #F5F4F3",
"g 	c #F4F7FB",
"h 	c #D7B892",
"i 	c #422E15",
"j 	c #030302",
"k 	c #000008",
"l 	c #636992",
"m 	c #E6E8F8",
"n 	c #E8C89F",
"o 	c #4C361C",
"p 	c #7F8182",
"q 	c #8F9093",
"r 	c #BABCCE",
"s 	c #F3F4FB",
"t 	c #FFFFFD",
"u 	c #D9D0C4",
"v 	c #ACA8A3",
"w 	c #A0A1A1",
"x 	c #A2A2A2",
"y 	c #A1A1A1",
"z 	c #A6A6A6",
"A 	c #E3E4E4",
"B 	c #F4E5D4",
"C 	c #AFA69A",
"D 	c #919597",
"E 	c #EFF2F5",
"F 	c #FFFDF8",
"G 	c #A48D70",
"H 	c #352C20",
"I 	c #1A1B1D",
"J 	c #1E1E1E",
"K 	c #1B1B1B",
"L 	c #292929",
"M 	c #BCBDBE",
"N 	c #FFFFFE",
"O 	c #E1E4E7",
"P 	c #9E825F",
"Q 	c #170C00",
"R 	c #080808",
"S 	c #BBBCBD",
"T 	c #FFFEFF",
"U 	c #EEF0F2",
"V 	c #DAD6CD",
"W 	c #A5A4A1",
"X 	c #9A9693",
"Y 	c #5B4B38",
"Z 	c #100902",
"` 	c #070708",
" .	c #6B6C6C",
"..	c #9D9D9B",
"+.	c #9E9EB7",
"@.	c #DFE0EF",
"#.	c #9D927A",
"$.	c #0D0900",
"%.	c #00003D",
"&.	c #A9ACD4",
"*.	c #A49A83",
"=.	c #1D1A11",
"-.	c #0B0C4A",
";.	c #AFB1D7",
">.	c #A39981",
",.	c #1B170F",
"'.	c #090948",
").	c #AEB0D6",
"!.	c #AAA08B",
"~.	c #2D2921",
"{.	c #0D0D0E",
"].	c #0A0806",
"^.	c #020100",
"/.	c #010101",
"(.	c #0C0C0C",
"_.	c #0F0F09",
":.	c #1C1C56",
"<.	c #B4B6D9",
"[.	c #D5D0C6",
"}.	c #989693",
"|.	c #8A8784",
"1.	c #524432",
"2.	c #0E0901",
"3.	c #070707",
"4.	c #616161",
"5.	c #8D8D8A",
"6.	c #8F8FAC",
"7.	c #DADBEC",
"8.	c #9D8261",
"9.	c #1A0F02",
"0.	c #0C0B0C",
"a.	c #B9BABB",
"b.	c #FEFFFF",
"c.	c #FFFEF7",
"d.	c #9A8061",
"e.	c #1F1407",
"f.	c #010204",
"g.	c #050505",
"h.	c #020202",
"i.	c #111111",
"j.	c #B4B5B6",
"k.	c #FEFEFD",
"l.	c #FBFBFA",
"m.	c #F6F7F8",
"n.	c #FFFEFA",
"o.	c #BAA891",
"p.	c #645D54",
"q.	c #505152",
"r.	c #535353",
"s.	c #515151",
"t.	c #5B5B5B",
"u.	c #CCCCCD",
"v.	c #F6ECDF",
"w.	c #C3BCB4",
"x.	c #AFB3B5",
"y.	c #E5C298",
"z.	c #412B0F",
"A.	c #E3E6E8",
"B.	c #E6C49C",
"C.	c #493318",
"D.	c #CCCFD1",
"E.	c #E9E8E9",
"F.	c #EFEFF3",
"G.	c #FCFCFE",
"H.	c #FEFEFB",
"I.	c #EEEDEB",
"J.	c #E9ECF0",
"K.	c #CFB18C",
"L.	c #412E16",
"M.	c #5B608B",
"N.	c #E2E4F4",
"O.	c #F4F3D0",
"P.	c #4D4934",
"Q.	c #000004",
"R.	c #5E648D",
"S.	c #E1E3F2",
"T.	c #FDFDFD",
"U.	c #F2F1CF",
"V.	c #514D38",
"W.	c #000003",
"X.	c #353850",
"Y.	c #7E7F88",
"Z.	c #908F8E",
"`.	c #8D8D8D",
" +	c #8F8F91",
".+	c #878774",
"++	c #2E2B20",
"@+	c #000000",
". . . . . @ # % % % % % % !.= . . . . ",
". . . . . / ( ) ) ) ) ) ) O.P.. . . . ",
". . . k k / ( ) ) ) ) ) ) 6 : . . . . ",
". . 1 Y.3 4 ( ) ) ) ) ) ) 6 7 3 9 e.. ",
". . a A ( ) ) ) ) ) ) ) ) ) I.) h i . ",
". . l m ) ) ) ) ) ) ) ) ) ) ) ) n i . ",
"Y.q r s ) u % ........A ) ) ) ) v.7 ..",
"( ) ) ) ) 8.z.^ J i.J u.) ) ) ) ) ) ) ",
"@.) ) ) ) 8.Z . . . . S ) ) ) ) ) ) ) ",
"I.) V ....1.Z . . . .  ...# @.) ) ) ) ",
") ) >.. . . . . . . . . . %.&.) ) ) ) ",
") ) >.e.. . . . . . . . . %.<.) ) ) ) ",
") ) !.i.. . . . . . . . . %.&.) ) ) ) ",
") ) >.e.. . . . . . . . . -.<.) ) ) ) ",
") ) !.i.. . . . . . . . . '.&.) ) ) ) ",
") ) >.e.. . . . . . . . . -.<.) ) ) ) ",
") ) !.i.. . . . . . . . . %.&.) ) ) ) ",
") ) !.=.i.. . . . . . 0.Q :.<.) ) ) ) ",
") ) V ..Z.1.Z . . . . 4.Z./ @.) ) ) ) ",
") ) ) ) ) P Q . . . i.S ) ) ) ) ) ) ) ",
") ) ) ) ) 8.e.. . . . S ) ) ) ) ) ) ) ",
") ) ) ) ) o.p.r.r.r.4.u.) ) ) ) v.w.% ",
"A ) ) ) ) ) ) ) ) ) ) ) ) ) ) ) n 0 . ",
"A.) ) ) ) ) ) ) ) ) ) ) ) ) ) ) y.C.. ",
"u.I.I.) ) ) ) ) ) ) ) ) ) ) I.I.h z.. ",
". . a N.) ) ) ) ) ) ) ) ) ! o . . . . ",
". . M.@.) ) ) ) ) ) ) ) ) 6 P.. . . . ",
". . X.Y.3 3 3 3 3 3 3 3 3 .+=.. . . . ",
". . . . . . . . . . . . . . . . . . . "};
