/* XPM */
static xpm_row_t const One_xpm[] = {
"42 44 9 1",
" 	c None",
".	c #000000",
"+	c #5D7DB8",
"@	c #FFFFFF",
"#	c #CE8F42",
"$	c #204563",
"%	c #18354C",
"&	c #C5C5C5",
"*	c #9F6F33",
"..........................................",
"..........................................",
"..........................................",
"..........................................",
"..........................................",
"..........................................",
"...........+@@@@@@@@@@@@#.................",
"...........+@@@@@@@@@@@@#.................",
"...........+@@@@@@@@@@@@#.................",
"...........+@@@@@@@@@@@@#.................",
"...........+@@@@@@@@@@@@#.................",
"...........+@@@@@@@@@@@@#.................",
"...............$@@@@@@@@#.................",
"...............$@@@@@@@@#.................",
"...............$@@@@@@@@#.................",
"...............$@@@@@@@@#.................",
"...............$@@@@@@@@#.................",
"...............$@@@@@@@@#.................",
"...............$@@@@@@@@#.................",
"...............$@@@@@@@@#.................",
"...............$@@@@@@@@#.................",
"...............$@@@@@@@@#.................",
"...............$@@@@@@@@#.................",
"...............$@@@@@@@@#.................",
"...............$@@@@@@@@#.................",
"...............$@@@@@@@@#.................",
"...............$@@@@@@@@#.................",
"...............$@@@@@@@@#.................",
"...............$@@@@@@@@#.................",
"...............$@@@@@@@@#.................",
"...............$@@@@@@@@#.................",
"...............$@@@@@@@@#.................",
"...............%&&&&&&&&*.................",
"..........................................",
"..........................................",
"..........................................",
"..........................................",
"..........................................",
"..........................................",
"..........................................",
"..........................................",
"..........................................",
"..........................................",
".........................................."};
