/* XPM */
static xpm_row_t const One_lil_xpm[] = {
"19 28 66 1",
" 	c None",
".	c #000000",
"+	c #010202",
"@	c #030304",
"#	c #040404",
"$	c #040303",
"%	c #010101",
"&	c #1E2532",
"*	c #48494C",
"=	c #4E4E4E",
"-	c #4D4D4D",
";	c #4E4F50",
">	c #4F463B",
",	c #1E150C",
"'	c #020100",
")	c #6780AC",
"!	c #F6FBFF",
"~	c #FFFFFF",
"{	c #FFF2CB",
"]	c #694B28",
"^	c #080400",
"/	c #6077A0",
"(	c #EAEFF9",
"_	c #FFE4C1",
":	c #614725",
"<	c #070300",
"[	c #6178A3",
"}	c #EBF1FA",
"|	c #FFE5C1",
"1	c #5F77A1",
"2	c #E1E6F0",
"3	c #F6F6F4",
"4	c #F4F6F6",
"5	c #FDFDFE",
"6	c #2F3A4E",
"7	c #77787C",
"8	c #7E7C7A",
"9	c #828F9A",
"0	c #E7EBEE",
"a	c #00172D",
"b	c #CCD5DC",
"c	c #0C263B",
"d	c #D1D9DF",
"e	c #0B253A",
"f	c #0B253B",
"g	c #FFE5C2",
"h	c #FFE6C3",
"i	c #624725",
"j	c #092031",
"k	c #B2B9BF",
"l	c #DEDEDE",
"m	c #DADADA",
"n	c #DADAD9",
"o	c #DDE2E8",
"p	c #DCC5A7",
"q	c #533C1F",
"r	c #060300",
"s	c #010609",
"t	c #232525",
"u	c #2C2C2C",
"v	c #2B2B2B",
"w	c #2C2D2E",
"x	c #2C2721",
"y	c #100C06",
"z	c #010100",
"A	c #000000",
"...................",
"...................",
"...................",
"...................",
"...&*;;;;;;;;>,....",
"...)~~~~~~~~~{i....",
"...1}~~~~~~~~{i....",
"...1}~~~~~~~~_i....",
"...100~~~~~~~|i....",
"...67790~~~~~|i....",
"......ab~~~~~|i....",
"......jl~~~~~|i....",
"......jd~~~~~|i....",
"......jd~~~~~|i....",
"......jd~~~~~|i....",
"......fd~~~~~|i....",
"......jd~~~~~|i....",
"......fd~~~~~|i....",
"......jd~~~~~|i....",
"......fd~~~~~|i....",
"......jd~~~~~|i....",
"......fd~~~~~|i....",
"......jd~~~~~|i....",
"......fd~~~~~|i....",
"......jd~~~~~|i....",
"......jkllllopq....",
".......ttttttx^....",
"..................."};
