/* XPM */
static xpm_row_t const P_xpm[] = {
"42 44 64 1",
" 	c None",
".	c #000000",
"+	c #00000B",
"@	c #384040",
"#	c #404040",
"$	c #3E3B38",
"%	c #181511",
"&	c #000028",
"*	c #C7E2E2",
"=	c #E2E2E2",
"-	c #DDD2C5",
";	c #564A3B",
">	c #00002E",
",	c #E0FFFF",
"'	c #FFFFFF",
")	c #F9EDDE",
"!	c #615342",
"~	c #FAF0E3",
"{	c #7A6E60",
"]	c #282828",
"^	c #272726",
"/	c #140E0A",
"(	c #FEFBF8",
"_	c #DFDCD8",
":	c #CACACA",
"<	c #C7C3C1",
"[	c #664635",
"}	c #FAF6F4",
"|	c #805842",
"1	c #FEFDFC",
"2	c #F4F2F1",
"3	c #EDEDED",
"4	c #EEEFF0",
"5	c #F9FAFB",
"6	c #FBF7F5",
"7	c #916F5C",
"8	c #232323",
"9	c #0F0A05",
"0	c #F4EBE7",
"a	c #927C70",
"b	c #4B4B4B",
"c	c #545E67",
"d	c #C0CCD6",
"e	c #6D4C23",
"f	c #F0E3DD",
"g	c #654534",
"h	c #0D1C28",
"i	c #A6B7C5",
"j	c #FDFCFC",
"k	c #D9CDC7",
"l	c #B3B3B3",
"m	c #4D3619",
"n	c #89634F",
"o	c #111111",
"p	c #070502",
"q	c #FCF9F8",
"r	c #DFD9D5",
"s	c #F2E8E2",
"t	c #7E6354",
"u	c #00001A",
"v	c #809090",
"w	c #909090",
"x	c #88817D",
"y	c #3A281E",
"..........................................",
"..........................................",
"..........................................",
"..........................................",
"..........................................",
".......+@#############$%..................",
".......&*=============-;..................",
".......>,''''''''''''')!..................",
".......>,'''''''''''''~{]^/...............",
".......>,'''''''''''''(_:<[...............",
".......>,''''''''''''''''}|...............",
".......>,''''12333333345'67889............",
".......>,''''0abbbbbbbcd'''''e............",
".......>,''''fg.......hi'''''e............",
".......>,''''fg.......hi'''''e............",
".......>,''''fg.......hi'''''e............",
".......>,''''fg.......hi'''''e............",
".......>,''''fg.......hi'''''e............",
".......>,''''fg.......hi'''''e............",
".......>,''''fg.......hi'''''e............",
".......>,''''0abbbbbbbcd'jkllm............",
".......>,''''12333333345'}noop............",
".......>,''''''''''''''''}|...............",
".......>,''''qr::::::::::<[...............",
".......>,''''st]]]]]]]]]]^/...............",
".......>,''''fg...........................",
".......>,''''fg...........................",
".......>,''''fg...........................",
".......>,''''fg...........................",
".......>,''''fg...........................",
".......>,''''fg...........................",
".......>,''''fg...........................",
".......uvwwwwxy...........................",
"..........................................",
"..........................................",
"..........................................",
"..........................................",
"..........................................",
"..........................................",
"..........................................",
"..........................................",
"..........................................",
"..........................................",
".........................................."};
