/* XPM */
static xpm_row_t const P_lil_xpm[] = {
"19 28 115 2",
"  	c None",
". 	c #0E0E0E",
"+ 	c #0E0E0D",
"@ 	c #060605",
"# 	c #000000",
"$ 	c #737373",
"% 	c #726D67",
"& 	c #312A22",
"* 	c #020201",
"= 	c #F9F9F9",
"- 	c #F9F9FA",
"; 	c #F9EDE0",
"> 	c #685B4A",
", 	c #040302",
"' 	c #FFFFFF",
") 	c #FFF6E8",
"! 	c #726454",
"~ 	c #0A0909",
"{ 	c #050403",
"] 	c #FEF7EE",
"^ 	c #A3998E",
"/ 	c #616060",
"( 	c #5E5D5C",
"_ 	c #34261D",
": 	c #030201",
"< 	c #FFFFFE",
"[ 	c #F4F3F2",
"} 	c #EBEBEB",
"| 	c #ECE9E8",
"1 	c #825D49",
"2 	c #060302",
"3 	c #FDFCFC",
"4 	c #FBFBFB",
"5 	c #FBFCFC",
"6 	c #946D57",
"7 	c #110F0D",
"8 	c #FBF7F6",
"9 	c #D3CAC5",
"0 	c #B5B4B4",
"a 	c #B4B4B4",
"b 	c #B6BABE",
"c 	c #E2E7EB",
"d 	c #FEFEFE",
"e 	c #FFFDFC",
"f 	c #BEA89B",
"g 	c #737271",
"h 	c #F3E8E4",
"i 	c #7B5F51",
"j 	c #222121",
"k 	c #202020",
"l 	c #201F1F",
"m 	c #25313C",
"n 	c #A8B7C4",
"o 	c #FBFCFD",
"p 	c #F2E5DE",
"q 	c #654432",
"r 	c #000F1B",
"s 	c #99ABB9",
"t 	c #F2E5E0",
"u 	c #694938",
"v 	c #020101",
"w 	c #081621",
"x 	c #9BADBB",
"y 	c #071621",
"z 	c #071520",
"A 	c #684837",
"B 	c #010101",
"C 	c #06141F",
"D 	c #9AACBB",
"E 	c #F4E8E4",
"F 	c #7D6052",
"G 	c #222221",
"H 	c #212121",
"I 	c #20201F",
"J 	c #28333D",
"K 	c #F0EAE9",
"L 	c #DEDEDE",
"M 	c #F9F5F2",
"N 	c #C5B9B2",
"O 	c #9D9D9C",
"P 	c #9C9C9C",
"Q 	c #9FA4A9",
"R 	c #D8DFE5",
"S 	c #FFFDFD",
"T 	c #B9A194",
"U 	c #676665",
"V 	c #FFFEFC",
"W 	c #8A614A",
"X 	c #FEFCFC",
"Y 	c #F1EDEC",
"Z 	c #E6E6E6",
"` 	c #E5E5E5",
" .	c #E5E6E6",
"..	c #E6E3E2",
"+.	c #7E5A47",
"@.	c #070403",
"#.	c #F8F1EE",
"$.	c #AF9E94",
"%.	c #777777",
"&.	c #767676",
"*.	c #777674",
"=.	c #412F25",
"-.	c #040202",
";.	c #F2E6E0",
">.	c #6B4B3A",
",.	c #050404",
"'.	c #030303",
").	c #674635",
"!.	c #010000",
"~.	c #F4E8E2",
"{.	c #6A4A39",
"].	c #BBBBBB",
"^.	c #B1A8A3",
"/.	c #4E3629",
"(.	c #000000",
"r 7 # 7 @.r 7 # 7 @.r 7 # 7 # # # # # ",
"%.%.%.%.%.%.%.%.%.%.%.%.%.% _ # # # # ",
"] ' ' ' ' ] ' ' ' ' ] ' ' ] > # # # # ",
"' ' ' ' ' ' ' ' ' ' ' ' ' ; ! @ # # # ",
"' ' ' ' ' ' ' ' ' ' ' ' ' ] ^ U U _ # ",
"' ' ' ' ' ' ' ' ' ' ' ' ' ' ] Y Y +.# ",
"' ' ' ' ' 8 ' [ ' Y ' - ' ' ' ' ' 6 7 ",
"' ' ' ' #.9 ^.n ^.n ^.n ^.n c ' ' f % ",
"' ' ' ' Y i G 7 I I I G 7 m x ' ' ' ' ",
"' ' ' ' p /.# # # # # # # r s ' ' ' ' ",
"' ' ' ' ; {.# # # # # # # r s ' ' ' ' ",
"' ' ' ' p q # # # # # # # r n ' ' ' ' ",
"' ' ' ' #.q # # # # # # # r s ' ' ' ' ",
"' ' ' ' p q # # # # # # # r x ' ' ' ' ",
"' ' ' ' #.q # # # # # # # r s ' ' ' ' ",
"' ' ' ' p i G G G G G G G m n ' ' Y L ",
"' ' ' ' #.N P P P P P P P Q L ' ' T U ",
"' ' ' ' ' ' ' ' ' ' ' ' ' ' ' ' ' 1 # ",
"' ' ' ' ' Y Y Y R Y Y c Y c Y R p 1 # ",
"' ' ' ' #.^ g g %.U %.U %.U %.$ $ _ # ",
"' ' ' ' ; q # # # # # # # # # # # # # ",
"' ' ' ' p q # # # # # # # # # # # # # ",
"' ' ' ' #.q # # # # # # # # # # # # # ",
"' ' ' ' p q # # # # # # # # # # # # # ",
"' ' ' ' #.q # # # # # # # # # # # # # ",
"' ' ' ' p q # # # # # # # # # # # # # ",
"' ' ' 8 #.q # # # # # # # # # # # # # ",
"].].0 ].$.=.# # # # # # # # # # # # # "};
