/* XPM */
static xpm_row_t const Q_xpm[] = {
"42 44 103 2",
"  	c None",
". 	c #000000",
"+ 	c #1C1F2E",
"@ 	c #404040",
"# 	c #404036",
"$ 	c #020000",
"% 	c #676EA3",
"& 	c #E2E2E2",
"* 	c #E2E2BF",
"= 	c #060000",
"- 	c #747DB8",
"; 	c #FFFFFF",
"> 	c #FFFFD8",
", 	c #06090C",
"' 	c #282828",
") 	c #8A91C3",
"! 	c #FFFFDE",
"~ 	c #2E2828",
"{ 	c #241B10",
"] 	c #1D2E3C",
"^ 	c #CACACA",
"/ 	c #E3E4F0",
"( 	c #FFFFF7",
"_ 	c #CCCACA",
": 	c #B68A52",
"< 	c #243A4B",
"[ 	c #E5AD67",
"} 	c #000004",
"| 	c #1E2323",
"1 	c #232323",
"2 	c #435564",
"3 	c #FEFDFC",
"4 	c #F2F1EF",
"5 	c #EDEDED",
"6 	c #EEEEEE",
"7 	c #FBFBFB",
"8 	c #E9B97C",
"9 	c #0F0504",
"0 	c #00001F",
"a 	c #DDFFFF",
"b 	c #F5ECE1",
"c 	c #7B6C5A",
"d 	c #4B4B4B",
"e 	c #4B4C4C",
"f 	c #D8D9D9",
"g 	c #6E231B",
"h 	c #F1E5D5",
"i 	c #443016",
"j 	c #010102",
"k 	c #C9C9C9",
"l 	c #928261",
"m 	c #000048",
"n 	c #FBFFFF",
"o 	c #1D2527",
"p 	c #4A4B4B",
"q 	c #4B4B7E",
"r 	c #FCFFFF",
"s 	c #000001",
"t 	c #5B767B",
"u 	c #EAEDED",
"v 	c #EDEDF2",
"w 	c #627F84",
"x 	c #BEB5A2",
"y 	c #696969",
"z 	c #635E57",
"A 	c #1C1309",
"B 	c #4E6569",
"C 	c #C7CACA",
"D 	c #CBCBCB",
"E 	c #F4F4F4",
"F 	c #101415",
"G 	c #272828",
"H 	c #29292A",
"I 	c #D1D1D2",
"J 	c #000018",
"K 	c #ABC5C5",
"L 	c #C5C5C5",
"M 	c #CDD2D6",
"N 	c #F4EBDF",
"O 	c #6E5E4B",
"P 	c #3A3A3A",
"Q 	c #3A3B3B",
"R 	c #D4D5D5",
"S 	c #8F554E",
"T 	c #373636",
"U 	c #060402",
"V 	c #F1F0EE",
"W 	c #1B1308",
"X 	c #233747",
"Y 	c #F3F3F3",
"Z 	c #F8F9FC",
"` 	c #FFFFFD",
" .	c #F6F9FC",
"..	c #F8F5F4",
"+.	c #E6E5E3",
"@.	c #1A1208",
"#.	c #3B81B9",
"$.	c #424769",
"%.	c #909090",
"&.	c #90907A",
"*.	c #030000",
"=.	c #22496A",
"-.	c #3E140E",
". . . . . . . . . . . . . . . . . . . . . . . . . . . . . . . . . . . . . . . . . . ",
". . . . . . . . . . . . . . . . . . . . . . . . . . . . . . . . . . . . . . . . . . ",
". . . . . . . . . . . . . . . . . . . . . . . . . . . . . . . . . . . . . . . . . . ",
". . . . . . . . . . . . . . . . . . . . . . . . . . . . . . . . . . . . . . . . . . ",
". . . . . . . . . . . . . . . . . . . . . . . . . . . . . . . . . . . . . . . . . . ",
". . . . . . . . . . . . + @ @ @ @ @ @ @ @ @ # $ . . . . . . . . . . . . . . . . . . ",
". . . . . . . . . . . . % & & & & & & & & & * = . . . . . . . . . . . . . . . . . . ",
". . . . . . . . . . . . - ; ; ; ; ; ; ; ; ; > = . . . . . . . . . . . . . . . . . . ",
". . . . . . . . . , ' ' ) ; ; ; ; ; ; ; ; ; ! ~ ' { . . . . . . . . . . . . . . . . ",
". . . . . . . . . ] ^ ^ / ; ; ; ; ; ; ; ; ; ( _ ^ : . . . . . . . . . . . . . . . . ",
". . . . . . . . . < ; ; ; ; ; ; ; ; ; ; ; ; ; ; ; [ . . . . . . . . . . . . . . . . ",
". . . . . . } | 1 2 ; ; ; ; 3 4 5 5 5 6 7 ; ; ; ; 8 1 1 9 . . . . . . . . . . . . . ",
". . . . . . 0 a ; ; ; ; ; ; b c d d d e f ; ; ; ; ; ; ; g . . . . . . . . . . . . . ",
". . . . . . 0 a ; ; ; ; ; ; h i . . . j k ; ; ; ; ; ; ; g . . . . . . . . . . . . . ",
". . . . . . 0 a ; ; ; ; ; ; h i . . . j k ; ; ; ; ; ; ; g . . . . . . . . . . . . . ",
". . . . . . 0 a ; ; ; ; l . . . . . . . . . m n ; ; ; ; g . . . . . . . . . . . . . ",
". . . . . . 0 a ; ; ; ; l . . . . . . . . . m n ; ; ; ; g . . . . . . . . . . . . . ",
". . . . . . 0 a ; ; ; ; l . . . . . . . . . m n ; ; ; ; g . . . . . . . . . . . . . ",
". . . . . . 0 a ; ; ; ; l . . . . . . . . . m n ; ; ; ; g . . . . . . . . . . . . . ",
". . . . . . 0 a ; ; ; ; l . . . . . . . . . m n ; ; ; ; g . . . . . . . . . . . . . ",
". . . . . . 0 a ; ; ; ; l . . . . o p d d d q r ; ; ; ; g . . . . . . . . . . . . . ",
". . . . . . 0 a ; ; ; ; l . . . s t u 5 5 5 v ; ; ; ; ; g . . . . . . . . . . . . . ",
". . . . . . 0 a ; ; ; ; l . . . s w n ; ; ; ; ; ; ; ; ; g . . . . . . . . . . . . . ",
". . . . . . 0 a ; ; ; ; x y z A s B C D E ; ; ; ; ; ; ; g . . . . . . . . . . . . . ",
". . . . . . 0 a ; ; ; ; ; ; h i . F G H I ; ; ; ; ; ; ; g . . . . . . . . . . . . . ",
". . . . . . 0 a ; ; ; ; ; ; h i . . . j k ; ; ; ; ; ; ; g . . . . . . . . . . . . . ",
". . . . . . J K L M ; ; ; ; N O P P P Q R ; ; ; ; ; ; ; S P T U . . . . . . . . . . ",
". . . . . . . . . < ; ; ; ; ; ; ; ; ; ; ; ; ; ; ; ; ; ; ; ; V W . . . . . . . . . . ",
". . . . . . . . . < ; ; ; ; ; ; ; ; ; ; ; ; ; ; ; ; ; ; ; ; V W . . . . . . . . . . ",
". . . . . . . . . X Y Y Z ; ; ; ; ; ; ; ; ; ` Y Y  .; ; ..Y +.@.. . . . . . . . . . ",
". . . . . . . . . . . . - ; ; ; ; ; ; ; ; ; > = . #.; ; g . . . . . . . . . . . . . ",
". . . . . . . . . . . . - ; ; ; ; ; ; ; ; ; > = . #.; ; g . . . . . . . . . . . . . ",
". . . . . . . . . . . . $.%.%.%.%.%.%.%.%.%.&.*.. =.%.%.-.. . . . . . . . . . . . . ",
". . . . . . . . . . . . . . . . . . . . . . . . . . . . . . . . . . . . . . . . . . ",
". . . . . . . . . . . . . . . . . . . . . . . . . . . . . . . . . . . . . . . . . . ",
". . . . . . . . . . . . . . . . . . . . . . . . . . . . . . . . . . . . . . . . . . ",
". . . . . . . . . . . . . . . . . . . . . . . . . . . . . . . . . . . . . . . . . . ",
". . . . . . . . . . . . . . . . . . . . . . . . . . . . . . . . . . . . . . . . . . ",
". . . . . . . . . . . . . . . . . . . . . . . . . . . . . . . . . . . . . . . . . . ",
". . . . . . . . . . . . . . . . . . . . . . . . . . . . . . . . . . . . . . . . . . ",
". . . . . . . . . . . . . . . . . . . . . . . . . . . . . . . . . . . . . . . . . . ",
". . . . . . . . . . . . . . . . . . . . . . . . . . . . . . . . . . . . . . . . . . ",
". . . . . . . . . . . . . . . . . . . . . . . . . . . . . . . . . . . . . . . . . . ",
". . . . . . . . . . . . . . . . . . . . . . . . . . . . . . . . . . . . . . . . . . "};
