/* XPM */
static xpm_row_t const Q_lil_xpm[] = {
"19 28 211 2",
"  	c None",
". 	c #000000",
"+ 	c #252943",
"@ 	c #7D808F",
"# 	c #9E9E9C",
"$ 	c #9A9A9A",
"% 	c #9A9A9C",
"& 	c #A4A595",
"* 	c #484539",
"= 	c #3D436D",
"- 	c #CED2EC",
"; 	c #FFFFFF",
"> 	c #FEFEFE",
", 	c #FEFEFF",
"' 	c #FFFFF6",
") 	c #75715D",
"! 	c #0C0D0E",
"~ 	c #0B0A06",
"{ 	c #4D5279",
"] 	c #D4D8F0",
"^ 	c #FFFFFA",
"/ 	c #807D6A",
"( 	c #070407",
"_ 	c #110F0D",
": 	c #070503",
"< 	c #5D6165",
"[ 	c #868583",
"} 	c #A3A6B9",
"| 	c #E9EAF6",
"1 	c #FFFFFC",
"2 	c #BEBCB2",
"3 	c #808184",
"4 	c #85745E",
"5 	c #372814",
"6 	c #A9B2B9",
"7 	c #FEFDFC",
"8 	c #F7F7F9",
"9 	c #FDFDFE",
"0 	c #F9F9F8",
"a 	c #F5F9FD",
"b 	c #F6D5AC",
"c 	c #644723",
"d 	c #B9C2C8",
"e 	c #FCFBFB",
"f 	c #F8F8F8",
"g 	c #F7F7F7",
"h 	c #FBFBFB",
"i 	c #FFFFFE",
"j 	c #FFE4BB",
"k 	c #765B38",
"l 	c #060A0E",
"m 	c #0D0A0A",
"n 	c #E2E5E8",
"o 	c #FFFDF9",
"p 	c #CCC3B8",
"q 	c #96928D",
"r 	c #8C8C8D",
"s 	c #8D8D8D",
"t 	c #878888",
"u 	c #BEBFBF",
"v 	c #F9F9F9",
"w 	c #FFF3E3",
"x 	c #C7BCAE",
"y 	c #A0A5A6",
"z 	c #765A57",
"A 	c #FFFFF7",
"B 	c #96836C",
"C 	c #231B11",
"D 	c #101112",
"E 	c #131313",
"F 	c #060606",
"G 	c #7B7C7C",
"H 	c #F6F6F6",
"I 	c #C59691",
"J 	c #FCFDFE",
"K 	c #FFF9EF",
"L 	c #88755C",
"M 	c #0E0500",
"N 	c #6C6C6C",
"O 	c #EFEFEE",
"P 	c #BB8F8A",
"Q 	c #DBD4C6",
"R 	c #89857D",
"S 	c #6B6865",
"T 	c #3C3429",
"U 	c #080400",
"V 	c #303030",
"W 	c #686865",
"X 	c #65657B",
"Y 	c #BCBED0",
"Z 	c #BFB39A",
"` 	c #251E0E",
" .	c #010101",
"..	c #00000B",
"+.	c #8486AA",
"@.	c #C5BAA3",
"#.	c #322C1D",
"$.	c #00001C",
"%.	c #8A8DB1",
"&.	c #322B1D",
"*.	c #00001B",
"=.	c #8A8CB1",
"-.	c #8A8CB0",
";.	c #0A0E0F",
">.	c #292D2D",
",.	c #383838",
"'.	c #373737",
").	c #373733",
"!.	c #29294D",
"~.	c #A3A5C2",
"{.	c #C4B9A2",
"].	c #312A1C",
"^.	c #243134",
"/.	c #909C9E",
"(.	c #C3C4C3",
"_.	c #BEBEBE",
":.	c #BDBDBC",
"<.	c #B9B9C4",
"[.	c #E1E2EB",
"}.	c #342D1F",
"|.	c #314549",
"1.	c #C9DADC",
"2.	c #D7CFC0",
"3.	c #736E65",
"4.	c #4C4A49",
"5.	c #2C251E",
"6.	c #27363A",
"7.	c #A0AEB0",
"8.	c #D7D8D8",
"9.	c #E8E8E8",
"0.	c #F5F3EF",
"a.	c #DCDBDA",
"b.	c #D8D3CB",
"c.	c #766651",
"d.	c #0C0400",
"e.	c #0C1215",
"f.	c #3E4344",
"g.	c #4B4C4C",
"h.	c #9E9E9F",
"i.	c #BA8E89",
"j.	c #FFFFFD",
"k.	c #917D64",
"l.	c #110800",
"m.	c #6C6C6D",
"n.	c #F2F2F2",
"o.	c #BA8D88",
"p.	c #EEF0F1",
"q.	c #FFFDF6",
"r.	c #A59784",
"s.	c #484139",
"t.	c #363738",
"u.	c #2C2C2C",
"v.	c #8E8E8E",
"w.	c #F5F5F5",
"x.	c #CAA8A4",
"y.	c #C1C8CE",
"z.	c #E4DFD9",
"A.	c #C7C5C2",
"B.	c #C2C2C2",
"C.	c #C3C3C3",
"D.	c #C0C0C0",
"E.	c #DDDDDD",
"F.	c #FCFCFC",
"G.	c #EFE4E3",
"H.	c #B1BAC2",
"I.	c #979FA5",
"J.	c #E0DFDD",
"K.	c #E2E3E9",
"L.	c #F8F9FC",
"M.	c #EBEAE7",
"N.	c #D6D5D4",
"O.	c #DBE2E7",
"P.	c #F2F7FC",
"Q.	c #F5EFEE",
"R.	c #333638",
"S.	c #474642",
"T.	c #747999",
"U.	c #DDE1F4",
"V.	c #9D9C8E",
"W.	c #3D3938",
"X.	c #53748E",
"Y.	c #BEDAF1",
"Z.	c #CDACA8",
"`.	c #323965",
" +	c #C5C9E4",
".+	c #FEFDFA",
"++	c #FFFFF0",
"@+	c #6B6956",
"#+	c #053256",
"$+	c #9AC1E0",
"%+	c #AF817C",
"&+	c #262A43",
"*+	c #9A9A9B",
"=+	c #A4A495",
"-+	c #474539",
";+	c #0C253A",
">+	c #657B8D",
",+	c #A6A7A5",
"'+	c #715753",
")+	c #08090E",
"!+	c #1A1A1D",
"~+	c #202020",
"{+	c #1F1F1F",
"]+	c #1F1F20",
"^+	c #22221F",
"/+	c #0F0E0C",
"(+	c #03080C",
"_+	c #15191D",
":+	c #222222",
"<+	c #171211",
"[+	c #000000",
". . + 3 $ $ $ $ $ $ $ $ & -+. . . . . ",
". . `.U.; ; ; ; ; ; ; ; ; ) . . . . . ",
"D . { ] ; ; ; ; ; ; ; ; ; 4 . l.. . . ",
"< t } P.; ; ; ; ; ; ; ; ; :.t 4 5 . . ",
"} ; L.; ; ; ; ; ; ; ; ; ; ; a j c . . ",
"y.; ; ; ; ; L.++P.; ; ; ; ; ; j k . . ",
"E.; ; ; ; p t t t G :.0.; ; ; w p ,+z ",
"; ; ; ; ++k.C m D . G ; ; ; ; ; ; ; I ",
"; ; ; ; ++L M . . . W O ; ; ; ; ; ; o.",
"; ; 2.G W 5.. . . . >.W { Y ; ; ; ; o.",
"; ; {.l.. . . . . . . . . r ; ; ; ; o.",
"; ; {.5 . . . . . . . . $.=.; ; ; ; o.",
"; ; x }.. . . . . . . . ..=.; ; ; ; o.",
"; ; {.5 . . . . . . . . $.=.; ; ; ; o.",
"; ; x 5.. . . ..V V V V !.~.; ; ; ; o.",
"; ; {.5 . . . ^.y y.y.p Y [.; ; ; ; o.",
"; ; x }.. . . |.1.; ; ; ; ; ; ; ; ; o.",
"; ; 2.c.g.:+. ^.7.E.O ; ; ; ; ; ; ; o.",
"; ; 0.E.Q L . D |.S.$ O ; ; ; ; ; ; o.",
"; ; ; ; ; L M . . . W ; ; ; ; ; ; ; o.",
"O ; ; ; ; r.* V V :+t O ; ; ; ; ; ; Z.",
"y.; ; ; ; G.p y.y.y.G.; ; ; ; ; ; ; G.",
"6 ; ; ; ; ; ; ; ; ; ; ; ; ; ; ; ; ; ; ",
"y E.n ; ; ; ; ; ; ; ; ; ; E.b.[.P.; O ",
"^.S.>+[.; ; ; ; ; ; ; ; ; $ V X.Y.; Z.",
". . `.- ; O ; O ; O ; O ++@+. #+$+; %+",
". . ;+@ $ $ $ $ $ $ $ $ & -+. ;+X.,+'+",
". . m D !+D C _+D C _+D :+. . . D :+D "};
