/* XPM */
static xpm_row_t const R_xpm[] = {
"42 44 99 2",
"  	c None",
". 	c #000000",
"+ 	c #000002",
"@ 	c #1A2024",
"# 	c #3E4040",
"$ 	c #404040",
"% 	c #363529",
"& 	c #010000",
"* 	c #000006",
"= 	c #5D7182",
"- 	c #DBE2E2",
"; 	c #E2E2E2",
"> 	c #BEBC91",
", 	c #050000",
"' 	c #697F92",
") 	c #F8FFFF",
"! 	c #FFFFFF",
"~ 	c #D6D4A3",
"{ 	c #DDDBB2",
"] 	c #2D2828",
"^ 	c #282828",
"/ 	c #1E160D",
"( 	c #F6F6EC",
"_ 	c #CCCACA",
": 	c #CACACA",
"< 	c #977142",
"[ 	c #BF8E53",
"} 	c #FFFEFE",
"| 	c #F6F5F3",
"1 	c #EDEDED",
"2 	c #F0F0F6",
"3 	c #C79E6B",
"4 	c #232323",
"5 	c #110605",
"6 	c #FCF9F3",
"7 	c #9C9482",
"8 	c #4B4B4B",
"9 	c #6969A7",
"0 	c #FDFFFF",
"a 	c #7A2F24",
"b 	c #FBF7EE",
"c 	c #72674D",
"d 	c #2A2B83",
"e 	c #FCFFFF",
"f 	c #101010",
"g 	c #616262",
"h 	c #626262",
"i 	c #7C7DB3",
"j 	c #2A2A2B",
"k 	c #FCFDFE",
"l 	c #9C9481",
"m 	c #696969",
"n 	c #FDFEFF",
"o 	c #F3F2E4",
"p 	c #B5B3B3",
"q 	c #B3B3B3",
"r 	c #86643B",
"s 	c #F5F4F3",
"t 	c #F0F0F0",
"u 	c #D9D7A9",
"v 	c #161111",
"w 	c #111111",
"x 	c #0D0A06",
"y 	c #FEFDFB",
"z 	c #E2E0DB",
"A 	c #D1D3D5",
"B 	c #F9FFFF",
"C 	c #E7E6C9",
"D 	c #6C6969",
"E 	c #4E3A22",
"F 	c #FBF8F1",
"G 	c #89806A",
"H 	c #434C51",
"I 	c #E5FFFF",
"J 	c #212B31",
"K 	c #E0FFFF",
"L 	c #192125",
"M 	c #AEC5C5",
"N 	c #C5C5C5",
"O 	c #CFCFCF",
"P 	c #FEFFFF",
"Q 	c #CDA87A",
"R 	c #3A3A3A",
"S 	c #1C0B08",
"T 	c #282829",
"U 	c #F1F2F3",
"V 	c #F3F3F3",
"W 	c #F5F5F9",
"X 	c #FCFAF7",
"Y 	c #752D22",
"Z 	c #000004",
"` 	c #3C4853",
" .	c #8C9090",
"..	c #909090",
"+.	c #8E8C87",
"@.	c #413B2C",
"#.	c #18184A",
"$.	c #8F9090",
"%.	c #6C502F",
". . . . . . . . . . . . . . . . . . . . . . . . . . . . . . . . . . . . . . . . . . ",
". . . . . . . . . . . . . . . . . . . . . . . . . . . . . . . . . . . . . . . . . . ",
". . . . . . . . . . . . . . . . . . . . . . . . . . . . . . . . . . . . . . . . . . ",
". . . . . . . . . . . . . . . . . . . . . . . . . . . . . . . . . . . . . . . . . . ",
". . . . . . . . . . . . . . . . . . . . . . . . . . . . . . . . . . . . . . . . . . ",
". . . . . . + @ # $ $ $ $ $ $ $ $ $ $ $ $ $ $ $ % & . . . . . . . . . . . . . . . . ",
". . . . . . * = - ; ; ; ; ; ; ; ; ; ; ; ; ; ; ; > , . . . . . . . . . . . . . . . . ",
". . . . . . * ' ) ! ! ! ! ! ! ! ! ! ! ! ! ! ! ! ~ , . . . . . . . . . . . . . . . . ",
". . . . . . * ' ) ! ! ! ! ! ! ! ! ! ! ! ! ! ! ! { ] ^ / . . . . . . . . . . . . . . ",
". . . . . . * ' ) ! ! ! ! ! ! ! ! ! ! ! ! ! ! ! ( _ : < . . . . . . . . . . . . . . ",
". . . . . . * ' ) ! ! ! ! ! ! ! ! ! ! ! ! ! ! ! ! ! ! [ . . . . . . . . . . . . . . ",
". . . . . . * ' ) ! ! ! } | 1 1 1 1 1 1 1 1 1 1 2 ! ! 3 4 4 5 . . . . . . . . . . . ",
". . . . . . * ' ) ! ! ! 6 7 8 8 8 8 8 8 8 8 8 8 9 0 ! ! ! ! a . . . . . . . . . . . ",
". . . . . . * ' ) ! ! ! b c . . . . . . . . . . d e ! ! ! ! a . . . . . . . . . . . ",
". . . . . . * ' ) ! ! ! b c . . . . . . . . . . d e ! ! ! ! a . . . . . . . . . . . ",
". . . . . . * ' ) ! ! ! b c . . . . . . . . . . d e ! ! ! ! a . . . . . . . . . . . ",
". . . . . . * ' ) ! ! ! b c . . . . . . . . . . d e ! ! ! ! a . . . . . . . . . . . ",
". . . . . . * ' ) ! ! ! b c . . . . . . . f g h i 0 ! ! ! ! a . . . . . . . . . . . ",
". . . . . . * ' ) ! ! ! b c . . . . . . . j k ! ! ! ! [ . . . . . . . . . . . . . . ",
". . . . . . * ' ) ! ! ! b c . . . . . . . j k ! ! ! ! [ . . . . . . . . . . . . . . ",
". . . . . . * ' ) ! ! ! 6 l 8 8 8 8 8 8 8 m n ! o p q r . . . . . . . . . . . . . . ",
". . . . . . * ' ) ! ! ! } s 1 1 1 1 1 1 1 t ! ! u v w x . . . . . . . . . . . . . . ",
". . . . . . * ' ) ! ! ! ! ! ! ! ! ! ! ! ! ! ! ! ~ , . . . . . . . . . . . . . . . . ",
". . . . . . * ' ) ! ! ! y z : : : : A B ! ! ! ! C D m E . . . . . . . . . . . . . . ",
". . . . . . * ' ) ! ! ! F G ^ ^ ^ ^ H I ! ! ! ! ! ! ! [ . . . . . . . . . . . . . . ",
". . . . . . * ' ) ! ! ! b c . . . . J K ! ! ! ! ! ! ! [ . . . . . . . . . . . . . . ",
". . . . . . * ' ) ! ! ! b c . . . . L M N O P ! ! ! ! Q R R S . . . . . . . . . . . ",
". . . . . . * ' ) ! ! ! b c . . . . . . . j k ! ! ! ! ! ! ! a . . . . . . . . . . . ",
". . . . . . * ' ) ! ! ! b c . . . . . . . j k ! ! ! ! ! ! ! a . . . . . . . . . . . ",
". . . . . . * ' ) ! ! ! b c . . . . . . . T U V W ! ! X V V Y . . . . . . . . . . . ",
". . . . . . * ' ) ! ! ! b c . . . . . . . . . . d e ! [ . . . . . . . . . . . . . . ",
". . . . . . * ' ) ! ! ! b c . . . . . . . . . . d e ! [ . . . . . . . . . . . . . . ",
". . . . . . Z `  .......+.@.. . . . . . . . . . #.$...%.. . . . . . . . . . . . . . ",
". . . . . . . . . . . . . . . . . . . . . . . . . . . . . . . . . . . . . . . . . . ",
". . . . . . . . . . . . . . . . . . . . . . . . . . . . . . . . . . . . . . . . . . ",
". . . . . . . . . . . . . . . . . . . . . . . . . . . . . . . . . . . . . . . . . . ",
". . . . . . . . . . . . . . . . . . . . . . . . . . . . . . . . . . . . . . . . . . ",
". . . . . . . . . . . . . . . . . . . . . . . . . . . . . . . . . . . . . . . . . . ",
". . . . . . . . . . . . . . . . . . . . . . . . . . . . . . . . . . . . . . . . . . ",
". . . . . . . . . . . . . . . . . . . . . . . . . . . . . . . . . . . . . . . . . . ",
". . . . . . . . . . . . . . . . . . . . . . . . . . . . . . . . . . . . . . . . . . ",
". . . . . . . . . . . . . . . . . . . . . . . . . . . . . . . . . . . . . . . . . . ",
". . . . . . . . . . . . . . . . . . . . . . . . . . . . . . . . . . . . . . . . . . ",
". . . . . . . . . . . . . . . . . . . . . . . . . . . . . . . . . . . . . . . . . . "};
