/* XPM */
static xpm_row_t const R_lil_xpm[] = {
"18 28 176 2",
"  	c None",
". 	c #000000",
"+ 	c #404040",
"@ 	c #3E3E3E",
"# 	c #3F3F3F",
"$ 	c #37362E",
"% 	c #11110C",
"& 	c #E4E5E4",
"* 	c #DEDEDE",
"= 	c #DEDEDF",
"- 	c #E1E1E1",
"; 	c #C2C0A5",
"> 	c #3D3B2A",
", 	c #FFFFFF",
"' 	c #FEFEFE",
") 	c #FEFEFF",
"! 	c #DFDEBE",
"~ 	c #454430",
"{ 	c #E5E4C9",
"] 	c #625F50",
"^ 	c #222021",
"/ 	c #1F1B15",
"( 	c #F8F8F1",
"_ 	c #D9D9D7",
": 	c #CAC5C0",
"< 	c #937A5C",
"[ 	c #FEFFFF",
"} 	c #FFFBF3",
"| 	c #BA9A74",
"1 	c #FBFAF9",
"2 	c #EDEDEA",
"3 	c #E4E4E4",
"4 	c #E3E3E4",
"5 	c #E7E8EE",
"6 	c #F8F9FE",
"7 	c #FFFDF6",
"8 	c #C8AE90",
"9 	c #E2DDD4",
"0 	c #837E73",
"a 	c #474645",
"b 	c #444445",
"c 	c #464646",
"d 	c #464644",
"e 	c #424243",
"f 	c #5E5F87",
"g 	c #CDCEE7",
"h 	c #FCFAF8",
"i 	c #D7D0C2",
"j 	c #524B3C",
"k 	c #050401",
"l 	c #020202",
"m 	c #030303",
"n 	c #030302",
"o 	c #21215A",
"p 	c #BABADE",
"q 	c #534C3C",
"r 	c #040300",
"s 	c #20215A",
"t 	c #D7D1C3",
"u 	c #534D3D",
"v 	c #1F2059",
"w 	c #010101",
"x 	c #050604",
"y 	c #030305",
"z 	c #272860",
"A 	c #BCBDDF",
"B 	c #070707",
"C 	c #525352",
"D 	c #7B7C7B",
"E 	c #8A8AA8",
"F 	c #DBDBEE",
"G 	c #F6F1EC",
"H 	c #D6D0C2",
"I 	c #514B3B",
"J 	c #030200",
"K 	c #0E0E0F",
"L 	c #A9A9AA",
"M 	c #F9F9FA",
"N 	c #FFFDF5",
"O 	c #BA9973",
"P 	c #D8D2C4",
"Q 	c #585142",
"R 	c #0A0906",
"S 	c #050505",
"T 	c #060606",
"U 	c #141415",
"V 	c #B0B1B1",
"W 	c #FFFEFE",
"X 	c #FCFCFD",
"Y 	c #FCF5ED",
"Z 	c #B59570",
"` 	c #E7E4DB",
" .	c #99958B",
"..	c #686766",
"+.	c #656566",
"@.	c #686868",
"#.	c #666666",
"$.	c #717171",
"%.	c #CFCFCF",
"&.	c #F2F2E5",
"*.	c #B3B1AC",
"=.	c #948F8D",
"-.	c #6D5B45",
";.	c #FEFDFD",
">.	c #F9F9F8",
",.	c #F6F6F6",
"'.	c #F5F5F5",
").	c #F4F4F4",
"!.	c #FCFCFC",
"~.	c #E0DEBF",
"{.	c #4B4A36",
"].	c #000001",
"^.	c #060503",
"/.	c #FDFDFD",
"(.	c #E1E0C1",
"_.	c #4F4D3B",
":.	c #040305",
"<.	c #090706",
"[.	c #F2F0EB",
"}.	c #C5C3BE",
"|.	c #A9A8A8",
"1.	c #A7A7A8",
"2.	c #A8A7A7",
"3.	c #A9A9AB",
"4.	c #D6DEDF",
"5.	c #FCFFFF",
"6.	c #F1F0E1",
"7.	c #AAA8A1",
"8.	c #888381",
"9.	c #655440",
"0.	c #DBD6C9",
"a.	c #666051",
"b.	c #1C1C19",
"c.	c #181819",
"d.	c #181817",
"e.	c #1B1E21",
"f.	c #93A8AB",
"g.	c #F9FFFF",
"h.	c #FEFEFD",
"i.	c #FBFBFC",
"j.	c #FFFCF3",
"k.	c #BC9D76",
"l.	c #000306",
"m.	c #81999C",
"n.	c #F3FFFF",
"o.	c #FEFCFC",
"p.	c #FFFDF4",
"q.	c #BC9D77",
"r.	c #D7D1C2",
"s.	c #000204",
"t.	c #4B595A",
"u.	c #8B9393",
"v.	c #999999",
"w.	c #DDDCDD",
"x.	c #FFFDF9",
"y.	c #D8C6B0",
"z.	c #040505",
"A.	c #050606",
"B.	c #0F0E0F",
"C.	c #ABABAC",
"D.	c #FDFCFB",
"E.	c #B1B1B1",
"F.	c #0A0A0A",
"G.	c #747475",
"H.	c #AFAFB0",
"I.	c #B5B5C8",
"J.	c #E8E9F5",
"K.	c #FFFFFD",
"L.	c #E8DED0",
"M.	c #DBD4C6",
"N.	c #564F3E",
"O.	c #060600",
"P.	c #22225A",
"Q.	c #B9BBE2",
"R.	c #BC9B73",
"S.	c #000000",
". . . . . . . . . . . . . . . . . . ",
". . . . . . . . . . . . . . . . . . ",
"b $ b $ b $ b $ b $ b $ b $ $ % . . ",
"2 F w.F & w.F & w.F w.5 w.2 ; $ . . ",
", , , , , , , , , , , , , , { > . . ",
", , , , , , , , , , , , , , 0.-.^ B.",
", , , , , , , , , , , , , , j.w.%.< ",
", , , , , , , , , , , , , , , , j.Z ",
", , , j.2 & & w.6.w.& w.& w.5 , , 8 ",
", , , 0.G.~ b b @ b b b b $ f g , , ",
", , , 0.j . . . . . . . . . v p , , ",
", , , i I . . . . . . . . . v p , , ",
", , , 0.N.. . . . . . . . . v p , , ",
", , , i I . . . . . . . . . z p , , ",
", , , 0.I . . . . . . . C D E F , j.",
", , , i I . . . . . . B.V , , , j.Z ",
", , , 0.Q <.. . . . . B.L , , , j.Z ",
", , , `  .#.#.$.#.G.#.G.w., 6.L 8.9.",
", , , , , j., , , ( , ( , , { ~ . . ",
", , , , , , n.Y , , , , , , ! ~ . <.",
", , , 2 }.7.1.1.f.4.n., , , 6.*.8.9.",
", , , M.Q B.B.B.e.f., , , , , , j.| ",
", , , M.Q . . . . m.n., , , , , , | ",
", , , i I . . . . t.8.v.w., , , j.y.",
", , , 0.I . . . . . . . L , , , , , ",
", , , i I . . . . . . B.}., , , , , ",
", , , i N.. . . . . . . #.L I.2 , L.",
", , , 0.I . . . . . . . l.. v Q., Z "};
