/* XPM */
static xpm_row_t const S_xpm[] = {
"42 44 122 2",
"  	c None",
". 	c #000000",
"+ 	c #010206",
"@ 	c #242631",
"# 	c #404040",
"$ 	c #302415",
"% 	c #050715",
"& 	c #8186B0",
"* 	c #E2E2E2",
"= 	c #A97E4A",
"- 	c #060818",
"; 	c #9197C6",
"> 	c #FFFFFF",
", 	c #BF8E53",
"' 	c #000102",
") 	c #151718",
"! 	c #282828",
"~ 	c #2D2F3C",
"{ 	c #A3A8CF",
"] 	c #C9A06E",
"^ 	c #130806",
"/ 	c #020508",
"( 	c #6C757C",
"_ 	c #CACACA",
": 	c #CCCCCF",
"< 	c #E9EAF3",
"[ 	c #F2E8DB",
"} 	c #61261D",
"| 	c #03070A",
"1 	c #89939C",
"2 	c #7A2F24",
"3 	c #000001",
"4 	c #0E1114",
"5 	c #222323",
"6 	c #26292B",
"7 	c #9AA3AA",
"8 	c #FEFEFD",
"9 	c #F4F2F0",
"0 	c #EDEDED",
"a 	c #F0F0F6",
"b 	c #FBF7F3",
"c 	c #722C21",
"d 	c #000006",
"e 	c #697F92",
"f 	c #F8FFFF",
"g 	c #F8F1E8",
"h 	c #917C61",
"i 	c #4B4B4B",
"j 	c #6969A7",
"k 	c #FDFFFF",
"l 	c #D1AF86",
"m 	c #240E0A",
"n 	c #F5EBDF",
"o 	c #634520",
"p 	c #2A2B83",
"q 	c #FCFFFF",
"r 	c #E7D4D1",
"s 	c #370000",
"t 	c #F0E4E2",
"u 	c #846262",
"v 	c #626262",
"w 	c #493720",
"x 	c #101C26",
"y 	c #AED3F1",
"z 	c #010203",
"A 	c #282B2E",
"B 	c #4A4946",
"C 	c #221F17",
"D 	c #0B141B",
"E 	c #7B95AA",
"F 	c #B3B3B3",
"G 	c #C0C0C0",
"H 	c #FEFEFF",
"I 	c #D1AF85",
"J 	c #240E0B",
"K 	c #030609",
"L 	c #7F8992",
"M 	c #E9E6DE",
"N 	c #6B6148",
"O 	c #0C0F10",
"P 	c #111111",
"Q 	c #383939",
"R 	c #FDFEFF",
"S 	c #FBF7EE",
"T 	c #72674D",
"U 	c #2A2A2B",
"V 	c #FCFDFE",
"W 	c #000003",
"X 	c #2B343C",
"Y 	c #656969",
"Z 	c #6A6C6E",
"` 	c #BAC0C5",
" .	c #FCFAF5",
"..	c #ACA596",
"+.	c #696969",
"@.	c #65605B",
"#.	c #291D0D",
"$.	c #212122",
"%.	c #C9C9CA",
"&.	c #D3D3E5",
"*.	c #FEFFFF",
"=.	c #070707",
"-.	c #4B4C96",
";.	c #000005",
">.	c #526371",
",.	c #BFC5C5",
"'.	c #C6C7C7",
").	c #E4E7E9",
"!.	c #F8F0E6",
"~.	c #866F52",
"{.	c #3A3A3A",
"].	c #5A5B9F",
"^.	c #838D95",
"/.	c #F3F3F3",
"(.	c #F3F3F4",
"_.	c #FAFAFC",
":.	c #FCFAF7",
"<.	c #752D22",
"[.	c #03050E",
"}.	c #535671",
"|.	c #909090",
"1.	c #6C502F",
". . . . . . . . . . . . . . . . . . . . . . . . . . . . . . . . . . . . . . . . . . ",
". . . . . . . . . . . . . . . . . . . . . . . . . . . . . . . . . . . . . . . . . . ",
". . . . . . . . . . . . . . . . . . . . . . . . . . . . . . . . . . . . . . . . . . ",
". . . . . . . . . . . . . . . . . . . . . . . . . . . . . . . . . . . . . . . . . . ",
". . . . . . . . . . . . . . . . . . . . . . . . . . . . . . . . . . . . . . . . . . ",
". . . . . . . . . . . . + @ # # # # # # # # # # # # # $ . . . . . . . . . . . . . . ",
". . . . . . . . . . . . % & * * * * * * * * * * * * * = . . . . . . . . . . . . . . ",
". . . . . . . . . . . . - ; > > > > > > > > > > > > > , . . . . . . . . . . . . . . ",
". . . . . . . . . ' ) ! ~ { > > > > > > > > > > > > > ] ! ! ^ . . . . . . . . . . . ",
". . . . . . . . . / ( _ : < > > > > > > > > > > > > > [ _ _ } . . . . . . . . . . . ",
". . . . . . . . . | 1 > > > > > > > > > > > > > > > > > > > 2 . . . . . . . . . . . ",
". . . . . . 3 4 5 6 7 > > > > 8 9 0 0 0 0 0 0 0 a > > b 0 0 c . . . . . . . . . . . ",
". . . . . . d e f > > > > > > g h i i i i i i i j k > l i i m . . . . . . . . . . . ",
". . . . . . d e f > > > > > > n o . . . . . . . p q > , . . . . . . . . . . . . . . ",
". . . . . . d e f > > > > > > n o . . . . . . . p q > , . . . . . . . . . . . . . . ",
". . . . . . . . . | 1 > > > > > > > r s . . . . . . . . . . . . . . . . . . . . . . ",
". . . . . . . . . | 1 > > > > > > > r s . . . . . . . . . . . . . . . . . . . . . . ",
". . . . . . . . . | 1 > > > > > > > t u v v v v v v v w . . . . . . . . . . . . . . ",
". . . . . . . . . . . . . . . x y > > > > > > > > > > , . . . . . . . . . . . . . . ",
". . . . . . . . . . . . . . . x y > > > > > > > > > > , . . . . . . . . . . . . . . ",
". . . . . . . . . z A i B C . D E F F F F G H > > > > I i i J . . . . . . . . . . . ",
". . . . . . . . . K L 0 M N . z O P P P P Q R > > > > b 0 0 c . . . . . . . . . . . ",
". . . . . . . . . | 1 > S T . . . . . . . U V > > > > > > > 2 . . . . . . . . . . . ",
". . . . . . W X Y Z ` >  ...+.@.#.. . . . $.%._ &.*.> > > > 2 . . . . . . . . . . . ",
". . . . . . d e f > > > > > > n o . . . . =.! ! -.q > > > > 2 . . . . . . . . . . . ",
". . . . . . d e f > > > > > > n o . . . . . . . p q > > > > 2 . . . . . . . . . . . ",
". . . . . . ;.>.,.'.).> > > > !.~.{.{.{.{.{.{.{.].k > > > > 2 . . . . . . . . . . . ",
". . . . . . . . . | 1 > > > > > > > > > > > > > > > > > > > 2 . . . . . . . . . . . ",
". . . . . . . . . | 1 > > > > > > > > > > > > > > > > > > > 2 . . . . . . . . . . . ",
". . . . . . . . . K ^./.(._.> > > > > > > > > > > > > :././.<.. . . . . . . . . . . ",
". . . . . . . . . . . . - ; > > > > > > > > > > > > > , . . . . . . . . . . . . . . ",
". . . . . . . . . . . . - ; > > > > > > > > > > > > > , . . . . . . . . . . . . . . ",
". . . . . . . . . . . . [.}.|.|.|.|.|.|.|.|.|.|.|.|.|.1.. . . . . . . . . . . . . . ",
". . . . . . . . . . . . . . . . . . . . . . . . . . . . . . . . . . . . . . . . . . ",
". . . . . . . . . . . . . . . . . . . . . . . . . . . . . . . . . . . . . . . . . . ",
". . . . . . . . . . . . . . . . . . . . . . . . . . . . . . . . . . . . . . . . . . ",
". . . . . . . . . . . . . . . . . . . . . . . . . . . . . . . . . . . . . . . . . . ",
". . . . . . . . . . . . . . . . . . . . . . . . . . . . . . . . . . . . . . . . . . ",
". . . . . . . . . . . . . . . . . . . . . . . . . . . . . . . . . . . . . . . . . . ",
". . . . . . . . . . . . . . . . . . . . . . . . . . . . . . . . . . . . . . . . . . ",
". . . . . . . . . . . . . . . . . . . . . . . . . . . . . . . . . . . . . . . . . . ",
". . . . . . . . . . . . . . . . . . . . . . . . . . . . . . . . . . . . . . . . . . ",
". . . . . . . . . . . . . . . . . . . . . . . . . . . . . . . . . . . . . . . . . . ",
". . . . . . . . . . . . . . . . . . . . . . . . . . . . . . . . . . . . . . . . . . "};
