/* XPM */
static xpm_row_t const S_lil_xpm[] = {
"19 29 253 2",
"  	c None",
". 	c #000000",
"+ 	c #010101",
"@ 	c #06060A",
"# 	c #18181B",
"$ 	c #202021",
"% 	c #202020",
"& 	c #212021",
"* 	c #21201E",
"= 	c #14100C",
"- 	c #040201",
"; 	c #222438",
"> 	c #87899A",
", 	c #B9B9BB",
"' 	c #B9B9B8",
") 	c #B7B7B7",
"! 	c #B9BBBD",
"~ 	c #BCB5AD",
"{ 	c #725D44",
"] 	c #140D04",
"^ 	c #303350",
"/ 	c #BFC2DB",
"( 	c #FFFFFF",
"_ 	c #FFFEF2",
": 	c #A28360",
"< 	c #1D1306",
"[ 	c #010102",
"} 	c #161818",
"| 	c #222223",
"1 	c #52566E",
"2 	c #C8CBDF",
"3 	c #FEFFFF",
"4 	c #FFFBF2",
"5 	c #B2987B",
"6 	c #3F3932",
"7 	c #030608",
"8 	c #666D72",
"9 	c #C4C6C7",
"0 	c #DDDDE2",
"a 	c #F3F3F8",
"b 	c #FFFEFC",
"c 	c #EEE7E1",
"d 	c #DEE1E0",
"e 	c #070B0E",
"f 	c #82898F",
"g 	c #F0F2F4",
"h 	c #FEFEFE",
"i 	c #FDFDFD",
"j 	c #FEFEFF",
"k 	c #4F5356",
"l 	c #6B6E6F",
"m 	c #B3B9BC",
"n 	c #F5F7F8",
"o 	c #FFFFFE",
"p 	c #E5DFD7",
"q 	c #C3C1BD",
"r 	c #BCBCBC",
"s 	c #BDBDBD",
"t 	c #BBBBBA",
"u 	c #C2C3D1",
"v 	c #EFF0F7",
"w 	c #FFFFFC",
"x 	c #E7DDD5",
"y 	c #CBCFCD",
"z 	c #D7DEE5",
"A 	c #FFFFFA",
"B 	c #A48E74",
"C 	c #332A20",
"D 	c #191A1C",
"E 	c #1E1E1E",
"F 	c #1A1914",
"G 	c #2F3064",
"H 	c #C9CAE4",
"I 	c #FFFFF6",
"J 	c #AC9172",
"K 	c #352C23",
"L 	c #CBD2D9",
"M 	c #FDFDFC",
"N 	c #FBFBFC",
"O 	c #917759",
"P 	c #1B1005",
"Q 	c #020204",
"R 	c #010000",
"S 	c #111451",
"T 	c #BABCDA",
"U 	c #A0845E",
"V 	c #1C1002",
"W 	c #424648",
"X 	c #595D5E",
"Y 	c #AAAFB3",
"Z 	c #F4F5F7",
"` 	c #FFFFFD",
" .	c #DDD5CB",
"..	c #B5B4B0",
"+.	c #8E7F7E",
"@.	c #2D1C1B",
"#.	c #06071A",
"$.	c #41414B",
"%.	c #5A5652",
"&.	c #362C1F",
"*.	c #0A0602",
"=.	c #778086",
"-.	c #EEF0F2",
";.	c #E1C7C5",
">.	c #492F2E",
",.	c #020000",
"'.	c #030404",
").	c #040404",
"!.	c #030303",
"~.	c #05080B",
"{.	c #7B8288",
"].	c #E4E6E8",
"^.	c #F6F6F5",
"/.	c #F3F3F3",
"(.	c #F3F3F4",
"_.	c #F9FAFB",
":.	c #E6D7D6",
"<.	c #897272",
"[.	c #5B5656",
"}.	c #5B5C5C",
"|.	c #5C5C5C",
"1.	c #5D5E5F",
"2.	c #5E5B56",
"3.	c #393022",
"4.	c #0A0702",
"5.	c #030304",
"6.	c #060506",
"7.	c #070707",
"8.	c #060505",
"9.	c #050A0F",
"0.	c #7A96AC",
"a.	c #ECF7FF",
"b.	c #FFF8EC",
"c.	c #9E805D",
"d.	c #1C1105",
"e.	c #080808",
"f.	c #000106",
"g.	c #6F8BA2",
"h.	c #E3EEF7",
"i.	c #F9F8F7",
"j.	c #F7F7F7",
"k.	c #FCFCFC",
"l.	c #FFFBEF",
"m.	c #A48765",
"n.	c #241A0F",
"o.	c #020405",
"p.	c #3C3F44",
"q.	c #7A7B7C",
"r.	c #6A665E",
"s.	c #201D17",
"t.	c #000003",
"u.	c #3C4B58",
"v.	c #7A8085",
"w.	c #858584",
"x.	c #828282",
"y.	c #818181",
"z.	c #C5C5C6",
"A.	c #FAFAFA",
"B.	c #FFFCF6",
"C.	c #CDBEAB",
"D.	c #8A8985",
"E.	c #020609",
"F.	c #7E858D",
"G.	c #F8FBFF",
"H.	c #D8D1C1",
"I.	c #423C2F",
"J.	c #858788",
"K.	c #F4F5F5",
"L.	c #222526",
"M.	c #333739",
"N.	c #989EA4",
"O.	c #F6F9FC",
"P.	c #DED8CB",
"Q.	c #686359",
"R.	c #302E2C",
"S.	c #1A1610",
"T.	c #040300",
"U.	c #E2E3E3",
"V.	c #F0F0F4",
"W.	c #FAFAFC",
"X.	c #A2ACB2",
"Y.	c #D2D4D4",
"Z.	c #E7E9EA",
"`.	c #FDFEFE",
" +	c #F7F6F3",
".+	c #DDDCDA",
"++	c #D3CFCA",
"@+	c #7B6850",
"#+	c #150D03",
"$+	c #333333",
"%+	c #5D5D59",
"&+	c #6F6F94",
"*+	c #D7D8E9",
"=+	c #D1D9DF",
"-+	c #9D8567",
";+	c #1B1105",
">+	c #020202",
",+	c #12134E",
"'+	c #BFC1DC",
")+	c #9DA7AC",
"!+	c #CCCECF",
"~+	c #E4E6E7",
"{+	c #FBFCFC",
"]+	c #AE9B84",
"^+	c #494239",
"/+	c #333435",
"(+	c #363636",
"_+	c #353535",
":+	c #30302C",
"<+	c #444474",
"[+	c #CDCEE4",
"}+	c #050505",
"|+	c #0E1214",
"1+	c #848B91",
"2+	c #EFF1F3",
"3+	c #FBFBFA",
"4+	c #F7F6F6",
"5+	c #F5F5F5",
"6+	c #F6F6F6",
"7+	c #F7F7F9",
"8+	c #FDFDFE",
"9+	c #03070A",
"0+	c #80878D",
"a+	c #EDF0F1",
"b+	c #040608",
"c+	c #5D6367",
"d+	c #B2B3B3",
"e+	c #CBCBD3",
"f+	c #EDEEF5",
"g+	c #FFFEFB",
"h+	c #E6DDD4",
"i+	c #CCCFCC",
"j+	c #242747",
"k+	c #BABED8",
"l+	c #FFFCF0",
"m+	c #9B7A54",
"n+	c #150800",
"o+	c #262A41",
"p+	c #9A9DB1",
"q+	c #D1D2D4",
"r+	c #D2D2D2",
"s+	c #D1D1D1",
"t+	c #D2D3D5",
"u+	c #D6CEC5",
"v+	c #836B4E",
"w+	c #170F04",
"x+	c #0A0A10",
"y+	c #25262B",
"z+	c #333334",
"A+	c #353230",
"B+	c #201A13",
"C+	c #060401",
"D+	c #000000",
". . . . . . . . . . . . . . . . . . . ",
". . . . . . . . . . . . . . . . . . . ",
". . . . . |+| F | | F | | D n.| | ] . ",
". . . . ; > u t t t t t t t t u ~ { n+",
". . . . ^ T ( ( ( ( ( ( ( ( ( ( l+m.] ",
". . |+| 1 2 ( ( ( ( ( ( ( ( ( ( l+5 3.",
". . 8 i+.+( ( ( ( ( ( ( ( ( ( ( ( c h.",
". E.> a.( ( ( ( ( ( ( ( ( ( ( ( ( ( ( ",
"%.r.m l+( ( ( P.t t t t t ..u a+( h+i+",
"*+( ( ( ( ( ( -+C |+|+|+D |+G 2 l+m.C ",
"=+( ( ( ( ( ( m+V . . . . . ,+T ( m.] ",
"p.%.X.v ( ( ( P.t x.@.. . . E.p.%.@.. ",
". . =.a+( ( ( ( ( ;.>.. . . . . . . . ",
". . {.a+a+a+v ( ( x <.2.1.1.1.1.2.3.. ",
". . . . . . . 0.v ( ( ( ( ( ( ( l+U V ",
". . . . . . . g.h.( W.W.( ( ( ( l+m.V ",
". . p.J.r.| . u.=.x.q.q.t ( ( ( ( C.J.",
". . > (  .3.. . . . . . J.W.( ( ( ( ( ",
"| M.> ( P.r.3.|+. . . . q..+a+( ( ( ( ",
"Y =+a+( K..+ .@+n+. . . $+%.&+*+( ( ( ",
"=+( ( ( ( ( ( m.] . . . . . ,+T ( ( ( ",
")+i+h.l+( ( ( ]+^+$+$+$+$+3.<+[+( ( ( ",
". . {.a+( ( ( ( l+( ( ( ( a.( ( ( ( ( ",
". E.> K.( ( ( ( ( ( ( ( ( ( ( ( ( ( ( ",
". . c+Y 9 a+( ( ( ( ( ( ( ( ( ( ( x i+",
". . . . j+T ( ( a.( ( ( ( ( ( ( l+m+. ",
". . . . j+p+i+i+i+i+i+i+i+i+i+i+H.v+n+",
". . . . . | $+R.R.R.R.R.; 3.; $+C |+. ",
". . . . . . . . . . . . . . . . . . . "};
