/* XPM */
static xpm_row_t const S_xpm[] = {
"37 36 238 2",
"  	c None",
". 	c #000000",
"+ 	c #0A0B10",
"@ 	c #202022",
"# 	c #242423",
"$ 	c #232323",
"% 	c #232324",
"& 	c #22211F",
"* 	c #120D07",
"= 	c #3B3F5B",
"- 	c #B1B3BF",
"; 	c #C9C8C7",
"> 	c #C5C5C5",
", 	c #C6C7C8",
"' 	c #C2B9AF",
") 	c #634826",
"! 	c #4D5277",
"~ 	c #E5E7F8",
"{ 	c #FFFFFF",
"] 	c #FBF0E3",
"^ 	c #825D31",
"/ 	c #040608",
"( 	c #292B2C",
"_ 	c #3A3A3E",
": 	c #787C97",
"< 	c #EBEDF9",
"[ 	c #FCF4E9",
"} 	c #A08462",
"| 	c #36393C",
"1 	c #2C211F",
"2 	c #060100",
"3 	c #0F1519",
"4 	c #98A0A5",
"5 	c #E4E3E3",
"6 	c #E8E9EE",
"7 	c #FCFCFE",
"8 	c #FFFDFB",
"9 	c #EFEBE5",
"0 	c #E5EAEB",
"a 	c #A27871",
"b 	c #180200",
"c 	c #161B1E",
"d 	c #B2BAC0",
"e 	c #BB8982",
"f 	c #1C0200",
"g 	c #394550",
"h 	c #999E9F",
"i 	c #AAABAD",
"j 	c #E2E5E7",
"k 	c #FDFAF6",
"l 	c #C2B6A8",
"m 	c #959594",
"n 	c #959595",
"o 	c #949493",
"p 	c #A6A6C5",
"q 	c #FCFDFF",
"r 	c #FEF9F3",
"s 	c #CABCAA",
"t 	c #95999B",
"u 	c #6C504B",
"v 	c #100100",
"w 	c #5E7284",
"x 	c #FAFBFD",
"y 	c #FAF2E9",
"z 	c #735838",
"A 	c #0D0C0C",
"B 	c #0D0D0D",
"C 	c #0C0C09",
"D 	c #32327B",
"E 	c #F8FBFF",
"F 	c #FCF1E5",
"G 	c #87653C",
"H 	c #020509",
"I 	c #090707",
"J 	c #010000",
"K 	c #5A6D7E",
"L 	c #F4FBFC",
"M 	c #FAF2E8",
"N 	c #6A4D2B",
"O 	c #252674",
"P 	c #FCF0E3",
"Q 	c #815C30",
"R 	c #050607",
"S 	c #0B0B0C",
"T 	c #21272B",
"U 	c #B5BBC1",
"V 	c #FEFEFE",
"W 	c #F7F6F4",
"X 	c #F3F2F2",
"Y 	c #B59896",
"Z 	c #160000",
"` 	c #000004",
" .	c #0C0C0C",
"..	c #0C0B0B",
"+.	c #060502",
"@.	c #141A1E",
"#.	c #B4BCC3",
"$.	c #C4A7A4",
"%.	c #230000",
"&.	c #080B0B",
"*.	c #0B0B0B",
"=.	c #0A0A0A",
"-.	c #090909",
";.	c #090808",
">.	c #050302",
",.	c #0E1215",
"'.	c #7A7F84",
").	c #B5B5B4",
"!.	c #B0B0B0",
"~.	c #B0B0AF",
"{.	c #B3B6B9",
"].	c #E3EDF7",
"^.	c #E5D9D8",
"/.	c #A19292",
"(.	c #969797",
"_.	c #979797",
":.	c #989999",
"<.	c #958E86",
"[.	c #4C371D",
"}.	c #000811",
"|.	c #A1C6E4",
"1.	c #FCF1E3",
"2.	c #865F31",
"3.	c #020404",
"4.	c #191A1B",
"5.	c #262625",
"6.	c #1A1916",
"7.	c #030200",
"8.	c #081017",
"9.	c #8DAAC2",
"0.	c #DBDBDB",
"a.	c #DADADA",
"b.	c #F3F3F4",
"c.	c #FCF2E7",
"d.	c #93744E",
"e.	c #1B1E21",
"f.	c #1A1312",
"g.	c #040000",
"h.	c #101418",
"i.	c #8A9096",
"j.	c #D3D2CF",
"k.	c #8F8978",
"l.	c #16130B",
"m.	c #000103",
"n.	c #232B30",
"o.	c #363636",
"p.	c #343434",
"q.	c #3C3C3C",
"r.	c #C3C4C5",
"s.	c #FEFCF9",
"t.	c #E4DCD3",
"u.	c #CCD1D2",
"v.	c #916B65",
"w.	c #150200",
"x.	c #151A1E",
"y.	c #B2B9C0",
"z.	c #B8AF9A",
"A.	c #1C180F",
"B.	c #060606",
"C.	c #B2B3B4",
"D.	c #BA8981",
"E.	c #293239",
"F.	c #6D7171",
"G.	c #7F8284",
"H.	c #D4D9DC",
"I.	c #D7D2C7",
"J.	c #83817D",
"K.	c #6F6B68",
"L.	c #312514",
"M.	c #050506",
"N.	c #858586",
"O.	c #C4C4C3",
"P.	c #C7C7DB",
"Q.	c #FCFDFE",
"R.	c #B98881",
"S.	c #1B0200",
"T.	c #5C7082",
"U.	c #F9FBFC",
"V.	c #FCF4EB",
"W.	c #6C4F2C",
"X.	c #111111",
"Y.	c #191916",
"Z.	c #3C3D82",
"`.	c #F6F9FD",
" +	c #576A7A",
".+	c #EBF3F4",
"++	c #F8F8F8",
"@+	c #FCFDFD",
"#+	c #705534",
"$+	c #080707",
"%+	c #080808",
"&+	c #070707",
"*+	c #050402",
"=+	c #2C2D78",
"-+	c #22292F",
";+	c #595C5C",
">+	c #6C6F72",
",+	c #CDD2D6",
"'+	c #FEFAF6",
")+	c #C8BEB1",
"!+	c #A0A09F",
"~+	c #A0A0A0",
"{+	c #9F9F9E",
"]+	c #AFAFCC",
"^+	c #111315",
"/+	c #ACB4BC",
"(+	c #14191D",
"_+	c #ADB5BC",
":+	c #FCFBFD",
"<+	c #FEFFFF",
"[+	c #FFFFFE",
"}+	c #FDFCFC",
"|+	c #B7867F",
"1+	c #020303",
"2+	c #0F1010",
"3+	c #121217",
"4+	c #5D6184",
"5+	c #E8E9F8",
"6+	c #FCF2E5",
"7+	c #8D6C44",
"8+	c #0D1013",
"9+	c #110C0C",
"0+	c #020000",
"a+	c #484D71",
"b+	c #DDDFEE",
"c+	c #FAFAF8",
"d+	c #F6F6F6",
"e+	c #F8F9FA",
"f+	c #F2E7DA",
"g+	c #7C592E",
"h+	c #202231",
"i+	c #5E5F66",
"j+	c #6B6B6A",
"k+	c #696969",
"l+	c #6A6A6B",
"m+	c #67635D",
"n+	c #352614",
"o+	c #000000",
". . . . . . . . . . . . . . . . . . . . . . . . . . . . . . . . . . . . . ",
". . . . . . . . . . . . . . . . . . . . . . . . . . . . . . . . . . . . . ",
". . . . . . . . . . . . . . . . . . . . . . . . . . . . . . . . . . . . . ",
". . . . . . . . . . . . . . . . . . . . . . . . . . . . . . . . . . . . . ",
". . . . . . . . . . . . $ $ $ $ $ $ $ $ $ $ $ $ v . . . . . . . . . . . . ",
". . . . . . . . . . . = #.; ; ; ; ; ; ; ; ; ; ' ) . . . . . . . . . . . . ",
". . . . . . . . . . . a+< { { { { { { { { { { r ^ . . . . . . . . . . . . ",
". . . . . . . . . h+| : < { { { { { { { { { { P } p.$ . . . . . . . . . . ",
". . . . . . . . X.4 6 X { { { { { { { { { { { r X X a v . . . . . . . . . ",
". . . . . . . . (+#.{ { { { { { { { { { { { { { { { |+%.. . . . . . . . . ",
". . . . . . g :.i 0 { { { { ' <.i.:.N.:.N.p { r s :.u . . . . . . . . . . ",
". . . . . . w { { { { { { 9 #+. 9+. X.. * =+{ P z . . . . . . . . . . . . ",
". . . . . .  +L { { { { { r ) . . . . . . O { V.^ . . . . . . . . . . . . ",
". . . . . . . . $ ]+{ { { { { :+Y v . . . . . . . . . . . . . . . . . . . ",
". . . . . . . . X.U { { { { { { $.%.}.* }.v }.* . . . . . . . . . . . . . ",
". . . . . . . . }.'.U i i i < { ^./.:.:.:.:.:.<.[.. . . . . . . . . . . . ",
". . . . . . . . . . . . . . |.{ { { { { { { { r 2.. . . . . . . . . . . . ",
". . . . . . . . . Y.$ X.. }.9.0.0.0.0.{ { { { r d.X.f.. . . . . . . . . . ",
". . . . . . . . X.i.0.k.X.. h+p.p.p.p.U { { { r t.0.v.v . . . . . . . . . ",
". . . . . . . . @.#.{ z.f +.. . . . . U { { { { { { |+%.. . . . . . . . . ",
". . . . . . n.F.'.0.{ t.i.K.L.. . . . N.)+P.{ { { { e v . . . . . . . . . ",
". . . . . . w { { { { { { r N . . . . X.X.D { { { { |+v . . . . . . . . . ",
". . . . . .  +X { { { { r r z . . . . . . O { { { { e %.. . . . . . . . . ",
". . . . . . @.i+i+H.{ { { r s i i i i z.4 #.{ { { { |+v . . . . . . . . . ",
". . . . . . . . }._+{ { { { { { { { { { { { { { { { e %.. . . . . . . . . ",
". . . . . . . . Y._+{ { { { { { { { { { { { { { { { |+v . . . . . . . . . ",
". . . . . . . . . +.}.4+0 { { { { { { { { { { P 7+}.v . . . . . . . . . . ",
". . . . . . . . . . . a+b+{ X .+r X X < { X L ^.g+. . . . . . . . . . . . ",
". . . . . . . . . . . h+;+k+k+k+k+k+k+k+i+k+k+m+L.. . . . . . . . . . . . ",
". . . . . . . . . . . . . . . . . . . . . . . . . . . . . . . . . . . . . ",
". . . . . . . . . . . . . . . . . . . . . . . . . . . . . . . . . . . . . ",
". . . . . . . . . . . . . . . . . . . . . . . . . . . . . . . . . . . . . ",
". . . . . . . . . . . . . . . . . . . . . . . . . . . . . . . . . . . . . ",
". . . . . . . . . . . . . . . . . . . . . . . . . . . . . . . . . . . . . ",
". . . . . . . . . . . . . . . . . . . . . . . . . . . . . . . . . . . . . ",
". . . . . . . . . . . . . . . . . . . . . . . . . . . . . . . . . . . . . "};
