/* XPM */
static xpm_row_t const Seven_xpm[] = {
"42 44 77 1",
" 	c None",
".	c #000000",
"+	c #000002",
"@	c #1A2024",
"#	c #3E4040",
"$	c #404040",
"%	c #363529",
"&	c #010000",
"*	c #000006",
"=	c #5D7182",
"-	c #DBE2E2",
";	c #E2E2E2",
">	c #BEBC91",
",	c #050000",
"'	c #697F92",
")	c #F8FFFF",
"!	c #FFFFFF",
"~	c #D6D4A3",
"{	c #DDDBB2",
"]	c #2D2828",
"^	c #282828",
"/	c #1E160D",
"(	c #F6F6EC",
"_	c #CCCACA",
":	c #CACACA",
"<	c #977142",
"[	c #BF8E53",
"}	c #FFFEFE",
"|	c #F6F5F3",
"1	c #EDEDED",
"2	c #F0F0F0",
"3	c #C79E6B",
"4	c #232323",
"5	c #110605",
"6	c #FCF9F3",
"7	c #9C9482",
"8	c #4B4B4B",
"9	c #696969",
"0	c #FDFEFF",
"a	c #7A2F24",
"b	c #FBF7EE",
"c	c #72674D",
"d	c #2A2A2B",
"e	c #FCFDFE",
"f	c #0C1013",
"g	c #576262",
"h	c #626262",
"i	c #7C7C7D",
"j	c #FEFEFF",
"k	c #212B31",
"l	c #E0FFFF",
"m	c #F3F2E4",
"n	c #B5B3B3",
"o	c #B3B3B3",
"p	c #86643B",
"q	c #D9D7A9",
"r	c #161111",
"s	c #111111",
"t	c #0D0A06",
"u	c #070C10",
"v	c #475763",
"w	c #7C8185",
"x	c #EDFFFF",
"y	c #101C26",
"z	c #AED3F1",
"A	c #F5F5F5",
"B	c #C6C6C5",
"C	c #C5C5C5",
"D	c #A6A47E",
"E	c #040000",
"F	c #D5D5D4",
"G	c #030201",
"H	c #091016",
"I	c #637889",
"J	c #909090",
"K	c #797978",
"L	c #020101",
"..........................................",
"..........................................",
"..........................................",
"..........................................",
"..........................................",
"......+@#$$$$$$$$$$$$$$$%&................",
"......*=-;;;;;;;;;;;;;;;>,................",
"......*')!!!!!!!!!!!!!!!~,................",
"......*')!!!!!!!!!!!!!!!{]^/..............",
"......*')!!!!!!!!!!!!!!!(_:<..............",
"......*')!!!!!!!!!!!!!!!!!![..............",
"......*')!!!}|11111112!!!!!3445...........",
"......*')!!!67888888890!!!!!!!a...........",
"......*')!!!bc.......de!!!!!!!a...........",
"......*')!!!bc.......de!!!!!!!a...........",
".....................de!!!![..............",
".....................de!!!![..............",
"..................fghij!!!![..............",
"..................kl!!!!!!![..............",
"..................kl!!!!!!![..............",
"..................kl!!!!mnop..............",
"..................kl!!!!qrst..............",
"..................kl!!!!~,................",
"...............uv9wx!!!!~,................",
"...............yz!!!!!!!~,................",
"...............yz!!!!!!!~,................",
"...............yz!!!!ABCDE................",
"...............yz!!!!FG...................",
"...............yz!!!!FG...................",
"...............yz!!!!FG...................",
"...............yz!!!!FG...................",
"...............yz!!!!FG...................",
"...............HIJJJJKL...................",
"..........................................",
"..........................................",
"..........................................",
"..........................................",
"..........................................",
"..........................................",
"..........................................",
"..........................................",
"..........................................",
"..........................................",
".........................................."};
