/* XPM */
static xpm_row_t const Seven_lil_xpm[] = {
"19 28 144 2",
"  	c None",
". 	c #000000",
"+ 	c #3A4043",
"@ 	c #5B5D5D",
"# 	c #5D5D5C",
"$ 	c #5C5C5C",
"% 	c #5D5D5F",
"& 	c #5C5C53",
"* 	c #1D1B15",
"= 	c #020101",
"- 	c #9AAAB4",
"; 	c #F3F6F6",
"> 	c #F6F5F5",
", 	c #F4F4F4",
"' 	c #F7F7FB",
") 	c #F4F3DA",
"! 	c #4B4837",
"~ 	c #040402",
"{ 	c #A3B1BC",
"] 	c #F9FAFC",
"^ 	c #FFFFFF",
"/ 	c #FFFFE6",
"( 	c #605B4A",
"_ 	c #131211",
": 	c #0B0805",
"< 	c #010100",
"[ 	c #A1B1BC",
"} 	c #F8FAFC",
"| 	c #FFFFF7",
"1 	c #CCCBC6",
"2 	c #B7B4B1",
"3 	c #6E5639",
"4 	c #0A0703",
"5 	c #FFFFFC",
"6 	c #A07C51",
"7 	c #0F0A05",
"8 	c #F2EFEA",
"9 	c #BFBCB9",
"0 	c #ADADAD",
"a 	c #AEAEAE",
"b 	c #ACACAC",
"c 	c #BEBEBE",
"d 	c #F8F8F8",
"e 	c #FFFFFE",
"f 	c #CEBEA8",
"g 	c #888A89",
"h 	c #5C4240",
"i 	c #A2B1BC",
"j 	c #D8D1C1",
"k 	c #423D32",
"l 	c #0F0F0F",
"m 	c #111111",
"n 	c #121212",
"o 	c #0B0B0B",
"p 	c #424243",
"q 	c #ECECEC",
"r 	c #BE8981",
"s 	c #9AA8B3",
"t 	c #F2F5F5",
"u 	c #F4F4F5",
"v 	c #FDFCFC",
"w 	c #CBC3B3",
"x 	c #302B1F",
"y 	c #020100",
"z 	c #313233",
"A 	c #EAEAEA",
"B 	c #FAF9F6",
"C 	c #FEFFFF",
"D 	c #B1827B",
"E 	c #030303",
"F 	c #040404",
"G 	c #313132",
"H 	c #FFFFFD",
"I 	c #A17F56",
"J 	c #0F0B05",
"K 	c #010101",
"L 	c #101313",
"M 	c #191A1A",
"N 	c #4D4D4E",
"O 	c #EDEDED",
"P 	c #9F7C52",
"Q 	c #66787A",
"R 	c #C5CECE",
"S 	c #D8D9DA",
"T 	c #FBFBFB",
"U 	c #829699",
"V 	c #F5F7F8",
"W 	c #A07D52",
"X 	c #7F9599",
"Y 	c #F4F7F8",
"Z 	c #FFFEF3",
"` 	c #B5B3AC",
" .	c #95918F",
"..	c #5A462F",
"+.	c #080603",
"@.	c #7B9396",
"#.	c #F4F7F7",
"$.	c #FFFEE4",
"%.	c #534E3C",
"&.	c #050402",
"*.	c #000001",
"=.	c #020407",
"-.	c #283035",
";.	c #3B3C3E",
">.	c #9FB0B3",
",.	c #F7F9FA",
"'.	c #4F4C3B",
").	c #061018",
"!.	c #99B5CB",
"~.	c #EBEDEF",
"{.	c #F8F9F9",
"].	c #FFFFE4",
"^.	c #514C3B",
"/.	c #071119",
"(.	c #A5C3DC",
"_.	c #F9FDFF",
":.	c #FEFEFF",
"<.	c #FDFDE2",
"[.	c #504B39",
"}.	c #061119",
"|.	c #A4C1D9",
"1.	c #E1E0E0",
"2.	c #777678",
"3.	c #6B6A5F",
"4.	c #222119",
"5.	c #020201",
"6.	c #C9C9C8",
"7.	c #151515",
"8.	c #CBCBCA",
"9.	c #A7C5DE",
"0.	c #CFCFCE",
"a.	c #050D15",
"b.	c #89A2B6",
"c.	c #D3D5D6",
"d.	c #D6D5D5",
"e.	c #DBDBDB",
"f.	c #AAAAA9",
"g.	c #121211",
"h.	c #010304",
"i.	c #1A1F23",
"j.	c #292929",
"k.	c #2B2B2B",
"l.	c #212020",
"m.	c #000000",
". . . . . . . . . . . . . . . . . . . ",
". . . . . . . . . . . . . . . . . . . ",
". . . . . . . . . . . . . . . . . . . ",
". . . . . . . . . . . . . . . . . . . ",
"+ % & & % & & % & & % & & 3.m . . . . ",
"- ^ _.t ^ t ' ' ' ' ' t ^ ) k . . . . ",
"- _.^ ^ ^ ^ ^ ^ ^ ^ ^ ^ ^ Z ( m . . . ",
"{ ^ ^ ^ ^ ^ ^ ^ ^ ^ ^ ^ ^ Z 8.` 3 4 . ",
"- t ^ ^ ^ ^ ^ ^ ^ ^ ^ ^ ^ ^ ^ ^ I 4 . ",
"{ ^ ^ ^ O 9 f.f.f.f.f.9 ^ ^ ^ ^ f g ..",
"- _.^ ^ j k o =.m m . z O ^ ^ ^ ^ ^ r ",
"- t O ^ f l.. . . . . z O ^ ^ ^ ^ ^ D ",
". . . . . . . . . . . j.O ^ ^ ^ 6 . . ",
". . . . . . . . . m /.& O ^ ^ ^ 6 4 . ",
". . . . . . . . . Q 8.e.^ ^ ^ ^ 6 4 . ",
". . . . . . . . . U ^ ^ ^ ^ ^ ^ 6 4 . ",
". . . . . . . . . @._.^ ^ Z `  .... . ",
". . . . . . . . . @._.^ ^ <.k . . . . ",
". . . . . . . -.z - O ^ ^ Z %.. . . . ",
". . . . . . a.|.O ^ ^ ^ ^ <.... . . . ",
". . . . . . a.|.^ ^ ^ ^ ^ <.%.. . . . ",
". . . . . . a.9.^ ^ ^ e.2.3.7.. . . . ",
". . . . . . =.|._.^ ^ 8.m . . . . . . ",
". . . . . . }.(._.^ ^ 8.m . . . . . . ",
". . . . . . a.(._.^ ^ 0.m . . . . . . ",
". . . . . . =.b.c.c.e.f.m . . . . . . ",
". . . . . . . i.l.l.l.7.. . . . . . . ",
". . . . . . . . . . . . . . . . . . . "};
