/* XPM */
static xpm_row_t const Six_lil_xpm[] = {
"19 28 173 2",
"  	c None",
". 	c #000000",
"+ 	c #000102",
"@ 	c #2E3638",
"# 	c #616161",
"$ 	c #302F2F",
"% 	c #040404",
"& 	c #000304",
"* 	c #7B8F92",
"= 	c #FCFFFF",
"- 	c #7D7B7B",
"; 	c #0B0A0A",
"> 	c #000001",
", 	c #09090B",
"' 	c #121618",
") 	c #8DA0A3",
"! 	c #FDFFFF",
"~ 	c #8B8B8B",
"{ 	c #1D1D1D",
"] 	c #0E0E0C",
"^ 	c #020201",
"/ 	c #000207",
"( 	c #637483",
"_ 	c #AEB2B6",
": 	c #DCE1E2",
"< 	c #FEFFFF",
"[ 	c #DADADA",
"} 	c #BFBFBD",
"| 	c #908F7C",
"1 	c #10100D",
"2 	c #000108",
"3 	c #8FA8BC",
"4 	c #F6FAFC",
"5 	c #FFFFFF",
"6 	c #CDCBB4",
"7 	c #171713",
"8 	c #03040B",
"9 	c #4C4E60",
"0 	c #7D8184",
"a 	c #C8D5DD",
"b 	c #FAFCFD",
"c 	c #D7D6D7",
"d 	c #BABAB8",
"e 	c #8C8A78",
"f 	c #100F0D",
"g 	c #080A18",
"h 	c #9EA4CB",
"i 	c #F8F9FE",
"j 	c #898989",
"k 	c #1B1B1B",
"l 	c #0C0C0A",
"m 	c #010102",
"n 	c #050503",
"o 	c #121320",
"p 	c #9FA5C8",
"q 	c #F8F8FD",
"r 	c #FAF8F8",
"s 	c #7A7979",
"t 	c #0A0A0A",
"u 	c #02111C",
"v 	c #C5CBCF",
"w 	c #FEFDFD",
"x 	c #FEFEFF",
"y 	c #FFFCFB",
"z 	c #8D6765",
"A 	c #0D0808",
"B 	c #1A1A19",
"C 	c #26323C",
"D 	c #D1D6D9",
"E 	c #9D7B7A",
"F 	c #262121",
"G 	c #1E1E1E",
"H 	c #202020",
"I 	c #212121",
"J 	c #1F1C1C",
"K 	c #0A0503",
"L 	c #010000",
"M 	c #B5C4C5",
"N 	c #D1D5D6",
"O 	c #F5F6F6",
"P 	c #FFFEFE",
"Q 	c #EAE2E2",
"R 	c #CFCFCF",
"S 	c #CDCECE",
"T 	c #CECECE",
"U 	c #CECECD",
"V 	c #CDCDCD",
"W 	c #D2D4D5",
"X 	c #C4B7B6",
"Y 	c #421E19",
"Z 	c #040000",
"` 	c #E5E8EC",
" .	c #F3E3E0",
"..	c #552520",
"+.	c #060000",
"@.	c #E2E8EC",
"#.	c #FFFFFD",
"$.	c #C6BEB4",
"%.	c #959491",
"&.	c #909090",
"*.	c #919191",
"=.	c #8B8B8E",
"-.	c #A7A7BE",
";.	c #F5F5F9",
">.	c #F8EEED",
",.	c #9C827F",
"'.	c #706F6E",
").	c #FFFFF9",
"!.	c #7C6952",
"~.	c #0C0805",
"{.	c #010202",
"].	c #030303",
"^.	c #030302",
"/.	c #353667",
"(.	c #E8E9F0",
"_.	c #FDFDFD",
":.	c #FFFFF8",
"<.	c #79664F",
"[.	c #0A0804",
"}.	c #333465",
"|.	c #E8E8F0",
"1.	c #E3E8EC",
"2.	c #79664E",
"3.	c #E0E8EC",
"4.	c #7B6952",
"5.	c #0B0805",
"6.	c #010101",
"7.	c #020202",
"8.	c #343667",
"9.	c #FEFEFE",
"0.	c #5E6565",
"a.	c #70797F",
"b.	c #E1E4E6",
"c.	c #C7BEB4",
"d.	c #979593",
"e.	c #929292",
"f.	c #939393",
"g.	c #8E8D90",
"h.	c #A8A9BE",
"i.	c #F8EEEE",
"j.	c #9C827E",
"k.	c #000F1A",
"l.	c #C8CED2",
"m.	c #F1E0DF",
"n.	c #4F1F1A",
"o.	c #050000",
"p.	c #05121C",
"q.	c #B6BBBE",
"r.	c #E9E9EA",
"s.	c #F5F6FA",
"t.	c #FFFBF7",
"u.	c #F1F2F1",
"v.	c #DBCDCB",
"w.	c #4B211C",
"x.	c #9DA2C8",
"y.	c #FFDFAF",
"z.	c #3B2C1A",
"A.	c #060812",
"B.	c #8186A4",
"C.	c #D5D5D7",
"D.	c #D7D7D6",
"E.	c #D5D5D5",
"F.	c #D7DBE1",
"G.	c #D7B891",
"H.	c #302314",
"I.	c #010103",
"J.	c #191A20",
"K.	c #29292A",
"L.	c #292929",
"M.	c #292A2B",
"N.	c #29241D",
"O.	c #090704",
"P.	c #000000",
". . . . . . . . . . . . . . . . . . . ",
". . . . . . . . . . . . . . . . . . . ",
". . . . . . . . . . . . . . . . . . . ",
". . . . . . . . . . . . . . . . . . . ",
". . . . . . . . C 0.$ . . . . . . . . ",
". . . . . . . . * 5 s . . . . . . . . ",
". . . . . . 8 1 ) 5 ,.I ~.. . . . . . ",
". . . . . . ( d 3.5 [ v e 1 . . . . . ",
". . . . . . 3 4 5 5 5 5 v.1 . . . . . ",
". . . . 9 0 F.4 5 5 a d e n . . . . . ",
". . . 8 h 4 5 5 5 5 j 7 n . . . . . . ",
". . . o h 5 5 5 5 5 s . . . . . . . . ",
". 8 a 5 5 5 5 5 z . . . . . . . . . . ",
"1 C [ 5 5 5 5 5 E 7 I I I I J I 1 K . ",
"v a 4 5 5 5 5 5 m.[ V D.V N V [ c.Y . ",
"u.5 5 5 5 5 5 5 5 5 5 5 5 5 5 5 i.n.. ",
"3.5 5 5 5 5 d %.j j j j x.5 5 5 i.j.'.",
"3.5 5 5 5 5 2.. . . . . }.u.5 5 5 5 5 ",
"3.5 5 5 5 5 2.K . . . . }.b.5 5 5 5 5 ",
"u.5 5 5 5 t.2.. . . . . }.u.5 5 5 5 5 ",
"b.5 5 5 5 5 2.K . . . . }.b.5 5 5 5 5 ",
"0.( [ 5 5 5 6 d.d.d.d.=.h.q 5 5 i.E 0.",
". 8 V 5 5 5 5 5 5 5 5 5 5 5 5 5 m.n.. ",
". u M u.u.5 5 5 5 5 5 5 5 5 5 u.v.Y . ",
". . . 8 x.5 5 5 5 5 5 5 5 5 y.H.. . . ",
". . . 8 B.a v.[ N [ V [ V [ G.H.. . . ",
". . . . o I I I I I I I I I J . . . . ",
". . . . . . . . . . . . . . . . . . . "};
