/* XPM */
static xpm_row_t const T_xpm[] = {
"42 44 48 1",
" 	c None",
".	c #000000",
"+	c #000002",
"@	c #1A2024",
"#	c #3E4040",
"$	c #404040",
"%	c #1F0C09",
"&	c #000006",
"*	c #5D7182",
"=	c #DBE2E2",
"-	c #E2E2E2",
";	c #6D2A20",
">	c #697F92",
",	c #F8FFFF",
"'	c #FFFFFF",
")	c #7A2F24",
"!	c #627789",
"~	c #E7EDED",
"{	c #EDEDED",
"]	c #EFEFF0",
"^	c #F9FCFE",
"/	c #FCFCFC",
"(	c #EEEEEE",
"_	c #722C21",
":	c #1F262B",
"<	c #494B4B",
"[	c #4B4B4B",
"}	c #565F66",
"|	c #C6E0F5",
"1	c #E1E1E1",
"2	c #4D4D4C",
"3	c #240E0A",
"4	c #101C26",
"5	c #AED3F1",
"6	c #D5D5D4",
"7	c #030201",
"8	c #02030A",
"9	c #3B3E51",
"0	c #696969",
"a	c #72797F",
"b	c #CFE5F7",
"c	c #060818",
"d	c #9197C6",
"e	c #03050E",
"f	c #535671",
"g	c #909090",
"h	c #797978",
"i	c #020101",
"..........................................",
"..........................................",
"..........................................",
"..........................................",
"..........................................",
"......+@#$$$$$$$$$$$$$$$$$$$$$%...........",
"......&*=---------------------;...........",
"......&>,''''''''''''''''''''')...........",
"......&>,''''''''''''''''''''')...........",
"......&>,''''''''''''''''''''')...........",
"......&>,''''''''''''''''''''')...........",
"......&!~{{{{{{]^''''/({{{{{{{_...........",
"......+:<[[[[[[}|''''12[[[[[[[3...........",
"...............45''''67...................",
"...............45''''67...................",
"...............45''''67...................",
"...............45''''67...................",
"...............45''''67...................",
"...............45''''67...................",
"...............45''''67...................",
"...............45''''67...................",
"...............45''''67...................",
"...............45''''67...................",
"............890ab''''67...................",
"............cd'''''''67...................",
"............cd'''''''67...................",
"............cd'''''''67...................",
"............cd'''''''67...................",
"............cd'''''''67...................",
"............cd'''''''67...................",
"............cd'''''''67...................",
"............cd'''''''67...................",
"............efggggggghi...................",
"..........................................",
"..........................................",
"..........................................",
"..........................................",
"..........................................",
"..........................................",
"..........................................",
"..........................................",
"..........................................",
"..........................................",
".........................................."};
