/* XPM */
static xpm_row_t const T_lil_xpm[] = {
"19 28 83 1",
" 	c None",
".	c #555555",
"+	c #575858",
"@	c #463A38",
"#	c #F0F0F0",
"$	c #F7FAFB",
"%	c #C5A5A0",
"&	c #FFFFFF",
"*	c #D1AFAB",
"=	c #D0AFAA",
"-	c #D1AFAA",
";	c #FEFEFE",
">	c #FDFDFD",
",	c #CFAEA9",
"'	c #D1D1D1",
")	c #D0D0D0",
"!	c #D1D1D2",
"~	c #E1E6EA",
"{	c #F9FDFF",
"]	c #E6E6E6",
"^	c #CFCFCF",
"/	c #D6D9DA",
"(	c #AB8F8B",
"_	c #303030",
":	c #2F2E2E",
"<	c #2E3235",
"[	c #788EA0",
"}	c #E5F6FF",
"|	c #F9F9F9",
"1	c #8E8E8D",
"2	c #262525",
"3	c #2F3030",
"4	c #313232",
"5	c #272120",
"6	c #000000",
"7	c #000002",
"8	c #557087",
"9	c #DEF3FF",
"0	c #F8F8F7",
"a	c #717170",
"b	c #000306",
"c	c #59748B",
"d	c #DFF4FF",
"e	c #F8F8F8",
"f	c #747473",
"g	c #000206",
"h	c #59748A",
"i	c #000205",
"j	c #577389",
"k	c #08090C",
"l	c #171719",
"m	c #1C2023",
"n	c #6C8598",
"o	c #E3F5FF",
"p	c #000001",
"q	c #2C3047",
"r	c #858797",
"s	c #A6A8A7",
"t	c #C3CDD5",
"u	c #F3FBFF",
"v	c #4A4F75",
"w	c #D7DAF5",
"x	c #464A6E",
"y	c #D1D4ED",
"z	c #464B6E",
"A	c #D1D4EE",
"B	c #474C70",
"C	c #777675",
"D	c #3A3E5B",
"E	c #ADB0C4",
"F	c #D9D8D6",
"G	c #D3D3D3",
"H	c #D5D5D5",
"I	c #CDCDCD",
"J	c #60605F",
"K	c #14151F",
"L	c #393A41",
"M	c #474746",
"N	c #454545",
"O	c #464646",
"P	c #434343",
"Q	c #202020",
"R	c #000000",
"..................@",
"&###############u&%",
"&&&&&&&&&&&&&&&&&&,",
"&&&&&&&&&&&&&&&&&&,",
"&&&&&&&&&&&&&&&&&&,",
"&&&&&&&&&&&&&&&&&&,",
"IIIIw&&&&&#IIIIII/(",
"4Q4<[u&&&#1l4Q4:Q4Q",
"6666v9&&&&a66666666",
"6666nd&&&#C66666666",
"66668d&&&&C66666666",
"6666jd&&&#a66666666",
"6666jd&&&&C66666666",
"6666cd&&&#a66666666",
"6666jd&&&&C66666666",
"6666cd&&&#a66666666",
"6666jd&&&&C66666666",
"66Kmnd&&&#a66666666",
"6qrstu&&&&C66666666",
"6vw&&&&&&#a66666666",
"6xA&&&&&&&C66666666",
"6xA&&&&&&#a66666666",
"6xA&&&&&&&C66666666",
"6xA&&&&&&#a66666666",
"6xA&&&&&&&C66666666",
"6xA&&&&&&0J66666666",
"6DE/'III/IJ66666666",
"6l4NNNNNN4Q66666666"};
