/* XPM */
static xpm_row_t const Three_xpm[] = {
"42 44 98 2",
"  	c None",
". 	c #000000",
"+ 	c #00000B",
"@ 	c #384040",
"# 	c #404040",
"$ 	c #3E3B38",
"% 	c #181511",
"& 	c #000028",
"* 	c #C7E2E2",
"= 	c #E2E2E2",
"- 	c #DDD2C5",
"; 	c #564A3B",
"> 	c #00002E",
", 	c #E0FFFF",
"' 	c #FFFFFF",
") 	c #F9EDDE",
"! 	c #615342",
"~ 	c #FAF0E3",
"{ 	c #7A6E60",
"] 	c #282828",
"^ 	c #272726",
"/ 	c #140E0A",
"( 	c #FEFBF8",
"_ 	c #DFDCD8",
": 	c #CACACA",
"< 	c #C7C3C1",
"[ 	c #664635",
"} 	c #FAF6F4",
"| 	c #805842",
"1 	c #00002A",
"2 	c #D0EDED",
"3 	c #EDEDED",
"4 	c #EDEDF0",
"5 	c #FBFDFD",
"6 	c #FBF7F5",
"7 	c #916F5C",
"8 	c #232323",
"9 	c #0F0A05",
"0 	c #00000D",
"a 	c #424B4B",
"b 	c #4B4B4B",
"c 	c #4B4B65",
"d 	c #D6EAEF",
"e 	c #6D4C23",
"f 	c #000025",
"g 	c #C5E1E8",
"h 	c #B2D5F2",
"i 	c #080B10",
"j 	c #414854",
"k 	c #626262",
"l 	c #D0E5F7",
"m 	c #151B28",
"n 	c #A8B9D9",
"o 	c #0F131C",
"p 	c #768399",
"q 	c #B3B3B3",
"r 	c #E8F3FB",
"s 	c #FBF2E8",
"t 	c #90867A",
"u 	c #494847",
"v 	c #261A13",
"w 	c #010203",
"x 	c #0B0D0F",
"y 	c #111111",
"z 	c #B8D8F3",
"A 	c #FFFEFD",
"B 	c #F4F3F2",
"C 	c #E9E5E3",
"D 	c #77523E",
"E 	c #8EAAC0",
"F 	c #CACAD2",
"G 	c #F3F9FA",
"H 	c #FCF9F8",
"I 	c #B49C90",
"J 	c #696969",
"K 	c #2D1F0E",
"L 	c #1C2226",
"M 	c #282848",
"N 	c #CEE6EB",
"O 	c #00000A",
"P 	c #333A3A",
"Q 	c #3A3A3A",
"R 	c #3A3A57",
"S 	c #D2E8ED",
"T 	c #FEFDFD",
"U 	c #E2D9D4",
"V 	c #C5C5C5",
"W 	c #543B1B",
"X 	c #FFFEFE",
"Y 	c #F8F7F6",
"Z 	c #F3F3F3",
"` 	c #EEEBE8",
" .	c #7A543F",
"..	c #00001A",
"+.	c #809090",
"@.	c #909090",
"#.	c #8E877E",
"$.	c #372F26",
". . . . . . . . . . . . . . . . . . . . . . . . . . . . . . . . . . . . . . . . . . ",
". . . . . . . . . . . . . . . . . . . . . . . . . . . . . . . . . . . . . . . . . . ",
". . . . . . . . . . . . . . . . . . . . . . . . . . . . . . . . . . . . . . . . . . ",
". . . . . . . . . . . . . . . . . . . . . . . . . . . . . . . . . . . . . . . . . . ",
". . . . . . . . . . . . . . . . . . . . . . . . . . . . . . . . . . . . . . . . . . ",
". . . . . . . + @ # # # # # # # # # # # # # $ % . . . . . . . . . . . . . . . . . . ",
". . . . . . . & * = = = = = = = = = = = = = - ; . . . . . . . . . . . . . . . . . . ",
". . . . . . . > , ' ' ' ' ' ' ' ' ' ' ' ' ' ) ! . . . . . . . . . . . . . . . . . . ",
". . . . . . . > , ' ' ' ' ' ' ' ' ' ' ' ' ' ~ { ] ^ / . . . . . . . . . . . . . . . ",
". . . . . . . > , ' ' ' ' ' ' ' ' ' ' ' ' ' ( _ : < [ . . . . . . . . . . . . . . . ",
". . . . . . . > , ' ' ' ' ' ' ' ' ' ' ' ' ' ' ' ' } | . . . . . . . . . . . . . . . ",
". . . . . . . 1 2 3 3 3 3 3 3 3 3 3 3 4 5 ' ' ' ' 6 7 8 8 9 . . . . . . . . . . . . ",
". . . . . . . 0 a b b b b b b b b b b c d ' ' ' ' ' ' ' ' e . . . . . . . . . . . . ",
". . . . . . . . . . . . . . . . . . . f g ' ' ' ' ' ' ' ' e . . . . . . . . . . . . ",
". . . . . . . . . . . . . . . . . . . f g ' ' ' ' ' ' ' ' e . . . . . . . . . . . . ",
". . . . . . . . . . . . . . . . . h ' ' ' ' ' ' ' } | . . . . . . . . . . . . . . . ",
". . . . . . . . . . . . . . . . . h ' ' ' ' ' ' ' } | . . . . . . . . . . . . . . . ",
". . . . . . . . . . . . . i j k k l ' ' ' ' ' ' ' } | . . . . . . . . . . . . . . . ",
". . . . . . . . . . . . . m n ' ' ' ' ' ' ' ) ! . . . . . . . . . . . . . . . . . . ",
". . . . . . . . . . . . . m n ' ' ' ' ' ' ' ) ! . . . . . . . . . . . . . . . . . . ",
". . . . . . . . . . . . . o p q q r ' ' ' ' s t b u v . . . . . . . . . . . . . . . ",
". . . . . . . . . . . . . w x y y z ' ' ' ' A B 3 C D . . . . . . . . . . . . . . . ",
". . . . . . . . . . . . . . . . . h ' ' ' ' ' ' ' } | . . . . . . . . . . . . . . . ",
". . . . . . . . . . . . . . . . . E : F G ' ' ' ' H I J J K . . . . . . . . . . . . ",
". . . . . . . . . . . . . . . . . L ] M N ' ' ' ' ' ' ' ' e . . . . . . . . . . . . ",
". . . . . . . . . . . . . . . . . . . f g ' ' ' ' ' ' ' ' e . . . . . . . . . . . . ",
". . . . . . . O P Q Q Q Q Q Q Q Q Q Q R S ' ' ' ' T U V V W . . . . . . . . . . . . ",
". . . . . . . > , ' ' ' ' ' ' ' ' ' ' ' ' ' ' ' ' } | . . . . . . . . . . . . . . . ",
". . . . . . . > , ' ' ' ' ' ' ' ' ' ' ' ' ' ' ' ' } | . . . . . . . . . . . . . . . ",
". . . . . . . > , ' ' ' ' ' ' ' ' ' ' ' ' ' X Y Z `  .. . . . . . . . . . . . . . . ",
". . . . . . . > , ' ' ' ' ' ' ' ' ' ' ' ' ' ) ! . . . . . . . . . . . . . . . . . . ",
". . . . . . . > , ' ' ' ' ' ' ' ' ' ' ' ' ' ) ! . . . . . . . . . . . . . . . . . . ",
". . . . . . . ..+.@.@.@.@.@.@.@.@.@.@.@.@.@.#.$.. . . . . . . . . . . . . . . . . . ",
". . . . . . . . . . . . . . . . . . . . . . . . . . . . . . . . . . . . . . . . . . ",
". . . . . . . . . . . . . . . . . . . . . . . . . . . . . . . . . . . . . . . . . . ",
". . . . . . . . . . . . . . . . . . . . . . . . . . . . . . . . . . . . . . . . . . ",
". . . . . . . . . . . . . . . . . . . . . . . . . . . . . . . . . . . . . . . . . . ",
". . . . . . . . . . . . . . . . . . . . . . . . . . . . . . . . . . . . . . . . . . ",
". . . . . . . . . . . . . . . . . . . . . . . . . . . . . . . . . . . . . . . . . . ",
". . . . . . . . . . . . . . . . . . . . . . . . . . . . . . . . . . . . . . . . . . ",
". . . . . . . . . . . . . . . . . . . . . . . . . . . . . . . . . . . . . . . . . . ",
". . . . . . . . . . . . . . . . . . . . . . . . . . . . . . . . . . . . . . . . . . ",
". . . . . . . . . . . . . . . . . . . . . . . . . . . . . . . . . . . . . . . . . . ",
". . . . . . . . . . . . . . . . . . . . . . . . . . . . . . . . . . . . . . . . . . "};
