/* XPM */
static xpm_row_t const Three_lil_xpm[] = {
"19 28 199 2",
"  	c None",
". 	c #000000",
"+ 	c #000000",
"@ 	c #000101",
"# 	c #010000",
"$ 	c #010100",
"% 	c #010101",
"& 	c #010204",
"* 	c #020101",
"= 	c #020202",
"- 	c #030302",
"; 	c #030304",
"> 	c #030406",
", 	c #040405",
"' 	c #040505",
") 	c #050503",
"! 	c #060401",
"~ 	c #060505",
"{ 	c #060606",
"] 	c #060707",
"^ 	c #060809",
"/ 	c #07060A",
"( 	c #070808",
"_ 	c #080705",
": 	c #090603",
"< 	c #090C0E",
"[ 	c #0A0A0A",
"} 	c #0B0B0B",
"| 	c #0C0806",
"1 	c #0C0904",
"2 	c #0E0D0B",
"3 	c #0E0F10",
"4 	c #0E1111",
"5 	c #0E1212",
"6 	c #110D08",
"7 	c #11151A",
"8 	c #120D0A",
"9 	c #121211",
"0 	c #121314",
"a 	c #12161D",
"b 	c #141414",
"c 	c #151615",
"d 	c #161A21",
"e 	c #191817",
"f 	c #191919",
"g 	c #191E26",
"h 	c #1A1A19",
"i 	c #1A1B23",
"j 	c #1B1B1B",
"k 	c #1B212A",
"l 	c #1C1B1A",
"m 	c #1C1E25",
"n 	c #232A37",
"o 	c #251A12",
"p 	c #25262B",
"q 	c #252C38",
"r 	c #252C39",
"s 	c #252D3A",
"t 	c #262D3A",
"u 	c #272F3E",
"v 	c #282E3C",
"w 	c #2B251E",
"x 	c #2F2821",
"y 	c #332F2D",
"z 	c #33302C",
"A 	c #333D53",
"B 	c #37251B",
"C 	c #37261D",
"D 	c #39393B",
"E 	c #40281B",
"F 	c #40281C",
"G 	c #403B34",
"H 	c #434D5B",
"I 	c #463125",
"J 	c #4B4B49",
"K 	c #4C362A",
"L 	c #4C4946",
"M 	c #4D4337",
"N 	c #50565F",
"O 	c #505C67",
"P 	c #525250",
"Q 	c #52596B",
"R 	c #535A61",
"S 	c #543E32",
"T 	c #545B6D",
"U 	c #62727F",
"V 	c #685E53",
"W 	c #68727B",
"X 	c #6A5C4A",
"Y 	c #6A7B88",
"Z 	c #6C6460",
"` 	c #73706D",
" .	c #767575",
"..	c #767676",
"+.	c #77818B",
"@.	c #787878",
"#.	c #796955",
"$.	c #797B7C",
"%.	c #7B7E7D",
"&.	c #81705B",
"*.	c #84909B",
"=.	c #867870",
"-.	c #88949E",
";.	c #897660",
">.	c #897C6B",
",.	c #8C7E77",
"'.	c #8C8071",
").	c #8D8070",
"!.	c #8E8C88",
"~.	c #8F8E8C",
"{.	c #8F8F92",
"].	c #949595",
"^.	c #959494",
"/.	c #959594",
"(.	c #959595",
"_.	c #9AA4B5",
":.	c #9DA09E",
"<.	c #A1978A",
"[.	c #A49790",
"}.	c #A59790",
"|.	c #A6A6A8",
"1.	c #A9ADB6",
"2.	c #AAAAAA",
"3.	c #ABA196",
"4.	c #ABAAAA",
"5.	c #ABB6C9",
"6.	c #ACB6C7",
"7.	c #AEB6BD",
"8.	c #B0BBCB",
"9.	c #B1BCCD",
"0.	c #B1BDCD",
"a.	c #B2BDCE",
"b.	c #B2C0D1",
"c.	c #B3B6B3",
"d.	c #B8B0AC",
"e.	c #B8C1D2",
"f.	c #B9B3AD",
"g.	c #BABDC5",
"h.	c #BCBBBB",
"i.	c #BCBCBC",
"j.	c #BECAD5",
"k.	c #C0C0C0",
"l.	c #C6B7AF",
"m.	c #C7CAC8",
"n.	c #CAC5BD",
"o.	c #CAC6C0",
"p.	c #CDDBE4",
"q.	c #CECECC",
"r.	c #CEDCE5",
"s.	c #CFCECD",
"t.	c #D2C1B7",
"u.	c #D4E0E8",
"v.	c #D6C4BB",
"w.	c #D9D9DB",
"x.	c #DAC9C0",
"y.	c #DBCBC2",
"z.	c #E1DBD3",
"A.	c #E3D8D1",
"B.	c #E4DAD4",
"C.	c #E4E2E1",
"D.	c #E6E4E0",
"E.	c #E6E6E8",
"F.	c #E7E4E1",
"G.	c #EAF0F4",
"H.	c #EEE7E3",
"I.	c #EEF0F0",
"J.	c #EEF2F6",
"K.	c #F0F2F2",
"L.	c #F1FFFF",
"M.	c #F4F8F9",
"N.	c #F5EFE6",
"O.	c #F5EFE8",
"P.	c #F5F0E9",
"Q.	c #F5F4F5",
"R.	c #F5FFFF",
"S.	c #F6F5F4",
"T.	c #F6F6F6",
"U.	c #F7F4F3",
"V.	c #F8F2E9",
"W.	c #F8F4ED",
"X.	c #F8F4EE",
"Y.	c #F8F8F9",
"Z.	c #F9FFFF",
"`.	c #FAFAFA",
" +	c #FAFCFC",
".+	c #FBF8F5",
"++	c #FCF5ED",
"@+	c #FCFBFA",
"#+	c #FCFCFC",
"$+	c #FDFCFA",
"%+	c #FDFEFE",
"&+	c #FDFFFF",
"*+	c #FEFCFB",
"=+	c #FEFEFD",
"-+	c #FEFEFF",
";+	c #FEFFFF",
">+	c #FFFEFE",
",+	c #FFFFFE",
"'+	c #FFFFFF",
"                                      ",
"+ + + + + + + + + + + + + + + + + + + ",
"+ + + + + + + + + + + + + + + + + + + ",
"+ + + + + + + + + + + + + + + + + + + ",
"= ( } [ [ [ [ [ [ [ [ [ [ ~ # + + + + ",
"7 R %. ...............@.` G ! + + + + ",
"r b.'+>+'+'+'+'+'+'+-+'+V.'.1 + + + + ",
"s 9.'+'+'+'+'+'+'+'+'+'+W.<.z l | + + ",
"t a.'+'+'+'+'+'+'+'+'+'+$+D.s.}.B + + ",
"q 6.,+T.T.T.T.T.T.T.Y.%+'+'+'+y.S ^ _ ",
"d W :.^.].(.(.(./.{.1.G.'+'+'+H.d.!.M ",
"% ' ] { { { { { ) + A p.'+'+'+'+'+++;.",
"+ + + + + + + + 5 m T u.'+'+'+U.C.o.X ",
"+ + + + + @ + > Y '+'+'+'+'+'+v.E + + ",
"+ + + + + < p D -.R.'+'+=+S.K.l.I + + ",
"+ + + + + n _.E.I.&+'+'+X.3.L y 8 + + ",
"+ + + + + u 5. +`.'+'+'+O.).6 ; * + + ",
"+ + + + + a N $.7.Z.'+'+.+n.~.Z o + + ",
"+ + + + + + + + U L.,+'+'+'+'+x.K + - ",
"+ + + + + + + & O j.w.M.'+'+'+B.,.P x ",
"+ + + + + + + + 4 i Q u.'+'+'+,+'+P.&.",
"; 3 c b b b b b 9 / H r.'+'+'+@+Q.z.#.",
"g +.c.4.2.2.2.2.2.|.g.J.'+'+'+A.=.J w ",
"v e.'+'+'+'+'+'+'+'+'+'+'+'+'+t.F + + ",
"s 0.'+'+'+'+'+'+'+'+'+'+*+F.q.[.C + + ",
"t 8.'+#+#+#+#+#+#+#+#+;+N.>.+ + + # + ",
"k *.m.h.i.i.i.i.i.i.i.k.f.V : + + + + ",
", 0 j f f f f f f f f h e 2 $ + + + + "};
