/* XPM */
static xpm_row_t const Three_xpm[] = {
"37 36 186 2",
"  	c None",
". 	c #000000",
"+ 	c #000101",
"@ 	c #010101",
"# 	c #000009",
"$ 	c #383F40",
"% 	c #424242",
"& 	c #43403D",
"* 	c #201C18",
"= 	c #030202",
"- 	c #000022",
"; 	c #C0DBDD",
"> 	c #E3E5E4",
", 	c #E4E4E4",
"' 	c #E4E5E6",
") 	c #E8DDD2",
"! 	c #6E6150",
"~ 	c #0A0806",
"{ 	c #000027",
"] 	c #D7F5F7",
"^ 	c #FEFFFF",
"/ 	c #FFFFFF",
"( 	c #FFF8EB",
"_ 	c #7A6C5A",
": 	c #0B0907",
"< 	c #FFF9EE",
"[ 	c #918576",
"} 	c #343331",
"| 	c #2A2B2A",
"1 	c #1A1410",
"2 	c #030201",
"3 	c #FFFDFB",
"4 	c #E6E3DF",
"5 	c #D0CFCF",
"6 	c #D0CFCE",
"7 	c #7D5F4F",
"8 	c #0F0906",
"9 	c #9C7762",
"0 	c #130C08",
"a 	c #000023",
"b 	c #C4E1E3",
"c 	c #E9EBEA",
"d 	c #EAEAEA",
"e 	c #E9E9EC",
"f 	c #F8FBFB",
"g 	c #AA8B7A",
"h 	c #37322E",
"i 	c #282929",
"j 	c #16110C",
"k 	c #030100",
"l 	c #00000A",
"m 	c #3B4445",
"n 	c #474747",
"o 	c #474746",
"p 	c #3F3E57",
"q 	c #C3D7DF",
"r 	c #FCFEFF",
"s 	c #8E714B",
"t 	c #110A02",
"u 	c #000016",
"v 	c #ACC6D1",
"w 	c #FBFEFF",
"x 	c #8D704B",
"y 	c #040505",
"z 	c #060604",
"A 	c #00001C",
"B 	c #AEC8D3",
"C 	c #FDFCFB",
"D 	c #F9F9F9",
"E 	c #8A6D49",
"F 	c #100A02",
"G 	c #A1C4E1",
"H 	c #F9FDFF",
"I 	c #99735E",
"J 	c #120B07",
"K 	c #020202",
"L 	c #030303",
"M 	c #A0C1DC",
"N 	c #9B7661",
"O 	c #120B08",
"P 	c #06090D",
"Q 	c #404754",
"R 	c #676768",
"S 	c #646362",
"T 	c #C7DAEA",
"U 	c #FFFEFE",
"V 	c #FBFBFA",
"W 	c #F8F8F8",
"X 	c #FAF9F8",
"Y 	c #96725E",
"Z 	c #0E131F",
"` 	c #9CAECE",
" .	c #F9FBFD",
"..	c #FFF8EA",
"+.	c #776856",
"@.	c #0B0906",
"#.	c #0E131E",
"$.	c #98A9C9",
"%.	c #F7F9FB",
"&.	c #FEFDFD",
"*.	c #7B6D5B",
"=.	c #0D0B09",
"-.	c #090C14",
";.	c #677388",
">.	c #A7A8AA",
",.	c #A9A8A7",
"'.	c #E0EBF4",
").	c #FDFEFF",
"!.	c #FFFBF2",
"~.	c #A69C90",
"{.	c #5B5958",
"].	c #535252",
"^.	c #33261F",
"/.	c #060402",
"(.	c #010102",
"_.	c #07080A",
":.	c #0C0C0C",
"<.	c #040201",
"[.	c #A4C3DE",
"}.	c #FAFDFF",
"|.	c #F8F7F7",
"1.	c #F3F3F3",
"2.	c #F6F4F4",
"3.	c #93705D",
"4.	c #110B07",
"5.	c #9EBEDA",
"6.	c #F7FBFE",
"7.	c #9C7864",
"8.	c #160F0B",
"9.	c #020303",
"0.	c #7993A7",
"a.	c #BEC0C2",
"b.	c #C0BFC8",
"c.	c #EBF2F4",
"d.	c #C8B2A8",
"e.	c #7C7876",
"f.	c #757678",
"g.	c #3F3221",
"h.	c #070401",
"i.	c #14191D",
"j.	c #20211F",
"k.	c #181736",
"l.	c #B6CED7",
"m.	c #FBFEFE",
"n.	c #8F714C",
"o.	c #010100",
"p.	c #000018",
"q.	c #ACC7D2",
"r.	c #FEFEFD",
"s.	c #FDFDFD",
"t.	c #8C6F4B",
"u.	c #3A4243",
"v.	c #454545",
"w.	c #454544",
"x.	c #3D3C57",
"y.	c #C3D6DE",
"z.	c #E3DAD4",
"A.	c #BFBDBC",
"B.	c #C0C2C4",
"C.	c #675236",
"D.	c #0C0701",
"E.	c #000028",
"F.	c #DCF5F7",
"G.	c #98725D",
"H.	c #FFFEFD",
"I.	c #F2F0EE",
"J.	c #E6E6E6",
"K.	c #E8E8E6",
"L.	c #8B6A57",
"M.	c #110A07",
"N.	c #FFF9EB",
"O.	c #766654",
"P.	c #000026",
"Q.	c #D2EFF1",
"R.	c #F8FAF9",
"S.	c #F9FAFB",
"T.	c #FCF3E6",
"U.	c #786958",
"V.	c #000014",
"W.	c #707E7F",
"X.	c #838383",
"Y.	c #838384",
"Z.	c #86817A",
"`.	c #3F382F",
" +	c #060504",
".+	c #000000",
". . . . . . . . . . . . . . . . . . . . . . . . . . . . . . . . . . . . . ",
". . . . . . . . . . . . . . . . . . . . . . . . . . . . . . . . . . . . . ",
". . . . . . . . . . . . . . . . . . . . . . . . . . . . . . . . . . . . . ",
". . . . . . . . . . . . . . . . . . . . . . . . . . . . . . . . . . . . . ",
". . . . . . . . . . . . . . . . . . . . . . . . . . . . . . . . . . . . . ",
". . . . . . . . $ w.w.w.w.w.w.w.w.w.w.w.w.w.`.1 . . . . . . . . . . . . . ",
". . . . . . . - ; '.' 4 ' ' 4 ' ' 4 ' ' 4 I.K.O.. . . . . . . . . . . . . ",
". . . . . . . - F./ / / / / / / / / / / / / T.O.. . . . . . . . . . . . . ",
". . . . . . . - F./ / / / / / / / / / / / / !.[ } } j . . . . . . . . . . ",
". . . . . . . - F./ / / / / / / / / / / / / / K.6 6 O.D.. . . . . . . . . ",
". . . . . . . - Q./ / / / / / / / / / / / / / / / / 7.D.. . . . . . . . . ",
". . . . . . . - Q.'.K.I.' I.' I.' I.' e 6./ / / / / g g.i t . . . . . . . ",
". . . . . . . . u.`.w.$ w.$ w.$ w.u.`.x.l./ / / / / / / / G.D.. . . . . . ",
". . . . . . . . . . . . . . . . . . . V.[./ / / / / / / / s D.. . . . . . ",
". . . . . . . . . . . . . . . . . . . V.v / / / / / / / / E D.. . . . . . ",
". . . . . . . . . . . . . . . . . G / / / / / / / / 3.. . . . . . . . . . ",
". . . . . . . . . . . . . . . . . G / / / / / / / / 7.D.. . . . . . . . . ",
". . . . . . . . . . . . . . Q R R T / / / / / / T./ 3.D.. . . . . . . . . ",
". . . . . . . . . . . . . Z ` / / / / / / / !.O.. . . . . . . . . . . . . ",
". . . . . . . . . . . . . Z $./ / / / / / / !.O.. . . . . . . . . . . . . ",
". . . . . . . . . . . . . V.;.>.>.'./ / / / !.,.{.].^.. . . . . . . . . . ",
". . . . . . . . . . . . . . . . . 5./ / / / !.!.T./ 3.D.. . . . . . . . . ",
". . . . . . . . . . . . . . . . . 5.6./ / / / / / / 7.t . . . . . . . . . ",
". . . . . . . . . . . . . . . . . 0.A.b.I./ / / / / d.f.f.g.. . . . . . . ",
". . . . . . . . . . . . . . . . . j Z Z [.6./ / / / / / / n.D.. . . . . . ",
". . . . . . . . . . . . . . . . . . . - l./ / / / / / / / E D.. . . . . . ",
". . . . . . . . u.w.w.w.w.w.w.w.w.w.w.x.; / / / / / z.A.6 C.D.. . . . . . ",
". . . . . . . - F./ / / / / / / / / / / / / / / / / 3.. . . . . . . . . . ",
". . . . . . . - F./ / / / / / / / / / / / / / / / / 7.D.. . . . . . . . . ",
". . . . . . . - F./ / / / / / / / / / / / / / I.4 I.L.D.. . . . . . . . . ",
". . . . . . . - F./ / / / / / / / / / / / / !.O.. . . . . . . . . . . . . ",
". . . . . . . - Q./ / / / / / / / / 1./ 1./ T.7 . . . . . . . . . . . . . ",
". . . . . . . V.;.W.Z.W.f.f.f.f.f.f.Z.W.Z.f.Z.} . . . . . . . . . . . . . ",
". . . . . . . . . . . . . . . . . . . . . . . . . . . . . . . . . . . . . ",
". . . . . . . . . . . . . . . . . . . . . . . . . . . . . . . . . . . . . ",
". . . . . . . . . . . . . . . . . . . . . . . . . . . . . . . . . . . . . "};
