/* XPM */
static xpm_row_t const Two_lil_xpm[] = {
"19 29 165 2",
"  	c None",
". 	c #000000",
"+ 	c #13171B",
"@ 	c #474E50",
"# 	c #5B5C5B",
"$ 	c #575757",
"% 	c #5A5857",
"& 	c #45423D",
"* 	c #13110D",
"= 	c #37404E",
"- 	c #C6D5DE",
"; 	c #FBFBF9",
"> 	c #F2F2F2",
", 	c #F2F3F3",
"' 	c #F9F7F4",
") 	c #C2B6A9",
"! 	c #362E24",
"~ 	c #3A4453",
"{ 	c #CFDFE9",
"] 	c #FFFFFF",
"^ 	c #D0C6BA",
"/ 	c #473F35",
"( 	c #080809",
"_ 	c #080706",
": 	c #394452",
"< 	c #CFDEE8",
"[ 	c #EEEAE6",
"} 	c #C1C0BD",
"| 	c #A19B98",
"1 	c #564740",
"2 	c #040000",
"3 	c #3B4554",
"4 	c #D1E0EB",
"5 	c #F1E8E2",
"6 	c #806A5D",
"7 	c #29313B",
"8 	c #98A5AB",
"9 	c #C1C2C1",
"0 	c #B9B8B8",
"a 	c #B9B9B9",
"b 	c #B8B7B8",
"c 	c #B9BABE",
"d 	c #D9DCE2",
"e 	c #F7F1EF",
"f 	c #B9ADA6",
"g 	c #75716E",
"h 	c #4B473F",
"i 	c #0E0700",
"j 	c #050608",
"k 	c #131516",
"l 	c #181818",
"m 	c #171717",
"n 	c #141413",
"o 	c #191B28",
"p 	c #7E8A9E",
"q 	c #FCFFFF",
"r 	c #BCAF9D",
"s 	c #221200",
"t 	c #030513",
"u 	c #707D93",
"v 	c #FDFFFF",
"w 	c #B2A594",
"x 	c #201100",
"y 	c #1E272F",
"z 	c #9CACB8",
"A 	c #F7F9F9",
"B 	c #F7F7F9",
"C 	c #F2E9E4",
"D 	c #897569",
"E 	c #150E0A",
"F 	c #080908",
"G 	c #020100",
"H 	c #06080A",
"I 	c #0D0E0E",
"J 	c #353E44",
"K 	c #B2C0CB",
"L 	c #F6ECE6",
"M 	c #897265",
"N 	c #060000",
"O 	c #000002",
"P 	c #383F4D",
"Q 	c #9EA4B0",
"R 	c #C9CACA",
"S 	c #E9EDF1",
"T 	c #E3DDD6",
"U 	c #94908B",
"V 	c #686563",
"W 	c #3B312B",
"X 	c #030000",
"Y 	c #4C566A",
"Z 	c #DCE6F8",
"` 	c #C9BFB0",
" .	c #352B21",
"..	c #07090C",
"+.	c #303439",
"@.	c #58595C",
"#.	c #8B919C",
"$.	c #E6ECF7",
"%.	c #FEFDFA",
"&.	c #DAD3D0",
"*.	c #AEA5A4",
"=.	c #837D74",
"-.	c #262019",
";.	c #10191F",
">.	c #84939F",
",.	c #F9FBFC",
"'.	c #FBFCFC",
").	c #FDFEFF",
"!.	c #FEFAF2",
"~.	c #9D867B",
"{.	c #120000",
"].	c #020404",
"^.	c #020201",
"/.	c #0B0D0F",
"(.	c #242728",
"_.	c #41494E",
":.	c #A2AEB8",
"<.	c #FDFCFB",
"[.	c #F5F5F4",
"}.	c #EAE6DF",
"|.	c #8B766B",
"1.	c #0A0000",
"2.	c #323B48",
"3.	c #B4C1CA",
"4.	c #E7E7E7",
"5.	c #F0F2F4",
"6.	c #EBE6DF",
"7.	c #93887B",
"8.	c #4A4742",
"9.	c #2C2623",
"0.	c #3B4654",
"a.	c #D1E1EB",
"b.	c #E2DAD0",
"c.	c #5D4F40",
"d.	c #EFEBE6",
"e.	c #A9A096",
"f.	c #71706D",
"g.	c #737475",
"h.	c #757575",
"i.	c #757676",
"j.	c #777777",
"k.	c #524C44",
"l.	c #0F0800",
"m.	c #BBAE9C",
"n.	c #B3A694",
"o.	c #D1E0EA",
"p.	c #B6A997",
"q.	c #211200",
"r.	c #343E4B",
"s.	c #BDCBD4",
"t.	c #F0EEED",
"u.	c #E8E8E8",
"v.	c #E9E9E9",
"w.	c #EDECEB",
"x.	c #A39887",
"y.	c #1E1000",
"z.	c #0F1215",
"A.	c #383C3E",
"B.	c #474746",
"C.	c #434343",
"D.	c #444444",
"E.	c #454545",
"F.	c #302C27",
"G.	c #090500",
"H.	c #000000",
". . . . . . . . . . . . . . . . . . . ",
". . . . . . . . . . . . . . . . . . . ",
". . . . . . . . . . . . . . . . . . . ",
". . . . . . . . . . . . . . . . . . . ",
"* @ $ $ $ $ $ $ $ $ $ $ D.l.. . . . . ",
": { ] , !.$.!.t.] t.] !.) 9.. . . . . ",
"2.{ ] ] ] ] ] ] ] ] ] ] ^ 1 . . . . . ",
": { ] ] ] ] ] ] ] ] ] ] t.a e.1 . . . ",
": { ] ] ] ] ] ] ] ] ] ] ] ] e 6 . . . ",
"7 8 a a a a a b :.a d ] ] ] e f g / {.",
". * * * * * * * * ;.p ] ] ] ] ] ] ) s ",
". . . . . . . . . t u ] ] ] ] ] ] w l.",
". . . . . . . y z ] ] ] ] ] 5 D l.. . ",
". . . . . t t J 3.] ] ] ] ] L D . . . ",
". . . . . : *.R t.] ] ] b.U V ! . . . ",
". . . . . Y Z ] ] ] ] ] ` -.. . . . . ",
". . t 7 $ #.Z ] ] ] &.e.=.-.. . . . . ",
". . * >.] ] ] ] ] !.~.. . . . . . . . ",
"t (.3 z ] ] ] ] t.6.D . . . . . . . . ",
"2.s.t.,.] ] ] 5 7./ (.. . . . . . . . ",
"J { ] ] ] ] ] b.1 . . . . . . . . . . ",
": { ] ] ] ] ] t.x.j.j.j.j.j.j.j.j.1 . ",
"J { ] ] ] ] ] ] ] ] ] ] ] ] ] ] ] r s ",
": { ] ] ] ] ] ] ] ] ] ] ] ] ] ] ] m.{.",
": { ] ] ] ] ] ] ] ] ] ] ] ] ] ] ] m.s ",
"2.s.t.S d 5 S }.t.d t.t.6.t.d t.t.7.s ",
"* +.D.A./ D.+.D.+.D./ +.D.+.D.A.D.! . ",
". . . . . . . . . . . . . . . . . . . ",
". . . . . . . . . . . . . . . . . . . "};
