/* XPM */
static xpm_row_t const U_xpm[] = {
"42 44 59 1",
" 	c None",
".	c #000000",
"+	c #000007",
"@	c #374040",
"#	c #404040",
"$	c #252119",
"%	c #00001B",
"&	c #C4E2E2",
"*	c #E2E2E2",
"=	c #817456",
"-	c #00001F",
";	c #DDFFFF",
">	c #FFFFFF",
",	c #928261",
"'	c #09141D",
")	c #282828",
"!	c #262625",
"~	c #040301",
"{	c #2F6693",
"]	c #CACACA",
"^	c #BFBEBD",
"/	c #150F07",
"(	c #3B81B9",
"_	c #F1F0EE",
":	c #1B1308",
"<	c #BEB5A2",
"[	c #696969",
"}	c #635E57",
"|	c #1C1309",
"1	c #00001D",
"2	c #676969",
"3	c #8CB5D5",
"4	c #F1E5D5",
"5	c #443016",
"6	c #000048",
"7	c #FBFFFF",
"8	c #000018",
"9	c #ABC5C5",
"0	c #C5C5C5",
"a	c #CDD2D6",
"b	c #F4EBDF",
"c	c #6E5E4B",
"d	c #3A3A3A",
"e	c #3A3A71",
"f	c #FCFFFF",
"g	c #DECDCB",
"h	c #BAB9B8",
"i	c #243A4B",
"j	c #6E231B",
"k	c #233747",
"l	c #F3F3F3",
"m	c #F8F9FC",
"n	c #FEFBF8",
"o	c #692219",
"p	c #747DB8",
"q	c #E5AD67",
"r	c #424769",
"s	c #909090",
"t	c #82623B",
"..........................................",
"..........................................",
"..........................................",
"..........................................",
"..........................................",
"......+@####$.............................",
"......%&****=.............................",
"......-;>>>>,.............................",
"......-;>>>>,............'))))!~..........",
"......-;>>>>,............{]]]]^/..........",
"......-;>>>>,............(>>>>_:..........",
"......-;>>>>,............(>>>>_:..........",
"......-;>>>>,............(>>>>_:..........",
"......-;>>>>,............(>>>>_:..........",
"......-;>>>>,............(>>>>_:..........",
"......-;>>>>,............(>>>>_:..........",
"......-;>>>>,............(>>>>_:..........",
"......-;>>>>,............(>>>>_:..........",
"......-;>>>>,............(>>>>_:..........",
"......-;>>>>,............(>>>>_:..........",
"......-;>>>>,............(>>>>_:..........",
"......-;>>>>,............(>>>>_:..........",
"......-;>>>>,............(>>>>_:..........",
"......-;>>>><[}|......12[3>>>>_:..........",
"......-;>>>>>>45......67>>>>>>_:..........",
"......-;>>>>>>45......67>>>>>>_:..........",
"......890a>>>>bcddddddef>>>>g0h/..........",
".........i>>>>>>>>>>>>>>>>>>j.............",
".........i>>>>>>>>>>>>>>>>>>j.............",
".........kllm>>>>>>>>>>>>nllo.............",
"............p>>>>>>>>>>>>q................",
"............p>>>>>>>>>>>>q................",
"............rsssssssssssst................",
"..........................................",
"..........................................",
"..........................................",
"..........................................",
"..........................................",
"..........................................",
"..........................................",
"..........................................",
"..........................................",
"..........................................",
".........................................."};
