/* XPM */
static xpm_row_t const U_lil_xpm[] = {
"19 28 119 2",
"  	c None",
". 	c #1F1F1F",
"+ 	c #202020",
"@ 	c #151410",
"# 	c #030202",
"$ 	c #000000",
"% 	c #A6A6A6",
"& 	c #AAABAC",
"* 	c #6F6652",
"= 	c #0D0C08",
"- 	c #FEFEFE",
"; 	c #FFFFFF",
"> 	c #AB9C7E",
", 	c #15120C",
"' 	c #AD9E7F",
") 	c #02070B",
"! 	c #111214",
"~ 	c #151515",
"{ 	c #AB9D7F",
"] 	c #14120C",
"^ 	c #12334E",
"/ 	c #78828A",
"( 	c #939291",
"_ 	c #909090",
": 	c #1F5887",
"< 	c #CDDEEC",
"[ 	c #FBF9F8",
"} 	c #F6F6F6",
"| 	c #205C8D",
"1 	c #D6E8F7",
"2 	c #205B8B",
"3 	c #D4E6F4",
"4 	c #AC9D7F",
"5 	c #AA9B7D",
"6 	c #13100B",
"7 	c #1D598A",
"8 	c #D3E5F4",
"9 	c #17140F",
"0 	c #010101",
"a 	c #000001",
"b 	c #020203",
"c 	c #225D8C",
"d 	c #C8BFAB",
"e 	c #676562",
"f 	c #575450",
"g 	c #231C13",
"h 	c #030200",
"i 	c #00000F",
"j 	c #45464C",
"k 	c #585552",
"l 	c #6E95B3",
"m 	c #E3EFF8",
"n 	c #F2F0EC",
"o 	c #DDDDDD",
"p 	c #DED6CB",
"q 	c #57452E",
"r 	c #060300",
"s 	c #000026",
"t 	c #ABABBA",
"u 	c #DEDDDB",
"v 	c #DEE7EE",
"w 	c #F9FBFD",
"x 	c #FFFFF1",
"y 	c #675136",
"z 	c #060200",
"A 	c #00002C",
"B 	c #CBCDDF",
"C 	c #F8F8F9",
"D 	c #FEF7EE",
"E 	c #8C7C69",
"F 	c #474441",
"G 	c #404040",
"H 	c #414141",
"I 	c #41413D",
"J 	c #343362",
"K 	c #D4D7E3",
"L 	c #E5D6D4",
"M 	c #E6E9EB",
"N 	c #FFFDFB",
"O 	c #E0DCD6",
"P 	c #CDCDCC",
"Q 	c #CCCCCC",
"R 	c #CCCCCB",
"S 	c #C8C8D5",
"T 	c #F4F4F8",
"U 	c #A9756F",
"V 	c #E6E9EC",
"W 	c #98534B",
"X 	c #BABCBF",
"Y 	c #D3D3D2",
"Z 	c #E2E4ED",
"` 	c #FCFCFE",
" .	c #FEF6EC",
"..	c #DBD8D5",
"+.	c #D9DEDF",
"@.	c #7F4B45",
"#.	c #373839",
"$.	c #3A3936",
"%.	c #7F86B2",
"&.	c #F2F3FB",
"*.	c #FFD9A8",
"=.	c #665A4C",
"-.	c #3C3F41",
";.	c #251614",
">.	c #4E568E",
",.	c #E1E3ED",
"'.	c #F7F7F6",
").	c #F5F5F5",
"!.	c #F7FBFF",
"~.	c #F3C183",
"{.	c #2B1C09",
"].	c #333856",
"^.	c #85858B",
"/.	c #919190",
"(.	c #8F8F8F",
"_.	c #909395",
":.	c #8E7252",
"<.	c #1D150B",
"[.	c #000000",
". g ! $ $ $ $ $ $ $ $ $ $ $ $ $ $ $ $ ",
"& & * $ $ $ $ $ $ $ $ $ $ $ $ $ $ $ $ ",
"; ; ' = $ $ $ $ $ $ $ $ $ $ $ $ $ $ $ ",
"; ; 5 = $ $ $ $ $ $ $ $ $ $ $ $ ! ! ! ",
"; ; ' = $ $ $ $ $ $ $ $ $ $ $ ^ / ( _.",
"; ; { = $ $ $ $ $ $ $ $ $ $ $ 7 < ; ; ",
"; ; ' = $ $ $ $ $ $ $ $ $ $ $ 7 m ; ; ",
"; ; { = $ $ $ $ $ $ $ $ $ $ $ 7 1 ; ; ",
"; ; ' = $ $ $ $ $ $ $ $ $ $ $ 7 < ; ; ",
"; ; { = $ $ $ $ $ $ $ $ $ $ $ 7 m ; ; ",
"; ; ' <.$ $ $ $ $ $ $ $ $ $ $ 7 1 ; ; ",
"; ; 5 = $ $ $ $ $ $ $ $ $ $ $ 7 1 ; ; ",
"; ; ' = $ $ $ $ $ $ $ $ $ $ $ 7 3 ; ; ",
"; ; { = $ $ $ $ $ $ $ $ $ $ $ 7 m ; ; ",
"; ; ' = $ $ $ $ $ $ $ $ $ $ $ 7 < ; ; ",
"; ; { = $ $ $ $ $ $ $ $ $ $ $ 7 m ; ; ",
"; ; ' = $ $ $ $ $ $ $ $ $ $ $ 7 8 ; ; ",
"; ; 5 ;.$ $ $ $ $ $ $ $ $ $ $ 7 1 ; ; ",
"; ; d e f ;.$ $ $ $ $ $ i F k l m ; ; ",
"; ; x o p q $ $ $ $ $ $ s t o v ; ; ; ",
"; ; ; ; x y $ $ $ $ $ $ s B ; ; ; ; ; ",
"; ; ; ; x E I F F #.F $.J ,.; ; ; ; o ",
"v ; ; ; ; L Q Q Q Q Q Q B &.; ; ; ; U ",
"n ; ; ; ; ; ; ; ; ; ; ; ; ; ; ; ; ; W ",
"X Q ,.; ; ; ; ; ; ; ; ; ; ; ;  .o o @.",
"#.#.%.&.; ; ; ; ; ; ; ; ; ; ; *.F #.;.",
"$ $ >.,.; n !.n ; n !.).&.n ; ~.{.$ $ ",
"$ $ ^ ^.^.^.^.^.^.^.^.^.( ^._.:.= $ $ "};
