/* XPM */
static xpm_row_t const V_xpm[] = {
"42 44 90 1",
" 	c None",
".	c #000000",
"+	c #090E13",
"@	c #404040",
"#	c #252119",
"$	c #0F202E",
"%	c #1C0907",
"&	c #203342",
"*	c #E2E2E2",
"=	c #817456",
"-	c #3572A4",
";	c #611F18",
">	c #243A4B",
",	c #FFFFFF",
"'	c #928261",
")	c #3B81B9",
"!	c #6E231B",
"~	c #000005",
"{	c #232828",
"]	c #282828",
"^	c #475967",
"/	c #85463F",
"(	c #262625",
"_	c #040301",
":	c #000018",
"<	c #B0CACA",
"[	c #CACACA",
"}	c #D2D6DA",
"|	c #E1D1D0",
"1	c #BFBEBD",
"2	c #150F07",
"3	c #00001F",
"4	c #DDFFFF",
"5	c #F1F0EE",
"6	c #1B1308",
"7	c #A09377",
"8	c #232323",
"9	c #211F1D",
"0	c #090603",
"a	c #00000A",
"b	c #222323",
"c	c #5692C2",
"d	c #F1E5D5",
"e	c #443016",
"f	c #000048",
"g	c #FBFFFF",
"h	c #F7EFE6",
"i	c #8C7F70",
"j	c #626262",
"k	c #463130",
"l	c #030000",
"m	c #000001",
"n	c #4D4D4D",
"o	c #62628E",
"p	c #FDFFFF",
"q	c #B57F7C",
"r	c #070000",
"s	c #010102",
"t	c #C9C9C9",
"u	c #1A2835",
"v	c #B3B3B3",
"w	c #D6D8EA",
"x	c #F7E7D3",
"y	c #4D1912",
"z	c #020405",
"A	c #111111",
"B	c #7E86BD",
"C	c #E7B372",
"D	c #070202",
"E	c #747DB8",
"F	c #E5AD67",
"G	c #D3B3B1",
"H	c #6D6969",
"I	c #69696A",
"J	c #DFE0E0",
"K	c #5A608E",
"L	c #C5C5C5",
"M	c #CACDD0",
"N	c #F2F8FD",
"O	c #FFFFF6",
"P	c #C7C5C5",
"Q	c #B18650",
"R	c #152431",
"S	c #C7E1F5",
"T	c #FFFFD8",
"U	c #060000",
"V	c #0C151C",
"W	c #717F8B",
"X	c #909090",
"Y	c #90907A",
"..........................................",
"..........................................",
"..........................................",
"..........................................",
"..........................................",
".........+@@#............$@@%.............",
".........&**=............-**;.............",
".........>,,'............),,!.............",
"......~{]^,,'............),,/](_..........",
"......:<[},,'............),,|[12..........",
"......34,,,,'............),,,,56..........",
"......34,,,,7890......ab8c,,,,56..........",
"......34,,,,,,de......fg,,,,,,56..........",
"......34,,,,,,de......fg,,,,,,56..........",
"......34,,,,,,de......fg,,,,,,56..........",
".........>,,,,de......fg,,,,!.............",
".........>,,,,de......fg,,,,!.............",
".........>,,,,hijklmnjop,,,,!.............",
".........>,,,,,,,qrst,,,,,,,!.............",
".........>,,,,,,,qrst,,,,,,,!.............",
".........uvvw,,,,qrst,,,,xvvy.............",
".........zAAB,,,,qrst,,,,CAAD.............",
"............E,,,,qrst,,,,F................",
"............E,,,,GHIJ,,,,F................",
"............E,,,,,,,,,,,,F................",
"............E,,,,,,,,,,,,F................",
"............KLMN,,,,,,OPLQ................",
"..............RS,,,,,,TU..................",
"..............RS,,,,,,TU..................",
"..............RS,,,,,,TU..................",
"..............RS,,,,,,TU..................",
"..............RS,,,,,,TU..................",
"..............VWXXXXXXYl..................",
"..........................................",
"..........................................",
"..........................................",
"..........................................",
"..........................................",
"..........................................",
"..........................................",
"..........................................",
"..........................................",
"..........................................",
".........................................."};
