/* XPM */
static xpm_row_t const V_lil_xpm[] = {
"18 28 200 2",
"  	c None",
". 	c #000000",
"+ 	c #3E3F40",
"@ 	c #36342F",
"# 	c #12100C",
"$ 	c #010100",
"% 	c #000102",
"& 	c #121F2A",
"* 	c #3B3E3F",
"= 	c #393433",
"- 	c #160808",
"; 	c #E2E4E8",
"> 	c #C2BBAA",
", 	c #3F392A",
"' 	c #040302",
") 	c #000309",
"! 	c #417097",
"~ 	c #D8E1E6",
"{ 	c #CEBCB9",
"] 	c #4C1E1A",
"^ 	c #F3F6F9",
"/ 	c #DED5C2",
"( 	c #494231",
"_ 	c #050402",
": 	c #00040A",
"< 	c #4B84B1",
"[ 	c #EBF7FF",
"} 	c #ECD7D4",
"| 	c #59231D",
"1 	c #F5F8FB",
"2 	c #EAF6FE",
"3 	c #F0DDDC",
"4 	c #754945",
"5 	c #FFFFFF",
"6 	c #DCD3C0",
"7 	c #E8F3FC",
"8 	c #FDF8F6",
"9 	c #DBD0CE",
"0 	c #DBD3BF",
"a 	c #484030",
"b 	c #030200",
"c 	c #000208",
"d 	c #4B83B0",
"e 	c #E8F2FB",
"f 	c #FEFDFD",
"g 	c #E2DBCC",
"h 	c #6B6658",
"i 	c #30302D",
"j 	c #191511",
"k 	c #040201",
"l 	c #00000C",
"m 	c #272728",
"n 	c #2E3337",
"o 	c #6D9AC0",
"p 	c #ECF5FC",
"q 	c #FDFCFB",
"r 	c #F5F4F4",
"s 	c #F9FAF8",
"t 	c #8C7B64",
"u 	c #171008",
"v 	c #00003D",
"w 	c #CDCDD9",
"x 	c #F4F5F4",
"y 	c #FEFEFF",
"z 	c #917F66",
"A 	c #DADAE6",
"B 	c #FDFEFE",
"C 	c #FFFFFD",
"D 	c #907E65",
"E 	c #D9D9E5",
"F 	c #FDFBFB",
"G 	c #F0EBE9",
"H 	c #EFF1F3",
"I 	c #8F7D64",
"J 	c #150E08",
"K 	c #00003B",
"L 	c #EAD5D2",
"M 	c #592B2B",
"N 	c #93816A",
"O 	c #1D1710",
"P 	c #050404",
"Q 	c #010101",
"R 	c #040404",
"S 	c #050503",
"T 	c #060642",
"U 	c #E9D5D2",
"V 	c #58221D",
"W 	c #FFFFFE",
"X 	c #C4B9AC",
"Y 	c #878480",
"Z 	c #665251",
"` 	c #19100F",
" .	c #494949",
"..	c #727271",
"+.	c #777797",
"@.	c #EBEBF1",
"#.	c #E9D5D3",
"$.	c #59241E",
"%.	c #F0F2F4",
"&.	c #FBFBFA",
"*.	c #FAFDFD",
"=.	c #DCB1AF",
"-.	c #362120",
";.	c #A0A0A0",
">.	c #F1F1F1",
",.	c #F7F7F9",
"'.	c #FEFEFE",
").	c #5A241E",
"!.	c #EBEDEF",
"~.	c #FCFCFD",
"{.	c #FDFDFE",
"].	c #DDB3B1",
"^.	c #362220",
"/.	c #F9F9F9",
"(.	c #FEFDFC",
"_.	c #FDFEFF",
":.	c #E4D0CE",
"<.	c #57231D",
"[.	c #92928F",
"}.	c #ABACB9",
"|.	c #E3E5F0",
"1.	c #FDFDFF",
"2.	c #DCB2B0",
"3.	c #9E9F9F",
"4.	c #ECDAC3",
"5.	c #A2A3A1",
"6.	c #897F7E",
"7.	c #351611",
"8.	c #060603",
"9.	c #313555",
"0.	c #BDC1DC",
"a.	c #FBFBFF",
"b.	c #DBB1AF",
"c.	c #321E1D",
"d.	c #9D9D9E",
"e.	c #F8F8F8",
"f.	c #FFFFF9",
"g.	c #D1A670",
"h.	c #251D13",
"i.	c #070709",
"j.	c #252A4C",
"k.	c #B8BDDA",
"l.	c #DEB6B3",
"m.	c #402D2C",
"n.	c #020101",
"o.	c #A3A4A4",
"p.	c #CEA168",
"q.	c #1B1308",
"r.	c #272C4D",
"s.	c #EEDBDA",
"t.	c #A39999",
"u.	c #838383",
"v.	c #D2D3D3",
"w.	c #FCFCFC",
"x.	c #CEA169",
"y.	c #1C1409",
"z.	c #272D4E",
"A.	c #BBC0DC",
"B.	c #FBFCFF",
"C.	c #FFFFFB",
"D.	c #D1A36B",
"E.	c #1D1409",
"F.	c #262C4C",
"G.	c #B6BBD7",
"H.	c #F9F9FC",
"I.	c #FCFCFE",
"J.	c #FFFCF5",
"K.	c #CCA068",
"L.	c #1C1309",
"M.	c #16192C",
"N.	c #6A6C7C",
"O.	c #919497",
"P.	c #C8D1DA",
"Q.	c #F7FBFC",
"R.	c #FFFFF1",
"S.	c #A4A2A2",
"T.	c #95918D",
"U.	c #775D3C",
"V.	c #100B05",
"W.	c #010203",
"X.	c #070707",
"Y.	c #000004",
"Z.	c #7990A4",
"`.	c #EBF5F9",
" +	c #FFFFDD",
".+	c #2E2E27",
"++	c #060506",
"@+	c #080604",
"#+	c #7991A5",
"$+	c #FFFFDE",
"%+	c #25251F",
"&+	c #000006",
"*+	c #7A92A5",
"=+	c #FFFFDF",
"-+	c #26261F",
";+	c #7D96AA",
">+	c #F2F8FB",
",+	c #FFFFE4",
"'+	c #272720",
")+	c #000000",
". . . . . . . . . . . . . . . . . . ",
". . . . . . . . . . . . . . . . . . ",
"n @ V.. . . . . . . . . . . & n @ @+",
"!.X .+. . . . . . . . . . . ! !.{ ] ",
"[ 4.( . . . . . . . . . . . < [ 3 <.",
"5 / ( . . . . . . . . . . l < [ 3 4 ",
"5 / ( . . . . . . . . . . . d p 5 9 ",
"5 / , . . . . . . . . . . . < p 5 5 ",
"5 4.h @ # . . . . . . l %+n o p 5 5 ",
"5 5 5 5 t V.. . . . . v E p 5 5 5 5 ",
"5 5 5 5 N V.. . . . . K A 5 5 5 5 5 ",
"5 5 5 5 t V.. . . . . K A 5 5 5 5 !.",
"!.5 5 5 N V.. . . . . K A 5 5 5 3 <.",
"[ 5 5 5 I E.. . . . . v A 5 5 5 9 ] ",
"!.5 5 5 X u.Z # .  ...+.!.5 5 5 3 <.",
"5 5 5 5 5 5 l.7.. o.5 5 5 5 5 5 :.<.",
"!.5 5 5 5 5 l.^.. d.!.5 5 5 5 5 :.<.",
"u.}.A 5 5 5 l.7.. o.5 5 5 5 4.d.6.7.",
". 9.k.5 5 5 l.^.. d.!.5 5 5 D.O . . ",
". j.k.5 5 5 l.^.. o.5 5 5 R.K.V.. . ",
". j.k.5 5 5 3 t.u.v.5 5 5 5 D.E.. . ",
". j.k.5 5 5 5 5 5 5 5 5 5 5 K.V.. . ",
". j.G.5 5 5 5 5 5 5 5 5 5 R.D.E.. . ",
". M.N.O.0.5 5 5 5 5 5 R.d.T.U.@+. . ",
". . . . *+|.5 5 5 5 5  +%+. . . . . ",
". . . . ;+[ 5 5 5 5 5  +h.. . . . . ",
". . . . ;+!.5 5 5 5 5  +%+. . . . . ",
". . . . ;+[ 5 5 5 5 5 R.h.. . . . . "};
