/* XPM */
static xpm_row_t const W_xpm[] = {
"42 44 107 2",
"  	c None",
". 	c #000000",
"+ 	c #000007",
"@ 	c #374040",
"# 	c #404040",
"$ 	c #252119",
"% 	c #0F202E",
"& 	c #3C3C3B",
"* 	c #070502",
"= 	c #00001B",
"- 	c #C4E2E2",
"; 	c #E2E2E2",
"> 	c #817456",
", 	c #3572A4",
"' 	c #D5D4D3",
") 	c #181108",
"! 	c #00001F",
"~ 	c #DDFFFF",
"{ 	c #FFFFFF",
"] 	c #928261",
"^ 	c #3B81B9",
"/ 	c #F1F0EE",
"( 	c #1B1308",
"_ 	c #000001",
": 	c #627F84",
"< 	c #FBFFFF",
"[ 	c #FFFEFE",
"} 	c #373636",
"| 	c #080E13",
"1 	c #4D575F",
"2 	c #626263",
"3 	c #9EB1B4",
"4 	c #FCFFFF",
"5 	c #FFFFFE",
"6 	c #848383",
"7 	c #626262",
"8 	c #626253",
"9 	c #030000",
"0 	c #152431",
"a 	c #C7E1F5",
"b 	c #FFFFD8",
"c 	c #060000",
"d 	c #B2A790",
"e 	c #4B4B4B",
"f 	c #5A656E",
"g 	c #D8EAF8",
"h 	c #FFFFE3",
"i 	c #504B4B",
"j 	c #75A6CE",
"k 	c #F8F7F4",
"l 	c #EDEDED",
"m 	c #EFF0F1",
"n 	c #FBFDFE",
"o 	c #FFFFFC",
"p 	c #EEEDED",
"q 	c #F2F6FA",
"r 	c #000019",
"s 	c #B0CACA",
"t 	c #CACACA",
"u 	c #D2D6DA",
"v 	c #F0E5E4",
"w 	c #CCCACA",
"x 	c #CBCBCB",
"y 	c #F4F4F4",
"z 	c #E1D2D0",
"A 	c #BFBEBD",
"B 	c #150F07",
"C 	c #000005",
"D 	c #232828",
"E 	c #282828",
"F 	c #475967",
"G 	c #C19491",
"H 	c #2E2828",
"I 	c #29292A",
"J 	c #D1D1D2",
"K 	c #85463F",
"L 	c #262625",
"M 	c #040301",
"N 	c #243A4B",
"O 	c #B57F7C",
"P 	c #070000",
"Q 	c #010102",
"R 	c #C9C9C9",
"S 	c #6E231B",
"T 	c #FCF9F6",
"U 	c #D5D0CA",
"V 	c #C5C5C5",
"W 	c #8C6360",
"X 	c #000101",
"Y 	c #9B9B9B",
"Z 	c #C5C5D5",
"` 	c #FEFFFF",
" .	c #F1E5D5",
"..	c #443016",
"+.	c #000048",
"@.	c #FAF9F8",
"#.	c #F3F3F3",
"$.	c #E6DACC",
"%.	c #412E15",
"&.	c #000044",
"*.	c #EFF3F3",
"=.	c #F6F9FC",
"-.	c #14202B",
";.	c #909090",
">.	c #534A37",
",.	c #22496A",
"'.	c #3E140E",
". . . . . . . . . . . . . . . . . . . . . . . . . . . . . . . . . . . . . . . . . . ",
". . . . . . . . . . . . . . . . . . . . . . . . . . . . . . . . . . . . . . . . . . ",
". . . . . . . . . . . . . . . . . . . . . . . . . . . . . . . . . . . . . . . . . . ",
". . . . . . . . . . . . . . . . . . . . . . . . . . . . . . . . . . . . . . . . . . ",
". . . . . . . . . . . . . . . . . . . . . . . . . . . . . . . . . . . . . . . . . . ",
". . . . . . + @ # # # # $ . . . . . . . . . . . . % # # # # & * . . . . . . . . . . ",
". . . . . . = - ; ; ; ; > . . . . . . . . . . . . , ; ; ; ; ' ) . . . . . . . . . . ",
". . . . . . ! ~ { { { { ] . . . . . . . . . . . . ^ { { { { / ( . . . . . . . . . . ",
". . . . . . ! ~ { { { { ] . . . . . . . . . . . . ^ { { { { / ( . . . . . . . . . . ",
". . . . . . ! ~ { { { { ] . . . . . . . . . . . . ^ { { { { / ( . . . . . . . . . . ",
". . . . . . ! ~ { { { { ] . . . . . . . . . . . . ^ { { { { / ( . . . . . . . . . . ",
". . . . . . ! ~ { { { { ] . . . . . . . . . . . . ^ { { { { / ( . . . . . . . . . . ",
". . . . . . ! ~ { { { { ] . . . . . . . . . . . . ^ { { { { / ( . . . . . . . . . . ",
". . . . . . ! ~ { { { { ] . . . . . . . . . . . . ^ { { { { / ( . . . . . . . . . . ",
". . . . . . ! ~ { { { { ] . . . . . . . . . . . . ^ { { { { / ( . . . . . . . . . . ",
". . . . . . ! ~ { { { { ] . . . _ : < [ } . . . . ^ { { { { / ( . . . . . . . . . . ",
". . . . . . ! ~ { { { { ] . . . _ : < [ } . . . . ^ { { { { / ( . . . . . . . . . . ",
". . . . . . ! ~ { { { { ] . | 1 2 3 4 5 6 7 8 9 . ^ { { { { / ( . . . . . . . . . . ",
". . . . . . ! ~ { { { { ] . 0 a { { { { { { b c . ^ { { { { / ( . . . . . . . . . . ",
". . . . . . ! ~ { { { { ] . 0 a { { { { { { b c . ^ { { { { / ( . . . . . . . . . . ",
". . . . . . ! ~ { { { { d e f g { { { { { { h i e j { { { { / ( . . . . . . . . . . ",
". . . . . . ! ~ { { { { k l m n { { { { { { o p l q { { { { / ( . . . . . . . . . . ",
". . . . . . ! ~ { { { { { { { { { { { { { { { { { { { { { { / ( . . . . . . . . . . ",
". . . . . . r s t u { { { { { { { v w x y { { { { { { { z t A B . . . . . . . . . . ",
". . . . . . C D E F { { { { { { { G H I J { { { { { { { K E L M . . . . . . . . . . ",
". . . . . . . . . N { { { { { { { O P Q R { { { { { { { S . . . . . . . . . . . . . ",
". . . . . . . . . N { { { { T U V W c X Y V Z ` { { { { S . . . . . . . . . . . . . ",
". . . . . . . . . N { { { {  .... . . . . . +.< { { { { S . . . . . . . . . . . . . ",
". . . . . . . . . N { { { {  .... . . . . . +.< { { { { S . . . . . . . . . . . . . ",
". . . . . . . . . N { { @.#.$.%.. . . . . . &.*.#.=.{ { S . . . . . . . . . . . . . ",
". . . . . . . . . N { { ] . . . . . . . . . . . . ^ { { S . . . . . . . . . . . . . ",
". . . . . . . . . N { { ] . . . . . . . . . . . . ^ { { S . . . . . . . . . . . . . ",
". . . . . . . . . -.;.;.>.. . . . . . . . . . . . ,.;.;.'.. . . . . . . . . . . . . ",
". . . . . . . . . . . . . . . . . . . . . . . . . . . . . . . . . . . . . . . . . . ",
". . . . . . . . . . . . . . . . . . . . . . . . . . . . . . . . . . . . . . . . . . ",
". . . . . . . . . . . . . . . . . . . . . . . . . . . . . . . . . . . . . . . . . . ",
". . . . . . . . . . . . . . . . . . . . . . . . . . . . . . . . . . . . . . . . . . ",
". . . . . . . . . . . . . . . . . . . . . . . . . . . . . . . . . . . . . . . . . . ",
". . . . . . . . . . . . . . . . . . . . . . . . . . . . . . . . . . . . . . . . . . ",
". . . . . . . . . . . . . . . . . . . . . . . . . . . . . . . . . . . . . . . . . . ",
". . . . . . . . . . . . . . . . . . . . . . . . . . . . . . . . . . . . . . . . . . ",
". . . . . . . . . . . . . . . . . . . . . . . . . . . . . . . . . . . . . . . . . . ",
". . . . . . . . . . . . . . . . . . . . . . . . . . . . . . . . . . . . . . . . . . ",
". . . . . . . . . . . . . . . . . . . . . . . . . . . . . . . . . . . . . . . . . . "};
