/* XPM */
static xpm_row_t const W_lil_xpm[] = {
"18 28 175 2",
"  	c None",
". 	c #000000",
"+ 	c #000000",
"@ 	c #000101",
"# 	c #000102",
"$ 	c #000103",
"% 	c #010000",
"& 	c #010001",
"* 	c #010101",
"= 	c #020202",
"- 	c #030000",
"; 	c #030303",
"> 	c #030304",
", 	c #040404",
"' 	c #040505",
") 	c #050709",
"! 	c #060000",
"~ 	c #060502",
"{ 	c #060706",
"] 	c #060C11",
"^ 	c #070000",
"/ 	c #070909",
"( 	c #0A0A17",
"_ 	c #0B0B14",
": 	c #0D0F15",
"< 	c #0E1112",
"[ 	c #0E1528",
"} 	c #110D04",
"| 	c #111009",
"1 	c #11131B",
"2 	c #120D04",
"3 	c #120E05",
"4 	c #121210",
"5 	c #132534",
"6 	c #132535",
"7 	c #141423",
"8 	c #141424",
"9 	c #142736",
"0 	c #142737",
"a 	c #191919",
"b 	c #1A1C1C",
"c 	c #1A2126",
"d 	c #200805",
"e 	c #232F40",
"f 	c #25292A",
"g 	c #262B40",
"h 	c #272D41",
"i 	c #282D42",
"j 	c #282E42",
"k 	c #282E43",
"l 	c #283540",
"m 	c #2B3132",
"n 	c #2F2E28",
"o 	c #2F3B45",
"p 	c #303C47",
"q 	c #303D47",
"r 	c #360501",
"s 	c #38434D",
"t 	c #3B0E09",
"u 	c #3C0E09",
"v 	c #3C3934",
"w 	c #454033",
"x 	c #474746",
"y 	c #4D5354",
"z 	c #4D5F6F",
"A 	c #4E4D4D",
"B 	c #525251",
"C 	c #525252",
"D 	c #545353",
"E 	c #555454",
"F 	c #565553",
"G 	c #595C5A",
"H 	c #5A5247",
"I 	c #5F5F6F",
"J 	c #636263",
"K 	c #646E6F",
"L 	c #676355",
"M 	c #684949",
"N 	c #708391",
"O 	c #7C7574",
"P 	c #848688",
"Q 	c #888888",
"R 	c #8A9096",
"S 	c #8B8988",
"T 	c #8C8C8C",
"U 	c #8F7672",
"V 	c #906D6C",
"W 	c #908F90",
"X 	c #90A5A8",
"Y 	c #969693",
"Z 	c #97A7AB",
"` 	c #A1917C",
" .	c #A49581",
"..	c #A5C9E5",
"+.	c #A6A8C8",
"@.	c #A79783",
"#.	c #A89984",
"$.	c #A9AAC7",
"%.	c #ABADCB",
"&.	c #ABD0EE",
"*.	c #ACADCB",
"=.	c #ACAECC",
"-.	c #AED4F1",
";.	c #B3AB9B",
">.	c #B6B6B6",
",.	c #B6D7F0",
"'.	c #B7B09E",
").	c #B9B2A1",
"!.	c #BCB5A5",
"~.	c #BEBDBD",
"{.	c #C0B9AA",
"].	c #C1C5CA",
"^.	c #C3BCBA",
"/.	c #C5C5C3",
"(.	c #D2D1C8",
"_.	c #D4D3CF",
":.	c #D4D4D8",
"<.	c #D6D5D1",
"[.	c #D7DBE0",
"}.	c #D9D8D7",
"|.	c #DEDDD9",
"1.	c #DEDDDA",
"2.	c #DEE7EC",
"3.	c #DFDEDB",
"4.	c #E0D3D2",
"5.	c #E0D6D6",
"6.	c #E2E1DE",
"7.	c #E4D5D4",
"8.	c #E5D6D5",
"9.	c #E6D8D7",
"0.	c #E7FBFD",
"a.	c #EBEBEB",
"b.	c #EBECEC",
"c.	c #ECFFFF",
"d.	c #EDF5FD",
"e.	c #EEECE7",
"f.	c #EEEEF5",
"g.	c #EFEFEC",
"h.	c #F0EFE9",
"i.	c #F0F2F4",
"j.	c #F0FFFF",
"k.	c #F2F1F0",
"l.	c #F2F3F3",
"m.	c #F2FFFF",
"n.	c #F3E9E8",
"o.	c #F3F0ED",
"p.	c #F4F6F9",
"q.	c #F4F7F9",
"r.	c #F4FFFF",
"s.	c #F5EEEE",
"t.	c #F5F4F4",
"u.	c #F5F8FA",
"v.	c #F7F7F7",
"w.	c #F8F7F7",
"x.	c #F9F6F3",
"y.	c #F9F7F3",
"z.	c #F9F7F4",
"A.	c #F9FAFB",
"B.	c #FAF7F4",
"C.	c #FAF9F9",
"D.	c #FAFAF9",
"E.	c #FBF9F9",
"F.	c #FBFAFA",
"G.	c #FBFBFB",
"H.	c #FCFBF8",
"I.	c #FCFBF9",
"J.	c #FCFCFC",
"K.	c #FDFAF8",
"L.	c #FDFBFB",
"M.	c #FDFCF9",
"N.	c #FDFDFD",
"O.	c #FEFDFD",
"P.	c #FEFEFE",
"Q.	c #FFFFFD",
"R.	c #FFFFFF",
". . . . . . . . . . . . . . . . . . ",
". . . . . . . . . . . . . . . . . . ",
", , , > @ . . . . . . . . ; , , , * ",
"x C F s ] . . . . . . . ~ v B D y : ",
"<.v.K...5 . . * , = . . } ;.k.w.0.g ",
"6.R.R.-.0 . . a A m ' . } !.M.R.r.k ",
"|.R.R.&.9 . . E L.X < . 2 ).H.R.j.i ",
"1.R.R.&.6 { 4 J t.Z f ) 3 ).H.R.j.i ",
"3.R.R.&.[ w (.b.N.l.2.z | '.H.R.m.j ",
"}.E.R.,.e L g.R.R.R.R.N n {.I.C.c.h ",
"G U n.d.]._.D.R.R.R.R.[./.h.A.R K 1 ",
". r 7.R.R.R.R.R.R.R.R.R.R.R.p.l . . ",
". u 8.R.R.R.R.R.R.R.R.R.R.R.p.p $ . ",
". u 8.R.R.R.R.P.J.O.R.R.R.R.p.p $ . ",
". u 8.R.R.R.R.a.~.5.L.R.R.R.p.p $ . ",
". u 8.R.R.R.R.>.b V s.R.R.R.p.p $ . ",
". u 8.R.R.f.:.Q / M ^.e.O.R.p.p $ . ",
". u 8.R.R.+.( . . . . ` x.R.p.p $ . ",
". u 8.R.R.*.8 . . . ^ @.z.R.p.p $ . ",
". u 8.R.R.%.8 . . . ^ @.y.R.p.p $ . ",
". u 8.R.R.%.8 . . . ^ @.y.R.q.p $ . ",
". u 9.R.R.=.8 . . . ^ #.B.R.u.q $ . ",
". t 4.F.Q.$.7 . . . !  .o.G.i.o $ . ",
". d O T Y I _ . . . - H S W P c # . ",
". . * * * * . . . . . & * * * % . . ",
". . . . . . . . . . . . . . . . . . ",
". . . . . . . . . . . . . . . . . . ",
". . . . . . . . . . . . . . . . . . "};
