/* XPM */
static xpm_row_t const X_xpm[] = {
"42 44 146 2",
"  	c None",
". 	c #000000",
"+ 	c #010202",
"@ 	c #222527",
"# 	c #404040",
"$ 	c #3E3E3B",
"% 	c #1C1A13",
"& 	c #0A0A21",
"* 	c #3F4040",
"= 	c #302415",
"- 	c #030609",
"; 	c #79838B",
"> 	c #E2E2E2",
", 	c #DEDBD3",
"' 	c #655C45",
") 	c #252674",
"! 	c #DFE2E2",
"~ 	c #A97E4A",
"{ 	c #03070A",
"] 	c #89939C",
"^ 	c #FFFFFF",
"/ 	c #FBF7EE",
"( 	c #72674D",
"_ 	c #2A2B83",
": 	c #FCFFFF",
"< 	c #BF8E53",
"[ 	c #000001",
"} 	c #101417",
"| 	c #272828",
"1 	c #2B2E30",
"2 	c #9CA5AC",
"3 	c #FBF8F1",
"4 	c #887F69",
"5 	c #282828",
"6 	c #272523",
"7 	c #100B05",
"8 	c #070707",
"9 	c #4B4C97",
"0 	c #C9A06E",
"a 	c #130806",
"b 	c #000005",
"c 	c #546574",
"d 	c #C5CACA",
"e 	c #CBCCCD",
"f 	c #E7E9EB",
"g 	c #FEFDFB",
"h 	c #E2E0DA",
"i 	c #CACACA",
"j 	c #C3BBB1",
"k 	c #4F3719",
"l 	c #212122",
"m 	c #C9C9CA",
"n 	c #D3D3E6",
"o 	c #FEFFFF",
"p 	c #F2E8DB",
"q 	c #61261D",
"r 	c #000006",
"s 	c #697F92",
"t 	c #F8FFFF",
"u 	c #F5EBDF",
"v 	c #634520",
"w 	c #2A2A2B",
"x 	c #FCFDFE",
"y 	c #7A2F24",
"z 	c #627789",
"A 	c #E7EDED",
"B 	c #EEEEEE",
"C 	c #F7F7F8",
"D 	c #F7EEE3",
"E 	c #785E3E",
"F 	c #232323",
"G 	c #474748",
"H 	c #FDFEFF",
"I 	c #FBF7F3",
"J 	c #EDEDED",
"K 	c #722C21",
"L 	c #000002",
"M 	c #1F262B",
"N 	c #494B4B",
"O 	c #4D5052",
"P 	c #ACB3B9",
"Q 	c #D1AF86",
"R 	c #4B4B4B",
"S 	c #240E0A",
"T 	c #060818",
"U 	c #9197C6",
"V 	c #D6D4A3",
"W 	c #050000",
"X 	c #101C26",
"Y 	c #AED3F1",
"Z 	c #D5D5D4",
"` 	c #030201",
" .	c #020207",
"..	c #2B2C3A",
"+.	c #565F66",
"@.	c #C6E0F5",
"#.	c #E1E1E1",
"$.	c #4D4C4C",
"%.	c #3F3F30",
"&.	c #020000",
"*.	c #060716",
"=.	c #878DB9",
"-.	c #EFEFF0",
";.	c #FAFCFE",
">.	c #FCFCFC",
",.	c #C7C698",
"'.	c #010304",
").	c #383C40",
"!.	c #696969",
"~.	c #6C6D76",
"{.	c #BFC2DE",
"].	c #E7E6C9",
"^.	c #6C6969",
"/.	c #4E3A22",
"(.	c #181D21",
"_.	c #383A3A",
":.	c #3C3F41",
"<.	c #A4ACB3",
"[.	c #FDFAF8",
"}.	c #DCD5CC",
"|.	c #C5C5C5",
"1.	c #CFCFCF",
"2.	c #CDA87A",
"3.	c #3A3A3A",
"4.	c #1C0B08",
"5.	c #657A8C",
"6.	c #ECF3F3",
"7.	c #F3F3F3",
"8.	c #F9FAFA",
"9.	c #FFFFFE",
"0.	c #F8F8F7",
"a.	c #EAE0D4",
"b.	c #5E421E",
"c.	c #282829",
"d.	c #F1F2F3",
"e.	c #F5F5F9",
"f.	c #FCFAF7",
"g.	c #752D22",
"h.	c #020406",
"i.	c #4E5459",
"j.	c #909090",
"k.	c #8E8C87",
"l.	c #413B2C",
"m.	c #18184A",
"n.	c #8F9090",
"o.	c #6C502F",
". . . . . . . . . . . . . . . . . . . . . . . . . . . . . . . . . . . . . . . . . . ",
". . . . . . . . . . . . . . . . . . . . . . . . . . . . . . . . . . . . . . . . . . ",
". . . . . . . . . . . . . . . . . . . . . . . . . . . . . . . . . . . . . . . . . . ",
". . . . . . . . . . . . . . . . . . . . . . . . . . . . . . . . . . . . . . . . . . ",
". . . . . . . . . . . . . . . . . . . . . . . . . . . . . . . . . . . . . . . . . . ",
". . . . . . . . . + @ # $ % . . . . . . . . . . & * # = . . . . . . . . . . . . . . ",
". . . . . . . . . - ; > , ' . . . . . . . . . . ) ! > ~ . . . . . . . . . . . . . . ",
". . . . . . . . . { ] ^ / ( . . . . . . . . . . _ : ^ < . . . . . . . . . . . . . . ",
". . . . . . [ } | 1 2 ^ 3 4 5 6 7 . . . . 8 5 5 9 : ^ 0 5 5 a . . . . . . . . . . . ",
". . . . . . b c d e f ^ g h i j k . . . . l m i n o ^ p i i q . . . . . . . . . . . ",
". . . . . . r s t ^ ^ ^ ^ ^ ^ u v . . . . w x ^ ^ ^ ^ ^ ^ ^ y . . . . . . . . . . . ",
". . . . . . r z A B C ^ ^ ^ ^ D E F F F F G H ^ ^ ^ ^ I J J K . . . . . . . . . . . ",
". . . . . . L M N O P ^ ^ ^ ^ ^ ^ ^ ^ ^ ^ ^ ^ ^ ^ ^ ^ Q R R S . . . . . . . . . . . ",
". . . . . . . . . { ] ^ ^ ^ ^ ^ ^ ^ ^ ^ ^ ^ ^ ^ ^ ^ ^ < . . . . . . . . . . . . . . ",
". . . . . . . . . { ] ^ ^ ^ ^ ^ ^ ^ ^ ^ ^ ^ ^ ^ ^ ^ ^ < . . . . . . . . . . . . . . ",
". . . . . . . . . . . . T U ^ ^ ^ ^ ^ ^ ^ ^ ^ ^ V W . . . . . . . . . . . . . . . . ",
". . . . . . . . . . . . T U ^ ^ ^ ^ ^ ^ ^ ^ ^ ^ V W . . . . . . . . . . . . . . . . ",
". . . . . . . . . . . . T U ^ ^ ^ ^ ^ ^ ^ ^ ^ ^ V W . . . . . . . . . . . . . . . . ",
". . . . . . . . . . . . . . . X Y ^ ^ ^ ^ Z ` . . . . . . . . . . . . . . . . . . . ",
". . . . . . . . . . . . . . . X Y ^ ^ ^ ^ Z ` . . . . . . . . . . . . . . . . . . . ",
". . . . . . . . . . . .  ...R +.@.^ ^ ^ ^ #.$.R %.&.. . . . . . . . . . . . . . . . ",
". . . . . . . . . . . . *.=.J -.;.^ ^ ^ ^ >.B J ,.W . . . . . . . . . . . . . . . . ",
". . . . . . . . . . . . T U ^ ^ ^ ^ ^ ^ ^ ^ ^ ^ V W . . . . . . . . . . . . . . . . ",
". . . . . . . . . '.).!.~.{.^ ^ ^ ^ ^ ^ ^ ^ ^ ^ ].^.!./.. . . . . . . . . . . . . . ",
". . . . . . . . . { ] ^ ^ ^ ^ ^ ^ ^ ^ ^ ^ ^ ^ ^ ^ ^ ^ < . . . . . . . . . . . . . . ",
". . . . . . . . . { ] ^ ^ ^ ^ ^ ^ ^ ^ ^ ^ ^ ^ ^ ^ ^ ^ < . . . . . . . . . . . . . . ",
". . . . . . [ (._.:.<.^ ^ ^ ^ [.}.|.|.|.|.1.o ^ ^ ^ ^ 2.3.3.4.. . . . . . . . . . . ",
". . . . . . r s t ^ ^ ^ ^ ^ ^ u v . . . . w x ^ ^ ^ ^ ^ ^ ^ y . . . . . . . . . . . ",
". . . . . . r s t ^ ^ ^ ^ ^ ^ u v . . . . w x ^ ^ ^ ^ ^ ^ ^ y . . . . . . . . . . . ",
". . . . . . r 5.6.7.8.^ 9.0.7.a.b.. . . . c.d.7.e.^ ^ f.7.7.g.. . . . . . . . . . . ",
". . . . . . . . . { ] ^ / ( . . . . . . . . . . _ : ^ < . . . . . . . . . . . . . . ",
". . . . . . . . . { ] ^ / ( . . . . . . . . . . _ : ^ < . . . . . . . . . . . . . . ",
". . . . . . . . . h.i.j.k.l.. . . . . . . . . . m.n.j.o.. . . . . . . . . . . . . . ",
". . . . . . . . . . . . . . . . . . . . . . . . . . . . . . . . . . . . . . . . . . ",
". . . . . . . . . . . . . . . . . . . . . . . . . . . . . . . . . . . . . . . . . . ",
". . . . . . . . . . . . . . . . . . . . . . . . . . . . . . . . . . . . . . . . . . ",
". . . . . . . . . . . . . . . . . . . . . . . . . . . . . . . . . . . . . . . . . . ",
". . . . . . . . . . . . . . . . . . . . . . . . . . . . . . . . . . . . . . . . . . ",
". . . . . . . . . . . . . . . . . . . . . . . . . . . . . . . . . . . . . . . . . . ",
". . . . . . . . . . . . . . . . . . . . . . . . . . . . . . . . . . . . . . . . . . ",
". . . . . . . . . . . . . . . . . . . . . . . . . . . . . . . . . . . . . . . . . . ",
". . . . . . . . . . . . . . . . . . . . . . . . . . . . . . . . . . . . . . . . . . ",
". . . . . . . . . . . . . . . . . . . . . . . . . . . . . . . . . . . . . . . . . . ",
". . . . . . . . . . . . . . . . . . . . . . . . . . . . . . . . . . . . . . . . . . "};
