/* XPM */
static xpm_row_t const X_lil_xpm[] = {
"19 28 249 2",
"  	c None",
". 	c #000000",
"+ 	c #08090A",
"@ 	c #1C1D1E",
"# 	c #262625",
"$ 	c #1B1B18",
"% 	c #080704",
"& 	c #010006",
"* 	c #10101A",
"= 	c #262726",
"- 	c #22201C",
"; 	c #120D06",
"> 	c #282D31",
", 	c #8B8F94",
"' 	c #BCBBB8",
") 	c #8A8678",
"! 	c #272317",
"~ 	c #04041C",
"{ 	c #525481",
"] 	c #BDC1BE",
"^ 	c #A99C8C",
"/ 	c #573D1E",
"( 	c #363E44",
"_ 	c #C5CBD1",
": 	c #FFFFFF",
"< 	c #C5BEAB",
"[ 	c #362F1F",
"} 	c #020326",
"| 	c #7476B6",
"1 	c #F1DEC7",
"2 	c #7A5529",
"3 	c #4B5157",
"4 	c #CCD3D7",
"5 	c #CCC5B4",
"6 	c #4A4435",
"7 	c #0F1011",
"8 	c #110F0C",
"9 	c #050300",
"0 	c #010101",
"a 	c #0B0B0B",
"b 	c #161612",
"c 	c #1B1B3C",
"d 	c #8284BF",
"e 	c #F4E3CE",
"f 	c #88663E",
"g 	c #B3B6B8",
"h 	c #E9ECEE",
"i 	c #E9E6DF",
"j 	c #B2B0AA",
"k 	c #9C9A98",
"l 	c #756858",
"m 	c #1E1203",
"n 	c #030303",
"o 	c #4B4B4C",
"p 	c #A4A4A3",
"q 	c #9E9EAC",
"r 	c #CACBE4",
"s 	c #FAF3EA",
"t 	c #CCBEAC",
"u 	c #FBFBFB",
"v 	c #FEFEFE",
"w 	c #FDFDFD",
"x 	c #F9FAFA",
"y 	c #FBF8F5",
"z 	c #B8A48C",
"A 	c #2D1A02",
"B 	c #020202",
"C 	c #757677",
"D 	c #F7F7F9",
"E 	c #FBFBFD",
"F 	c #FFFEFE",
"G 	c #FCFBFA",
"H 	c #FAFAFA",
"I 	c #FEFDFE",
"J 	c #FFFFFE",
"K 	c #C6B39B",
"L 	c #43311B",
"M 	c #101214",
"N 	c #161616",
"O 	c #141414",
"P 	c #1B1B1C",
"Q 	c #878889",
"R 	c #FBFAF9",
"S 	c #95999C",
"T 	c #E1E4E6",
"U 	c #EEE9E3",
"V 	c #CAC6BF",
"W 	c #BCBDBD",
"X 	c #BEBEBE",
"Y 	c #BDBDBD",
"Z 	c #BFBFC0",
"` 	c #DDDDDE",
" .	c #F7EEE2",
"..	c #B8A58E",
"+.	c #42494F",
"@.	c #CBD1D6",
"#.	c #F4E2CD",
"$.	c #846136",
"%.	c #363D43",
"&.	c #C4CAD0",
"*.	c #FEFEFF",
"=.	c #F0DDC6",
"-.	c #7A5428",
";.	c #111315",
">.	c #3A3C3D",
",.	c #48484A",
"'.	c #717389",
").	c #D6D9EF",
"!.	c #FBFAEC",
"~.	c #AAA98F",
"{.	c #414245",
"].	c #47423B",
"^.	c #241A0D",
"/.	c #33375A",
"(.	c #C8CCED",
"_.	c #FDFCE7",
":.	c #88855E",
"<.	c #000001",
"[.	c #3B3F60",
"}.	c #C4C7E4",
"|.	c #FFFFFC",
"1.	c #FBFCFC",
"2.	c #FEFFFF",
"3.	c #FCFCFC",
"4.	c #F9F9FC",
"5.	c #F4F3E0",
"6.	c #888462",
"7.	c #11121B",
"8.	c #393941",
"9.	c #444648",
"0.	c #768999",
"a.	c #E2F5FF",
"b.	c #A5A5A4",
"c.	c #3D3D3E",
"d.	c #474641",
"e.	c #27261C",
"f.	c #415C72",
"g.	c #D7F1FF",
"h.	c #F9F9F9",
"i.	c #7E7E7D",
"j.	c #000100",
"k.	c #0F1018",
"l.	c #313139",
"m.	c #404344",
"n.	c #7A8D9C",
"o.	c #E3F5FF",
"p.	c #A3A2A2",
"q.	c #363535",
"r.	c #3E3E39",
"s.	c #222219",
"t.	c #2F314D",
"u.	c #A2A5BD",
"v.	c #D4D4D2",
"w.	c #DEE1E6",
"x.	c #F8FCFF",
"y.	c #E7E7E7",
"z.	c #CDCDCF",
"A.	c #CACABA",
"B.	c #6E6D4F",
"C.	c #010100",
"D.	c #000002",
"E.	c #3E4264",
"F.	c #CDD1EF",
"G.	c #FFFFEB",
"H.	c #8E8B67",
"I.	c #141719",
"J.	c #47494B",
"K.	c #5B5C5F",
"L.	c #83859A",
"M.	c #DDDFF2",
"N.	c #FCFCEF",
"O.	c #B5B39C",
"P.	c #555457",
"Q.	c #575048",
"R.	c #2C1F0F",
"S.	c #32393F",
"T.	c #AFB4B9",
"U.	c #E4E4E4",
"V.	c #E6E6EB",
"W.	c #F8F9FC",
"X.	c #FEFEFC",
"Y.	c #F0F0EB",
"Z.	c #DFE0E3",
"`.	c #D4C4AF",
" +	c #6F4E26",
".+	c #384047",
"++	c #CAD1D7",
"@+	c #F7E4CC",
"#+	c #7F582A",
"$+	c #6A6F74",
"%+	c #D4D9DD",
"&+	c #F0EAE4",
"*+	c #CDC8C2",
"=+	c #BEBEBF",
"-+	c #BFBFBF",
";+	c #C1C1C2",
">+	c #DEDFDF",
",+	c #F5E7D6",
"'+	c #9C815F",
")+	c #DCDDDE",
"!+	c #F5F6F7",
"~+	c #FFFFFD",
"{+	c #C7B49F",
"]+	c #52412C",
"^+	c #282A2C",
"/+	c #2D2D2D",
"(+	c #2C2C2C",
"_+	c #2E2E2E",
":+	c #8B8C8D",
"<+	c #FDF9F5",
"[+	c #E8E1D9",
"}+	c #C2AC91",
"|+	c #2C1600",
"1+	c #787879",
"2+	c #E2E3E4",
"3+	c #F7F7F8",
"4+	c #F7F6F3",
"5+	c #E2E2E0",
"6+	c #DCD9D6",
"7+	c #A3927C",
"8+	c #2A1A05",
"9+	c #050505",
"0+	c #69696A",
"a+	c #E5E5E5",
"b+	c #DADADF",
"c+	c #EBECF4",
"d+	c #FDFAF7",
"e+	c #ECE6E0",
"f+	c #61666A",
"g+	c #D1D7DC",
"h+	c #D3CCBD",
"i+	c #615B4E",
"j+	c #333334",
"k+	c #2A2520",
"l+	c #0B0701",
"m+	c #3A3B38",
"n+	c #393956",
"o+	c #8F8FC5",
"p+	c #F6E6D3",
"q+	c #997A54",
"r+	c #2F363C",
"s+	c #BDC4CA",
"t+	c #BEB6A3",
"u+	c #2F2817",
"v+	c #000020",
"w+	c #6B6CAE",
"x+	c #EAD6BF",
"y+	c #744E20",
"z+	c #000000",
". . . . . . . . . . . . . . . . . . . ",
". @ - 7 . . . . . . . . . . . 7 - - l+",
"> , W 7+! . . . . . . . . . v+{ s+^ / ",
"S.r : t+[ . . . . . . . . . v+| : @+-.",
"3 g+: A.6 + ; . . . . . . 7 c o+: @+$.",
"W Y.: U j k l m . . . . P.b.q (.: s t ",
"x.: : : : : z m . . . . C : : : : : : ",
": : : : : : K L 7 7 7 7 Q : : : : : : ",
", ` : : : :  .A.s+A.W z.` : : : :  .z ",
"{.g+: : : : : : : : : : : : : : : 1 2 ",
"S.s+: : : : : : : : : : : : : : : 1 -.",
"7 j+{.'.).: : : : : : : : : G.k m+6 ^.",
". . . t.(.: : : : : : : : : _.:.. . . ",
". . . [.(.: : : : : : : : 4.U :.. . . ",
". . . 7.j+j+0.g.: : : : b.j+6 ! . . . ",
". . . . . . f.g.: : : Y.C . . . . . . ",
". . . + j+{.0.g.: : : : b.j+j+! . . . ",
". . . /.u.` M.: : : : : Y.z.A.B.. . . ",
". . . [.(.: : : : : : : : : G.6.. . . ",
"7 +.K.L.M.: : : : : : : : : G.t+P.Q.m ",
"S.T.V.Y.: : : : : : : : : : : Y.` h+-.",
"( g+: : : : : : : : : : : : : : : @+-.",
"$+g+: : : : U A.W W W W ` : : : :  .'+",
"` : : : : : K L - ^+- /+Q : : : : G.[+",
": : : : : : K |+. . . . C : : : : : : ",
"M.G.: Y.` ` 7+m . . . . 0+Y.b+Y.: 4.[+",
"K.r : h+i+/+! l+. . . . 7 j+t.o+: @+q+",
"> s+: O.R.. . . . . . . . . v+w+: x+y+"};
