/* XPM */
static xpm_row_t const Y_xpm[] = {
"42 44 87 1",
" 	c None",
".	c #000000",
"+	c #090E13",
"@	c #404040",
"#	c #252119",
"$	c #0F202E",
"%	c #1C0907",
"&	c #203342",
"*	c #E2E2E2",
"=	c #817456",
"-	c #3572A4",
";	c #611F18",
">	c #243A4B",
",	c #FFFFFF",
"'	c #928261",
")	c #3B81B9",
"!	c #6E231B",
"~	c #000005",
"{	c #232828",
"]	c #282828",
"^	c #475967",
"/	c #A3967A",
"(	c #262422",
"_	c #0B0803",
":	c #00000B",
"<	c #5B95C4",
"[	c #85463F",
"}	c #262625",
"|	c #040301",
"1	c #000018",
"2	c #B0CACA",
"3	c #CACACA",
"4	c #D2D6DA",
"5	c #E8E5DF",
"6	c #C0B6AA",
"7	c #362612",
"8	c #000039",
"9	c #C8CACA",
"0	c #D7E5F1",
"a	c #E1D1D0",
"b	c #BFBEBD",
"c	c #150F07",
"d	c #00001F",
"e	c #DDFFFF",
"f	c #F1E5D5",
"g	c #443016",
"h	c #000048",
"i	c #FBFFFF",
"j	c #F1F0EE",
"k	c #1B1308",
"l	c #00001D",
"m	c #CEEDED",
"n	c #EDEDED",
"o	c #F0F1F2",
"p	c #F3E9DC",
"q	c #5E4C36",
"r	c #232323",
"s	c #191211",
"t	c #010000",
"u	c #1B1B1B",
"v	c #232360",
"w	c #FCFFFF",
"x	c #F5F0EF",
"y	c #E0DFDE",
"z	c #191208",
"A	c #000009",
"B	c #414B4B",
"C	c #4B4B4B",
"D	c #647480",
"E	c #B57F7C",
"F	c #070000",
"G	c #010102",
"H	c #C9C9C9",
"I	c #99645E",
"J	c #474646",
"K	c #080603",
"L	c #747DB8",
"M	c #E5AD67",
"N	c #152431",
"O	c #C7E1F5",
"P	c #FFFFD8",
"Q	c #060000",
"R	c #0C151C",
"S	c #717F8B",
"T	c #909090",
"U	c #90907A",
"V	c #030000",
"..........................................",
"..........................................",
"..........................................",
"..........................................",
"..........................................",
".........+@@#............$@@%.............",
".........&**=............-**;.............",
".........>,,'............),,!.............",
"......~{]^,,/](_......:]]<,,[]}|..........",
"......1234,,5367......8930,,a3bc..........",
"......de,,,,,,fg......hi,,,,,,jk..........",
"......lmno,,,,pqrst.urvw,,,,xnyz..........",
"......ABCD,,,,,,,EFGH,,,,,,,ICJK..........",
".........>,,,,,,,EFGH,,,,,,,!.............",
".........>,,,,,,,EFGH,,,,,,,!.............",
"............L,,,,,,,,,,,,M................",
"............L,,,,,,,,,,,,M................",
"............L,,,,,,,,,,,,M................",
"..............NO,,,,,,PQ..................",
"..............NO,,,,,,PQ..................",
"..............NO,,,,,,PQ..................",
"..............NO,,,,,,PQ..................",
"..............NO,,,,,,PQ..................",
"..............NO,,,,,,PQ..................",
"..............NO,,,,,,PQ..................",
"..............NO,,,,,,PQ..................",
"..............NO,,,,,,PQ..................",
"..............NO,,,,,,PQ..................",
"..............NO,,,,,,PQ..................",
"..............NO,,,,,,PQ..................",
"..............NO,,,,,,PQ..................",
"..............NO,,,,,,PQ..................",
"..............RSTTTTTTUV..................",
"..........................................",
"..........................................",
"..........................................",
"..........................................",
"..........................................",
"..........................................",
"..........................................",
"..........................................",
"..........................................",
"..........................................",
".........................................."};
