/* XPM */
static xpm_row_t const Y_lil_xpm[] = {
"18 28 154 2",
"  	c None",
". 	c #000000",
"+ 	c #3D3F40",
"@ 	c #4A4948",
"# 	c #28231C",
"$ 	c #010304",
"% 	c #11212D",
"& 	c #444749",
"* 	c #464342",
"= 	c #1A0806",
"- 	c #BDC3C7",
"; 	c #E2E0DD",
"> 	c #796D56",
", 	c #02080E",
"' 	c #34638A",
") 	c #D2DBE2",
"! 	c #D7CDCA",
"~ 	c #501711",
"{ 	c #D9DFE3",
"] 	c #FAF8F4",
"^ 	c #8C7F64",
"/ 	c #00070D",
"( 	c #3B72A0",
"_ 	c #F1FCFF",
": 	c #F2E7E5",
"< 	c #5E1B14",
"[ 	c #E2E6EA",
"} 	c #FBF9F6",
"| 	c #A9A08B",
"1 	c #3E3E3D",
"2 	c #34312D",
"3 	c #0B0701",
"4 	c #04040C",
"5 	c #2B2A31",
"6 	c #444647",
"7 	c #6D96B8",
"8 	c #F5FCFF",
"9 	c #F4EDEB",
"0 	c #865550",
"a 	c #F8F9FA",
"b 	c #FEFDFD",
"c 	c #EBE8E5",
"d 	c #D1D0CF",
"e 	c #AFA495",
"f 	c #231504",
"g 	c #000001",
"h 	c #0E0F24",
"i 	c #8F91A8",
"j 	c #DEDEDB",
"k 	c #DDE6EE",
"l 	c #FDFEFF",
"m 	c #FCFBFA",
"n 	c #E3D8D7",
"o 	c #FFFFFF",
"p 	c #FEFCFA",
"q 	c #D7C9B6",
"r 	c #271700",
"s 	c #0C0C29",
"t 	c #ACAFCD",
"u 	c #FEFEFE",
"v 	c #F6F7F9",
"w 	c #FFFEFD",
"x 	c #E6DED3",
"y 	c #7C7163",
"z 	c #555050",
"A 	c #2C1C1B",
"B 	c #232322",
"C 	c #5A5A5A",
"D 	c #62627C",
"E 	c #CDCFE0",
"F 	c #FCF9F9",
"G 	c #DCCECC",
"H 	c #DEE3E6",
"I 	c #FCFCFB",
"J 	c #F3F3F1",
"K 	c #E4DEDE",
"L 	c #764A47",
"M 	c #000101",
"N 	c #5E5E5F",
"O 	c #F7F7F7",
"P 	c #EFEFF2",
"Q 	c #FAFAFC",
"R 	c #F2EBEA",
"S 	c #804C46",
"T 	c #E7EDF1",
"U 	c #EEDFDE",
"V 	c #6D3D3A",
"W 	c #515152",
"X 	c #FDFDFD",
"Y 	c #F7ECEB",
"Z 	c #661F16",
"` 	c #838788",
" .	c #A0A1A3",
"..	c #CBCEE1",
"+.	c #F4EBEA",
"@.	c #AB908E",
"#.	c #636565",
"$.	c #9C9C9D",
"%.	c #FCFCFC",
"&.	c #FFFDFA",
"*.	c #F2E0CC",
"=.	c #A5A29F",
"-.	c #908A8A",
";.	c #39110C",
">.	c #0C0C0B",
",.	c #181920",
"'.	c #777EB1",
").	c #F7F4F4",
"!.	c #F0F0F0",
"~.	c #F6F6F6",
"{.	c #FFFAF3",
"].	c #DDB07A",
"^.	c #160F08",
"/.	c #0D0D0D",
"(.	c #050201",
"_.	c #0A0B13",
":.	c #828AC1",
"<.	c #FFFFFD",
"[.	c #ECC385",
"}.	c #150B01",
"|.	c #050609",
"1.	c #3D4059",
"2.	c #808283",
"3.	c #98A1A8",
"4.	c #EEF9FF",
"5.	c #F6F6F1",
"6.	c #A8A79F",
"7.	c #7C7976",
"8.	c #6F5A3D",
"9.	c #0B0702",
"0.	c #050507",
"a.	c #0A0C0E",
"b.	c #2F4150",
"c.	c #DCF3FF",
"d.	c #EDEDE5",
"e.	c #53503F",
"f.	c #050506",
"g.	c #090705",
"h.	c #010100",
"i.	c #000103",
"j.	c #2F404F",
"k.	c #DCF2FF",
"l.	c #EDEDE4",
"m.	c #514D3D",
"n.	c #314351",
"o.	c #DDF2FF",
"p.	c #534F3F",
"q.	c #DDF3FF",
"r.	c #EEEDE5",
"s.	c #324452",
"t.	c #E1F7FF",
"u.	c #F2F1E8",
"v.	c #555140",
"w.	c #000000",
". . . . . . . . . . . . . . . . . . ",
". . . . . . . . . . . . . . . . . . ",
"+ * # . . . . . . . . . . . % * * 3 ",
"- l.> . . . . . . . . . . 4 ' k G ~ ",
"j o ^ . . . . . . . . . . 4 ' _ Y ~ ",
"k {.| 2 2 . . . . . . . 5 * 7 o !.0 ",
"o o !.j e f . . . . . h i k k o o U ",
"o o o o q f . . . . . s t o o o o o ",
"4.o o o x ^ W f . B W D E o o o o G ",
"k o o o F !.: L . N o 4.o o o o l.V ",
"!.o o o o o : V . * o o o o o o Y Z ",
"2.$.E o o o : @.#.3.o o o o *.$.-.;.",
"4 /.'.o o o o Y 4.Y o o o {.].}.. . ",
". 4 :.o o o o o o o o o o o [.3 . . ",
". 4 s.7.i 4.o o o o o Y 6.y 8.3 . . ",
". . . _.s.t.o o o o o !.1 . . . . . ",
". . . . j.o.o o o o o u.e.. . . . . ",
". . . . b.o.o o o o o l.m.. . . . . ",
". . . . b.o.o o o o o l.e.. . . . . ",
". . . . s.o.o o o o o l.m.. . . . . ",
". . . . b.o.o o o o o !.m.. . . . . ",
". . . . b.t.o o o o o l.m.. . . . . ",
". . . . j.o.o o o o o l.m.. . . . . ",
". . . . b.t.o o o o o l.m.. . . . . ",
". . . . b.o.o o o o o !.m.. . . . . ",
". . . . b.t.o o o o o l.1 . . . . . ",
". . . . b.o.o o o o o Y e.. . . . . ",
". . . . s.t.o o o o o l.e.. . . . . "};
