/* XPM */
static xpm_row_t const Z_xpm[] = {
"42 44 88 1",
" 	c None",
".	c #000000",
"+	c #00000B",
"@	c #384040",
"#	c #404040",
"$	c #3E3D3D",
"%	c #201611",
"&	c #000028",
"*	c #C7E2E2",
"=	c #E2E2E2",
"-	c #DEDAD8",
";	c #714E3B",
">	c #00002E",
",	c #E0FFFF",
"'	c #FFFFFF",
")	c #FAF6F4",
"!	c #805842",
"~	c #FBF7F6",
"{	c #947260",
"]	c #282828",
"^	c #110C06",
"/	c #FEFDFD",
"(	c #E5DDD8",
"_	c #CACACA",
":	c #573C1C",
"<	c #6D4C23",
"[	c #00002A",
"}	c #D0EDED",
"|	c #EDEDED",
"1	c #EDEDF0",
"2	c #FBFDFD",
"3	c #00000D",
"4	c #424B4B",
"5	c #4B4B4B",
"6	c #4B4B65",
"7	c #D6EAEF",
"8	c #000025",
"9	c #C5E1E8",
"0	c #B2D5F2",
"a	c #080B10",
"b	c #414854",
"c	c #626262",
"d	c #D0E5F7",
"e	c #151B28",
"f	c #A8B9D9",
"g	c #F9EDDE",
"h	c #615342",
"i	c #050B10",
"j	c #3A3D40",
"k	c #5A5E67",
"l	c #C2CEE4",
"m	c #FFFFF9",
"n	c #CCBCBB",
"o	c #B3B3B3",
"p	c #B0A79D",
"q	c #453B2F",
"r	c #112434",
"s	c #B8C2CB",
"t	c #EFEFF0",
"u	c #F9FAFC",
"v	c #FFFFEC",
"w	c #5D2D2A",
"x	c #111111",
"y	c #11100F",
"z	c #070604",
"A	c #122738",
"B	c #C6D1DA",
"C	c #FFFFEA",
"D	c #511E1A",
"E	c #000013",
"F	c #5C6969",
"G	c #696969",
"H	c #73808A",
"I	c #DDE3E9",
"J	c #DED8D1",
"K	c #CACABA",
"L	c #401815",
"M	c #775F41",
"N	c #282825",
"O	c #0D0404",
"P	c #5D411E",
"Q	c #826C51",
"R	c #3A3A3A",
"S	c #191108",
"T	c #00001A",
"U	c #809090",
"V	c #909090",
"W	c #3E2B14",
"..........................................",
"..........................................",
"..........................................",
"..........................................",
"..........................................",
".......+@################$%...............",
".......&*================-;...............",
".......>,'''''''''''''''')!...............",
".......>,''''''''''''''''~{]]^............",
".......>,''''''''''''''''/(__:............",
".......>,''''''''''''''''''''<............",
".......[}||||||||||12''''''''<............",
".......34555555555567''''''''<............",
"...................89''''''''<............",
"...................89''''''''<............",
".................0''''''')!...............",
".................0''''''')!...............",
".............abccd''''''')!...............",
".............ef'''''''gh..................",
".............ef'''''''gh..................",
"..........ij5kl''''mnopq..................",
"..........rs|tu''''vwxyz..................",
"..........AB'''''''CD.....................",
".......EFGHI'''''J_KL.....................",
".......>,''''''''M]NO.....................",
".......>,''''''''P........................",
".......>,''''''''QRRRRRRRRRRRS............",
".......>,''''''''''''''''''''<............",
".......>,''''''''''''''''''''<............",
".......>,''''''''''''''''''''<............",
".......>,''''''''''''''''''''<............",
".......>,''''''''''''''''''''<............",
".......TUVVVVVVVVVVVVVVVVVVVVW............",
"..........................................",
"..........................................",
"..........................................",
"..........................................",
"..........................................",
"..........................................",
"..........................................",
"..........................................",
"..........................................",
"..........................................",
".........................................."};
