/* XPM */
static xpm_row_t const Z_lil_xpm[] = {
"19 28 138 2",
"  	c None",
". 	c #000000",
"+ 	c #3C3C3C",
"@ 	c #3B3A3A",
"# 	c #201611",
"$ 	c #010100",
"% 	c #DCDCDC",
"& 	c #D9D6D4",
"* 	c #72513F",
"= 	c #030201",
"- 	c #FEFEFE",
"; 	c #FDF9F8",
"> 	c #855D48",
", 	c #FFFFFF",
"' 	c #FDFAFA",
") 	c #9A7967",
"! 	c #2E2D2C",
"~ 	c #2B2B2B",
"{ 	c #FEFDFD",
"] 	c #E5DDD8",
"^ 	c #C8C8C8",
"/ 	c #CACBCC",
"( 	c #FEFEFD",
"_ 	c #FDFDFD",
": 	c #E5E5E5",
"< 	c #E5E5EA",
"[ 	c #F9FCFC",
"} 	c #484848",
"| 	c #484863",
"1 	c #D4E8ED",
"2 	c #040404",
"3 	c #020202",
"4 	c #01011F",
"5 	c #C2DEE5",
"6 	c #FEFFFF",
"7 	c #101316",
"8 	c #181818",
"9 	c #171738",
"0 	c #C8E2E8",
"a 	c #FEFFFE",
"b 	c #F4F1EF",
"c 	c #E7E7E7",
"d 	c #EAEBEC",
"e 	c #B0D3EE",
"f 	c #EEEEEE",
"g 	c #EEEEF0",
"h 	c #FBFDFD",
"i 	c #FCF9F7",
"j 	c #865F4A",
"k 	c #151313",
"l 	c #111112",
"m 	c #010101",
"n 	c #050505",
"o 	c #060606",
"p 	c #070707",
"q 	c #B6D8F5",
"r 	c #FFFFFE",
"s 	c #895F48",
"t 	c #030100",
"u 	c #0B0E14",
"v 	c #4F5766",
"w 	c #767676",
"x 	c #D6E9F8",
"y 	c #FFFDFB",
"z 	c #EBEAE8",
"A 	c #DEDEDE",
"B 	c #DCD9D7",
"C 	c #75523F",
"D 	c #030202",
"E 	c #151B29",
"F 	c #AABBDC",
"G 	c #F6F6F6",
"H 	c #FCFEFF",
"I 	c #FDF2E2",
"J 	c #655746",
"K 	c #121211",
"L 	c #101010",
"M 	c #090605",
"N 	c #050405",
"O 	c #1C2230",
"P 	c #ADBEDE",
"Q 	c #FBFAFA",
"R 	c #F9F9F9",
"S 	c #F5E9DB",
"T 	c #615242",
"U 	c #091118",
"V 	c #505458",
"W 	c #666666",
"X 	c #73767E",
"Y 	c #CCD6E9",
"Z 	c #FFFFF7",
"` 	c #BBA6A5",
" .	c #999999",
"..	c #979087",
"+.	c #3D352A",
"@.	c #122637",
"#.	c #BFC9D2",
"$.	c #F3F3F3",
"%.	c #F3F4F4",
"&.	c #FBFBFD",
"*.	c #FFFFEE",
"=.	c #5C2B27",
"-.	c #0D0D0D",
";.	c #0C0C0A",
">.	c #050503",
",.	c #233747",
"'.	c #CED9E1",
").	c #FDFDFC",
"!.	c #FCFCFC",
"~.	c #FDFDE8",
"{.	c #511E1A",
"].	c #939DA5",
"^.	c #E7EBEF",
"/.	c #CAC0B5",
"(.	c #ABABAB",
"_.	c #ABAB9D",
":.	c #381513",
"<.	c #010000",
"[.	c #F8F9F9",
"}.	c #FDFEFE",
"|.	c #6E5435",
"1.	c #1A1A1A",
"2.	c #1A1A18",
"3.	c #080101",
"4.	c #5D421F",
"5.	c #000001",
"6.	c #020303",
"7.	c #030303",
"8.	c #A1907C",
"9.	c #6B6B6B",
"0.	c #6B6B6C",
"a.	c #6C6C6C",
"b.	c #6D6E6E",
"c.	c #F9F8F6",
"d.	c #F5F5F5",
"e.	c #F9F9FA",
"f.	c #E9E9EA",
"g.	c #000000",
". . . . . . . . . . . . . . . . . . . ",
"! } ! } ! } ! } ! } ! } ! } ! ! # . . ",
"^.% % % % % % % % % % % % % f ] C . . ",
", , , , , , , , , , , , , , , , > . . ",
", , , , , , , , , , , , , , , , ) ! 1.",
", , , , , , , , , , , , , , , , ] / % ",
", , , , , , , , , , , , , , , , , , , ",
"f % f % f % f % f < , , , , , , , , , ",
"} } } } } } } } + } Y , , , , , , , , ",
". . . . . . . . . 4 q , , , , , , , , ",
". . . . . . . l l 9 0 , , , , , f ^.f ",
". . . . . . . q [ f , , , , , *.C 3.l ",
". . . . . . . q , , , , , , , , s . . ",
". . . N v X w x , , , , , S % % * . . ",
". . . 9 F , , , , , , , I T l 3.. . . ",
". . . @.#., , , , , , f S T . . . . . ",
"U V W w Y , , , , *.`  ...! . . . . . ",
"@.'.f , [ , , , , *.{.. ;.. . . . . . ",
"@.'., , , , , , , *.{.. . . . . . . . ",
"].%., , , , , /.]._.:.. . . . . . . . ",
", , , , , , , |.l # . . . . . . . . . ",
", , , , , , , 4.. . . . . . . . . . . ",
", , , , , , , 8.W W b.b.a.w W w W w W ",
", , , , , , , , , , , *.' , *.%., , , ",
", , , , , , , , , , , , , , , , , , , ",
", , , , , , , , , , , , , , , , , , , ",
", , , , , , , , , , , , , , , , , , , ",
"f % < % % < % % % % < % % < % < % < f "};
