/* XPM */
static xpm_row_t const Zero_lil_xpm[] = {
"19 28 201 2",
"  	c None",
". 	c #000000",
"+ 	c #030407",
"@ 	c #131416",
"# 	c #1B1B1B",
"$ 	c #1B1B1C",
"% 	c #1C1B1A",
"& 	c #0C0B09",
"* 	c #010101",
"= 	c #121424",
"- 	c #6D6F7E",
"; 	c #9B9C9D",
"> 	c #9C9C9B",
", 	c #9A9A9A",
"' 	c #9C9C9F",
") 	c #9F9E92",
"! 	c #454235",
"~ 	c #060502",
"{ 	c #1F233D",
"] 	c #B8BBD4",
"^ 	c #FFFFFF",
"/ 	c #FFFFF5",
"( 	c #74715B",
"_ 	c #080703",
": 	c #1A1C1E",
"< 	c #3D3F3E",
"[ 	c #636678",
"} 	c #CDCFE0",
"| 	c #FEFEFF",
"1 	c #9F9C8D",
"2 	c #52504E",
"3 	c #352A20",
"4 	c #0A0703",
"5 	c #464D53",
"6 	c #C2C4C5",
"7 	c #E3E3E6",
"8 	c #F5F5F8",
"9 	c #FFFFFD",
"0 	c #EBEBE9",
"a 	c #E3E2E1",
"b 	c #9D805E",
"c 	c #180E03",
"d 	c #15181A",
"e 	c #1F2020",
"f 	c #757B81",
"g 	c #EDEFF1",
"h 	c #FFFFFE",
"i 	c #F4F2F0",
"j 	c #EAE9E8",
"k 	c #E8E8E8",
"l 	c #EBEBEB",
"m 	c #FBFBFB",
"n 	c #C9AE8B",
"o 	c #474035",
"p 	c #1D1818",
"q 	c #646E77",
"r 	c #ADB0B2",
"s 	c #D2D4D6",
"t 	c #F7F8F9",
"u 	c #FFFFFB",
"v 	c #BBAE9E",
"w 	c #77746F",
"x 	c #6D6E6F",
"y 	c #6B6B6B",
"z 	c #828282",
"A 	c #E5E5E5",
"B 	c #EBE3D7",
"C 	c #C5C7C4",
"D 	c #957774",
"E 	c #92A0AC",
"F 	c #FCFFFF",
"G 	c #887053",
"H 	c #0F0901",
"I 	c #212122",
"J 	c #D7D7D7",
"K 	c #D8ADA7",
"L 	c #8898A3",
"M 	c #F1F6F8",
"N 	c #F4F1EB",
"O 	c #BAB8B3",
"P 	c #9D9994",
"Q 	c #4D402E",
"R 	c #090500",
"S 	c #121212",
"T 	c #7E7E7C",
"U 	c #9C9CAB",
"V 	c #D2D3E3",
"W 	c #FBFBFE",
"X 	c #CEA6A1",
"Y 	c #8998A3",
"Z 	c #E0D9CA",
"` 	c #413B2D",
" .	c #000012",
"..	c #878AB3",
"+.	c #F4F5FD",
"@.	c #E1DBCD",
"#.	c #4C4638",
"$.	c #030200",
"%.	c #000020",
"&.	c #8D90B7",
"*.	c #F5F5FD",
"=.	c #8E90B7",
"-.	c #F5F6FD",
";.	c #E0DACC",
">.	c #494335",
",.	c #00001C",
"'.	c #8B8EB6",
").	c #E2DDCF",
"!.	c #565043",
"~.	c #12100E",
"{.	c #070604",
"].	c #010100",
"^.	c #020202",
"/.	c #0C0C07",
"(.	c #09092C",
"_.	c #9395BB",
":.	c #8998A4",
"<.	c #F2F6F8",
"[.	c #F1EEE7",
"}.	c #AAA7A2",
"|.	c #86827E",
"1.	c #433829",
"2.	c #090501",
"3.	c #111111",
"4.	c #6C6C68",
"5.	c #858596",
"6.	c #C9CADC",
"7.	c #FAFAFE",
"8.	c #CFA6A1",
"9.	c #8D9BA7",
"0.	c #F8FCFF",
"a.	c #FFFFF9",
"b.	c #836B4E",
"c.	c #0B0400",
"d.	c #D2D2D3",
"e.	c #D4ABA5",
"f.	c #6D7983",
"g.	c #C1C5C7",
"h.	c #E1E2E3",
"i.	c #F9FAFA",
"j.	c #FFFFFA",
"k.	c #9F8C75",
"l.	c #3F3933",
"m.	c #303131",
"n.	c #2D2D2D",
"o.	c #4D4D4E",
"p.	c #DBDBDB",
"q.	c #F1EBE3",
"r.	c #D8DAD9",
"s.	c #A58581",
"t.	c #1F2225",
"u.	c #303232",
"v.	c #7E8388",
"w.	c #EAECEE",
"x.	c #FFFFFC",
"y.	c #E4DED7",
"z.	c #C8C7C5",
"A.	c #C4C5C5",
"B.	c #C4C4C4",
"C.	c #CDCDCD",
"D.	c #F4F4F4",
"E.	c #CAB091",
"F.	c #544E45",
"G.	c #2B2323",
"H.	c #51585F",
"I.	c #E3E6E9",
"J.	c #B8966C",
"K.	c #1B1002",
"L.	c #31363A",
"M.	c #7E8080",
"N.	c #A1A2AD",
"O.	c #E1E2EE",
"P.	c #C4C3B9",
"Q.	c #999895",
"R.	c #685640",
"S.	c #130D06",
"T.	c #121530",
"U.	c #ADB0CA",
"V.	c #F6F7FB",
"W.	c #F9F9F8",
"X.	c #F8F8F8",
"Y.	c #F8F8F7",
"Z.	c #F9F9FC",
"`.	c #FFFFEA",
" +	c #69654E",
".+	c #131424",
"++	c #696B7A",
"@+	c #959697",
"#+	c #969695",
"$+	c #949494",
"%+	c #969699",
"&+	c #99988D",
"*+	c #434034",
"=+	c #060503",
"-+	c #010203",
";+	c #09090B",
">+	c #0E0E0D",
",+	c #0D0D0D",
"'+	c #0D0D0E",
")+	c #060605",
"!+	c #000000",
". . . . . . . . . . . . . . . . . . . ",
". . . . . . . . . . . . . . . . . . . ",
". . . . . . . . . . . . . . . . . . . ",
". . . . . 3.3.= p 3.d 3.I 3.c.. . . . ",
". . . . = f > }.> , }., , }.! . . . . ",
". . . . T.] ^ ^ ^ ^ ^ ^ ^ ^ ( . . . . ",
". . = < [ } ^ ^ ^ ^ ^ ^ ^ `.}.!.3 . . ",
". . 5 C.g *.^ ^ ^ ^ ^ ^ ^ ^ g p.b S.. ",
"3.: w g ^ ^ ^ g g q.g g ^ ^ ^ ^ n Q 3.",
"q r p.0.^ ^ ^ v y y y w g ^ ^ ^ q.C.D ",
"E ^ ^ ^ ^ ^ ^ b.. . . 3.C.^ ^ ^ ^ ^ K ",
":.0.^ ^ g O &+Q c.. . 3.|.U 6.^ ^ ^ X ",
"L +.^ ^ ;.1.. . . . . . . . ..+.^ ^ X ",
"L 0.^ ^ ;.! . . . . . . . %...^ ^ ^ X ",
"L g ^ ^ ).! . . . . . . . %...+.^ ^ X ",
":.0.^ ^ ;.! . . . . . . . %...^ ^ ^ X ",
"L g ^ ^ ).! . . . . . . .  ...+.^ ^ X ",
":.0.^ ^ ;.Q 3.. . . . . . (._.^ ^ ^ X ",
"L g ^ ^ `.}.s.1.. . . 3.[ 5.6.^ ^ ^ X ",
":.^ ^ ^ ^ ^ ^ b.. . . p p.^ ^ ^ ^ ^ e.",
"f.g.p.0.^ ^ ^ k.l.u.u.< p.^ ^ ^ q.p.s.",
": n.v.g ^ ^ ^ B C.z.C.C.^ ^ ^ ^ n < I ",
". . 5 O.^ ^ ^ ^ ^ ^ ^ ^ ^ ^ ^ ^ J.K.. ",
". . u.v.U O.^ ^ ^ ^ ^ ^ ^ ^ O , R.c.. ",
". . . . (.r +.0.`.g ^ g ^ `. +. . . . ",
". . . . = [ , z , 5.&+s.L &+1.. . . . ",
". . . . . ;+. 3.;+_ ;+;+_ _ . . . . . ",
". . . . . . . . . . . . . . . . . . . "};

