/* XPM */
static xpm_row_t const barra_xpm[] = {
"22 23 2 1",
" 	c None",
".	c #000000",
"                      ",
"                   .. ",
"                  ....",
"                 .... ",
"                ..... ",
"                ....  ",
"               ....   ",
"              ....    ",
"             ....     ",
"           .....      ",
"          .....       ",
"         .....        ",
"        .....         ",
"       .....          ",
"      ....            ",
"     ....             ",
"    ....              ",
"   ....               ",
"  ....                ",
" ....                 ",
" ...                  ",
" ...                  ",
" .                    "};
