/* XPM */
static xpm_row_t const coin_6_xpm[] = {
"32 32 85 1",
" 	c None",
".	c #543C12",
"+	c #1F1709",
"@	c #211909",
"#	c #2A1F0B",
"$	c #704D17",
"%	c #2F220C",
"&	c #33250E",
"*	c #A2711F",
"=	c #3D2C0F",
"-	c #45310F",
";	c #473211",
">	c #593E15",
",	c #BE8B23",
"'	c #C99626",
")	c #4F3811",
"!	c #583E12",
"~	c #6A4B15",
"{	c #CE9926",
"]	c #E6B12F",
"^	c #5E4215",
"/	c #614215",
"(	c #654615",
"_	c #755119",
":	c #EDBC30",
"<	c #EFC032",
"[	c #6B4A17",
"}	c #734E17",
"|	c #81591A",
"1	c #FAD738",
"2	c #F1C332",
"3	c #865F1A",
"4	c #795519",
"5	c #8F671C",
"6	c #FDE63D",
"7	c #FAD838",
"8	c #8B5F1C",
"9	c #946A1C",
"0	c #94671C",
"a	c #FFEC41",
"b	c #F6CC35",
"c	c #BA8623",
"d	c #9E701C",
"e	c #A87821",
"f	c #AD7B21",
"g	c #FFEB43",
"h	c #B18021",
"i	c #C79124",
"j	c #D69F2A",
"k	c #CB9626",
"l	c #C38E24",
"m	c #DDAA2A",
"n	c #DDA72C",
"o	c #E6B12D",
"p	c #B68321",
"q	c #D29E29",
"r	c #F3C533",
"s	c #FBDB38",
"t	c #FFEA41",
"u	c #F5CC33",
"v	c #FEE840",
"w	c #EAB92F",
"x	c #F8D236",
"y	c #F7D135",
"z	c #FFEB47",
"A	c #FDE23D",
"B	c #F2C532",
"C	c #FBDD3A",
"D	c #FFEB49",
"E	c #F4C933",
"F	c #FFEC4B",
"G	c #FCE13A",
"H	c #FEE940",
"I	c #F9D736",
"J	c #FCDD3A",
"K	c #FEE640",
"L	c #F8D235",
"M	c #E2B02D",
"N	c #EEC030",
"O	c #D9A42A",
"P	c #B68123",
"Q	c #EBB930",
"R	c #9F711F",
"S	c #E0AB2C",
"T	c #7E5819",
"              .+@#              ",
"              $#%&              ",
"              *=-;>             ",
"             ,').!~             ",
"             {]^/(_             ",
"             :<$[}|             ",
"             1234|5             ",
"             67*89*0            ",
"             abcdecf            ",
"             g]{hijk            ",
"             glm'n:o            ",
"             gpon<72            ",
"             gqr:stu            ",
"             vwxyazx            ",
"             ABsCzD7            ",
"             7ECADF1            ",
"             yuGHFFs            ",
"             yuGHFFC            ",
"             IuG6DFs            ",
"             JEsJzF7            ",
"             K<ILtzI            ",
"             tmu<st7            ",
"             al:M21<            ",
"             AwokmNj            ",
"             L:OPljc            ",
"             QBlRe,e            ",
"             Sre50e             ",
"             'N5T|0             ",
"             eM_}}3             ",
"             dl(((_             ",
"              *!.!~             ",
"              |==-              "};
