/* XPM */
static xpm_row_t const coin_5_xpm[] = {
"32 32 89 1",
" 	c None",
".	c #171207",
"+	c #2F220C",
"@	c #614215",
"#	c #865F1A",
"$	c #8B5F1C",
"%	c #885C1A",
"&	c #2A1F0B",
"*	c #2C210C",
"=	c #5C4015",
"-	c #9F711F",
";	c #996E1E",
">	c #946A1C",
",	c #96681E",
"'	c #9E711E",
")	c #38290E",
"!	c #3C2D0E",
"~	c #6B4A17",
"{	c #A87821",
"]	c #A7781F",
"^	c #B18021",
"/	c #B68321",
"(	c #AD7B21",
"_	c #473211",
":	c #B98423",
"<	c #BA8623",
"[	c #BE8B23",
"}	c #C38E24",
"|	c #C79124",
"1	c #513812",
"2	c #553C12",
"3	c #593E12",
"4	c #C18E24",
"5	c #CB9627",
"6	c #D29E29",
"7	c #5E4215",
"8	c #D69F2A",
"9	c #E3AE2D",
"0	c #C99627",
"a	c #E0AB2C",
"b	c #EBB930",
"c	c #E6B12D",
"d	c #81591A",
"e	c #7E5819",
"f	c #FDE23D",
"g	c #F9D53A",
"h	c #FEE640",
"i	c #D19E29",
"j	c #FBDD3A",
"k	c #EFC032",
"l	c #A2711F",
"m	c #E8B62F",
"n	c #F4C933",
"o	c #F5CC33",
"p	c #E2B02D",
"q	c #D6A429",
"r	c #D9A42A",
"s	c #FFEB45",
"t	c #F8D236",
"u	c #EAB92F",
"v	c #DDAA2A",
"w	c #FFEB43",
"x	c #FDE63D",
"y	c #F8D238",
"z	c #DDA72C",
"A	c #FFEB47",
"B	c #EEC030",
"C	c #FFEC4B",
"D	c #F6CD36",
"E	c #FCDD3C",
"F	c #FCE13C",
"G	c #F9D738",
"H	c #FBDE3C",
"I	c #FFEC4D",
"J	c #F7D236",
"K	c #FFEB49",
"L	c #FFEC41",
"M	c #F1C332",
"N	c #CE9927",
"O	c #FEE840",
"P	c #EDBC30",
"Q	c #FFEA41",
"R	c #E6B12F",
"S	c #8F671C",
"T	c #755117",
"U	c #654615",
"V	c #6A4B15",
"W	c #453210",
"X	c #4B3411",
"              .+@#$%            ",
"            &*=-;>,'-           ",
"           )!~{,]^//((          ",
"          __@('(^:<[}|<         ",
"         123^-(//<<<456|        ",
"        =7@%<]^::<:/[489        ",
"        ~~~0-(/<:<|a<[5bc       ",
"        de%6{^/<<<5f<<}ag       ",
"       ';>0/(/:<<:4h[<[ijk      ",
"       |/lml(:<<<<[n/:<|of      ",
"       pq(kl(<<<<{}r^(:4ms      ",
"      tnb5u6q(<<^'5|/l/[vs      ",
"      wxypzzw^/{>[|[/]l[iwo     ",
"      sAhBirAr,-<44</(l]5hx     ",
"      sCwD}6wB(:[[[</((]<EF     ",
"      sCsG<[st:<[[<</^^({gf     ",
"      ACsg</sH[[[<<<//^^{Df     ",
"      sIAg4/sH[[[<<://^^{Jf     ",
"      ACAy5<sy<[[[<://^((gF     ",
"      CCKnz0LM^[4[<<:/^(:FF     ",
"      wCABuNspl^}4[</^({5hg     ",
"       AOpnis<^l{4[</(]<6LP     ",
"       QyzJ[R/<</-ll-{/[zQ      ",
"       omqM((:<<<<:/::<4mg      ",
"       vi|0r{/:<<<<:::[0Bu      ",
"        /(;b-(/<<<<<<<4iu       ",
"        ,,Si({^::<<<<<}vq       ",
"         dd%8'(//<<<<[0N<       ",
"         TTT((l(^:::[4}/        ",
"          UV~<;l(^//[:]'        ",
"           3=~^>;{((-;-         ",
"            WX=-'%%$;>          "};
