/* XPM */
static xpm_row_t const coin_3_xpm[] = {
"32 32 347 2",
"  	c None",
". 	c #C0974B",
"+ 	c #DFB251",
"@ 	c #E2B752",
"# 	c #DCB353",
"$ 	c #B9924C",
"% 	c #8E764B",
"& 	c #6B5E46",
"* 	c #EFC650",
"= 	c #F7D555",
"- 	c #F7D660",
"; 	c #F8DB68",
"> 	c #FBE271",
", 	c #FCE675",
"' 	c #FCE773",
") 	c #FCE56E",
"! 	c #F0CB60",
"~ 	c #987B46",
"{ 	c #6B5A3B",
"] 	c #6C5F43",
"^ 	c #F7D350",
"/ 	c #EEC75A",
"( 	c #FADE6F",
"_ 	c #FFF185",
": 	c #FFF18E",
"< 	c #FFF08F",
"[ 	c #FFF18B",
"} 	c #FFEF79",
"| 	c #FEEB70",
"1 	c #D2AA55",
"2 	c #7F673E",
"3 	c #725B36",
"4 	c #F6D150",
"5 	c #EFC95F",
"6 	c #FFEF80",
"7 	c #FFF190",
"8 	c #FFF298",
"9 	c #FFF29A",
"0 	c #FFF299",
"a 	c #FFF196",
"b 	c #FFF291",
"c 	c #FFF18C",
"d 	c #FFF085",
"e 	c #FFF07F",
"f 	c #FFEF71",
"g 	c #E1B658",
"h 	c #8A6F3F",
"i 	c #7A5E33",
"j 	c #F4CD4F",
"k 	c #EDC560",
"l 	c #FFF086",
"m 	c #FFF197",
"n 	c #FFF39F",
"o 	c #FFF3A3",
"p 	c #FFF2A1",
"q 	c #FFF29E",
"r 	c #FFF193",
"s 	c #FFF087",
"t 	c #FFF083",
"u 	c #FFEF7C",
"v 	c #FFEF6F",
"w 	c #D6AD51",
"x 	c #8F703C",
"y 	c #846431",
"z 	c #F8D351",
"A 	c #E6BC5A",
"B 	c #FFF19A",
"C 	c #FFF1A4",
"D 	c #FFF3A8",
"E 	c #FFF3A7",
"F 	c #FFF2A3",
"G 	c #FFF29B",
"H 	c #FFF194",
"I 	c #FFF088",
"J 	c #FFF07E",
"K 	c #FFEF77",
"L 	c #FFEF68",
"M 	c #B68D46",
"N 	c #997637",
"O 	c #86652E",
"P 	c #F9D958",
"Q 	c #E5B952",
"R 	c #FFF098",
"S 	c #FFF2AD",
"T 	c #FFF3AD",
"U 	c #FFF3A9",
"V 	c #FFF2A4",
"W 	c #FAE394",
"X 	c #EED289",
"Y 	c #FFEF78",
"Z 	c #FADA5A",
"` 	c #AB863E",
" .	c #997133",
"..	c #886731",
"+.	c #F4CC4F",
"@.	c #F9DA6A",
"#.	c #FFF191",
"$.	c #FFF3A5",
"%.	c #FFF4AF",
"&.	c #FFF3B1",
"*.	c #FFF2AF",
"=.	c #FFF3AA",
"-.	c #D6BC85",
";.	c #FFF08E",
">.	c #FFEF73",
",.	c #FFEE69",
"'.	c #D5A848",
").	c #AC8438",
"!.	c #966D2D",
"~.	c #FADD57",
"{.	c #E9C155",
"].	c #FFF082",
"^.	c #FFF19F",
"/.	c #FFF2AE",
"(.	c #FFF4B4",
"_.	c #FFF4B3",
":.	c #FFF39E",
"<.	c #F8DE8D",
"[.	c #EDCE83",
"}.	c #FFEF6D",
"|.	c #F9D956",
"1.	c #CA9D3E",
"2.	c #A87E31",
"3.	c #926F2E",
"4.	c #F6D151",
"5.	c #F7D466",
"6.	c #FFF4B5",
"7.	c #FFF4B7",
"8.	c #FFF3AF",
"9.	c #FFF195",
"0.	c #E2C480",
"a.	c #FFED60",
"b.	c #E2B345",
"c.	c #B98C34",
"d.	c #9D732C",
"e.	c #F2CB53",
"f.	c #FEEE7A",
"g.	c #FFF19E",
"h.	c #FFF4B8",
"i.	c #FFF4B9",
"j.	c #FFF2A2",
"k.	c #FBE289",
"l.	c #E4C47A",
"m.	c #FFEE66",
"n.	c #F7D34C",
"o.	c #D6A83B",
"p.	c #B3832E",
"q.	c #F2CB59",
"r.	c #FFF089",
"s.	c #FFF4BB",
"t.	c #FFF4BA",
"u.	c #FFF3AE",
"v.	c #FFF2A6",
"w.	c #FFF092",
"x.	c #F2D27D",
"y.	c #DDBC71",
"z.	c #FFEE7C",
"A.	c #FFEE68",
"B.	c #FCE554",
"C.	c #F0C643",
"D.	c #BF8E30",
"E.	c #936A2A",
"F.	c #FADC58",
"G.	c #F8D863",
"H.	c #FFF091",
"I.	c #F2DCA2",
"J.	c #FBEBB5",
"K.	c #FFF5BD",
"L.	c #FFF3B3",
"M.	c #FFF2AB",
"N.	c #FDE87E",
"O.	c #DDB96B",
"P.	c #E9C567",
"Q.	c #FFEE73",
"R.	c #FFEC58",
"S.	c #FAD94B",
"T.	c #CD9E34",
"U.	c #A77829",
"V.	c #F9D954",
"W.	c #FBE06E",
"X.	c #FFF4B0",
"Y.	c #F9E7B7",
"Z.	c #FAE9B9",
"`.	c #FEF0B6",
" +	c #FFF3B2",
".+	c #F7D76D",
"++	c #C4A05A",
"@+	c #FBDF65",
"#+	c #FFED5B",
"$+	c #FDE44F",
"%+	c #D9A637",
"&+	c #AC7E2A",
"*+	c #FADB57",
"=+	c #FDE574",
"-+	c #FFF19D",
";+	c #FFF4BD",
">+	c #FFF3BD",
",+	c #FFF07C",
"'+	c #FDE56C",
")+	c #C09B53",
"!+	c #F4CF58",
"~+	c #FFED5F",
"{+	c #FFED53",
"]+	c #E4B539",
"^+	c #BD8B2B",
"/+	c #FCE259",
"(+	c #FEE977",
"_+	c #FFF5BF",
":+	c #FFEF76",
"<+	c #FBE165",
"[+	c #C79E4B",
"}+	c #FFED61",
"|+	c #FFEB53",
"1+	c #EABB3B",
"2+	c #C6932C",
"3+	c #FCE35A",
"4+	c #FEEC7A",
"5+	c #FFF3A2",
"6+	c #FFF4BF",
"7+	c #EABF55",
"8+	c #FFEC54",
"9+	c #EDBD3C",
"0+	c #CB9B2F",
"a+	c #FCE258",
"b+	c #FEEA7A",
"c+	c #FFEF70",
"d+	c #ECC156",
"e+	c #FFED63",
"f+	c #FDE777",
"g+	c #FDE767",
"h+	c #DCB351",
"i+	c #FFED65",
"j+	c #FFED5D",
"k+	c #E8B639",
"l+	c #BD8C2C",
"m+	c #F9D854",
"n+	c #FBDF70",
"o+	c #FFF4BE",
"p+	c #FEED6F",
"q+	c #D3AB55",
"r+	c #FFED64",
"s+	c #FEEA52",
"t+	c #E0B037",
"u+	c #B1822B",
"v+	c #F9DA58",
"w+	c #F4D168",
"x+	c #FFF4B1",
"y+	c #FFF3BB",
"z+	c #FDEEBA",
"A+	c #E0BA5F",
"B+	c #FFEF6C",
"C+	c #D6A536",
"D+	c #AE812E",
"E+	c #FDE360",
"F+	c #E7BF5E",
"G+	c #FFF2A9",
"H+	c #FAE7B4",
"I+	c #FFF084",
"J+	c #F4D372",
"K+	c #F2CF6B",
"L+	c #FFEE75",
"M+	c #FDE955",
"N+	c #F5CE45",
"O+	c #CB9931",
"P+	c #E8BD56",
"Q+	c #FEEE84",
"R+	c #FFF0A1",
"S+	c #FFF4B6",
"T+	c #FFF1A6",
"U+	c #FEED9E",
"V+	c #FEEF98",
"W+	c #FEED91",
"X+	c #FCE78A",
"Y+	c #F7DA80",
"Z+	c #F5D878",
"`+	c #FFEF7D",
" @	c #FCE152",
".@	c #DBA93D",
"+@	c #BB8B2F",
"@@	c #EFC753",
"#@	c #F7D872",
"$@	c #FEEB5D",
"%@	c #F1C94B",
"&@	c #C59736",
"*@	c #A77D2F",
"=@	c #FADD5D",
"-@	c #D9B05C",
";@	c #FFEE6A",
">@	c #F9DA55",
",@	c #D8AB43",
"'@	c #B68834",
")@	c #E0B453",
"!@	c #F9DE77",
"~@	c #DBAF4A",
"{@	c #B58B3B",
"]@	c #A07A31",
"^@	c #FADF5E",
"/@	c #D0A95C",
"(@	c #FFF2A5",
"_@	c #F1C956",
":@	c #BC9243",
"<@	c #A47C37",
"[@	c #EFC858",
"}@	c #E1BD6B",
"|@	c #FFEE72",
"1@	c #FBE164",
"2@	c #BB9548",
"3@	c #A7823C",
"4@	c #94733A",
"5@	c #E1BB58",
"6@	c #ECC973",
"7@	c #FDE76B",
"8@	c #C9A150",
"9@	c #A17D42",
"0@	c #8F6F3C",
"a@	c #FDE86B",
"b@	c #E2B95C",
"c@	c #E5C473",
"d@	c #FFF192",
"e@	c #FFF3A1",
"f@	c #FEED7B",
"g@	c #FCE670",
"h@	c #CEA759",
"i@	c #9A7C47",
"j@	c #8B6F3F",
"k@	c #FADD6D",
"l@	c #F2CE61",
"m@	c #D3B16A",
"n@	c #F4D882",
"o@	c #FFF199",
"p@	c #FEEB84",
"q@	c #F8DA76",
"r@	c #FBDF72",
"s@	c #C09C5A",
"t@	c #927948",
"u@	c #89724A",
"v@	c #FADE68",
"w@	c #F5D36C",
"x@	c #E5C472",
"y@	c #E3C479",
"z@	c #E7C97D",
"A@	c #EDCF7C",
"B@	c #F4D57B",
"C@	c #FBE279",
"D@	c #E6BF6A",
"E@	c #9C8555",
"F@	c #887651",
"                        . + @ # $ % &                           ",
"                    * = - ; > , ' ) ! ~ { ]                     ",
"                  ^ / ( _ : < : [ _ } | 1 2 3                   ",
"                4 5 6 7 8 9 0 a b c d e f g h i                 ",
"              j k l m n o p q 8 r : s t u v w x y               ",
"            z A d B C D E F G 8 H : I t J K L M N O             ",
"          P Q u R E S T U V W X H : I t J Y f Z `  ...          ",
"          +.@.#.$.%.&.*.=.V G -.;.: I t J Y >.,.'.).!.          ",
"        ~.{.].^./.(._.%.=.V :.<.[.: I t J Y >.}.|.1.2.3.        ",
"        4.5.r =.6.7.(.8.=.F n 9.0.I I t J Y >.}.a.b.c.d.        ",
"        e.f.g.&.h.i.(.8.U j.n 0 k.l.s t J Y >.}.m.n.o.p.        ",
"        q.r.$.7.s.t.6.u.v.V n 0 w.x.y.z.J Y >.}.A.B.C.D.E.      ",
"      F.G.H.I.J.K.s.L.M.=.V n 0 H c N.O.P.Q.>.}.A.R.S.T.U.      ",
"      V.W.0 X.Y.Z.`. +8.=.V n 0 H : s 6 .+++@+}.A.#+$+%+&+      ",
"      *+=+-+(.;+>+t.6.8.=.V n 0 H : I t ,+'+)+!+A.~+{+]+^+      ",
"      /+(+p 7._+_+t.6.8.=.V n 0 H : I t J :+<+[+}+~+|+1+2+      ",
"      3+4+5+7.6+_+t.6.8.=.V n 0 H : I t J Y v 7+}+~+8+9+0+      ",
"      a+b+5+7.6+_+t.6.8.=.V n 0 H : I t J Y c+d+e+~+8+9+2+      ",
"      ~.f+p 7._+_+t.6.8.=.V n 0 H : I t J Y g+h+i+j+8+k+l+      ",
"      m+n+:.(.o+6+t.6.8.=.V n 0 H : I t J p+q+r+A.#+s+t+u+      ",
"      v+w+8 x+y+z+h.6.8.=.V n 0 H : I ].' A+B+}.A.R.$+C+D+      ",
"      E+F+#.G+H+K.t.L.S =.V n 0 H : I+J+K+L+>.}.m.M+N+O+        ",
"        P+Q+R+S+s.t.6./.T+U+V+W+X+Y+Z+`+J Y >.}.i+ @.@+@        ",
"        @@#@g.&.h.i.(.8.=.V :.m w.: I t J Y >.}.$@%@&@*@        ",
"        =@-@< U 6.7.(.8.=.V n 0 H : I t J Y >.;@>@,@'@          ",
"          )@!@n %.(._.%.=.V n 0 H : I t J Y >.r+~@{@]@          ",
"          ^@/@c (@%.&.*.=.V n 0 H : I t J Y B+_@:@<@            ",
"            [@}@a E S T U V n 0 H : I t J |@1@2@3@4@            ",
"              5@6@m V D E F n 0 H : I t Y 7@8@9@0@              ",
"              a@b@c@d@^.j.e@q 8 r : l f@g@h@i@j@                ",
"                k@l@m@n@d@o@8 9.: p@q@r@s@t@u@                  ",
"                    v@w@x@y@z@A@B@C@D@E@F@                      "};
