/* XPM */
static xpm_row_t const coin_1_xpm[] = {
"32 32 88 1",
" 	c None",
".	c #171207",
"+	c #2F220C",
"@	c #614215",
"#	c #885C1A",
"$	c #946A1C",
"%	c #996E1E",
"&	c #2A1F0B",
"*	c #2C210C",
"=	c #A87821",
"-	c #A2711F",
";	c #9E711E",
">	c #9F711F",
",	c #AD7B21",
"'	c #38290E",
")	c #3D2C10",
"!	c #7E5819",
"~	c #B18021",
"{	c #BE8B23",
"]	c #C79124",
"^	c #C99627",
"/	c #BA8623",
"(	c #473211",
"_	c #755119",
":	c #B98423",
"<	c #C18E24",
"[	c #CB9627",
"}	c #D19E29",
"|	c #D9A42A",
"1	c #D29E29",
"2	c #513812",
"3	c #553C12",
"4	c #654615",
"5	c #C38E24",
"6	c #CE9927",
"7	c #D6A429",
"8	c #E2B02D",
"9	c #E3AE2D",
"0	c #593E12",
"a	c #D69F2A",
"b	c #EBB930",
"c	c #EFC032",
"d	c #704D17",
"e	c #795519",
"f	c #F9D738",
"g	c #865F1A",
"h	c #F1C332",
"i	c #FEE640",
"j	c #EAB92F",
"k	c #DDA72C",
"l	c #FEE840",
"m	c #F8D238",
"n	c #E8B62F",
"o	c #F6CD36",
"p	c #FBDD3A",
"q	c #FFEA41",
"r	c #DDAA2A",
"s	c #EDBC30",
"t	c #F3C533",
"u	c #FFEB49",
"v	c #FDE63D",
"w	c #FDE23D",
"x	c #F4C933",
"y	c #E0AB2C",
"z	c #FFEB47",
"A	c #F2C532",
"B	c #FFEB43",
"C	c #FAD83A",
"D	c #B68321",
"E	c #A7781F",
"F	c #FFEC4B",
"G	c #FCE13C",
"H	c #FFEC4D",
"I	c #EEC030",
"J	c #F7D236",
"K	c #F9D53A",
"L	c #FEE940",
"M	c #FBDE3C",
"N	c #FFEB45",
"O	c #E6B12F",
"P	c #96681E",
"Q	c #6B4A17",
"R	c #755117",
"S	c #6A4B15",
"T	c #5C4015",
"U	c #4B3411",
"V	c #8F671C",
"W	c #3C2D0E",
"             .+@#$%             ",
"           &*@=-;>-,,           ",
"          ')!~;,{]^^//          ",
"         ((_:-/<][[}|1^         ",
"        234]-/5]^[[6789}        ",
"       0@@:,~<^^^~^[6abc        ",
"       dde|,{5[[,,^[[68fc       ",
"      #gg]//5^[[=8<^^[ahi       ",
"      ==$j=<^[[{kk:^][}8lm      ",
"      1^,n,<[6[~o},]]^[|pq      ",
"     nc9r1:5[6:^s6,/]]^1tu      ",
"     vwxt~{^[=,8k6/-<]]]yzA     ",
"     BuCm=<{>5a|165DE/{;5Bw     ",
"     uFwm,~,aa11}[]{D=;[^lG     ",
"     HHwm=<Ik1}}6[]5<//[^vl     ",
"     HHif:BJr1}}6[^]5<<5^Gq     ",
"     HHlf1Ffr1}66[^]]555[GB     ",
"     FHqK~LM87}}6[[]]55][wq     ",
"     zHBp=<Jj|1}6[[]5<56^vw     ",
"     uHNp,/:n9|}6[^]<:D|[qw     ",
"     BFNo^/5,ar76[]<,~~^}Bf     ",
"      NlOO~5[D~<5{D,{]^D|N      ",
"      MJ1o=<[6^/:D<^^^[1xL      ",
"      98[A,/^[[6[[[^][6|mt      ",
"       <:<k,<^[[[[^[^[19xk      ",
"       ;>Pn-/5[[[[^[[6|s8       ",
"        gg,6={]^[[^[6}kr5       ",
"        QR_1E,<5^[^[}11{        ",
"         @S_6%,/5^^[65~         ",
"          3TR<%>~/{/=E,         ",
"           (UT==$V$%E           ",
"              WTg$%             "};
