/* XPM */
static xpm_row_t const coin_7_xpm[] = {
"32 32 333 2",
"  	c None",
". 	c #D5A541",
"+ 	c #DCAB43",
"@ 	c #DDAD46",
"# 	c #D1A242",
"$ 	c #A3813D",
"% 	c #78643B",
"& 	c #DAA73B",
"* 	c #F2C842",
"= 	c #F1C84A",
"- 	c #F2CB52",
"; 	c #F8D65A",
"> 	c #FBDE5E",
", 	c #FBDF61",
"' 	c #FCE462",
") 	c #FBDF5D",
"! 	c #E6BA4F",
"~ 	c #856A37",
"{ 	c #5F4F31",
"] 	c #F3C83E",
"^ 	c #E5B840",
"/ 	c #F0C74E",
"( 	c #FFED67",
"_ 	c #FFF075",
": 	c #FFF07A",
"< 	c #FFEF7C",
"[ 	c #FFF07B",
"} 	c #FFEF78",
"| 	c #FFEF72",
"1 	c #FFED68",
"2 	c #FDE35E",
"3 	c #C89C46",
"4 	c #725A30",
"5 	c #6B5630",
"6 	c #F3C83D",
"7 	c #DBAE3E",
"8 	c #FEE95F",
"9 	c #FFEF73",
"0 	c #FFF082",
"a 	c #FFF083",
"b 	c #FFF080",
"c 	c #FFF07D",
"d 	c #FFEF7A",
"e 	c #FFEF75",
"f 	c #FFEF6F",
"g 	c #FFEE62",
"h 	c #E0B34A",
"i 	c #806433",
"j 	c #72582C",
"k 	c #F3C73B",
"l 	c #DBAD3D",
"m 	c #FFED61",
"n 	c #FFEF76",
"o 	c #FFF081",
"p 	c #FFF187",
"q 	c #FFF189",
"r 	c #FFF088",
"s 	c #FFF185",
"t 	c #FFEF7F",
"u 	c #FFEE6E",
"v 	c #DDAD47",
"w 	c #8B6A32",
"x 	c #7B5C2B",
"y 	c #F6CF3C",
"z 	c #D3A237",
"A 	c #FFED5F",
"B 	c #FFEF83",
"C 	c #FFF08A",
"D 	c #FFF18D",
"E 	c #FFF186",
"F 	c #FFEF77",
"G 	c #FFEE6A",
"H 	c #FFED5E",
"I 	c #C4973E",
"J 	c #936F2E",
"K 	c #815E2A",
"L 	c #D9A536",
"M 	c #FCE453",
"N 	c #FFEE71",
"O 	c #FFEF81",
"P 	c #FFF18C",
"Q 	c #FFF090",
"R 	c #FFF190",
"S 	c #F8DB7F",
"T 	c #FFF086",
"U 	c #FFEE6B",
"V 	c #FFEE67",
"W 	c #FDE555",
"X 	c #AE8135",
"Y 	c #926B2A",
"Z 	c #F0C239",
"` 	c #EDC043",
" .	c #FFEF7D",
"..	c #FFF18B",
"+.	c #FFF292",
"@.	c #FFF193",
"#.	c #FFF08D",
"$.	c #F6DA7F",
"%.	c #FFEF84",
"&.	c #FFEE68",
"*.	c #E9BA43",
"=.	c #A87E31",
"-.	c #906927",
";.	c #E4B538",
">.	c #FFEE59",
",.	c #FFF191",
"'.	c #FFF196",
").	c #FFF194",
"!.	c #F8DB80",
"~.	c #F2D37A",
"{.	c #FFEE63",
"].	c #FEE854",
"^.	c #CFA038",
"/.	c #A57929",
"(.	c #F7D33C",
"_.	c #F0C541",
":.	c #FFEF7E",
"<.	c #FFF18E",
"[.	c #FFF198",
"}.	c #FFF192",
"|.	c #FEEE87",
"1.	c #D7B673",
"2.	c #FDE87B",
"3.	c #FFED5D",
"4.	c #EFC242",
"5.	c #B7892F",
"6.	c #996F26",
"7.	c #F6CF3B",
"8.	c #FCE04F",
"9.	c #FFF298",
"0.	c #FFF195",
"a.	c #FFF08C",
"b.	c #F7DA7C",
"c.	c #CFAF6D",
"d.	c #FEEC7A",
"e.	c #FFEE5E",
"f.	c #FFED60",
"g.	c #FBDE49",
"h.	c #E0B037",
"i.	c #AB7E28",
"j.	c #FFED5C",
"k.	c #FFEF79",
"l.	c #FFF197",
"m.	c #FFF087",
"n.	c #F9DC77",
"o.	c #CDAB67",
"p.	c #F4D36C",
"q.	c #FFEF6E",
"r.	c #F7D557",
"s.	c #D3A948",
"t.	c #FDE556",
"u.	c #FFEB51",
"v.	c #F5CD40",
"w.	c #B5862A",
"x.	c #FDE343",
"y.	c #F6D041",
"z.	c #FFED66",
"A.	c #FFEF94",
"B.	c #FFF297",
"C.	c #FFF29A",
"D.	c #FFF084",
"E.	c #FEEE7A",
"F.	c #E9C36A",
"G.	c #D1AC5F",
"H.	c #F1CC63",
"I.	c #FBDF64",
"J.	c #FCE25F",
"K.	c #FFED63",
"L.	c #F4CD52",
"M.	c #FFEC56",
"N.	c #FBDD44",
"O.	c #C4942D",
"P.	c #A47727",
"Q.	c #FCDE3F",
"R.	c #F7D146",
"S.	c #FFEF80",
"T.	c #FFEF8D",
"U.	c #FFF19B",
"V.	c #FFF19C",
"W.	c #FFF18A",
"X.	c #FEEE72",
"Y.	c #F9DC66",
"Z.	c #FEE768",
"`.	c #F9D954",
" +	c #FFEC58",
".+	c #FEE74C",
"++	c #D19E32",
"@+	c #A67727",
"#+	c #FDE344",
"$+	c #F8D549",
"%+	c #FFED6D",
"&+	c #FFF19D",
"*+	c #FDE65C",
"=+	c #FCE258",
"-+	c #FFED5A",
";+	c #FEE94C",
">+	c #DFAB35",
",+	c #AB7D28",
"'+	c #FEE747",
")+	c #F8D64A",
"!+	c #FFF29D",
"~+	c #F9D958",
"{+	c #FDE95B",
"]+	c #FFEB4D",
"^+	c #E5B236",
"/+	c #B08028",
"(+	c #FEE748",
"_+	c #F8D64B",
":+	c #F5D056",
"<+	c #FFED4D",
"[+	c #B48428",
"}+	c #FDE345",
"|+	c #F7D24A",
"1+	c #E2AF35",
"2+	c #FBDF42",
"3+	c #F5CB49",
"4+	c #FFEF85",
"5+	c #FBDE5B",
"6+	c #FBDD57",
"7+	c #D4A332",
"8+	c #AC7E2A",
"9+	c #FAD841",
"0+	c #F0C644",
"a+	c #FFEE73",
"b+	c #F9D854",
"c+	c #FFEC55",
"d+	c #FDE449",
"e+	c #CC9B2F",
"f+	c #A37726",
"g+	c #FAD941",
"h+	c #E6B63F",
"i+	c #FFED65",
"j+	c #FDE873",
"k+	c #ECC766",
"l+	c #EFCA62",
"m+	c #FDE466",
"n+	c #F6D253",
"o+	c #FEEB50",
"p+	c #F9D543",
"q+	c #C2912C",
"r+	c #E8B73C",
"s+	c #FCE159",
"t+	c #FFF19A",
"u+	c #FFF094",
"v+	c #FFF091",
"w+	c #FEED82",
"x+	c #FAE178",
"y+	c #F2D170",
"z+	c #FADE6F",
"A+	c #FEEA61",
"B+	c #ECC34F",
"C+	c #FFED5B",
"D+	c #FFEC5C",
"E+	c #FDE44D",
"F+	c #E2B139",
"G+	c #B1822A",
"H+	c #F0C43E",
"I+	c #ECC14C",
"J+	c #FFF299",
"K+	c #FFF08E",
"L+	c #FFEE69",
"M+	c #FFEC59",
"N+	c #BF8F31",
"O+	c #A07629",
"P+	c #FAD944",
"Q+	c #CF9F3C",
"R+	c #FCDF4E",
"S+	c #E1B23C",
"T+	c #AE822D",
"U+	c #E1B03E",
"V+	c #EBC054",
"W+	c #FFEF7B",
"X+	c #E7B843",
"Y+	c #B18634",
"Z+	c #9E772E",
"`+	c #F9D647",
" @	c #BE943F",
".@	c #FCE568",
"+@	c #FFF291",
"@@	c #F7D34F",
"#@	c #BB9039",
"$@	c #9F7930",
"%@	c #EFC445",
"&@	c #C79D49",
"*@	c #FDE258",
"=@	c #C2953E",
"-@	c #9D7A34",
";@	c #8B6C37",
">@	c #E5B747",
",@	c #D0A853",
"'@	c #CAA045",
")@	c #9B7638",
"!@	c #8A6936",
"~@	c #E8BE4D",
"{@	c #C6A057",
"]@	c #FDE675",
"^@	c #FEEA68",
"/@	c #FADF5D",
"(@	c #C99E49",
"_@	c #92733C",
":@	c #84693B",
"<@	c #F6D057",
"[@	c #CCA459",
"}@	c #E1BC69",
"|@	c #FDE77C",
"1@	c #FFF085",
"2@	c #FFF184",
"3@	c #FDE66E",
"4@	c #F6D463",
"5@	c #F7D660",
"6@	c #B28E49",
"7@	c #866C3F",
"8@	c #877148",
"9@	c #F9DD65",
"0@	c #F4D062",
"a@	c #E4BD66",
"b@	c #DDB868",
"c@	c #E0BC6C",
"d@	c #E6C46C",
"e@	c #EAC56B",
"f@	c #F2CF6A",
"g@	c #F6D567",
"h@	c #D8AF58",
"i@	c #8B7148",
"j@	c #86744E",
"k@	c #E3C174",
"l@	c #F2D16F",
"m@	c #EDC96A",
"n@	c #E9C46A",
"o@	c #DEBA67",
"p@	c #BD9F62",
"q@	c #988662",
"r@	c #9B8E6F",
"                          . + @ # $ %                           ",
"                    & * = - ; > , ' ) ! ~ {                     ",
"                  ] ^ / ( _ : < [ } | 1 2 3 4 5                 ",
"                6 7 8 9 < 0 a 0 b c d e f g h i j               ",
"              k l m n o p q r s 0 t : n 9 u g v w x             ",
"            y z A n B C D r r E 0 t [ F 9 f G H I J K           ",
"            L M N O P Q R S T E 0 t [ F 9 f U V W X Y           ",
"          Z ` U  ...+.@.#.$.%.E 0 t [ F 9 f U &.A *.=.-.        ",
"          ;.>.n T ,.'.).R !.~.s 0 t [ F 9 f U &.{.].^./.        ",
"        (._.G :.<.'.[.@.}.|.1.2.0 t [ F 9 f U &.{.3.4.5.6.      ",
"        7.8.N T @.9.9.0.}.a.b.c.d.t [ F 9 f U e.H f.g.h.i.      ",
"        ] j.k...l.[.0.'.}.D m.n.o.p.: F 9 q.r.s.t.f.u.v.w.      ",
"      x.y.z.t R A.B.C.'.}.<.q D.E.F.G.H.I.J.K.L.H f.M.N.O.P.    ",
"      Q.R.U S.T.U.V.C.'.}.<.W.s o < X.Y.Z.q.K.`.f.f. +.+++@+    ",
"      #+$+%+t '.V.&+C.'.}.<.W.E 0  .: e | f *+=+g f.-+;+>+,+    ",
"      '+)+u r l.!+!+C.'.}.<.W.E 0 t [ F 9 q.~+{+{.f.-+]+^+/+    ",
"      (+_+9 q [.!+!+C.'.}.<.W.E 0 t [ F 9 q.:+H {.f.-+<+^+[+    ",
"      }+|+| q [.!+!+C.'.}.<.W.E 0 t [ F 9 f r.{+{.f.-+]+1+,+    ",
"      2+3+u 4+l.!+!+C.'.}.<.W.E 0 t [ F 9 f 5+6+{.f. +]+7+8+    ",
"      9+0+%+a ).V.&+C.'.}.<.W.E 0  .: a+| f g b+f.f.c+d+e+f+    ",
"      g+h+i+0 +.[.V.C.'.}.<.W.E S.j+k+l+m+&.1 n+f.f.o+p+q+      ",
"        r+s+c ,.t+B.u+v+P r w+x+y+z+} F 9 q.A+B+C+D+E+F+G+      ",
"        H+I+F ..l.C.J+0.K+r %.o 0 t [ F 9 f L+H f.M+R.N+O+      ",
"        P+Q+L+T @.9.J+'.}.<.W.E 0 t [ F 9 f U &.g R+S+T+        ",
"          U+V+W+D '.[.0.}.<.W.E 0 t [ F 9 f U &.C+X+Y+Z+        ",
"          `+ @.@s +@'.0.+.<.W.E 0 t [ F 9 f U K.@@#@$@          ",
"            %@&@_ W.+.@.,.<.W.E 0 t [ F 9 f 1 *@=@-@;@          ",
"              >@,@W+..Q ,.D W.E 0 t [ F 9 U *+'@)@!@            ",
"                ~@{@]@r D P C p 0 t [ e ^@/@(@_@:@              ",
"                  <@[@}@|@%.1@2@o W+3@4@5@6@7@8@                ",
"                    9@0@a@b@c@d@e@f@g@h@i@j@                    ",
"                        k@l@m@n@o@p@q@r@                        "};
