/* XPM */
static xpm_row_t const coin_4_xpm[] = {
"32 32 78 1",
" 	c None",
".	c #865F1A",
"+	c #8F671C",
"@	c #96681E",
"#	c #885C1A",
"$	c #795519",
"%	c #593E12",
"&	c #9E711E",
"*	c #AD7B21",
"=	c #B18021",
"-	c #B68321",
";	c #BE8B23",
">	c #C99627",
",	c #CE9927",
"'	c #D19E29",
")	c #C38E24",
"!	c #946A1C",
"~	c #614215",
"{	c #A2711F",
"]	c #B98423",
"^	c #CB9627",
"/	c #DDAA2A",
"(	c #E2B02D",
"_	c #E6B12D",
":	c #E6B12F",
"<	c #EAB92F",
"[	c #EEC030",
"}	c #F1C332",
"|	c #EDBC30",
"1	c #E0AB2C",
"2	c #996E1E",
"3	c #C18E24",
"4	c #BA8623",
"5	c #D29E29",
"6	c #E3AE2D",
"7	c #F3C533",
"8	c #F8D236",
"9	c #FAD83A",
"0	c #755117",
"a	c #D9A42A",
"b	c #DDA72C",
"c	c #E8B62F",
"d	c #F5CC33",
"e	c #FEE940",
"f	c #FEE840",
"g	c #D69F2A",
"h	c #C79124",
"i	c #EBB930",
"j	c #F6CD36",
"k	c #FFEA41",
"l	c #FFEB45",
"m	c #8B5F1C",
"n	c #FFEB47",
"o	c #81591A",
"p	c #FBDD3A",
"q	c #F9D53A",
"r	c #F7D236",
"s	c #FFEB43",
"t	c #FBDE3C",
"u	c #D6A429",
"v	c #FCDD3C",
"w	c #FFEC4B",
"x	c #FCE13C",
"y	c #F4C933",
"z	c #FDE63D",
"A	c #FEE640",
"B	c #FDE23D",
"C	c #A87821",
"D	c #A7781F",
"E	c #FFEB49",
"F	c #EFC032",
"G	c #FFEC41",
"H	c #FFEC4D",
"I	c #F8D238",
"J	c #F2C532",
"K	c #F9D738",
"L	c #755119",
"M	c #9F711F",
"             .+@@#$%            ",
"          &*=*=-;>,')!~         ",
"        {]*-^/(_:<[}|<12        ",
"       34;5/16___:<[7898,0      ",
"      5,'abb1(6(((_:c|def:.     ",
"     1(gab(1b(((hb((6:ijklim    ",
"    :}/gb16(11(_')11b(:ijkn6o   ",
"   :p:g/b(66(1([q^5bb1(:irls'   ",
"   tqg/1((66(((q9uu/bb1(_|vwp*  ",
"  rscgb666666(bx}515bbbb(cylnc  ",
"  zAga16___66567_g'')bbb1_[BwvC ",
"  lyaD>6_:_1ha|c(a5>*&4b16<rEsb ",
" 9E67F2=bb)3(c:6(/g'>;C2;b:Fsny ",
" vla<l'*@=g_:::61bau5'>3*Du|Awp+",
" eGuaEi5a(::::_6(b/agg5'^hh(BHB2",
" keualI6:::::__6(bbb/aag55(tvHe&",
" kAuaGt:<<<::__6(1bbbb//agcnAHe&",
" efuasq:iii<::_6((1bbbb/aaFAxHB&",
" BsuanJ(<[[i<::_6(1bbb/ag/(<zEt+",
" pl/bE6'':}[ic:_6(1bb/g5^>(Fkld ",
"  kc|B3-,5g_|<:_(1b/g')-^6<rnGb ",
"  zI6h;_:::15^'''^)]=*>b(:[xEB{ ",
"  xvg5b_:::::6bu,^,u/((16c7skF  ",
"   8c,a16_:::__666(((((6_iqlp*  ",
"   8<''ab6::___6(66(((6:<yfpb   ",
"    [u>'a(__66_6(66((6:i7pKc.   ",
"     1;)'/1((6_6(6666_cJIJ_!    ",
"      5C]^g/b(66(6___:|}6am     ",
"       ,&{;^gb111(_:c_g5)L      ",
"        )=#!*),'uuu';;h!        ",
"          =*&+#m!2D-=!          ",
"             M&M2+#             "};
