/* XPM */
static xpm_row_t const coin_0_xpm[] = {
"32 32 67 1",
" 	c None",
".	c #996E1E",
"+	c #AD7B21",
"@	c #B68321",
"#	c #885C1A",
"$	c #B98423",
"%	c #D9A42A",
"&	c #DDA72C",
"*	c #D69F2A",
"=	c #CB9627",
"-	c #C38E24",
";	c #BE8B23",
">	c #BA8623",
",	c #C99627",
"'	c #D29E29",
")	c #CE9927",
"!	c #9F711F",
"~	c #EBB930",
"{	c #EEC030",
"]	c #F8D236",
"^	c #FCE13C",
"/	c #FDE23D",
"(	c #FCDD3C",
"_	c #FBDE3C",
":	c #FAD83A",
"<	c #F8D238",
"[	c #F3C533",
"}	c #E6B12D",
"|	c #D6A429",
"1	c #9E711E",
"2	c #F2C532",
"3	c #F7D236",
"4	c #FFEC41",
"5	c #FFEB45",
"6	c #FFEB43",
"7	c #FEE940",
"8	c #F9D738",
"9	c #F6CD36",
"0	c #EFC032",
"a	c #C18E24",
"b	c #FFEA41",
"c	c #FFEB49",
"d	c #FBDD3A",
"e	c #EAB92F",
"f	c #E3AE2D",
"g	c #F4C933",
"h	c #EDBC30",
"i	c #DDAA2A",
"j	c #FDE63D",
"k	c #FFEB47",
"l	c #F5CC33",
"m	c #E2B02D",
"n	c #FFEC4B",
"o	c #F9D53A",
"p	c #FEE640",
"q	c #FEE840",
"r	c #F1C332",
"s	c #E6B12F",
"t	c #E8B62F",
"u	c #A7781F",
"v	c #C79124",
"w	c #E0AB2C",
"x	c #D19E29",
"y	c #B18021",
"z	c #A87821",
"A	c #96681E",
"B	c #A2711F",
"             .+@@@+#            ",
"          $%&*=-;>;,')!         ",
"        )~{]^/(_:<[}=>|&        ",
"      12345567////(890*a}*      ",
"     >:bc5bb7/((//^_d:]e'f}     ",
"    -^5c5b//^(g]//((//_<hie~    ",
"   @jkc54^dd_3,l^/(//j/d]hml~   ",
"   :5n5b/_:::,:o^/^/pj/(d<~h_   ",
"  h5nkq^dd:8}'5bo//jpj/j/_3}:8  ",
"  pnc6^:oool,e6c[(/jpppq7/orhqs ",
" gknkq_8<8[-|[j5bt:jpqbbqj_9}/< ",
" jnn6/dol)u,t3(b67ttjqbb7~a{h37 ",
" 4ncb_gv.;*s2]_jbbq8&s]],>j7g~b{",
"okn5/*!;%}~0l8_/7bbbj<w,*<nd9sb<",
":cn6xy's{r[l]:_/j7bbbbjd86n83}p]",
"(cndv*e2[l3]8:(//pqbb44bpkcd]}j<",
"^cn4'f0gl3]<:d(//pqb4b664c5(]}/<",
"(kn6*w{[l3<8:d(/jpqbb666bckd]f/]",
"_5n6f=m{[l]8:_(/j7bb655b/6n89mpo",
" pnkpm;%e23<:_(/pbb656(~h/nor}b0",
" pkc6/l,a&hg]o_/jb4790g[|%6jsrp ",
" (bn5q(:0'a=*}~{h~~g(b44bh*9&3] ",
"  ^ccb^d:d:3r00[3_pqqqqqq/<e&:~ ",
"  <jc57(__dd_(^//jpqbqpp/:g%}<  ",
"   8bc67/(dd(^(//jjpqqj/:lm)g   ",
"   %]4k67^__^/(^/j//pp/:lf-m0   ",
"    |[pkbp^^//(^/j///(ogw;x0    ",
"     ,{lb7pjj/((//(:o30%+x{     ",
"      +}ig^/j/____og~i$1f}      ",
"        =%)&0[[2r~wvu.=t        ",
"          ;x,$z1.AB>|&>         ",
"             z@>>;a1            "};
