/* XPM */
static xpm_row_t const coin_2_xpm[] = {
"32 32 72 1",
" 	c None",
".	c #412E0F",
"+	c #1F1709",
"@	c #231B0B",
"#	c #2F220C",
"$	c #654615",
"%	c #36270E",
"&	c #3D2C0F",
"*	c #473211",
"=	c #583E12",
"-	c #7E5819",
";	c #4F3811",
">	c #6A4B15",
",	c #94671C",
"'	c #543C12",
")	c #593E15",
"!	c #755119",
"~	c #A87821",
"{	c #614215",
"]	c #734E17",
"^	c #885E1A",
"/	c #C79124",
"(	c #704D17",
"_	c #865F1A",
":	c #946A1C",
"<	c #D9A42A",
"[	c #996D1C",
"}	c #A2711F",
"|	c #E2B02D",
"1	c #8B5F1C",
"2	c #9F711F",
"3	c #B18021",
"4	c #B68321",
"5	c #E8B62F",
"6	c #CB9626",
"7	c #CE9929",
"8	c #F2C532",
"9	c #E6B12D",
"0	c #E6B12F",
"a	c #F6CC35",
"b	c #C99626",
"c	c #F8D236",
"d	c #F4C933",
"e	c #FDE23D",
"f	c #FAD738",
"g	c #F9D736",
"h	c #E3AE2D",
"i	c #FFEB43",
"j	c #FCDD3A",
"k	c #EBB930",
"l	c #FDE63D",
"m	c #FFEB45",
"n	c #FAD838",
"o	c #EFC032",
"p	c #FFEA41",
"q	c #FFEB47",
"r	c #EDBC30",
"s	c #FBDB38",
"t	c #FBDD3A",
"u	c #DDA72C",
"v	c #F3C533",
"w	c #B68123",
"x	c #CE9926",
"y	c #A7781F",
"z	c #AD7B21",
"A	c #C38E24",
"B	c #6B4A17",
"C	c #5E4215",
"D	c #513812",
"E	c #4B3411",
"F	c #33250E",
"G	c #3A2A0E",
"                                ",
"                                ",
"              .+@#              ",
"              $%&*=             ",
"              -*;=>             ",
"              ,')$!             ",
"              ~{>]^             ",
"              /(!_:             ",
"              <-^[}             ",
"              |1234             ",
"              52467             ",
"              84790             ",
"              ab0aa             ",
"              c<def             ",
"              ghfij             ",
"              gklme             ",
"              nopqe             ",
"              nopqe             ",
"              grlme             ",
"              g0sit             ",
"              fuden             ",
"              n69av             ",
"              awx9h             ",
"              8ywxx             ",
"              k,234             ",
"              u_^[z             ",
"              A!!_,             ",
"              zB>!_             ",
"              ,C)>]             ",
"              -DE=              ",
"               F#G              ",
"                                "};
