/* XPM */
static xpm_row_t const dois_pontos_xpm[] = {
"13 31 2 1",
" 	c None",
".	c #000000",
"             ",
"             ",
"             ",
"             ",
"             ",
"      ..     ",
"     ....    ",
"    ......   ",
"    ......   ",
"    ......   ",
"     ....    ",
"      ..     ",
"             ",
"             ",
"             ",
"             ",
"             ",
"             ",
"             ",
"             ",
"     ....    ",
"    ......   ",
"    ......   ",
"    ......   ",
"    ......   ",
"     ....    ",
"             ",
"             ",
"             ",
"             ",
"             "};
