/* XPM */
static xpm_row_t fire_bullet_2_xpm[] = {
"16 16 164 2",
"  	c None",
". 	c #541509",
"+ 	c #541508",
"@ 	c #470602",
"# 	c #520000",
"$ 	c #620000",
"% 	c #220000",
"& 	c #3D0100",
"* 	c #741D0B",
"= 	c #98441B",
"- 	c #B35320",
"; 	c #B73F17",
"> 	c #AA2308",
", 	c #9A0E00",
"' 	c #860100",
") 	c #750000",
"! 	c #490300",
"~ 	c #97220C",
"{ 	c #C94D1A",
"] 	c #D98330",
"^ 	c #EEB75C",
"/ 	c #F7CD82",
"( 	c #F4B664",
"_ 	c #E77924",
": 	c #BC2703",
"< 	c #820200",
"[ 	c #880000",
"} 	c #5C0901",
"| 	c #932A0E",
"1 	c #D95421",
"2 	c #EE9D4E",
"3 	c #F8D78F",
"4 	c #FBEECA",
"5 	c #FEF7E9",
"6 	c #FDF8E7",
"7 	c #FBDF99",
"8 	c #EE7E25",
"9 	c #A31802",
"0 	c #670000",
"a 	c #7B2910",
"b 	c #C2562E",
"c 	c #EE936A",
"d 	c #F9DEBD",
"e 	c #FCF3D8",
"f 	c #FDF9E6",
"g 	c #FCF7E1",
"h 	c #FDFAF4",
"i 	c #FDFAEA",
"j 	c #F9CE6E",
"k 	c #BE440D",
"l 	c #4E0300",
"m 	c #6F0000",
"n 	c #63210D",
"o 	c #8F3F22",
"p 	c #DB765A",
"q 	c #F7CFB4",
"r 	c #FBF1CC",
"s 	c #F9EBAF",
"t 	c #F9E9B4",
"u 	c #F9EDB9",
"v 	c #FCF8E8",
"w 	c #FDFCF3",
"x 	c #FAEC9C",
"y 	c #D1711B",
"z 	c #510A00",
"A 	c #3A0000",
"B 	c #723B20",
"C 	c #AF5842",
"D 	c #EB9A80",
"E 	c #F9E0AE",
"F 	c #F6E296",
"G 	c #F1D482",
"H 	c #F0CE7E",
"I 	c #F2DCA9",
"J 	c #F9F3DD",
"K 	c #FCFBE0",
"L 	c #FAE387",
"M 	c #DB6F1F",
"N 	c #6C0D01",
"O 	c #340000",
"P 	c #6E3D20",
"Q 	c #75442F",
"R 	c #C8705C",
"S 	c #F4B88D",
"T 	c #F5D985",
"U 	c #EFCA6B",
"V 	c #E8B35C",
"W 	c #E1A05D",
"X 	c #E4B77E",
"Y 	c #F4E0A7",
"Z 	c #FBF3AE",
"` 	c #F7CA61",
" .	c #DB4817",
"..	c #7C0701",
"+.	c #2B0000",
"@.	c #7A4C2C",
"#.	c #794532",
"$.	c #DB7F62",
"%.	c #F4CF84",
"&.	c #EDCA68",
"*.	c #E19A4F",
"=.	c #DF8846",
"-.	c #E39959",
";.	c #ECBD7A",
">.	c #F6E28F",
",.	c #F8E672",
"'.	c #ED993C",
").	c #CC220C",
"!.	c #660000",
"~.	c #1C0000",
"{.	c #7D5434",
"].	c #7C4A37",
"^.	c #DE9269",
"/.	c #EDC373",
"(.	c #D89C55",
"_.	c #BC5A34",
":.	c #CA7940",
"<.	c #E6B35A",
"[.	c #F2D164",
"}.	c #F4D65B",
"|.	c #ECB147",
"1.	c #CE4218",
"2.	c #A50301",
"3.	c #3E0000",
"4.	c #8B6546",
"5.	c #7B5843",
"6.	c #D29D77",
"7.	c #E1A46F",
"8.	c #C36046",
"9.	c #993023",
"0.	c #A44928",
"a.	c #B76126",
"b.	c #BA6021",
"c.	c #C05B22",
"d.	c #BE3315",
"e.	c #9B0603",
"f.	c #120000",
"g.	c #89684E",
"h.	c #775B49",
"i.	c #AF9175",
"j.	c #D5A489",
"k.	c #BF7163",
"l.	c #84312D",
"m.	c #771F17",
"n.	c #740B05",
"o.	c #6A0702",
"p.	c #880501",
"q.	c #A70100",
"r.	c #640000",
"s.	c #150000",
"t.	c #6C5246",
"u.	c #6C5449",
"v.	c #907065",
"w.	c #A2766D",
"x.	c #8D6660",
"y.	c #5F2E2A",
"z.	c #440101",
"A.	c #400000",
"B.	c #4B0000",
"C.	c #4C0000",
"D.	c #1E0000",
"E.	c #573F38",
"F.	c #5E463F",
"G.	c #6A4D46",
"                                ",
"            . + @ # $           ",
"      % & * = - ; > , ' )       ",
"      ! ~ { ] ^ / ( _ : < [     ",
"    } | 1 2 3 4 5 6 7 8 9 0     ",
"    a b c d e f g h i j k l m   ",
"  n o p q r s t u v w x y z A   ",
"  B C D E F G H I J K L M N O   ",
"P Q R S T U V W X Y Z `  ...+.  ",
"@.#.$.%.&.*.=.-.;.>.,.'.).!.~.  ",
"{.].^./.(._.:.<.[.}.|.1.2.3.    ",
"4.5.6.7.8.9.0.a.b.c.d.e.# f.    ",
"g.h.i.j.k.l.m.n.o.p.q.r.s.      ",
"  t.u.v.w.x.y.z.A.B.C.D.        ",
"    E.F.G.                      ",
"                                "};
