/* XPM */
static xpm_row_t fire_bullet_0_xpm[] = {
"16 16 164 2",
"  	c None",
". 	c #6A4D46",
"+ 	c #5E463F",
"@ 	c #573F38",
"# 	c #1E0000",
"$ 	c #4C0000",
"% 	c #4B0000",
"& 	c #400000",
"* 	c #440101",
"= 	c #5F2E2A",
"- 	c #8D6660",
"; 	c #A2766D",
"> 	c #907065",
", 	c #6C5449",
"' 	c #6C5246",
") 	c #150000",
"! 	c #640000",
"~ 	c #A70100",
"{ 	c #880501",
"] 	c #6A0702",
"^ 	c #740B05",
"/ 	c #771F17",
"( 	c #84312D",
"_ 	c #BF7163",
": 	c #D5A489",
"< 	c #AF9175",
"[ 	c #775B49",
"} 	c #89684E",
"| 	c #120000",
"1 	c #520000",
"2 	c #9B0603",
"3 	c #BE3315",
"4 	c #C05B22",
"5 	c #BA6021",
"6 	c #B76126",
"7 	c #A44928",
"8 	c #993023",
"9 	c #C36046",
"0 	c #E1A46F",
"a 	c #D29D77",
"b 	c #7B5843",
"c 	c #8B6546",
"d 	c #3E0000",
"e 	c #A50301",
"f 	c #CE4218",
"g 	c #ECB147",
"h 	c #F4D65B",
"i 	c #F2D164",
"j 	c #E6B35A",
"k 	c #CA7940",
"l 	c #BC5A34",
"m 	c #D89C55",
"n 	c #EDC373",
"o 	c #DE9269",
"p 	c #7C4A37",
"q 	c #7D5434",
"r 	c #1C0000",
"s 	c #660000",
"t 	c #CC220C",
"u 	c #ED993C",
"v 	c #F8E672",
"w 	c #F6E28F",
"x 	c #ECBD7A",
"y 	c #E39959",
"z 	c #DF8846",
"A 	c #E19A4F",
"B 	c #EDCA68",
"C 	c #F4CF84",
"D 	c #DB7F62",
"E 	c #794532",
"F 	c #7A4C2C",
"G 	c #2B0000",
"H 	c #7C0701",
"I 	c #DB4817",
"J 	c #F7CA61",
"K 	c #FBF3AE",
"L 	c #F4E0A7",
"M 	c #E4B77E",
"N 	c #E1A05D",
"O 	c #E8B35C",
"P 	c #EFCA6B",
"Q 	c #F5D985",
"R 	c #F4B88D",
"S 	c #C8705C",
"T 	c #75442F",
"U 	c #6E3D20",
"V 	c #340000",
"W 	c #6C0D01",
"X 	c #DB6F1F",
"Y 	c #FAE387",
"Z 	c #FCFBE0",
"` 	c #F9F3DD",
" .	c #F2DCA9",
"..	c #F0CE7E",
"+.	c #F1D482",
"@.	c #F6E296",
"#.	c #F9E0AE",
"$.	c #EB9A80",
"%.	c #AF5842",
"&.	c #723B20",
"*.	c #3A0000",
"=.	c #510A00",
"-.	c #D1711B",
";.	c #FAEC9C",
">.	c #FDFCF3",
",.	c #FCF8E8",
"'.	c #F9EDB9",
").	c #F9E9B4",
"!.	c #F9EBAF",
"~.	c #FBF1CC",
"{.	c #F7CFB4",
"].	c #DB765A",
"^.	c #8F3F22",
"/.	c #63210D",
"(.	c #6F0000",
"_.	c #4E0300",
":.	c #BE440D",
"<.	c #F9CE6E",
"[.	c #FDFAEA",
"}.	c #FDFAF4",
"|.	c #FCF7E1",
"1.	c #FDF9E6",
"2.	c #FCF3D8",
"3.	c #F9DEBD",
"4.	c #EE936A",
"5.	c #C2562E",
"6.	c #7B2910",
"7.	c #670000",
"8.	c #A31802",
"9.	c #EE7E25",
"0.	c #FBDF99",
"a.	c #FDF8E7",
"b.	c #FEF7E9",
"c.	c #FBEECA",
"d.	c #F8D78F",
"e.	c #EE9D4E",
"f.	c #D95421",
"g.	c #932A0E",
"h.	c #5C0901",
"i.	c #880000",
"j.	c #820200",
"k.	c #BC2703",
"l.	c #E77924",
"m.	c #F4B664",
"n.	c #F7CD82",
"o.	c #EEB75C",
"p.	c #D98330",
"q.	c #C94D1A",
"r.	c #97220C",
"s.	c #490300",
"t.	c #750000",
"u.	c #860100",
"v.	c #9A0E00",
"w.	c #AA2308",
"x.	c #B73F17",
"y.	c #B35320",
"z.	c #98441B",
"A.	c #741D0B",
"B.	c #3D0100",
"C.	c #220000",
"D.	c #620000",
"E.	c #470602",
"F.	c #541508",
"G.	c #541509",
"                                ",
"                      . + @     ",
"        # $ % & * = - ; > , '   ",
"      ) ! ~ { ] ^ / ( _ : < [ } ",
"    | 1 2 3 4 5 6 7 8 9 0 a b c ",
"    d e f g h i j k l m n o p q ",
"  r s t u v w x y z A B C D E F ",
"  G H I J K L M N O P Q R S T U ",
"  V W X Y Z `  ...+.@.#.$.%.&.  ",
"  *.=.-.;.>.,.'.).!.~.{.].^./.  ",
"  (._.:.<.[.}.|.1.2.3.4.5.6.    ",
"    7.8.9.0.a.b.c.d.e.f.g.h.    ",
"    i.j.k.l.m.n.o.p.q.r.s.      ",
"      t.u.v.w.x.y.z.A.B.C.      ",
"          D.1 E.F.G.            ",
"                                "};
