/* XPM */
static xpm_row_t fire_bullet_1_xpm[] = {
"16 16 148 2",
"  	c None",
". 	c #950000",
"+ 	c #4E0000",
"@ 	c #460000",
"# 	c #3A0000",
"$ 	c #260000",
"% 	c #B70000",
"& 	c #8A0000",
"* 	c #690400",
"= 	c #6D0D00",
"- 	c #911101",
"; 	c #A60901",
"> 	c #890000",
", 	c #530000",
"' 	c #180000",
") 	c #9D0000",
"! 	c #AE0300",
"~ 	c #DB2003",
"{ 	c #FF5B11",
"] 	c #FF9824",
"^ 	c #FF952A",
"/ 	c #FF611F",
"( 	c #FF2E10",
"_ 	c #DD0401",
": 	c #6E0000",
"< 	c #1C0000",
"[ 	c #B40100",
"} 	c #FC3404",
"| 	c #FFA932",
"1 	c #FFFF94",
"2 	c #FFFFD1",
"3 	c #FFFFB5",
"4 	c #FFFF82",
"5 	c #FFCD51",
"6 	c #FF5920",
"7 	c #D00804",
"8 	c #860000",
"9 	c #280000",
"0 	c #840000",
"a 	c #CF1300",
"b 	c #FFA230",
"c 	c #FFFFCD",
"d 	c #FFFFFF",
"e 	c #FFFFEA",
"f 	c #FFFF99",
"g 	c #FFEE5F",
"h 	c #FF441C",
"i 	c #E00100",
"j 	c #660000",
"k 	c #E42F0B",
"l 	c #FFF486",
"m 	c #FFFFE0",
"n 	c #FFFFC0",
"o 	c #FFFF7A",
"p 	c #FF7A2E",
"q 	c #B70701",
"r 	c #650000",
"s 	c #5F0803",
"t 	c #F6551F",
"u 	c #FFFFAE",
"v 	c #FFFFF8",
"w 	c #FFFFE3",
"x 	c #FFF6A9",
"y 	c #FFFEA4",
"z 	c #FFFF86",
"A 	c #FA812C",
"B 	c #8E0903",
"C 	c #560000",
"D 	c #711C0B",
"E 	c #F06F2B",
"F 	c #FFF67B",
"G 	c #FFFFF2",
"H 	c #FFFFA9",
"I 	c #FFD77D",
"J 	c #FFCD77",
"K 	c #FFF079",
"L 	c #F68233",
"M 	c #9C0F07",
"N 	c #5B0101",
"O 	c #711C0C",
"P 	c #CC5B24",
"Q 	c #FFB040",
"R 	c #FFFFEB",
"S 	c #FFF07B",
"T 	c #FFB75E",
"U 	c #FFA256",
"V 	c #DC6236",
"W 	c #A02A1F",
"X 	c #803E38",
"Y 	c #9C270F",
"Z 	c #FF6723",
"` 	c #FFD369",
" .	c #FFFFFE",
"..	c #FFFFC9",
"+.	c #FFFF90",
"@.	c #FFCF6A",
"#.	c #FC7946",
"$.	c #CD402F",
"%.	c #B1423C",
"&.	c #BD8981",
"*.	c #520100",
"=.	c #CB2E10",
"-.	c #FF712C",
";.	c #FFC58E",
">.	c #FFFFB3",
",.	c #FFFF8C",
"'.	c #FFD172",
").	c #FF815E",
"!.	c #FF9885",
"~.	c #D99E92",
"{.	c #8E675E",
"].	c #2E0000",
"^.	c #620400",
"/.	c #C53813",
"(.	c #FF733E",
"_.	c #FF9E79",
":.	c #FFCFAC",
"<.	c #FFF7BD",
"[.	c #FFFFB1",
"}.	c #FFFF9A",
"|.	c #FFDC95",
"1.	c #FFDCB8",
"2.	c #C19688",
"3.	c #7E5E55",
"4.	c #7B0C01",
"5.	c #A53715",
"6.	c #C0552E",
"7.	c #EB7659",
"8.	c #FF967B",
"9.	c #FFAA84",
"0.	c #FFC48D",
"a.	c #FFD3A0",
"b.	c #EBC39D",
"c.	c #917162",
"d.	c #75554B",
"e.	c #852C11",
"f.	c #994F2B",
"g.	c #9D5B3F",
"h.	c #A25D43",
"i.	c #A6634A",
"j.	c #A5765A",
"k.	c #A07A62",
"l.	c #916E5E",
"m.	c #94522B",
"n.	c #A4663B",
"o.	c #A87146",
"p.	c #BB885E",
"q.	c #B88C69",
"                                ",
"          . + @ # $             ",
"      % & * = - ; > , '         ",
"    ) ! ~ { ] ^ / ( _ : <       ",
"    [ } | 1 2 3 4 5 6 7 8 9     ",
"  0 a b c d d d e f g h i j     ",
"  : k l d d d d m n o p q r     ",
"  s t u d d v w x y z A B C     ",
"  D E F d d G H I J K L M N     ",
"  O P Q n d R u S T U V W X     ",
"    Y Z `  .d ..+.@.#.$.%.&.    ",
"    *.=.-.;.G e >.,.'.).!.~.{.  ",
"    ].^./.(._.:.<.[.}.|.1.2.3.  ",
"        4.5.6.7.8.9.0.a.b.c.d.  ",
"            e.f.g.h.i.j.k.l.    ",
"                m.n.o.p.q.      "};
