/* XPM */
static xpm_row_t const kamikaze_left_xpm[] = {
"38 28 579 2",
"  	c None",
". 	c #43687A",
"+ 	c #456C7D",
"@ 	c #4A6F80",
"# 	c #416778",
"$ 	c #3C6374",
"% 	c #3D6373",
"& 	c #426676",
"* 	c #3D5E6E",
"= 	c #3D606E",
"- 	c #4A7182",
"; 	c #567F93",
"> 	c #6D95A7",
", 	c #8BAFC1",
"' 	c #90B5C6",
") 	c #8BB3C5",
"! 	c #85AEC0",
"~ 	c #7CA6B8",
"{ 	c #739CAF",
"] 	c #6C95A7",
"^ 	c #628A9C",
"/ 	c #537A8C",
"( 	c #466D7F",
"_ 	c #476C7D",
": 	c #507181",
"< 	c #3C6173",
"[ 	c #507788",
"} 	c #7CA3B4",
"| 	c #A1C7D8",
"1 	c #B0D4E4",
"2 	c #B5D5E5",
"3 	c #BCD8E7",
"4 	c #C7DFEA",
"5 	c #C7E0EB",
"6 	c #C9E1ED",
"7 	c #C6DFEC",
"8 	c #C5E0EC",
"9 	c #C5DFEC",
"0 	c #CCE3EE",
"a 	c #CDE2EC",
"b 	c #B5CEDA",
"c 	c #8BABBA",
"d 	c #648999",
"e 	c #527789",
"f 	c #587A8A",
"g 	c #315363",
"h 	c #4C7487",
"i 	c #81A6B7",
"j 	c #AAD1E2",
"k 	c #B6D9EA",
"l 	c #BBD8E6",
"m 	c #CCE1EB",
"n 	c #DAE9F1",
"o 	c #E3EEF4",
"p 	c #E4EFF4",
"q 	c #E6F0F5",
"r 	c #E3EEF3",
"s 	c #DEEBF1",
"t 	c #DCE9F0",
"u 	c #D7E6ED",
"v 	c #DAE9F0",
"w 	c #E0EDF3",
"x 	c #DEECF3",
"y 	c #D3E6EF",
"z 	c #B4CFDC",
"A 	c #86A8B9",
"B 	c #638596",
"C 	c #4D6F7F",
"D 	c #416373",
"E 	c #3C6579",
"F 	c #5B899F",
"G 	c #A7CEDF",
"H 	c #B6D9EB",
"I 	c #C8E1EC",
"J 	c #D2E6EF",
"K 	c #E2EEF4",
"L 	c #F2F7FA",
"M 	c #F8FBFC",
"N 	c #FAFCFD",
"O 	c #FCFDFD",
"P 	c #FDFEFE",
"Q 	c #FCFDFE",
"R 	c #FBFDFD",
"S 	c #FBFCFD",
"T 	c #F9FBFC",
"U 	c #EEF4F8",
"V 	c #E7F0F5",
"W 	c #E8F1F6",
"X 	c #DAE5EB",
"Y 	c #CBD8DF",
"Z 	c #BED0D7",
"` 	c #B3CAD5",
" .	c #90AEBB",
"..	c #5E8090",
"+.	c #496C7C",
"@.	c #385867",
"#.	c #487388",
"$.	c #5689A1",
"%.	c #9ECADE",
"&.	c #ADD2E5",
"*.	c #CAE2EE",
"=.	c #EBF3F8",
"-.	c #F4F8FB",
";.	c #FDFDFE",
">.	c #FEFEFE",
",.	c #F9FCFD",
"'.	c #F7FAFC",
").	c #EBF3F7",
"!.	c #E6F0F4",
"~.	c #E1EAEF",
"{.	c #E5EDF1",
"].	c #CFDCE1",
"^.	c #C2D1D9",
"/.	c #BBCDD5",
"(.	c #ADC5D0",
"_.	c #7D9CAB",
":.	c #597C8C",
"<.	c #406273",
"[.	c #325261",
"}.	c #598395",
"|.	c #92BED2",
"1.	c #99C5DA",
"2.	c #B1D4E5",
"3.	c #F5F9FB",
"4.	c #F4F9FB",
"5.	c #EEF5F8",
"6.	c #E7F1F5",
"7.	c #E6F1F5",
"8.	c #E5F0F5",
"9.	c #DBEAF1",
"0.	c #D7E7EF",
"a.	c #D8E8F0",
"b.	c #DDEAF1",
"c.	c #E3EEF5",
"d.	c #E5EFF4",
"e.	c #D5E3E8",
"f.	c #CCDBE3",
"g.	c #B7CAD3",
"h.	c #C0D9E4",
"i.	c #7EA0B0",
"j.	c #486E7F",
"k.	c #335464",
"l.	c #4C798F",
"m.	c #91C3DB",
"n.	c #B7D8E7",
"o.	c #B9D8E7",
"p.	c #D2E7EF",
"q.	c #F1F7FA",
"r.	c #E6F1F6",
"s.	c #D6E7EF",
"t.	c #D3E5ED",
"u.	c #DCEBF2",
"v.	c #D6E5ED",
"w.	c #D4E5EE",
"x.	c #D0E3ED",
"y.	c #D1E4ED",
"z.	c #D6E6EE",
"A.	c #DAE8EF",
"B.	c #DEEBF0",
"C.	c #D8E7EF",
"D.	c #C3D6E1",
"E.	c #BCD4DF",
"F.	c #B3CEDC",
"G.	c #83A5B5",
"H.	c #55798B",
"I.	c #496F81",
"J.	c #6FA0B6",
"K.	c #93C7DF",
"L.	c #A7CDE0",
"M.	c #BAD5E2",
"N.	c #D5E6EE",
"O.	c #EDF4F8",
"P.	c #F6FAFB",
"Q.	c #E3EFF4",
"R.	c #D7E8F0",
"S.	c #D4E6EE",
"T.	c #C5DDE8",
"U.	c #AFCFDF",
"V.	c #C9E0EC",
"W.	c #D0E4EF",
"X.	c #C7D9E2",
"Y.	c #C9DAE3",
"Z.	c #C5D7E0",
"`.	c #BACED9",
" +	c #C0D4DD",
".+	c #C0D6E0",
"++	c #CCE2EB",
"@+	c #CCE2EC",
"#+	c #CCE2ED",
"$+	c #BCD4E1",
"%+	c #C0DBE8",
"&+	c #BCD9E6",
"*+	c #A0BECE",
"=+	c #4F7485",
"-+	c #3A5C6C",
";+	c #578398",
">+	c #78AFCA",
",+	c #6FA7C2",
"'+	c #85B0C6",
")+	c #C3DCE9",
"!+	c #E9F2F6",
"~+	c #E7F1F6",
"{+	c #E1EDF3",
"]+	c #CAE1EC",
"^+	c #BFDAE6",
"/+	c #9BC5D8",
"(+	c #8EC1D8",
"_+	c #AED3E4",
":+	c #BBD9E7",
"<+	c #BAD7E4",
"[+	c #BAD6E4",
"}+	c #BAD6E3",
"|+	c #BAD7E3",
"1+	c #B4D1DF",
"2+	c #AECBDB",
"3+	c #ABC9D8",
"4+	c #C5DDE9",
"5+	c #CCE1EC",
"6+	c #BBD6E4",
"7+	c #B6D3E2",
"8+	c #ACCADA",
"9+	c #85A4B4",
"0+	c #2E4E5D",
"a+	c #375E6F",
"b+	c #568BA5",
"c+	c #6DAAC7",
"d+	c #6D9FB8",
"e+	c #98C5DB",
"f+	c #BED9E7",
"g+	c #C9DFEA",
"h+	c #DCEBF1",
"i+	c #DCEAF1",
"j+	c #C1DBE8",
"k+	c #BDD9E6",
"l+	c #AED0E0",
"m+	c #83B8D1",
"n+	c #8CC2DB",
"o+	c #000000",
"p+	c #B3D1E0",
"q+	c #B0D0E0",
"r+	c #B2D2E1",
"s+	c #B4D3E2",
"t+	c #BCD7E4",
"u+	c #B6D2E0",
"v+	c #A0BAC8",
"w+	c #5A6F7C",
"x+	c #2F5161",
"y+	c #386276",
"z+	c #548EA9",
"A+	c #649EB9",
"B+	c #72A6BD",
"C+	c #93C2D8",
"D+	c #BBD7E5",
"E+	c #C8DFEA",
"F+	c #D0E4ED",
"G+	c #D1E4EB",
"H+	c #CBE0EB",
"I+	c #C1DBE9",
"J+	c #BCD9E7",
"K+	c #AACEE0",
"L+	c #80B8D2",
"M+	c #FFFFFF",
"N+	c #9F9F9F",
"O+	c #ABC2CF",
"P+	c #6F818C",
"Q+	c #2F5160",
"R+	c #39667A",
"S+	c #4C88A2",
"T+	c #5991AB",
"U+	c #6CA3BC",
"V+	c #83B5CD",
"W+	c #AFCFDE",
"X+	c #B6D4E2",
"Y+	c #ABCAD9",
"Z+	c #AACEDE",
"`+	c #C0DAE6",
" @	c #C1DBE7",
".@	c #BDD9E7",
"+@	c #AED1E2",
"@@	c #121516",
"#@	c #121416",
"$@	c #7B8E9A",
"%@	c #2E5160",
"&@	c #3A667A",
"*@	c #4D88A3",
"=@	c #538BA6",
"-@	c #619AB6",
";@	c #75ABC4",
">@	c #9EC4D5",
",@	c #A2C5D6",
"'@	c #92B7C8",
")@	c #9AC5D9",
"!@	c #A8CBDB",
"~@	c #ADCDDD",
"{@	c #BBD7E4",
"]@	c #C2DCE8",
"^@	c #BAD8E6",
"/@	c #B7D6E5",
"(@	c #8094A0",
"_@	c #2E505F",
":@	c #356175",
"<@	c #4A849F",
"[@	c #538DA8",
"}@	c #5A91AB",
"|@	c #619AB4",
"1@	c #7FAFC4",
"2@	c #91B7CA",
"3@	c #81AABC",
"4@	c #8BB8CE",
"5@	c #99C1D4",
"6@	c #98C0D3",
"7@	c #A8CBDC",
"8@	c #B9D6E5",
"9@	c #B7D4E3",
"0@	c #7B8C98",
"a@	c #2E4D5C",
"b@	c #325D70",
"c@	c #3F758F",
"d@	c #47809B",
"e@	c #5288A1",
"f@	c #5D95AF",
"g@	c #6099B3",
"h@	c #6C9AB1",
"i@	c #7AA3B7",
"j@	c #7BA7BC",
"k@	c #8EB9CD",
"l@	c #96BDD0",
"m@	c #AACAD9",
"n@	c #B2D1E0",
"o@	c #9FC2D3",
"p@	c #A8C9DA",
"q@	c #B3D3E2",
"r@	c #A2BFCE",
"s@	c #687683",
"t@	c #355D6F",
"u@	c #3C6E86",
"v@	c #427791",
"w@	c #4E819A",
"x@	c #6497B0",
"y@	c #669AB3",
"z@	c #5E90A7",
"A@	c #779FB1",
"B@	c #7EA7BA",
"C@	c #80AEC3",
"D@	c #8BB5C9",
"E@	c #9BBFD1",
"F@	c #9FC0CF",
"G@	c #A8C9D8",
"H@	c #9ABDCF",
"I@	c #97BED0",
"J@	c #B0D0DE",
"K@	c #A5C8D8",
"L@	c #B2D0DD",
"M@	c #BDD8E4",
"N@	c #C2DBE7",
"O@	c #C0D9E6",
"P@	c #BDD7E4",
"Q@	c #B7D0DC",
"R@	c #B8D3E2",
"S@	c #B4D2E1",
"T@	c #B6D3E1",
"U@	c #B6D2DF",
"V@	c #B7D2E0",
"W@	c #B8D5E3",
"X@	c #97B5C5",
"Y@	c #415461",
"Z@	c #33596A",
"`@	c #3C6D84",
" #	c #3D7089",
".#	c #47788E",
"+#	c #6494AB",
"@#	c #6999B0",
"##	c #588BA3",
"$#	c #6793A7",
"%#	c #779EB0",
"&#	c #7DA9BE",
"*#	c #82AEC3",
"=#	c #8EB6C9",
"-#	c #7FA4B5",
";#	c #8FB5C8",
">#	c #8DB2C5",
",#	c #8CB2C5",
"'#	c #96BCCE",
")#	c #A6C8D8",
"!#	c #A9CCDD",
"~#	c #A7CADD",
"{#	c #B6D1DE",
"]#	c #ABCCDC",
"^#	c #A2C0CE",
"/#	c #BDD7E5",
"(#	c #B1CDDA",
"_#	c #AAC7D5",
":#	c #7B96A3",
"<#	c #2F5060",
"[#	c #386479",
"}#	c #41728A",
"|#	c #46748A",
"1#	c #548298",
"2#	c #71A0B6",
"3#	c #6495AD",
"4#	c #58889F",
"5#	c #6B97AC",
"6#	c #81ABBF",
"7#	c #8DB3C5",
"8#	c #93B8C9",
"9#	c #82A7BA",
"0#	c #7AA0B4",
"a#	c #8CB3C5",
"b#	c #91B2C2",
"c#	c #A2C4D5",
"d#	c #A3C4D4",
"e#	c #95B9CA",
"f#	c #D2D0D0",
"g#	c #9B9B9B",
"h#	c #8FB3C5",
"i#	c #4E6572",
"j#	c #315464",
"k#	c #3E6E82",
"l#	c #4B7E96",
"m#	c #4A768B",
"n#	c #6092A8",
"o#	c #6799B0",
"p#	c #598AA1",
"q#	c #588AA2",
"r#	c #6C9BB2",
"s#	c #7FA4B7",
"t#	c #92B2C1",
"u#	c #95B5C4",
"v#	c #90B6C8",
"w#	c #91B0BF",
"x#	c #B3CEDB",
"y#	c #B1CDDB",
"z#	c #324855",
"A#	c #2E4C5A",
"B#	c #375F71",
"C#	c #48778E",
"D#	c #4D7B92",
"E#	c #528197",
"F#	c #5B8DA5",
"G#	c #5A8EA7",
"H#	c #54859D",
"I#	c #6497AF",
"J#	c #6F9CB2",
"K#	c #789DAE",
"L#	c #9ABCCB",
"M#	c #88AFC1",
"N#	c #88AFBF",
"O#	c #98B9C8",
"P#	c #AFCBD9",
"Q#	c #4D4C4C",
"R#	c #919191",
"S#	c #2E4F5D",
"T#	c #365F73",
"U#	c #47758C",
"V#	c #4E7C92",
"W#	c #4E7B90",
"X#	c #5B8EA5",
"Y#	c #5E8CA4",
"Z#	c #6794AB",
"`#	c #71A2B9",
" $	c #6A95A9",
".$	c #7DA8BC",
"+$	c #84AEC2",
"@$	c #729CB0",
"#$	c #6C98AC",
"$$	c #6F9BB0",
"%$	c #8AB0C3",
"&$	c #3E505D",
"*$	c #2E4E5E",
"=$	c #335A6C",
"-$	c #437085",
";$	c #59879D",
">$	c #58869B",
",$	c #71A1B6",
"'$	c #6796AB",
")$	c #73A4BB",
"!$	c #72A1B8",
"~$	c #6A97AC",
"{$	c #6697AC",
"]$	c #6392A7",
"^$	c #45616F",
"/$	c #2E4C5C",
"($	c #305465",
"_$	c #3B6378",
":$	c #487389",
"<$	c #4D778C",
"[$	c #56859B",
"}$	c #507C91",
"|$	c #59859B",
"1$	c #6793AA",
"2$	c #6E9BB1",
"3$	c #7CA9BE",
"4$	c #88B1C4",
"5$	c #8AADBF",
"6$	c #81A3B3",
"7$	c #86A9BB",
"8$	c #88B0C3",
"9$	c #93B3C3",
"0$	c #ACC9D7",
"a$	c #AEC9D8",
"b$	c #BED7E1",
"c$	c #4B6877",
"d$	c #315566",
"e$	c #3D6477",
"f$	c #466F84",
"g$	c #4A758A",
"h$	c #457187",
"i$	c #447186",
"j$	c #4F7F97",
"k$	c #527F95",
"l$	c #5F8DA4",
"m$	c #73A0B7",
"n$	c #89AFC2",
"o$	c #91B1C0",
"p$	c #8FACBA",
"q$	c #A1BCCA",
"r$	c #A4C1D0",
"s$	c #A2C2D1",
"t$	c #9FC0D0",
"u$	c #8BAFBF",
"v$	c #8CB1C3",
"w$	c #81A7BA",
"x$	c #86AEC0",
"y$	c #8DA9B8",
"z$	c #7F9DAE",
"A$	c #6B8E9E",
"B$	c #3F6172",
"C$	c #2E4C5B",
"D$	c #2E4E5C",
"E$	c #305262",
"F$	c #35596A",
"G$	c #375D70",
"H$	c #345C70",
"I$	c #355D70",
"J$	c #3D687E",
"K$	c #426D82",
"L$	c #4A7386",
"M$	c #598196",
"N$	c #6E95A8",
"O$	c #7299AC",
"P$	c #6E94A5",
"Q$	c #678FA2",
"R$	c #6B95AB",
"S$	c #668DA1",
"T$	c #6F95A8",
"U$	c #7FA2B2",
"V$	c #8AA7B5",
"W$	c #7FA0AE",
"X$	c #678B9C",
"Y$	c #456878",
"Z$	c #305261",
"`$	c #314451",
" %	c #325567",
".%	c #345B6E",
"+%	c #355C6F",
"@%	c #386073",
"#%	c #386072",
"$%	c #3A6276",
"%%	c #426B7E",
"&%	c #436D80",
"*%	c #497286",
"=%	c #4D7386",
"-%	c #4F7283",
";%	c #527585",
">%	c #44697A",
",%	c #3A5A6B",
"'%	c #2C4F61",
")%	c #264756",
"!%	c #2F4F5E",
"~%	c #315465",
"{%	c #33596B",
"]%	c #345A6E",
"^%	c #355F73",
"/%	c #355E72",
"(%	c #376073",
"_%	c #365B6F",
":%	c #325466",
"<%	c #295060",
"[%	c #305161",
"                                . + @ # $ % & *                             ",
"                      = - ; > , ' ) ! ~ { ] ^ / ( _ :                       ",
"                  < [ } | 1 2 3 4 5 6 7 8 9 0 a b c d e f                   ",
"              g h i j k l m n o p q r s s t u v w x y z A B C D             ",
"            E F G H I J K L M N O P Q R S T U V W q X Y Z `  ...+.@.        ",
"          #.$.%.&.*.=.-.N ;.>.>.>.>.;.R ,.'.).!.q V ~.{.].^./.(._.:.<.      ",
"      [.}.|.1.2.y 3.R ;.P P ;.O T 4.5.6.7.8.9.0.a.b.c.6.d.e.f.g.h.i.j.      ",
"    k.l.m.n.o.p.L Q P ;.S M q.r.x x s.t.a.u.v.w.x.y.z.A.B.b.C.D.E.F.G.H.    ",
"    I.J.K.L.M.N.O.N N P.).Q.u.R.S.T.U.V.W.X.Y.Z.y.`. +.+m ++@+#+$+%+&+*+=+  ",
"  -+;+>+,+'+)+0.8.!+W ~+q {+y ]+^+/+(+_+:+<+[+<+}+|+1+2+3+<+4+5+T.6+7+8+9+  ",
"0+a+b+c+d+e+f+g+a.9.h+b.i+x.j+k+l+m+n+o+o+o+o+o+o+o+p+q+r+s+t+o+o+o+o+u+v+w+",
"x+y+z+A+B+C+[+D+}+E+F+G+H+I+J+l K+L+o+M+M+M+M+N+o+o+o+o+o+o+o+o+o+N+M+o+O+P+",
"Q+R+S+T+U+V+W+X+Y+Z+^+`+ @%+.@:++@o+M+M+M+M+M+o+o+o+o+o+N+N+o+@@#@o+M+M+o+$@",
"%@&@*@=@-@;@>@,@'@)@!@~@{@]@J+^@/@o+M+M+M+M+M+o+o+o+o+o+N+N+o+o+o+o+M+M+o+(@",
"_@:@<@[@}@|@1@2@3@4@5@6@7@8@9@q+X+r+o+M+M+M+M+N+o+o+o+o+M+M+o+o+o+N+M+M+o+0@",
"a@b@c@d@e@f@g@h@i@j@k@l@,@m@n@o@p@X+q@o+o+o+o+o+o+o+o+o+o+o+o+o+o+o+o+o+r@s@",
"  t@u@v@w@x@y@z@A@B@C@D@E@F@G@H@I@p@J@K@L@M@N@O@t+[+t+P@Q@R@X+S@T@U@V@W@X@Y@",
"  Z@`@ #.#+#@###$#%#&#*#=#-#;#>#,#'#)#!#~#o+o+o+o+o+o+{#]#^#/#o+o+o+(#_#:#  ",
"  <#[#}#|#1#2#3#4#5#6#7#8#9#0#a#b#c#d#e#o+f#M+g#f#M+g#o+o+o+o+M+g#f#o+h#i#  ",
"    j#k#l#m#n#o#p#q#r#s#t#u#-#v#w#x#y#o+g#f#M+g#f#M+g#f#M+g#f#M+g#f#M+o+z#  ",
"    A#B#C#D#E#F#G#H#I#J#K#L#A M#N#O#P#o+Q#R#R#Q#R#R#Q#R#R#Q#R#R#Q#R#R#o+    ",
"      S#T#U#V#W#X#Y#Z#`# $.$+$@$#$$$%$o+g#f#M+g#f#M+g#f#M+g#f#M+g#f#o+&$    ",
"      A#*$=$-$l.W#;$>$h@,$'$)$!$~${$]$!$o+f#M+g#f#M+o+o+o+o+f#M+g#o+^$      ",
"        A#/$($_$:$<$[$}$|$1$2$3$4$5$6$7$8$o+o+o+o+o+9$0$a$b$o+o+o+c$        ",
"          A#A#S#d$e$f$g$h$i$j$k$l$m$n$o$p$q$r$s$t$u$v$w$x$y$z$A$B$          ",
"              A#C$D$E$F$G$H$I$J$K$L$M$N$O$P$Q$R$S$T$U$V$W$X$Y$Z$`$          ",
"                  A#C$0+x+ %Z@.%+%@%#%$%%%&%*%=%-%;%>%,%'%)%                ",
"                          A#!%~%{%]%^%/%T#(%(%_%:%<%[%                      "};
