/* XPM */
static xpm_row_t const kamikaze_melting_1_xpm[] = {
"38 32 880 2",
"  	c None",
". 	c #72929F",
"+ 	c #74919E",
"@ 	c #7B98A4",
"# 	c #76919F",
"$ 	c #83BCCA",
"% 	c #7DB4C1",
"& 	c #7BADBB",
"* 	c #79A7B5",
"= 	c #79A4B3",
"- 	c #7CA5B3",
"; 	c #80A5B3",
"> 	c #8AA9B5",
", 	c #8EAAB7",
"' 	c #8FA9B2",
") 	c #8CA6AE",
"! 	c #819BA6",
"~ 	c #7F99A3",
"{ 	c #768F9A",
"] 	c #87B5C3",
"^ 	c #6D9CAA",
"/ 	c #79AFBC",
"( 	c #84BECB",
"_ 	c #8EC8D5",
": 	c #95CFDC",
"< 	c #9CD3E0",
"[ 	c #A2D5E2",
"} 	c #AAD7E3",
"| 	c #B0D6E1",
"1 	c #B5D3DD",
"2 	c #B6D1DA",
"3 	c #B2CDD4",
"4 	c #AAC4CC",
"5 	c #A2BBC3",
"6 	c #98B3BA",
"7 	c #8FA8B1",
"8 	c #87A0AA",
"9 	c #79949D",
"0 	c #738E98",
"a 	c #85AEC0",
"b 	c #88AFC0",
"c 	c #80ADBB",
"d 	c #8ABDCA",
"e 	c #97D2DF",
"f 	c #9EDFEB",
"g 	c #A3E3EF",
"h 	c #A6E6F2",
"i 	c #AAEAF3",
"j 	c #AEEAF4",
"k 	c #B5EAF3",
"l 	c #BDEAF3",
"m 	c #C7E8EF",
"n 	c #CBE5EB",
"o 	c #C5DEE4",
"p 	c #BBD6DD",
"q 	c #AFCFD6",
"r 	c #A5C7CE",
"s 	c #9EBFC7",
"t 	c #96B9C0",
"u 	c #91B0B7",
"v 	c #8BA8B0",
"w 	c #7C99A2",
"x 	c #718E99",
"y 	c #6F9DB2",
"z 	c #7EAABF",
"A 	c #84AFC1",
"B 	c #92C2D2",
"C 	c #A1D7E4",
"D 	c #A2E3EF",
"E 	c #A3E8F3",
"F 	c #A5EBF4",
"G 	c #A7ECF5",
"H 	c #AAEDF6",
"I 	c #ADEFF7",
"J 	c #B2F0F7",
"K 	c #BBF1F6",
"L 	c #C6F0F6",
"M 	c #CFEEF3",
"N 	c #D2E9EE",
"O 	c #C8E1E7",
"P 	c #B9DAE0",
"Q 	c #ABD4DA",
"R 	c #A2CDD3",
"S 	c #9BC8D0",
"T 	c #96C3CB",
"U 	c #91BDC4",
"V 	c #8EB4BC",
"W 	c #8AAAB3",
"X 	c #809CA5",
"Y 	c #708C96",
"Z 	c #748D98",
"` 	c #7B919D",
" .	c #74A2B6",
"..	c #82B1C5",
"+.	c #92C6D6",
"@.	c #9FDCE9",
"#.	c #9DE4F0",
"$.	c #A0E8F3",
"%.	c #A2EBF5",
"&.	c #A7EEF7",
"*.	c #A9EFF8",
"=.	c #ADEFF8",
"-.	c #B2EFF8",
";.	c #B7F0F7",
">.	c #C1F1F8",
",.	c #CFF2F8",
"'.	c #D7F1F5",
").	c #D7EBF0",
"!.	c #CCE4E9",
"~.	c #BADBE1",
"{.	c #AAD5DC",
"].	c #A0D0D8",
"^.	c #97CCD4",
"/.	c #92C9D2",
"(.	c #8DC6CD",
"_.	c #8AC0C8",
":.	c #88B7BF",
"<.	c #87ACB4",
"[.	c #829FA7",
"}.	c #79939B",
"|.	c #788E99",
"1.	c #788C98",
"2.	c #6B808C",
"3.	c #6594A9",
"4.	c #7BADC1",
"5.	c #89C3D5",
"6.	c #94D6E5",
"7.	c #96E1ED",
"8.	c #9BE5F0",
"9.	c #A2E9F4",
"0.	c #A7ECF6",
"a.	c #AAEEF7",
"b.	c #AFEEF7",
"c.	c #B5EEF7",
"d.	c #BAEFF6",
"e.	c #C3EFF7",
"f.	c #CEF1F7",
"g.	c #D8F3F9",
"h.	c #DFF1F7",
"i.	c #DCEEF2",
"j.	c #D1E5EA",
"k.	c #BFDCE2",
"l.	c #AED5DD",
"m.	c #A2D0D9",
"n.	c #99CED6",
"o.	c #92CBD4",
"p.	c #8CC9D2",
"q.	c #88C7CF",
"r.	c #84C1CA",
"s.	c #84B8C0",
"t.	c #83A9B1",
"u.	c #85A1A9",
"v.	c #839AA3",
"w.	c #7B909A",
"x.	c #6D808B",
"y.	c #568499",
"z.	c #6EA1B6",
"A.	c #81BCCF",
"B.	c #8BCEDF",
"C.	c #91DCE9",
"D.	c #96E3EE",
"E.	c #9DE8F2",
"F.	c #A4EAF4",
"G.	c #A9EDF7",
"H.	c #B1EDF6",
"I.	c #B7ECF6",
"J.	c #BFEDF5",
"K.	c #C6EEF5",
"L.	c #CEF0F6",
"M.	c #D8F1F7",
"N.	c #E1F3F8",
"O.	c #E6F4F8",
"P.	c #E2EFF4",
"Q.	c #D7E8ED",
"R.	c #C7DFE6",
"S.	c #B6D7DF",
"T.	c #A9D2DA",
"U.	c #9ECED7",
"V.	c #95CDD6",
"W.	c #8ECCD5",
"X.	c #88CAD3",
"Y.	c #83C7D0",
"Z.	c #80BFC9",
"`.	c #7FB5BD",
" +	c #82A9B1",
".+	c #8BA5AD",
"++	c #8598A2",
"@+	c #70838E",
"#+	c #5C8DA2",
"$+	c #73AEC2",
"%+	c #82C5D7",
"&+	c #8AD7E4",
"*+	c #91DFEB",
"=+	c #98E4F0",
"-+	c #A0E8F2",
";+	c #A7EAF4",
">+	c #AFEBF5",
",+	c #B8EBF5",
"'+	c #BFEAF4",
")+	c #C6EBF3",
"!+	c #CDEDF4",
"~+	c #D4EEF4",
"{+	c #DAF0F6",
"]+	c #E4F1F6",
"^+	c #E6F2F6",
"/+	c #E5F0F4",
"(+	c #DDEBEF",
"_+	c #CFE3E9",
":+	c #BFDBE2",
"<+	c #B1D4DC",
"[+	c #A4D0D8",
"}+	c #90CCD5",
"|+	c #8ACBD4",
"1+	c #85C9D2",
"2+	c #80C4CD",
"3+	c #7DBCC5",
"4+	c #7CB2BA",
"5+	c #87ACB3",
"6+	c #8CA5AB",
"7+	c #748891",
"8+	c #627680",
"9+	c #6197AD",
"0+	c #75B4C9",
"a+	c #80CBDD",
"b+	c #89D9E7",
"c+	c #91DFEC",
"d+	c #9BE4F0",
"e+	c #A4E8F2",
"f+	c #ADEAF4",
"g+	c #B5EAF4",
"h+	c #BCEAF3",
"i+	c #C4EAF3",
"j+	c #CAEAF3",
"k+	c #D0EBF2",
"l+	c #D4ECF2",
"m+	c #DAECF2",
"n+	c #E1EEF3",
"o+	c #E1EDF2",
"p+	c #DEEBF0",
"q+	c #D6E6EA",
"r+	c #C9DEE5",
"s+	c #B8D6DD",
"t+	c #A9D1D8",
"u+	c #9ECDD6",
"v+	c #94CCD5",
"w+	c #8ECBD5",
"x+	c #86CAD4",
"y+	c #82C7D0",
"z+	c #7DC1CA",
"A+	c #79B9C2",
"B+	c #81B3BB",
"C+	c #8FB2B8",
"D+	c #617580",
"E+	c #4F7F95",
"F+	c #659EB3",
"G+	c #75BACD",
"H+	c #80CEDE",
"I+	c #88D9E6",
"J+	c #91DEEC",
"K+	c #9DE5EF",
"L+	c #A8E9F3",
"M+	c #AFEAF4",
"N+	c #B7E9F3",
"O+	c #C0E9F1",
"P+	c #C6E8F1",
"Q+	c #CBE8F1",
"R+	c #D1E9F0",
"S+	c #D4E9F0",
"T+	c #D8E9F0",
"U+	c #DDEAF1",
"V+	c #DCEAF0",
"W+	c #DBE9ED",
"X+	c #D9E8ED",
"Y+	c #D6E7EC",
"Z+	c #CDDEE6",
"`+	c #BDD8DF",
" @	c #AFD0D8",
".@	c #A1CDD5",
"+@	c #98CBD4",
"@@	c #8FCBD5",
"#@	c #88CBD5",
"$@	c #82C8D2",
"%@	c #7DC3CC",
"&@	c #77BEC7",
"*@	c #7EBAC2",
"=@	c #8BBAC1",
"-@	c #7B9CA6",
";@	c #5E7882",
">@	c #538397",
",@	c #65A1B8",
"'@	c #74BCCF",
")@	c #7ECFDF",
"!@	c #86D8E6",
"~@	c #92DFE9",
"{@	c #9FE4EF",
"]@	c #A8E8F2",
"^@	c #B2E8F2",
"/@	c #B9E8F1",
"(@	c #C1E7F0",
"_@	c #C6E6EF",
":@	c #CDE6EE",
"<@	c #D0E6EF",
"[@	c #D2E7EE",
"}@	c #D6E8EE",
"|@	c #D8E7EF",
"1@	c #D7E6EC",
"2@	c #D5E4EA",
"3@	c #D3E2E7",
"4@	c #D2E0E7",
"5@	c #CFDFE5",
"6@	c #BDD6DE",
"7@	c #AFCFD7",
"8@	c #A2CAD1",
"9@	c #98CAD4",
"0@	c #8FCCD6",
"a@	c #89CCD5",
"b@	c #83C9D3",
"c@	c #7DC5CE",
"d@	c #79C0C9",
"e@	c #7BBDC6",
"f@	c #88C0C8",
"g@	c #7DA8B1",
"h@	c #5D7F89",
"i@	c #54879D",
"j@	c #65A5BB",
"k@	c #73BDCF",
"l@	c #7CCEDE",
"m@	c #85D6E4",
"n@	c #92DEE9",
"o@	c #9EE4EE",
"p@	c #AAE7F1",
"q@	c #B3E7F1",
"r@	c #BBE6F0",
"s@	c #C1E6EF",
"t@	c #C7E5ED",
"u@	c #CCE4ED",
"v@	c #CEE5ED",
"w@	c #D1E4ED",
"x@	c #D2E3EB",
"y@	c #D3E4EA",
"z@	c #D2E2E8",
"A@	c #D0E1E7",
"B@	c #CEDEE4",
"C@	c #CCDBE2",
"D@	c #C9D8DF",
"E@	c #BBD3DC",
"F@	c #AECCD4",
"G@	c #A0C8D0",
"H@	c #97CBD5",
"I@	c #90CDD7",
"J@	c #89CDD6",
"K@	c #83C8D2",
"L@	c #7EC6CF",
"M@	c #7AC2CB",
"N@	c #7BBFC8",
"O@	c #88CAD2",
"P@	c #7BAFB7",
"Q@	c #5D8791",
"R@	c #53899F",
"S@	c #64A5BB",
"T@	c #72BED0",
"U@	c #7ACCDC",
"V@	c #83D5E3",
"W@	c #91DCE8",
"X@	c #9EE3ED",
"Y@	c #A9E6F0",
"Z@	c #B2E6F0",
"`@	c #BAE5EE",
" #	c #C0E4ED",
".#	c #C5E4EC",
"+#	c #CAE3EB",
"@#	c #CCE1EA",
"##	c #CEE1EB",
"$#	c #CEE0E8",
"%#	c #CEDFE8",
"&#	c #CEDFE5",
"*#	c #C9DBE4",
"=#	c #C7DBE2",
"-#	c #C4D7DE",
";#	c #C0D4DC",
">#	c #B6D0D8",
",#	c #ABCBD1",
"'#	c #9FC8D1",
")#	c #96CCD6",
"!#	c #8FCDD7",
"~#	c #88CDD6",
"{#	c #7FC7D0",
"]#	c #7DC4CD",
"^#	c #7BC1CA",
"/#	c #83C7CF",
"(#	c #81B9C3",
"_#	c #5E919C",
":#	c #538BA1",
"<#	c #64A8BE",
"[#	c #70BED0",
"}#	c #79CCDD",
"|#	c #82D4E1",
"1#	c #8FDBE7",
"2#	c #9BE1EC",
"3#	c #A7E5EF",
"4#	c #B1E4EF",
"5#	c #B8E4EE",
"6#	c #BFE2EB",
"7#	c #C4E1EA",
"8#	c #C7E1E9",
"9#	c #C9DFE9",
"0#	c #CBDFE8",
"a#	c #CADDE5",
"b#	c #C9DBE3",
"c#	c #C6D9E2",
"d#	c #C4D7E0",
"e#	c #C0D5DF",
"f#	c #BED3DB",
"g#	c #B8D1D9",
"h#	c #B0CDD5",
"i#	c #A6C8D1",
"j#	c #9CCAD4",
"k#	c #94CDD7",
"l#	c #8ECED8",
"m#	c #88CCD6",
"n#	c #82C9D3",
"o#	c #7FC6CE",
"p#	c #7DC3CB",
"q#	c #81C4CD",
"r#	c #7CB8C1",
"s#	c #6297A1",
"t#	c #3C687B",
"u#	c #538FA5",
"v#	c #64A9BE",
"w#	c #6EBFD0",
"x#	c #77CBDB",
"y#	c #7FD1DF",
"z#	c #8CD9E5",
"A#	c #99DFEB",
"B#	c #A3E3EE",
"C#	c #ADE2ED",
"D#	c #B5E1EC",
"E#	c #BBE0EB",
"F#	c #C1E0E8",
"G#	c #C3DDE7",
"H#	c #C5DCE6",
"I#	c #C5DAE4",
"J#	c #C5D9E2",
"K#	c #C2D5DF",
"L#	c #C0D4DD",
"M#	c #BCD2DB",
"N#	c #BBD1DA",
"O#	c #B6D1D9",
"P#	c #B0CCD7",
"Q#	c #AACBD4",
"R#	c #A3C9D2",
"S#	c #9ACBD5",
"T#	c #92CED8",
"U#	c #8DCED8",
"V#	c #87CCD7",
"W#	c #7FC7D1",
"X#	c #80C6CE",
"Y#	c #7EC3CC",
"Z#	c #7EC0C8",
"`#	c #76B5BE",
" $	c #649BA6",
".$	c #3A667A",
"+$	c #528EA4",
"@$	c #62ACC1",
"#$	c #6DC0D1",
"$$	c #74C9D9",
"%$	c #7CCFDE",
"&$	c #89D7E4",
"*$	c #94DEEA",
"=$	c #A0E0EC",
"-$	c #A9E1ED",
";$	c #B2DFEB",
">$	c #B7DDE8",
",$	c #BCDCE6",
"'$	c #BEDAE3",
")$	c #C0D7E2",
"!$	c #BFD5E0",
"~$	c #BED4DE",
"{$	c #BAD0DA",
"]$	c #B7CED8",
"^$	c #B4CDD7",
"/$	c #B3CCD5",
"($	c #AFCCD6",
"_$	c #A8CAD5",
":$	c #A4C9D3",
"<$	c #9FCAD4",
"[$	c #97CCD6",
"}$	c #91CED9",
"|$	c #8BCED8",
"1$	c #86CBD5",
"2$	c #81C8D2",
"3$	c #80C6D0",
"4$	c #7FC5CE",
"5$	c #7FC2CA",
"6$	c #7BBBC4",
"7$	c #70AAB4",
"8$	c #6499A3",
"9$	c #396478",
"0$	c #508EA3",
"a$	c #61ACC0",
"b$	c #6CBDCF",
"c$	c #72C8D8",
"d$	c #7ACEDC",
"e$	c #85D6E2",
"f$	c #90DAE8",
"g$	c #9BDEEA",
"h$	c #A4DDEA",
"i$	c #ACDDE8",
"j$	c #B1D9E6",
"k$	c #B6D8E4",
"l$	c #B8D5E0",
"m$	c #B8D2DD",
"n$	c #B6CFDB",
"o$	c #B3CCD8",
"p$	c #B2CAD6",
"q$	c #B0C8D4",
"r$	c #AEC8D3",
"s$	c #ADC8D3",
"t$	c #A8C8D3",
"u$	c #A3C8D4",
"v$	c #9FC8D4",
"w$	c #9ACAD5",
"x$	c #94CCD7",
"y$	c #8ECED9",
"z$	c #8ACDD8",
"A$	c #85CAD4",
"B$	c #81C7D1",
"C$	c #7FC5CF",
"D$	c #7FC1C9",
"E$	c #7DBCC4",
"F$	c #70A9B2",
"G$	c #5B8B95",
"H$	c #366173",
"I$	c #4B889C",
"J$	c #5DA9BC",
"K$	c #6ABACD",
"L$	c #71C5D6",
"M$	c #78CCDB",
"N$	c #81D3E1",
"O$	c #8BD8E5",
"P$	c #94DAE8",
"Q$	c #9CDBE8",
"R$	c #A5DBE8",
"S$	c #A9D8E4",
"T$	c #AED4E1",
"U$	c #ADCEDB",
"V$	c #ADCAD8",
"W$	c #AAC7D4",
"X$	c #AAC5D3",
"Y$	c #A9C3CF",
"Z$	c #AAC3D0",
"`$	c #A7C4CF",
" %	c #A5C6D1",
".%	c #A1C6D1",
"+%	c #9FC6D2",
"@%	c #9BC8D4",
"#%	c #96CAD5",
"$%	c #92CCD7",
"%%	c #8CCDD8",
"&%	c #88CBD6",
"*%	c #84C9D3",
"=%	c #81C5D0",
"-%	c #7EC5CE",
";%	c #7FC2CC",
">%	c #7FBEC7",
",%	c #7AB3BB",
"'%	c #64949C",
")%	c #345D6E",
"!%	c #467F91",
"~%	c #59A1B5",
"{%	c #66B8CA",
"]%	c #70C4D5",
"^%	c #76CAD9",
"/%	c #86D5E3",
"(%	c #8CD8E6",
"_%	c #96D9E8",
":%	c #9DD9E6",
"<%	c #A3D6E4",
"[%	c #A4D1DE",
"}%	c #A3C9D8",
"|%	c #A0C3D3",
"1%	c #A0C0D0",
"2%	c #A0C0CE",
"3%	c #A2BECC",
"4%	c #A2C0CC",
"5%	c #A0C1CD",
"6%	c #A0C3CF",
"7%	c #9DC2CF",
"8%	c #9AC5D1",
"9%	c #98C7D3",
"0%	c #93CAD5",
"a%	c #8ECCD7",
"b%	c #8ACBD7",
"c%	c #83C7D2",
"d%	c #80C4D0",
"e%	c #7FC4CE",
"f%	c #7FC1CB",
"g%	c #7FBCC4",
"h%	c #70A1A8",
"i%	c #5A838B",
"j%	c #33596A",
"k%	c #3E6E81",
"l%	c #5293A6",
"m%	c #63B2C4",
"n%	c #6DC1D2",
"o%	c #73C8D8",
"p%	c #78CCDC",
"q%	c #80D1DF",
"r%	c #87D5E3",
"s%	c #8DD6E4",
"t%	c #95D7E5",
"u%	c #9AD5E3",
"v%	c #9DD1DF",
"w%	c #9BCAD8",
"x%	c #98C2D0",
"y%	c #97BDCD",
"z%	c #99BBCC",
"A%	c #9ABCCA",
"B%	c #9ABBCA",
"C%	c #9ABECC",
"D%	c #9AC0CD",
"E%	c #99C1CE",
"F%	c #96C4D0",
"G%	c #93C7D2",
"H%	c #90C9D4",
"I%	c #8CCAD6",
"J%	c #87CAD5",
"K%	c #85C8D3",
"L%	c #82C6D1",
"M%	c #80C4CE",
"N%	c #7EC2CC",
"O%	c #7DBEC8",
"P%	c #7BB3BC",
"Q%	c #729EA6",
"R%	c #416065",
"S%	c #396475",
"T%	c #498496",
"U%	c #5DA6B9",
"V%	c #69BACD",
"W%	c #71C4D4",
"X%	c #7CCEDD",
"Y%	c #81D1E0",
"Z%	c #86D3E2",
"`%	c #8DD4E3",
" &	c #91D3E2",
".&	c #94D2E0",
"+&	c #95CCDB",
"@&	c #94C5D3",
"#&	c #93BECD",
"$&	c #92BACA",
"%&	c #94B9C9",
"&&	c #96B9C9",
"*&	c #96BCCB",
"=&	c #97BECC",
"-&	c #96C0CD",
";&	c #93C3CE",
">&	c #8FC6D1",
",&	c #8CC8D4",
"'&	c #89C9D5",
")&	c #87C7D3",
"!&	c #83C5D1",
"~&	c #81C4CE",
"{&	c #7EC1CD",
"]&	c #7DC1CB",
"^&	c #7BBAC4",
"/&	c #72A7B0",
"(&	c #60888F",
"_&	c #3E7082",
":&	c #5295A7",
"<&	c #64B1C3",
"[&	c #6DBFCF",
"}&	c #71C6D6",
"|&	c #76CADA",
"1&	c #7BCDDD",
"2&	c #80D0DF",
"3&	c #86D2E0",
"4&	c #89D2E1",
"5&	c #8CD0DF",
"6&	c #8ECCDC",
"7&	c #8FC8D7",
"8&	c #8FC2D2",
"9&	c #90BCCC",
"0&	c #90B8C8",
"a&	c #92B8C8",
"b&	c #93BAC8",
"c&	c #93BECC",
"d&	c #93BFCC",
"e&	c #91C1CF",
"f&	c #8EC4D1",
"g&	c #8CC5D2",
"h&	c #89C5D2",
"i&	c #85C5D1",
"j&	c #83C3CE",
"k&	c #80C0CC",
"l&	c #7EBFCA",
"m&	c #7BBDC8",
"n&	c #76B2BD",
"o&	c #6A9BA5",
"p&	c #496E79",
"q&	c #376374",
"r&	c #467D8E",
"s&	c #579FB1",
"t&	c #67B6C7",
"u&	c #6EC1D2",
"v&	c #72C6D6",
"w&	c #77CADA",
"x&	c #7BCDDC",
"y&	c #7FCFDD",
"z&	c #82CFDE",
"A&	c #85CEDD",
"B&	c #87CBDA",
"C&	c #87C7D7",
"D&	c #89C4D4",
"E&	c #8BBECE",
"F&	c #8CB9C9",
"G&	c #8EB6C6",
"H&	c #90B7C6",
"I&	c #90BAC8",
"J&	c #90BDCB",
"K&	c #8EBFCC",
"L&	c #8CC1CE",
"M&	c #8AC3D0",
"N&	c #88C2CE",
"O&	c #84C2CF",
"P&	c #81BFCB",
"Q&	c #7FBDCA",
"R&	c #7BBBC8",
"S&	c #78B7C3",
"T&	c #6FA8B3",
"U&	c #588993",
"V&	c #4F7784",
"W&	c #4C8899",
"X&	c #5BA4B6",
"Y&	c #67B7C8",
"Z&	c #79CBDA",
"`&	c #7CCBDA",
" *	c #7ECBDA",
".*	c #7FC9D9",
"+*	c #81C7D7",
"@*	c #83C3D3",
"#*	c #84BDCD",
"$*	c #86B8C8",
"%*	c #89B5C5",
"&*	c #8BB4C4",
"**	c #8DB7C5",
"=*	c #8CB9C6",
"-*	c #8CBBC8",
";*	c #89BECB",
">*	c #87BFCB",
",*	c #86BFCB",
"'*	c #83BDCA",
")*	c #80BCC9",
"!*	c #7DBAC8",
"~*	c #79B9C5",
"{*	c #74B0BE",
"]*	c #689EAB",
"^*	c #5A8B97",
"/*	c #417788",
"(*	c #4D8C9D",
"_*	c #5CA3B5",
":*	c #67B4C5",
"<*	c #6DBECE",
"[*	c #71C4D3",
"}*	c #75C6D5",
"|*	c #76C7D7",
"1*	c #78C6D6",
"2*	c #79C5D5",
"3*	c #7AC4D4",
"4*	c #7BC1D1",
"5*	c #7DBCCE",
"6*	c #7FB6C8",
"7*	c #82B2C3",
"8*	c #85B0C1",
"9*	c #88B2C1",
"0*	c #88B4C3",
"a*	c #87B6C4",
"b*	c #85B6C5",
"c*	c #84B9C7",
"d*	c #83BAC7",
"e*	c #80B9C6",
"f*	c #7EB7C4",
"g*	c #79B5C3",
"h*	c #76AFBD",
"i*	c #6DA6B4",
"j*	c #5E92A0",
"k*	c #517D8B",
"l*	c #437989",
"m*	c #4B8899",
"n*	c #5AA0B1",
"o*	c #61AEBE",
"p*	c #69B7C7",
"q*	c #6DBDCC",
"r*	c #71C0D0",
"s*	c #70C0CF",
"t*	c #71BFCF",
"u*	c #72BECE",
"v*	c #74BCCC",
"w*	c #76B9CA",
"x*	c #78B4C5",
"y*	c #7AAFC1",
"z*	c #7CACBD",
"A*	c #7FABBC",
"B*	c #80ADBD",
"C*	c #80AEBE",
"D*	c #80AFBF",
"E*	c #7FB2C0",
"F*	c #7DB2C0",
"G*	c #7BB2BF",
"H*	c #76AEBE",
"I*	c #70A9B7",
"J*	c #699EAC",
"K*	c #5C909F",
"L*	c #527F8E",
"M*	c #427788",
"N*	c #498595",
"O*	c #5392A2",
"P*	c #5A9EAE",
"Q*	c #61A8B9",
"R*	c #65ADBD",
"S*	c #68B2C2",
"T*	c #69B3C3",
"U*	c #6AB3C4",
"V*	c #6BB3C3",
"W*	c #6DB1C2",
"X*	c #6DAFC0",
"Y*	c #71AABB",
"Z*	c #73A8BA",
"`*	c #76A5B7",
" =	c #75A5B6",
".=	c #76A6B7",
"+=	c #75A6B6",
"@=	c #76A7B7",
"#=	c #74A7B7",
"$=	c #71A5B5",
"%=	c #6A9CAC",
"&=	c #6395A4",
"*=	c #5B8C9B",
"==	c #437788",
"-=	c #467E8F",
";=	c #4D8697",
">=	c #518F9F",
",=	c #5695A5",
"'=	c #599BAB",
")=	c #5B9DAD",
"!=	c #5CA0B1",
"~=	c #5FA2B2",
"{=	c #60A1B2",
"]=	c #61A0B1",
"^=	c #629FB0",
"/=	c #669DAE",
"(=	c #679BAC",
"_=	c #6799A9",
":=	c #6898A9",
"<=	c #6696A6",
"[=	c #6595A5",
"}=	c #6393A3",
"|=	c #6090A0",
"1=	c #5E8E9E",
"2=	c #5C8D9C",
"3=	c #487F8F",
"4=	c #4B8393",
"5=	c #4E8797",
"6=	c #508899",
"7=	c #4F8A9A",
"8=	c #518B9D",
"9=	c #528D9E",
"0=	c #538E9F",
"a=	c #558D9E",
"b=	c #578C9E",
"c=	c #588C9D",
"d=	c #5A8A9B",
"e=	c #598898",
"f=	c #598798",
"g=	c #588797",
"h=	c #578595",
"i=	c #497D8E",
"j=	c #4A7F8F",
"k=	c #4B7F90",
"l=	c #4D7E90",
"m=	c #4D7C8E",
"                                                                            ",
"                                          . + @ #                           ",
"                            $ % & * = - ; > , ' ) ! ~ {                     ",
"                    ] ^ / ( _ : < [ } | 1 2 3 4 5 6 7 8 9 0                 ",
"              a b c d e f g h i j k l m n o p q r s t u v w x               ",
"          y z A B C D E F G H I J K L M N O P Q R S T U V W X Y Z `         ",
"           ...+.@.#.$.%.&.*.=.-.;.>.,.'.).!.~.{.].^./.(._.:.<.[.}.|.1.2.    ",
"        3.4.5.6.7.8.9.0.a.b.c.d.e.f.g.h.i.j.k.l.m.n.o.p.q.r.s.t.u.v.w.x.    ",
"      y.z.A.B.C.D.E.F.G.H.I.J.K.L.M.N.O.P.Q.R.S.T.U.V.W.X.Y.Z.`. +.+++@+    ",
"      #+$+%+&+*+=+-+;+>+,+'+)+!+~+{+]+^+/+(+_+:+<+[+n.}+|+1+2+3+4+5+6+7+8+  ",
"      9+0+a+b+c+d+e+f+g+h+i+j+k+l+m+n+n+o+p+q+r+s+t+u+v+w+x+y+z+A+B+C+}.D+  ",
"    E+F+G+H+I+J+K+L+M+N+O+P+Q+R+S+T+U+V+W+X+Y+Z+`+ @.@+@@@#@$@%@&@*@=@-@;@  ",
"    >@,@'@)@!@~@{@]@^@/@(@_@:@<@[@}@|@1@2@3@4@5@6@7@8@9@0@a@b@c@d@e@f@g@h@  ",
"    i@j@k@l@m@n@o@p@q@r@s@t@u@v@w@x@y@z@A@B@C@D@E@F@G@H@I@J@K@L@M@N@O@P@Q@  ",
"    R@S@T@U@V@W@X@Y@Z@`@ #.#+#@###$#%#&#*#=#-#;#>#,#'#)#!#~#b@{#]#^#/#(#_#  ",
"    :#<#[#}#|#1#2#3#4#5#6#7#8#9#0#a#b#c#d#e#f#g#h#i#j#k#l#m#n#{#o#p#q#r#s#  ",
"  t#u#v#w#x#y#z#A#B#C#D#E#F#G#H#I#J#K#L#M#N#O#P#Q#R#S#T#U#V#n#W#X#Y#Z#`# $  ",
"  .$+$@$#$$$%$&$*$=$-$;$>$,$'$)$!$~${$]$^$/$($_$:$<$[$}$|$1$2$3$4$5$6$7$8$  ",
"  9$0$a$b$c$d$e$f$g$h$i$j$k$l$m$n$o$p$q$r$s$t$u$v$w$x$y$z$A$B$C$4$D$E$F$G$  ",
"  H$I$J$K$L$M$N$O$P$Q$R$S$T$U$V$W$X$Y$Z$`$ %.%+%@%#%$%%%&%*%=%-%;%>%,%'%    ",
"  )%!%~%{%]%^%%$/%(%_%:%<%[%}%|%1%2%3%4%5%6%7%8%9%0%a%b%1$c%d%e%f%g%h%i%    ",
"  j%k%l%m%n%o%p%q%r%s%t%u%v%w%x%y%z%A%B%C%D%E%F%G%H%I%J%K%L%M%N%O%P%Q%R%    ",
"    S%T%U%V%W%$$X%Y%Z%`% &.&+&@&#&$&%&&&*&=&-&;&>&,&'&)&!&~&{&]&^&/&(&      ",
"      _&:&<&[&}&|&1&2&3&4&5&6&7&8&9&0&a&b&c&d&e&f&g&h&i&j&k&l&m&n&o&p&      ",
"      q&r&s&t&u&v&w&x&y&z&A&B&C&D&E&F&G&H&I&J&K&L&M&N&O&P&Q&R&S&T&U&V&      ",
"        _&W&X&Y&#$v&^%Z&`& *.*+*@*#*$*%*&***=*-*;*>*,*'*)*!*~*{*]*^*        ",
"          /*(*_*:*<*[*}*|*1*2*3*4*5*6*7*8*9*0*a*b*c*d*e*f*g*h*i*j*k*        ",
"            l*m*n*o*p*q*r*s*t*u*v*w*x*y*z*A*B*C*D*E*F*G*H*I*J*K*L*          ",
"              M*N*O*P*Q*R*S*T*U*V*W*X*Y*Z*`* =.=+=@=#=$=%=&=*=              ",
"                ==-=;=>=,='=)=!=~={=]=^=/=(=_=:=<=[=}=|=1=2=                ",
"                      3=4=5=6=7=8=9=0=a=b=c=d=e=f=g=g=h=                    ",
"                                  i=j=k=k=l=m=                              "};
