/* XPM */
static xpm_row_t const kamikaze_melting_2_xpm[] = {
"38 32 545 2",
"  	c None",
". 	c #D0FDFE",
"+ 	c #D3FCFE",
"@ 	c #D7FCFE",
"# 	c #DDFEFE",
"$ 	c #E4FEFE",
"% 	c #EAFCFE",
"& 	c #EAFEFE",
"* 	c #C5F9FC",
"= 	c #C3F9FC",
"- 	c #C7FBFE",
"; 	c #D2FCFF",
"> 	c #E9FCFE",
", 	c #F2FDFE",
"' 	c #F6FEFF",
") 	c #F9FFFF",
"! 	c #FAFFFF",
"~ 	c #F8FFFF",
"{ 	c #FBFFFF",
"] 	c #F6FEFE",
"^ 	c #EEFFFD",
"/ 	c #BAF3F8",
"( 	c #B5F3F9",
"_ 	c #B4F5FB",
": 	c #BEF6FC",
"< 	c #CBFAFE",
"[ 	c #D8FBFF",
"} 	c #E4FCFF",
"| 	c #E9FDFE",
"1 	c #EAFEFF",
"2 	c #E7FFFF",
"3 	c #E5FFFF",
"4 	c #E8FFFF",
"5 	c #EFFFFF",
"6 	c #F7FFFF",
"7 	c #FCFFFF",
"8 	c #ECFFFF",
"9 	c #ACEFF5",
"0 	c #A8F0F7",
"a 	c #ABF2FA",
"b 	c #B1F4FC",
"c 	c #BEF6FD",
"d 	c #C7F7FE",
"e 	c #CDF9FE",
"f 	c #CEFAFF",
"g 	c #CFFBFF",
"h 	c #D3FCFF",
"i 	c #D5FDFF",
"j 	c #D2FEFF",
"k 	c #CDFFFF",
"l 	c #D2FFFF",
"m 	c #DDFFFF",
"n 	c #F2FFFF",
"o 	c #FEFFFF",
"p 	c #EBFFFF",
"q 	c #B1EAF1",
"r 	c #9EE7EF",
"s 	c #97E7F1",
"t 	c #9BECF5",
"u 	c #A1F0F9",
"v 	c #A1F0FA",
"w 	c #A3F3FB",
"x 	c #A7F3FC",
"y 	c #AFF6FE",
"z 	c #B7F9FF",
"A 	c #BFFAFF",
"B 	c #BBFAFF",
"C 	c #B5FCFF",
"D 	c #BDFEFF",
"E 	c #C1FEFE",
"F 	c #C0FFFF",
"G 	c #C4FFFE",
"H 	c #D6FFFF",
"I 	c #EDFFFF",
"J 	c #97E1EA",
"K 	c #89E1EB",
"L 	c #84E2EE",
"M 	c #87E7F2",
"N 	c #8DE9F6",
"O 	c #90ECF8",
"P 	c #91EDFB",
"Q 	c #95F0FD",
"R 	c #9CF3FE",
"S 	c #A4F6FD",
"T 	c #A8F7FE",
"U 	c #A5F8FE",
"V 	c #A3F9FE",
"W 	c #A9FBFE",
"X 	c #B0FDFD",
"Y 	c #B8FEFE",
"Z 	c #B9FEFE",
"` 	c #BFFFFE",
" .	c #96DEE8",
"..	c #81DAE6",
"+.	c #78DCE8",
"@.	c #78DFEC",
"#.	c #7BE3F2",
"$.	c #81E7F6",
"%.	c #85ECF9",
"&.	c #88EEFB",
"*.	c #8CF0FC",
"=.	c #90F2FD",
"-.	c #94F3FE",
";.	c #96F6FE",
">.	c #97F6FC",
",.	c #9BF8FC",
"'.	c #9DF9FC",
").	c #A2FBFC",
"!.	c #A5FDFD",
"~.	c #AFFEFE",
"{.	c #B2FFFE",
"].	c #C3FFFE",
"^.	c #D4FFFF",
"/.	c #E9FFFF",
"(.	c #9BDFE8",
"_.	c #7ED8E3",
":.	c #6FD4E3",
"<.	c #6BD7E5",
"[.	c #70DDEB",
"}.	c #76E3F1",
"|.	c #7CE8F5",
"1.	c #81EBF8",
"2.	c #85EEFA",
"3.	c #87EFFB",
"4.	c #8BF2FD",
"5.	c #8DF3FD",
"6.	c #8FF5FD",
"7.	c #92F6FC",
"8.	c #93F7FC",
"9.	c #96F9FB",
"0.	c #96FBFD",
"a.	c #98FEFC",
"b.	c #9EFDFC",
"c.	c #A5FEFE",
"d.	c #B1FFFD",
"e.	c #C0FFFE",
"f.	c #84D8E3",
"g.	c #6CD3E1",
"h.	c #63D4E3",
"i.	c #66D9E8",
"j.	c #6FE2F0",
"k.	c #76E6F4",
"l.	c #7DEAF7",
"m.	c #81EDF8",
"n.	c #83EFF9",
"o.	c #86EFFA",
"p.	c #87F1FC",
"q.	c #8AF3FB",
"r.	c #8BF4FB",
"s.	c #8DF5FB",
"t.	c #8DF6FA",
"u.	c #8DF7FA",
"v.	c #90F8FB",
"w.	c #91F9FB",
"x.	c #94FAFC",
"y.	c #99FAFB",
"z.	c #A0FCFB",
"A.	c #AFFEFD",
"B.	c #BCFFFF",
"C.	c #DCFFFF",
"D.	c #F5FFFF",
"E.	c #70D3E1",
"F.	c #5FD3E1",
"G.	c #5FD8E6",
"H.	c #69E1EE",
"I.	c #74E7F3",
"J.	c #7BEAF7",
"K.	c #80EDF9",
"L.	c #81EEFA",
"M.	c #84F0FA",
"N.	c #84F1FB",
"O.	c #86F2FB",
"P.	c #87F3FA",
"Q.	c #88F3FA",
"R.	c #89F4FA",
"S.	c #89F5F9",
"T.	c #8AF6F9",
"U.	c #8AF5F9",
"V.	c #8BF6F9",
"W.	c #8CF6F9",
"X.	c #91F8FA",
"Y.	c #95F9FA",
"Z.	c #9FFBFB",
"`.	c #ACFEFD",
" +	c #C9FFFF",
".+	c #76D5E1",
"++	c #61D2DF",
"@+	c #59D5E4",
"#+	c #62DDEC",
"$+	c #6DE3F1",
"%+	c #77E9F6",
"&+	c #7CEDF8",
"*+	c #81EEF9",
"=+	c #82EFFA",
"-+	c #83F0FA",
";+	c #83F0FB",
">+	c #85F1FA",
",+	c #86F2FA",
"'+	c #86F3F9",
")+	c #87F4F9",
"!+	c #86F2F8",
"~+	c #87F3F8",
"{+	c #88F3F8",
"]+	c #8CF5F9",
"^+	c #8FF6F9",
"/+	c #97F8FA",
"(+	c #A3FAFC",
"_+	c #BDFDFE",
":+	c #DBFEFF",
"<+	c #F4FEFE",
"[+	c #F0FDFF",
"}+	c #61CEDC",
"|+	c #54D0DD",
"1+	c #59D6E3",
"2+	c #65DFED",
"3+	c #71E7F3",
"4+	c #77EBF7",
"5+	c #7CEDF9",
"6+	c #80EEF9",
"7+	c #80EEFA",
"8+	c #81EFFA",
"9+	c #82F0FB",
"0+	c #83F1FA",
"a+	c #84F1F9",
"b+	c #83F1F9",
"c+	c #83F0F8",
"d+	c #82F0F8",
"e+	c #83F0F7",
"f+	c #85F2F8",
"g+	c #87F2F8",
"h+	c #8BF3F9",
"i+	c #90F5FA",
"j+	c #9CF7FC",
"k+	c #B0FAFD",
"l+	c #CFFDFE",
"m+	c #EBFEFF",
"n+	c #E9FDFF",
"o+	c #51CAD8",
"p+	c #4CCEDC",
"q+	c #55D8E5",
"r+	c #62E1ED",
"s+	c #6DE6F3",
"t+	c #76EAF7",
"u+	c #7BEDF9",
"v+	c #7FEDF9",
"w+	c #7FEEFA",
"x+	c #80EFFB",
"y+	c #81EFFB",
"z+	c #81F0FA",
"A+	c #81EFF9",
"B+	c #82EFF9",
"C+	c #81EFF8",
"D+	c #82EEF8",
"E+	c #84EFF8",
"F+	c #87F0F8",
"G+	c #8BF2F9",
"H+	c #92F4FC",
"I+	c #A6F8FD",
"J+	c #CAFCFF",
"K+	c #E4FEFF",
"L+	c #E7FDFF",
"M+	c #4AC6D6",
"N+	c #45CCDB",
"O+	c #51D6E3",
"P+	c #5FDDEA",
"Q+	c #6BE5F1",
"R+	c #74E9F6",
"S+	c #7AECF9",
"T+	c #7DEDF9",
"U+	c #7FEDFA",
"V+	c #80EFFA",
"W+	c #80EFF9",
"X+	c #7FEDF8",
"Y+	c #7EEDF8",
"Z+	c #7FECF8",
"`+	c #80ECF8",
" @	c #84EFF9",
".@	c #8BF1FB",
"+@	c #9AF5FD",
"@@	c #BDFAFE",
"#@	c #D9FDFF",
"$@	c #E3FDFF",
"%@	c #49C5D5",
"&@	c #42CAD8",
"*@	c #4DD3E0",
"=@	c #59DAE7",
"-@	c #65E2EE",
";@	c #6FE7F4",
">@	c #78EBF7",
",@	c #7CECF8",
"'@	c #7DECF9",
")@	c #7EEDF9",
"!@	c #7DEDF8",
"~@	c #7DECF8",
"{@	c #7BEBF7",
"]@	c #7CEBF7",
"^@	c #7DEBF8",
"/@	c #7DEBF9",
"(@	c #80ECF9",
"_@	c #84EEFA",
":@	c #8FF0FC",
"<@	c #B1F6FE",
"[@	c #CEFBFE",
"}@	c #DAFCFF",
"|@	c #50C7D6",
"1@	c #41C7D4",
"2@	c #46CFDC",
"3@	c #52D7E3",
"4@	c #5EDFEB",
"5@	c #6AE5F1",
"6@	c #74E9F5",
"7@	c #7AEBF8",
"8@	c #7CECF9",
"9@	c #7CEBF8",
"0@	c #7BECF8",
"a@	c #7CEAF6",
"b@	c #7AEAF6",
"c@	c #7BEAF6",
"d@	c #7AE9F7",
"e@	c #7AEAF7",
"f@	c #7BEAF8",
"g@	c #A0F4FD",
"h@	c #C2F9FE",
"i@	c #56C8D5",
"j@	c #40C5D3",
"k@	c #3FCBD8",
"l@	c #4AD1DE",
"m@	c #58DBE7",
"n@	c #64E2EE",
"o@	c #7CEAF8",
"p@	c #7BEBF8",
"q@	c #7AEAF8",
"r@	c #79EAF8",
"s@	c #79E9F7",
"t@	c #78E9F7",
"u@	c #79E8F7",
"v@	c #77E8F7",
"w@	c #75E9F7",
"x@	c #76E9F7",
"y@	c #77EAF8",
"z@	c #83EDF9",
"A@	c #97F1FC",
"B@	c #B3F6FE",
"C@	c #C2F8FD",
"D@	c #61CAD6",
"E@	c #42C4D1",
"F@	c #3AC8D5",
"G@	c #44CFDC",
"H@	c #51D7E3",
"I@	c #69E5F1",
"J@	c #72E8F5",
"K@	c #79E9F6",
"L@	c #78EAF7",
"M@	c #75E9F6",
"N@	c #74E8F6",
"O@	c #75E8F6",
"P@	c #75E7F6",
"Q@	c #73E8F6",
"R@	c #72E8F6",
"S@	c #73E8F7",
"T@	c #74E9F7",
"U@	c #80EBF9",
"V@	c #94F0FB",
"W@	c #ADF4FD",
"X@	c #48C5D2",
"Y@	c #37C2CF",
"Z@	c #3CCAD7",
"`@	c #49D3E0",
" #	c #56DBE8",
".#	c #6AE6F2",
"+#	c #71E7F4",
"@#	c #75E8F5",
"##	c #76E8F5",
"$#	c #71E7F5",
"%#	c #70E7F5",
"&#	c #71E6F5",
"*#	c #72E6F5",
"=#	c #6FE7F6",
"-#	c #6FE8F6",
";#	c #76E9F6",
">#	c #81ECF7",
",#	c #94EFFA",
"'#	c #BFF5FC",
")#	c #57C8D5",
"!#	c #3EC2D1",
"~#	c #37C6D3",
"{#	c #40CDDA",
"]#	c #4CD5E2",
"^#	c #57DDE9",
"/#	c #61E1ED",
"(#	c #68E5F2",
"_#	c #6DE5F2",
":#	c #6FE6F3",
"<#	c #6EE6F3",
"[#	c #6CE5F3",
"}#	c #6AE5F2",
"|#	c #69E4F2",
"1#	c #6BE6F3",
"2#	c #6EE5F2",
"3#	c #6DE6F4",
"4#	c #6CE6F4",
"5#	c #6BE6F4",
"6#	c #6BE5F4",
"7#	c #6EE5F3",
"8#	c #70E6F3",
"9#	c #78E7F3",
"0#	c #84E9F6",
"a#	c #96ECF6",
"b#	c #ADEFF9",
"c#	c #C4F4FA",
"d#	c #49C4D3",
"e#	c #38C7D4",
"f#	c #40CFDB",
"g#	c #49D5E2",
"h#	c #53DAE6",
"i#	c #5BDEEB",
"j#	c #61E0ED",
"k#	c #63E1EE",
"l#	c #60E1EE",
"m#	c #60E2EF",
"n#	c #63E3F0",
"o#	c #67E3F0",
"p#	c #67E4F3",
"q#	c #68E4F3",
"r#	c #67E3F2",
"s#	c #69E3F2",
"t#	c #6CE3F1",
"u#	c #72E4F1",
"v#	c #7BE4F1",
"w#	c #89E6F3",
"x#	c #9BEBF5",
"y#	c #B0EFF7",
"z#	c #3FC2CF",
"A#	c #34C2CF",
"B#	c #36C7D3",
"C#	c #3ECDDA",
"D#	c #44D2DE",
"E#	c #4BD6E2",
"F#	c #51D9E5",
"G#	c #55DBE8",
"H#	c #56DAE8",
"I#	c #57DDEA",
"J#	c #5CDFED",
"K#	c #60DFED",
"L#	c #62E0EF",
"M#	c #63E1EF",
"N#	c #65E1EF",
"O#	c #67DFED",
"P#	c #6BDFEC",
"Q#	c #75DFED",
"R#	c #7FE3F0",
"S#	c #8FE6F1",
"T#	c #A1E9F3",
"U#	c #3AC1CF",
"V#	c #33C1CE",
"W#	c #35C5D1",
"X#	c #3ACAD6",
"Y#	c #3FCEDA",
"Z#	c #44D1DE",
"`#	c #46D2DF",
" $	c #49D2E0",
".$	c #4BD3E1",
"+$	c #4DD4E2",
"@$	c #52D8E6",
"#$	c #5ADAE9",
"$$	c #5DDDEB",
"%$	c #5FDDEB",
"&$	c #62DCEA",
"*$	c #67DCEA",
"=$	c #6FDDEA",
"-$	c #79DFEC",
";$	c #86E1ED",
">$	c #95E4F0",
",$	c #A9EAF1",
"'$	c #49C3D0",
")$	c #38C0CE",
"!$	c #31C0CE",
"~$	c #33C4D1",
"{$	c #37C8D4",
"]$	c #3BC9D6",
"^$	c #3ECCD9",
"/$	c #41CDDA",
"($	c #45CEDB",
"_$	c #48D0DE",
":$	c #4DD2E0",
"<$	c #4FD6E4",
"[$	c #54D5E3",
"}$	c #57D7E6",
"|$	c #5BD8E7",
"1$	c #61D7E6",
"2$	c #68D9E7",
"3$	c #72DBE8",
"4$	c #7DDDEA",
"5$	c #8AE0EC",
"6$	c #9EE4EF",
"7$	c #64CAD5",
"8$	c #4AC3D0",
"9$	c #39BFCD",
"0$	c #32BFCE",
"a$	c #33C1D0",
"b$	c #36C3D2",
"c$	c #3AC6D5",
"d$	c #3DC8D7",
"e$	c #40CAD8",
"f$	c #49CEDD",
"g$	c #4DD0DF",
"h$	c #50D1E1",
"i$	c #55D1E1",
"j$	c #5DD2E2",
"k$	c #6CD5E3",
"l$	c #76D9E6",
"m$	c #85DAE7",
"n$	c #50C4D1",
"o$	c #3EBFCF",
"p$	c #37BECD",
"q$	c #34BFCF",
"r$	c #37C2D1",
"s$	c #3AC3D3",
"t$	c #3DC6D5",
"u$	c #43C7D7",
"v$	c #46C9D9",
"w$	c #4ACADA",
"x$	c #4ECADB",
"y$	c #55CCDC",
"z$	c #5CCFDD",
"A$	c #65D0DE",
"B$	c #72D4E1",
"C$	c #82D8E3",
"D$	c #4AC3D1",
"E$	c #41C1D0",
"F$	c #3BBFCF",
"G$	c #3BC0D0",
"H$	c #3FC3D3",
"I$	c #43C4D4",
"J$	c #47C6D5",
"K$	c #4BC7D7",
"L$	c #52C7D8",
"M$	c #5ACADA",
"N$	c #65CDDB",
"O$	c #75D3DF",
"P$	c #49C3D3",
"Q$	c #4AC4D4",
"R$	c #4DC4D4",
"S$	c #52C7D5",
"T$	c #56C8D7",
"                                                                            ",
"                                                                            ",
"                                . + @ # $ % &                               ",
"                          * = - ; > , ' ) ! ~ { ] ^                         ",
"                      / ( _ : < [ } | 1 2 3 4 5 6 7 8                       ",
"                    9 0 a b c d e f g h i j k l m n o p                     ",
"                q r s t u v w x y z A B C D E F G H I { 4                   ",
"                J K L M N O P Q R S T U V W X Y Z ` l p ! 4                 ",
"               ...+.@.#.$.%.&.*.=.-.;.>.,.'.).!.~.{.].^.p ) /.              ",
"            (._.:.<.[.}.|.1.2.3.4.5.6.7.8.9.0.a.b.c.d.e.l 8 ~               ",
"            f.g.h.i.j.k.l.m.n.o.p.q.r.s.t.u.v.w.x.y.z.A.B.C.D.n             ",
"            E.F.G.H.I.J.K.L.M.N.O.P.Q.R.S.T.U.V.W.X.Y.Z.`. +/.~             ",
"          .+++@+#+$+%+&+*+=+-+;+N.>+,+'+)+'+!+~+{+]+^+/+(+_+:+<+[+          ",
"          }+|+1+2+3+4+5+6+7+8+=+9+-+0+a+b+c+d+e+f+g+h+i+j+k+l+m+n+          ",
"          o+p+q+r+s+t+u+v+w+7+x+y+z+z+A+B+6+C+D+D+E+F+G+H+I+J+K+L+          ",
"          M+N+O+P+Q+R+S+T+U+w+7+V+W+6+*+v+X+Y+Z+X+`+D+ @.@+@@@#@$@          ",
"          %@&@*@=@-@;@>@,@'@'@v+)@)@)@Y+!@~@{@]@]@^@/@(@_@:@<@[@}@          ",
"          |@1@2@3@4@5@6@7@^@8@9@9@'@0@{@{@a@b@c@d@e@f@f@/@3.g@h@f           ",
"          i@j@k@l@m@n@;@t+e@o@p@q@r@s@t@u@t@t@s@v@w@x@y@q@z@A@B@C@          ",
"          D@E@F@G@H@4@I@J@%+K@s@L@x@M@N@O@O@P@P@Q@R@S@T@y@U@V@W@:           ",
"            X@Y@Z@`@ #r+.#+#@###@#J@$#%#+#&#*#$#=#=#-#R@;#>#,#a '#          ",
"            )#!#~#{#]#^#/#(#_#:#<#[#}#|#1#2#3#4#5#6#7#8#9#0#a#b#c#          ",
"              d#Y@e#f#g#h#i#j#k#k#k#l#m#n#o#p#q#r#s#t#u#v#w#x#y#            ",
"                z#A#B#C#D#E#F#G# #H# #I#J#K#L#M#N#O#P#Q#R#S#T#              ",
"                  U#V#W#X#Y#Z#`# $.$+$@$H##$$$%$&$*$=$-$;$>$,$              ",
"                  '$)$!$~${$]$^$/$($_$:$<$[$}$|$1$2$3$4$5$6$                ",
"                  7$8$9$0$a$b$c$d$e$N+f$g$h$i$j$h.k$l$m$                    ",
"                      n$o$p$q$r$s$t$u$v$w$x$y$z$A$B$C$                      ",
"                          D$E$F$G$H$I$J$K$L$M$N$O$                          ",
"                                P$Q$R$S$T$                                  ",
"                                                                            ",
"                                                                            "};
