/* XPM */
static xpm_row_t const mousecursor_xpm[] = {
"32 32 266 2",
"  	c None",
". 	c #5A5545",
"+ 	c #8B7E5C",
"@ 	c #88784B",
"# 	c #7C6936",
"$ 	c #675422",
"% 	c #3D300E",
"& 	c #6A6966",
"* 	c #F9F0D8",
"= 	c #FCEBBE",
"- 	c #FBE2A0",
"; 	c #FAD982",
"> 	c #F8D164",
", 	c #F6C746",
"' 	c #E3B027",
") 	c #B0840C",
"! 	c #785904",
"~ 	c #402F02",
"{ 	c #565145",
"] 	c #F9F2DF",
"^ 	c #FEFBF3",
"/ 	c #FDF4DC",
"( 	c #D7BB71",
"_ 	c #936C30",
": 	c #F5C546",
"< 	c #F6BE29",
"[ 	c #F1B40F",
"} 	c #D8A008",
"| 	c #A77B06",
"1 	c #624804",
"2 	c #2C2002",
"3 	c #7C7256",
"4 	c #FCEDC4",
"5 	c #FDF6E2",
"6 	c #FDF5DD",
"7 	c #FCEBBF",
"8 	c #F7DF9F",
"9 	c #7B4E33",
"0 	c #9D7C38",
"a 	c #F7C847",
"b 	c #F6BF29",
"c 	c #DAA108",
"d 	c #BC8A07",
"e 	c #9D7406",
"f 	c #694D04",
"g 	c #322502",
"h 	c #786A46",
"i 	c #FBE4A6",
"j 	c #FDF5DE",
"k 	c #FCEBC0",
"l 	c #FAE2A1",
"m 	c #EFD17E",
"n 	c #F9D166",
"o 	c #F7C848",
"p 	c #F6BF2A",
"q 	c #F1B50F",
"r 	c #BC8B07",
"s 	c #9E7506",
"t 	c #805F04",
"u 	c #594103",
"v 	c #261C01",
"w 	c #695A31",
"x 	c #FADB87",
"y 	c #FBE4A5",
"z 	c #FCEDC3",
"A 	c #FDF6E1",
"B 	c #FCECC0",
"C 	c #FBE3A2",
"D 	c #FADA84",
"E 	c #F6BF2B",
"F 	c #F2B510",
"G 	c #B58607",
"H 	c #896505",
"I 	c #6A4F04",
"J 	c #564003",
"K 	c #3B2C02",
"L 	c #140F01",
"M 	c #4D401C",
"N 	c #F9D269",
"O 	c #D3B973",
"P 	c #F5DFA2",
"Q 	c #FCECC3",
"R 	c #FDF5DF",
"S 	c #FCECC1",
"T 	c #FBE3A3",
"U 	c #FADA85",
"V 	c #F8D167",
"W 	c #C9A33A",
"X 	c #705611",
"Y 	c #2B2002",
"Z 	c #050400",
"` 	c #000000",
" .	c #040300",
"..	c #0D0A00",
"+.	c #070500",
"@.	c #F3C549",
"#.	c #9B7536",
"$.	c #72432D",
"%.	c #F8E1A2",
"&.	c #FCECC2",
"*.	c #FDF6E0",
"=.	c #FCEDC1",
"-.	c #D4C089",
";.	c #4B4126",
">.	c #020201",
",.	c #D8A928",
"'.	c #F7C749",
").	c #A5853E",
"!.	c #EDCF7F",
"~.	c #9B9588",
"{.	c #0B0A09",
"].	c #272727",
"^.	c #5B5B5B",
"/.	c #010101",
"(.	c #AB800E",
"_.	c #F7C849",
":.	c #F9D167",
"<.	c #837F73",
"[.	c #020202",
"}.	c #565656",
"|.	c #CFCFCF",
"1.	c #030303",
"2.	c #0B0B0B",
"3.	c #151515",
"4.	c #1A1A1A",
"5.	c #141414",
"6.	c #090909",
"7.	c #7C5B05",
"8.	c #F2B410",
"9.	c #978961",
"0.	c #020101",
"a.	c #313131",
"b.	c #848484",
"c.	c #111111",
"d.	c #080808",
"e.	c #2C2C2C",
"f.	c #383838",
"g.	c #3E3E3E",
"h.	c #3D3D3D",
"i.	c #363636",
"j.	c #2A2A2A",
"k.	c #4C3803",
"l.	c #F1B410",
"m.	c #D0AE54",
"n.	c #0B0906",
"o.	c #070707",
"p.	c #202020",
"q.	c #4C4C4C",
"r.	c #5A5A5A",
"s.	c #616161",
"t.	c #585858",
"u.	c #494949",
"v.	c #343434",
"w.	c #0E0E0E",
"x.	c #B68607",
"y.	c #D9A008",
"z.	c #463913",
"A.	c #373737",
"B.	c #525252",
"C.	c #6A6A6A",
"D.	c #7B7B7B",
"E.	c #858585",
"F.	c #7A7A7A",
"G.	c #676767",
"H.	c #4F4F4F",
"I.	c #2E2E2E",
"J.	c #7B5B04",
"K.	c #BB8A07",
"L.	c #BF8F0B",
"M.	c #020200",
"N.	c #7F7F7F",
"O.	c #0A0A0A",
"P.	c #4B4B4B",
"Q.	c #696969",
"R.	c #9B9B9B",
"S.	c #A8A8A8",
"T.	c #A7A7A7",
"U.	c #999999",
"V.	c #818181",
"W.	c #656565",
"X.	c #464646",
"Y.	c #171717",
"Z.	c #493603",
"`.	c #9C7406",
" +	c #BA8907",
".+	c #5C4403",
"++	c #515151",
"@+	c #B1B1B1",
"#+	c #131313",
"$+	c #9A9A9A",
"%+	c #B7B7B7",
"&+	c #CBCBCB",
"*+	c #C9C9C9",
"=+	c #B4B4B4",
"-+	c #969696",
";+	c #767676",
">+	c #545454",
",+	c #292929",
"'+	c #211801",
")+	c #7E5D04",
"!+	c #9B7305",
"~+	c #1C1501",
"{+	c #B0B0B0",
"]+	c #181818",
"^+	c #3C3C3C",
"/+	c #5F5F5F",
"(+	c #838383",
"_+	c #A6A6A6",
":+	c #E8E8E8",
"<+	c #E4E4E4",
"[+	c #C4C4C4",
"}+	c #A1A1A1",
"|+	c #7E7E7E",
"1+	c #543E03",
"2+	c #765704",
"3+	c #030200",
"4+	c #3B3B3B",
"5+	c #5E5E5E",
"6+	c #A4A4A4",
"7+	c #C5C5C5",
"8+	c #E0E0E0",
"9+	c #DEDEDE",
"0+	c #C1C1C1",
"a+	c #9F9F9F",
"b+	c #7C7C7C",
"c+	c #595959",
"d+	c #0C0C0C",
"e+	c #281D01",
"f+	c #4F3A03",
"g+	c #333333",
"h+	c #555555",
"i+	c #959595",
"j+	c #AFAFAF",
"k+	c #C0C0C0",
"l+	c #BFBFBF",
"m+	c #ACACAC",
"n+	c #919191",
"o+	c #717171",
"p+	c #505050",
"q+	c #0E0A00",
"r+	c #262626",
"s+	c #454545",
"t+	c #636363",
"u+	c #7D7D7D",
"v+	c #929292",
"w+	c #9E9E9E",
"x+	c #9D9D9D",
"y+	c #909090",
"z+	c #414141",
"A+	c #212121",
"B+	c #050505",
"C+	c #161001",
"D+	c #727272",
"E+	c #707070",
"F+	c #474747",
"G+	c #2D2D2D",
"H+	c #101010",
"I+	c #060400",
"J+	c #040404",
"K+	c #2F2F2F",
"L+	c #424242",
"M+	c #575757",
"N+	c #4E4E4E",
"O+	c #404040",
"P+	c #222222",
"Q+	c #0F0F0F",
"                                                                ",
"      . + @ # $ %                                               ",
"    & * = - ; > , ' ) ! ~                                       ",
"  { ] ^ / = - ( _ : < [ } | 1 2                                 ",
"  3 4 5 ^ 6 7 8 9 0 a b [ c d e f g                             ",
"  h i 4 5 ^ j k l m n o p q c r s t u v                         ",
"  w x y z A ^ j B C D n o E F c G H I J K L                     ",
"  M N O P Q A ^ R S T U V W X Y Z ` ` `  ...+.`                 ",
"    @.#.$.%.&.*.^ R =.-.;.>.` ` ` ` ` ` ` ` ` ` `               ",
"    ,.'.).!.T S R ^ ~.{.` ` ` ].^.` ` ` ` ` ` /./.`             ",
"    (.E _.:.U T B <.[.` ` ` }.|.].` ` ` 1.2.3.4.4.5.6.          ",
"    7.8.p o n D 9.0.` ` ` a.b.c.` ` ` d.4.e.f.g.h.i.j.c.        ",
"    k.c l.p o m.n.` ` ` ` ` ` ` ` ` o.p.f.q.r.s.s.t.u.v.w.      ",
"      x.y.[ < z.` ` [.5.` ` ` ` ` [.4.A.B.C.D.E.b.F.G.H.I.      ",
"      J.K.y.L.M.` ` N.B.` ` ` ` ` O.j.P.Q.E.R.S.T.U.V.W.X.Y.    ",
"      Z.`. +.+` ` ++@+1.` ` ` ` ` #+i.t.F.$+%+&+*+=+-+;+>+,+    ",
"      '+)+!+~+` #+{+#+` ` ` ` ` /.]+^+/+(+_+*+:+<+[+}+|+r.i.    ",
"        1+2+3+` [.[.` ` ` ` ` ` /.Y.4+5+V.6+7+8+9+0+a+b+c+i.d+  ",
"        e+f+` ` ` ` ` ` ` ` ` ` ` c.g+h+;+i+j+k+l+m+n+o+p+I.2.  ",
"        q+g ` ` ` ` ` ` ` ` ` ` ` d.r+s+t+u+v+w+x+y+F./+z+A+B+  ",
"          C+` ` ` ` ` ` ` ` ` ` ` /.5.a.P.s.D+F.F.E+5+F+G+H+`   ",
"          I+` ` ` ` ` ` ` ` ` ` ` ` J+]+K+L+p+M+}.N+O+e.3.[.`   ",
"            ` ` ` ` ` ` ` ` ` ` ` ` ` 1.c.P+G+g+g+e.p.Q+[.`     ",
"            ` ` ` ` ` ` ` ` ` ` ` ` ` ` ` B+2.H+Q+O.J+` ` `     ",
"              ` ` ` ` ` ` ` ` ` ` ` ` ` ` ` ` ` ` ` ` ` ` `     ",
"              ` ` ` ` ` ` ` ` ` ` ` ` ` ` ` ` ` ` ` ` ` `       ",
"                ` ` ` ` ` ` ` ` ` ` ` ` ` ` ` ` ` ` ` ` `       ",
"                  ` ` ` ` ` ` ` ` ` ` ` ` ` ` ` ` ` ` `         ",
"                    ` ` ` ` ` ` ` ` ` ` ` ` ` ` ` ` `           ",
"                      ` ` ` ` ` ` ` ` ` ` ` ` ` ` `             ",
"                          ` ` ` ` ` ` ` ` ` ` `                 ",
"                                ` ` ` ` `                       "};
