/* XPM */
static xpm_row_t const mousecursor_click_xpm[] = {
"32 32 340 2",
"  	c None",
". 	c #564A28",
"+ 	c #AC8E3D",
"@ 	c #C49C2F",
"# 	c #C19318",
"$ 	c #A77C07",
"% 	c #7D5D05",
"& 	c #5A4203",
"* 	c #2C2102",
"= 	c #5C533C",
"- 	c #F3D68B",
"; 	c #F9D472",
"> 	c #F8CC55",
", 	c #F7C338",
"' 	c #F5BA1C",
") 	c #E9AD0A",
"! 	c #CE9808",
"~ 	c #B08206",
"{ 	c #856205",
"] 	c #4F3A03",
"^ 	c #281D01",
"/ 	c #4D4225",
"( 	c #F3D78B",
"_ 	c #FBE3A2",
": 	c #FADD8F",
"< 	c #F9D572",
"[ 	c #F8CC56",
"} 	c #F7C439",
"| 	c #F5BB1C",
"1 	c #CE9807",
"2 	c #926C05",
"3 	c #775804",
"4 	c #533E03",
"5 	c #0C0900",
"6 	c #7F6A2F",
"7 	c #FADD8E",
"8 	c #FADE90",
"9 	c #F9D26B",
"0 	c #F1BF37",
"a 	c #DBA514",
"b 	c #C99508",
"c 	c #B48507",
"d 	c #9C7306",
"e 	c #876405",
"f 	c #765704",
"g 	c #634A03",
"h 	c #4D3902",
"i 	c #352702",
"j 	c #161001",
"k 	c #050300",
"l 	c #836821",
"m 	c #F8CB54",
"n 	c #F9D471",
"o 	c #D6BE80",
"p 	c #A66F36",
"q 	c #905217",
"r 	c #7E4D08",
"s 	c #7C5A04",
"t 	c #876305",
"u 	c #7C5B04",
"v 	c #6E5104",
"w 	c #574003",
"x 	c #342602",
"y 	c #2D2101",
"z 	c #2B2001",
"A 	c #1F1701",
"B 	c #0E0B00",
"C 	c #010100",
"D 	c #000000",
"E 	c #7C5F12",
"F 	c #F7C337",
"G 	c #F8CB53",
"H 	c #F9D470",
"I 	c #AA8249",
"J 	c #EC8484",
"K 	c #EA6767",
"L 	c #E53939",
"M 	c #BF0D0D",
"N 	c #740300",
"O 	c #431502",
"P 	c #3C2D06",
"Q 	c #7F600B",
"R 	c #BB8A07",
"S 	c #6F5204",
"T 	c #1A1301",
"U 	c #664C05",
"V 	c #F5BA1A",
"W 	c #F7C336",
"X 	c #AA802D",
"Y 	c #E86565",
"Z 	c #EA7878",
"` 	c #C92C2C",
" .	c #750E0E",
"..	c #3C140F",
"+.	c #897442",
"@.	c #ECC150",
"#.	c #F6C131",
"$.	c #F2B512",
"%.	c #D89F08",
"&.	c #B58607",
"*.	c #936D05",
"=.	c #5F4603",
"-.	c #020200",
";.	c #413002",
">.	c #E7AB09",
",.	c #F5BA19",
"'.	c #F7C234",
").	c #BB8C0D",
"!.	c #C53434",
"~.	c #C22828",
"{.	c #541616",
"].	c #8D877C",
"^.	c #EFDFB3",
"/.	c #FBE099",
"(.	c #F9D677",
"_.	c #F8CC54",
":.	c #F6C132",
"<.	c #F2B613",
"[.	c #D9A008",
"}.	c #B68707",
"|.	c #3E2E02",
"1.	c #C59207",
"2.	c #F2B614",
"3.	c #CA9507",
"4.	c #921A0D",
"5.	c #7B0F0F",
"6.	c #999283",
"7.	c #FEFAF1",
"8.	c #FDF5E0",
"9.	c #FCEBBD",
"0.	c #FBE09A",
"a.	c #F9D678",
"b.	c #F6C133",
"c.	c #D19B08",
"d.	c #0D0A00",
"e.	c #DAA108",
"f.	c #B78707",
"g.	c #6D2D02",
"h.	c #430E0A",
"i.	c #EEDCAA",
"j.	c #FDF2D6",
"k.	c #FEFBF1",
"l.	c #FCEBBE",
"m.	c #FBE19B",
"n.	c #B29657",
"o.	c #916525",
"p.	c #F7C233",
"q.	c #A27A0F",
"r.	c #604703",
"s.	c #AC7F06",
"t.	c #BE8C07",
"u.	c #A27806",
"v.	c #634603",
"w.	c #69512C",
"x.	c #FADD90",
"y.	c #FCE8B2",
"z.	c #FDF2D5",
"A.	c #FDF6E1",
"B.	c #F7DD9A",
"C.	c #D9BB6A",
"D.	c #F7CC56",
"E.	c #40330F",
"F.	c #3B2C02",
"G.	c #8F6A05",
"H.	c #A37906",
"I.	c #8D6805",
"J.	c #584103",
"K.	c #B29138",
"L.	c #F9D36C",
"M.	c #FCE7B2",
"N.	c #FDF2D4",
"O.	c #FEFAF0",
"P.	c #FDF6E2",
"Q.	c #FCECBF",
"R.	c #FBE19D",
"S.	c #B89E5B",
"T.	c #1B1401",
"U.	c #715404",
"V.	c #8B6705",
"W.	c #7C5C04",
"X.	c #3F2F03",
"Y.	c #EFB926",
"Z.	c #F7C849",
"`.	c #FBE7B1",
" +	c #EEDEB5",
".+	c #262218",
"++	c #050505",
"@+	c #525252",
"#+	c #5F5F5F",
"$+	c #121212",
"%+	c #060606",
"&+	c #0E0E0E",
"*+	c #0F0F0F",
"=+	c #080808",
"-+	c #4B3802",
";+	c #644A03",
">+	c #543E03",
",+	c #ECAF0C",
"'+	c #F6BE26",
")+	c #F7C848",
"!+	c #AA8A49",
"~+	c #F0D489",
"{+	c #FBE7B0",
"]+	c #FDF1D3",
"^+	c #F8F4EA",
"/+	c #4D4B45",
"(+	c #020202",
"_+	c #AEAEAE",
":+	c #848484",
"<+	c #777777",
"[+	c #D0D0D0",
"}+	c #303030",
"|+	c #353535",
"1+	c #3A3A3A",
"2+	c #373737",
"3+	c #2C2C2C",
"4+	c #261C01",
"5+	c #513C03",
"6+	c #4A3702",
"7+	c #5B4303",
"8+	c #CC9707",
"9+	c #EBAF0C",
"0+	c #F6BE25",
"a+	c #A37525",
"b+	c #D2B15A",
"c+	c #FADD8D",
"d+	c #EFDBA7",
"e+	c #4F4C42",
"f+	c #959595",
"g+	c #2D2D2D",
"h+	c #ADADAD",
"i+	c #818181",
"j+	c #5B5B5B",
"k+	c #626262",
"l+	c #5E5E5E",
"m+	c #515151",
"n+	c #0F0B00",
"o+	c #342702",
"p+	c #2E2201",
"q+	c #5D4503",
"r+	c #A97D06",
"s+	c #CB9607",
"t+	c #EBAE0C",
"u+	c #F6BD24",
"v+	c #F7C747",
"w+	c #BDA051",
"x+	c #292417",
"y+	c #2B2B2B",
"z+	c #989898",
"A+	c #1E1E1E",
"B+	c #9B9B9B",
"C+	c #878787",
"D+	c #8A8A8A",
"E+	c #858585",
"F+	c #747474",
"G+	c #1B1B1B",
"H+	c #181200",
"I+	c #A87C06",
"J+	c #C29007",
"K+	c #A07709",
"L+	c #44350C",
"M+	c #020101",
"N+	c #010101",
"O+	c #9E9E9E",
"P+	c #8D8D8D",
"Q+	c #808080",
"R+	c #C5C5C5",
"S+	c #A5A5A5",
"T+	c #B2B2B2",
"U+	c #AAAAAA",
"V+	c #939393",
"W+	c #313131",
"X+	c #030200",
"Y+	c #0B0800",
"Z+	c #362802",
"`+	c #453302",
" @	c #2E2202",
".@	c #090700",
"+@	c #070707",
"@@	c #4D4D4D",
"#@	c #6A6A6A",
"$@	c #666666",
"%@	c #A1A1A1",
"&@	c #C3C3C3",
"*@	c #D8D8D8",
"=@	c #CBCBCB",
"-@	c #ABABAB",
";@	c #414141",
">@	c #010000",
",@	c #050400",
"'@	c #090909",
")@	c #2F2F2F",
"!@	c #585858",
"~@	c #A8A8A8",
"{@	c #CFCFCF",
"]@	c #EEEEEE",
"^@	c #D9D9D9",
"/@	c #8B8B8B",
"(@	c #474747",
"_@	c #0B0B0B",
":@	c #BDBDBD",
"<@	c #8E8E8E",
"[@	c #0D0D0D",
"}@	c #787878",
"|@	c #9D9D9D",
"1@	c #C4C4C4",
"2@	c #A6A6A6",
"3@	c #828282",
"4@	c #3F3F3F",
"5@	c #949494",
"6@	c #6D6D6D",
"7@	c #979797",
"8@	c #1F1F1F",
"9@	c #434343",
"0@	c #A2A2A2",
"a@	c #8C8C8C",
"b@	c #6F6F6F",
"c@	c #BCBCBC",
"d@	c #CACACA",
"e@	c #2E2E2E",
"f@	c #4C4C4C",
"g@	c #7C7C7C",
"h@	c #6C6C6C",
"i@	c #545454",
"j@	c #181818",
"k@	c #A3A3A3",
"l@	c #3E3E3E",
"m@	c #030303",
"n@	c #595959",
"o@	c #A7A7A7",
"p@	c #141414",
"q@	c #444444",
"r@	c #555555",
"s@	c #484848",
"t@	c #161616",
"u@	c #BFBFBF",
"v@	c #191919",
"w@	c #232323",
"x@	c #0A0A0A",
"y@	c #040404",
"                                                                ",
"      . + @ # $ % & *                                           ",
"    = - ; > , ' ) ! ~ { ] ^                                     ",
"  / ( _ : < [ } | ) 1 ~ 2 3 4 ^ 5                               ",
"  6 ; 7 _ 8 9 0 a b c d e f g h i j k                           ",
"  l m n 7 o p q r s t u v w x y z A B C D                       ",
"  E F G H I J K L M N O P Q R c 2 S h T D D                     ",
"  U V W G X Y Z `  ...+.@.#.$.%.&.*.=.-.D D D D                 ",
"  ;.>.,.'.).!.~.{.].^./.(._.:.<.[.}.|.D D D D D D               ",
"    1.>.2.3.4.5.6.7.8.9.0.a.> b.<.c.d.D D D D D D D             ",
"    2 3.e.f.g.h.i.j.k.8.l.m.n.o.p.q.D D D D D D D D D           ",
"    r.s.t.u.v.w.x.y.z.7.A.l.B.C.D.E.D D D D D D D D D D         ",
"    F.G.H.I.J.K.L.: M.N.O.P.Q.R.S.C D D D D D D D D D D D       ",
"    T.U.V.W.X.Y.Z.L.7 `.N.O.P. +.+D D D ++@+#+$+%+&+$+*+=+      ",
"      -+S ;+>+,+'+)+!+~+{+]+^+/+D D D (+_+:+<+[+}+|+1+2+3+$+    ",
"      4+5+6+7+8+9+0+a+b+c+d+e+D D D D }+f+$+g+h+i+j+k+l+m+2+    ",
"      n+o+p+q+r+s+t+u+v+w+x+D D D D D y+z+*+A+B+C+i+D+E+F+j+G+  ",
"        H+T.] { I+J+K+L+M+D D D D D D N+O+P+Q+R+F+S+T+U+V+F+W+  ",
"        X+Y+Z+`+ @.@D D D D D D D D D D +@@@#@$@%@&@*@=@-@E+;@  ",
"        D >@,@D D D D D D D D D D D D D '@)@!@Q+~@{@]@^@T+/@(@  ",
"          D D D D D D D D _@P+:@<@[@D D +@y+@+}@|@:@[+1@2@3@4@  ",
"          D D D D D D D D 5@j+%+6@7@D D (+8@9@$@E+|@~@0@a@b@)@  ",
"            D D D D D D D c@3+A+D+d@D D D [@e@f@$@}@Q+g@h@i@j@  ",
"            D D D D D D D k@l@m@n@o@D D D N+p@e@q@@+!@r@s@)@    ",
"              D D D D D D t@-@u@h+v@D D D D N+&+8@y+}+g+w@[@    ",
"              D D D D D D D D N+D D D D D D D D (++@x@=+y@      ",
"                D D D D D D D D D D D D D D D D D D D D D       ",
"                  D D D D D D D D D D D D D D D D D D D         ",
"                    D D D D D D D D D D D D D D D D D           ",
"                      D D D D D D D D D D D D D D D             ",
"                          D D D D D D D D D D D                 ",
"                                D D D D D D                     "};
