/* XPM */
static xpm_row_t const mousecursor_link_xpm[] = {
"32 32 401 2",
"  	c None",
". 	c #E48181",
"+ 	c #EDA5A5",
"@ 	c #F3B5B4",
"# 	c #F2ADAC",
"$ 	c #EE9F9F",
"% 	c #EC9796",
"& 	c #EA8E8D",
"* 	c #E68180",
"= 	c #E38181",
"- 	c #F6C9C9",
"; 	c #FDF1F1",
"> 	c #FCE8E6",
", 	c #FCDFDC",
"' 	c #FBD8D5",
") 	c #FBD1CF",
"! 	c #FACBCA",
"~ 	c #FAC4C4",
"{ 	c #F8B4B4",
"] 	c #F19696",
"^ 	c #EA8584",
"/ 	c #E77E7E",
"( 	c #EDA4A4",
"_ 	c #FDF3F2",
": 	c #FDF8F5",
"< 	c #FDF2E2",
"[ 	c #FBE9C7",
"} 	c #FADFB0",
"| 	c #D5AC7E",
"1 	c #9A584E",
"2 	c #F3B991",
"3 	c #F8B69C",
"4 	c #F9B3A8",
"5 	c #F9B2AF",
"6 	c #F8ADAD",
"7 	c #F49696",
"8 	c #EA7E7D",
"9 	c #E67B7B",
"0 	c #EEA8A8",
"a 	c #FCEAE9",
"b 	c #FDF2E4",
"c 	c #FFFBF3",
"d 	c #FEF6E0",
"e 	c #FDEEC3",
"f 	c #FBE5A5",
"g 	c #997346",
"h 	c #AF8F40",
"i 	c #F7C952",
"j 	c #F6BA44",
"k 	c #F5AA49",
"l 	c #F29D68",
"m 	c #F39C8C",
"n 	c #F6A29F",
"o 	c #F79E9D",
"p 	c #EF8282",
"q 	c #E77777",
"r 	c #EEA1A0",
"s 	c #FCE1E0",
"t 	c #FBE7CC",
"u 	c #FEF6DE",
"v 	c #FEF7E2",
"w 	c #FDEEC4",
"x 	c #FCE6A7",
"y 	c #FBDE89",
"z 	c #FAD66B",
"A 	c #F8CE4E",
"B 	c #F7C530",
"C 	c #F4BA17",
"D 	c #E5A318",
"E 	c #DB8B38",
"F 	c #E58667",
"G 	c #F2928D",
"H 	c #F69897",
"I 	c #F08181",
"J 	c #E77575",
"K 	c #EB9797",
"L 	c #FBD9D8",
"M 	c #FADCB7",
"N 	c #FCEDBF",
"O 	c #FEF5DD",
"P 	c #FEF7E3",
"Q 	c #FDEFC6",
"R 	c #FCE7A8",
"S 	c #FBDF8B",
"T 	c #FAD66D",
"U 	c #F8CE4F",
"V 	c #F7C631",
"W 	c #F4BD15",
"X 	c #C99908",
"Y 	c #8B660B",
"Z 	c #7B4821",
"` 	c #A65750",
" .	c #E57776",
"..	c #F58A8A",
"+.	c #EE7878",
"@.	c #E47676",
"#.	c #EA9190",
"$.	c #FBD2D2",
"%.	c #C58E74",
"&.	c #E8D394",
"*.	c #FDEDBD",
"=.	c #FEF5DB",
"-.	c #FFFBF2",
";.	c #FEF7E5",
">.	c #FDEFC7",
",.	c #FCE7AA",
"'.	c #FBDF8C",
").	c #E7C663",
"!.	c #856D24",
"~.	c #2B2106",
"{.	c #020100",
"].	c #000000",
"^.	c #050404",
"/.	c #351919",
"(.	c #A34141",
"_.	c #EB6D6D",
":.	c #F47C7C",
"<.	c #E86C6C",
"[.	c #E88585",
"}.	c #FACBCB",
"|.	c #C68979",
"1.	c #63381F",
"2.	c #FBE49D",
"3.	c #FDECBC",
"4.	c #FEF4D9",
"5.	c #FEF8E6",
"6.	c #FBEDC4",
"7.	c #8E8056",
"8.	c #110E06",
"9.	c #030303",
"0.	c #090606",
"a.	c #502222",
"b.	c #C85353",
"c.	c #F37979",
"d.	c #EE7070",
"e.	c #E57B7B",
"f.	c #E27A7A",
"g.	c #F9C0C0",
"h.	c #F9BDA3",
"i.	c #E0B956",
"j.	c #FADB7F",
"k.	c #FDECBA",
"l.	c #FDF4D8",
"m.	c #F0EADA",
"n.	c #494435",
"o.	c #525252",
"p.	c #1F1F1F",
"q.	c #010101",
"r.	c #1F1212",
"s.	c #963D3D",
"t.	c #ED7272",
"u.	c #F27878",
"v.	c #E57373",
"w.	c #F6A8A8",
"x.	c #F9B7A9",
"y.	c #F7C251",
"z.	c #F9D360",
"A.	c #FADB7E",
"B.	c #FBE39B",
"C.	c #EEDCA6",
"D.	c #322E22",
"E.	c #0C0C0C",
"F.	c #696969",
"G.	c #191919",
"H.	c #070707",
"I.	c #141414",
"J.	c #202020",
"K.	c #2E2929",
"L.	c #834242",
"M.	c #E87777",
"N.	c #F48484",
"O.	c #E57171",
"P.	c #EE8D8D",
"Q.	c #F9B4AE",
"R.	c #F5B348",
"S.	c #F8CA41",
"T.	c #F9D35E",
"U.	c #F7D779",
"V.	c #443B22",
"W.	c #0E0E0E",
"X.	c #242424",
"Y.	c #363636",
"Z.	c #434343",
"`.	c #4A4A4A",
" +	c #4D4B4B",
".+	c #8C5353",
"++	c #E98282",
"@+	c #F48989",
"#+	c #E37676",
"$+	c #EA8382",
"%+	c #F9B1AF",
"&+	c #F3A450",
"*+	c #F6C122",
"=+	c #F8CA3F",
"-+	c #8A732D",
";+	c #272727",
">+	c #404040",
",+	c #555555",
"'+	c #656565",
")+	c #6E6E6E",
"!+	c #696666",
"~+	c #A26464",
"{+	c #F19292",
"]+	c #E57B7A",
"^+	c #F8ABAA",
"/+	c #EF976C",
"(+	c #EDB20F",
"_+	c #E4B21C",
":+	c #0E0B02",
"<+	c #212121",
"[+	c #1B1B1B",
"}+	c #040404",
"|+	c #3E3E3E",
"1+	c #5A5A5A",
"2+	c #737373",
"3+	c #878787",
"4+	c #929292",
"5+	c #888888",
"6+	c #7D7474",
"7+	c #CA7979",
"8+	c #F69B9B",
"9+	c #E87575",
"0+	c #F19687",
"a+	c #D69716",
"b+	c #7A5D05",
"c+	c #151515",
"d+	c #787878",
"e+	c #0D0D0D",
"f+	c #2E2E2E",
"g+	c #4F4F4F",
"h+	c #6F6F6F",
"i+	c #8C8C8C",
"j+	c #A5A5A5",
"k+	c #B5B5B5",
"l+	c #B6B6B6",
"m+	c #A7A7A7",
"n+	c #8E8E8E",
"o+	c #967373",
"p+	c #EC9292",
"q+	c #F28787",
"r+	c #EC7D7D",
"s+	c #F59A96",
"t+	c #CA7F2B",
"u+	c #251C01",
"v+	c #7C7C7C",
"w+	c #0A0A0A",
"x+	c #373737",
"y+	c #9E9E9E",
"z+	c #BEBEBE",
"A+	c #D7D7D7",
"B+	c #D8D8D8",
"C+	c #C0C0C0",
"D+	c #A0A0A0",
"E+	c #847E7E",
"F+	c #CD7C7C",
"G+	c #F69999",
"H+	c #E57676",
"I+	c #E67878",
"J+	c #F69A9A",
"K+	c #C86F4E",
"L+	c #050402",
"M+	c #111111",
"N+	c #171717",
"O+	c #3A3A3A",
"P+	c #5D5D5D",
"Q+	c #818181",
"R+	c #A4A4A4",
"S+	c #C7C7C7",
"T+	c #E8E8E8",
"U+	c #E9E9E9",
"V+	c #C9C9C9",
"W+	c #A6A6A6",
"X+	c #838383",
"Y+	c #AD6E6E",
"Z+	c #F59898",
"`+	c #E87676",
" @	c #F48B8A",
".@	c #D7726D",
"+@	c #150D0D",
"@@	c #131313",
"#@	c #595959",
"$@	c #7A7A7A",
"%@	c #9B9B9B",
"&@	c #BABABA",
"*@	c #D1D1D1",
"=@	c #D2D2D2",
"-@	c #BCBCBC",
";@	c #7D7D7D",
">@	c #926262",
",@	c #F28F8F",
"'@	c #E97272",
")@	c #EA7474",
"!@	c #F18180",
"~@	c #542323",
"{@	c #0B0B0B",
"]@	c #2C2C2C",
"^@	c #4C4C4C",
"/@	c #6B6B6B",
"(@	c #AFAFAF",
"_@	c #A1A1A1",
":@	c #8A8A8A",
"<@	c #6D6D6D",
"[@	c #7B5555",
"}@	c #EF8585",
"|@	c #EB7171",
"1@	c #F58585",
"2@	c #AC4545",
"3@	c #1C1C1C",
"4@	c #808080",
"5@	c #8B8B8B",
"6@	c #575757",
"7@	c #6D4646",
"8@	c #EE7D7D",
"9@	c #EE7373",
"0@	c #E86969",
"a@	c #3C1B1B",
"b@	c #090909",
"c@	c #232323",
"d@	c #3B3B3B",
"e@	c #505050",
"f@	c #5F5F5F",
"g@	c #676767",
"h@	c #606060",
"i@	c #515151",
"j@	c #3D3C3C",
"k@	c #6A3939",
"l@	c #F07878",
"m@	c #E86A6A",
"n@	c #E67171",
"o@	c #A14040",
"p@	c #070505",
"q@	c #1E1E1E",
"r@	c #2F2F2F",
"s@	c #3C3C3C",
"t@	c #3D3D3D",
"u@	c #303030",
"v@	c #7C3535",
"w@	c #F37A7A",
"x@	c #E66E6E",
"y@	c #EF7171",
"z@	c #441E1E",
"A@	c #0F0F0F",
"B@	c #0F0C0C",
"C@	c #B24848",
"D@	c #E37474",
"E@	c #BA4B4B",
"F@	c #130B0B",
"G@	c #020202",
"H@	c #411D1D",
"I@	c #F17575",
"J@	c #7C3131",
"K@	c #110B0B",
"L@	c #B34848",
"M@	c #F07474",
"N@	c #E76969",
"O@	c #542424",
"P@	c #080606",
"Q@	c #7F3333",
"R@	c #EC6E6E",
"S@	c #E47272",
"T@	c #DE6161",
"U@	c #5E2727",
"V@	c #100A0A",
"W@	c #EB6E6E",
"X@	c #F07373",
"Y@	c #E46F6F",
"Z@	c #9C3E3E",
"`@	c #2D1616",
" #	c #010000",
".#	c #3F1C1C",
"+#	c #EF7373",
"@#	c #E78282",
"##	c #E37878",
"$#	c #F47B7B",
"%#	c #E16363",
"&#	c #9C3F3F",
"*#	c #592424",
"=#	c #301717",
"-#	c #1E1111",
";#	c #190F0F",
">#	c #201111",
",#	c #371919",
"'#	c #652828",
")#	c #AC4646",
"!#	c #E77070",
"~#	c #EF7272",
"{#	c #F27676",
"]#	c #EA6A6A",
"^#	c #E16262",
"/#	c #DD6060",
"(#	c #E26363",
"_#	c #EC6D6D",
":#	c #ED6F6F",
"<#	c #E57272",
"[#	c #E47373",
"}#	c #E86F6F",
"|#	c #E96A6A",
"1#	c #ED6E6E",
"2#	c #EE6F6F",
"3#	c #E96B6B",
"4#	c #E37575",
"                                                                ",
"    . + @ # $ % & *                                             ",
"  = - ; > , ' ) ! ~ { ] ^ /                                     ",
"  ( _ : < [ } | 1 2 3 4 5 6 7 8 9                               ",
"  0 a b c d e f g h i j k l m n o p q                           ",
"  r s t u c v w x y z A B C D E F G H I J                       ",
"  K L M N O c P Q R S T U V W X Y Z `  ...+.@.                  ",
"  #.$.%.&.*.=.-.;.>.,.'.).!.~.{.].].^./.(._.:.<.                ",
"  [.}.|.1.2.3.4.-.5.6.7.8.].].].9.].].].0.a.b.c.d.e.            ",
"  f.g.h.i.j.2.k.l.m.n.].].].9.o.p.].].].].q.r.s.t.u.v.          ",
"    w.x.y.z.A.B.C.D.].].].E.F.G.].].].].H.I.J.K.L.M.N.O.        ",
"    P.Q.R.S.T.U.V.].].].].G.q.].].].q.W.X.Y.Z.`. +.+++@+#+      ",
"    $+%+&+*+=+-+].].].].].].].].].].E.;+>+,+'+)+)+!+~+{+I       ",
"    ]+^+/+(+_+:+].].<+[+].].].].].}+p.|+1+2+3+4+4+5+6+7+8+9+    ",
"      7 0+a+b+].].c+d+].].].].].].e+f+g+h+i+j+k+l+m+n+o+p+q+    ",
"      r+s+t+u+].q.v+w+].].].].].].I.x+1+v+y+z+A+B+C+D+E+F+G+H+  ",
"      I+J+K+L+].[+M+].].].].].].].N+O+P+Q+R+S+T+U+V+W+X+Y+Z+`+  ",
"         @.@+@].].].].].].].].].].@@Y.#@$@%@&@*@=@-@y+;@>@,@'@  ",
"        )@!@~@].].].].].].].].].].{@]@^@/@5+D+(@(@_@:@<@[@}@|@  ",
"        H+1@2@0.].].].].].].].].].9.3@O+,+<@4@5@5@Q+h+6@7@8@_.  ",
"          9@0@a@].].].].].].].].].].b@c@d@e@f@g@g@h@i@j@k@l@m@  ",
"          n@:.o@p@].].].].].].].].].].w+q@r@s@Z.Z.t@u@J.v@w@x@  ",
"            y@0@z@].].].].].].].].].].].}+W.G.p.p.G.A@B@C@:.D@  ",
"            O.:.E@F@].].].].].].].].].].].].q.G@G@q.].H@m@d.    ",
"              _.I@J@^.].].].].].].].].].].].].].].].K@L@:.n@    ",
"                M@N@O@G@].].].].].].].].].].].].].P@Q@I@R@      ",
"                S@c.T@U@0.].].].].].].].].].].].V@J@W@X@        ",
"                  Y@u.R@Z@`@^.].].].].].]. #0..#L@M@+#@#        ",
"                    ##d.$#%#&#*#=#-#;#>#,#'#)#m@:.W@            ",
"                        !#~#:.{#]#^#/#(#_#u.:.:#<#              ",
"                            [#}#|#1#2#_#3#!#4#                  ",
"                                                                "};
