/* XPM */
static xpm_row_t const seis_xpm[] = {
"30 30 2 1",
" 	c None",
".	c #000000",
"                              ",
"                              ",
"                              ",
"                              ",
"                              ",
"                              ",
"        ......                ",
"      ..........              ",
"     ...........              ",
"    .....     ..              ",
"    ...                       ",
"   ....                       ",
"   ...                        ",
"  ....                        ",
"  ...   .....                 ",
"  ... .........               ",
"  ..............              ",
"  ......    ....              ",
"  ....       ....             ",
"  ....        ...             ",
"  ....        ...             ",
"   ...        ...             ",
"   ...        ...             ",
"   ...       ....             ",
"    ....    ....              ",
"    ............              ",
"     ..........               ",
"       ......                 ",
"                              ",
"                              "};
