/* XPM */
static xpm_row_t const sete_xpm[] = {
"30 30 2 1",
" 	c None",
".	c #000000",
"                              ",
"                              ",
"                              ",
"                              ",
"                              ",
"                              ",
"  ...............             ",
"  ..............              ",
"  ..............              ",
"             ...              ",
"            ...               ",
"            ...               ",
"            ...               ",
"           ...                ",
"           ...                ",
"          ...                 ",
"          ...                 ",
"          ...                 ",
"         ...                  ",
"         ...                  ",
"        ...                   ",
"        ...                   ",
"        ...                   ",
"       ...                    ",
"       ...                    ",
"      ....                    ",
"      ...                     ",
"      ...                     ",
"                              ",
"                              "};
