/* XPM */
static xpm_row_t const spiky_dead_0_xpm[] = {
"43 42 486 2",
"  	c None",
". 	c #080808",
"+ 	c #646464",
"@ 	c #585858",
"# 	c #101010",
"$ 	c #9C9C9C",
"% 	c #C6C6C6",
"& 	c #7C7C7C",
"* 	c #060606",
"= 	c #000000",
"- 	c #7E7E7E",
"; 	c #CBCBCB",
"> 	c #BDBDBD",
", 	c #858585",
"' 	c #535353",
") 	c #1E1E1E",
"! 	c #141414",
"~ 	c #D5D5D5",
"{ 	c #9F9F9F",
"] 	c #929292",
"^ 	c #747474",
"/ 	c #555555",
"( 	c #272727",
"_ 	c #626262",
": 	c #CFCFCF",
"< 	c #BFBFBF",
"[ 	c #5E5E5E",
"} 	c #676767",
"| 	c #6D6D6D",
"1 	c #373737",
"2 	c #262626",
"3 	c #454545",
"4 	c #030303",
"5 	c #090909",
"6 	c #828282",
"7 	c #DBDBDB",
"8 	c #ADADAD",
"9 	c #515151",
"0 	c #414243",
"a 	c #272929",
"b 	c #353535",
"c 	c #2A2A2A",
"d 	c #282828",
"e 	c #202020",
"f 	c #151515",
"g 	c #131313",
"h 	c #0C0C0C",
"i 	c #171717",
"j 	c #191919",
"k 	c #3F3F3F",
"l 	c #777777",
"m 	c #3B3B3B",
"n 	c #313131",
"o 	c #3A3A3A",
"p 	c #3C3C3C",
"q 	c #4B4B4B",
"r 	c #6C6C6C",
"s 	c #6D6F6F",
"t 	c #363A3C",
"u 	c #181818",
"v 	c #0E0E0E",
"w 	c #020202",
"x 	c #010101",
"y 	c #121212",
"z 	c #616161",
"A 	c #8F8F8F",
"B 	c #161616",
"C 	c #393939",
"D 	c #737373",
"E 	c #838383",
"F 	c #848484",
"G 	c #505050",
"H 	c #494D4F",
"I 	c #111111",
"J 	c #CCCCCC",
"K 	c #C0C0C0",
"L 	c #434343",
"M 	c #2F2F2F",
"N 	c #303030",
"O 	c #ACACAC",
"P 	c #818181",
"Q 	c #939393",
"R 	c #565656",
"S 	c #A5A5A5",
"T 	c #B1B1B1",
"U 	c #7D7D7D",
"V 	c #808080",
"W 	c #888888",
"X 	c #8A8A8A",
"Y 	c #9E9E9E",
"Z 	c #959595",
"` 	c #696969",
" .	c #6A6A6A",
"..	c #656565",
"+.	c #4B4B4C",
"@.	c #4D4D4D",
"#.	c #A6A6A6",
"$.	c #E9E9E9",
"%.	c #7B7B7B",
"&.	c #636363",
"*.	c #848585",
"=.	c #B4B4B4",
"-.	c #B0B0B0",
";.	c #8B8B8B",
">.	c #C9C9C9",
",.	c #B7B7B7",
"'.	c #B3B3B3",
").	c #A8A8A8",
"!.	c #ABABAB",
"~.	c #A2A2A2",
"{.	c #A1A1A1",
"].	c #A4A4A4",
"^.	c #A7A7A7",
"/.	c #252525",
"(.	c #444444",
"_.	c #E2E2E2",
":.	c #DDDDDD",
"<.	c #383838",
"[.	c #5A5A5A",
"}.	c #858687",
"|.	c #B3B4B4",
"1.	c #BBBBBB",
"2.	c #D3D3D3",
"3.	c #D4D4D4",
"4.	c #D0D0D0",
"5.	c #C3C3C3",
"6.	c #B9B9B9",
"7.	c #AAAAAA",
"8.	c #A0A0A0",
"9.	c #9D9D9D",
"0.	c #323232",
"a.	c #DADADA",
"b.	c #E3E3E3",
"c.	c #DEDEDE",
"d.	c #1F1F1F",
"e.	c #4E4E4E",
"f.	c #838485",
"g.	c #B4B5B5",
"h.	c #999999",
"i.	c #404040",
"j.	c #CECECE",
"k.	c #C8C8C8",
"l.	c #CACACA",
"m.	c #C1C1C1",
"n.	c #B8B8B8",
"o.	c #9A9A9A",
"p.	c #606060",
"q.	c #D6D6D6",
"r.	c #D2D2D2",
"s.	c #BEBEBE",
"t.	c #868686",
"u.	c #343434",
"v.	c #040404",
"w.	c #0F0F0F",
"x.	c #1C1C1C",
"y.	c #414141",
"z.	c #525252",
"A.	c #C4C4C4",
"B.	c #D1D1D1",
"C.	c #979797",
"D.	c #8E8E8E",
"E.	c #232323",
"F.	c #C5C5C5",
"G.	c #B6B6B6",
"H.	c #1D1D1D",
"I.	c #242424",
"J.	c #494949",
"K.	c #4F4F4F",
"L.	c #474747",
"M.	c #545454",
"N.	c #D9D9D9",
"O.	c #D7D7D7",
"P.	c #BCBCBC",
"Q.	c #989898",
"R.	c #949494",
"S.	c #969696",
"T.	c #909090",
"U.	c #0B0B0B",
"V.	c #838484",
"W.	c #6B6B6B",
"X.	c #4C4C4C",
"Y.	c #A9A9A9",
"Z.	c #727272",
"`.	c #767676",
" +	c #2B2B2B",
".+	c #5D5D5D",
"++	c #E0E0E0",
"@+	c #686868",
"#+	c #A3A3A3",
"$+	c #9B9B9B",
"%+	c #717171",
"&+	c #2E2E2E",
"*+	c #2D2D2D",
"=+	c #1A1A1A",
"-+	c #C2C2C2",
";+	c #919191",
">+	c #898989",
",+	c #7A7A7A",
"'+	c #575757",
")+	c #464646",
"!+	c #363636",
"~+	c #9D9E9E",
"{+	c #8C8C8C",
"]+	c #7F7F7F",
"^+	c #212121",
"/+	c #5B5B5B",
"(+	c #2F2F30",
"_+	c #595959",
":+	c #878787",
"<+	c #797979",
"[+	c #3D3D3D",
"}+	c #4A4A4A",
"|+	c #5C5C5C",
"1+	c #707070",
"2+	c #6F6F6F",
"3+	c #161617",
"4+	c #787979",
"5+	c #424242",
"6+	c #333333",
"7+	c #8D8D8D",
"8+	c #484848",
"9+	c #B5B5B5",
"0+	c #3E3F40",
"a+	c #414A4E",
"b+	c #8E8F8F",
"c+	c #C7C7C7",
"d+	c #0D0D0D",
"e+	c #2A2A2B",
"f+	c #050505",
"g+	c #41494C",
"h+	c #303131",
"i+	c #4C5458",
"j+	c #7C7D7E",
"k+	c #AFAFAF",
"l+	c #2D2F30",
"m+	c #5F5F5F",
"n+	c #16191A",
"o+	c #101111",
"p+	c #0A0A0A",
"q+	c #3D4548",
"r+	c #7D8183",
"s+	c #757575",
"t+	c #888989",
"u+	c #3A3A3B",
"v+	c #2C2C2C",
"w+	c #343536",
"x+	c #141618",
"y+	c #171A1B",
"z+	c #030405",
"A+	c #333A3D",
"B+	c #797C7E",
"C+	c #757676",
"D+	c #878889",
"E+	c #575B5D",
"F+	c #666666",
"G+	c #202222",
"H+	c #3E4346",
"I+	c #515558",
"J+	c #464B4E",
"K+	c #313B40",
"L+	c #2C2D2E",
"M+	c #313335",
"N+	c #191E20",
"O+	c #182328",
"P+	c #323C42",
"Q+	c #3C4B51",
"R+	c #2A3236",
"S+	c #707578",
"T+	c #686869",
"U+	c #878888",
"V+	c #343535",
"W+	c #C1C1C2",
"X+	c #C6C7C7",
"Y+	c #C9CACA",
"Z+	c #C4C5C5",
"`+	c #8C8E8E",
" @	c #5C6061",
".@	c #303031",
"+@	c #3E3E3E",
"@@	c #151516",
"#@	c #1A1C1E",
"$@	c #2B3235",
"%@	c #202628",
"&@	c #4C5052",
"*@	c #59595A",
"=@	c #6E6E6E",
"-@	c #222222",
";@	c #737575",
">@	c #CECECF",
",@	c #BEBFBF",
"'@	c #A0A1A1",
")@	c #868A8B",
"!@	c #585D5E",
"~@	c #3B4245",
"{@	c #5D6468",
"]@	c #6E6F70",
"^@	c #5C5F60",
"/@	c #5C6970",
"(@	c #34393C",
"_@	c #151718",
":@	c #535556",
"<@	c #505456",
"[@	c #585959",
"}@	c #474848",
"|@	c #CACACB",
"1@	c #E8E8E8",
"2@	c #767677",
"3@	c #777879",
"4@	c #5B5C5C",
"5@	c #434545",
"6@	c #343739",
"7@	c #35393C",
"8@	c #434748",
"9@	c #484E50",
"0@	c #4E4E4F",
"a@	c #4C4E4E",
"b@	c #545555",
"c@	c #494B4C",
"d@	c #3E4040",
"e@	c #BABABA",
"f@	c #7D7D7E",
"g@	c #525253",
"h@	c #141515",
"i@	c #5C5E5F",
"j@	c #45494A",
"k@	c #3A3B3C",
"l@	c #525353",
"m@	c #5A5E60",
"n@	c #5B5D5E",
"o@	c #575859",
"p@	c #4E4F50",
"q@	c #B6B7B7",
"r@	c #4B4C4C",
"s@	c #4D5051",
"t@	c #2B2C2C",
"u@	c #2D2D2E",
"v@	c #4E4F4F",
"w@	c #4F5050",
"x@	c #4B4E4F",
"y@	c #363738",
"z@	c #8F9090",
"A@	c #787878",
"B@	c #323334",
"C@	c #2C2D2D",
"D@	c #666767",
"E@	c #232424",
"F@	c #1C1D1D",
"G@	c #1D1E1E",
"H@	c #1B1B1B",
"I@	c #111212",
"J@	c #1C2022",
"K@	c #1A1C1D",
"L@	c #38393A",
"M@	c #383939",
"N@	c #2F3335",
"O@	c #191D1F",
"P@	c #120E0E",
"Q@	c #1C1010",
"R@	c #221817",
"S@	c #322520",
"T@	c #43322B",
"U@	c #2E2422",
"V@	c #241E1E",
"W@	c #2F1E1F",
"X@	c #201414",
"Y@	c #1E1517",
"Z@	c #211313",
"`@	c #4D4949",
" #	c #181111",
".#	c #342525",
"+#	c #482D2E",
"@#	c #412A2C",
"##	c #381F20",
"$#	c #372020",
"%#	c #352224",
"&#	c #2E272A",
"*#	c #291919",
"=#	c #442020",
"-#	c #471F20",
";#	c #6A4038",
">#	c #8D6454",
",#	c #926453",
"'#	c #662B29",
")#	c #5B1D1D",
"!#	c #521E1E",
"~#	c #501F1F",
"{#	c #541E1E",
"]#	c #432020",
"^#	c #2E2323",
"/#	c #352121",
"(#	c #4E1E1E",
"_#	c #4C1F1F",
":#	c #3F2020",
"<#	c #382020",
"[#	c #271818",
"}#	c #331E1C",
"|#	c #733530",
"1#	c #3E211E",
"2#	c #8E6654",
"3#	c #A77862",
"4#	c #A97D66",
"5#	c #906050",
"6#	c #713931",
"7#	c #5D1D1D",
"8#	c #621D1D",
"9#	c #631E1E",
"0#	c #6F1D1D",
"a#	c #371010",
"b#	c #171313",
"c#	c #110F0F",
"d#	c #1A1414",
"e#	c #231B19",
"f#	c #734338",
"g#	c #692523",
"h#	c #662D29",
"i#	c #392020",
"j#	c #2A2222",
"k#	c #140C0C",
"l#	c #814F42",
"m#	c #A77661",
"n#	c #925A4C",
"o#	c #824C41",
"p#	c #592524",
"q#	c #581D1D",
"r#	c #612324",
"s#	c #6E2020",
"t#	c #721F1F",
"u#	c #711E1E",
"v#	c #4A1414",
"w#	c #260B0B",
"x#	c #72201F",
"y#	c #833832",
"z#	c #925245",
"A#	c #661D1D",
"B#	c #5C1C1C",
"C#	c #1C0C0C",
"D#	c #451717",
"E#	c #7A322D",
"F#	c #712624",
"G#	c #803832",
"H#	c #833933",
"I#	c #843A34",
"J#	c #7C2E2B",
"K#	c #792927",
"L#	c #7C2D2A",
"M#	c #7E312C",
"N#	c #752423",
"O#	c #330E0E",
"P#	c #76483C",
"Q#	c #AA735E",
"R#	c #A56B58",
"S#	c #A66C59",
"T#	c #A86F5B",
"U#	c #9D5F4F",
"V#	c #701E1E",
"W#	c #0C0303",
"X#	c #845345",
"Y#	c #A8705C",
"Z#	c #C19578",
"`#	c #B9896F",
" $	c #B9886E",
".$	c #B8876D",
"+$	c #B9876E",
"@$	c #BE8F74",
"#$	c #BF9275",
"$$	c #BD8E73",
"%$	c #BF9376",
"&$	c #634E3F",
"*$	c #3A3228",
"=$	c #6C5947",
"-$	c #5B4A3B",
";$	c #504134",
">$	c #544436",
",$	c #382B22",
"'$	c #0E0605",
")$	c #35201B",
"!$	c #362921",
"~$	c #27221B",
"{$	c #26211A",
"]$	c #2B251D",
"^$	c #38271F",
"/$	c #2E221B",
"($	c #28100E",
"_$	c #3E251F",
":$	c #35231C",
"<$	c #17140F",
"                                      . + @                                           ",
"                                    # $ % & *                                         ",
"                                  = - ; > , ' )                                       ",
"                                  ! $ ~ { ] ^ / (                                     ",
"                                = _ : < [ } | 1 2 3                                   ",
"                              4 5 6 7 8 9 } } 0 a b c d e                             ",
"                        f g h i j k l 9 m n o p q | r s t u v                         ",
"          = w 5 = x * y b _ z A ' # # B 2 C 9 D E F | G | z H n I                     ",
"          J K L M M N & O P Q | R S T U V ^ F W X ] Y Z `  ...+.e I @.C g             ",
"        = #.$.%.M &.*.=.-.;.D + >.>.,.'.-.).!.~.{.].^.Z q /.(.;.J _.:.#.<.            ",
"        = m M [._ }.|.1.O + 1 2.3.4.2.4.; 5.6.7.8.9.;.0.^ a.$.b.c.: P b d.            ",
"          = g e.f.g.6.>.h.i.X 4.j.k.l.; % m.n.).{ o.{.p.6.q.l.r.s.t.u.. .             ",
"          v.w.x.C M y.z.' k A.q.B.l.% 5.> ,.O { C.C.D.E.$ s.F.G.{.9 ) u H.I.          ",
"          N J.K.L.z.p.M.M B @ N.O.B.k.P.T ).{ Q.R.S.T.I.K.$ { ^.& N I.M L.c c         ",
"        U.e V.'.K 8 Q $ W.X.o Q N.: A.G.Y.{ $ $ o.C.C.Z.<.R `.6 n 1 /._ 9 d  +        ",
"        # ` q .+b.++n.1.< @+( W q.5.> -.#+$+$+$ $ o.C.C.%+C J.1 0.(.} ` R &+*+        ",
"        =+l $+N r N._.l.q.L.M R.N.-+T #.{ $ $+$+$+o.C.Z S.;+>+,+W.X %.` '+p 2         ",
"      v d.P Q.o.k )+T r.E !+} k.j.K -.^.{.{.{ ~+8.{ $ Q.S.;+A A {+]+..` [.G ^+/+      ",
"      B (+D.B.S.o._+d.<./ :+]+Y.^.#+9.W <+:+C.R.C.S.C.Z T.X P %..+B h E.[+k d }+      ",
"      # f <._++ E >+W.9 :+.+] - |+c I. +L.<.1+{+{+;.{+A D.X | p <+& 2+_+3 . U.<.      ",
"      * 3+y.y.X.@ R 6 }.4+5+I H.6+H.&+/.L.<.n ` F F >+7+D.X 8+'+#.1.-+< 9+'./+x.!     ",
"    = U.i &.[+) 6+%+z 0+H.I d. +h E.@+/.' b a+_ ^ ]+t.7+b+X <.2+;.$ n.< >.c+K 8.X.E.  ",
"  = d+p e+*+@ f+x c i g+h+d w.g w.H.! e @+c i+j+`.,+:+7+D.X u.& <+r 6 Z ].k+O 7.Y.[+*+",
"  y [._+l+m+@ x = = = n+o+i * p+w.H.6+6+Q * q+r+l s+6 7+D.t+u+[ |+&._ .+..&.@.9  +6+v+",
"  g L / w+/ I = = = = x+y+4 = = = = ) I J.z+A+B+C+Z.,+{+D.D+E+@.y.R F+1 k i.i.n p+n   ",
"    n &+n G+C+i.n H.H+I+J+K+( L+M+N+O+N+P+Q+R+S+ .T+s+, {+U+r !+k M.v+j w.# y ) f+    ",
"      B ^+p V+& ~.W+X+Y+Z+`+ @( .@+@6+@@#@$@%@&@*@E+_ D V V =@|+*+g w.-@&+ +1 !       ",
"        j 0.;@>@N.=.G.A.,@^.'@)@!@~@{@]@^@/@(@_@:@<@[@|+@+2++ _+@ }+}+@.}@1 8+        ",
"          +@|@1@< c+J 6.T ).].l 2@3@4@5@6@7@0.@@8@9@0@a@9 b@b@[.|+/+/ c@d@k z.        ",
"          I.-.O.e@< 9.].O 8 T.]+& <+f@Z.[ g@0.E.h@i@j@k@(.J.l@m@n@o@p@p@( y.          ",
"          }+& >.% 1.5.q@^.8 Y , , t.U [ m+M. +I =+g r@s@t@u@i.8+v@w@x@y@I.@           ",
"          6 + P.O 9+e@9.z@V P U A@E ` i._+9 N I i =+d+e d *+t@B@}+(.C@^+6+p.          ",
"          ^ _ Y T.Z A l ` D@2+Z.| r m+' _+e.d g i =+j w.! E@F@G@H@H@ +L.J.            ",
"          C _ z 1+W. .1+_ [ m+|+[.[ G K.9 3 H.H@! ) j w.! I@J@K@L@b @.J.              ",
"            _ (...e.K./ z R '+z.}+k !+i.3 M@d+-@i i # # v I@J@K@L@!+e.                ",
"              [.G ( k K./ }+1 *+N I.^+N@O@P@Q@R@S@T@U@V@W@X@Y@Z@`@r                   ",
"                -@E.y  #.#+#@###$#%#&#v *#=#-#;#>#,#'#)#!#~#{#]#^#                    ",
"                      /#(#{#!#_#:#<#[#}#|#1#2#3#4#5#6#7#8#9#0#a#b#c#                  ",
"                    d#e#f#g#h#i#j#^#c#k#l#m#n#o#p#q#r#s#t#t#u#v#=                     ",
"                      w#x#y#z#A#7#B#C#D#E#F#G#H#H#I#J#K#L#M#N#O#= =                   ",
"                      P#Q#R#S#T#U#V#W#X#Y#Z#`# $.$+$@$#$$$#$%$&$=                     ",
"                      *$=$-$;$>$,$W#= = '$)$!$~${$]$^$/$($_$:$<$                      "};
