/* XPM */
static xpm_row_t const spiky_1_xpm[] = {
"43 42 483 2",
"  	c None",
". 	c #080808",
"+ 	c #646464",
"@ 	c #585858",
"# 	c #101010",
"$ 	c #9C9C9C",
"% 	c #C6C6C6",
"& 	c #7C7C7C",
"* 	c #060606",
"= 	c #000000",
"- 	c #7E7E7E",
"; 	c #CBCBCB",
"> 	c #BDBDBD",
", 	c #858585",
"' 	c #535353",
") 	c #1E1E1E",
"! 	c #141414",
"~ 	c #D5D5D5",
"{ 	c #9F9F9F",
"] 	c #929292",
"^ 	c #747474",
"/ 	c #555555",
"( 	c #272727",
"_ 	c #626262",
": 	c #CFCFCF",
"< 	c #BFBFBF",
"[ 	c #5E5E5E",
"} 	c #676767",
"| 	c #6D6D6D",
"1 	c #373737",
"2 	c #262626",
"3 	c #454545",
"4 	c #030303",
"5 	c #090909",
"6 	c #828282",
"7 	c #DBDBDB",
"8 	c #ADADAD",
"9 	c #515151",
"0 	c #414243",
"a 	c #272929",
"b 	c #353535",
"c 	c #2A2A2A",
"d 	c #282828",
"e 	c #202020",
"f 	c #151515",
"g 	c #131313",
"h 	c #0C0C0C",
"i 	c #171717",
"j 	c #191919",
"k 	c #3F3F3F",
"l 	c #777777",
"m 	c #3B3B3B",
"n 	c #313131",
"o 	c #3A3A3A",
"p 	c #3C3C3C",
"q 	c #4B4B4B",
"r 	c #6C6C6C",
"s 	c #6D6F6F",
"t 	c #363A3C",
"u 	c #181818",
"v 	c #0E0E0E",
"w 	c #020202",
"x 	c #010101",
"y 	c #121212",
"z 	c #616161",
"A 	c #8F8F8F",
"B 	c #161616",
"C 	c #393939",
"D 	c #737373",
"E 	c #838383",
"F 	c #848484",
"G 	c #505050",
"H 	c #494D4F",
"I 	c #111111",
"J 	c #CCCCCC",
"K 	c #C0C0C0",
"L 	c #434343",
"M 	c #2F2F2F",
"N 	c #303030",
"O 	c #ACACAC",
"P 	c #818181",
"Q 	c #939393",
"R 	c #565656",
"S 	c #A5A5A5",
"T 	c #B1B1B1",
"U 	c #7D7D7D",
"V 	c #808080",
"W 	c #888888",
"X 	c #8A8A8A",
"Y 	c #9E9E9E",
"Z 	c #959595",
"` 	c #696969",
" .	c #6A6A6A",
"..	c #656565",
"+.	c #4B4B4C",
"@.	c #4D4D4D",
"#.	c #A6A6A6",
"$.	c #E9E9E9",
"%.	c #7B7B7B",
"&.	c #636363",
"*.	c #848585",
"=.	c #B4B4B4",
"-.	c #B0B0B0",
";.	c #8B8B8B",
">.	c #C9C9C9",
",.	c #B7B7B7",
"'.	c #B3B3B3",
").	c #A8A8A8",
"!.	c #ABABAB",
"~.	c #A2A2A2",
"{.	c #A1A1A1",
"].	c #A4A4A4",
"^.	c #A7A7A7",
"/.	c #252525",
"(.	c #444444",
"_.	c #E2E2E2",
":.	c #DDDDDD",
"<.	c #383838",
"[.	c #5A5A5A",
"}.	c #858687",
"|.	c #B3B4B4",
"1.	c #BBBBBB",
"2.	c #D3D3D3",
"3.	c #D4D4D4",
"4.	c #D0D0D0",
"5.	c #C3C3C3",
"6.	c #B9B9B9",
"7.	c #AAAAAA",
"8.	c #A0A0A0",
"9.	c #9D9D9D",
"0.	c #323232",
"a.	c #DADADA",
"b.	c #E3E3E3",
"c.	c #DEDEDE",
"d.	c #1F1F1F",
"e.	c #4E4E4E",
"f.	c #838485",
"g.	c #B4B5B5",
"h.	c #999999",
"i.	c #404040",
"j.	c #CECECE",
"k.	c #C8C8C8",
"l.	c #CACACA",
"m.	c #C1C1C1",
"n.	c #B8B8B8",
"o.	c #9A9A9A",
"p.	c #606060",
"q.	c #D6D6D6",
"r.	c #D2D2D2",
"s.	c #BEBEBE",
"t.	c #868686",
"u.	c #343434",
"v.	c #040404",
"w.	c #0F0F0F",
"x.	c #1C1C1C",
"y.	c #414141",
"z.	c #525252",
"A.	c #C4C4C4",
"B.	c #D1D1D1",
"C.	c #979797",
"D.	c #8E8E8E",
"E.	c #232323",
"F.	c #C5C5C5",
"G.	c #B6B6B6",
"H.	c #1D1D1D",
"I.	c #242424",
"J.	c #494949",
"K.	c #4F4F4F",
"L.	c #474747",
"M.	c #545454",
"N.	c #D9D9D9",
"O.	c #D7D7D7",
"P.	c #BCBCBC",
"Q.	c #989898",
"R.	c #949494",
"S.	c #969696",
"T.	c #909090",
"U.	c #0B0B0B",
"V.	c #838484",
"W.	c #6B6B6B",
"X.	c #4C4C4C",
"Y.	c #A9A9A9",
"Z.	c #727272",
"`.	c #767676",
" +	c #2B2B2B",
".+	c #5D5D5D",
"++	c #E0E0E0",
"@+	c #686868",
"#+	c #A3A3A3",
"$+	c #9B9B9B",
"%+	c #717171",
"&+	c #2E2E2E",
"*+	c #2D2D2D",
"=+	c #1A1A1A",
"-+	c #C2C2C2",
";+	c #919191",
">+	c #898989",
",+	c #7A7A7A",
"'+	c #575757",
")+	c #464646",
"!+	c #363636",
"~+	c #9D9E9E",
"{+	c #8C8C8C",
"]+	c #7F7F7F",
"^+	c #212121",
"/+	c #5B5B5B",
"(+	c #2F2F30",
"_+	c #595959",
":+	c #878787",
"<+	c #797979",
"[+	c #3D3D3D",
"}+	c #4A4A4A",
"|+	c #707070",
"1+	c #6F6F6F",
"2+	c #171718",
"3+	c #787979",
"4+	c #424242",
"5+	c #0A0A0A",
"6+	c #222222",
"7+	c #8D8D8D",
"8+	c #484848",
"9+	c #B5B5B5",
"0+	c #FFFFFF",
"a+	c #373939",
"b+	c #0D0D0D",
"c+	c #5C5C5C",
"d+	c #F7F7F7",
"e+	c #424B4F",
"f+	c #8E8F8F",
"g+	c #C7C7C7",
"h+	c #3F4041",
"i+	c #9CB1BB",
"j+	c #757879",
"k+	c #FBFBFB",
"l+	c #070707",
"m+	c #4E565A",
"n+	c #7C7D7E",
"o+	c #AFAFAF",
"p+	c #212324",
"q+	c #333333",
"r+	c #1B1B1B",
"s+	c #394144",
"t+	c #7D8183",
"u+	c #757575",
"v+	c #888989",
"w+	c #3A3A3B",
"x+	c #2C2C2C",
"y+	c #434444",
"z+	c #050809",
"A+	c #040607",
"B+	c #626F75",
"C+	c #74868F",
"D+	c #7BAFC7",
"E+	c #31383B",
"F+	c #797C7E",
"G+	c #757676",
"H+	c #878889",
"I+	c #575B5D",
"J+	c #666666",
"K+	c #8A8484",
"L+	c #3E464A",
"M+	c #575D60",
"N+	c #484F53",
"O+	c #2E3D44",
"P+	c #82B9D3",
"Q+	c #96B6C5",
"R+	c #293135",
"S+	c #707578",
"T+	c #686869",
"U+	c #878888",
"V+	c #050505",
"W+	c #141515",
"X+	c #C4C4C5",
"Y+	c #C8C9C9",
"Z+	c #CBCCCC",
"`+	c #C6C7C7",
" @	c #8D8F8F",
".@	c #5C6062",
"+@	c #AFD0E0",
"@@	c #94B9C9",
"#@	c #1D2325",
"$@	c #4C5052",
"%@	c #59595A",
"&@	c #6E6E6E",
"*@	c #737575",
"=@	c #CECECF",
"-@	c #BEBFBF",
";@	c #A0A1A1",
">@	c #878B8C",
",@	c #555A5C",
"'@	c #2C3438",
")@	c #2A3C45",
"!@	c #4C5960",
"~@	c #556771",
"{@	c #647B86",
"]@	c #353A3D",
"^@	c #151718",
"/@	c #535556",
"(@	c #505456",
"_@	c #585959",
":@	c #474848",
"<@	c #3E3E3E",
"[@	c #CACACB",
"}@	c #E8E8E8",
"|@	c #767677",
"1@	c #777879",
"2@	c #595A5A",
"3@	c #3E4041",
"4@	c #2D3133",
"5@	c #34393C",
"6@	c #151516",
"7@	c #434748",
"8@	c #484E50",
"9@	c #4E4E4F",
"0@	c #4C4E4E",
"a@	c #545555",
"b@	c #494B4C",
"c@	c #3E4040",
"d@	c #BABABA",
"e@	c #7D7D7E",
"f@	c #525253",
"g@	c #5C5E5F",
"h@	c #45494A",
"i@	c #3A3B3C",
"j@	c #525353",
"k@	c #5A5E60",
"l@	c #5B5D5E",
"m@	c #575859",
"n@	c #4E4F50",
"o@	c #B6B7B7",
"p@	c #5F5F5F",
"q@	c #4B4C4C",
"r@	c #4D5051",
"s@	c #2B2C2C",
"t@	c #2D2D2E",
"u@	c #4E4F4F",
"v@	c #4F5050",
"w@	c #4B4E4F",
"x@	c #363738",
"y@	c #8F9090",
"z@	c #787878",
"A@	c #323334",
"B@	c #2C2D2D",
"C@	c #666767",
"D@	c #232424",
"E@	c #1C1D1D",
"F@	c #1D1E1E",
"G@	c #111212",
"H@	c #1C2022",
"I@	c #1A1C1D",
"J@	c #38393A",
"K@	c #383939",
"L@	c #2F3335",
"M@	c #191D1F",
"N@	c #120E0E",
"O@	c #1C1010",
"P@	c #221817",
"Q@	c #322520",
"R@	c #43322B",
"S@	c #2E2422",
"T@	c #241E1E",
"U@	c #2F1E1F",
"V@	c #201414",
"W@	c #1E1517",
"X@	c #211313",
"Y@	c #4D4949",
"Z@	c #181111",
"`@	c #342525",
" #	c #482D2E",
".#	c #412A2C",
"+#	c #381F20",
"@#	c #372020",
"##	c #352224",
"$#	c #2E272A",
"%#	c #291919",
"&#	c #442020",
"*#	c #471F20",
"=#	c #6A4038",
"-#	c #8D6454",
";#	c #926453",
">#	c #662B29",
",#	c #5B1D1D",
"'#	c #521E1E",
")#	c #501F1F",
"!#	c #541E1E",
"~#	c #432020",
"{#	c #2E2323",
"]#	c #352121",
"^#	c #4E1E1E",
"/#	c #4C1F1F",
"(#	c #3F2020",
"_#	c #382020",
":#	c #271818",
"<#	c #331E1C",
"[#	c #733530",
"}#	c #3E211E",
"|#	c #8E6654",
"1#	c #A77862",
"2#	c #A97D66",
"3#	c #906050",
"4#	c #713931",
"5#	c #5D1D1D",
"6#	c #621D1D",
"7#	c #631E1E",
"8#	c #701E1E",
"9#	c #381010",
"0#	c #171313",
"a#	c #110F0F",
"b#	c #1A1414",
"c#	c #231B19",
"d#	c #734338",
"e#	c #692523",
"f#	c #662D29",
"g#	c #392020",
"h#	c #2A2222",
"i#	c #140C0C",
"j#	c #814F42",
"k#	c #A77661",
"l#	c #925A4C",
"m#	c #824C41",
"n#	c #592524",
"o#	c #581D1D",
"p#	c #612324",
"q#	c #6E2020",
"r#	c #721F1F",
"s#	c #711E1E",
"t#	c #4A1414",
"u#	c #260B0B",
"v#	c #72201F",
"w#	c #833832",
"x#	c #925245",
"y#	c #661D1D",
"z#	c #5C1C1C",
"A#	c #1C0C0C",
"B#	c #451717",
"C#	c #7A322D",
"D#	c #712624",
"E#	c #803832",
"F#	c #833933",
"G#	c #843A34",
"H#	c #7C2E2B",
"I#	c #792927",
"J#	c #7C2D2A",
"K#	c #7E312C",
"L#	c #752423",
"M#	c #330E0E",
"N#	c #76483C",
"O#	c #AA735E",
"P#	c #A56B58",
"Q#	c #A66C59",
"R#	c #A86F5B",
"S#	c #9D5F4F",
"T#	c #0C0303",
"U#	c #845345",
"V#	c #A8705C",
"W#	c #C19578",
"X#	c #B9896F",
"Y#	c #B9886E",
"Z#	c #B8876D",
"`#	c #B9876E",
" $	c #BE8F74",
".$	c #BF9275",
"+$	c #BD8E73",
"@$	c #BF9376",
"#$	c #634E3F",
"$$	c #3A3228",
"%$	c #6C5947",
"&$	c #5B4A3B",
"*$	c #504134",
"=$	c #544436",
"-$	c #382B22",
";$	c #0E0605",
">$	c #35201B",
",$	c #362921",
"'$	c #27221B",
")$	c #26211A",
"!$	c #2B251D",
"~$	c #38271F",
"{$	c #2E221B",
"]$	c #28100E",
"^$	c #3E251F",
"/$	c #35231C",
"($	c #17140F",
"                                      . + @                                           ",
"                                    # $ % & *                                         ",
"                                  = - ; > , ' )                                       ",
"                                  ! $ ~ { ] ^ / (                                     ",
"                                = _ : < [ } | 1 2 3                                   ",
"                              4 5 6 7 8 9 } } 0 a b c d e                             ",
"                        f g h i j k l 9 m n o p q | r s t u v                         ",
"          = w 5 = x * y b _ z A ' # # B 2 C 9 D E F | G | z H n I                     ",
"          J K L M M N & O P Q | R S T U V ^ F W X ] Y Z `  ...+.e I @.C g             ",
"        = #.$.%.M &.*.=.-.;.D + >.>.,.'.-.).!.~.{.].^.Z q /.(.;.J _.:.#.<.            ",
"        = m M [._ }.|.1.O + 1 2.3.4.2.4.; 5.6.7.8.9.;.0.^ a.$.b.c.: P b d.            ",
"          = g e.f.g.6.>.h.i.X 4.j.k.l.; % m.n.).{ o.{.p.6.q.l.r.s.t.u.. .             ",
"          v.w.x.C M y.z.' k A.q.B.l.% 5.> ,.O { C.C.D.E.$ s.F.G.{.9 ) u H.I.          ",
"          N J.K.L.z.p.M.M B @ N.O.B.k.P.T ).{ Q.R.S.T.I.K.$ { ^.& N I.M L.c c         ",
"        U.e V.'.K 8 Q $ W.X.o Q N.: A.G.Y.{ $ $ o.C.C.Z.<.R `.6 n 1 /._ 9 d  +        ",
"        # ` q .+b.++n.1.< @+( W q.5.> -.#+$+$+$ $ o.C.C.%+C J.1 0.(.} ` R &+*+        ",
"        =+l $+N r N._.l.q.L.M R.N.-+T #.{ $ $+$+$+o.C.Z S.;+>+,+W.X %.` '+p 2         ",
"      v d.P Q.o.k )+T r.E !+} k.j.K -.^.{.{.{ ~+8.{ $ Q.S.;+A A {+]+..` [.G ^+/+      ",
"      i (+D.r.S.$+_+d.<./ :+]+Y.^.#+9.W <+:+C.R.C.S.C.Z T.X P %..+B h E.[+k d }+      ",
"      # f N L @ P X W.9 :+.+] - @ x.i /.L.<.|+{+{+;.{+A D.X | p <+& 1+_+3 . U.<.      ",
"      * 2+&.[+) o ' 6 }.3+4+# U.5+6+@+/.L.<.n ` F F >+7+D.X 8+'+#.1.-+< 9+'./+x.!     ",
"    = h i &.0+) 5+, .+a+! b+E.c+K.d+@+#+T u.e+_ ^ ]+t.7+f+X <.1+;.$ n.< >.g+K 8.X.E.  ",
"  = v k h+0+0+) = = = i+j+ .E.c+K.d+0+0+k+l+m+n+`.,+:+7+D.X u.& <+r 6 Z ].o+O 7.Y.[+*+",
"  y [.[.p+0+q+w = = = i+j+ .u r+= = 0+0+~ = s+t+l u+6 7+D.v+w+[ c+&._ .+..&.@.9  +q+x+",
"  ! L / y+z+i.5+= = A+B+C+= = = = = 0+~ = D+E+F+G+Z.,+{+D.H+I+@.y.R J+1 k i.i.n 5+n   ",
"    M *+*+z+K+i v.j L+M+N+O+B u = 0+~ = P+Q+R+S+ .T+u+, {+U+r !+k M.x+j w.# y ) V+    ",
"      5+e   W+ .{.X+Y+Z+`+ @.@i = = = P++@@@#@$@%@I+_ D V V &@c+*+g w.6+&+ +1 !       ",
"          b *@=@N.=.G.A.-@^.;@>@,@'@)@!@~@{@]@^@/@(@_@c+@+1++ _+@ }+}+@.:@1 8+        ",
"          <@[@}@< g+J 6.T ).].l |@1@2@3@4@5@0.6@7@8@9@0@9 a@a@[.c+/+/ b@c@k '         ",
"          6+-.O.d@< 9.].O 8 T.]+& <+e@Z.[ f@0.E.W+g@h@i@(.J.j@k@l@m@n@n@( y.          ",
"          }+& >.% 1.5.o@^.8 Y , , t.U [ p@M. +I =+g q@r@s@t@i.8+u@v@w@x@I.@           ",
"          E + P.O 9+d@9.y@V P U z@E ` i._+9 N I i =+b+e d *+s@A@}+(.B@^+q+z           ",
"          ^ _ Y T.Z A l ` C@1+Z.| r p@' _+e.d g i =+j w.! D@E@F@r+r+ +L.J.            ",
"          C _ z |+W. .|+_ [ p@c+[.[ G K.9 3 H.r+! ) j w.! G@H@I@J@b @.J.              ",
"            _ (...e.K./ z R '+z.}+k !+i.3 K@b+6+i i # # v G@H@I@J@!+e.                ",
"              /+G ( k K./ }+1 *+N I.^+L@M@N@O@P@Q@R@S@T@U@V@W@X@Y@r                   ",
"                ^+E.y Z@`@ #.#+#@###$#v %#&#*#=#-#;#>#,#'#)#!#~#{#                    ",
"                      ]#^#!#'#/#(#_#:#<#[#}#|#1#2#3#4#5#6#7#8#9#0#a#                  ",
"                    b#c#d#e#f#g#h#{#a#i#j#k#l#m#n#o#p#q#r#r#s#t#=                     ",
"                      u#v#w#x#y#5#z#A#B#C#D#E#F#F#G#H#I#J#K#L#M#= =                   ",
"                      N#O#P#Q#R#S#8#T#U#V#W#X#Y#Z#`# $.$+$.$@$#$=                     ",
"                      $$%$&$*$=$-$T#= = ;$>$,$'$)$!$~${$]$^$/$($                      "};
