/* XPM */
static xpm_row_t const spiky_2_xpm[] = {
"43 42 494 2",
"  	c None",
". 	c #000000",
"+ 	c #090909",
"@ 	c #747474",
"# 	c #585858",
"$ 	c #101010",
"% 	c #A8A8A8",
"& 	c #C8C8C8",
"* 	c #7D7D7D",
"= 	c #060606",
"- 	c #888888",
"; 	c #CDCDCD",
"> 	c #BDBDBD",
", 	c #868686",
"' 	c #575757",
") 	c #1F1F1F",
"! 	c #151515",
"~ 	c #A2A2A2",
"{ 	c #D6D6D6",
"] 	c #9C9C9C",
"^ 	c #979797",
"/ 	c #878787",
"( 	c #595959",
"_ 	c #282828",
": 	c #797979",
"< 	c #D0D0D0",
"[ 	c #BFBFBF",
"} 	c #545454",
"| 	c #636363",
"1 	c #6C6C6C",
"2 	c #313131",
"3 	c #262626",
"4 	c #454545",
"5 	c #030303",
"6 	c #0A0A0A",
"7 	c #828282",
"8 	c #DBDBDB",
"9 	c #ADADAD",
"0 	c #515151",
"a 	c #676767",
"b 	c #414243",
"c 	c #272929",
"d 	c #353535",
"e 	c #2A2A2A",
"f 	c #202020",
"g 	c #131313",
"h 	c #0C0C0C",
"i 	c #171717",
"j 	c #191919",
"k 	c #3F3F3F",
"l 	c #777777",
"m 	c #3B3B3B",
"n 	c #3A3A3A",
"o 	c #3C3C3C",
"p 	c #4B4B4B",
"q 	c #6D6D6D",
"r 	c #6D6F6F",
"s 	c #363A3C",
"t 	c #0E0E0E",
"u 	c #020202",
"v 	c #010101",
"w 	c #121212",
"x 	c #626262",
"y 	c #616161",
"z 	c #8F8F8F",
"A 	c #535353",
"B 	c #161616",
"C 	c #393939",
"D 	c #737373",
"E 	c #838383",
"F 	c #848484",
"G 	c #505050",
"H 	c #494D4F",
"I 	c #333333",
"J 	c #111111",
"K 	c #C7C7C7",
"L 	c #363636",
"M 	c #303030",
"N 	c #7C7C7C",
"O 	c #ACACAC",
"P 	c #818181",
"Q 	c #939393",
"R 	c #565656",
"S 	c #A5A5A5",
"T 	c #B1B1B1",
"U 	c #808080",
"V 	c #8A8A8A",
"W 	c #929292",
"X 	c #9E9E9E",
"Y 	c #959595",
"Z 	c #696969",
"` 	c #6A6A6A",
" .	c #656565",
"..	c #4B4B4C",
"+.	c #212121",
"@.	c #4D4D4D",
"#.	c #141414",
"$.	c #A6A6A6",
"%.	c #EAEAEA",
"&.	c #2F2F2F",
"*.	c #848585",
"=.	c #B4B4B4",
"-.	c #B0B0B0",
";.	c #8B8B8B",
">.	c #646464",
",.	c #C9C9C9",
"'.	c #B7B7B7",
").	c #B3B3B3",
"!.	c #ABABAB",
"~.	c #A1A1A1",
"{.	c #A4A4A4",
"].	c #A7A7A7",
"^.	c #252525",
"/.	c #444444",
"(.	c #CCCCCC",
"_.	c #E2E2E2",
":.	c #DEDEDE",
"<.	c #424242",
"[.	c #292929",
"}.	c #5A5A5A",
"|.	c #858687",
"1.	c #B3B4B4",
"2.	c #BBBBBB",
"3.	c #373737",
"4.	c #D3D3D3",
"5.	c #D4D4D4",
"6.	c #CBCBCB",
"7.	c #C3C3C3",
"8.	c #B9B9B9",
"9.	c #AAAAAA",
"0.	c #A0A0A0",
"a.	c #9D9D9D",
"b.	c #323232",
"c.	c #DADADA",
"d.	c #E9E9E9",
"e.	c #E3E3E3",
"f.	c #CFCFCF",
"g.	c #1E1E1E",
"h.	c #050505",
"i.	c #4E4E4E",
"j.	c #838485",
"k.	c #B4B5B5",
"l.	c #999999",
"m.	c #404040",
"n.	c #CECECE",
"o.	c #CACACA",
"p.	c #C6C6C6",
"q.	c #C1C1C1",
"r.	c #B8B8B8",
"s.	c #9F9F9F",
"t.	c #9A9A9A",
"u.	c #606060",
"v.	c #D2D2D2",
"w.	c #BEBEBE",
"x.	c #343434",
"y.	c #080808",
"z.	c #1C1C1C",
"A.	c #414141",
"B.	c #525252",
"C.	c #C4C4C4",
"D.	c #D1D1D1",
"E.	c #8E8E8E",
"F.	c #232323",
"G.	c #C5C5C5",
"H.	c #B6B6B6",
"I.	c #181818",
"J.	c #242424",
"K.	c #4A4A4A",
"L.	c #4F4F4F",
"M.	c #474747",
"N.	c #D9D9D9",
"O.	c #D7D7D7",
"P.	c #BCBCBC",
"Q.	c #989898",
"R.	c #949494",
"S.	c #969696",
"T.	c #909090",
"U.	c #2B2B2B",
"V.	c #0D0D0D",
"W.	c #838484",
"X.	c #C0C0C0",
"Y.	c #6B6B6B",
"Z.	c #4C4C4C",
"`.	c #A9A9A9",
" +	c #727272",
".+	c #383838",
"++	c #767676",
"@+	c #5D5D5D",
"#+	c #E0E0E0",
"$+	c #686868",
"%+	c #272727",
"&+	c #A3A3A3",
"*+	c #9B9B9B",
"=+	c #717171",
"-+	c #494949",
";+	c #2E2E2E",
">+	c #1B1B1B",
",+	c #787878",
"'+	c #C2C2C2",
")+	c #919191",
"!+	c #898989",
"~+	c #7A7A7A",
"{+	c #7B7B7B",
"]+	c #464646",
"^+	c #9D9E9E",
"/+	c #8C8C8C",
"(+	c #7F7F7F",
"_+	c #5B5B5B",
":+	c #2F2F30",
"<+	c #555555",
"[+	c #3D3D3D",
"}+	c #434343",
"|+	c #7E7E7E",
"1+	c #707070",
"2+	c #6F6F6F",
"3+	c #0B0B0B",
"4+	c #171718",
"5+	c #787979",
"6+	c #222222",
"7+	c #8D8D8D",
"8+	c #484848",
"9+	c #B5B5B5",
"0+	c #FFFFFF",
"a+	c #858585",
"b+	c #373939",
"c+	c #5C5C5C",
"d+	c #F7F7F7",
"e+	c #FBFBFB",
"f+	c #070707",
"g+	c #424B4F",
"h+	c #8E8F8F",
"i+	c #3F4041",
"j+	c #9CB1BB",
"k+	c #757879",
"l+	c #D5D5D5",
"m+	c #4E565A",
"n+	c #7C7D7E",
"o+	c #AFAFAF",
"p+	c #3E3E3E",
"q+	c #212324",
"r+	c #050809",
"s+	c #040607",
"t+	c #626F75",
"u+	c #74868F",
"v+	c #7BAFC7",
"w+	c #394144",
"x+	c #7D8183",
"y+	c #757575",
"z+	c #888989",
"A+	c #3A3A3B",
"B+	c #5E5E5E",
"C+	c #8A8484",
"D+	c #040404",
"E+	c #3E464A",
"F+	c #575D60",
"G+	c #484F53",
"H+	c #2E3D44",
"I+	c #82B9D3",
"J+	c #96B6C5",
"K+	c #31383B",
"L+	c #797C7E",
"M+	c #757676",
"N+	c #878889",
"O+	c #575B5D",
"P+	c #666666",
"Q+	c #141515",
"R+	c #C4C4C5",
"S+	c #C8C9C9",
"T+	c #CBCCCC",
"U+	c #C6C7C7",
"V+	c #8D8F8F",
"W+	c #5C6062",
"X+	c #AFD0E0",
"Y+	c #94B9C9",
"Z+	c #293135",
"`+	c #707578",
" @	c #686869",
".@	c #878888",
"+@	c #2C2C2C",
"@@	c #0F0F0F",
"#@	c #737575",
"$@	c #CECECF",
"%@	c #BEBFBF",
"&@	c #A0A1A1",
"*@	c #878B8C",
"=@	c #555A5C",
"-@	c #2C3438",
";@	c #2A3C45",
">@	c #4C5960",
",@	c #556771",
"'@	c #647B86",
")@	c #1D2325",
"!@	c #4C5052",
"~@	c #59595A",
"{@	c #6E6E6E",
"]@	c #2D2D2D",
"^@	c #CACACB",
"/@	c #E8E8E8",
"(@	c #767677",
"_@	c #777879",
":@	c #595A5A",
"<@	c #3E4041",
"[@	c #2D3133",
"}@	c #34393C",
"|@	c #353A3D",
"1@	c #151718",
"2@	c #535556",
"3@	c #505456",
"4@	c #585959",
"5@	c #474848",
"6@	c #BABABA",
"7@	c #7D7D7E",
"8@	c #525253",
"9@	c #151516",
"0@	c #434748",
"a@	c #484E50",
"b@	c #4E4E4F",
"c@	c #4C4E4E",
"d@	c #545555",
"e@	c #494B4C",
"f@	c #3E4040",
"g@	c #B6B7B7",
"h@	c #5F5F5F",
"i@	c #5C5E5F",
"j@	c #45494A",
"k@	c #3A3B3C",
"l@	c #525353",
"m@	c #5A5E60",
"n@	c #5B5D5E",
"o@	c #575859",
"p@	c #4D4E4E",
"q@	c #262727",
"r@	c #4F1616",
"s@	c #8F9090",
"t@	c #1A1A1A",
"u@	c #4B4C4C",
"v@	c #4D5051",
"w@	c #2B2C2C",
"x@	c #2D2D2E",
"y@	c #4E4F4F",
"z@	c #353536",
"A@	c #644F4F",
"B@	c #772121",
"C@	c #782121",
"D@	c #320D0D",
"E@	c #727171",
"F@	c #666767",
"G@	c #313232",
"H@	c #434344",
"I@	c #393434",
"J@	c #922929",
"K@	c #8E2727",
"L@	c #762020",
"M@	c #661C1C",
"N@	c #310D0D",
"O@	c #481E1B",
"P@	c #5B3F3B",
"Q@	c #626261",
"R@	c #616060",
"S@	c #1D1D1D",
"T@	c #1A1818",
"U@	c #4A4848",
"V@	c #824141",
"W@	c #932929",
"X@	c #842424",
"Y@	c #4F1A18",
"Z@	c #3A1010",
"`@	c #8B312D",
" #	c #984F44",
".#	c #6F6360",
"+#	c #383939",
"@#	c #1F323B",
"##	c #683731",
"$#	c #64433B",
"%#	c #382D29",
"&#	c #433E3C",
"*#	c #4E4D4D",
"=#	c #97312F",
"-#	c #593C31",
";#	c #3F372B",
">#	c #553C31",
",#	c #875748",
"'#	c #7E4339",
")#	c #54221F",
"!#	c #694D4C",
"~#	c #504F4F",
"{#	c #272626",
"]#	c #2F3335",
"^#	c #2D3437",
"/#	c #222627",
"(#	c #1B1D1E",
"_#	c #1F2122",
":#	c #1E1F20",
"<#	c #202224",
"[#	c #131617",
"}#	c #13232B",
"|#	c #AF7463",
"1#	c #C48971",
"2#	c #C78F74",
"3#	c #AF6759",
"4#	c #9A746E",
"5#	c #776765",
"6#	c #8E3737",
"7#	c #9A3733",
"8#	c #BD7B66",
"9#	c #504336",
"0#	c #352820",
"a#	c #584B3C",
"b#	c #A99072",
"c#	c #A39072",
"d#	c #AC9777",
"e#	c #8F6E59",
"f#	c #42302C",
"g#	c #362323",
"h#	c #171212",
"i#	c #1B1717",
"j#	c #353738",
"k#	c #393F42",
"l#	c #2F383B",
"m#	c #232627",
"n#	c #22282B",
"o#	c #191B1C",
"p#	c #161617",
"q#	c #1B1C1C",
"r#	c #1F2020",
"s#	c #212223",
"t#	c #292A2B",
"u#	c #431919",
"v#	c #AB6757",
"w#	c #C1856E",
"x#	c #B97360",
"y#	c #B06253",
"z#	c #A9554A",
"A#	c #943130",
"B#	c #922C2C",
"C#	c #9C3E3A",
"D#	c #C68B72",
"E#	c #E3C69D",
"F#	c #84725A",
"G#	c #372B23",
"H#	c #5D4D3E",
"I#	c #6B5E4A",
"J#	c #8E7D63",
"K#	c #A49073",
"L#	c #A68F71",
"M#	c #7D5848",
"N#	c #4E1E1B",
"O#	c #3F1111",
"P#	c #352828",
"Q#	c #343232",
"R#	c #1E1E1F",
"S#	c #1E1F1F",
"T#	c #1C1E1F",
"U#	c #050606",
"V#	c #3D2122",
"W#	c #91453D",
"X#	c #A44F44",
"Y#	c #9F413B",
"Z#	c #942B2A",
"`#	c #AB584C",
" $	c #CC987B",
".$	c #DABE97",
"+$	c #988469",
"@$	c #544839",
"#$	c #5B5140",
"$$	c #635845",
"%$	c #776953",
"&$	c #897860",
"*$	c #917E64",
"=$	c #A1745F",
"-$	c #AA5D50",
";$	c #4E2523",
">$	c #261818",
",$	c #1D1616",
"'$	c #721F1F",
")$	c #933431",
"!$	c #D4B08C",
"~$	c #B49678",
"{$	c #715444",
"]$	c #4D3C30",
"^$	c #4A2F27",
"/$	c #402B23",
"($	c #3F2F26",
"_$	c #514435",
":$	c #836E59",
"<$	c #5D3B30",
"[$	c #431212",
"}$	c #300C0C",
"|$	c #5C2D27",
"1$	c #89725B",
"2$	c #7A624E",
"3$	c #532F28",
"4$	c #391010",
"5$	c #22120F",
"                                                                                      ",
"                                        .                                             ",
"                                      + @ #                                           ",
"                                    $ % & * =                                         ",
"                                  . - ; > , ' )                                       ",
"                                  ! ~ { ] ^ / ( _                                     ",
"                                . : < [ } | 1 2 3 4                                   ",
"                              5 6 7 8 9 0 a a b c d e _ f                             ",
"                        ! g h i j k l 0 m 2 n o p q 1 r s j t                         ",
"          . u + . v = w d x y z A $ $ B 3 C 0 D E F q G q y H I J                     ",
"          < K } L M 2 N O P Q q R S T * U @ F - V W X Y Z `  ...+.w @.n #.            ",
"        . $.%.U &.a *.=.-.;.D >.,.,.'.).-.% !.~ ~.{.].Y p ^./.;.(._.:.% <.            ",
"          . [.}.>.|.1.2.O >.3.4.5.< 4.< 6.7.8.9.0.a.;.b.@ c.d.e.:.f.P d g.            ",
"            h.i.j.k.8.,.l.m.V < n.& o.6.p.q.r.% s.t.~.u.8.{ o.v.w., x.y.y.            ",
"          h.$ z.C &.A.B.A k C.{ D.o.p.7.> '.O s.^ ^ E.F.] w.G.H.~.0 g.I.g.J.          ",
"          2 K.L.M.B.u.} &.B # N.O.D.& P.T % s.Q.R.S.T.J.L.] s.].N M J.&.M.U.U.        ",
"        V.f W.).X.9 Q ] Y.Z.n Q N.f.C.H.`.s.] ] t.^ ^  +.+R ++7 2 3.^.x 0 _ U.        ",
"        J 1 p @+e.#+r.2.[ $+%+- { 7.> -.&+*+*+] ] t.^ ^ =+C -+3.b./.a Z R ;+;+        ",
"        >+,+*+M 1 N._.o.{ M.&.R.N.'+T $.s.] *+*+*+t.^ Y S.)+!+~+Y.V {+Z ' o 3         ",
"      t f P Q.t.k ]+T v.E L a & n.X.-.].~.~.s.^+0.s.] Q.S.)+z z /+(+ .Z }.G +._+      ",
"      j :+E.v.S.*+( ) .+<+/ (+`.].&+a.- : / ^ R.^ S.^ Y T.V P {+@+B h F.[+k _ K.      ",
"      $ ! M }+# P V Y.0 / @+W |+# z.i ^.M..+1+/+/+;./+z E.V q o : N 2+( 4 y.3+.+      ",
"      = 4+| [+g.n A 7 |.5+<.$ 3+6 6+$+&+T x.2 Z F F !+7+E.V 8+' $.2.'+[ 9+)._+z.#.    ",
"    . V.i 0+0+g.6 a+@+b+#.V.F.c+L.d+0+0+e+f+g+x @ (+, 7+h+V .+2+;.] r.[ ,.K X.0.@.J.  ",
"  . $ /.i+0+I u . . . j+k+` I.>+. . 0+0+l+. m+n+++~+/ 7+E.V x.N : 1 7 Y {.o+O 9.-.p+;+",
"  B c+_+q+r+m.6 . . s+t+u+. . . . . 0+l+. v+w+x+l y+7 7+E.z+A+B+c+| x @+ .| Z.L.z.b.  ",
"    2 <+R r+C+i D+j E+F+G+H+B I.. 0+l+. I+J+K+L+M+ +~+/+E.N+O+@.A.R P+3.k m.m.;+h.    ",
"      3+_   Q+` ~.R+S+T+U+V+W+i . . . I+X+Y+Z+`+`  @y+a+/+.@1 L k } +@j @@$ w #.      ",
"          d #@$@N.=.H.C.%@].&@*@=@-@;@>@,@'@)@!@~@O+x D U U {@c+]@g @@6+;+U..+        ",
"          p+^@/@[ K (.8.T % {.l (@_@:@<@[@}@|@1@2@3@4@c+$+2+>.( # K.K.@.5@3.0         ",
"          6+-.O.6@[ a.{.O 9 T.(+N : 7@ +B+8@b.9@0@a@b@c@0 d@d@}.c+_+<+e@f@m.          ",
"          K.N ,.p.2.7.g@].9 X a+a+, * B+h@} U.F.Q+i@j@k@/.-+l@m@n@o@p@b@q@A.r@        ",
"          E | P.O 9+6@a.s@U P * ,+E Z m.( 0 M J t@g u@v@w@x@m.8+y@L.-+z@J.A@B@C@      ",
"        D@E@y X T.Y z l Z F@2+ +q 1 h@A ( i._ g i t@V.f _ ]@e G@-+H@+@+.I@J@K@L@M@    ",
"      N@O@P@Q@R@1+Y.` 1+Z  .h@c+}.B+G L.0 4 S@>+#.g.j @@J 4+T@S@>+>+U.U@V@W@W@X@Y@    ",
"      Z@`@ #.#/. .i.L.<+y P+}.B.K.k L m.4 +#V.6+j j g J @###$#%#&#L *#W@J@W@=#-#;#    ",
"      >#,#'#)#!#~#{#k A <+K.[+&.M J.+.]#^#/#(#_#:#<#[#}#|#1#2#3#4#5#6#J@7#8#9#0#      ",
"      a#b#c#d#e#f#g#h#i#j#k#l#m#q+n#Z+o#4+p#q#r#s#t#u#v#w#x#y#z#A#B#C#D#E#F#G#        ",
"          H#I#J#K#L#M#N#O#P#Q#6+F.J.g.j S@r#R#S#T#U#V#W#X#Y#W@Z#`# $.$+$@$            ",
"              #$$$%$&$*$=$-$;$>$i#,$B i i i ! #.#.  . '$X@)$x#!$~${$]$                ",
"                    ^$/$($_$:$<$[$                  . }$|$1$2$3$4$                    ",
"                                                      . . 5$                          "};
