/* XPM */
static xpm_row_t const  spike_falling_xpm[] = {
"32 48 513 2",
"  	c None",
". 	c #CBCECF",
"+ 	c #D0D1D4",
"@ 	c #CFD9DD",
"# 	c #D8E0E4",
"$ 	c #E1E8EB",
"% 	c #DEE6EA",
"& 	c #E0E8EA",
"* 	c #F0F7FA",
"= 	c #ECF6FA",
"- 	c #D1EAF3",
"; 	c #CBE5EF",
"> 	c #F5FAFB",
", 	c #F6FAFC",
"' 	c #F3F8F9",
") 	c #EDF2F5",
"! 	c #F7FBFD",
"~ 	c #F5F9FB",
"{ 	c #F1F6F9",
"] 	c #F2F7FA",
"^ 	c #9E9EA0",
"/ 	c #ADC1C7",
"( 	c #B2C2C8",
"_ 	c #D1E3E9",
": 	c #DDEBF1",
"< 	c #E5EFF3",
"[ 	c #F2F8FA",
"} 	c #DCE9EE",
"| 	c #BDE0ED",
"1 	c #B5C7CD",
"2 	c #E8ECEE",
"3 	c #F0F5F6",
"4 	c #E1E6E9",
"5 	c #C3CBCF",
"6 	c #C8D3D8",
"7 	c #D6E2E6",
"8 	c #D3E7EF",
"9 	c #D4E3E8",
"0 	c #D5DEE1",
"a 	c #E6EBEE",
"b 	c #E7ECEF",
"c 	c #E5EDF1",
"d 	c #95ACB5",
"e 	c #3F6B7B",
"f 	c #39515F",
"g 	c #A1A1A1",
"h 	c #B0BEC2",
"i 	c #A8B9BE",
"j 	c #C0DDE6",
"k 	c #D6EAF2",
"l 	c #E8F3F8",
"m 	c #DEEBF0",
"n 	c #D6E5EC",
"o 	c #B8C8CE",
"p 	c #D1D4D7",
"q 	c #D8DEE0",
"r 	c #DFE4E7",
"s 	c #DBE3E5",
"t 	c #B6C3C8",
"u 	c #A5B6BB",
"v 	c #9C9FA0",
"w 	c #A2B4BC",
"x 	c #A2BEC8",
"y 	c #CAD2D4",
"z 	c #DDE3E5",
"A 	c #CDD6D9",
"B 	c #81A4AF",
"C 	c #306374",
"D 	c #9CACB2",
"E 	c #A9C2C9",
"F 	c #C2E9F6",
"G 	c #D1EEF7",
"H 	c #EEF8FC",
"I 	c #F1F4F5",
"J 	c #F0F8FA",
"K 	c #D8E3E8",
"L 	c #C0D0D4",
"M 	c #D6DCDE",
"N 	c #DEE6E8",
"O 	c #D3E3E7",
"P 	c #C5DAE1",
"Q 	c #BFD3D9",
"R 	c #BACAD0",
"S 	c #A9ABAD",
"T 	c #BBBBBD",
"U 	c #DAE0E2",
"V 	c #DCE2E4",
"W 	c #CED7DA",
"X 	c #83A3AF",
"Y 	c #397589",
"Z 	c #2A5C6E",
"` 	c #8A8A8A",
" .	c #C5D8DD",
"..	c #D2ECF4",
"+.	c #D5F0F7",
"@.	c #EDF2F3",
"#.	c #DEE9EE",
"$.	c #CDD5D7",
"%.	c #DFE5E7",
"&.	c #E2E8EA",
"*.	c #CAE2EA",
"=.	c #C4E1EA",
"-.	c #C8E3EE",
";.	c #C6CED2",
">.	c #C0C9CE",
",.	c #7FA4B1",
"'.	c #467F92",
").	c #1C424E",
"!.	c #7D7D7D",
"~.	c #A4B0B4",
"{.	c #C6E2EA",
"].	c #D4EFF8",
"^.	c #E7F5F9",
"/.	c #F3F9FB",
"(.	c #E9EEEF",
"_.	c #EBF1F3",
":.	c #C5DEE5",
"<.	c #93C3D5",
"[.	c #97CADD",
"}.	c #40778C",
"|.	c #204A5A",
"1.	c #A6A6A6",
"2.	c #CCDDE2",
"3.	c #DAEEF4",
"4.	c #DBF2F9",
"5.	c #DEF2F8",
"6.	c #D0EFF8",
"7.	c #E2EDF0",
"8.	c #B6E6F4",
"9.	c #AFE1EF",
"0.	c #DEEBEE",
"a.	c #D5E7ED",
"b.	c #94C7D8",
"c.	c #74BAD4",
"d.	c #8DCCE1",
"e.	c #A1D7EB",
"f.	c #B4E0EE",
"g.	c #7AA7B6",
"h.	c #3D7083",
"i.	c #245364",
"j.	c #D7D7D7",
"k.	c #E3F5FB",
"l.	c #BCE8F6",
"m.	c #BDE7F5",
"n.	c #AEE6F6",
"o.	c #A7E4F5",
"p.	c #96DFF4",
"q.	c #9BDDF3",
"r.	c #93D5EB",
"s.	c #76C7E2",
"t.	c #84C9E2",
"u.	c #BEE8F4",
"v.	c #9AC1CE",
"w.	c #75A5B5",
"x.	c #3A7084",
"y.	c #26596A",
"z.	c #B0B0B0",
"A.	c #BAD1D8",
"B.	c #C5ECF7",
"C.	c #BAE6F4",
"D.	c #92DDF2",
"E.	c #91DEF5",
"F.	c #99E1F5",
"G.	c #85D6F1",
"H.	c #68CAEE",
"I.	c #77D7F3",
"J.	c #7ED4F0",
"K.	c #9ED4E6",
"L.	c #A9DDF1",
"M.	c #B4C6CC",
"N.	c #95C1D1",
"O.	c #6295A8",
"P.	c #377085",
"Q.	c #295C6D",
"R.	c #919191",
"S.	c #B5C2C5",
"T.	c #CCEEF8",
"U.	c #B6E5F4",
"V.	c #96DAEE",
"W.	c #98DEF2",
"X.	c #8EDDF4",
"Y.	c #78D8F4",
"Z.	c #72D7F4",
"`.	c #9BD9ED",
" +	c #B7E1EF",
".+	c #89B9C9",
"++	c #54879A",
"@+	c #2D6375",
"#+	c #B4B4B4",
"$+	c #D4E4E8",
"%+	c #CEEEF8",
"&+	c #C0EAF6",
"*+	c #A1D9EB",
"=+	c #BFE3EF",
"-+	c #9AE0F4",
";+	c #83DCF5",
">+	c #75D1EF",
",+	c #76CCEC",
"'+	c #9AD4EA",
")+	c #66B7DC",
"!+	c #7DADC3",
"~+	c #7098A6",
"{+	c #467B8E",
"]+	c #2B6175",
"^+	c #C5C5C5",
"/+	c #D9F2F9",
"(+	c #B6E3F4",
"_+	c #89CFE9",
":+	c #C0E4F0",
"<+	c #BBE6F5",
"[+	c #AAE3F4",
"}+	c #A9DFEF",
"|+	c #A5D8EB",
"1+	c #A0D6EA",
"2+	c #64AFD2",
"3+	c #82B0C6",
"4+	c #719EB1",
"5+	c #548496",
"6+	c #386E82",
"7+	c #265B6E",
"8+	c #E7F6F9",
"9+	c #C2E7F4",
"0+	c #8BD0E9",
"a+	c #A6D6EA",
"b+	c #CDE7F1",
"c+	c #D3EAF3",
"d+	c #D9EAEF",
"e+	c #BFE4EF",
"f+	c #A4D8EC",
"g+	c #7AB7D4",
"h+	c #6CAECC",
"i+	c #76AEC8",
"j+	c #689CB2",
"k+	c #4E7E90",
"l+	c #366C7E",
"m+	c #285A6C",
"n+	c #D1D1D1",
"o+	c #F3F6F7",
"p+	c #9DD6ED",
"q+	c #7CC9E6",
"r+	c #90CBE4",
"s+	c #CAE5F0",
"t+	c #E0EFF4",
"u+	c #E3F0F3",
"v+	c #DCECF2",
"w+	c #96D2E8",
"x+	c #8AC1D8",
"y+	c #74B7D6",
"z+	c #6090A4",
"A+	c #41707F",
"B+	c #3E7184",
"C+	c #DFDFDF",
"D+	c #C6E3F0",
"E+	c #90CBE6",
"F+	c #6FAECB",
"G+	c #A8D4E4",
"H+	c #BFE1EF",
"I+	c #DBEFF5",
"J+	c #E6F1F4",
"K+	c #C9E7EF",
"L+	c #A2D8EC",
"M+	c #89C7E1",
"N+	c #78B6D0",
"O+	c #7E9DAA",
"P+	c #557F91",
"Q+	c #4D7C8D",
"R+	c #618D9D",
"S+	c #E6E6E6",
"T+	c #B8DBEA",
"U+	c #84BCD4",
"V+	c #89B2C5",
"W+	c #BBDDEB",
"X+	c #B9DFEF",
"Y+	c #D6EBF4",
"Z+	c #E6F0F4",
"`+	c #BAE4F0",
" @	c #80C1DC",
".@	c #9BC5D3",
"+@	c #76A3B4",
"@@	c #508394",
"#@	c #548394",
"$@	c #6B92A1",
"%@	c #8FA6B1",
"&@	c #77A7BB",
"*@	c #BCCBD2",
"=@	c #C1E2EF",
"-@	c #E2F0F4",
";@	c #D7ECF5",
">@	c #E4F0F4",
",@	c #CDE5ED",
"'@	c #81C3DB",
")@	c #ADD0DD",
"!@	c #83AAB7",
"~@	c #558597",
"{@	c #5A8696",
"]@	c #608796",
"^@	c #8EB0C0",
"/@	c #C1CFD5",
"(@	c #D5E3E9",
"_@	c #DAE5EA",
":@	c #E2E9EC",
"<@	c #E1EFF3",
"[@	c #CCE6EE",
"}@	c #94CFE2",
"|@	c #94C8DE",
"1@	c #97BACB",
"2@	c #86B3C4",
"3@	c #5B8A9B",
"4@	c #598393",
"5@	c #5B818F",
"6@	c #ECECEC",
"7@	c #F2F3F4",
"8@	c #E5E8E9",
"9@	c #DCDDDE",
"0@	c #D9E0E3",
"a@	c #CEE8F0",
"b@	c #AEDEEE",
"c@	c #8CCBE6",
"d@	c #82BBD2",
"e@	c #7CA6B8",
"f@	c #558191",
"g@	c #57808F",
"h@	c #EEEEEE",
"i@	c #E8EBEC",
"j@	c #C9C9C9",
"k@	c #DAE9EE",
"l@	c #D4E8EE",
"m@	c #D6EBF2",
"n@	c #C7EAF5",
"o@	c #99D3E9",
"p@	c #73B7D3",
"q@	c #75B5D3",
"r@	c #6E9BAE",
"s@	c #5D8593",
"t@	c #E8E8E8",
"u@	c #EAEEF0",
"v@	c #D4DDE0",
"w@	c #BCD1D8",
"x@	c #C5D7DD",
"y@	c #CEE4EC",
"z@	c #D5E9F1",
"A@	c #D8E9EE",
"B@	c #91C9DD",
"C@	c #73B7D7",
"D@	c #72B6D6",
"E@	c #94B2BA",
"F@	c #648E9C",
"G@	c #507C8C",
"H@	c #537E8D",
"I@	c #DEDEDE",
"J@	c #ECF1F4",
"K@	c #D2E2E8",
"L@	c #B0D6E2",
"M@	c #B8D0D8",
"N@	c #D0E3EA",
"O@	c #CDE6ED",
"P@	c #9ACDE0",
"Q@	c #62B5DC",
"R@	c #85B9CF",
"S@	c #88A9B6",
"T@	c #5C8696",
"U@	c #517D8B",
"V@	c #497585",
"W@	c #DADADA",
"X@	c #EFF8FB",
"Y@	c #D4ECF4",
"Z@	c #A9D9E9",
"`@	c #BBE0ED",
" #	c #D6E8EE",
".#	c #BBE2EF",
"+#	c #64B6D8",
"@#	c #95BDCB",
"##	c #72A2B6",
"$#	c #548190",
"%#	c #4B7E93",
"&#	c #426E7E",
"*#	c #D6D6D6",
"=#	c #E3E1E2",
"-#	c #D1EFF7",
";#	c #8ED5EC",
">#	c #94D6EC",
",#	c #BCE2EE",
"'#	c #D0E6F0",
")#	c #7FB3C9",
"!#	c #659EB5",
"~#	c #4B859B",
"{#	c #4888A2",
"]#	c #CCEFF8",
"^#	c #82D4EC",
"/#	c #7DCAE3",
"(#	c #A5D7E7",
"_#	c #ADDBEB",
":#	c #5FB2D5",
"<#	c #72AFC8",
"[#	c #5C99B2",
"}#	c #4B94B3",
"|#	c #46839C",
"1#	c #BED3D8",
"2#	c #81D2ED",
"3#	c #87CFE7",
"4#	c #B0DDEC",
"5#	c #8DD8ED",
"6#	c #7ED3EC",
"7#	c #57A6CB",
"8#	c #417385",
"9#	c #CBD6D9",
"0#	c #A6DFF2",
"a#	c #B3DFEF",
"b#	c #A5E0F1",
"c#	c #7AD7F2",
"d#	c #7AD1EA",
"e#	c #569DBA",
"f#	c #467C92",
"g#	c #3F6F83",
"h#	c #EAEAEA",
"i#	c #E1EAED",
"j#	c #DCF2F8",
"k#	c #D3EBF3",
"l#	c #91DDF3",
"m#	c #79D3ED",
"n#	c #76AAC2",
"o#	c #6392A5",
"p#	c #447A8E",
"q#	c #E5E5E5",
"r#	c #EDF6F9",
"s#	c #DEF1F6",
"t#	c #86DAF2",
"u#	c #7CD8F2",
"v#	c #82A4B2",
"w#	c #5B95AD",
"x#	c #3C6F82",
"y#	c #D9D9D9",
"z#	c #F7FAFB",
"A#	c #9AD4EC",
"B#	c #7CCEEC",
"C#	c #79D8F3",
"D#	c #72B2CC",
"E#	c #7FA8B7",
"F#	c #81A1AD",
"G#	c #5A8C9E",
"H#	c #386172",
"I#	c #B6B6B6",
"J#	c #FAFAFA",
"K#	c #A4D8EE",
"L#	c #7CCCEA",
"M#	c #75D7F3",
"N#	c #72A4B6",
"O#	c #82A2AE",
"P#	c #678D9B",
"Q#	c #9C9C9C",
"R#	c #F7F9F9",
"S#	c #A8D9EE",
"T#	c #77CBEB",
"U#	c #70CCEA",
"V#	c #6B9DAF",
"W#	c #7CA0AC",
"X#	c #608594",
"Y#	c #9B9B9B",
"Z#	c #BDE2F1",
"`#	c #80CBEA",
" $	c #7BCAE7",
".$	c #6A93A2",
"+$	c #7B9CA9",
"@$	c #A7A7A7",
"#$	c #F8FAFA",
"$$	c #BCE1F0",
"%$	c #8ED3EC",
"&$	c #89D2E7",
"*$	c #66909E",
"=$	c #7797A3",
"-$	c #F8F9FA",
";$	c #CCE8F2",
">$	c #8ACEEA",
",$	c #D7EBF1",
"'$	c #9CD2E8",
")$	c #95C9DD",
"!$	c #5491AA",
"~$	c #5E8594",
"{$	c #E6ECF0",
"]$	c #A5D5E7",
"^$	c #71AEC5",
"/$	c #5292AC",
"($	c #5C8392",
"_$	c #F6F6F6",
":$	c #E6F0F2",
"<$	c #B0DCEA",
"[$	c #75AEC1",
"}$	c #4F9EBF",
"|$	c #598291",
"1$	c #E6E7E8",
"2$	c #C0E6F0",
"3$	c #507988",
"4$	c #E0E1E2",
"5$	c #BEE5F0",
"6$	c #4D9FC1",
"7$	c #3E7186",
"8$	c #D7D7D9",
"9$	c #B8E1F0",
"0$	c #42849C",
"a$	c #3E6D7E",
"b$	c #BCBDBE",
"c$	c #AEC8D0",
"d$	c #417689",
"e$	c #497385",
"f$	c #BABABA",
"g$	c #BFCFD5",
"h$	c #537F8F",
"i$	c #35697D",
"j$	c #477383",
"k$	c #BDBEBF",
"l$	c #537987",
"m$	c #9C9D9E",
"n$	c #A0ADB2",
"    . + @ # $ % & * = - ;     > , ' ) > ! ! , ~ { ]             ",
"      ^ / ( _ : < [ } | 1 $ 2 3 3 4 5 6 7 8 9 0 a b c d e f     ",
"      g h i j k l 2 m n o p q r s t u v w x   y z A B C         ",
"        D E F G H I J K L   M N O P Q R S T U V W X Y Z         ",
"        `  ...+.H > @.#.$.%.&.    *.=.-.  ;.>.  ,.'.).          ",
"        !.~.{.].^./.(._.:.s     <.[.              }.|.          ",
"        1.2.3.4.5.6.7.8.9.0.a.b.c.d.e.f.        g.h.i.          ",
"          j.k.6.l.m.n.o.p.q.r.s.t.    u.      v.w.x.y.          ",
"          z.A.B.C.D.E.F.G.H.I.J.K.  L.  M.    N.O.P.Q.          ",
"          R.S.T.U.V.W.X.Y.Z.Y.`. +            .+++@+            ",
"          #+$+%+&+*+=+-+;+>+,+'+  )+        !+~+{+]+            ",
"            ^+/+(+_+:+<+[+}+|+1+  2+      3+4+5+6+7+            ",
"            ^+8+9+0+a+b+c+d+e+f+g+h+      i+j+k+l+m+            ",
"            n+o+p+q+r+s+t+u+v+w+x+  y+      z+A+B+              ",
"            C+D+E+F+G+H+I+J+K+L+M+N+      O+P+Q+R+              ",
"            S+T+U+V+W+X+Y+Z+`+   @.@      +@@@#@$@              ",
"              %@&@*@=@-@;@>@,@  '@)@      !@~@{@]@              ",
"              ^@/@(@_@:@3.<@[@}@|@      1@2@3@4@5@              ",
"              6@7@8@9@0@0.v+a@b@c@      d@e@f@g@                ",
"                h@i@j@0 k@l@m@n@o@  p@  q@r@  s@                ",
"                t@u@v@w@x@y@z@A@B@  C@D@E@F@G@H@                ",
"                I@J@K@L@M@N@d+O@P@  Q@R@S@T@U@V@                ",
"                W@X@Y@Z@`@ #d+.#    +#@###$#%#&#                ",
"                *#=#-#;#>#,#'#b@      )#!#~#{#                  ",
"                  C+]#^#/#(#_#      :#<#[#}#|#                  ",
"                  S+1#2#3#4#5#6#        7#  8#                  ",
"                  6@9#0#a#b#c#d#        e#f#g#                  ",
"                  h#i#j#k#l#c#m#      n#o#p#                    ",
"                    q#r#s#t#u#        v#w#x#                    ",
"                    y#z#A#B#C#    D#E#F#G#H#                    ",
"                    I#J#K#L#M#      N#O#P#                      ",
"                    Q#R#S#T#U#      V#W#X#                      ",
"                    Y#R#Z#`# $      .$+$                        ",
"                    @$#$$$%$&$      *$=$                        ",
"                      -$;$>$        P#                          ",
"                      J#,$'$)$    !$~$                          ",
"                      J#{$]$  ^$  /$($                          ",
"                      _$:$<$  [$  }$|$                          ",
"                        1$2$        3$                          ",
"                        4$5$    6$7$                            ",
"                        8$9$    0$a$                            ",
"                        b$c$    d$e$                            ",
"                        f$g$  h$i$j$                            ",
"                          k$  l$                                ",
"                          m$n$                                  ",
"                                                                ",
"                                                                ",
"                                                                "};
