/* XPM */
static xpm_row_t const spiky_dead_2_xpm[] = {
"43 42 577 2",
"  	c None",
". 	c #080808",
"+ 	c #646464",
"@ 	c #585858",
"# 	c #101010",
"$ 	c #9C9C9C",
"% 	c #C6C6C6",
"& 	c #7C7C7C",
"* 	c #060606",
"= 	c #000000",
"- 	c #7E7E7E",
"; 	c #CBCBCB",
"> 	c #BDBDBD",
", 	c #858585",
"' 	c #535353",
") 	c #1E1E1E",
"! 	c #141414",
"~ 	c #D5D5D5",
"{ 	c #9F9F9F",
"] 	c #929292",
"^ 	c #747474",
"/ 	c #555555",
"( 	c #272727",
"_ 	c #626262",
": 	c #CFCFCF",
"< 	c #BFBFBF",
"[ 	c #5E5E5E",
"} 	c #676767",
"| 	c #6D6D6D",
"1 	c #373737",
"2 	c #262626",
"3 	c #454545",
"4 	c #030303",
"5 	c #090909",
"6 	c #828282",
"7 	c #DBDBDB",
"8 	c #ADADAD",
"9 	c #515151",
"0 	c #414243",
"a 	c #272929",
"b 	c #353535",
"c 	c #2A2A2A",
"d 	c #2B2B2B",
"e 	c #242525",
"f 	c #151515",
"g 	c #131313",
"h 	c #0C0C0C",
"i 	c #171717",
"j 	c #191919",
"k 	c #3F3F3F",
"l 	c #777777",
"m 	c #3B3B3B",
"n 	c #313131",
"o 	c #3A3A3A",
"p 	c #3C3C3C",
"q 	c #4B4B4B",
"r 	c #6C6C6C",
"s 	c #6D6F6F",
"t 	c #363A3C",
"u 	c #1C1C1C",
"v 	c #161717",
"w 	c #020202",
"x 	c #121212",
"y 	c #616161",
"z 	c #8F8F8F",
"A 	c #161616",
"B 	c #393939",
"C 	c #737373",
"D 	c #838383",
"E 	c #848484",
"F 	c #505050",
"G 	c #494D4F",
"H 	c #333333",
"I 	c #111111",
"J 	c #CCCCCC",
"K 	c #C0C0C0",
"L 	c #434343",
"M 	c #2F2F2F",
"N 	c #303030",
"O 	c #ACACAC",
"P 	c #818181",
"Q 	c #939393",
"R 	c #565656",
"S 	c #A5A5A5",
"T 	c #B1B1B1",
"U 	c #7D7D7D",
"V 	c #808080",
"W 	c #888888",
"X 	c #8A8A8A",
"Y 	c #9E9E9E",
"Z 	c #959595",
"` 	c #696969",
" .	c #6A6A6A",
"..	c #656565",
"+.	c #4B4B4C",
"@.	c #202020",
"#.	c #4D4D4D",
"$.	c #A6A6A6",
"%.	c #E9E9E9",
"&.	c #7B7B7B",
"*.	c #636363",
"=.	c #848585",
"-.	c #B4B4B4",
";.	c #B0B0B0",
">.	c #8B8B8B",
",.	c #C9C9C9",
"'.	c #B7B7B7",
").	c #B3B3B3",
"!.	c #A8A8A8",
"~.	c #ABABAB",
"{.	c #A2A2A2",
"].	c #A1A1A1",
"^.	c #A4A4A4",
"/.	c #A7A7A7",
"(.	c #252525",
"_.	c #444444",
":.	c #E2E2E2",
"<.	c #DDDDDD",
"[.	c #383838",
"}.	c #5A5A5A",
"|.	c #858687",
"1.	c #B3B4B4",
"2.	c #BBBBBB",
"3.	c #D3D3D3",
"4.	c #D4D4D4",
"5.	c #D0D0D0",
"6.	c #C3C3C3",
"7.	c #B9B9B9",
"8.	c #AAAAAA",
"9.	c #A0A0A0",
"0.	c #9D9D9D",
"a.	c #323232",
"b.	c #DADADA",
"c.	c #E3E3E3",
"d.	c #DEDEDE",
"e.	c #1F1F1F",
"f.	c #4E4E4E",
"g.	c #838485",
"h.	c #B4B5B5",
"i.	c #999999",
"j.	c #404040",
"k.	c #CECECE",
"l.	c #C8C8C8",
"m.	c #CACACA",
"n.	c #C1C1C1",
"o.	c #B8B8B8",
"p.	c #9A9A9A",
"q.	c #606060",
"r.	c #D6D6D6",
"s.	c #D2D2D2",
"t.	c #BEBEBE",
"u.	c #868686",
"v.	c #343434",
"w.	c #050505",
"x.	c #0F0F0F",
"y.	c #414141",
"z.	c #525252",
"A.	c #C4C4C4",
"B.	c #D1D1D1",
"C.	c #979797",
"D.	c #8E8E8E",
"E.	c #232323",
"F.	c #C5C5C5",
"G.	c #B6B6B6",
"H.	c #181818",
"I.	c #1D1D1D",
"J.	c #242424",
"K.	c #494949",
"L.	c #4F4F4F",
"M.	c #474747",
"N.	c #545454",
"O.	c #D9D9D9",
"P.	c #D7D7D7",
"Q.	c #BCBCBC",
"R.	c #989898",
"S.	c #949494",
"T.	c #969696",
"U.	c #909090",
"V.	c #0B0B0B",
"W.	c #838484",
"X.	c #6B6B6B",
"Y.	c #4C4C4C",
"Z.	c #A9A9A9",
"`.	c #727272",
" +	c #767676",
".+	c #282828",
"++	c #5D5D5D",
"@+	c #E0E0E0",
"#+	c #686868",
"$+	c #A3A3A3",
"%+	c #9B9B9B",
"&+	c #717171",
"*+	c #2E2E2E",
"=+	c #2D2D2D",
"-+	c #1A1A1A",
";+	c #C2C2C2",
">+	c #919191",
",+	c #898989",
"'+	c #7A7A7A",
")+	c #575757",
"!+	c #0E0E0E",
"~+	c #464646",
"{+	c #363636",
"]+	c #9D9E9E",
"^+	c #8C8C8C",
"/+	c #7F7F7F",
"(+	c #212121",
"_+	c #5B5B5B",
":+	c #2F2F30",
"<+	c #595959",
"[+	c #878787",
"}+	c #797979",
"|+	c #3D3D3D",
"1+	c #4A4A4A",
"2+	c #676868",
"3+	c #898A8A",
"4+	c #5E5F5F",
"5+	c #2C2E2E",
"6+	c #262828",
"7+	c #2E2F2F",
"8+	c #484949",
"9+	c #707070",
"0+	c #6F6F6F",
"a+	c #161617",
"b+	c #444545",
"c+	c #525656",
"d+	c #646A6A",
"e+	c #636666",
"f+	c #787979",
"g+	c #424242",
"h+	c #111212",
"i+	c #242829",
"j+	c #58676A",
"k+	c #6D8387",
"l+	c #7B9094",
"m+	c #607477",
"n+	c #5C6668",
"o+	c #3B3D3D",
"p+	c #8D8D8D",
"q+	c #484848",
"r+	c #B5B5B5",
"s+	c #6A6D6D",
"t+	c #545757",
"u+	c #494F4F",
"v+	c #646B6C",
"w+	c #888C8D",
"x+	c #676969",
"y+	c #424646",
"z+	c #212425",
"A+	c #1A1E1E",
"B+	c #374041",
"C+	c #80A1A5",
"D+	c #96CCD3",
"E+	c #9CD6DE",
"F+	c #A0DAE2",
"G+	c #9AD0D8",
"H+	c #A0D4DB",
"I+	c #576C6F",
"J+	c #444E52",
"K+	c #8E8F8F",
"L+	c #C7C7C7",
"M+	c #0D0D0D",
"N+	c #2D2E2E",
"O+	c #414444",
"P+	c #717676",
"Q+	c #414849",
"R+	c #5E6A6C",
"S+	c #8A9DA0",
"T+	c #788F92",
"U+	c #A3C5CC",
"V+	c #93B4B9",
"W+	c #8EB3B8",
"X+	c #89B9BF",
"Y+	c #9DDAE2",
"Z+	c #A0DFE7",
"`+	c #A1E1EA",
" @	c #A1E2EB",
".@	c #A1E3EB",
"+@	c #A2E4EE",
"@@	c #7FB5BC",
"#@	c #566569",
"$@	c #7C7D7E",
"%@	c #AFAFAF",
"&@	c #2F3132",
"*@	c #6B6E6E",
"=@	c #757B7C",
"-@	c #525E60",
";@	c #83979B",
">@	c #A7C8CC",
",@	c #ABD5DB",
"'@	c #A8DCE3",
")@	c #A1D8E0",
"!@	c #9ED7E0",
"~@	c #9AD8E1",
"{@	c #9CDAE4",
"]@	c #9DDDE7",
"^@	c #9EDFE9",
"/@	c #9FE1EB",
"(@	c #9EE2EC",
"_@	c #9DE4ED",
":@	c #8ED2DB",
"<@	c #4A5F64",
"[@	c #7D8183",
"}@	c #757575",
"|@	c #888989",
"1@	c #3A3A3B",
"2@	c #5C5C5C",
"3@	c #2C2C2C",
"4@	c #363838",
"5@	c #626565",
"6@	c #566061",
"7@	c #7F9295",
"8@	c #A4C2C6",
"9@	c #AFD6DB",
"0@	c #98C5CC",
"a@	c #94C7D0",
"b@	c #92C9D3",
"c@	c #78B2BB",
"d@	c #85CBD5",
"e@	c #89D5E0",
"f@	c #8AD6E1",
"g@	c #8BD8E3",
"h@	c #8BD9E5",
"i@	c #8ADAE6",
"j@	c #88DBE8",
"k@	c #85DAE8",
"l@	c #466167",
"m@	c #797C7E",
"n@	c #757676",
"o@	c #878889",
"p@	c #575B5D",
"q@	c #666666",
"r@	c #0A0A0A",
"s@	c #313232",
"t@	c #252829",
"u@	c #8F9797",
"v@	c #92A6A8",
"w@	c #758A8E",
"x@	c #5E7276",
"y@	c #5D757B",
"z@	c #677E83",
"A@	c #597278",
"B@	c #466770",
"C@	c #4B767D",
"D@	c #75C3D0",
"E@	c #7DD4E2",
"F@	c #7FD6E5",
"G@	c #7FD8E7",
"H@	c #80DBE9",
"I@	c #81DCEB",
"J@	c #80DBEA",
"K@	c #3D5B61",
"L@	c #707578",
"M@	c #686869",
"N@	c #878888",
"O@	c #343535",
"P@	c #7A7C7D",
"Q@	c #A3A5A5",
"R@	c #C3C5C6",
"S@	c #C6C9C9",
"T@	c #C9CCCC",
"U@	c #C4C7C7",
"V@	c #8C9090",
"W@	c #5E676A",
"X@	c #39575B",
"Y@	c #57959F",
"Z@	c #6EBECB",
"`@	c #7CD7E6",
" #	c #7DDBEA",
".#	c #7EDCEB",
"+#	c #7ED8E7",
"@#	c #2C4145",
"##	c #4C5052",
"$#	c #59595A",
"%#	c #6E6E6E",
"&#	c #222222",
"*#	c #737575",
"=#	c #CECECF",
"-#	c #BEBFBF",
";#	c #A0A1A1",
">#	c #868C8D",
",#	c #586568",
"'#	c #3C555B",
")#	c #5C9CA8",
"!#	c #76CDDB",
"~#	c #74CBD8",
"{#	c #6CA4B0",
"]#	c #374043",
"^#	c #151718",
"/#	c #535556",
"(#	c #505456",
"_#	c #585959",
":#	c #474848",
"<#	c #3E3E3E",
"[#	c #CACACB",
"}#	c #E8E8E8",
"|#	c #767677",
"1#	c #777879",
"2#	c #5B6263",
"3#	c #485A5E",
"4#	c #384B4F",
"5#	c #363F42",
"6#	c #151516",
"7#	c #434748",
"8#	c #484E50",
"9#	c #4E4E4F",
"0#	c #4C4E4E",
"a#	c #545555",
"b#	c #494B4C",
"c#	c #3E4040",
"d#	c #BABABA",
"e#	c #7D7D7E",
"f#	c #525253",
"g#	c #141515",
"h#	c #5C5E5F",
"i#	c #45494A",
"j#	c #3A3B3C",
"k#	c #525353",
"l#	c #5A5E60",
"m#	c #5B5D5E",
"n#	c #575859",
"o#	c #4E4F50",
"p#	c #B6B7B7",
"q#	c #5F5F5F",
"r#	c #4B4C4C",
"s#	c #4D5051",
"t#	c #2B2C2C",
"u#	c #2D2D2E",
"v#	c #4E4F4F",
"w#	c #4F5050",
"x#	c #4B4E4F",
"y#	c #363738",
"z#	c #8F9090",
"A#	c #787878",
"B#	c #323334",
"C#	c #2C2D2D",
"D#	c #666767",
"E#	c #232424",
"F#	c #1C1D1D",
"G#	c #1D1E1E",
"H#	c #1B1B1B",
"I#	c #1C2022",
"J#	c #1A1C1D",
"K#	c #38393A",
"L#	c #383939",
"M#	c #2F3335",
"N#	c #191D1F",
"O#	c #120E0E",
"P#	c #1C1010",
"Q#	c #221817",
"R#	c #322520",
"S#	c #43322B",
"T#	c #2E2422",
"U#	c #241E1E",
"V#	c #2F1E1F",
"W#	c #201414",
"X#	c #1E1517",
"Y#	c #211313",
"Z#	c #4D4949",
"`#	c #181111",
" $	c #342525",
".$	c #482D2E",
"+$	c #412A2C",
"@$	c #381F20",
"#$	c #372020",
"$$	c #352224",
"%$	c #2E272A",
"&$	c #291919",
"*$	c #442121",
"=$	c #462021",
"-$	c #694139",
";$	c #8C6454",
">$	c #916353",
",$	c #652B29",
"'$	c #5B1D1D",
")$	c #521E1E",
"!$	c #501F1F",
"~$	c #541E1E",
"{$	c #432020",
"]$	c #2E2323",
"^$	c #352121",
"/$	c #4E1E1E",
"($	c #4C1F1F",
"_$	c #3F2020",
":$	c #382020",
"<$	c #271818",
"[$	c #331E1C",
"}$	c #733530",
"|$	c #3E211E",
"1$	c #8E6654",
"2$	c #A77862",
"3$	c #A97D66",
"4$	c #906050",
"5$	c #713931",
"6$	c #5D1D1D",
"7$	c #621D1D",
"8$	c #631E1E",
"9$	c #6F1D1D",
"0$	c #371010",
"a$	c #171313",
"b$	c #110F0F",
"c$	c #1A1414",
"d$	c #231B19",
"e$	c #734338",
"f$	c #692523",
"g$	c #662D29",
"h$	c #392020",
"i$	c #2A2222",
"j$	c #140C0C",
"k$	c #814F42",
"l$	c #A77661",
"m$	c #925A4C",
"n$	c #824C41",
"o$	c #592524",
"p$	c #581D1D",
"q$	c #612324",
"r$	c #6E2020",
"s$	c #721F1F",
"t$	c #711E1E",
"u$	c #4A1414",
"v$	c #260B0B",
"w$	c #72201F",
"x$	c #833832",
"y$	c #925245",
"z$	c #661D1D",
"A$	c #5C1C1C",
"B$	c #1C0C0C",
"C$	c #451717",
"D$	c #7A322D",
"E$	c #712624",
"F$	c #803832",
"G$	c #833933",
"H$	c #843A34",
"I$	c #7C2E2B",
"J$	c #792927",
"K$	c #7C2D2A",
"L$	c #7E312C",
"M$	c #752423",
"N$	c #330E0E",
"O$	c #76483C",
"P$	c #AA735E",
"Q$	c #A56B58",
"R$	c #A66C59",
"S$	c #A86F5B",
"T$	c #9D5F4F",
"U$	c #701E1E",
"V$	c #0C0303",
"W$	c #845345",
"X$	c #A8705C",
"Y$	c #C19578",
"Z$	c #B9896F",
"`$	c #B9886E",
" %	c #B8876D",
".%	c #B9876E",
"+%	c #BE8F74",
"@%	c #BF9275",
"#%	c #BD8E73",
"$%	c #BF9376",
"%%	c #634E3F",
"&%	c #3A3228",
"*%	c #6C5947",
"=%	c #5B4A3B",
"-%	c #504134",
";%	c #544436",
">%	c #382B22",
",%	c #0E0605",
"'%	c #35201B",
")%	c #362921",
"!%	c #27221B",
"~%	c #26211A",
"{%	c #2B251D",
"]%	c #38271F",
"^%	c #2E221B",
"/%	c #28100E",
"(%	c #3E251F",
"_%	c #35231C",
":%	c #17140F",
"                                      . + @                                           ",
"                                    # $ % & *                                         ",
"                                  = - ; > , ' )                                       ",
"                                  ! $ ~ { ] ^ / (                                     ",
"                                = _ : < [ } | 1 2 3                                   ",
"                              4 5 6 7 8 9 } } 0 a b c d e                             ",
"                        f g h i j k l 9 m n o p q | r s t u v                         ",
"          = w h * w * x b _ y z ' # # A 2 B 9 C D E | F | y G H I                     ",
"          J K L M M N & O P Q | R S T U V ^ E W X ] Y Z `  ...+.@.I #.B g             ",
"        = $.%.&.M *.=.-.;.>.C + ,.,.'.).;.!.~.{.].^./.Z q (._.>.J :.<.$.[.            ",
"        = m M }._ |.1.2.O + 1 3.4.5.3.5.; 6.7.8.9.0.>.a.^ b.%.c.d.: P b e.            ",
"          = g f.g.h.7.,.i.j.X 5.k.l.m.; % n.o.!.{ p.].q.7.r.m.s.t.u.v.. .             ",
"          w.x.u B M y.z.' k A.r.B.m.% 6.> '.O { C.C.D.E.$ t.F.G.].9 ) H.I.J.          ",
"          N K.L.M.z.q.N.M A @ O.P.B.l.Q.T !.{ R.S.T.U.J.L.$ { /.& N J.M M.c c         ",
"        V.@.W.).K 8 Q $ X.Y.o Q O.: A.G.Z.{ $ $ p.C.C.`.[.R  +6 n 1 (._ 9 .+d         ",
"        # ` q ++c.@+o.2.< #+( W r.6.> ;.$+%+%+$ $ p.C.C.&+B K.1 a._.} ` R *+=+        ",
"        -+l %+N r O.:.m.r.M.M S.O.;+T $.{ $ %+%+%+p.C.Z T.>+,+'+X.X &.` )+p 2         ",
"      !+e.P R.p.k ~+T s.D {+} l.k.K ;./.].].{ ]+9.{ $ R.T.>+z z ^+/+..` }.F (+_+      ",
"      A :+D.B.T.p.<+e.[./ [+/+Z./.$+0.W }+[+C.S.C.T.C.Z U.X P &.++A h E.|+k .+1+      ",
"      # f [.}.2+=.3+X.9 [+++] - 4+5+6+7+8+[.9+^+^+>.^+z D.X | p }+& 0+<+3 . V.[.      ",
"      * a+b+c+d+e+@ 6 |.f+g+h+i+j+k+l+m+n+o+n ` E E ,+p+D.X q+)+$.2.;+< r+)._+u !     ",
"    = V.H.s+t+u+v+w+x+y+z+A+B+C+D+E+F+G+H+I+J+_ ^ /+u.p+K+X [.0+>.$ o.< ,.L+K 9.Y.E.  ",
"  = M+p N+O+P+Q+R+S+T+U+V+W+X+Y+Z+`+ @.@+@@@#@$@ +'+[+p+D.X v.& }+r 6 Z ^.%@O 8.Z.|+=+",
"  x }.<+&@*@=@-@;@>@,@'@)@!@~@{@]@^@/@(@_@:@<@[@l }@6 p+D.|@1@[ 2@*._ ++..*.#.9 d H 3@",
"  g L / 4@5@6@7@8@9@0@a@b@c@d@e@f@g@h@i@j@k@l@m@n@`.'+^+D.o@p@#.y.R q@1 k j.j.n r@n   ",
"    n *+s@t@u@v@w@x@y@z@A@B@C@D@E@F@G@H@I@J@K@L@ .M@}@, ^+N@r {+k N.3@j x.# x ) w.    ",
"      A (+p O@P@Q@R@S@T@U@V@W@X@Y@Z@`@ #.#+#@###$#p@_ C V V %#2@=+g x.&#*+d 1 !       ",
"        j a.*#=#O.-.G.A.-#/.;#>#,#'#)#!#~#{#]#^#/#(#_#2@#+0++ <+@ 1+1+#.:#1 q+        ",
"          <#[#}#< L+J 7.T !.^.l |#1#2#3#4#5#a.6#7#8#9#0#9 a#a#}.2@_+/ b#c#k z.        ",
"          J.;.P.d#< 0.^.O 8 U./+& }+e#`.[ f#a.E.g#h#i#j#_.K.k#l#m#n#o#o#( y.          ",
"          1+& ,.% 2.6.p#/.8 Y , , u.U [ q#N.d I -+g r#s#t#u#j.q+v#w#x#y#J.@           ",
"          6 + Q.O r+d#0.z#V P U A#D ` j.<+9 N I i -+M+@..+=+t#B#1+_.C#(+H q.          ",
"          ^ _ Y U.Z z l ` D#0+`.| r q#' <+f..+g i -+j x.! E#F#G#H#H#d M.K.            ",
"          B _ y 9+X. .9+_ [ q#2@}.[ F L.9 3 I.H#! ) j x.! h+I#J#K#b #.K.              ",
"            _ _...f.L./ y R )+z.1+k {+j.3 L#M+&#i i # # !+h+I#J#K#{+f.                ",
"              _+F ( k L./ 1+1 =+N J.(+M#N#O#P#Q#R#S#T#U#V#W#X#Y#Z#r                   ",
"                J.c g `# $.$+$@$#$$$%$!+&$*$=$-$;$>$,$'$)$!$~${$]$                    ",
"                      ^$/$~$)$($_$:$<$[$}$|$1$2$3$4$5$6$7$8$9$0$a$b$                  ",
"                    c$d$e$f$g$h$i$]$b$j$k$l$m$n$o$p$q$r$s$s$t$u$=                     ",
"                      v$w$x$y$z$6$A$B$C$D$E$F$G$G$H$I$J$K$L$M$N$= =                   ",
"                      O$P$Q$R$S$T$U$V$W$X$Y$Z$`$ %.%+%@%#%@%$%%%=                     ",
"                      &%*%=%-%;%>%V$= = ,%'%)%!%~%{%]%^%/%(%_%:%                      "};
