/* XPM */
static xpm_row_t const spike_broken_xpm[] = {
"32 48 263 2",
"  	c None",
". 	c #D6EDF4",
"+ 	c #D3EBF3",
"@ 	c #B3DDEB",
"# 	c #B4C3C8",
"$ 	c #C1C4C5",
"% 	c #D0D3D4",
"& 	c #D4D5D6",
"* 	c #EFEFEF",
"= 	c #E6F4F8",
"- 	c #CFE3E9",
"; 	c #8AABB6",
"> 	c #AABFC6",
", 	c #C6D6DC",
"' 	c #F4F6F8",
") 	c #F0F3F4",
"! 	c #DEEDF2",
"~ 	c #B6DBE6",
"{ 	c #C4E1E8",
"] 	c #E2F1F6",
"^ 	c #F8FBFC",
"/ 	c #F7F7F7",
"( 	c #F4F7F8",
"_ 	c #91BDCB",
": 	c #89B4C1",
"< 	c #8FB3BF",
"[ 	c #85ACB9",
"} 	c #C5D7DD",
"| 	c #F7F9FB",
"1 	c #F2F5F8",
"2 	c #DAECF2",
"3 	c #B3D5DF",
"4 	c #8AB9C6",
"5 	c #B0CBD2",
"6 	c #D6E0E4",
"7 	c #DCECF0",
"8 	c #D3E4E9",
"9 	c #F8F8F8",
"0 	c #F9FBFB",
"a 	c #EFF5F7",
"b 	c #A7D7E5",
"c 	c #8FCADB",
"d 	c #8BB5C3",
"e 	c #80A8B6",
"f 	c #BED3DA",
"g 	c #E3EEF3",
"h 	c #B2D9E6",
"i 	c #96C6D6",
"j 	c #7FACBB",
"k 	c #86B6C6",
"l 	c #B3D0D9",
"m 	c #D9DFE1",
"n 	c #B0CED8",
"o 	c #99BFCB",
"p 	c #CCDEE4",
"q 	c #DCE9EC",
"r 	c #C9E3EB",
"s 	c #B2D7E2",
"t 	c #89C0D3",
"u 	c #7AA7B6",
"v 	c #F0F5F8",
"w 	c #F3F7F9",
"x 	c #F5F8F9",
"y 	c #F0F4F6",
"z 	c #CCE1E8",
"A 	c #8EB9C8",
"B 	c #76A8B8",
"C 	c #6EA1B2",
"D 	c #9AB6C0",
"E 	c #D7DFE1",
"F 	c #B8CCD2",
"G 	c #80AAB8",
"H 	c #B1CED7",
"I 	c #F7FAFB",
"J 	c #B7D8E3",
"K 	c #83B6C7",
"L 	c #B1CBD3",
"M 	c #EEF5F8",
"N 	c #EAF1F4",
"O 	c #7BA5B3",
"P 	c #679FB1",
"Q 	c #6AA4B4",
"R 	c #639EB1",
"S 	c #759EAB",
"T 	c #B0C0C4",
"U 	c #D2DBDE",
"V 	c #A5BEC5",
"W 	c #C0DAE2",
"X 	c #E2EFF4",
"Y 	c #9BB6BF",
"Z 	c #82A5B0",
"` 	c #81A4AF",
" .	c #6BA0B1",
"..	c #A9D4E1",
"+.	c #B8DDEA",
"@.	c #D2EAF2",
"#.	c #F0F7FA",
"$.	c #F1F7F9",
"%.	c #DFECF1",
"&.	c #80A7B4",
"*.	c #90BAC6",
"=.	c #6BA2B5",
"-.	c #6DA6B9",
";.	c #589BAE",
">.	c #659AAB",
",.	c #7F9DA7",
"'.	c #B0BFC4",
").	c #BFCED3",
"!.	c #98B2BA",
"~.	c #9CB9C2",
"{.	c #D3E5EB",
"].	c #FCFCFC",
"^.	c #F1F4F5",
"/.	c #D8E3E6",
"(.	c #A0BAC4",
"_.	c #93B1BB",
":.	c #639DAD",
"<.	c #73A6B7",
"[.	c #7EB7C8",
"}.	c #A5D7E5",
"|.	c #DDF1F7",
"1.	c #EFF8FB",
"2.	c #E6F1F6",
"3.	c #ADCED9",
"4.	c #679EB1",
"5.	c #6FA5B5",
"6.	c #7CAEBE",
"7.	c #8EB5C0",
"8.	c #88ACB6",
"9.	c #6595A5",
"0.	c #8EA8B0",
"a.	c #A9BDC3",
"b.	c #BCCDD2",
"c.	c #C8D8DC",
"d.	c #CFDDE1",
"e.	c #8BB4C1",
"f.	c #FEFEFE",
"g.	c #F9FCFD",
"h.	c #DDEDF3",
"i.	c #A9D2DD",
"j.	c #95C2D1",
"k.	c #7FA5B1",
"l.	c #5D98A9",
"m.	c #5C9EB4",
"n.	c #73B2C7",
"o.	c #9CD2E4",
"p.	c #CFEAF3",
"q.	c #C5DEE5",
"r.	c #67A3B7",
"s.	c #5192A7",
"t.	c #80A4AE",
"u.	c #A3C2CD",
"v.	c #BECFD4",
"w.	c #6D9CAB",
"x.	c #8BA8B1",
"y.	c #BFD2D9",
"z.	c #C5D5DB",
"A.	c #96AEB6",
"B.	c #6499AA",
"C.	c #5F98AB",
"D.	c #FDFDFD",
"E.	c #A9D5E1",
"F.	c #91C9DB",
"G.	c #7DB0C1",
"H.	c #64A0B2",
"I.	c #77A1AF",
"J.	c #57A2BB",
"K.	c #75AEC1",
"L.	c #9ACFDE",
"M.	c #91BAC5",
"N.	c #68A0B2",
"O.	c #5F97A9",
"P.	c #99ADB3",
"Q.	c #BFCFD5",
"R.	c #CDD9DD",
"S.	c #DFE4E5",
"T.	c #A1ADB1",
"U.	c #889AA0",
"V.	c #90A0A6",
"W.	c #B3CED7",
"X.	c #ABC8D1",
"Y.	c #7299A6",
"Z.	c #6191A1",
"`.	c #5E8B9C",
" +	c #D8D8D8",
".+	c #FAFCFC",
"++	c #EBF3F5",
"@+	c #BEDBE4",
"#+	c #86B6C4",
"$+	c #7BB0C1",
"%+	c #68A6B8",
"&+	c #68A4B8",
"*+	c #75AABB",
"=+	c #71A9BB",
"-+	c #71ADC1",
";+	c #82B5C4",
">+	c #6C9EAC",
",+	c #6199AB",
"'+	c #A3B5BB",
")+	c #D0D9DC",
"!+	c #C3CFD3",
"~+	c #AFC0C5",
"{+	c #ACBDC2",
"]+	c #ABBCC1",
"^+	c #AFC3C9",
"/+	c #77A4B3",
"(+	c #739DAB",
"_+	c #608F9E",
":+	c #5E8D9C",
"<+	c #E3E3E3",
"[+	c #F7F9F9",
"}+	c #DAEBF0",
"|+	c #D8EAF0",
"1+	c #BBD5DD",
"2+	c #66A1B4",
"3+	c #64A0B4",
"4+	c #5E9FB4",
"5+	c #5EA0B6",
"6+	c #74AABC",
"7+	c #80B9CA",
"8+	c #7AACBC",
"9+	c #5195AB",
"0+	c #6998A7",
"a+	c #A6B8BE",
"b+	c #84A0AA",
"c+	c #85A0A9",
"d+	c #89A1A9",
"e+	c #789EAA",
"f+	c #95ABB3",
"g+	c #95B0B9",
"h+	c #83A6B1",
"i+	c #5897AE",
"j+	c #5B91A3",
"k+	c #5A8A9A",
"l+	c #5C8C9C",
"m+	c #CAE9F4",
"n+	c #CEDCE0",
"o+	c #AFCCD5",
"p+	c #95C6D5",
"q+	c #89B8C7",
"r+	c #6AA0B2",
"s+	c #79A6B5",
"t+	c #63A1B5",
"u+	c #609FB4",
"v+	c #5B9DB3",
"w+	c #71A7B9",
"x+	c #86BFD2",
"y+	c #85BED1",
"z+	c #6AA8BC",
"A+	c #4D98B1",
"B+	c #6A96A4",
"C+	c #5F92A5",
"D+	c #4E8FA4",
"E+	c #588EA2",
"F+	c #6091A2",
"G+	c #628E9E",
"H+	c #66909E",
"I+	c #6C95A2",
"J+	c #588796",
"K+	c #548C9E",
"L+	c #56899A",
"M+	c #578797",
"N+	c #518393",
"                                                                ",
"                                                                ",
"                                                                ",
"                                                                ",
"                                                                ",
"                                                                ",
"                                                                ",
"                                                                ",
"                                                                ",
"                                                                ",
"                                                                ",
"                                                                ",
"                                                                ",
"                                                                ",
"                                                                ",
"                                                                ",
"                                                                ",
"                                                                ",
"                                                                ",
"                                                                ",
"                                                                ",
"                                                                ",
"                                                                ",
"                                                                ",
"                                                                ",
"                                                                ",
"                                                                ",
"                                                                ",
"                                                                ",
"                                                                ",
"                                                                ",
"                                                                ",
"                                                                ",
"                                                                ",
"                        . +                                     ",
"                      @ # $ %                                   ",
"                & * = - ; > , '   ) ! ~       { ]               ",
"              ^ / ( = _ : < [ } | 1 2 3 4   5 6 7 8             ",
"              9 0 a b c d e f   | g h i j k l m n o p q         ",
"                  r s t u f v w x y z A B C D E F G H I         ",
"                    J K C L   w M N O P Q R S T U V [ W X       ",
"            Y Z `  .  ..+.@.#.$.%.&.*.=.-.;.>.,.'.).!.~.{.      ",
"        ].^./.(._.:.<.[.}.|.1.2.3.P 4.5.6.7.8.9.0.a.b.c.d.e.    ",
"    f.f.f.g.h.i.j.k.l.m.n.o.p.q.P r.s.t.u.v.F w.9.x.y.z.A.B.C.  ",
"    f.D.  N E.F.G.H.I.  J.K.L.M.N.O.P.Q.R.S.m T.U.V.W.X.Y.Z.`.  ",
"   +].D..+++@+#+$+%+&+*+=+-+;+>+,+'+)+!+~+'.{+]+'.^+/+C (+_+:+  ",
"  <+[+a }+|+1+e 2+3+4+5+6+7+8+9+0+a+a+b+c+d+P e+f+g+h+i+j+k+l+  ",
"  m+n+o+p+q+r+s+t+4+u+v+w+x+y+z+A+B+C+D+E+F+G+H+I+9.J+K+L+M+N+  "};
