/* XPM */
static xpm_row_t const  spiky_dead_1_xpm[] = {
"43 42 410 2",
"  	c None",
". 	c #080808",
"+ 	c #646464",
"@ 	c #585858",
"# 	c #101010",
"$ 	c #9C9C9C",
"% 	c #C6C6C6",
"& 	c #7C7C7C",
"* 	c #060606",
"= 	c #000000",
"- 	c #7E7E7E",
"; 	c #CBCBCB",
"> 	c #BDBDBD",
", 	c #858585",
"' 	c #535353",
") 	c #1E1E1E",
"! 	c #141414",
"~ 	c #D5D5D5",
"{ 	c #9F9F9F",
"] 	c #929292",
"^ 	c #747474",
"/ 	c #555555",
"( 	c #272727",
"_ 	c #626262",
": 	c #CFCFCF",
"< 	c #BFBFBF",
"[ 	c #5E5E5E",
"} 	c #676767",
"| 	c #6D6D6D",
"1 	c #373737",
"2 	c #262626",
"3 	c #454545",
"4 	c #030303",
"5 	c #090909",
"6 	c #828282",
"7 	c #DBDBDB",
"8 	c #ADADAD",
"9 	c #515151",
"0 	c #414243",
"a 	c #272929",
"b 	c #353535",
"c 	c #2A2A2A",
"d 	c #282828",
"e 	c #202020",
"f 	c #151515",
"g 	c #131313",
"h 	c #0C0C0C",
"i 	c #171717",
"j 	c #191919",
"k 	c #3F3F3F",
"l 	c #777777",
"m 	c #3B3B3B",
"n 	c #313131",
"o 	c #3A3A3A",
"p 	c #3C3C3C",
"q 	c #4B4B4B",
"r 	c #6C6C6C",
"s 	c #6D6F6F",
"t 	c #363A3C",
"u 	c #181818",
"v 	c #0E0E0E",
"w 	c #020202",
"x 	c #010101",
"y 	c #121212",
"z 	c #616161",
"A 	c #8F8F8F",
"B 	c #161616",
"C 	c #393939",
"D 	c #737373",
"E 	c #838383",
"F 	c #848484",
"G 	c #505050",
"H 	c #494D4F",
"I 	c #111111",
"J 	c #CCCCCC",
"K 	c #C0C0C0",
"L 	c #434343",
"M 	c #2F2F2F",
"N 	c #303030",
"O 	c #ACACAC",
"P 	c #818181",
"Q 	c #939393",
"R 	c #565656",
"S 	c #A5A5A5",
"T 	c #B1B1B1",
"U 	c #7D7D7D",
"V 	c #808080",
"W 	c #888888",
"X 	c #8A8A8A",
"Y 	c #9E9E9E",
"Z 	c #959595",
"` 	c #696969",
" .	c #6A6A6A",
"..	c #656565",
"+.	c #4B4B4C",
"@.	c #4D4D4D",
"#.	c #A6A6A6",
"$.	c #E9E9E9",
"%.	c #7B7B7B",
"&.	c #636363",
"*.	c #848585",
"=.	c #B4B4B4",
"-.	c #B0B0B0",
";.	c #8B8B8B",
">.	c #C9C9C9",
",.	c #B7B7B7",
"'.	c #B3B3B3",
").	c #A8A8A8",
"!.	c #ABABAB",
"~.	c #A2A2A2",
"{.	c #A1A1A1",
"].	c #A4A4A4",
"^.	c #A7A7A7",
"/.	c #252525",
"(.	c #444444",
"_.	c #E2E2E2",
":.	c #DDDDDD",
"<.	c #383838",
"[.	c #5A5A5A",
"}.	c #858687",
"|.	c #B3B4B4",
"1.	c #BBBBBB",
"2.	c #D3D3D3",
"3.	c #D4D4D4",
"4.	c #D0D0D0",
"5.	c #C3C3C3",
"6.	c #B9B9B9",
"7.	c #AAAAAA",
"8.	c #A0A0A0",
"9.	c #9D9D9D",
"0.	c #323232",
"a.	c #DADADA",
"b.	c #E3E3E3",
"c.	c #DEDEDE",
"d.	c #1F1F1F",
"e.	c #4E4E4E",
"f.	c #838485",
"g.	c #B4B5B5",
"h.	c #999999",
"i.	c #404040",
"j.	c #CECECE",
"k.	c #C8C8C8",
"l.	c #CACACA",
"m.	c #C1C1C1",
"n.	c #B8B8B8",
"o.	c #9A9A9A",
"p.	c #606060",
"q.	c #D6D6D6",
"r.	c #D2D2D2",
"s.	c #BEBEBE",
"t.	c #868686",
"u.	c #343434",
"v.	c #040404",
"w.	c #0F0F0F",
"x.	c #1C1C1C",
"y.	c #414141",
"z.	c #525252",
"A.	c #C4C4C4",
"B.	c #D1D1D1",
"C.	c #979797",
"D.	c #8E8E8E",
"E.	c #232323",
"F.	c #C5C5C5",
"G.	c #B6B6B6",
"H.	c #1D1D1D",
"I.	c #242424",
"J.	c #494949",
"K.	c #4F4F4F",
"L.	c #474747",
"M.	c #545454",
"N.	c #D9D9D9",
"O.	c #D7D7D7",
"P.	c #BCBCBC",
"Q.	c #989898",
"R.	c #949494",
"S.	c #969696",
"T.	c #909090",
"U.	c #0B0B0B",
"V.	c #838484",
"W.	c #6B6B6B",
"X.	c #4C4C4C",
"Y.	c #A9A9A9",
"Z.	c #727272",
"`.	c #767676",
" +	c #2B2B2B",
".+	c #5D5D5D",
"++	c #E0E0E0",
"@+	c #686868",
"#+	c #A3A3A3",
"$+	c #9B9B9B",
"%+	c #717171",
"&+	c #2E2E2E",
"*+	c #2D2D2D",
"=+	c #1A1A1A",
"-+	c #C2C2C2",
";+	c #919191",
">+	c #898989",
",+	c #7A7A7A",
"'+	c #575757",
")+	c #464646",
"!+	c #363636",
"~+	c #9D9E9E",
"{+	c #8C8C8C",
"]+	c #7F7F7F",
"^+	c #212121",
"/+	c #5B5B5B",
"(+	c #2F2F30",
"_+	c #595959",
":+	c #878787",
"<+	c #797979",
"[+	c #3D3D3D",
"}+	c #4A4A4A",
"|+	c #4A4B4B",
"1+	c #6F6F6F",
"2+	c #575858",
"3+	c #1D1E1E",
"4+	c #181819",
"5+	c #252626",
"6+	c #464647",
"7+	c #707070",
"8+	c #141415",
"9+	c #ABABAC",
"0+	c #787979",
"a+	c #424242",
"b+	c #5C5D5D",
"c+	c #5B5C5D",
"d+	c #3A3B3C",
"e+	c #474748",
"f+	c #8D8D8D",
"g+	c #484848",
"h+	c #B5B5B5",
"i+	c #222222",
"j+	c #404242",
"k+	c #1B1B1B",
"l+	c #767677",
"m+	c #68696A",
"n+	c #636567",
"o+	c #3B3C3C",
"p+	c #414A4E",
"q+	c #8E8F8F",
"r+	c #C7C7C7",
"s+	c #ADB4B8",
"t+	c #959696",
"u+	c #5F6060",
"v+	c #59595A",
"w+	c #4B5356",
"x+	c #7C7D7E",
"y+	c #AFAFAF",
"z+	c #9C9D9D",
"A+	c #787878",
"B+	c #373E40",
"C+	c #7D8183",
"D+	c #757575",
"E+	c #888989",
"F+	c #3A3A3B",
"G+	c #5C5C5C",
"H+	c #333333",
"I+	c #2C2C2C",
"J+	c #666767",
"K+	c #5F5F5F",
"L+	c #444546",
"M+	c #2F3436",
"N+	c #797C7E",
"O+	c #757676",
"P+	c #878889",
"Q+	c #575B5D",
"R+	c #666666",
"S+	c #0A0A0A",
"T+	c #464747",
"U+	c #262C2F",
"V+	c #707578",
"W+	c #686869",
"X+	c #878888",
"Y+	c #050505",
"Z+	c #424749",
"`+	c #1A1F21",
" @	c #4C5052",
".@	c #6E6E6E",
"+@	c #2F3335",
"@@	c #191D1F",
"#@	c #1A1819",
"$@	c #323639",
"%@	c #151718",
"&@	c #535556",
"*@	c #505456",
"=@	c #585959",
"-@	c #474848",
";@	c #181111",
">@	c #342525",
",@	c #482D2E",
"'@	c #412A2C",
")@	c #381F20",
"!@	c #372020",
"~@	c #352224",
"{@	c #2E272A",
"]@	c #291919",
"^@	c #422020",
"/@	c #341F20",
"(@	c #161516",
"_@	c #434748",
":@	c #484E50",
"<@	c #4E4E4F",
"[@	c #4C4E4E",
"}@	c #545555",
"|@	c #494B4C",
"1@	c #3E4040",
"2@	c #352121",
"3@	c #4E1E1E",
"4@	c #541E1E",
"5@	c #521E1E",
"6@	c #4C1F1F",
"7@	c #3F2020",
"8@	c #382020",
"9@	c #271818",
"0@	c #331E1C",
"a@	c #733530",
"b@	c #3E211E",
"c@	c #704E43",
"d@	c #523D34",
"e@	c #151615",
"f@	c #5C5E5F",
"g@	c #45494A",
"h@	c #525353",
"i@	c #5A5E60",
"j@	c #5B5D5E",
"k@	c #575859",
"l@	c #4E4F50",
"m@	c #1A1414",
"n@	c #231B19",
"o@	c #734338",
"p@	c #692523",
"q@	c #662D29",
"r@	c #392020",
"s@	c #2A2222",
"t@	c #2E2323",
"u@	c #110F0F",
"v@	c #140C0C",
"w@	c #814F42",
"x@	c #A67560",
"y@	c #8D584A",
"z@	c #7F4D41",
"A@	c #3A2523",
"B@	c #4B4C4C",
"C@	c #4D5051",
"D@	c #2B2C2C",
"E@	c #2D2D2E",
"F@	c #4E4F4F",
"G@	c #4F5050",
"H@	c #4B4E4F",
"I@	c #363738",
"J@	c #260B0B",
"K@	c #72201F",
"L@	c #833832",
"M@	c #925245",
"N@	c #661D1D",
"O@	c #5D1D1D",
"P@	c #5C1C1C",
"Q@	c #1C0C0C",
"R@	c #451717",
"S@	c #7A322D",
"T@	c #712624",
"U@	c #803832",
"V@	c #833A33",
"W@	c #833933",
"X@	c #4C2926",
"Y@	c #0D0D0D",
"Z@	c #323334",
"`@	c #2C2D2D",
" #	c #76483C",
".#	c #AA735E",
"+#	c #A56B58",
"@#	c #A66C59",
"##	c #A86F5B",
"$#	c #9D5F4F",
"%#	c #701E1E",
"&#	c #0C0303",
"*#	c #845345",
"=#	c #A8705C",
"-#	c #C19578",
";#	c #B9896F",
">#	c #B9886E",
",#	c #B8876D",
"'#	c #B9876E",
")#	c #A87F68",
"!#	c #6B5344",
"~#	c #40332C",
"{#	c #39332F",
"]#	c #232120",
"^#	c #454444",
"/#	c #3A3228",
"(#	c #6C5947",
"_#	c #5B4A3B",
":#	c #504134",
"<#	c #544436",
"[#	c #382B22",
"}#	c #0E0605",
"|#	c #35201B",
"1#	c #362921",
"2#	c #27221B",
"3#	c #26211A",
"4#	c #2B251D",
"5#	c #38271F",
"6#	c #2E221B",
"7#	c #28100E",
"8#	c #412821",
"9#	c #553C30",
"0#	c #4B3B31",
"a#	c #3E332C",
"b#	c #322A25",
"c#	c #37302C",
"                                                                                      ",
"                                                                                      ",
"                                                                                      ",
"                                                                                      ",
"                                                                                      ",
"                                                                                      ",
"                                                                                      ",
"                                                                                      ",
"                                      . + @                                           ",
"                                    # $ % & *                                         ",
"                                  = - ; > , ' )                                       ",
"                                  ! $ ~ { ] ^ / (                                     ",
"                                = _ : < [ } | 1 2 3                                   ",
"                              4 5 6 7 8 9 } } 0 a b c d e                             ",
"                        f g h i j k l 9 m n o p q | r s t u v                         ",
"          = w 5 = x * y b _ z A ' # # B 2 C 9 D E F | G | z H n I                     ",
"          J K L M M N & O P Q | R S T U V ^ F W X ] Y Z `  ...+.e I @.C g             ",
"        = #.$.%.M &.*.=.-.;.D + >.>.,.'.-.).!.~.{.].^.Z q /.(.;.J _.:.#.<.            ",
"        = m M [._ }.|.1.O + 1 2.3.4.2.4.; 5.6.7.8.9.;.0.^ a.$.b.c.: P b d.            ",
"          = g e.f.g.6.>.h.i.X 4.j.k.l.; % m.n.).{ o.{.p.6.q.l.r.s.t.u.. .             ",
"          v.w.x.C M y.z.' k A.q.B.l.% 5.> ,.O { C.C.D.E.$ s.F.G.{.9 ) u H.I.          ",
"          N J.K.L.z.p.M.M B @ N.O.B.k.P.T ).{ Q.R.S.T.I.K.$ { ^.& N I.M L.c c         ",
"        U.e V.'.K 8 Q $ W.X.o Q N.: A.G.Y.{ $ $ o.C.C.Z.<.R `.6 n 1 /._ 9 d  +        ",
"        # ` q .+b.++n.1.< @+( W q.5.> -.#+$+$+$ $ o.C.C.%+C J.1 0.(.} ` R &+*+        ",
"        =+l $+N r N._.l.q.L.M R.N.-+T #.{ $ $+$+$+o.C.Z S.;+>+,+W.X %.` '+p 2         ",
"      v d.P Q.o.k )+T r.E !+} k.j.K -.^.{.{.{ ~+8.{ $ Q.S.;+A A {+]+..` [.G ^+/+      ",
"      B (+D.B.Z $+_+d.<./ :+]+Y.^.#+9.W <+:+C.R.C.S.C.Z T.X P %..+B h E.[+k d }+      ",
"      # ! N |+1+:+X W.9 :+.+] - 2+3+4+5+6+<.7+{+{+;.{+A D.X | p <+& 1+_+3 . U.<.      ",
"        8+}+9+< Z.[.6 }.0+a+I x.(.b+c+d+e+<.n ` F F >+f+D.X g+'+#.1.-+< h+'./+x.!     ",
"          i+-.~ #+$+..j+^+k+!+%+,+,+l+m+n+o+p+_ ^ ]+t.f+q+X <.1+;.$ n.< >.r+K 8.X.E.  ",
"          }+& k.F.-.;+s+t+S.:+F F , <+u+v+o+w+x+`.,+:+f+D.X u.& <+r 6 Z ].y+O 7.Y.[+*+",
"          E + P.O h+,.z+q+]+V U A+E @+a+R k B+C+l D+6 f+D.E+F+[ G+&._ .+..&.@.9  +H+I+",
"          ^ _ Y T.Z A l ` J+1+Z.| r K+' '+L+M+N+O+Z.,+{+D.P+Q+@.y.R R+1 k i.i.n S+n   ",
"          C _ z 7+W. .7+_ [ K+G+[.[ G K.9 T+U+V+ .W+D+, {+X+r !+k M.I+j w.# y ) Y+    ",
"            _ (...e.K./ z R '+z.}+k !+i.3 Z+`+ @v+Q+_ D V V .@G+*+g w.i+&+ +1 !       ",
"              /+G ( k K./ }+1 *+N I.^++@@@#@$@%@&@*@=@G+@+1++ _+@ }+}+@.-@1 g+        ",
"                ^+E.y ;@>@,@'@)@!@~@{@v ]@^@/@(@_@:@<@[@9 }@}@[.G+/+/ |@1@k '         ",
"                      2@3@4@5@6@7@8@9@0@a@b@c@d@e@f@g@d+(.J.h@i@j@k@l@l@( y.          ",
"                    m@n@o@p@q@r@s@t@u@v@w@x@y@z@A@g B@C@D@E@i.g+F@G@H@I@I.@           ",
"                      J@K@L@M@N@O@P@Q@R@S@T@U@V@W@X@Y@e d *+D@Z@}+(.`@^+0.            ",
"                       #.#+#@###$#%#&#*#=#-#;#>#,#'#)#!#~#{#]#3+k+k+ +^#              ",
"                      /#(#_#:#<#[#&#= = }#|#1#2#3#4#5#6#7#8#9#0#a#b#c#                "};
