/* XPM */
static xpm_row_t const T_xpm[] = {
"35 35 2 1",
" 	c None",
".	c #000000",
"                                   ",
"                                   ",
"                                   ",
"                     ...           ",
"              ...........          ",
"     ....................          ",
"    ...................            ",
"    ...............                ",
"     ..     .....                  ",
"             ....                  ",
"             ...                   ",
"             ...                   ",
"            ....                   ",
"            ....                   ",
"            ....                   ",
"            ....                   ",
"            ....                   ",
"            ...                    ",
"            ...                    ",
"           ....                    ",
"           ....                    ",
"           ....                    ",
"           ....                    ",
"           ...                     ",
"           ...                     ",
"           ...                     ",
"           ...                     ",
"           ...                     ",
"            .                      ",
"                                   ",
"                                   ",
"                                   ",
"                                   ",
"                                   ",
"                                   "};
