/* XPM */
static  xpm_row_t const tux_walk_0_xpm[] = {
"64 80 498 2",
"  	c None",
". 	c #0B0B0B",
"+ 	c #090909",
"@ 	c #060606",
"# 	c #030303",
"$ 	c #010101",
"% 	c #0F0F0F",
"& 	c #181818",
"* 	c #1B1B1B",
"= 	c #1E1E1E",
"- 	c #252525",
"; 	c #272727",
"> 	c #222222",
", 	c #1C1C1C",
"' 	c #111111",
") 	c #070707",
"! 	c #191919",
"~ 	c #2B2B2B",
"{ 	c #3B3B3B",
"] 	c #444444",
"^ 	c #484848",
"/ 	c #505050",
"( 	c #535353",
"_ 	c #4E4E4E",
": 	c #464646",
"< 	c #3D3D3D",
"[ 	c #303030",
"} 	c #333333",
"| 	c #525252",
"1 	c #555555",
"2 	c #414141",
"3 	c #3A3A3A",
"4 	c #3C3C3C",
"5 	c #3E3E3E",
"6 	c #393939",
"7 	c #292929",
"8 	c #141414",
"9 	c #040404",
"0 	c #171717",
"a 	c #424242",
"b 	c #565656",
"c 	c #5C5C5C",
"d 	c #595959",
"e 	c #2E2E2E",
"f 	c #323232",
"g 	c #313131",
"h 	c #373737",
"i 	c #2D2D2D",
"j 	c #020202",
"k 	c #151515",
"l 	c #282828",
"m 	c #343434",
"n 	c #575757",
"o 	c #5E5E5E",
"p 	c #515151",
"q 	c #454545",
"r 	c #383838",
"s 	c #4D4D4D",
"t 	c #474747",
"u 	c #404040",
"v 	c #707070",
"w 	c #838383",
"x 	c #585858",
"y 	c #0D0D0D",
"z 	c #161616",
"A 	c #494949",
"B 	c #979797",
"C 	c #CBCBCB",
"D 	c #DBDBDB",
"E 	c #DEDEDE",
"F 	c #6D6D6D",
"G 	c #2C2C2C",
"H 	c #080808",
"I 	c #3F3F3F",
"J 	c #E4E4E4",
"K 	c #D2D2D2",
"L 	c #B7B7B7",
"M 	c #929292",
"N 	c #0E0E0E",
"O 	c #4B4B4B",
"P 	c #4C4C4C",
"Q 	c #727272",
"R 	c #EDEDED",
"S 	c #F3F3F3",
"T 	c #636363",
"U 	c #4F4F4F",
"V 	c #262626",
"W 	c #7A7A7A",
"X 	c #F6F6F6",
"Y 	c #DCDCDC",
"Z 	c #1F1F1F",
"` 	c #131313",
" .	c #4A4A4A",
"..	c #5B5B5B",
"+.	c #9F9F9F",
"@.	c #C5C5C5",
"#.	c #212120",
"$.	c #322D28",
"%.	c #4E4033",
"&.	c #322717",
"*.	c #261F08",
"=.	c #281F0B",
"-.	c #121212",
";.	c #5F5F5F",
">.	c #5A5A5A",
",.	c #545454",
"'.	c #565553",
").	c #322920",
"!.	c #835E3A",
"~.	c #D5A63E",
"{.	c #EECD27",
"].	c #E7C625",
"^.	c #D5B921",
"/.	c #B49B1B",
"(.	c #7F7706",
"_.	c #000000",
":.	c #685847",
"<.	c #B07C4A",
"[.	c #F0BA45",
"}.	c #FCD72B",
"|.	c #FCDB26",
"1.	c #FDDA29",
"2.	c #FDD92A",
"3.	c #FDDD26",
"4.	c #FCE11E",
"5.	c #F6E017",
"6.	c #E2C81E",
"7.	c #B38C30",
"8.	c #6E4C29",
"9.	c #372615",
"0.	c #0A0A0A",
"a.	c #242424",
"b.	c #434343",
"c.	c #2F2C29",
"d.	c #886645",
"e.	c #E09C58",
"f.	c #EBAC50",
"g.	c #F6B84B",
"h.	c #F9BF47",
"i.	c #FBAF5E",
"j.	c #FAAD61",
"k.	c #FBAD61",
"l.	c #FCB05B",
"m.	c #FDC049",
"n.	c #FDC642",
"o.	c #FBBF49",
"p.	c #F5AA5F",
"q.	c #AB7642",
"r.	c #232323",
"s.	c #363636",
"t.	c #2A2828",
"u.	c #795E44",
"v.	c #B77F4A",
"w.	c #B17A46",
"x.	c #BF8649",
"y.	c #CB9049",
"z.	c #CA8E4C",
"A.	c #CB8D50",
"B.	c #D19152",
"C.	c #D39252",
"D.	c #CF8F50",
"E.	c #C2864B",
"F.	c #AA7542",
"G.	c #8F6337",
"H.	c #563B22",
"I.	c #272523",
"J.	c #6D553E",
"K.	c #B17D4A",
"L.	c #AC7745",
"M.	c #AF7A46",
"N.	c #B47C47",
"O.	c #A37040",
"P.	c #8F6338",
"Q.	c #664628",
"R.	c #4C341D",
"S.	c #0C0C0C",
"T.	c #353535",
"U.	c #2A2A2A",
"V.	c #252321",
"W.	c #332A21",
"X.	c #3B2D1E",
"Y.	c #3C2A19",
"Z.	c #212121",
"`.	c #101010",
" +	c #1A1A1A",
".+	c #202020",
"++	c #2F2F2F",
"@+	c #5D5D5D",
"#+	c #686868",
"$+	c #696969",
"%+	c #666666",
"&+	c #777777",
"*+	c #767676",
"=+	c #6F6F6F",
"-+	c #606060",
";+	c #6E6E6E",
">+	c #646464",
",+	c #050505",
"'+	c #6C6C6C",
")+	c #787878",
"!+	c #747474",
"~+	c #656565",
"{+	c #7D7D7D",
"]+	c #626262",
"^+	c #6B6B6B",
"/+	c #616161",
"(+	c #B4B4B4",
"_+	c #B1B1B1",
":+	c #717171",
"<+	c #A8A8A8",
"[+	c #F7F7F7",
"}+	c #E5E5E5",
"|+	c #8E8E8E",
"1+	c #8A8A8A",
"2+	c #F8F8F8",
"3+	c #FBFBFB",
"4+	c #FCFCFC",
"5+	c #CFCFCF",
"6+	c #676767",
"7+	c #B6B6B6",
"8+	c #FDFDFD",
"9+	c #FEFEFE",
"0+	c #CACACA",
"a+	c #919191",
"b+	c #F9F9F9",
"c+	c #FFFFFF",
"d+	c #ECECEC",
"e+	c #B8B8B8",
"f+	c #DDDDDD",
"g+	c #E8E8E8",
"h+	c #C2C2C2",
"i+	c #E6E6E6",
"j+	c #E0E0E0",
"k+	c #6A6A6A",
"l+	c #878787",
"m+	c #C9C9C9",
"n+	c #F4F4F4",
"o+	c #9E9E9E",
"p+	c #8D8D8D",
"q+	c #E2E2E2",
"r+	c #FAFAFA",
"s+	c #D0D0D0",
"t+	c #7E7E7E",
"u+	c #C8C8C8",
"v+	c #848484",
"w+	c #797979",
"x+	c #ACACAC",
"y+	c #A2A2A2",
"z+	c #818181",
"A+	c #868686",
"B+	c #A6A6A6",
"C+	c #EFEFEF",
"D+	c #BBBBBB",
"E+	c #BFBFBF",
"F+	c #E1E1E1",
"G+	c #EAEAEA",
"H+	c #F1F1F1",
"I+	c #C1C1C1",
"J+	c #1D1D1D",
"K+	c #949494",
"L+	c #D8D8D8",
"M+	c #F0F0F0",
"N+	c #E9E9E9",
"O+	c #828282",
"P+	c #E7E7E7",
"Q+	c #F5F5F5",
"R+	c #DADADA",
"S+	c #BEBEBE",
"T+	c #9C9C9C",
"U+	c #C7C7C7",
"V+	c #F2F2F2",
"W+	c #EEEEEE",
"X+	c #D7D7D7",
"Y+	c #BDBDBD",
"Z+	c #B5B5B5",
"`+	c #C3C3C3",
" @	c #DFDFDF",
".@	c #E3E3E3",
"+@	c #D5D5D5",
"@@	c #BABABA",
"#@	c #C6C6C6",
"$@	c #CECECE",
"%@	c #D3D3D3",
"&@	c #D9D9D9",
"*@	c #D6D6D6",
"=@	c #D1D1D1",
"-@	c #B0B0B0",
";@	c #B37B45",
">@	c #583D22",
",@	c #080603",
"'@	c #8C8C8C",
")@	c #CDCDCD",
"!@	c #CCCCCC",
"~@	c #936639",
"{@	c #8E6E25",
"]@	c #886A23",
"^@	c #140E07",
"/@	c #3F2C18",
"(@	c #010000",
"_@	c #020100",
":@	c #A9A9A9",
"<@	c #AEAEAE",
"[@	c #C0C0C0",
"}@	c #9B9B9B",
"|@	c #14110E",
"1@	c #BF844A",
"2@	c #BE9630",
"3@	c #EABE35",
"4@	c #E4A74A",
"5@	c #4F371E",
"6@	c #050302",
"7@	c #5A3E22",
"8@	c #110B06",
"9@	c #0E0E0D",
"0@	c #A3A3A3",
"a@	c #9A9A9A",
"b@	c #50381E",
"c@	c #A07E27",
"d@	c #D0A92E",
"e@	c #F9C144",
"f@	c #BF8844",
"g@	c #251A0E",
"h@	c #0E0905",
"i@	c #A07436",
"j@	c #F3AF55",
"k@	c #D0934C",
"l@	c #171411",
"m@	c #C4C4C4",
"n@	c #271F18",
"o@	c #97722C",
"p@	c #CEA62E",
"q@	c #F9C53E",
"r@	c #E7A256",
"s@	c #593E22",
"t@	c #140D07",
"u@	c #442F1A",
"v@	c #100B06",
"w@	c #8B6036",
"x@	c #BD8A3F",
"y@	c #EDAF4C",
"z@	c #A17D34",
"A@	c #BCBCBC",
"B@	c #AFAFAF",
"C@	c #24211F",
"D@	c #9E7D27",
"E@	c #D6AB33",
"F@	c #F9C440",
"G@	c #FBB05D",
"H@	c #A97541",
"I@	c #47311B",
"J@	c #25190E",
"K@	c #3E2A17",
"L@	c #9B6B3C",
"M@	c #CA973F",
"N@	c #E6A651",
"O@	c #826836",
"P@	c #737373",
"Q@	c #8C6B2A",
"R@	c #CAA22F",
"S@	c #F9C046",
"T@	c #FAAF5D",
"U@	c #8D6036",
"V@	c #45301B",
"W@	c #291D10",
"X@	c #402C18",
"Y@	c #704D2B",
"Z@	c #AB793E",
"`@	c #E8A355",
" #	c #F3AE59",
".#	c #7C6147",
"+#	c #7C7C7C",
"@#	c #3D311A",
"##	c #AE8B28",
"$#	c #FABF48",
"%#	c #FCAE61",
"&#	c #BF8349",
"*#	c #392716",
"=#	c #2D1F11",
"-#	c #78532E",
";#	c #CF9745",
">#	c #F2AB58",
",#	c #F4AF5A",
"'#	c #4F4840",
")#	c #3D2E20",
"!#	c #B6922B",
"~#	c #F9BB4C",
"{#	c #F4AB5B",
"]#	c #CE8E4F",
"^#	c #48321C",
"/#	c #332416",
"(#	c #845B33",
"_#	c #F1B34C",
":#	c #F9C243",
"<#	c #E4B13E",
"[#	c #463928",
"}#	c #251E18",
"|#	c #95712B",
"1#	c #F1B051",
"2#	c #F1A65D",
"3#	c #D69453",
"4#	c #3E2A18",
"5#	c #22180E",
"6#	c #AE7843",
"7#	c #F3B947",
"8#	c #F6C23D",
"9#	c #EFBF38",
"0#	c #503923",
"a#	c #0A0A09",
"b#	c #2D2114",
"c#	c #E19B57",
"d#	c #E09B56",
"e#	c #BE8349",
"f#	c #3E2B18",
"g#	c #100E0D",
"h#	c #261A0F",
"i#	c #926538",
"j#	c #ECB543",
"k#	c #F5C13F",
"l#	c #F8C63C",
"m#	c #6C4C2C",
"n#	c #0F0D0B",
"o#	c #0E0A08",
"p#	c #0A0907",
"q#	c #090806",
"r#	c #0D0B09",
"s#	c #0C0908",
"t#	c #0B0A09",
"u#	c #0A0909",
"v#	c #060605",
"w#	c #020201",
"x#	c #1C140C",
"y#	c #98693B",
"z#	c #D79453",
"A#	c #DA9654",
"B#	c #B77E47",
"C#	c #463320",
"D#	c #3B2916",
"E#	c #6F4C2A",
"F#	c #E5AB47",
"G#	c #F9C342",
"H#	c #F8C53E",
"I#	c #EDB04B",
"J#	c #25190F",
"K#	c #0B0805",
"L#	c #0B0704",
"M#	c #0E0A05",
"N#	c #130D07",
"O#	c #120C06",
"P#	c #110C06",
"Q#	c #0D0B06",
"R#	c #0E0C08",
"S#	c #0C0804",
"T#	c #A3713F",
"U#	c #C7894D",
"V#	c #946639",
"W#	c #614325",
"X#	c #906438",
"Y#	c #45301A",
"Z#	c #362515",
"`#	c #AD7942",
" $	c #F4B54F",
".$	c #F5BD44",
"+$	c #F8C242",
"@$	c #A77938",
"#$	c #9F6D3D",
"$$	c #4B331C",
"%$	c #5C3F23",
"&$	c #825A32",
"*$	c #A2703F",
"=$	c #9E6D3D",
"-$	c #805931",
";$	c #6B4A29",
">$	c #170F08",
",$	c #21160C",
"'$	c #664627",
")$	c #B67E46",
"!$	c #E3A64B",
"~$	c #F2B649",
"{$	c #FAB05C",
"]$	c #C1854A",
"^$	c #604224",
"/$	c #805831",
"($	c #281C0F",
"_$	c #5E4124",
":$	c #855C33",
"<$	c #302112",
"[$	c #51371F",
"}$	c #825F2A",
"|$	c #A8822D",
"1$	c #C18F3E",
"2$	c #9F6F3A",
"3$	c #2E1F11",
"4$	c #4E351E",
"5$	c #6A4929",
"6$	c #664727",
"7$	c #422E19",
"8$	c #735525",
"9$	c #715621",
"                                                                                                                                ",
"                                                                                                                                ",
"                                                                                                                                ",
"                                                                                                                                ",
"                                                                                                                                ",
"                                                                                                                                ",
"                                                                                                                                ",
"                                                                                                                                ",
"                                                                                                                                ",
"                                                                                                                                ",
"                                                                                                                                ",
"                                                                                                                                ",
"                                                              . + @ # $                                                         ",
"                                                        % & * = - ; > , ' ) $                                                   ",
"                                                    @ ! ~ { ] ^ / ( _ : < [ ! +                                                 ",
"                                                  ) & } ^ | 1 _ ^ 2 3 4 { 5 6 7 8                                               ",
"                                                9 0 ; a b c d | : 6 e f f g h 6 i %                                             ",
"                                              j k l m n o d p q r } h 6 6 r } g f * +                                           ",
"                                              ) } ; s c n ( _ t 5 r 3 r u v w x f - y                                           ",
"                                            j z m f b | b n ( A 5 6 h h B C D E F G 8                                           ",
"                                            H 7 [ u s / x b | A I r e c C J K L M m 0 +                                         ",
"                                            N g - t O 1 n b | P a h ; Q R S T m U 6 = .                                         ",
"                                            k f V A U x n 1 | P a h ; W X Y } * 7 3 Z H                                         ",
"                                            ` g e  .( ..d 1 / A u r < +.X @.f #.$.%.&.*.=.                                      ",
"                                            -.e m ^ 1 ;.>.,.P q 4 r ^ B L L '.).!.~.{.].^./.(.                                  ",
"                                          _.y i u t b o >.p ^ u 3 r 6 ,.>.| :.<.[.}.|.1.2.3.4.5.6.7.8.9.                        ",
"                                          _.0.a. .s | c b P b.4 h r { 4 4 c.d.e.f.g.h.i.j.k.l.m.n.o.p.q.                        ",
"                                          _.H r.: s P x | ^ u r s.h { 4 6 t.u.v.w.x.y.z.A.B.C.D.E.F.G.H.                        ",
"                                            ) ! a  .] _ P q < h s.r 3 { 6 V I.J.K.L.M.N.O.P.Q.R.                                ",
"                                            S.& T.2 4 u q a 4 r s.r 6 { 6 T.U.Z V.W.X.Y.                                        ",
"                                            % = U.f h } g h r r s.f g g g [ G Z.`. +-                                           ",
"                                          j k .+++7 g } i i ++f g G V r.r.r.a.Z.~ [                                             ",
"                                          @ = - e ++i ~ G U.~ U.7 l V a..+= *  +e i                                             ",
"                                          `.r.; I t 5 3 r f i 7 - - V - V - Z ++g                                               ",
"                                        y > - 3 ,.x 1 : b.A : 2 h m ++U.7 G a.h e                                               ",
"                                         +a.{ @+#+$+%+;.| O s t < f 7 a.- 7 > } i #                                             ",
"                                      & & s.x Q &+*+=+#+-+d | P a m U.r..+7 r.[ 7 #                                             ",
"                                      z >  .%+&+W *+;+>+o d ,.p  .r 7 > Z Z.= g s.,+                                            ",
"                                    ! k s.| '+)+*+F >+>.,.U P : u s.l Z..+a.* Z.u -                                             ",
"                                  y * > 6 d F !+v ~+x _ A : a < r g ; Z..+> ! [ d {+++                                          ",
"                                  * Z.[ 2 ]+=+Q ^+/+/ t a I 4 T.e 7 > .+a.; & 3 (+_+/                                           ",
"                                % .+e < | #+:+=+>+>. .a 5 4 h [ ~ ; .+Z.> Z Z.<+[+}+|+l                                         ",
"                                ! U.5 q c ;+v '+]+p : 5 4 r } G ; ; a.- 7 0 1+2+3+4+5+;+=                                       ",
"                              0.Z.4 t s ~+=+;+6+x s a 4 3 T.++7 r..+> r.= Z.7+8+3+9+X 0+c                                       ",
"                              ` ; q s n 6+;+$+-+p A 2 3 r f G V > Z.Z * 8 a+b+c+c+9+9+d+e+@                                     ",
"                              ' ++s 1 ]+F ^+~+x O 2 u 5 r T.l r.> Z.= > _+2+c+c+c+c+8+b+f+P                                     ",
"                            k `.s.,.c $+F $+-+| q : U ..{ 4 ; a.r.= , a+b+c+c+c+c+c+c+3+g+h+j                                   ",
"                            8 8 h n -+=+F ~+| u a I O %+..5 m a.Z.* @+i+c+c+c+c+c+c+c+4+S j+                                    ",
"                            -.z 6 d o ^+k+/+u 3 u 5 ,.c l+..5 g Z f m+3+c+c+c+c+c+c+c+8+b+n+o+                                  ",
"                            N z u >...#+6+x h h I ] t o k+p+d 2 h ;.q+9+9+c+c+c+c+c+c+9+[+r+s+                                  ",
"                            H k t ..>.~+%+x Z g 6 a I | %+%+t+^+] o u+8+8+9+c+c+c+c+c+9+X 4+Y d                                 ",
"                            ,+k O >.>.T >+x < - g 4 u 2 s %+$+v+w+x | #+x+3+9+c+c+c+c+9+X r+}+y+9                               ",
"                            9 k  .x x /+-+,.P [ Z m r 2 2 q n $+)+z+A+Q '+#+B+C+c+c+c+8+[+[+i+D+Z                               ",
"                            # ` A b x /+/+| P 2 V = } T.5 b.: t | _ ..~+^+w+a+4+c+c+9+4+X S q+E+b.                              ",
"                          $ $ `.^ b n ]+]+/ P ] s.> -.~ } 3 6 b.5 ] ( o T v B+r+9+c+9+4+S C+F+@.@+                              ",
"                          _._.S.q ,.b ]+]+p P b.r ++- , - e f f } } 4 < P y+G+9+9+9+8+b+H+d+j+I+n                               ",
"                            _.H 4 | x /+-+| O 2 r g e U.J+z 8 , 4 / 6+z+K+L+X 3+r+3+4+X M+N+f+D+O                               ",
"                            _.# G U 1 ]+;.,.^ I s.g ++++~ V .+* b O+h+P+G+2+2+n+n+Q+[+H+R J R+S+r                               ",
"                            _._.a.t ,.;.-+b t I r } [ [ ~ l ; U.T+U+}+g+C+S V+C+R W+W+R P+E X+Y+,                               ",
"                            _._., 3 / @+/+>.^ b.{ m g g ~ l 7 ++Z+`+j+F+i+G+d+N+P+P+J i+ @R+X+o+0                               ",
"                            _._.`.G h c /+>.s a { T.[ [ ~ 7 U.m m+S+X+L+D F+J .@.@q+ @D X++@K ~+0.                              ",
"                            _._.9  +g ] o c n b.4 s.g ++G U.U.f @@I+#@$@5+%@&@D f+D *@%@=@K -@> #   ;@>@,@                      ",
"                            _._.$ `.l 3 P n ( ^ 4 s.f e G U.G G '@@@(+I+`+U+)@=@+@K !@C !@u+T H 0.>@~@{@]@^@                    ",
"                            /@(@_@y 8 f < P / : { T.f [ i U.i U.1 :@<@@@Y+[@@.0+)@C #@U+u+}@& . |@1@2@3@4@5@                    ",
"                          6@7@1@8@9@S.s.2  .P t 6 s.g [ e i G 7 ++0@(+e+@@Y+`+#@m+U+@.U+a@! # 0.b@c@d@e@f@g@                    ",
"                          h@i@j@k@l@`.m _ : u b.r h } g ++i ~ V J+|+Z+h+E+I+m@#@u+m+u+Y+`.. z n@o@p@q@r@s@t@                    ",
"                        u@v@w@x@y@z@& > ^ P 5 m f T.T.f [ i ~ a.z I @@[@0+@.h+A@I+@.B@, H Z C@D@E@F@G@H@I@                      ",
"                          J@K@L@M@N@O@ +++: ] r ++++} m } g G r.0 & P@@@h+Y+7+Z+A@L u z a.> Q@R@S@T@U@V@                        ",
"                          W@X@Y@Z@`@ #.#G T.5 I 3 g G G i e l , 0 8 [ :++.B@T++#Q e N k > @###$#%#&#*#                          ",
"                            j =#-#;#>#,#'#f e T.< < r f ~ ; * N k 8 = U.m 2 : > N + 8 > )#!#~#{#]#^#                            ",
"                          a. +0./#(#_#:#<#[#l 7 G T.3 r T.& % 8 -. +> = , k . ,+. ` -.}#|#1#2#3#4#                              ",
"                        e l  ._ k 5#6#7#8#9#0#8 Z.a.a.= ` '  + +` * , k -.S.j -.' a#b#L@c#d#e#f#_.                              ",
"                        l ] ^ b.a g#h#i#j#k#l#m#) n#o#p#q#r#s#t#u#H 0.0.@ v#w#N ,+x#y#z#A#B#>@                                  ",
"                      , l m i G 7 Z.C#D#E#F#G#H#I#J#K#L#M#N#O#P#N#M#Q#R#      _.S#T#U#]#V#W#                                    ",
"                      -.* , J+& % ) 9 X#Y#Z#`# $.$+$@$#$$$%$                  _.&$*$=$-$;$>$                                    ",
"                         +&                 ,$'$)$!$~${$]$^$/$                ($_$-$:$;$                                        ",
"                                            E.J@<$[$}$|$1$2$)$                  3$4$5$                                          ",
"                                                  6$V@7$8$9$                                                                    ",
"                                                                                                                                ",
"                                                                                                                                "};
