/* XPM */
static xpm_row_t const tux_standb_xpm[] = {
"64 80 394 2",
"  	c None",
". 	c #010101",
"+ 	c #030303",
"@ 	c #060606",
"# 	c #090909",
"$ 	c #0B0B0B",
"% 	c #070707",
"& 	c #111111",
"* 	c #1C1C1C",
"= 	c #222222",
"- 	c #272727",
"; 	c #252525",
"> 	c #1E1E1E",
", 	c #1B1B1B",
"' 	c #181818",
") 	c #0F0F0F",
"! 	c #191919",
"~ 	c #303030",
"{ 	c #3D3D3D",
"] 	c #464646",
"^ 	c #4E4E4E",
"/ 	c #535353",
"( 	c #505050",
"_ 	c #484848",
": 	c #444444",
"< 	c #3B3B3B",
"[ 	c #2B2B2B",
"} 	c #141414",
"| 	c #292929",
"1 	c #393939",
"2 	c #3E3E3E",
"3 	c #3C3C3C",
"4 	c #3A3A3A",
"5 	c #414141",
"6 	c #555555",
"7 	c #525252",
"8 	c #333333",
"9 	c #2D2D2D",
"0 	c #373737",
"a 	c #313131",
"b 	c #323232",
"c 	c #2E2E2E",
"d 	c #595959",
"e 	c #5C5C5C",
"f 	c #565656",
"g 	c #424242",
"h 	c #171717",
"i 	c #040404",
"j 	c #383838",
"k 	c #454545",
"l 	c #515151",
"m 	c #5E5E5E",
"n 	c #575757",
"o 	c #343434",
"p 	c #282828",
"q 	c #151515",
"r 	c #020202",
"s 	c #0D0D0D",
"t 	c #585858",
"u 	c #838383",
"v 	c #707070",
"w 	c #404040",
"x 	c #474747",
"y 	c #4D4D4D",
"z 	c #2C2C2C",
"A 	c #6D6D6D",
"B 	c #DEDEDE",
"C 	c #DBDBDB",
"D 	c #CBCBCB",
"E 	c #979797",
"F 	c #494949",
"G 	c #161616",
"H 	c #929292",
"I 	c #B7B7B7",
"J 	c #D2D2D2",
"K 	c #E4E4E4",
"L 	c #3F3F3F",
"M 	c #080808",
"N 	c #4F4F4F",
"O 	c #636363",
"P 	c #F3F3F3",
"Q 	c #EDEDED",
"R 	c #727272",
"S 	c #4C4C4C",
"T 	c #4B4B4B",
"U 	c #0E0E0E",
"V 	c #1F1F1F",
"W 	c #DCDCDC",
"X 	c #F6F6F6",
"Y 	c #7A7A7A",
"Z 	c #262626",
"` 	c #281F0B",
" .	c #261F08",
"..	c #322717",
"+.	c #4E4033",
"@.	c #322D28",
"#.	c #212120",
"$.	c #C5C5C5",
"%.	c #9F9F9F",
"&.	c #5B5B5B",
"*.	c #4A4A4A",
"=.	c #131313",
"-.	c #7F7706",
";.	c #B49B1B",
">.	c #D5B921",
",.	c #E7C625",
"'.	c #EECD27",
").	c #D5A63E",
"!.	c #835E3A",
"~.	c #322920",
"{.	c #565553",
"].	c #545454",
"^.	c #5A5A5A",
"/.	c #5F5F5F",
"(.	c #121212",
"_.	c #372615",
":.	c #6E4C29",
"<.	c #B38C30",
"[.	c #E2C81E",
"}.	c #F6E017",
"|.	c #FCE11E",
"1.	c #FDDD26",
"2.	c #FDD92A",
"3.	c #FDDA29",
"4.	c #FCDB26",
"5.	c #FCD72B",
"6.	c #F0BA45",
"7.	c #B07C4A",
"8.	c #685847",
"9.	c #000000",
"0.	c #AB7642",
"a.	c #F5AA5F",
"b.	c #FBBF49",
"c.	c #FDC642",
"d.	c #FDC049",
"e.	c #FCB05B",
"f.	c #FBAD61",
"g.	c #FAAD61",
"h.	c #FBAF5E",
"i.	c #F9BF47",
"j.	c #F6B84B",
"k.	c #EBAC50",
"l.	c #E09C58",
"m.	c #886645",
"n.	c #2F2C29",
"o.	c #434343",
"p.	c #242424",
"q.	c #0A0A0A",
"r.	c #563B22",
"s.	c #8F6337",
"t.	c #AA7542",
"u.	c #C2864B",
"v.	c #CF8F50",
"w.	c #D39252",
"x.	c #D19152",
"y.	c #CB8D50",
"z.	c #CA8E4C",
"A.	c #CB9049",
"B.	c #BF8649",
"C.	c #B17A46",
"D.	c #B77F4A",
"E.	c #795E44",
"F.	c #2A2828",
"G.	c #363636",
"H.	c #232323",
"I.	c #4C341D",
"J.	c #664628",
"K.	c #8F6338",
"L.	c #A37040",
"M.	c #B47C47",
"N.	c #AF7A46",
"O.	c #AC7745",
"P.	c #B17D4A",
"Q.	c #6D553E",
"R.	c #272523",
"S.	c #3C2A19",
"T.	c #3B2D1E",
"U.	c #332A21",
"V.	c #252321",
"W.	c #2A2A2A",
"X.	c #353535",
"Y.	c #0C0C0C",
"Z.	c #1A1A1A",
"`.	c #101010",
" +	c #212121",
".+	c #2F2F2F",
"++	c #202020",
"@+	c #666666",
"#+	c #696969",
"$+	c #686868",
"%+	c #5D5D5D",
"&+	c #606060",
"*+	c #6F6F6F",
"=+	c #767676",
"-+	c #777777",
";+	c #050505",
">+	c #646464",
",+	c #6E6E6E",
"'+	c #787878",
")+	c #6C6C6C",
"!+	c #7D7D7D",
"~+	c #656565",
"{+	c #747474",
"]+	c #B1B1B1",
"^+	c #B4B4B4",
"/+	c #6B6B6B",
"(+	c #626262",
"_+	c #8E8E8E",
":+	c #E5E5E5",
"<+	c #F7F7F7",
"[+	c #A8A8A8",
"}+	c #717171",
"|+	c #CFCFCF",
"1+	c #FCFCFC",
"2+	c #FBFBFB",
"3+	c #F8F8F8",
"4+	c #8A8A8A",
"5+	c #CACACA",
"6+	c #FEFEFE",
"7+	c #FDFDFD",
"8+	c #B6B6B6",
"9+	c #B8B8B8",
"0+	c #ECECEC",
"a+	c #FFFFFF",
"b+	c #F9F9F9",
"c+	c #919191",
"d+	c #DDDDDD",
"e+	c #C2C2C2",
"f+	c #E8E8E8",
"g+	c #6A6A6A",
"h+	c #E0E0E0",
"i+	c #E6E6E6",
"j+	c #616161",
"k+	c #9E9E9E",
"l+	c #F4F4F4",
"m+	c #C6C6C6",
"n+	c #1D1D1D",
"o+	c #D0D0D0",
"p+	c #FAFAFA",
"q+	c #E2E2E2",
"r+	c #A2A2A2",
"s+	c #BBBBBB",
"t+	c #BFBFBF",
"u+	c #F2F2F2",
"v+	c #E9E9E9",
"w+	c #E1E1E1",
"x+	c #EFEFEF",
"y+	c #F0F0F0",
"z+	c #EAEAEA",
"A+	c #DFDFDF",
"B+	c #868686",
"C+	c #7E7E7E",
"D+	c #C1C1C1",
"E+	c #F1F1F1",
"F+	c #888888",
"G+	c #828282",
"H+	c #D5D5D5",
"I+	c #8D8D8D",
"J+	c #BEBEBE",
"K+	c #DADADA",
"L+	c #F5F5F5",
"M+	c #E7E7E7",
"N+	c #D1D1D1",
"O+	c #878787",
"P+	c #BDBDBD",
"Q+	c #D7D7D7",
"R+	c #EEEEEE",
"S+	c #C7C7C7",
"T+	c #9C9C9C",
"U+	c #676767",
"V+	c #C3C3C3",
"W+	c #B5B5B5",
"X+	c #8B8B8B",
"Y+	c #E3E3E3",
"Z+	c #D8D8D8",
"`+	c #C9C9C9",
" @	c #797979",
".@	c #B0B0B0",
"+@	c #D3D3D3",
"@@	c #D6D6D6",
"#@	c #D9D9D9",
"$@	c #CECECE",
"%@	c #BABABA",
"&@	c #C8C8C8",
"*@	c #CCCCCC",
"=@	c #CDCDCD",
"-@	c #8C8C8C",
";@	c #C0C0C0",
">@	c #AEAEAE",
",@	c #A9A9A9",
"'@	c #A3A3A3",
")@	c #C4C4C4",
"!@	c #AFAFAF",
"~@	c #BCBCBC",
"{@	c #737373",
"]@	c #7C7C7C",
"^@	c #3B2917",
"/@	c #2C1E11",
"(@	c #2F2111",
"_@	c #3F2C18",
":@	c #080503",
"<@	c #030302",
"[@	c #141313",
"}@	c #191816",
"|@	c #1A1715",
"1@	c #1A1815",
"2@	c #171513",
"3@	c #141311",
"4@	c #131110",
"5@	c #110F0E",
"6@	c #100F0F",
"7@	c #9E6D3D",
"8@	c #BC9430",
"9@	c #EAC62B",
"0@	c #D6AC33",
"a@	c #CFAC28",
"b@	c #BEA022",
"c@	c #A77F30",
"d@	c #997130",
"e@	c #87622D",
"f@	c #79562B",
"g@	c #85602E",
"h@	c #7E5732",
"i@	c #674A2E",
"j@	c #4E3A26",
"k@	c #4C3824",
"l@	c #5C432A",
"m@	c #6A4C2E",
"n@	c #624527",
"o@	c #4E3720",
"p@	c #2B1E12",
"q@	c #19120A",
"r@	c #1A130B",
"s@	c #1A120A",
"t@	c #0E0A07",
"u@	c #926538",
"v@	c #C18D3E",
"w@	c #F8CC35",
"x@	c #F9CC35",
"y@	c #F6C53A",
"z@	c #ECBF35",
"A@	c #F8C53F",
"B@	c #F9C73D",
"C@	c #F7BE46",
"D@	c #F7BB49",
"E@	c #F5B055",
"F@	c #F4A95D",
"G@	c #EEA45C",
"H@	c #E39D58",
"I@	c #D59352",
"J@	c #C98B4E",
"K@	c #815931",
"L@	c #7C5630",
"M@	c #5F4225",
"N@	c #302112",
"O@	c #47311B",
"P@	c #634526",
"Q@	c #4A331C",
"R@	c #312213",
"S@	c #5E4124",
"T@	c #9B7035",
"U@	c #DFA646",
"V@	c #D7964F",
"W@	c #C0854A",
"X@	c #CC8D4F",
"Y@	c #C88B4D",
"Z@	c #BD8349",
"`@	c #B87F47",
" #	c #B07A44",
".#	c #AE7843",
"+#	c #AA7541",
"@#	c #BE8349",
"##	c #9D6D3D",
"$#	c #75512D",
"%#	c #734F2C",
"&#	c #432E1A",
"*#	c #22180D",
"=#	c #46301B",
"-#	c #412D19",
";#	c #191109",
">#	c #2B200D",
",#	c #3F340C",
"'#	c #1D140B",
")#	c #0F0A05",
"!#	c #100B06",
"~#	c #0D0905",
"{#	c #0C0804",
"]#	c #0B0704",
"^#	c #120C07",
"/#	c #271B0F",
"(#	c #362515",
"_#	c #442F1A",
":#	c #382615",
"<#	c #563B21",
"                                                                                                                                ",
"                                                                                                                                ",
"                                                                                                                                ",
"                                                                                                                                ",
"                                                                                                                                ",
"                                                                                                                                ",
"                                                                                                                                ",
"                                                                                                                                ",
"                                                                                                                                ",
"                                                                                                                                ",
"                                                                                                                                ",
"                                                                                                                                ",
"                                                                                                                                ",
"                                                        . + @ # $                                                               ",
"                                                  . % & * = - ; > , ' )                                                         ",
"                                                # ! ~ { ] ^ / ( _ : < [ ! @                                                     ",
"                                              } | 1 2 < 3 4 5 _ ^ 6 7 _ 8 ' %                                                   ",
"                                            ) 9 1 0 a b b c 1 ] 7 d e f g - h i                                                 ",
"                                          # , b a 8 j 1 1 0 8 j k l d m n o p q r                                               ",
"                                          s ; b t u v w j 4 j 2 x ^ / n e y - 8 %                                               ",
"                                          } z A B C D E 0 0 1 2 F / n f 7 f b o G r                                             ",
"                                        # h o H I J K D e c j L F 7 f t ( y w ~ | M                                             ",
"                                        $ > 1 N o O P Q R - 0 g S 7 f n 6 T x ; a U                                             ",
"                                        M V 4 | , 8 W X Y - 0 g S 7 6 n t N F Z b q                                             ",
"                                      `  ...+.@.#.b $.X %.{ j w F ( 6 d &./ *.c a =.                                            ",
"                                  -.;.>.,.'.).!.~.{.I I E _ j 3 k S ].^./.6 _ o c (.                                            ",
"                        _.:.<.[.}.|.1.2.3.4.5.6.7.8.7 ^.].1 j 4 w _ l ^.m f x w 9 s 9.                                          ",
"                        0.a.b.c.d.e.f.g.h.i.j.k.l.m.n.3 3 < j 0 3 o.S f e 7 y *.p.q.9.                                          ",
"                        r.s.t.u.v.w.x.y.z.A.B.C.D.E.F.1 3 < 0 G.j w _ 7 t S y ] H.M 9.                                          ",
"                                I.J.K.L.M.N.O.P.Q.R.Z 1 < 4 j G.0 { k S ^ : *.g ! %                                             ",
"                                        S.T.U.V.V W.X.1 < 1 j G.j 3 g k w 3 5 X.' Y.                                            ",
"                                          ; Z.`. +z ~ a a a b G.j j 0 a 8 0 b W.> )                                             ",
"                                            ~ [  +p.H.H.H.Z z a b .+9 9 8 a | .+++q r                                           ",
"                                            9 c Z., > ++p.Z p | W.[ W.z [ 9 .+c ; > @                                           ",
"                                              a .+V ; Z ; Z ; ; | 9 b j 4 2 x L - H.`.                                          ",
"                                              c 0 p.z | W..+o 0 5 ] F o.] 6 t ].4 ; = s                                         ",
"                                            + 9 8 = | ; p.| b { x y T 7 /.@+#+$+%+< p.Z.                                        ",
"                                            + | ~ H.| ++H.W.o g S 7 d &+$+*+=+-+R t G.' '                                       ",
"                                            ;+G.a >  +V = | j *.l ].d m >+,+=+Y -+@+*.= G                                       ",
"                                            ; w  +, p.++ +p G.w ] S N ].^.>+A =+'+)+7 G.q !                                     ",
"                                          .+!+d ~ ! = ++ +- a j { g ] F ^ t ~+v {+A d 1 = , s                                   ",
"                                          ( ]+^+4 ' - p.++= | c X.3 L g x ( m /+R *+(+5 ~  +,                                   ",
"                                        p _+:+<+[+ +V =  +++- [ ~ 0 3 2 g *.f ~+*+}+$+7 { c ++)                                 ",
"                                      > ,+|+1+2+3+4+h | ; p.- - z 8 j 3 2 ] l /.)+}+,+e k 2 W.!                                 ",
"                                      e 5+X 6+2+7+8+ +> H.= ++H.| .+o j 3 g y &.$+v *+~+y x 3  +q.                              ",
"                                    @ 9+0+6+6+a+a+b+c+} , V  += - 9 a o 4 5 T n O /+,+#+n y k - =.                              ",
"                                    S d+b+7+a+a+a+a+3+]+= > H.p.p z ~ 4 < 5 T f e ~+)+A (+6 y .+&                               ",
"                                  r e+f+2+a+a+a+a+a+a+b+c+, V p [ 9 ~ 5 w g *.].l ( #+,+g+e ].G.`.q                             ",
"                                    h+P 1+a+a+a+a+a+a+a+i+_ ! W.c [ p *.( *.T ( / x j+}+*+&+n 0 } }                             ",
"                                  k+l+b+7+a+a+a+a+a+a+a+2+m+n+Z ~ [ p.S j+/ S ^ l : e *+$+m d 1 G (.                            ",
"                                  o+p+<+6+a+a+a+a+a+a+6+6+q+].> c z V ]./+f *.T y 4 &.)+O &.^.w G U                             ",
"                                d W 1+X 6+a+a+a+a+a+6+7+7+P 8+V 9 [ , d v f F _ 5 X.n $+~+^.&.x q M                             ",
"                              i r+:+p+X 6+a+a+a+a+6+6+1+p+p+B p.- z * %+R ]._ ] 0 b / j+(+6 ^.T q ;+                            ",
"                              V s+i+<+<+7+a+a+a+a+6+7+p+X X 0+/ H.9 n+O R 7 : : c 8 y &.j+].t *.q i                             ",
"                              o.t+q+P X 1+6+a+a+a+a+7+3+P u+v+Y ++.+= *+v 7 *.w - G.*.f j+6 f F =.+                             ",
"                              %+$.w+x+P 1+6+a+6+6+a+7+3+y+z+A+B+ +~ | C+,+7 T 8 = 4 F f (+6 f _ `.. .                           ",
"                              n D+h+0+E+b+7+6+6+6+6+6+3+x+v+d+F+H.~ .+G+*+f S b [ 2 T d (+f ].k Y.9.9.                          ",
"                              T s+d+v+y+X 1+2+p+2+1+7+<+x+f+H+I+; ~ X.C+,+/ _ - a w S ^.~+t 7 3 M 9.                            ",
"                              j J+K+K Q E+<+L+l+l+3+b+L+0+M+N+H - .+0 O+A 7 T p G.o.^ m @+6 N 8 i 9.                            ",
"                              * P+Q+B M+Q R+R+Q x+u+P x+f+:+S+T+W.b 4 H U+7 7 9 4 k l &+@+6 x | . 9.                            ",
"                              h k+Q+K+A+i+K M+M+v+0+z+i+w+h+V+W+.+o 1 X+j+].] a 2 x ].(+O ( 4 V 9.9.                            ",
"                                $+J H+Q+C A+q+Y+Y+K w+C Z+Q+J+`+b 8 X. @>+d g j 5 _ f j+e ] G.=.9.9.                            ",
"                                | .@J N++@@@C d+C #@+@|+$@m+D+%@.+b a %+&.>+w { g *.n m f 5 z ;+9.9.                            ",
"                                (.$+&@*@D *@J H+N+=@S+V+D+^+%@-@z a b a x 2 X.L o.y f 6 ( : * r 9.9.                            ",
"                                  G.k+&@S+m+D =@5+$.;@P+%@>@,@6 W..+b X.0 1 3 w k N l _ S 0 =.. 9.9.                            ",
"                                    S ,@S+$.S+`+m+V+P+%@9+^+'@~ W.z .+b G.1 3 w x S *.*.S ++(.. 9.                              ",
"                                        P+&@`+&@m+)@D+t+e+W+H  +p [ c a o j < L o.w ] ( { =.(.+ .                               ",
"                                      ! ( !@$.D+~@e+$.5+;@%@g ++| z c b X.j 1 G.X.2 S _ = ! , U                                 ",
"                                        G S I ~@W+8+P+e+%@{@> = W.c a 8 X.8 c .+j : ] .+Z.p p ' '                               ",
"                                          M .+R ]@T+!@%.}+~ * p.[ z c 9 z z b 4 L 2 X.z 1 x 5 W.G                               ",
"                                            $ U H.] 5 o W.> V Z p Z - [ b j { { X.c b { N 6 d *.c ,                             ",
"                                              # @ $ h * > = - p [ 9 a X.j 4 X.z | c 4 g ^ ^.&.l ^ - p.                          ",
"                                                + + U ' V - [ c ~ a b .+| p.p. + +| a 4 g *.].N ^ *.p c                         ",
"                                  ^@/@(@_@        :@<@q.s U `.[@}@|@1@2@3@4@5@6@G ++9 a b o 3 g o._ : p                         ",
"                                7@8@9@0@a@b@c@d@e@f@g@h@i@j@k@l@m@n@o@p@q@r@q@s@t@% q.& q '  +| z 9 o p *                       ",
"                                u@v@w@x@y@z@A@B@C@D@E@F@G@H@I@J@0.K@L@M@N@O@P@Q@R@        i % ) ' n+* , (.                      ",
"                                S@T@U@V@u.W@X@J@Y@Z@`@ #.#+#@#W@##$#%#&#*#N@=#-#;#                  ' Z.                        ",
"                                  >#,#'#)#)#!#!#~#{#]#{#)#^#/#  ^@(#_#:#/@^@<#                                                  ",
"                                                                                                                                ",
"                                                                                                                                "};
