/* XPM */
static  xpm_row_t const tux_walk_4_xpm[] = {
"64 80 457 2",
"  	c None",
". 	c #0B0B0B",
"+ 	c #090909",
"@ 	c #060606",
"# 	c #030303",
"$ 	c #010101",
"% 	c #0F0F0F",
"& 	c #181818",
"* 	c #1B1B1B",
"= 	c #1E1E1E",
"- 	c #252525",
"; 	c #272727",
"> 	c #222222",
", 	c #1C1C1C",
"' 	c #111111",
") 	c #070707",
"! 	c #191919",
"~ 	c #2B2B2B",
"{ 	c #3B3B3B",
"] 	c #444444",
"^ 	c #484848",
"/ 	c #505050",
"( 	c #535353",
"_ 	c #4E4E4E",
": 	c #464646",
"< 	c #3D3D3D",
"[ 	c #303030",
"} 	c #333333",
"| 	c #525252",
"1 	c #555555",
"2 	c #414141",
"3 	c #3A3A3A",
"4 	c #3C3C3C",
"5 	c #3E3E3E",
"6 	c #393939",
"7 	c #292929",
"8 	c #141414",
"9 	c #040404",
"0 	c #171717",
"a 	c #424242",
"b 	c #565656",
"c 	c #5C5C5C",
"d 	c #595959",
"e 	c #2E2E2E",
"f 	c #323232",
"g 	c #313131",
"h 	c #373737",
"i 	c #2D2D2D",
"j 	c #020202",
"k 	c #151515",
"l 	c #282828",
"m 	c #343434",
"n 	c #575757",
"o 	c #5E5E5E",
"p 	c #515151",
"q 	c #454545",
"r 	c #383838",
"s 	c #4D4D4D",
"t 	c #474747",
"u 	c #404040",
"v 	c #707070",
"w 	c #838383",
"x 	c #585858",
"y 	c #0D0D0D",
"z 	c #161616",
"A 	c #494949",
"B 	c #979797",
"C 	c #CBCBCB",
"D 	c #DBDBDB",
"E 	c #DEDEDE",
"F 	c #6D6D6D",
"G 	c #2C2C2C",
"H 	c #080808",
"I 	c #3F3F3F",
"J 	c #E4E4E4",
"K 	c #D2D2D2",
"L 	c #B7B7B7",
"M 	c #929292",
"N 	c #0E0E0E",
"O 	c #4B4B4B",
"P 	c #4C4C4C",
"Q 	c #727272",
"R 	c #EDEDED",
"S 	c #F3F3F3",
"T 	c #636363",
"U 	c #4F4F4F",
"V 	c #262626",
"W 	c #7A7A7A",
"X 	c #F6F6F6",
"Y 	c #DCDCDC",
"Z 	c #1F1F1F",
"` 	c #131313",
" .	c #4A4A4A",
"..	c #5B5B5B",
"+.	c #9F9F9F",
"@.	c #C5C5C5",
"#.	c #212120",
"$.	c #322D28",
"%.	c #4E4033",
"&.	c #322717",
"*.	c #261F08",
"=.	c #281F0B",
"-.	c #121212",
";.	c #5F5F5F",
">.	c #5A5A5A",
",.	c #545454",
"'.	c #565553",
").	c #322920",
"!.	c #835E3A",
"~.	c #D5A63E",
"{.	c #EECD27",
"].	c #E7C625",
"^.	c #D5B921",
"/.	c #B49B1B",
"(.	c #7F7706",
"_.	c #000000",
":.	c #685847",
"<.	c #B07C4A",
"[.	c #F0BA45",
"}.	c #FCD72B",
"|.	c #FCDB26",
"1.	c #FDDA29",
"2.	c #FDD92A",
"3.	c #FDDD26",
"4.	c #FCE11E",
"5.	c #F6E017",
"6.	c #E2C81E",
"7.	c #B38C30",
"8.	c #6E4C29",
"9.	c #372615",
"0.	c #0A0A0A",
"a.	c #242424",
"b.	c #434343",
"c.	c #2F2C29",
"d.	c #886645",
"e.	c #E09C58",
"f.	c #EBAC50",
"g.	c #F6B84B",
"h.	c #F9BF47",
"i.	c #FBAF5E",
"j.	c #FAAD61",
"k.	c #FBAD61",
"l.	c #FCB05B",
"m.	c #FDC049",
"n.	c #FDC642",
"o.	c #FBBF49",
"p.	c #F5AA5F",
"q.	c #AB7642",
"r.	c #232323",
"s.	c #363636",
"t.	c #2A2828",
"u.	c #795E44",
"v.	c #B77F4A",
"w.	c #B17A46",
"x.	c #BF8649",
"y.	c #CB9049",
"z.	c #CA8E4C",
"A.	c #CB8D50",
"B.	c #D19152",
"C.	c #D39252",
"D.	c #CF8F50",
"E.	c #C2864B",
"F.	c #AA7542",
"G.	c #8F6337",
"H.	c #563B22",
"I.	c #272523",
"J.	c #6D553E",
"K.	c #B17D4A",
"L.	c #AC7745",
"M.	c #AF7A46",
"N.	c #B47C47",
"O.	c #A37040",
"P.	c #8F6338",
"Q.	c #664628",
"R.	c #4C341D",
"S.	c #0C0C0C",
"T.	c #353535",
"U.	c #2A2A2A",
"V.	c #252321",
"W.	c #332A21",
"X.	c #3B2D1E",
"Y.	c #3C2A19",
"Z.	c #212121",
"`.	c #101010",
" +	c #1A1A1A",
".+	c #202020",
"++	c #2F2F2F",
"@+	c #5D5D5D",
"#+	c #686868",
"$+	c #696969",
"%+	c #666666",
"&+	c #777777",
"*+	c #767676",
"=+	c #6F6F6F",
"-+	c #606060",
";+	c #6E6E6E",
">+	c #646464",
",+	c #050505",
"'+	c #6C6C6C",
")+	c #787878",
"!+	c #747474",
"~+	c #656565",
"{+	c #7D7D7D",
"]+	c #626262",
"^+	c #6B6B6B",
"/+	c #616161",
"(+	c #B4B4B4",
"_+	c #B1B1B1",
":+	c #717171",
"<+	c #A8A8A8",
"[+	c #F7F7F7",
"}+	c #E5E5E5",
"|+	c #8E8E8E",
"1+	c #8A8A8A",
"2+	c #F8F8F8",
"3+	c #FBFBFB",
"4+	c #FCFCFC",
"5+	c #CFCFCF",
"6+	c #B6B6B6",
"7+	c #FDFDFD",
"8+	c #FEFEFE",
"9+	c #CACACA",
"0+	c #676767",
"a+	c #919191",
"b+	c #F9F9F9",
"c+	c #FFFFFF",
"d+	c #ECECEC",
"e+	c #B8B8B8",
"f+	c #DDDDDD",
"g+	c #6A6A6A",
"h+	c #E8E8E8",
"i+	c #C2C2C2",
"j+	c #E6E6E6",
"k+	c #E0E0E0",
"l+	c #C9C9C9",
"m+	c #F4F4F4",
"n+	c #9E9E9E",
"o+	c #7E7E7E",
"p+	c #E2E2E2",
"q+	c #FAFAFA",
"r+	c #D0D0D0",
"s+	c #797979",
"t+	c #848484",
"u+	c #B9B9B9",
"v+	c #A2A2A2",
"w+	c #818181",
"x+	c #858585",
"y+	c #BBBBBB",
"z+	c #909090",
"A+	c #E9E9E9",
"B+	c #F2F2F2",
"C+	c #BFBFBF",
"D+	c #878787",
"E+	c #7F7F7F",
"F+	c #DFDFDF",
"G+	c #EAEAEA",
"H+	c #F0F0F0",
"I+	c #EFEFEF",
"J+	c #E1E1E1",
"K+	c #F1F1F1",
"L+	c #C1C1C1",
"M+	c #D5D5D5",
"N+	c #CDCDCD",
"O+	c #F5F5F5",
"P+	c #DADADA",
"Q+	c #BEBEBE",
"R+	c #AAAAAA",
"S+	c #EEEEEE",
"T+	c #E7E7E7",
"U+	c #D7D7D7",
"V+	c #BDBDBD",
"W+	c #939393",
"X+	c #AEAEAE",
"Y+	c #C7C7C7",
"Z+	c #5D4024",
"`+	c #735A1E",
" @	c #624722",
".@	c #BCBCBC",
"+@	c #D6D6D6",
"@@	c #D3D3D3",
"#@	c #D1D1D1",
"$@	c #B0B0B0",
"%@	c #593F21",
"&@	c #8E7320",
"*@	c #E4B934",
"=@	c #88662A",
"-@	c #895E35",
";@	c #533920",
">@	c #080706",
",@	c #CCCCCC",
"'@	c #C8C8C8",
")@	c #433017",
"!@	c #8A711E",
"~@	c #E9BF31",
"{@	c #F7C53C",
"]@	c #534115",
"^@	c #674727",
"/@	c #5A3E22",
"(@	c #A57343",
"_@	c #2F2922",
":@	c #1E1E1D",
"<@	c #C6C6C6",
"[@	c #412F17",
"}@	c #745F18",
"|@	c #D3AC2D",
"1@	c #F0C335",
"2@	c #947820",
"3@	c #534411",
"4@	c #624426",
"5@	c #936538",
"6@	c #BD8349",
"7@	c #996C3E",
"8@	c #100F0E",
"9@	c #1D1D1D",
"0@	c #413016",
"a@	c #46390E",
"b@	c #B09025",
"c@	c #F3C635",
"d@	c #E6BC31",
"e@	c #4D3E12",
"f@	c #664727",
"g@	c #B87F47",
"h@	c #CC8D4F",
"i@	c #392A1B",
"j@	c #453317",
"k@	c #372D0C",
"l@	c #AC8C24",
"m@	c #C09C2A",
"n@	c #4A3913",
"o@	c #412D19",
"p@	c #46301B",
"q@	c #9F6E3D",
"r@	c #F4A85E",
"s@	c #865D34",
"t@	c #131110",
"u@	c #483617",
"v@	c #41340E",
"w@	c #B19126",
"x@	c #FABB4E",
"y@	c #DAA73F",
"z@	c #523B1C",
"A@	c #47311B",
"B@	c #5F4124",
"C@	c #F5A95E",
"D@	c #D09050",
"E@	c #1F190A",
"F@	c #35342F",
"G@	c #342A13",
"H@	c #43350F",
"I@	c #AA8926",
"J@	c #F2AA5A",
"K@	c #E29C57",
"L@	c #593D22",
"M@	c #3F2B18",
"N@	c #1B130A",
"O@	c #442F1A",
"P@	c #C98B4E",
"Q@	c #FDAF62",
"R@	c #866824",
"S@	c #201C0C",
"T@	c #4E4E4D",
"U@	c #151311",
"V@	c #574516",
"W@	c #866A22",
"X@	c #E59E58",
"Y@	c #75502D",
"Z@	c #392816",
"`@	c #24180E",
" #	c #583D22",
".#	c #E5AE42",
"+#	c #3C2F10",
"@#	c #211D12",
"##	c #181615",
"$#	c #423219",
"%#	c #8C6431",
"&#	c #DE9956",
"*#	c #8D6236",
"=#	c #2B1D10",
"-#	c #382716",
";#	c #FBB557",
">#	c #C69C31",
",#	c #1E190C",
"'#	c #2D2817",
")#	c #11100F",
"!#	c #3C2C1C",
"~#	c #98693B",
"{#	c #CE8E4F",
"]#	c #A3713F",
"^#	c #1F150C",
"/#	c #523F2C",
"(#	c #3D2A17",
"_#	c #F0BC3E",
":#	c #B18C2C",
"<#	c #131006",
"[#	c #151414",
"}#	c #111110",
"|#	c #1E1711",
"1#	c #9C6C3D",
"2#	c #BB8148",
"3#	c #191109",
"4#	c #402F1D",
"5#	c #5E4124",
"6#	c #E9A652",
"7#	c #EFBF38",
"8#	c #BB942F",
"9#	c #0F0D06",
"0#	c #050403",
"a#	c #0B0B0A",
"b#	c #0E0D0D",
"c#	c #0A0A09",
"d#	c #0F0E0E",
"e#	c #1A1A19",
"f#	c #130F0C",
"g#	c #94673A",
"h#	c #76512D",
"i#	c #271B0F",
"j#	c #271D13",
"k#	c #583E21",
"l#	c #F8C83A",
"m#	c #BB952E",
"n#	c #17100A",
"o#	c #030302",
"p#	c #090908",
"q#	c #161615",
"r#	c #2B1F13",
"s#	c #614326",
"t#	c #A06F3E",
"u#	c #52381F",
"v#	c #795829",
"w#	c #FBB558",
"x#	c #CD9E38",
"y#	c #2F2012",
"z#	c #50371F",
"A#	c #78532E",
"B#	c #AE7843",
"C#	c #895F35",
"D#	c #432E1A",
"E#	c #0E0C05",
"F#	c #6C4D26",
"G#	c #F9C144",
"H#	c #F8C939",
"I#	c #E3B537",
"J#	c #966D33",
"K#	c #4F381C",
"L#	c #302112",
"M#	c #23180D",
"N#	c #885E34",
"O#	c #E5AC46",
"P#	c #E3B636",
"Q#	c #C3923C",
"R#	c #4E381B",
"S#	c #402C19",
"T#	c #2C1F11",
"U#	c #160F08",
"V#	c #171106",
"W#	c #1B1408",
"X#	c #1E1609",
"                                                                                                                                ",
"                                                                                                                                ",
"                                                                                                                                ",
"                                                                                                                                ",
"                                                                                                                                ",
"                                                                                                                                ",
"                                                                                                                                ",
"                                                                                                                                ",
"                                                                                                                                ",
"                                                                                                                                ",
"                                                                                                                                ",
"                                                                                                                                ",
"                                                              . + @ # $                                                         ",
"                                                        % & * = - ; > , ' ) $                                                   ",
"                                                    @ ! ~ { ] ^ / ( _ : < [ ! +                                                 ",
"                                                  ) & } ^ | 1 _ ^ 2 3 4 { 5 6 7 8                                               ",
"                                                9 0 ; a b c d | : 6 e f f g h 6 i %                                             ",
"                                              j k l m n o d p q r } h 6 6 r } g f * +                                           ",
"                                              ) } ; s c n ( _ t 5 r 3 r u v w x f - y                                           ",
"                                            j z m f b | b n ( A 5 6 h h B C D E F G 8                                           ",
"                                            H 7 [ u s / x b | A I r e c C J K L M m 0 +                                         ",
"                                            N g - t O 1 n b | P a h ; Q R S T m U 6 = .                                         ",
"                                            k f V A U x n 1 | P a h ; W X Y } * 7 3 Z H                                         ",
"                                            ` g e  .( ..d 1 / A u r < +.X @.f #.$.%.&.*.=.                                      ",
"                                            -.e m ^ 1 ;.>.,.P q 4 r ^ B L L '.).!.~.{.].^./.(.                                  ",
"                                          _.y i u t b o >.p ^ u 3 r 6 ,.>.| :.<.[.}.|.1.2.3.4.5.6.7.8.9.                        ",
"                                          _.0.a. .s | c b P b.4 h r { 4 4 c.d.e.f.g.h.i.j.k.l.m.n.o.p.q.                        ",
"                                          _.H r.: s P x | ^ u r s.h { 4 6 t.u.v.w.x.y.z.A.B.C.D.E.F.G.H.                        ",
"                                            ) ! a  .] _ P q < h s.r 3 { 6 V I.J.K.L.M.N.O.P.Q.R.                                ",
"                                            S.& T.2 4 u q a 4 r s.r 6 { 6 T.U.Z V.W.X.Y.                                        ",
"                                            % = U.f h } g h r r s.f g g g [ G Z.`. +-                                           ",
"                                          j k .+++7 g } i i ++f g G V r.r.r.a.Z.~ [                                             ",
"                                          @ = - e ++i ~ G U.~ U.7 l V a..+= *  +e i                                             ",
"                                          `.r.; I t 5 3 r f i 7 - - V - V - Z ++g                                               ",
"                                        y > - 3 ,.x 1 : b.A : 2 h m ++U.7 G a.h e                                               ",
"                                         +a.{ @+#+$+%+;.| O s t < f 7 a.- 7 > } i #                                             ",
"                                      & & s.x Q &+*+=+#+-+d | P a m U.r..+7 r.[ 7 #                                             ",
"                                      z >  .%+&+W *+;+>+o d ,.p  .r 7 > Z Z.= g s.,+                                            ",
"                                    ! k s.| '+)+*+F >+>.,.U P : u s.l Z..+a.* Z.u -                                             ",
"                                  y * > 6 d F !+v ~+x _ A : a < r g ; Z..+> ! [ d {+++                                          ",
"                                  * Z.[ 2 ]+=+Q ^+/+/ t a I 4 T.e 7 > .+a.; & 3 (+_+/                                           ",
"                                % .+e < | #+:+=+>+>.A a 5 4 h [ ~ ; .+Z.> Z Z.<+[+}+|+l                                         ",
"                                ! U.5 q c ;+v '+/+/ q 5 4 r } G ; ; a.- 7 0 1+2+3+4+5+;+=                                       ",
"                              0.Z.4 t s ~+=+;+%+1 O 2 4 3 T.++7 r..+> r.= Z.6+7+3+8+X 9+c                                       ",
"                              ` ; q s n 0+;+#+@+s t 2 3 r f G V > Z.Z * 8 a+b+c+c+8+8+d+e+@                                     ",
"                              ' ++s 1 ]+F $+/+U ^ ^ 2 { } e l r.> Z.= > _+2+c+c+c+c+7+b+f+P                                     ",
"                            k `.s.,.c $+g+-+/ ] ^ t ^ s.f ~ ; a.r.= , a+b+c+c+c+c+c+c+3+h+i+j                                   ",
"                            8 8 h n -+;+%+( 2 a b.P / ^ ] ++- a.Z.* @+j+c+c+c+c+c+c+c+4+S k+                                    ",
"                            -.z 6 d o #+x 2 r u ^ p b ]+b G V a.= f l+3+c+c+c+c+c+c+c+7+b+m+n+                                  ",
"                            N z u >.>.o 5 g { q U 1 x o+1 ~ ; r.> $+p+8+8+c+c+c+c+c+c+8+[+q+r+                                  ",
"                            H k : ..x  .f T.5 _ ( n s+t+r l - r.e u+S 7+7+8+c+c+c+c+c+8+X 4+Y d                                 ",
"                            ,+8 O d | 3 ; { ^ s 1 ]+B 1 ~ 7 - - 5 E q+q+4+8+8+c+c+c+c+8+X q+}+v+9                               ",
"                            # 8  .b ] ; ++2 s ( n w+x+g U.l V 7 o d+X X q+7+8+c+c+c+c+7+[+[+j+y+Z                               ",
"                            # -.A | h V T.a U 1 %+z+1 i ~ 7 ; V W A+B+S 2+7+c+c+c+c+8+4+X S p+C+b.                              ",
"                          _.$ % ^ p 7 i 4 O | x D+E+e U.~ 7 l V x+F+G+H+2+7+c+8+8+c+8+4+S I+J+@.@+                              ",
"                          _._.S.t ^ Z.++b.O ,.0+v i ; ~ G 7 l i D+f+A+I+2+8+8+8+8+8+7+b+K+d+k+L+n                               ",
"                            _.H t I l f t _ 1 /+< Z.7 i U.l l i D+M+h+I+[+7+4+3+q+3+4+X H+A+f+y+O                               ",
"                            _.+ b.g a.s.t U p ( 7 a.U.~ 7 l l l x+N+j+d+O+b+2+m+m+O+[+K+R J P+Q+r                               ",
"                            _.S.g 7 V h ]  .] i - - U.G 7 l l G )+R+J h+I+S B+I+R S+S+R T+E U+V+,                               ",
"                            ,+-.U.} .+m a b.i ; a.l ~ ~ U.7 G f $+d W+K E G+d+A+T+T+J j+F+P+U+n+0                               ",
"                          ) %  +~ r [ i } 7 Z > r.U.U.m i g T.u 2 5 h s X+i+Y+9+r+p+F+D U+M+K #+      Z+`+ @                    ",
"                        $ . 0 .+G / u T.> = Z.V - G U.m h r b.A s ^ b.s.i 2 ;+r+@..@+@@@#@K $@7     %@&@*@=@-@                  ",
"                    ;@$ >@! l i : ;./ u [ V l ; ; G T.h 4 4 5 a p a 4 h s.e a.g 3 =+u+C ,@'@%+-.  )@!@~@{@]@                    ",
"                  ^@/@(@_@:@i ] 1 /+p : I [ G ~ ; G e h 6 { < a b.3 r T.++e U.> .+.+; ]+<@W+g   [@}@|@1@2@3@                    ",
"                  4@5@6@7@8@a.>./+d s b.4 g g e ~ G e } } T.h r { r T.f U.- Z.> > 9@, .+Z l ' 0@a@b@c@d@e@                      ",
"                  f@Z+g@h@i@` ;.;.1 : a m g } g ~ a.- 7 ++[ s.s.m g e 7 r.r.Z.z z .+!  +% -.j@k@l@1@m@n@o@                      ",
"                    p@q@r@s@t@( ..U 2 5 g } g ++- r.Z.l i 7 [ e e U.a.a.Z., z z , * 9@.+* u@v@w@x@y@z@A@                        ",
"                    9.B@C@D@E@F@@+: 4 6 g [ ++l a.; - r.l 7 ; V V r.> , ` ` z ! z * & k G@H@I@J@K@L@M@                          ",
"                    N@O@P@Q@R@S@T@I 5 } g [ ~ a.- .+9@= 9@Z = = = 0 z y `.-.' k ! 0 `.U@V@W@X@K@Y@Z@                            ",
"                      `@ #C@.#+#@#I < g [ i - Z.! k 8 & 9@z & k * 8 ` k -.N z k % -.##$#%#&#K@*#=#                              ",
"                        -#*#;#>#,#'#s.[ ++~ = z 8 % -.k ! & 8 ! & ' & & ! 0 k `.. )#!#~#{#K@]#^#                                ",
"                        /#(#{#_#:#<#* ++~ .+` `.0.S.      [#}#z -.-.y ' , `.N y -.|#1#6@X@2#3#                                  ",
"                        l 4#5#6#7#8#9#Z > ' ' j 0#              a#b#c#d#8 8 0.e#f#g#D.K@h#i#                                    ",
"                      , V 6 j#k#x@l#m#n#j 9 o#                      p#-.8 z q#r#s#g@X@t#u#                                      ",
"                      -.* , , ) v#w#l#x#y#O@p@                              + z#A#B#C#D#                                        ",
"                         +Z & ; E#F#G#H#I#J#K#L#                                4@;@M#                                          ",
"                            ++    _.N#O#P#P#Q#R#S#                                                                              ",
"                                      T#U#V#W#X#                                                                                ",
"                                                                                                                                ",
"                                                                                                                                "};
