/* XPM */
static  xpm_row_t const tux_stand_xpm[] = {
"64 80 394 2",
"  	c None",
". 	c #0B0B0B",
"+ 	c #090909",
"@ 	c #060606",
"# 	c #030303",
"$ 	c #010101",
"% 	c #0F0F0F",
"& 	c #181818",
"* 	c #1B1B1B",
"= 	c #1E1E1E",
"- 	c #252525",
"; 	c #272727",
"> 	c #222222",
", 	c #1C1C1C",
"' 	c #111111",
") 	c #070707",
"! 	c #191919",
"~ 	c #2B2B2B",
"{ 	c #3B3B3B",
"] 	c #444444",
"^ 	c #484848",
"/ 	c #505050",
"( 	c #535353",
"_ 	c #4E4E4E",
": 	c #464646",
"< 	c #3D3D3D",
"[ 	c #303030",
"} 	c #333333",
"| 	c #525252",
"1 	c #555555",
"2 	c #414141",
"3 	c #3A3A3A",
"4 	c #3C3C3C",
"5 	c #3E3E3E",
"6 	c #393939",
"7 	c #292929",
"8 	c #141414",
"9 	c #040404",
"0 	c #171717",
"a 	c #424242",
"b 	c #565656",
"c 	c #5C5C5C",
"d 	c #595959",
"e 	c #2E2E2E",
"f 	c #323232",
"g 	c #313131",
"h 	c #373737",
"i 	c #2D2D2D",
"j 	c #020202",
"k 	c #151515",
"l 	c #282828",
"m 	c #343434",
"n 	c #575757",
"o 	c #5E5E5E",
"p 	c #515151",
"q 	c #454545",
"r 	c #383838",
"s 	c #4D4D4D",
"t 	c #474747",
"u 	c #404040",
"v 	c #707070",
"w 	c #838383",
"x 	c #585858",
"y 	c #0D0D0D",
"z 	c #161616",
"A 	c #494949",
"B 	c #979797",
"C 	c #CBCBCB",
"D 	c #DBDBDB",
"E 	c #DEDEDE",
"F 	c #6D6D6D",
"G 	c #2C2C2C",
"H 	c #080808",
"I 	c #3F3F3F",
"J 	c #E4E4E4",
"K 	c #D2D2D2",
"L 	c #B7B7B7",
"M 	c #929292",
"N 	c #0E0E0E",
"O 	c #4B4B4B",
"P 	c #4C4C4C",
"Q 	c #727272",
"R 	c #EDEDED",
"S 	c #F3F3F3",
"T 	c #636363",
"U 	c #4F4F4F",
"V 	c #262626",
"W 	c #7A7A7A",
"X 	c #F6F6F6",
"Y 	c #DCDCDC",
"Z 	c #1F1F1F",
"` 	c #131313",
" .	c #4A4A4A",
"..	c #5B5B5B",
"+.	c #9F9F9F",
"@.	c #C5C5C5",
"#.	c #212120",
"$.	c #322D28",
"%.	c #4E4033",
"&.	c #322717",
"*.	c #261F08",
"=.	c #281F0B",
"-.	c #121212",
";.	c #5F5F5F",
">.	c #5A5A5A",
",.	c #545454",
"'.	c #565553",
").	c #322920",
"!.	c #835E3A",
"~.	c #D5A63E",
"{.	c #EECD27",
"].	c #E7C625",
"^.	c #D5B921",
"/.	c #B49B1B",
"(.	c #7F7706",
"_.	c #000000",
":.	c #685847",
"<.	c #B07C4A",
"[.	c #F0BA45",
"}.	c #FCD72B",
"|.	c #FCDB26",
"1.	c #FDDA29",
"2.	c #FDD92A",
"3.	c #FDDD26",
"4.	c #FCE11E",
"5.	c #F6E017",
"6.	c #E2C81E",
"7.	c #B38C30",
"8.	c #6E4C29",
"9.	c #372615",
"0.	c #0A0A0A",
"a.	c #242424",
"b.	c #434343",
"c.	c #2F2C29",
"d.	c #886645",
"e.	c #E09C58",
"f.	c #EBAC50",
"g.	c #F6B84B",
"h.	c #F9BF47",
"i.	c #FBAF5E",
"j.	c #FAAD61",
"k.	c #FBAD61",
"l.	c #FCB05B",
"m.	c #FDC049",
"n.	c #FDC642",
"o.	c #FBBF49",
"p.	c #F5AA5F",
"q.	c #AB7642",
"r.	c #232323",
"s.	c #363636",
"t.	c #2A2828",
"u.	c #795E44",
"v.	c #B77F4A",
"w.	c #B17A46",
"x.	c #BF8649",
"y.	c #CB9049",
"z.	c #CA8E4C",
"A.	c #CB8D50",
"B.	c #D19152",
"C.	c #D39252",
"D.	c #CF8F50",
"E.	c #C2864B",
"F.	c #AA7542",
"G.	c #8F6337",
"H.	c #563B22",
"I.	c #272523",
"J.	c #6D553E",
"K.	c #B17D4A",
"L.	c #AC7745",
"M.	c #AF7A46",
"N.	c #B47C47",
"O.	c #A37040",
"P.	c #8F6338",
"Q.	c #664628",
"R.	c #4C341D",
"S.	c #0C0C0C",
"T.	c #353535",
"U.	c #2A2A2A",
"V.	c #252321",
"W.	c #332A21",
"X.	c #3B2D1E",
"Y.	c #3C2A19",
"Z.	c #212121",
"`.	c #101010",
" +	c #1A1A1A",
".+	c #202020",
"++	c #2F2F2F",
"@+	c #5D5D5D",
"#+	c #686868",
"$+	c #696969",
"%+	c #666666",
"&+	c #777777",
"*+	c #767676",
"=+	c #6F6F6F",
"-+	c #606060",
";+	c #6E6E6E",
">+	c #646464",
",+	c #050505",
"'+	c #6C6C6C",
")+	c #787878",
"!+	c #747474",
"~+	c #656565",
"{+	c #7D7D7D",
"]+	c #626262",
"^+	c #6B6B6B",
"/+	c #B4B4B4",
"(+	c #B1B1B1",
"_+	c #717171",
":+	c #A8A8A8",
"<+	c #F7F7F7",
"[+	c #E5E5E5",
"}+	c #8E8E8E",
"|+	c #8A8A8A",
"1+	c #F8F8F8",
"2+	c #FBFBFB",
"3+	c #FCFCFC",
"4+	c #CFCFCF",
"5+	c #B6B6B6",
"6+	c #FDFDFD",
"7+	c #FEFEFE",
"8+	c #CACACA",
"9+	c #919191",
"0+	c #F9F9F9",
"a+	c #FFFFFF",
"b+	c #ECECEC",
"c+	c #B8B8B8",
"d+	c #DDDDDD",
"e+	c #6A6A6A",
"f+	c #E8E8E8",
"g+	c #C2C2C2",
"h+	c #616161",
"i+	c #E6E6E6",
"j+	c #E0E0E0",
"k+	c #1D1D1D",
"l+	c #C6C6C6",
"m+	c #F4F4F4",
"n+	c #9E9E9E",
"o+	c #E2E2E2",
"p+	c #FAFAFA",
"q+	c #D0D0D0",
"r+	c #A2A2A2",
"s+	c #BBBBBB",
"t+	c #E9E9E9",
"u+	c #F2F2F2",
"v+	c #BFBFBF",
"w+	c #7E7E7E",
"x+	c #868686",
"y+	c #DFDFDF",
"z+	c #EAEAEA",
"A+	c #F0F0F0",
"B+	c #EFEFEF",
"C+	c #E1E1E1",
"D+	c #828282",
"E+	c #888888",
"F+	c #F1F1F1",
"G+	c #C1C1C1",
"H+	c #8D8D8D",
"I+	c #D5D5D5",
"J+	c #878787",
"K+	c #D1D1D1",
"L+	c #E7E7E7",
"M+	c #F5F5F5",
"N+	c #DADADA",
"O+	c #BEBEBE",
"P+	c #676767",
"Q+	c #9C9C9C",
"R+	c #C7C7C7",
"S+	c #EEEEEE",
"T+	c #D7D7D7",
"U+	c #BDBDBD",
"V+	c #8B8B8B",
"W+	c #B5B5B5",
"X+	c #C3C3C3",
"Y+	c #797979",
"Z+	c #C9C9C9",
"`+	c #D8D8D8",
" @	c #E3E3E3",
".@	c #BABABA",
"+@	c #CECECE",
"@@	c #D3D3D3",
"#@	c #D9D9D9",
"$@	c #D6D6D6",
"%@	c #B0B0B0",
"&@	c #8C8C8C",
"*@	c #CDCDCD",
"=@	c #CCCCCC",
"-@	c #C8C8C8",
";@	c #A9A9A9",
">@	c #AEAEAE",
",@	c #C0C0C0",
"'@	c #A3A3A3",
")@	c #C4C4C4",
"!@	c #BCBCBC",
"~@	c #AFAFAF",
"{@	c #737373",
"]@	c #7C7C7C",
"^@	c #100F0F",
"/@	c #110F0E",
"(@	c #131110",
"_@	c #141311",
":@	c #171513",
"<@	c #1A1815",
"[@	c #1A1715",
"}@	c #191816",
"|@	c #141313",
"1@	c #030302",
"2@	c #080503",
"3@	c #3F2C18",
"4@	c #2F2111",
"5@	c #2C1E11",
"6@	c #3B2917",
"7@	c #0E0A07",
"8@	c #1A120A",
"9@	c #19120A",
"0@	c #1A130B",
"a@	c #2B1E12",
"b@	c #4E3720",
"c@	c #624527",
"d@	c #6A4C2E",
"e@	c #5C432A",
"f@	c #4C3824",
"g@	c #4E3A26",
"h@	c #674A2E",
"i@	c #7E5732",
"j@	c #85602E",
"k@	c #79562B",
"l@	c #87622D",
"m@	c #997130",
"n@	c #A77F30",
"o@	c #BEA022",
"p@	c #CFAC28",
"q@	c #D6AC33",
"r@	c #EAC62B",
"s@	c #BC9430",
"t@	c #9E6D3D",
"u@	c #312213",
"v@	c #4A331C",
"w@	c #634526",
"x@	c #47311B",
"y@	c #302112",
"z@	c #5F4225",
"A@	c #7C5630",
"B@	c #815931",
"C@	c #C98B4E",
"D@	c #D59352",
"E@	c #E39D58",
"F@	c #EEA45C",
"G@	c #F4A95D",
"H@	c #F5B055",
"I@	c #F7BB49",
"J@	c #F7BE46",
"K@	c #F9C73D",
"L@	c #F8C53F",
"M@	c #ECBF35",
"N@	c #F6C53A",
"O@	c #F9CC35",
"P@	c #F8CC35",
"Q@	c #C18D3E",
"R@	c #926538",
"S@	c #191109",
"T@	c #412D19",
"U@	c #46301B",
"V@	c #22180D",
"W@	c #432E1A",
"X@	c #734F2C",
"Y@	c #75512D",
"Z@	c #9D6D3D",
"`@	c #C0854A",
" #	c #BE8349",
".#	c #AA7541",
"+#	c #AE7843",
"@#	c #B07A44",
"##	c #B87F47",
"$#	c #BD8349",
"%#	c #C88B4D",
"&#	c #CC8D4F",
"*#	c #D7964F",
"=#	c #DFA646",
"-#	c #9B7035",
";#	c #5E4124",
">#	c #563B21",
",#	c #382615",
"'#	c #442F1A",
")#	c #362515",
"!#	c #271B0F",
"~#	c #120C07",
"{#	c #0F0A05",
"]#	c #0C0804",
"^#	c #0B0704",
"/#	c #0D0905",
"(#	c #100B06",
"_#	c #1D140B",
":#	c #3F340C",
"<#	c #2B200D",
"                                                                                                                                ",
"                                                                                                                                ",
"                                                                                                                                ",
"                                                                                                                                ",
"                                                                                                                                ",
"                                                                                                                                ",
"                                                                                                                                ",
"                                                                                                                                ",
"                                                                                                                                ",
"                                                                                                                                ",
"                                                                                                                                ",
"                                                                                                                                ",
"                                                                                                                                ",
"                                                              . + @ # $                                                         ",
"                                                        % & * = - ; > , ' ) $                                                   ",
"                                                    @ ! ~ { ] ^ / ( _ : < [ ! +                                                 ",
"                                                  ) & } ^ | 1 _ ^ 2 3 4 { 5 6 7 8                                               ",
"                                                9 0 ; a b c d | : 6 e f f g h 6 i %                                             ",
"                                              j k l m n o d p q r } h 6 6 r } g f * +                                           ",
"                                              ) } ; s c n ( _ t 5 r 3 r u v w x f - y                                           ",
"                                            j z m f b | b n ( A 5 6 h h B C D E F G 8                                           ",
"                                            H 7 [ u s / x b | A I r e c C J K L M m 0 +                                         ",
"                                            N g - t O 1 n b | P a h ; Q R S T m U 6 = .                                         ",
"                                            k f V A U x n 1 | P a h ; W X Y } * 7 3 Z H                                         ",
"                                            ` g e  .( ..d 1 / A u r < +.X @.f #.$.%.&.*.=.                                      ",
"                                            -.e m ^ 1 ;.>.,.P q 4 r ^ B L L '.).!.~.{.].^./.(.                                  ",
"                                          _.y i u t b o >.p ^ u 3 r 6 ,.>.| :.<.[.}.|.1.2.3.4.5.6.7.8.9.                        ",
"                                          _.0.a. .s | c b P b.4 h r { 4 4 c.d.e.f.g.h.i.j.k.l.m.n.o.p.q.                        ",
"                                          _.H r.: s P x | ^ u r s.h { 4 6 t.u.v.w.x.y.z.A.B.C.D.E.F.G.H.                        ",
"                                            ) ! a  .] _ P q < h s.r 3 { 6 V I.J.K.L.M.N.O.P.Q.R.                                ",
"                                            S.& T.2 4 u q a 4 r s.r 6 { 6 T.U.Z V.W.X.Y.                                        ",
"                                            % = U.f h } g h r r s.f g g g [ G Z.`. +-                                           ",
"                                          j k .+++7 g } i i ++f g G V r.r.r.a.Z.~ [                                             ",
"                                          @ = - e ++i ~ G U.~ U.7 l V a..+= *  +e i                                             ",
"                                          `.r.; I t 5 3 r f i 7 - - V - V - Z ++g                                               ",
"                                        y > - 3 ,.x 1 : b.A : 2 h m ++U.7 G a.h e                                               ",
"                                         +a.{ @+#+$+%+;.| O s t < f 7 a.- 7 > } i #                                             ",
"                                      & & s.x Q &+*+=+#+-+d | P a m U.r..+7 r.[ 7 #                                             ",
"                                      z >  .%+&+W *+;+>+o d ,.p  .r 7 > Z Z.= g s.,+                                            ",
"                                    ! k s.| '+)+*+F >+>.,.U P : u s.l Z..+a.* Z.u -                                             ",
"                                  y * > 6 d F !+v ~+x _ A : a < r g ; Z..+> ! [ d {+++                                          ",
"                                  * Z.[ 2 ]+=+Q ^+o / t a I 4 T.e 7 > .+a.; & 3 /+(+/                                           ",
"                                % .+e < | #+_+=+~+b  .a 5 4 h [ ~ ; .+Z.> Z Z.:+<+[+}+l                                         ",
"                                ! U.5 q c ;+_+'+;.p : 5 4 r } G ; ; a.- 7 0 |+1+2+3+4+;+=                                       ",
"                              0.Z.4 t s ~+=+v #+..s a 4 r m ++7 r..+> r.= Z.5+6+2+7+X 8+c                                       ",
"                              ` ; q s n $+;+^+T n O 2 3 m g i ; > Z.Z * 8 9+0+a+a+7+7+b+c+@                                     ",
"                              ' ++s 1 ]+F '+~+c b O 2 { 3 [ G l a.r.= > (+1+a+a+a+a+6+0+d+P                                     ",
"                            k `.s.,.c e+;+$+/ p ,. .a u 2 [ i ~ l Z * 9+0+a+a+a+a+a+a+2+f+g+j                                   ",
"                            8 8 h n -+=+_+h+t ( / O  ./  .l ~ e U.! ^ i+a+a+a+a+a+a+a+3+S j+                                    ",
"                            -.z 6 d o #+=+c ] p _ P ( h+P a.~ [ V k+l+2+a+a+a+a+a+a+a+6+0+m+n+                                  ",
"                            N z u >...T '+..3 s O  .b ^+,.Z G e = ,.o+7+7+a+a+a+a+a+a+7+<+p+q+                                  ",
"                            H k t ..>.~+#+n T.2 ^ A b v d * ~ i Z 5+S 6+6+7+a+a+a+a+a+7+X 3+Y d                                 ",
"                            ,+k O >.1 ]+h+( f h : ^ ,.Q @+, G ; a.E p+p+3+7+7+a+a+a+a+7+X p+[+r+9                               ",
"                            9 k  .x ,.h+..s } e ] ] | Q T k+i r.( b+X X p+6+7+a+a+a+a+6+<+<+i+s+Z                               ",
"                            # ` A b 1 h+b  .s.; u  .| v =+> ++.+W t+u+S 1+6+a+a+a+a+7+3+X S o+v+b.                              ",
"                          $ $ `.^ b 1 ]+b A 3 > } O | ;+w+7 [ Z.x+y+z+A+1+6+a+7+7+a+7+3+S B+C+@.@+                              ",
"                          _._.S.q ,.b ]+d O 5 ~ f P b =+D+++[ r.E+d+t+B+1+7+7+7+7+7+6+0+F+b+j+G+n                               ",
"                            _.H 4 | x ~+>.P u g ; ^ ( ;+w+T.[ - H+I+f+B+<+6+3+2+p+2+3+X A+t+d+s+O                               ",
"                            _.9 } U 1 %+o _ b.s.l O | F J+h ++; M K+L+b+M+0+1+m+m+M+<+F+R J N+O+r                               ",
"                            _.$ 7 t 1 %+-+p q 3 i | | P+M 3 f U.Q+R+[+f+B+S u+B+R S+S+R L+E T+U+,                               ",
"                            _._.Z 3 / T ]+,.t 5 g : ,.h+V+6 m ++W+X+j+C+i+z+b+t+L+L+J i+y+N+T+n+0                               ",
"                            _._.` s.: c h+b ^ 2 r a d >+Y+T.} f Z+O+T+`+D C+J  @ @o+y+D T+I+K #+                                ",
"                            _._.,+G 2 b o n  .a < u >+..@+g f ++.@G+l++@4+@@#@D d+D $@@@K+K %@7                                 ",
"                            _._.j , ] / 1 b s b.I T.5 t g f g G &@.@/+G+X+R+*@K+I+K =@C =@-@#+-.                                ",
"                            _._.$ ` h P ^ p U q u 4 6 h T.f ++U.1 ;@>@.@U+,@@.8+*@C l+R+-@n+s.                                  ",
"                              _.$ -..+P  . .P t u 4 6 s.f ++G U.[ '@/+c+.@U+X+l+Z+R+@.R+;@P                                     ",
"                              $ # -.` < / : u b.I { r m g e ~ l Z.M W+g+v+G+)@l+-@Z+-@U+                                        ",
"                                N * ! > ^ P 5 T.s.6 r T.f e G 7 .+a .@,@8+@.g+!@G+@.~@/ !                                       ",
"                              & & l l  +++: ] r ++e } T.} g e U.> = {@.@g+U+5+W+!@L P z                                         ",
"                              z U.2 t 6 G T.5 I 3 f G G i e G ~ a., [ _++.~@Q+]@Q ++H                                           ",
"                            * e  .d 1 U < f e T.< < r f ~ ; V l V Z = U.m 2 : r.N .                                             ",
"                          a.; _ p ..>._ a 3 e 7 G T.3 r T.g i ~ l ; > = , 0 . @ +                                               ",
"                        e l  ._ U ,. .a 3 g 7 Z.Z.a.a.7 ++f g [ e ~ ; Z & N # #                                                 ",
"                        l ] ^ b.a 4 m f g i .+z ^@/@(@_@:@<@[@}@|@`.N y 0.1@2@        3@4@5@6@                                  ",
"                      , l m i G 7 Z.& k ' 0.) 7@8@9@0@9@a@b@c@d@e@f@g@h@i@j@k@l@m@n@o@p@q@r@s@t@                                ",
"                      -.* , k+& % ) 9         u@v@w@x@y@z@A@B@q.C@D@E@F@G@H@I@J@K@L@M@N@O@P@Q@R@                                ",
"                         +&                   S@T@U@y@V@W@X@Y@Z@`@ #.#+#@###$#%#C@&#`@E.*#=#-#;#                                ",
"                                                  >#6@5@,#'#)#6@  !#~#{#]#^#]#/#(#(#{#{#_#:#<#                                  ",
"                                                                                                                                ",
"                                                                                                                                "};
