/* XPM */
static  xpm_row_t const tux_walk_3_xpm[] = {
"64 80 495 2",
"  	c None",
". 	c #0B0B0B",
"+ 	c #090909",
"@ 	c #060606",
"# 	c #030303",
"$ 	c #010101",
"% 	c #0F0F0F",
"& 	c #181818",
"* 	c #1B1B1B",
"= 	c #1E1E1E",
"- 	c #252525",
"; 	c #272727",
"> 	c #222222",
", 	c #1C1C1C",
"' 	c #111111",
") 	c #070707",
"! 	c #191919",
"~ 	c #2B2B2B",
"{ 	c #3B3B3B",
"] 	c #444444",
"^ 	c #484848",
"/ 	c #505050",
"( 	c #535353",
"_ 	c #4E4E4E",
": 	c #464646",
"< 	c #3D3D3D",
"[ 	c #303030",
"} 	c #333333",
"| 	c #525252",
"1 	c #555555",
"2 	c #414141",
"3 	c #3A3A3A",
"4 	c #3C3C3C",
"5 	c #3E3E3E",
"6 	c #393939",
"7 	c #292929",
"8 	c #141414",
"9 	c #040404",
"0 	c #171717",
"a 	c #424242",
"b 	c #565656",
"c 	c #5C5C5C",
"d 	c #595959",
"e 	c #2E2E2E",
"f 	c #323232",
"g 	c #313131",
"h 	c #373737",
"i 	c #2D2D2D",
"j 	c #020202",
"k 	c #151515",
"l 	c #282828",
"m 	c #343434",
"n 	c #575757",
"o 	c #5E5E5E",
"p 	c #515151",
"q 	c #454545",
"r 	c #383838",
"s 	c #4D4D4D",
"t 	c #474747",
"u 	c #404040",
"v 	c #707070",
"w 	c #838383",
"x 	c #585858",
"y 	c #0D0D0D",
"z 	c #161616",
"A 	c #494949",
"B 	c #979797",
"C 	c #CBCBCB",
"D 	c #DBDBDB",
"E 	c #DEDEDE",
"F 	c #6D6D6D",
"G 	c #2C2C2C",
"H 	c #080808",
"I 	c #3F3F3F",
"J 	c #E4E4E4",
"K 	c #D2D2D2",
"L 	c #B7B7B7",
"M 	c #929292",
"N 	c #0E0E0E",
"O 	c #4B4B4B",
"P 	c #4C4C4C",
"Q 	c #727272",
"R 	c #EDEDED",
"S 	c #F3F3F3",
"T 	c #636363",
"U 	c #4F4F4F",
"V 	c #262626",
"W 	c #7A7A7A",
"X 	c #F6F6F6",
"Y 	c #DCDCDC",
"Z 	c #1F1F1F",
"` 	c #131313",
" .	c #4A4A4A",
"..	c #5B5B5B",
"+.	c #9F9F9F",
"@.	c #C5C5C5",
"#.	c #212120",
"$.	c #322D28",
"%.	c #4E4033",
"&.	c #322717",
"*.	c #261F08",
"=.	c #281F0B",
"-.	c #121212",
";.	c #5F5F5F",
">.	c #5A5A5A",
",.	c #545454",
"'.	c #565553",
").	c #322920",
"!.	c #835E3A",
"~.	c #D5A63E",
"{.	c #EECD27",
"].	c #E7C625",
"^.	c #D5B921",
"/.	c #B49B1B",
"(.	c #7F7706",
"_.	c #000000",
":.	c #685847",
"<.	c #B07C4A",
"[.	c #F0BA45",
"}.	c #FCD72B",
"|.	c #FCDB26",
"1.	c #FDDA29",
"2.	c #FDD92A",
"3.	c #FDDD26",
"4.	c #FCE11E",
"5.	c #F6E017",
"6.	c #E2C81E",
"7.	c #B38C30",
"8.	c #6E4C29",
"9.	c #372615",
"0.	c #0A0A0A",
"a.	c #242424",
"b.	c #434343",
"c.	c #2F2C29",
"d.	c #886645",
"e.	c #E09C58",
"f.	c #EBAC50",
"g.	c #F6B84B",
"h.	c #F9BF47",
"i.	c #FBAF5E",
"j.	c #FAAD61",
"k.	c #FBAD61",
"l.	c #FCB05B",
"m.	c #FDC049",
"n.	c #FDC642",
"o.	c #FBBF49",
"p.	c #F5AA5F",
"q.	c #AB7642",
"r.	c #232323",
"s.	c #363636",
"t.	c #2A2828",
"u.	c #795E44",
"v.	c #B77F4A",
"w.	c #B17A46",
"x.	c #BF8649",
"y.	c #CB9049",
"z.	c #CA8E4C",
"A.	c #CB8D50",
"B.	c #D19152",
"C.	c #D39252",
"D.	c #CF8F50",
"E.	c #C2864B",
"F.	c #AA7542",
"G.	c #8F6337",
"H.	c #563B22",
"I.	c #272523",
"J.	c #6D553E",
"K.	c #B17D4A",
"L.	c #AC7745",
"M.	c #AF7A46",
"N.	c #B47C47",
"O.	c #A37040",
"P.	c #8F6338",
"Q.	c #664628",
"R.	c #4C341D",
"S.	c #0C0C0C",
"T.	c #353535",
"U.	c #2A2A2A",
"V.	c #252321",
"W.	c #332A21",
"X.	c #3B2D1E",
"Y.	c #3C2A19",
"Z.	c #212121",
"`.	c #101010",
" +	c #1A1A1A",
".+	c #202020",
"++	c #2F2F2F",
"@+	c #5D5D5D",
"#+	c #686868",
"$+	c #696969",
"%+	c #666666",
"&+	c #777777",
"*+	c #767676",
"=+	c #6F6F6F",
"-+	c #606060",
";+	c #6E6E6E",
">+	c #646464",
",+	c #050505",
"'+	c #6C6C6C",
")+	c #787878",
"!+	c #747474",
"~+	c #656565",
"{+	c #7D7D7D",
"]+	c #626262",
"^+	c #6B6B6B",
"/+	c #616161",
"(+	c #B4B4B4",
"_+	c #B1B1B1",
":+	c #717171",
"<+	c #A8A8A8",
"[+	c #F7F7F7",
"}+	c #E5E5E5",
"|+	c #8E8E8E",
"1+	c #8A8A8A",
"2+	c #F8F8F8",
"3+	c #FBFBFB",
"4+	c #FCFCFC",
"5+	c #CFCFCF",
"6+	c #B6B6B6",
"7+	c #FDFDFD",
"8+	c #FEFEFE",
"9+	c #CACACA",
"0+	c #676767",
"a+	c #919191",
"b+	c #F9F9F9",
"c+	c #FFFFFF",
"d+	c #ECECEC",
"e+	c #B8B8B8",
"f+	c #DDDDDD",
"g+	c #E8E8E8",
"h+	c #C2C2C2",
"i+	c #E6E6E6",
"j+	c #E0E0E0",
"k+	c #C9C9C9",
"l+	c #F4F4F4",
"m+	c #9E9E9E",
"n+	c #E2E2E2",
"o+	c #FAFAFA",
"p+	c #D0D0D0",
"q+	c #B9B9B9",
"r+	c #A2A2A2",
"s+	c #6A6A6A",
"t+	c #8B8B8B",
"u+	c #BBBBBB",
"v+	c #8F8F8F",
"w+	c #E9E9E9",
"x+	c #F2F2F2",
"y+	c #BFBFBF",
"z+	c #808080",
"A+	c #888888",
"B+	c #868686",
"C+	c #DFDFDF",
"D+	c #EAEAEA",
"E+	c #F0F0F0",
"F+	c #EFEFEF",
"G+	c #E1E1E1",
"H+	c #818181",
"I+	c #F1F1F1",
"J+	c #C1C1C1",
"K+	c #878787",
"L+	c #8D8D8D",
"M+	c #D5D5D5",
"N+	c #898989",
"O+	c #D1D1D1",
"P+	c #E7E7E7",
"Q+	c #F5F5F5",
"R+	c #DADADA",
"S+	c #BEBEBE",
"T+	c #9C9C9C",
"U+	c #C7C7C7",
"V+	c #EEEEEE",
"W+	c #D7D7D7",
"X+	c #BDBDBD",
"Y+	c #7B7B7B",
"Z+	c #B2B2B2",
"`+	c #C3C3C3",
" @	c #D8D8D8",
".@	c #7E7E7E",
"+@	c #A0A0A0",
"@@	c #A7A7A7",
"#@	c #B0B0B0",
"$@	c #E3E3E3",
"%@	c #757575",
"&@	c #8C8C8C",
"*@	c #CCCCCC",
"=@	c #D6D6D6",
"-@	c #D3D3D3",
";@	c #B7AFA8",
">@	c #858585",
",@	c #C8C8C8",
"'@	c #949494",
")@	c #886F56",
"!@	c #6E4F2E",
"~@	c #49341A",
"{@	c #65594E",
"]@	c #47321B",
"^@	c #60461E",
"/@	c #9C7D24",
"(@	c #977823",
"_@	c #3B2B12",
":@	c #61482F",
"<@	c #6B4E23",
"[@	c #E2B733",
"}@	c #F4C734",
"|@	c #F5C638",
"1@	c #BF9038",
"2@	c #281B0F",
"3@	c #110E0B",
"4@	c #372A1C",
"5@	c #E3B437",
"6@	c #F6C835",
"7@	c #F8C938",
"8@	c #DCAF35",
"9@	c #A7842A",
"0@	c #725325",
"a@	c #080503",
"b@	c #1D1D1D",
"c@	c #211912",
"d@	c #2D2115",
"e@	c #2F220F",
"f@	c #664E1B",
"g@	c #E5B735",
"h@	c #F8C73C",
"i@	c #FABD4A",
"j@	c #C99243",
"k@	c #A2723B",
"l@	c #4F371E",
"m@	c #160F08",
"n@	c #332314",
"o@	c #030201",
"p@	c #050403",
"q@	c #160F09",
"r@	c #1C130B",
"s@	c #3E2F11",
"t@	c #917027",
"u@	c #F6BB48",
"v@	c #FBBA50",
"w@	c #D0934C",
"x@	c #734F2C",
"y@	c #442F1A",
"z@	c #422D19",
"A@	c #090603",
"B@	c #432E1A",
"C@	c #2C1E11",
"D@	c #040302",
"E@	c #070606",
"F@	c #030202",
"G@	c #080604",
"H@	c #1B130A",
"I@	c #392716",
"J@	c #AA783D",
"K@	c #FAB458",
"L@	c #FCB45A",
"M@	c #4F361E",
"N@	c #5C3F24",
"O@	c #2E2011",
"P@	c #412D19",
"Q@	c #533920",
"R@	c #4D361E",
"S@	c #1E1710",
"T@	c #161310",
"U@	c #0C0905",
"V@	c #0E0A05",
"W@	c #070503",
"X@	c #171009",
"Y@	c #312213",
"Z@	c #825A32",
"`@	c #DB9754",
" #	c #FDAF62",
".#	c #FCB25D",
"+#	c #875E34",
"@#	c #52381F",
"##	c #9D6D3D",
"$#	c #5D4125",
"%#	c #1F150C",
"&#	c #5E4124",
"*#	c #75522A",
"=#	c #8F6533",
"-#	c #46311B",
";#	c #3E2E1D",
">#	c #4C453F",
",#	c #110C08",
"'#	c #0D0905",
")#	c #120C07",
"!#	c #3B2917",
"~#	c #AC7742",
"{#	c #D49252",
"]#	c #CE8E4F",
"^#	c #C98B4E",
"/#	c #9B6B3C",
"(#	c #3C2917",
"_#	c #6F4C2B",
":#	c #B17B45",
"<#	c #54412D",
"[#	c #281C0F",
"}#	c #6E4C2A",
"|#	c #AF7E3D",
"1#	c #795925",
"2#	c #5F4223",
"3#	c #624529",
"4#	c #423C36",
"5#	c #553B21",
"6#	c #C1854A",
"7#	c #C3874B",
"8#	c #996A3B",
"9#	c #76512D",
"0#	c #543A20",
"a#	c #6F4D2B",
"b#	c #A57240",
"c#	c #4A3B2C",
"d#	c #23180D",
"e#	c #291C10",
"f#	c #7E5731",
"g#	c #BE8A3F",
"h#	c #AC8232",
"i#	c #775628",
"j#	c #3B2E20",
"k#	c #020101",
"l#	c #402C18",
"m#	c #805931",
"n#	c #7F5831",
"o#	c #694828",
"p#	c #48321C",
"q#	c #46311C",
"r#	c #634527",
"s#	c #221D1A",
"t#	c #46301B",
"u#	c #946738",
"v#	c #D09747",
"w#	c #D09F3B",
"x#	c #96702E",
"y#	c #131212",
"z#	c #060605",
"A#	c #090704",
"B#	c #070502",
"C#	c #261A0E",
"D#	c #3C2A17",
"E#	c #3E2A17",
"F#	c #3B2916",
"G#	c #110C07",
"H#	c #916636",
"I#	c #A57838",
"J#	c #CB9A3B",
"K#	c #BA8F33",
"L#	c #7A5C2A",
"M#	c #392917",
"N#	c #130D08",
"O#	c #1E150C",
"P#	c #322313",
"Q#	c #2B1E10",
"R#	c #22170D",
"S#	c #2E2012",
"T#	c #191109",
"U#	c #684828",
"V#	c #A67839",
"W#	c #B38537",
"X#	c #E7B43C",
"Y#	c #E1AE3F",
"Z#	c #CC9B3C",
"`#	c #B18533",
" $	c #A98130",
".$	c #B28B2E",
"+$	c #B18B2C",
"@$	c #806322",
"#$	c #775923",
"$$	c #76522E",
"%$	c #5B3F23",
"&$	c #825932",
"*$	c #74512C",
"=$	c #A2703F",
"-$	c #C5894B",
";$	c #FBB853",
">$	c #F5B84A",
",$	c #F4BA45",
"'$	c #F9C53F",
")$	c #F8C63D",
"!$	c #F6C33D",
"~$	c #E2AA45",
"{$	c #B2803E",
"]$	c #906438",
"^$	c #875D34",
"/$	c #AD7742",
"($	c #A67340",
"_$	c #85602D",
":$	c #A27438",
"<$	c #AE8137",
"[$	c #926F2A",
"}$	c #7A5D24",
"|$	c #47321A",
"1$	c #382715",
"2$	c #140E07",
"3$	c #22180D",
"4$	c #130D07",
"5$	c #110C06",
"6$	c #0F0A06",
"                                                                                                                                ",
"                                                                                                                                ",
"                                                                                                                                ",
"                                                                                                                                ",
"                                                                                                                                ",
"                                                                                                                                ",
"                                                                                                                                ",
"                                                                                                                                ",
"                                                                                                                                ",
"                                                                                                                                ",
"                                                                                                                                ",
"                                                              . + @ # $                                                         ",
"                                                        % & * = - ; > , ' ) $                                                   ",
"                                                    @ ! ~ { ] ^ / ( _ : < [ ! +                                                 ",
"                                                  ) & } ^ | 1 _ ^ 2 3 4 { 5 6 7 8                                               ",
"                                                9 0 ; a b c d | : 6 e f f g h 6 i %                                             ",
"                                              j k l m n o d p q r } h 6 6 r } g f * +                                           ",
"                                              ) } ; s c n ( _ t 5 r 3 r u v w x f - y                                           ",
"                                            j z m f b | b n ( A 5 6 h h B C D E F G 8                                           ",
"                                            H 7 [ u s / x b | A I r e c C J K L M m 0 +                                         ",
"                                            N g - t O 1 n b | P a h ; Q R S T m U 6 = .                                         ",
"                                            k f V A U x n 1 | P a h ; W X Y } * 7 3 Z H                                         ",
"                                            ` g e  .( ..d 1 / A u r < +.X @.f #.$.%.&.*.=.                                      ",
"                                            -.e m ^ 1 ;.>.,.P q 4 r ^ B L L '.).!.~.{.].^./.(.                                  ",
"                                          _.y i u t b o >.p ^ u 3 r 6 ,.>.| :.<.[.}.|.1.2.3.4.5.6.7.8.9.                        ",
"                                          _.0.a. .s | c b P b.4 h r { 4 4 c.d.e.f.g.h.i.j.k.l.m.n.o.p.q.                        ",
"                                          _.H r.: s P x | ^ u r s.h { 4 6 t.u.v.w.x.y.z.A.B.C.D.E.F.G.H.                        ",
"                                            ) ! a  .] _ P q < h s.r 3 { 6 V I.J.K.L.M.N.O.P.Q.R.                                ",
"                                            S.& T.2 4 u q a 4 r s.r 6 { 6 T.U.Z V.W.X.Y.                                        ",
"                                            % = U.f h } g h r r s.f g g g [ G Z.`. +-                                           ",
"                                          j k .+++7 g } i i ++f g G V r.r.r.a.Z.~ [                                             ",
"                                          @ = - e ++i ~ G U.~ U.7 l V a..+= *  +e i                                             ",
"                                          `.r.; I t 5 3 r f i 7 - - V - V - Z ++g                                               ",
"                                        y > - 3 ,.x 1 : b.A : 2 h m ++U.7 G a.h e                                               ",
"                                         +a.{ @+#+$+%+;.| O s t < f 7 a.- 7 > } i #                                             ",
"                                      & & s.x Q &+*+=+#+-+d | P a m U.r..+7 r.[ 7 #                                             ",
"                                      z >  .%+&+W *+;+>+o d ,.p  .r 7 > Z Z.= g s.,+                                            ",
"                                    ! k s.| '+)+*+F >+>.,.U P : u s.l Z..+a.* Z.u -                                             ",
"                                  y * > 6 d F !+v ~+x _ A : a < r g ; Z..+> ! [ d {+++                                          ",
"                                  * Z.[ 2 ]+=+Q ^+/+/ t a I 4 T.e 7 > .+a.; & 3 (+_+/                                           ",
"                                % .+e < | #+:+=+>+>. .a 5 4 h [ ~ ; .+Z.> Z Z.<+[+}+|+l                                         ",
"                                ! U.5 q c ;+v '+]+p : 5 4 r } G ; ; a.- 7 0 1+2+3+4+5+;+=                                       ",
"                              0.Z.4 t s ~+=+;+%+n P 2 4 3 T.++7 r..+> r.= Z.6+7+3+8+X 9+c                                       ",
"                              ` ; q s n 0+'+%+o U ^ u 3 6 f G V > Z.Z * 8 a+b+c+c+8+8+d+e+@                                     ",
"                              ' ++s 1 ]+'+%+]+b s ^ 2 4 m g l r.> Z.= > _+2+c+c+c+c+7+b+f+P                                     ",
"                            k `.s.,.c $+'+>+c p  . .b.< s.++; a.r.= , a+b+c+c+c+c+c+c+3+g+h+j                                   ",
"                            8 8 h n -+=+^+o ( A  .: : ] m 7 - a.Z.* @+i+c+c+c+c+c+c+c+4+S j+                                    ",
"                            -.z 6 d o ^+#+>.^ O A ^ q  .++l V a.= f k+3+c+c+c+c+c+c+c+7+b+l+m+                                  ",
"                            N z u >...#+]+:  .t t : O ..f 7 ; r.> $+n+8+8+c+c+c+c+c+c+8+[+o+p+                                  ",
"                            H k t ..>.~+..a ] : : q ,.~+m l - r.e q+S 7+7+8+c+c+c+c+c+8+X 4+Y d                                 ",
"                            ,+k O >.>.T x f a : q : >+&+T.7 - - 5 E o+o+4+8+8+c+c+c+c+8+X o+}+r+9                               ",
"                            9 k  .x x /+( f I : q  .s+t+T.l V 7 o d+X X o+7+8+c+c+c+c+7+[+[+i+u+Z                               ",
"                            # ` A b x /+d } r : : _ v v+} 7 ; V W w+x+S 2+7+c+c+c+c+8+4+X S n+y+b.                              ",
"                          $ $ `.^ b n ]+..h m 2 t 1 z+A+} 7 l V B+C+D+E+2+7+c+8+8+c+8+4+S F+G+@.@+                              ",
"                          _._.S.q ,.b ]+..< } u A x H+t+4 7 ; i A+f+w+F+2+8+8+8+8+8+7+b+I+d+j+J+n                               ",
"                            _.H 4 | x /+o u G 5 _ d K+|+h l V i L+M+g+F+[+7+4+3+o+3+4+X E+w+f+u+O                               ",
"                            _.9 } U 1 ]+;.P ~ T.p >.N+|+P l ; l M O+P+d+Q+b+2+l+l+Q+[+I+R J R+S+r                               ",
"                            _.$ 7 : ,.;.-+| i e / @+B+t+] l ; U.T+U+}+g+F+S x+F+R V+V+R P+E W+X+,                               ",
"                            _._.= s. .@+>.n T.i _ ;.v+Y+f l l ++Z+`+j+ @J D+d+w+P+P+J i+C+R+W+m+0                               ",
"                            _._.% f 4 / 1 d b.V 5 /+t+v e V U.V .@)++@@@#@u+$@$@$@n+C+D W+M+K #+                                ",
"                            _._.# ; h : >.>.b r 4 @+%@3 0 = ~ V a.7 7 f I &@*@R+f+D =@-@O+K ;@7                                 ",
"                            _._._.; h a _ d ,.A 6 n i V T.3 6 } i ; S.) 0 .+U >@M+K *@,@'@)@!@~@                                ",
"                            _._.j V } 6 2 ( ,.t b.T.f r 2 h G l = & ` ,+@ -.a.{ s+C v+{@]@^@/@(@_@                              ",
"                              _.$ l f s.< O P  .A 4 5 A { 7 e > Z.* , ` + + z ` ++( :@<@[@}@|@1@2@                              ",
"                              _.) > [ m u q : _ P s  .r g [ l .+* * z k % 0.@ 3@4@]@5@6@7@8@9@0@a@                              ",
"                          _._.# -.a.G h I q ^ O U _ q s.g U.a.b@* ! ' ,+# c@d@e@f@g@h@i@j@k@l@                                  ",
"                        m@n@o@$ r.l - T.4 : t I q t I 3 [ r.= , * 0.j p@q@r@s@t@u@v@w@x@y@z@                                    ",
"                        A@B@C@D@* l ++6 < I I h h b.< [ a.= 0 ` E@F@G@A@H@I@J@K@L@q.M@N@                                        ",
"                        O@P@Q@R@S@T@s.b.u < r e U.- e Z  +0 H U@V@W@X@Y@Z@`@ #.#+#@###                                          ",
"                        $#%#&#*#=#-#;#>#5 6 G .+* 8 ' , 0  +,#'#)#!#~#{#]#^#/#(#_#:#                                            ",
"                        <#B@[#}#|#1#2#3#4#4 V , ` `.H . . r@9.%#5#6#7#8#9#0#a#b#                                                ",
"                        r.c#d#e#f#g#h#i#j#G U.b@`.y k#_.X@l#0#}#m#n#o#p#q#r#                                                    ",
"                      , ; ~ s#e#t#u#v#w#x#, > ! & y#z#A#B#C#D#9.E#F#H@G#                                                        ",
"                      -.* ,  +% Y@!#H#I#J#K#L#M#N#O#!#P#Q#R#S#T#_._.                                                            ",
"                         +&       H@_#U#V#W#X#Y#Z#`# $.$+$@$#$$$                                                                ",
"                                    %$&$*$=$-$;$>$,$'$)$h@!$~${$                                                                ",
"                                        /#]$^$/$($_$:$<$[$}$|$1$                                                                ",
"                                            l#T#2$d#3$4$5$m@6$                                                                  ",
"                                                                                                                                ",
"                                                                                                                                "};
