/* XPM */
static xpm_row_t const tux_walk_0b_xpm[] = {
"64 80 498 2",
"  	c None",
". 	c #010101",
"+ 	c #030303",
"@ 	c #060606",
"# 	c #090909",
"$ 	c #0B0B0B",
"% 	c #070707",
"& 	c #111111",
"* 	c #1C1C1C",
"= 	c #222222",
"- 	c #272727",
"; 	c #252525",
"> 	c #1E1E1E",
", 	c #1B1B1B",
"' 	c #181818",
") 	c #0F0F0F",
"! 	c #191919",
"~ 	c #303030",
"{ 	c #3D3D3D",
"] 	c #464646",
"^ 	c #4E4E4E",
"/ 	c #535353",
"( 	c #505050",
"_ 	c #484848",
": 	c #444444",
"< 	c #3B3B3B",
"[ 	c #2B2B2B",
"} 	c #141414",
"| 	c #292929",
"1 	c #393939",
"2 	c #3E3E3E",
"3 	c #3C3C3C",
"4 	c #3A3A3A",
"5 	c #414141",
"6 	c #555555",
"7 	c #525252",
"8 	c #333333",
"9 	c #2D2D2D",
"0 	c #373737",
"a 	c #313131",
"b 	c #323232",
"c 	c #2E2E2E",
"d 	c #595959",
"e 	c #5C5C5C",
"f 	c #565656",
"g 	c #424242",
"h 	c #171717",
"i 	c #040404",
"j 	c #383838",
"k 	c #454545",
"l 	c #515151",
"m 	c #5E5E5E",
"n 	c #575757",
"o 	c #343434",
"p 	c #282828",
"q 	c #151515",
"r 	c #020202",
"s 	c #0D0D0D",
"t 	c #585858",
"u 	c #838383",
"v 	c #707070",
"w 	c #404040",
"x 	c #474747",
"y 	c #4D4D4D",
"z 	c #2C2C2C",
"A 	c #6D6D6D",
"B 	c #DEDEDE",
"C 	c #DBDBDB",
"D 	c #CBCBCB",
"E 	c #979797",
"F 	c #494949",
"G 	c #161616",
"H 	c #929292",
"I 	c #B7B7B7",
"J 	c #D2D2D2",
"K 	c #E4E4E4",
"L 	c #3F3F3F",
"M 	c #080808",
"N 	c #4F4F4F",
"O 	c #636363",
"P 	c #F3F3F3",
"Q 	c #EDEDED",
"R 	c #727272",
"S 	c #4C4C4C",
"T 	c #4B4B4B",
"U 	c #0E0E0E",
"V 	c #1F1F1F",
"W 	c #DCDCDC",
"X 	c #F6F6F6",
"Y 	c #7A7A7A",
"Z 	c #262626",
"` 	c #281F0B",
" .	c #261F08",
"..	c #322717",
"+.	c #4E4033",
"@.	c #322D28",
"#.	c #212120",
"$.	c #C5C5C5",
"%.	c #9F9F9F",
"&.	c #5B5B5B",
"*.	c #4A4A4A",
"=.	c #131313",
"-.	c #7F7706",
";.	c #B49B1B",
">.	c #D5B921",
",.	c #E7C625",
"'.	c #EECD27",
").	c #D5A63E",
"!.	c #835E3A",
"~.	c #322920",
"{.	c #565553",
"].	c #545454",
"^.	c #5A5A5A",
"/.	c #5F5F5F",
"(.	c #121212",
"_.	c #372615",
":.	c #6E4C29",
"<.	c #B38C30",
"[.	c #E2C81E",
"}.	c #F6E017",
"|.	c #FCE11E",
"1.	c #FDDD26",
"2.	c #FDD92A",
"3.	c #FDDA29",
"4.	c #FCDB26",
"5.	c #FCD72B",
"6.	c #F0BA45",
"7.	c #B07C4A",
"8.	c #685847",
"9.	c #000000",
"0.	c #AB7642",
"a.	c #F5AA5F",
"b.	c #FBBF49",
"c.	c #FDC642",
"d.	c #FDC049",
"e.	c #FCB05B",
"f.	c #FBAD61",
"g.	c #FAAD61",
"h.	c #FBAF5E",
"i.	c #F9BF47",
"j.	c #F6B84B",
"k.	c #EBAC50",
"l.	c #E09C58",
"m.	c #886645",
"n.	c #2F2C29",
"o.	c #434343",
"p.	c #242424",
"q.	c #0A0A0A",
"r.	c #563B22",
"s.	c #8F6337",
"t.	c #AA7542",
"u.	c #C2864B",
"v.	c #CF8F50",
"w.	c #D39252",
"x.	c #D19152",
"y.	c #CB8D50",
"z.	c #CA8E4C",
"A.	c #CB9049",
"B.	c #BF8649",
"C.	c #B17A46",
"D.	c #B77F4A",
"E.	c #795E44",
"F.	c #2A2828",
"G.	c #363636",
"H.	c #232323",
"I.	c #4C341D",
"J.	c #664628",
"K.	c #8F6338",
"L.	c #A37040",
"M.	c #B47C47",
"N.	c #AF7A46",
"O.	c #AC7745",
"P.	c #B17D4A",
"Q.	c #6D553E",
"R.	c #272523",
"S.	c #3C2A19",
"T.	c #3B2D1E",
"U.	c #332A21",
"V.	c #252321",
"W.	c #2A2A2A",
"X.	c #353535",
"Y.	c #0C0C0C",
"Z.	c #1A1A1A",
"`.	c #101010",
" +	c #212121",
".+	c #2F2F2F",
"++	c #202020",
"@+	c #666666",
"#+	c #696969",
"$+	c #686868",
"%+	c #5D5D5D",
"&+	c #606060",
"*+	c #6F6F6F",
"=+	c #767676",
"-+	c #777777",
";+	c #050505",
">+	c #646464",
",+	c #6E6E6E",
"'+	c #787878",
")+	c #6C6C6C",
"!+	c #7D7D7D",
"~+	c #656565",
"{+	c #747474",
"]+	c #B1B1B1",
"^+	c #B4B4B4",
"/+	c #616161",
"(+	c #6B6B6B",
"_+	c #626262",
":+	c #8E8E8E",
"<+	c #E5E5E5",
"[+	c #F7F7F7",
"}+	c #A8A8A8",
"|+	c #717171",
"1+	c #CFCFCF",
"2+	c #FCFCFC",
"3+	c #FBFBFB",
"4+	c #F8F8F8",
"5+	c #8A8A8A",
"6+	c #CACACA",
"7+	c #FEFEFE",
"8+	c #FDFDFD",
"9+	c #B6B6B6",
"0+	c #676767",
"a+	c #B8B8B8",
"b+	c #ECECEC",
"c+	c #FFFFFF",
"d+	c #F9F9F9",
"e+	c #919191",
"f+	c #DDDDDD",
"g+	c #C2C2C2",
"h+	c #E8E8E8",
"i+	c #E0E0E0",
"j+	c #E6E6E6",
"k+	c #9E9E9E",
"l+	c #F4F4F4",
"m+	c #C9C9C9",
"n+	c #878787",
"o+	c #6A6A6A",
"p+	c #D0D0D0",
"q+	c #FAFAFA",
"r+	c #E2E2E2",
"s+	c #8D8D8D",
"t+	c #C8C8C8",
"u+	c #7E7E7E",
"v+	c #A2A2A2",
"w+	c #ACACAC",
"x+	c #797979",
"y+	c #848484",
"z+	c #BBBBBB",
"A+	c #EFEFEF",
"B+	c #A6A6A6",
"C+	c #868686",
"D+	c #818181",
"E+	c #BFBFBF",
"F+	c #E1E1E1",
"G+	c #C1C1C1",
"H+	c #F1F1F1",
"I+	c #EAEAEA",
"J+	c #E9E9E9",
"K+	c #F0F0F0",
"L+	c #D8D8D8",
"M+	c #949494",
"N+	c #1D1D1D",
"O+	c #BEBEBE",
"P+	c #DADADA",
"Q+	c #F5F5F5",
"R+	c #E7E7E7",
"S+	c #828282",
"T+	c #BDBDBD",
"U+	c #D7D7D7",
"V+	c #EEEEEE",
"W+	c #F2F2F2",
"X+	c #C7C7C7",
"Y+	c #9C9C9C",
"Z+	c #DFDFDF",
"`+	c #C3C3C3",
" @	c #B5B5B5",
".@	c #D5D5D5",
"+@	c #E3E3E3",
"@@	c #080603",
"#@	c #583D22",
"$@	c #B37B45",
"%@	c #B0B0B0",
"&@	c #D1D1D1",
"*@	c #D3D3D3",
"=@	c #D6D6D6",
"-@	c #D9D9D9",
";@	c #CECECE",
">@	c #C6C6C6",
",@	c #BABABA",
"'@	c #140E07",
")@	c #886A23",
"!@	c #8E6E25",
"~@	c #936639",
"{@	c #CCCCCC",
"]@	c #CDCDCD",
"^@	c #8C8C8C",
"/@	c #4F371E",
"(@	c #E4A74A",
"_@	c #EABE35",
":@	c #BE9630",
"<@	c #BF844A",
"[@	c #14110E",
"}@	c #9B9B9B",
"|@	c #C0C0C0",
"1@	c #AEAEAE",
"2@	c #A9A9A9",
"3@	c #020100",
"4@	c #010000",
"5@	c #3F2C18",
"6@	c #251A0E",
"7@	c #BF8844",
"8@	c #F9C144",
"9@	c #D0A92E",
"0@	c #A07E27",
"a@	c #50381E",
"b@	c #9A9A9A",
"c@	c #A3A3A3",
"d@	c #0E0E0D",
"e@	c #110B06",
"f@	c #5A3E22",
"g@	c #050302",
"h@	c #140D07",
"i@	c #593E22",
"j@	c #E7A256",
"k@	c #F9C53E",
"l@	c #CEA62E",
"m@	c #97722C",
"n@	c #271F18",
"o@	c #C4C4C4",
"p@	c #171411",
"q@	c #D0934C",
"r@	c #F3AF55",
"s@	c #A07436",
"t@	c #0E0905",
"u@	c #47311B",
"v@	c #A97541",
"w@	c #FBB05D",
"x@	c #F9C440",
"y@	c #D6AB33",
"z@	c #9E7D27",
"A@	c #24211F",
"B@	c #AFAFAF",
"C@	c #BCBCBC",
"D@	c #A17D34",
"E@	c #EDAF4C",
"F@	c #BD8A3F",
"G@	c #8B6036",
"H@	c #100B06",
"I@	c #442F1A",
"J@	c #45301B",
"K@	c #8D6036",
"L@	c #FAAF5D",
"M@	c #F9C046",
"N@	c #CAA22F",
"O@	c #8C6B2A",
"P@	c #737373",
"Q@	c #826836",
"R@	c #E6A651",
"S@	c #CA973F",
"T@	c #9B6B3C",
"U@	c #3E2A17",
"V@	c #25190E",
"W@	c #392716",
"X@	c #BF8349",
"Y@	c #FCAE61",
"Z@	c #FABF48",
"`@	c #AE8B28",
" #	c #3D311A",
".#	c #7C7C7C",
"+#	c #7C6147",
"@#	c #F3AE59",
"##	c #E8A355",
"$#	c #AB793E",
"%#	c #704D2B",
"&#	c #402C18",
"*#	c #291D10",
"=#	c #48321C",
"-#	c #CE8E4F",
";#	c #F4AB5B",
">#	c #F9BB4C",
",#	c #B6922B",
"'#	c #3D2E20",
")#	c #4F4840",
"!#	c #F4AF5A",
"~#	c #F2AB58",
"{#	c #CF9745",
"]#	c #78532E",
"^#	c #2D1F11",
"/#	c #3E2A18",
"(#	c #D69453",
"_#	c #F1A65D",
":#	c #F1B051",
"<#	c #95712B",
"[#	c #251E18",
"}#	c #463928",
"|#	c #E4B13E",
"1#	c #F9C243",
"2#	c #F1B34C",
"3#	c #845B33",
"4#	c #332416",
"5#	c #3E2B18",
"6#	c #BE8349",
"7#	c #E09B56",
"8#	c #E19B57",
"9#	c #2D2114",
"0#	c #0A0A09",
"a#	c #503923",
"b#	c #EFBF38",
"c#	c #F6C23D",
"d#	c #F3B947",
"e#	c #AE7843",
"f#	c #22180E",
"g#	c #B77E47",
"h#	c #DA9654",
"i#	c #D79453",
"j#	c #98693B",
"k#	c #1C140C",
"l#	c #020201",
"m#	c #060605",
"n#	c #0A0909",
"o#	c #0B0A09",
"p#	c #0C0908",
"q#	c #0D0B09",
"r#	c #090806",
"s#	c #0A0907",
"t#	c #0E0A08",
"u#	c #0F0D0B",
"v#	c #6C4C2C",
"w#	c #F8C63C",
"x#	c #F5C13F",
"y#	c #ECB543",
"z#	c #926538",
"A#	c #261A0F",
"B#	c #100E0D",
"C#	c #614325",
"D#	c #946639",
"E#	c #C7894D",
"F#	c #A3713F",
"G#	c #0C0804",
"H#	c #0E0C08",
"I#	c #0D0B06",
"J#	c #0E0A05",
"K#	c #130D07",
"L#	c #110C06",
"M#	c #120C06",
"N#	c #0B0704",
"O#	c #0B0805",
"P#	c #25190F",
"Q#	c #EDB04B",
"R#	c #F8C53E",
"S#	c #F9C342",
"T#	c #E5AB47",
"U#	c #6F4C2A",
"V#	c #3B2916",
"W#	c #463320",
"X#	c #170F08",
"Y#	c #6B4A29",
"Z#	c #805931",
"`#	c #9E6D3D",
" $	c #A2703F",
".$	c #825A32",
"+$	c #5C3F23",
"@$	c #4B331C",
"#$	c #9F6D3D",
"$$	c #A77938",
"%$	c #F8C242",
"&$	c #F5BD44",
"*$	c #F4B54F",
"=$	c #AD7942",
"-$	c #362515",
";$	c #45301A",
">$	c #906438",
",$	c #855C33",
"'$	c #5E4124",
")$	c #281C0F",
"!$	c #805831",
"~$	c #604224",
"{$	c #C1854A",
"]$	c #FAB05C",
"^$	c #F2B649",
"/$	c #E3A64B",
"($	c #B67E46",
"_$	c #664627",
":$	c #21160C",
"<$	c #6A4929",
"[$	c #4E351E",
"}$	c #2E1F11",
"|$	c #9F6F3A",
"1$	c #C18F3E",
"2$	c #A8822D",
"3$	c #825F2A",
"4$	c #51371F",
"5$	c #302112",
"6$	c #715621",
"7$	c #735525",
"8$	c #422E19",
"9$	c #664727",
"                                                                                                                                ",
"                                                                                                                                ",
"                                                                                                                                ",
"                                                                                                                                ",
"                                                                                                                                ",
"                                                                                                                                ",
"                                                                                                                                ",
"                                                                                                                                ",
"                                                                                                                                ",
"                                                                                                                                ",
"                                                                                                                                ",
"                                                                                                                                ",
"                                                        . + @ # $                                                               ",
"                                                  . % & * = - ; > , ' )                                                         ",
"                                                # ! ~ { ] ^ / ( _ : < [ ! @                                                     ",
"                                              } | 1 2 < 3 4 5 _ ^ 6 7 _ 8 ' %                                                   ",
"                                            ) 9 1 0 a b b c 1 ] 7 d e f g - h i                                                 ",
"                                          # , b a 8 j 1 1 0 8 j k l d m n o p q r                                               ",
"                                          s ; b t u v w j 4 j 2 x ^ / n e y - 8 %                                               ",
"                                          } z A B C D E 0 0 1 2 F / n f 7 f b o G r                                             ",
"                                        # h o H I J K D e c j L F 7 f t ( y w ~ | M                                             ",
"                                        $ > 1 N o O P Q R - 0 g S 7 f n 6 T x ; a U                                             ",
"                                        M V 4 | , 8 W X Y - 0 g S 7 6 n t N F Z b q                                             ",
"                                      `  ...+.@.#.b $.X %.{ j w F ( 6 d &./ *.c a =.                                            ",
"                                  -.;.>.,.'.).!.~.{.I I E _ j 3 k S ].^./.6 _ o c (.                                            ",
"                        _.:.<.[.}.|.1.2.3.4.5.6.7.8.7 ^.].1 j 4 w _ l ^.m f x w 9 s 9.                                          ",
"                        0.a.b.c.d.e.f.g.h.i.j.k.l.m.n.3 3 < j 0 3 o.S f e 7 y *.p.q.9.                                          ",
"                        r.s.t.u.v.w.x.y.z.A.B.C.D.E.F.1 3 < 0 G.j w _ 7 t S y ] H.M 9.                                          ",
"                                I.J.K.L.M.N.O.P.Q.R.Z 1 < 4 j G.0 { k S ^ : *.g ! %                                             ",
"                                        S.T.U.V.V W.X.1 < 1 j G.j 3 g k w 3 5 X.' Y.                                            ",
"                                          ; Z.`. +z ~ a a a b G.j j 0 a 8 0 b W.> )                                             ",
"                                            ~ [  +p.H.H.H.Z z a b .+9 9 8 a | .+++q r                                           ",
"                                            9 c Z., > ++p.Z p | W.[ W.z [ 9 .+c ; > @                                           ",
"                                              a .+V ; Z ; Z ; ; | 9 b j 4 2 x L - H.`.                                          ",
"                                              c 0 p.z | W..+o 0 5 ] F o.] 6 t ].4 ; = s                                         ",
"                                            + 9 8 = | ; p.| b { x y T 7 /.@+#+$+%+< p.Z.                                        ",
"                                            + | ~ H.| ++H.W.o g S 7 d &+$+*+=+-+R t G.' '                                       ",
"                                            ;+G.a >  +V = | j *.l ].d m >+,+=+Y -+@+*.= G                                       ",
"                                            ; w  +, p.++ +p G.w ] S N ].^.>+A =+'+)+7 G.q !                                     ",
"                                          .+!+d ~ ! = ++ +- a j { g ] F ^ t ~+v {+A d 1 = , s                                   ",
"                                          ( ]+^+4 ' - p.++= | c X.3 L g x ( /+(+R *+_+5 ~  +,                                   ",
"                                        p :+<+[+}+ +V =  +++- [ ~ 0 3 2 g *.^.>+*+|+$+7 { c ++)                                 ",
"                                      > ,+1+2+3+4+5+h | ; p.- - z 8 j 3 2 ] l _+)+v ,+e k 2 W.!                                 ",
"                                      e 6+X 7+3+8+9+ +> H.= ++H.| .+X.4 3 g y t 0+,+*+~+y x 3  +q.                              ",
"                                    @ a+b+7+7+c+c+d+e+} , V  += Z z b j 4 5 F l &+#+,+0+n y k - =.                              ",
"                                    S f+d+8+c+c+c+c+4+]+= >  += H.p X.j 2 w 5 T t ~+(+A _+6 y .+&                               ",
"                                  r g+h+3+c+c+c+c+c+c+d+e+* > H.p.- 3 < &.N ] k 7 &+#+A #+e ].G.`.q                             ",
"                                    i+P 2+c+c+c+c+c+c+c+j+%+,  +p.o 2 &.@+T L g w 7 ~+A *+&+n 0 } }                             ",
"                                  k+l+d+8+c+c+c+c+c+c+c+3+m+b V a 2 &.n+e ].2 w 4 w /+o+(+m d 1 G (.                            ",
"                                  p+q+[+7+c+c+c+c+c+c+7+7+r+/.0 5 d s+o+m x : L 0 0 t 0+$+&.^.w G U                             ",
"                                d W 2+X 7+c+c+c+c+c+7+8+8+t+m : (+u+@+@+7 L g 1 a V t @+~+^.&.x q M                             ",
"                              i v+<+q+X 7+c+c+c+c+7+3+w+$+7 t x+y+#+@+y 5 w 3 a ; { t >+O ^.^.T q ;+                            ",
"                              V z+j+[+[+8+c+c+c+A+B+$+)+R C+D+'+#+n k 5 5 j o V ~ S ].&+/+t t *.q i                             ",
"                              o.E+r+P X 2+7+c+c+2+e+x+(+~+&.^ 7 x ] o.2 X.8 > Z 5 S 7 /+/+t f F =.+                             ",
"                              %+$.F+A+P 2+7+c+7+q+B+v O m / : 2 o.1 4 8 [ (.= G.: S ( _+_+n f _ `.. .                           ",
"                              n G+i+b+H+d+8+7+7+7+I+v+S { 3 8 8 b b c ; * ; .+j o.S l _+_+f ].k Y.9.9.                          ",
"                              T z+f+J+K+X 2+3+q+3+X L+M+D+0+( 3 * } G N+W.c a j 5 T 7 &+/+t 7 3 M 9.                            ",
"                              j O+P+K Q H+[+Q+l+l+4+4+I+R+g+S+f , ++Z [ .+.+a G.L _ ]./._+6 N z + 9.                            ",
"                              * T+U+B R+Q V+V+Q A+W+P A+h+<+X+Y+W.- p [ ~ ~ 8 j L x f &+/.].x p.9.9.                            ",
"                              h k+U+P+Z+j+K R+R+J+b+I+j+F+i+`+ @.+| p [ a a o < o._ ^./+%+( 4 * 9.9.                            ",
"                              q.~+J .@U+C Z+r++@+@K F+C L+U+O+m+o W.| [ ~ ~ X.< g y ^./+e 0 z `.9.9.                            ",
"                      @@#@$@  + = %@J &@*@=@C f+C -@*@1+;@>@G+,@b W.W.z .+a G.3 o.n e m : a Z.i 9.9.                            ",
"                    '@)@!@~@#@q.M O t+{@D {@J .@&@]@X+`+G+^+,@^@z z W.z c b G.3 _ / n S 4 p `.. 9.9.                            ",
"                    /@(@_@:@<@[@$ ' }@t+X+>@D ]@6+$.|@T+,@1@2@6 W.9 W.9 ~ b X.< ] ( S { b } s 3@4@5@                            ",
"                    6@7@8@9@0@a@q.+ ! b@X+$.X+m+>@`+T+,@a+^+c@.+| z 9 c ~ a G.1 x S *.5 G.Y.d@e@<@f@g@                          ",
"                    h@i@j@k@l@m@n@G $ `.T+t+m+t+>@o@G+E+g+ @:+N+Z [ 9 .+a 8 0 j o.w ] ^ o `.p@q@r@s@t@                          ",
"                      u@v@w@x@y@z@A@V M * B@$.G+C@g+$.6+|@,@L G p.[ 9 ~ b X.X.b o 2 S _ = ' D@E@F@G@H@I@                        ",
"                        J@K@L@M@N@O@= p.G w I C@ @9+T+g+,@P@' h H.z a 8 o 8 .+.+j : ] .+Z.Q@R@S@T@U@V@                          ",
"                          W@X@Y@Z@`@ #= q U c R .#Y+B@%.|+~ } h * p c 9 z z a 4 L 2 X.z +#@###$#%#&#*#                          ",
"                            =#-#;#>#,#'#= } # U = ] 5 o W.> } q U , - [ b j { { X.c b )#!#~#{#]#^#r                             ",
"                              /#(#_#:#<#[#(.=.$ ;+$ q * > = Z.(.} ) ' X.j 4 X.z | p }#|#1#2#3#4#q.Z.p.                          ",
"                              9.5#6#7#8#T@9#0#& (.r Y.(.q * , =.Z.Z.& =.> p.p. +} a#b#c#d#e#f#q ^ *.p c                         ",
"                                  #@g#h#i#j#k#;+U l#m#@ q.q.M n#o#p#q#r#s#t#u#% v#w#x#y#z#A#B#g o._ : p                         ",
"                                    C#D#-#E#F#G#9.      H#I#J#K#L#M#K#J#N#O#P#Q#R#S#T#U#V#W# +| z 9 o p *                       ",
"                                    X#Y#Z#`# $.$9.                  +$@$#$$$%$&$*$=$-$;$>$i % ) ' N+* , (.                      ",
"                                        Y#,$Z#'$)$                !$~${$]$^$/$($_$:$                ' Z.                        ",
"                                          <$[$}$                  ($|$1$2$3$4$5$V@u.                                            ",
"                                                                    6$7$8$J@9$                                                  ",
"                                                                                                                                ",
"                                                                                                                                "};
