/* XPM */
static xpm_row_t const tux_walk_4b_xpm[] = {
"64 80 457 2",
"  	c None",
". 	c #010101",
"+ 	c #030303",
"@ 	c #060606",
"# 	c #090909",
"$ 	c #0B0B0B",
"% 	c #070707",
"& 	c #111111",
"* 	c #1C1C1C",
"= 	c #222222",
"- 	c #272727",
"; 	c #252525",
"> 	c #1E1E1E",
", 	c #1B1B1B",
"' 	c #181818",
") 	c #0F0F0F",
"! 	c #191919",
"~ 	c #303030",
"{ 	c #3D3D3D",
"] 	c #464646",
"^ 	c #4E4E4E",
"/ 	c #535353",
"( 	c #505050",
"_ 	c #484848",
": 	c #444444",
"< 	c #3B3B3B",
"[ 	c #2B2B2B",
"} 	c #141414",
"| 	c #292929",
"1 	c #393939",
"2 	c #3E3E3E",
"3 	c #3C3C3C",
"4 	c #3A3A3A",
"5 	c #414141",
"6 	c #555555",
"7 	c #525252",
"8 	c #333333",
"9 	c #2D2D2D",
"0 	c #373737",
"a 	c #313131",
"b 	c #323232",
"c 	c #2E2E2E",
"d 	c #595959",
"e 	c #5C5C5C",
"f 	c #565656",
"g 	c #424242",
"h 	c #171717",
"i 	c #040404",
"j 	c #383838",
"k 	c #454545",
"l 	c #515151",
"m 	c #5E5E5E",
"n 	c #575757",
"o 	c #343434",
"p 	c #282828",
"q 	c #151515",
"r 	c #020202",
"s 	c #0D0D0D",
"t 	c #585858",
"u 	c #838383",
"v 	c #707070",
"w 	c #404040",
"x 	c #474747",
"y 	c #4D4D4D",
"z 	c #2C2C2C",
"A 	c #6D6D6D",
"B 	c #DEDEDE",
"C 	c #DBDBDB",
"D 	c #CBCBCB",
"E 	c #979797",
"F 	c #494949",
"G 	c #161616",
"H 	c #929292",
"I 	c #B7B7B7",
"J 	c #D2D2D2",
"K 	c #E4E4E4",
"L 	c #3F3F3F",
"M 	c #080808",
"N 	c #4F4F4F",
"O 	c #636363",
"P 	c #F3F3F3",
"Q 	c #EDEDED",
"R 	c #727272",
"S 	c #4C4C4C",
"T 	c #4B4B4B",
"U 	c #0E0E0E",
"V 	c #1F1F1F",
"W 	c #DCDCDC",
"X 	c #F6F6F6",
"Y 	c #7A7A7A",
"Z 	c #262626",
"` 	c #281F0B",
" .	c #261F08",
"..	c #322717",
"+.	c #4E4033",
"@.	c #322D28",
"#.	c #212120",
"$.	c #C5C5C5",
"%.	c #9F9F9F",
"&.	c #5B5B5B",
"*.	c #4A4A4A",
"=.	c #131313",
"-.	c #7F7706",
";.	c #B49B1B",
">.	c #D5B921",
",.	c #E7C625",
"'.	c #EECD27",
").	c #D5A63E",
"!.	c #835E3A",
"~.	c #322920",
"{.	c #565553",
"].	c #545454",
"^.	c #5A5A5A",
"/.	c #5F5F5F",
"(.	c #121212",
"_.	c #372615",
":.	c #6E4C29",
"<.	c #B38C30",
"[.	c #E2C81E",
"}.	c #F6E017",
"|.	c #FCE11E",
"1.	c #FDDD26",
"2.	c #FDD92A",
"3.	c #FDDA29",
"4.	c #FCDB26",
"5.	c #FCD72B",
"6.	c #F0BA45",
"7.	c #B07C4A",
"8.	c #685847",
"9.	c #000000",
"0.	c #AB7642",
"a.	c #F5AA5F",
"b.	c #FBBF49",
"c.	c #FDC642",
"d.	c #FDC049",
"e.	c #FCB05B",
"f.	c #FBAD61",
"g.	c #FAAD61",
"h.	c #FBAF5E",
"i.	c #F9BF47",
"j.	c #F6B84B",
"k.	c #EBAC50",
"l.	c #E09C58",
"m.	c #886645",
"n.	c #2F2C29",
"o.	c #434343",
"p.	c #242424",
"q.	c #0A0A0A",
"r.	c #563B22",
"s.	c #8F6337",
"t.	c #AA7542",
"u.	c #C2864B",
"v.	c #CF8F50",
"w.	c #D39252",
"x.	c #D19152",
"y.	c #CB8D50",
"z.	c #CA8E4C",
"A.	c #CB9049",
"B.	c #BF8649",
"C.	c #B17A46",
"D.	c #B77F4A",
"E.	c #795E44",
"F.	c #2A2828",
"G.	c #363636",
"H.	c #232323",
"I.	c #4C341D",
"J.	c #664628",
"K.	c #8F6338",
"L.	c #A37040",
"M.	c #B47C47",
"N.	c #AF7A46",
"O.	c #AC7745",
"P.	c #B17D4A",
"Q.	c #6D553E",
"R.	c #272523",
"S.	c #3C2A19",
"T.	c #3B2D1E",
"U.	c #332A21",
"V.	c #252321",
"W.	c #2A2A2A",
"X.	c #353535",
"Y.	c #0C0C0C",
"Z.	c #1A1A1A",
"`.	c #101010",
" +	c #212121",
".+	c #2F2F2F",
"++	c #202020",
"@+	c #666666",
"#+	c #696969",
"$+	c #686868",
"%+	c #5D5D5D",
"&+	c #606060",
"*+	c #6F6F6F",
"=+	c #767676",
"-+	c #777777",
";+	c #050505",
">+	c #646464",
",+	c #6E6E6E",
"'+	c #787878",
")+	c #6C6C6C",
"!+	c #7D7D7D",
"~+	c #656565",
"{+	c #747474",
"]+	c #B1B1B1",
"^+	c #B4B4B4",
"/+	c #616161",
"(+	c #6B6B6B",
"_+	c #626262",
":+	c #8E8E8E",
"<+	c #E5E5E5",
"[+	c #F7F7F7",
"}+	c #A8A8A8",
"|+	c #717171",
"1+	c #CFCFCF",
"2+	c #FCFCFC",
"3+	c #FBFBFB",
"4+	c #F8F8F8",
"5+	c #8A8A8A",
"6+	c #CACACA",
"7+	c #FEFEFE",
"8+	c #FDFDFD",
"9+	c #B6B6B6",
"0+	c #B8B8B8",
"a+	c #ECECEC",
"b+	c #FFFFFF",
"c+	c #F9F9F9",
"d+	c #919191",
"e+	c #676767",
"f+	c #DDDDDD",
"g+	c #C2C2C2",
"h+	c #E8E8E8",
"i+	c #6A6A6A",
"j+	c #E0E0E0",
"k+	c #E6E6E6",
"l+	c #9E9E9E",
"m+	c #F4F4F4",
"n+	c #C9C9C9",
"o+	c #D0D0D0",
"p+	c #FAFAFA",
"q+	c #E2E2E2",
"r+	c #7E7E7E",
"s+	c #B9B9B9",
"t+	c #848484",
"u+	c #797979",
"v+	c #A2A2A2",
"w+	c #BBBBBB",
"x+	c #858585",
"y+	c #818181",
"z+	c #BFBFBF",
"A+	c #F2F2F2",
"B+	c #E9E9E9",
"C+	c #909090",
"D+	c #E1E1E1",
"E+	c #EFEFEF",
"F+	c #F0F0F0",
"G+	c #EAEAEA",
"H+	c #DFDFDF",
"I+	c #7F7F7F",
"J+	c #878787",
"K+	c #C1C1C1",
"L+	c #F1F1F1",
"M+	c #D5D5D5",
"N+	c #BEBEBE",
"O+	c #DADADA",
"P+	c #F5F5F5",
"Q+	c #CDCDCD",
"R+	c #BDBDBD",
"S+	c #D7D7D7",
"T+	c #E7E7E7",
"U+	c #EEEEEE",
"V+	c #AAAAAA",
"W+	c #939393",
"X+	c #624722",
"Y+	c #735A1E",
"Z+	c #5D4024",
"`+	c #C7C7C7",
" @	c #AEAEAE",
".@	c #895E35",
"+@	c #88662A",
"@@	c #E4B934",
"#@	c #8E7320",
"$@	c #593F21",
"%@	c #B0B0B0",
"&@	c #D1D1D1",
"*@	c #D3D3D3",
"=@	c #D6D6D6",
"-@	c #BCBCBC",
";@	c #534115",
">@	c #F7C53C",
",@	c #E9BF31",
"'@	c #8A711E",
")@	c #433017",
"!@	c #C8C8C8",
"~@	c #CCCCCC",
"{@	c #080706",
"]@	c #533920",
"^@	c #534411",
"/@	c #947820",
"(@	c #F0C335",
"_@	c #D3AC2D",
":@	c #745F18",
"<@	c #412F17",
"[@	c #C6C6C6",
"}@	c #1E1E1D",
"|@	c #2F2922",
"1@	c #A57343",
"2@	c #5A3E22",
"3@	c #674727",
"4@	c #4D3E12",
"5@	c #E6BC31",
"6@	c #F3C635",
"7@	c #B09025",
"8@	c #46390E",
"9@	c #413016",
"0@	c #1D1D1D",
"a@	c #100F0E",
"b@	c #996C3E",
"c@	c #BD8349",
"d@	c #936538",
"e@	c #624426",
"f@	c #412D19",
"g@	c #4A3913",
"h@	c #C09C2A",
"i@	c #AC8C24",
"j@	c #372D0C",
"k@	c #453317",
"l@	c #392A1B",
"m@	c #CC8D4F",
"n@	c #B87F47",
"o@	c #664727",
"p@	c #47311B",
"q@	c #523B1C",
"r@	c #DAA73F",
"s@	c #FABB4E",
"t@	c #B19126",
"u@	c #41340E",
"v@	c #483617",
"w@	c #131110",
"x@	c #865D34",
"y@	c #F4A85E",
"z@	c #9F6E3D",
"A@	c #46301B",
"B@	c #3F2B18",
"C@	c #593D22",
"D@	c #E29C57",
"E@	c #F2AA5A",
"F@	c #AA8926",
"G@	c #43350F",
"H@	c #342A13",
"I@	c #35342F",
"J@	c #1F190A",
"K@	c #D09050",
"L@	c #F5A95E",
"M@	c #5F4124",
"N@	c #392816",
"O@	c #75502D",
"P@	c #E59E58",
"Q@	c #866A22",
"R@	c #574516",
"S@	c #151311",
"T@	c #4E4E4D",
"U@	c #201C0C",
"V@	c #866824",
"W@	c #FDAF62",
"X@	c #C98B4E",
"Y@	c #442F1A",
"Z@	c #1B130A",
"`@	c #2B1D10",
" #	c #8D6236",
".#	c #DE9956",
"+#	c #8C6431",
"@#	c #423219",
"##	c #181615",
"$#	c #211D12",
"%#	c #3C2F10",
"&#	c #E5AE42",
"*#	c #583D22",
"=#	c #24180E",
"-#	c #1F150C",
";#	c #A3713F",
">#	c #CE8E4F",
",#	c #98693B",
"'#	c #3C2C1C",
")#	c #11100F",
"!#	c #2D2817",
"~#	c #1E190C",
"{#	c #C69C31",
"]#	c #FBB557",
"^#	c #382716",
"/#	c #191109",
"(#	c #BB8148",
"_#	c #9C6C3D",
":#	c #1E1711",
"<#	c #111110",
"[#	c #151414",
"}#	c #131006",
"|#	c #B18C2C",
"1#	c #F0BC3E",
"2#	c #3D2A17",
"3#	c #523F2C",
"4#	c #271B0F",
"5#	c #76512D",
"6#	c #94673A",
"7#	c #130F0C",
"8#	c #1A1A19",
"9#	c #0F0E0E",
"0#	c #0A0A09",
"a#	c #0E0D0D",
"b#	c #0B0B0A",
"c#	c #050403",
"d#	c #0F0D06",
"e#	c #BB942F",
"f#	c #EFBF38",
"g#	c #E9A652",
"h#	c #5E4124",
"i#	c #402F1D",
"j#	c #52381F",
"k#	c #A06F3E",
"l#	c #614326",
"m#	c #2B1F13",
"n#	c #161615",
"o#	c #090908",
"p#	c #030302",
"q#	c #17100A",
"r#	c #BB952E",
"s#	c #F8C83A",
"t#	c #583E21",
"u#	c #271D13",
"v#	c #432E1A",
"w#	c #895F35",
"x#	c #AE7843",
"y#	c #78532E",
"z#	c #50371F",
"A#	c #2F2012",
"B#	c #CD9E38",
"C#	c #FBB558",
"D#	c #795829",
"E#	c #23180D",
"F#	c #302112",
"G#	c #4F381C",
"H#	c #966D33",
"I#	c #E3B537",
"J#	c #F8C939",
"K#	c #F9C144",
"L#	c #6C4D26",
"M#	c #0E0C05",
"N#	c #402C19",
"O#	c #4E381B",
"P#	c #C3923C",
"Q#	c #E3B636",
"R#	c #E5AC46",
"S#	c #885E34",
"T#	c #1E1609",
"U#	c #1B1408",
"V#	c #171106",
"W#	c #160F08",
"X#	c #2C1F11",
"                                                                                                                                ",
"                                                                                                                                ",
"                                                                                                                                ",
"                                                                                                                                ",
"                                                                                                                                ",
"                                                                                                                                ",
"                                                                                                                                ",
"                                                                                                                                ",
"                                                                                                                                ",
"                                                                                                                                ",
"                                                                                                                                ",
"                                                                                                                                ",
"                                                        . + @ # $                                                               ",
"                                                  . % & * = - ; > , ' )                                                         ",
"                                                # ! ~ { ] ^ / ( _ : < [ ! @                                                     ",
"                                              } | 1 2 < 3 4 5 _ ^ 6 7 _ 8 ' %                                                   ",
"                                            ) 9 1 0 a b b c 1 ] 7 d e f g - h i                                                 ",
"                                          # , b a 8 j 1 1 0 8 j k l d m n o p q r                                               ",
"                                          s ; b t u v w j 4 j 2 x ^ / n e y - 8 %                                               ",
"                                          } z A B C D E 0 0 1 2 F / n f 7 f b o G r                                             ",
"                                        # h o H I J K D e c j L F 7 f t ( y w ~ | M                                             ",
"                                        $ > 1 N o O P Q R - 0 g S 7 f n 6 T x ; a U                                             ",
"                                        M V 4 | , 8 W X Y - 0 g S 7 6 n t N F Z b q                                             ",
"                                      `  ...+.@.#.b $.X %.{ j w F ( 6 d &./ *.c a =.                                            ",
"                                  -.;.>.,.'.).!.~.{.I I E _ j 3 k S ].^./.6 _ o c (.                                            ",
"                        _.:.<.[.}.|.1.2.3.4.5.6.7.8.7 ^.].1 j 4 w _ l ^.m f x w 9 s 9.                                          ",
"                        0.a.b.c.d.e.f.g.h.i.j.k.l.m.n.3 3 < j 0 3 o.S f e 7 y *.p.q.9.                                          ",
"                        r.s.t.u.v.w.x.y.z.A.B.C.D.E.F.1 3 < 0 G.j w _ 7 t S y ] H.M 9.                                          ",
"                                I.J.K.L.M.N.O.P.Q.R.Z 1 < 4 j G.0 { k S ^ : *.g ! %                                             ",
"                                        S.T.U.V.V W.X.1 < 1 j G.j 3 g k w 3 5 X.' Y.                                            ",
"                                          ; Z.`. +z ~ a a a b G.j j 0 a 8 0 b W.> )                                             ",
"                                            ~ [  +p.H.H.H.Z z a b .+9 9 8 a | .+++q r                                           ",
"                                            9 c Z., > ++p.Z p | W.[ W.z [ 9 .+c ; > @                                           ",
"                                              a .+V ; Z ; Z ; ; | 9 b j 4 2 x L - H.`.                                          ",
"                                              c 0 p.z | W..+o 0 5 ] F o.] 6 t ].4 ; = s                                         ",
"                                            + 9 8 = | ; p.| b { x y T 7 /.@+#+$+%+< p.Z.                                        ",
"                                            + | ~ H.| ++H.W.o g S 7 d &+$+*+=+-+R t G.' '                                       ",
"                                            ;+G.a >  +V = | j *.l ].d m >+,+=+Y -+@+*.= G                                       ",
"                                            ; w  +, p.++ +p G.w ] S N ].^.>+A =+'+)+7 G.q !                                     ",
"                                          .+!+d ~ ! = ++ +- a j { g ] F ^ t ~+v {+A d 1 = , s                                   ",
"                                          ( ]+^+4 ' - p.++= | c X.3 L g x ( /+(+R *+_+5 ~  +,                                   ",
"                                        p :+<+[+}+ +V =  +++- [ ~ 0 3 2 g F ^.>+*+|+$+7 { c ++)                                 ",
"                                      > ,+1+2+3+4+5+h | ; p.- - z 8 j 3 2 k ( /+)+v ,+e k 2 W.!                                 ",
"                                      e 6+X 7+3+8+9+ +> H.= ++H.| .+X.4 3 5 T 6 @+,+*+~+y x 3  +q.                              ",
"                                    @ 0+a+7+7+b+b+c+d+} , V  += Z z b j 4 5 x y %+$+,+e+n y k - =.                              ",
"                                    S f+c+8+b+b+b+b+4+]+= >  += H.p c 8 < 5 _ _ N /+#+A _+6 y .+&                               ",
"                                  r g+h+3+b+b+b+b+b+b+c+d+* > H.p.- [ b G._ x _ : ( &+i+#+e ].G.`.q                             ",
"                                    j+P 2+b+b+b+b+b+b+b+k+%+,  +p.; .+: _ ( S o.g 5 / @+,+&+n 0 } }                             ",
"                                  l+m+c+8+b+b+b+b+b+b+b+3+n+b > p.Z z f _+f l _ w j 5 t $+m d 1 G (.                            ",
"                                  o+p+[+7+b+b+b+b+b+b+7+7+q+#+= H.- [ 6 r+t 6 N k < a 2 m ^.^.w G U                             ",
"                                d W 2+X 7+b+b+b+b+b+7+8+8+P s+c H.; p j t+u+n / ^ 2 X.b *.t &.] q M                             ",
"                              i v+<+p+X 7+b+b+b+b+7+7+2+p+p+B 2 ; ; | [ 6 E _+6 y _ < - 4 7 d T } ;+                            ",
"                              V w+k+[+[+8+b+b+b+b+7+8+p+X X a+m | Z p W.a x+y+n / y 5 .+- : f *.} +                             ",
"                              o.z+q+P X 2+7+b+b+b+b+8+4+P A+B+Y Z - | [ 9 6 C+@+6 N g X.Z 0 7 F (.+                             ",
"                              %+$.D+E+P 2+7+b+7+7+b+8+4+F+G+H+x+Z p | [ W.c I+J+t 7 T 3 9 | l _ ) . 9.                          ",
"                              n K+j+a+L+c+8+7+7+7+7+7+4+E+B+f+J+9 p | z [ - 9 v e+].T o..+ +_ x Y.9.9.                          ",
"                              T w+f+B+F+X 2+3+p+3+2+8+[+E+h+M+J+9 p p W.9 |  +{ /+6 ^ x b p L x M 9.                            ",
"                              j N+O+K Q L+[+P+m+m+4+c+P+a+k+Q+x+p p p | [ W.p.| / l N x G.p.a o.# 9.                            ",
"                              * R+S+B T+Q U+U+Q E+A+P E+h+K V+'+z p p | z W.; ; 9 : *.: 0 Z | a Y.9.                            ",
"                              h l+S+O+H+k+K T+T+B+a+G+B J W+d #+b z | W.[ [ p p.- 9 o.g o ++8 W.(.;+                            ",
"                    X+Y+Z+      $+J M+S+C H+q+o+6+`+g+ @y 0 2 5 w X.a 9 o W.W.H.= V | 8 9 ~ j [ Z.) %                           ",
"                  .@+@@@#@$@    | %@J &@*@=@-@$.o+,+5 9 G.o._ y F o.j 0 o W.z ; Z  +> = X.w ( z ++h $ .                         ",
"                    ;@>@,@'@)@  (.@+!@~@D s+*+4 a p.c G.0 3 g l g 2 3 3 0 X.z - - p Z ~ w ( /.] 9 p ! {@. ]@                    ",
"                    ^@/@(@_@:@<@  a W+[@_+- ++++= W.c .+X.j 4 o.g { < 1 0 c z - [ z ~ L ] l /+6 : 9 }@|@1@2@3@                  ",
"                      4@5@6@7@8@9@& p V ++* 0@= =  +; W.b X.j < j 0 X.8 8 c z [ c a a 3 o.y d /+^.p.a@b@c@d@e@                  ",
"                      f@g@h@(@i@j@k@(.) Z.! ++G G  +H.H.| c a o G.G.~ .+| ; p.[ a 8 a o g ] 6 /./.=.l@m@n@Z+o@                  ",
"                        p@q@r@s@t@u@v@, ++0@, * G G *  +p.p.W.c c ~ | 9 p  +H.; .+a 8 a 2 5 N &./ w@x@y@z@A@                    ",
"                          B@C@D@E@F@G@H@q ' , G ! G =.=.* = H.Z Z - | p H.; - p.p .+~ a 1 3 ] %+I@J@K@L@M@_.                    ",
"                            N@O@D@P@Q@R@S@`.h ! q & (.`.s G h > > > V 0@> 0@++; p.[ ~ a 8 2 L T@U@V@W@X@Y@Z@                    ",
"                              `@ #D@.#+#@###(.) q G U (.q =.} , q ' G 0@' } q !  +; 9 ~ a { L $#%#&#L@*#=#                      ",
"                                -#;#D@>#,#'#)#$ `.q h ! ' ' & ' ! } ' ! q (.) } G > [ .+~ G.!#~#{#]# #^#                        ",
"                                  /#(#P@c@_#:#(.s U `.* & s (.(.G <#[#      Y.q.`.=.++[ .+, }#|#1#>#2#3#                        ",
"                                    4#5#D@v.6#7#8#q.} } 9#0#a#b#              c#r & & = V d#e#f#g#h#i#p                         ",
"                                      j#k#P@n@l#m#n#G } (.o#                      p#i r q#r#s#s@t#u#1 Z *                       ",
"                                        v#w#x#y#z##                               A@Y@A#B#s#C#D#% * * , (.                      ",
"                                          E#]@e@                                F#G#H#I#J#K#L#M#- ' V Z.                        ",
"                                                                              N#O#P#Q#Q#R#S#9.    .+                            ",
"                                                                                T#U#V#W#X#                                      ",
"                                                                                                                                ",
"                                                                                                                                "};
