/* XPM */
static xpm_row_t const tux_walk_3b_xpm[] = {
"64 80 495 2",
"  	c None",
". 	c #010101",
"+ 	c #030303",
"@ 	c #060606",
"# 	c #090909",
"$ 	c #0B0B0B",
"% 	c #070707",
"& 	c #111111",
"* 	c #1C1C1C",
"= 	c #222222",
"- 	c #272727",
"; 	c #252525",
"> 	c #1E1E1E",
", 	c #1B1B1B",
"' 	c #181818",
") 	c #0F0F0F",
"! 	c #191919",
"~ 	c #303030",
"{ 	c #3D3D3D",
"] 	c #464646",
"^ 	c #4E4E4E",
"/ 	c #535353",
"( 	c #505050",
"_ 	c #484848",
": 	c #444444",
"< 	c #3B3B3B",
"[ 	c #2B2B2B",
"} 	c #141414",
"| 	c #292929",
"1 	c #393939",
"2 	c #3E3E3E",
"3 	c #3C3C3C",
"4 	c #3A3A3A",
"5 	c #414141",
"6 	c #555555",
"7 	c #525252",
"8 	c #333333",
"9 	c #2D2D2D",
"0 	c #373737",
"a 	c #313131",
"b 	c #323232",
"c 	c #2E2E2E",
"d 	c #595959",
"e 	c #5C5C5C",
"f 	c #565656",
"g 	c #424242",
"h 	c #171717",
"i 	c #040404",
"j 	c #383838",
"k 	c #454545",
"l 	c #515151",
"m 	c #5E5E5E",
"n 	c #575757",
"o 	c #343434",
"p 	c #282828",
"q 	c #151515",
"r 	c #020202",
"s 	c #0D0D0D",
"t 	c #585858",
"u 	c #838383",
"v 	c #707070",
"w 	c #404040",
"x 	c #474747",
"y 	c #4D4D4D",
"z 	c #2C2C2C",
"A 	c #6D6D6D",
"B 	c #DEDEDE",
"C 	c #DBDBDB",
"D 	c #CBCBCB",
"E 	c #979797",
"F 	c #494949",
"G 	c #161616",
"H 	c #929292",
"I 	c #B7B7B7",
"J 	c #D2D2D2",
"K 	c #E4E4E4",
"L 	c #3F3F3F",
"M 	c #080808",
"N 	c #4F4F4F",
"O 	c #636363",
"P 	c #F3F3F3",
"Q 	c #EDEDED",
"R 	c #727272",
"S 	c #4C4C4C",
"T 	c #4B4B4B",
"U 	c #0E0E0E",
"V 	c #1F1F1F",
"W 	c #DCDCDC",
"X 	c #F6F6F6",
"Y 	c #7A7A7A",
"Z 	c #262626",
"` 	c #281F0B",
" .	c #261F08",
"..	c #322717",
"+.	c #4E4033",
"@.	c #322D28",
"#.	c #212120",
"$.	c #C5C5C5",
"%.	c #9F9F9F",
"&.	c #5B5B5B",
"*.	c #4A4A4A",
"=.	c #131313",
"-.	c #7F7706",
";.	c #B49B1B",
">.	c #D5B921",
",.	c #E7C625",
"'.	c #EECD27",
").	c #D5A63E",
"!.	c #835E3A",
"~.	c #322920",
"{.	c #565553",
"].	c #545454",
"^.	c #5A5A5A",
"/.	c #5F5F5F",
"(.	c #121212",
"_.	c #372615",
":.	c #6E4C29",
"<.	c #B38C30",
"[.	c #E2C81E",
"}.	c #F6E017",
"|.	c #FCE11E",
"1.	c #FDDD26",
"2.	c #FDD92A",
"3.	c #FDDA29",
"4.	c #FCDB26",
"5.	c #FCD72B",
"6.	c #F0BA45",
"7.	c #B07C4A",
"8.	c #685847",
"9.	c #000000",
"0.	c #AB7642",
"a.	c #F5AA5F",
"b.	c #FBBF49",
"c.	c #FDC642",
"d.	c #FDC049",
"e.	c #FCB05B",
"f.	c #FBAD61",
"g.	c #FAAD61",
"h.	c #FBAF5E",
"i.	c #F9BF47",
"j.	c #F6B84B",
"k.	c #EBAC50",
"l.	c #E09C58",
"m.	c #886645",
"n.	c #2F2C29",
"o.	c #434343",
"p.	c #242424",
"q.	c #0A0A0A",
"r.	c #563B22",
"s.	c #8F6337",
"t.	c #AA7542",
"u.	c #C2864B",
"v.	c #CF8F50",
"w.	c #D39252",
"x.	c #D19152",
"y.	c #CB8D50",
"z.	c #CA8E4C",
"A.	c #CB9049",
"B.	c #BF8649",
"C.	c #B17A46",
"D.	c #B77F4A",
"E.	c #795E44",
"F.	c #2A2828",
"G.	c #363636",
"H.	c #232323",
"I.	c #4C341D",
"J.	c #664628",
"K.	c #8F6338",
"L.	c #A37040",
"M.	c #B47C47",
"N.	c #AF7A46",
"O.	c #AC7745",
"P.	c #B17D4A",
"Q.	c #6D553E",
"R.	c #272523",
"S.	c #3C2A19",
"T.	c #3B2D1E",
"U.	c #332A21",
"V.	c #252321",
"W.	c #2A2A2A",
"X.	c #353535",
"Y.	c #0C0C0C",
"Z.	c #1A1A1A",
"`.	c #101010",
" +	c #212121",
".+	c #2F2F2F",
"++	c #202020",
"@+	c #666666",
"#+	c #696969",
"$+	c #686868",
"%+	c #5D5D5D",
"&+	c #606060",
"*+	c #6F6F6F",
"=+	c #767676",
"-+	c #777777",
";+	c #050505",
">+	c #646464",
",+	c #6E6E6E",
"'+	c #787878",
")+	c #6C6C6C",
"!+	c #7D7D7D",
"~+	c #656565",
"{+	c #747474",
"]+	c #B1B1B1",
"^+	c #B4B4B4",
"/+	c #616161",
"(+	c #6B6B6B",
"_+	c #626262",
":+	c #8E8E8E",
"<+	c #E5E5E5",
"[+	c #F7F7F7",
"}+	c #A8A8A8",
"|+	c #717171",
"1+	c #CFCFCF",
"2+	c #FCFCFC",
"3+	c #FBFBFB",
"4+	c #F8F8F8",
"5+	c #8A8A8A",
"6+	c #CACACA",
"7+	c #FEFEFE",
"8+	c #FDFDFD",
"9+	c #B6B6B6",
"0+	c #B8B8B8",
"a+	c #ECECEC",
"b+	c #FFFFFF",
"c+	c #F9F9F9",
"d+	c #919191",
"e+	c #676767",
"f+	c #DDDDDD",
"g+	c #C2C2C2",
"h+	c #E8E8E8",
"i+	c #E0E0E0",
"j+	c #E6E6E6",
"k+	c #9E9E9E",
"l+	c #F4F4F4",
"m+	c #C9C9C9",
"n+	c #D0D0D0",
"o+	c #FAFAFA",
"p+	c #E2E2E2",
"q+	c #B9B9B9",
"r+	c #A2A2A2",
"s+	c #BBBBBB",
"t+	c #8B8B8B",
"u+	c #6A6A6A",
"v+	c #BFBFBF",
"w+	c #F2F2F2",
"x+	c #E9E9E9",
"y+	c #8F8F8F",
"z+	c #E1E1E1",
"A+	c #EFEFEF",
"B+	c #F0F0F0",
"C+	c #EAEAEA",
"D+	c #DFDFDF",
"E+	c #868686",
"F+	c #888888",
"G+	c #808080",
"H+	c #C1C1C1",
"I+	c #F1F1F1",
"J+	c #818181",
"K+	c #D5D5D5",
"L+	c #8D8D8D",
"M+	c #878787",
"N+	c #BEBEBE",
"O+	c #DADADA",
"P+	c #F5F5F5",
"Q+	c #E7E7E7",
"R+	c #D1D1D1",
"S+	c #898989",
"T+	c #BDBDBD",
"U+	c #D7D7D7",
"V+	c #EEEEEE",
"W+	c #C7C7C7",
"X+	c #9C9C9C",
"Y+	c #D8D8D8",
"Z+	c #C3C3C3",
"`+	c #B2B2B2",
" @	c #7B7B7B",
".@	c #E3E3E3",
"+@	c #B0B0B0",
"@@	c #A7A7A7",
"#@	c #A0A0A0",
"$@	c #7E7E7E",
"%@	c #B7AFA8",
"&@	c #D3D3D3",
"*@	c #D6D6D6",
"=@	c #CCCCCC",
"-@	c #8C8C8C",
";@	c #757575",
">@	c #49341A",
",@	c #6E4F2E",
"'@	c #886F56",
")@	c #949494",
"!@	c #C8C8C8",
"~@	c #858585",
"{@	c #3B2B12",
"]@	c #977823",
"^@	c #9C7D24",
"/@	c #60461E",
"(@	c #47321B",
"_@	c #65594E",
":@	c #281B0F",
"<@	c #BF9038",
"[@	c #F5C638",
"}@	c #F4C734",
"|@	c #E2B733",
"1@	c #6B4E23",
"2@	c #61482F",
"3@	c #080503",
"4@	c #725325",
"5@	c #A7842A",
"6@	c #DCAF35",
"7@	c #F8C938",
"8@	c #F6C835",
"9@	c #E3B437",
"0@	c #372A1C",
"a@	c #110E0B",
"b@	c #4F371E",
"c@	c #A2723B",
"d@	c #C99243",
"e@	c #FABD4A",
"f@	c #F8C73C",
"g@	c #E5B735",
"h@	c #664E1B",
"i@	c #2F220F",
"j@	c #2D2115",
"k@	c #211912",
"l@	c #1D1D1D",
"m@	c #422D19",
"n@	c #442F1A",
"o@	c #734F2C",
"p@	c #D0934C",
"q@	c #FBBA50",
"r@	c #F6BB48",
"s@	c #917027",
"t@	c #3E2F11",
"u@	c #1C130B",
"v@	c #160F09",
"w@	c #050403",
"x@	c #030201",
"y@	c #332314",
"z@	c #160F08",
"A@	c #5C3F24",
"B@	c #4F361E",
"C@	c #FCB45A",
"D@	c #FAB458",
"E@	c #AA783D",
"F@	c #392716",
"G@	c #1B130A",
"H@	c #090603",
"I@	c #080604",
"J@	c #030202",
"K@	c #070606",
"L@	c #040302",
"M@	c #2C1E11",
"N@	c #432E1A",
"O@	c #9D6D3D",
"P@	c #52381F",
"Q@	c #875E34",
"R@	c #FCB25D",
"S@	c #FDAF62",
"T@	c #DB9754",
"U@	c #825A32",
"V@	c #312213",
"W@	c #171009",
"X@	c #070503",
"Y@	c #0E0A05",
"Z@	c #0C0905",
"`@	c #161310",
" #	c #1E1710",
".#	c #4D361E",
"+#	c #533920",
"@#	c #412D19",
"##	c #2E2011",
"$#	c #B17B45",
"%#	c #6F4C2B",
"&#	c #3C2917",
"*#	c #9B6B3C",
"=#	c #C98B4E",
"-#	c #CE8E4F",
";#	c #D49252",
">#	c #AC7742",
",#	c #3B2917",
"'#	c #120C07",
")#	c #0D0905",
"!#	c #110C08",
"~#	c #4C453F",
"{#	c #3E2E1D",
"]#	c #46311B",
"^#	c #8F6533",
"/#	c #75522A",
"(#	c #5E4124",
"_#	c #1F150C",
":#	c #5D4125",
"<#	c #A57240",
"[#	c #6F4D2B",
"}#	c #543A20",
"|#	c #76512D",
"1#	c #996A3B",
"2#	c #C3874B",
"3#	c #C1854A",
"4#	c #553B21",
"5#	c #423C36",
"6#	c #624529",
"7#	c #5F4223",
"8#	c #795925",
"9#	c #AF7E3D",
"0#	c #6E4C2A",
"a#	c #281C0F",
"b#	c #54412D",
"c#	c #634527",
"d#	c #46311C",
"e#	c #48321C",
"f#	c #694828",
"g#	c #7F5831",
"h#	c #805931",
"i#	c #402C18",
"j#	c #020101",
"k#	c #3B2E20",
"l#	c #775628",
"m#	c #AC8232",
"n#	c #BE8A3F",
"o#	c #7E5731",
"p#	c #291C10",
"q#	c #23180D",
"r#	c #4A3B2C",
"s#	c #110C07",
"t#	c #3B2916",
"u#	c #3E2A17",
"v#	c #3C2A17",
"w#	c #261A0E",
"x#	c #070502",
"y#	c #090704",
"z#	c #060605",
"A#	c #131212",
"B#	c #96702E",
"C#	c #D09F3B",
"D#	c #D09747",
"E#	c #946738",
"F#	c #46301B",
"G#	c #221D1A",
"H#	c #191109",
"I#	c #2E2012",
"J#	c #22170D",
"K#	c #2B1E10",
"L#	c #322313",
"M#	c #1E150C",
"N#	c #130D08",
"O#	c #392917",
"P#	c #7A5C2A",
"Q#	c #BA8F33",
"R#	c #CB9A3B",
"S#	c #A57838",
"T#	c #916636",
"U#	c #76522E",
"V#	c #775923",
"W#	c #806322",
"X#	c #B18B2C",
"Y#	c #B28B2E",
"Z#	c #A98130",
"`#	c #B18533",
" $	c #CC9B3C",
".$	c #E1AE3F",
"+$	c #E7B43C",
"@$	c #B38537",
"#$	c #A67839",
"$$	c #684828",
"%$	c #B2803E",
"&$	c #E2AA45",
"*$	c #F6C33D",
"=$	c #F8C63D",
"-$	c #F9C53F",
";$	c #F4BA45",
">$	c #F5B84A",
",$	c #FBB853",
"'$	c #C5894B",
")$	c #A2703F",
"!$	c #74512C",
"~$	c #825932",
"{$	c #5B3F23",
"]$	c #382715",
"^$	c #47321A",
"/$	c #7A5D24",
"($	c #926F2A",
"_$	c #AE8137",
":$	c #A27438",
"<$	c #85602D",
"[$	c #A67340",
"}$	c #AD7742",
"|$	c #875D34",
"1$	c #906438",
"2$	c #0F0A06",
"3$	c #110C06",
"4$	c #130D07",
"5$	c #22180D",
"6$	c #140E07",
"                                                                                                                                ",
"                                                                                                                                ",
"                                                                                                                                ",
"                                                                                                                                ",
"                                                                                                                                ",
"                                                                                                                                ",
"                                                                                                                                ",
"                                                                                                                                ",
"                                                                                                                                ",
"                                                                                                                                ",
"                                                                                                                                ",
"                                                        . + @ # $                                                               ",
"                                                  . % & * = - ; > , ' )                                                         ",
"                                                # ! ~ { ] ^ / ( _ : < [ ! @                                                     ",
"                                              } | 1 2 < 3 4 5 _ ^ 6 7 _ 8 ' %                                                   ",
"                                            ) 9 1 0 a b b c 1 ] 7 d e f g - h i                                                 ",
"                                          # , b a 8 j 1 1 0 8 j k l d m n o p q r                                               ",
"                                          s ; b t u v w j 4 j 2 x ^ / n e y - 8 %                                               ",
"                                          } z A B C D E 0 0 1 2 F / n f 7 f b o G r                                             ",
"                                        # h o H I J K D e c j L F 7 f t ( y w ~ | M                                             ",
"                                        $ > 1 N o O P Q R - 0 g S 7 f n 6 T x ; a U                                             ",
"                                        M V 4 | , 8 W X Y - 0 g S 7 6 n t N F Z b q                                             ",
"                                      `  ...+.@.#.b $.X %.{ j w F ( 6 d &./ *.c a =.                                            ",
"                                  -.;.>.,.'.).!.~.{.I I E _ j 3 k S ].^./.6 _ o c (.                                            ",
"                        _.:.<.[.}.|.1.2.3.4.5.6.7.8.7 ^.].1 j 4 w _ l ^.m f x w 9 s 9.                                          ",
"                        0.a.b.c.d.e.f.g.h.i.j.k.l.m.n.3 3 < j 0 3 o.S f e 7 y *.p.q.9.                                          ",
"                        r.s.t.u.v.w.x.y.z.A.B.C.D.E.F.1 3 < 0 G.j w _ 7 t S y ] H.M 9.                                          ",
"                                I.J.K.L.M.N.O.P.Q.R.Z 1 < 4 j G.0 { k S ^ : *.g ! %                                             ",
"                                        S.T.U.V.V W.X.1 < 1 j G.j 3 g k w 3 5 X.' Y.                                            ",
"                                          ; Z.`. +z ~ a a a b G.j j 0 a 8 0 b W.> )                                             ",
"                                            ~ [  +p.H.H.H.Z z a b .+9 9 8 a | .+++q r                                           ",
"                                            9 c Z., > ++p.Z p | W.[ W.z [ 9 .+c ; > @                                           ",
"                                              a .+V ; Z ; Z ; ; | 9 b j 4 2 x L - H.`.                                          ",
"                                              c 0 p.z | W..+o 0 5 ] F o.] 6 t ].4 ; = s                                         ",
"                                            + 9 8 = | ; p.| b { x y T 7 /.@+#+$+%+< p.Z.                                        ",
"                                            + | ~ H.| ++H.W.o g S 7 d &+$+*+=+-+R t G.' '                                       ",
"                                            ;+G.a >  +V = | j *.l ].d m >+,+=+Y -+@+*.= G                                       ",
"                                            ; w  +, p.++ +p G.w ] S N ].^.>+A =+'+)+7 G.q !                                     ",
"                                          .+!+d ~ ! = ++ +- a j { g ] F ^ t ~+v {+A d 1 = , s                                   ",
"                                          ( ]+^+4 ' - p.++= | c X.3 L g x ( /+(+R *+_+5 ~  +,                                   ",
"                                        p :+<+[+}+ +V =  +++- [ ~ 0 3 2 g *.^.>+*+|+$+7 { c ++)                                 ",
"                                      > ,+1+2+3+4+5+h | ; p.- - z 8 j 3 2 ] l _+)+v ,+e k 2 W.!                                 ",
"                                      e 6+X 7+3+8+9+ +> H.= ++H.| .+X.4 3 5 S n @+,+*+~+y x 3  +q.                              ",
"                                    @ 0+a+7+7+b+b+c+d+} , V  += Z z b 1 4 w _ N m @+)+e+n y k - =.                              ",
"                                    S f+c+8+b+b+b+b+4+]+= >  += H.p a o 3 5 _ y f _+@+)+_+6 y .+&                               ",
"                                  r g+h+3+b+b+b+b+b+b+c+d+* > H.p.- .+G.{ o.*.*.l e >+)+#+e ].G.`.q                             ",
"                                    i+P 2+b+b+b+b+b+b+b+j+%+,  +p.; | o : ] ] *.F / m (+*+&+n 0 } }                             ",
"                                  k+l+c+8+b+b+b+b+b+b+b+3+m+b > p.Z p .+*.k _ F T _ ^.$+(+m d 1 G (.                            ",
"                                  n+o+[+7+b+b+b+b+b+b+7+7+p+#+= H.- | b &.T ] x x *.] _+$+&.^.w G U                             ",
"                                d W 2+X 7+b+b+b+b+b+7+8+8+P q+c H.; p o ~+].k ] ] : g &.~+^.&.x q M                             ",
"                              i r+<+o+X 7+b+b+b+b+7+7+2+o+o+B 2 ; ; | X.-+>+] k ] g b t O ^.^.T q ;+                            ",
"                              V s+j+[+[+8+b+b+b+b+7+8+o+X X a+m | Z p X.t+u+*.k ] L b / /+t t *.q i                             ",
"                              o.v+p+P X 2+7+b+b+b+b+8+4+P w+x+Y Z - | 8 y+v ^ ] ] j 8 d /+t f F =.+                             ",
"                              %+$.z+A+P 2+7+b+7+7+b+8+4+B+C+D+E+Z p | 8 F+G+6 x 5 o 0 &._+n f _ `.. .                           ",
"                              n H+i+a+I+c+8+7+7+7+7+7+4+A+x+f+F+9 - | 3 t+J+t F w 8 { &._+f ].k Y.9.9.                          ",
"                              T s+f+x+B+X 2+3+o+3+2+8+[+A+h+K+L+9 Z p 0 :+M+d ^ 2 z w m /+t 7 3 M 9.                            ",
"                              j N+O+K Q I+[+P+l+l+4+c+P+a+Q+R+H p - p S :+S+^.l X.[ S /._+6 N 8 i 9.                            ",
"                              * T+U+B Q+Q V+V+Q A+w+P A+h+<+W+X+W.- p : t+E+%+( c 9 7 &+/.].] | . 9.                            ",
"                              h k+U+O+D+j+K Q+Q+x+a+C+K Y+i+Z+`+.+p p b  @y+/.^ 9 X.n ^.%+*.G.> 9.9.                            ",
"                                $+J K+U+C D+p+.@.@.@s++@@@#@'+$@Z W.Z c v t+/+2 Z o.d 6 ( 3 b ) 9.9.                            ",
"                                | %@J R+&@*@C f+O+=@-@L b | | p.Z [ > h 4 ;@%+3 j f ^.^.] 0 - + 9.9.                            ",
"                                >@,@'@)@!@=@J K+~@N ++h % Y.- 9 8 1 4 X.Z 9 n 1 F ].d ^ g 0 - 9.9.9.                            ",
"                              {@]@^@/@(@_@y+D u+< p.(.@ ;+=.' > p z 0 5 j b X.o.x ]./ 5 1 8 Z r 9.9.                            ",
"                              :@<@[@}@|@1@2@/ .+=.G # # =.* ,  += c | < F 2 3 F *.S T { G.b p . 9.                              ",
"                              3@4@5@6@7@8@9@(@0@a@@ q.) q G , , ++p ~ a j *.y S ^ ] k w o ~ = % 9.                              ",
"                                  b@c@d@e@f@g@h@i@j@k@+ ;+& ! , l@p.W.a G.k ^ N T _ k L 0 z p.(.+ 9.9.                          ",
"                                    m@n@o@p@q@r@s@t@u@v@w@r q., * > H.~ 4 L x k L x ] 3 X.; p H.. x@y@z@                        ",
"                                        A@B@0.C@D@E@F@G@H@I@J@K@=.h > p.~ { o.0 0 L L { 1 .+p , L@M@N@H@                        ",
"                                          O@P@Q@R@S@T@U@V@W@X@Y@Z@M h Z.V c ; W.c j { w o.G.`@ #.#+#@###                        ",
"                                            $#%#&#*#=#-#;#>#,#'#)#!#Z.h * & } , ++z 1 2 ~#{#]#^#/#(#_#:#                        ",
"                                                <#[#}#|#1#2#3#4#_#_.u@$ $ M `.=.* Z 3 5#6#7#8#9#0#a#N@b#                        ",
"                                                    c#d#e#f#g#h#0#}#i#W@9.j#s `.l@W.z k#l#m#n#o#p#q#r#H.                        ",
"                                                        s#G@t#u#_.v#w#x#y#z#A#' ! = * B#C#D#E#F#p#G#[ - *                       ",
"                                                            9.9.H#I#J#K#L#,#M#N#O#P#Q#R#S#T#,#V@) Z.* , (.                      ",
"                                                                U#V#W#X#Y#Z#`# $.$+$@$#$$$%#G@      ' Z.                        ",
"                                                                %$&$*$f@=$-$;$>$,$'$)$!$~${$                                    ",
"                                                                ]$^$/$($_$:$<$[$}$|$1$*#                                        ",
"                                                                  2$z@3$4$5$q#6$H#i#                                            ",
"                                                                                                                                ",
"                                                                                                                                "};
