/* XPM */
static xpm_row_t const tux_jump_xpm[] = {
"64 80 459 2",
"  	c None",
". 	c #0B0B0B",
"+ 	c #090909",
"@ 	c #060606",
"# 	c #030303",
"$ 	c #010101",
"% 	c #0F0F0F",
"& 	c #181818",
"* 	c #1B1B1B",
"= 	c #1E1E1E",
"- 	c #252525",
"; 	c #272727",
"> 	c #222222",
", 	c #1D1D1D",
"' 	c #131313",
") 	c #080808",
"! 	c #191919",
"~ 	c #2B2B2B",
"{ 	c #3B3B3B",
"] 	c #444444",
"^ 	c #484848",
"/ 	c #4F4F4F",
"( 	c #4B4B4B",
"_ 	c #494949",
": 	c #424242",
"< 	c #404040",
"[ 	c #353535",
"} 	c #1C1C1C",
"| 	c #070707",
"1 	c #333333",
"2 	c #525252",
"3 	c #555555",
"4 	c #4D4D4D",
"5 	c #464646",
"6 	c #454545",
"7 	c #3F3F3F",
"8 	c #3D3D3D",
"9 	c #292929",
"0 	c #141414",
"a 	c #040404",
"b 	c #171717",
"c 	c #434343",
"d 	c #575757",
"e 	c #585858",
"f 	c #383838",
"g 	c #393939",
"h 	c #2D2D2D",
"i 	c #020202",
"j 	c #151515",
"k 	c #282828",
"l 	c #363636",
"m 	c #5A5A5A",
"n 	c #565656",
"o 	c #515151",
"p 	c #4A4A4A",
"q 	c #414141",
"r 	c #313131",
"s 	c #323232",
"t 	c #545454",
"u 	c #3A3A3A",
"v 	c #707070",
"w 	c #838383",
"x 	c #0D0D0D",
"y 	c #161616",
"z 	c #343434",
"A 	c #535353",
"B 	c #373737",
"C 	c #979797",
"D 	c #CBCBCB",
"E 	c #DBDBDB",
"F 	c #DEDEDE",
"G 	c #6D6D6D",
"H 	c #2C2C2C",
"I 	c #2E2E2E",
"J 	c #5C5C5C",
"K 	c #E4E4E4",
"L 	c #D2D2D2",
"M 	c #B7B7B7",
"N 	c #929292",
"O 	c #000000",
"P 	c #0E0E0E",
"Q 	c #505050",
"R 	c #4C4C4C",
"S 	c #727272",
"T 	c #EDEDED",
"U 	c #F3F3F3",
"V 	c #636363",
"W 	c #303030",
"X 	c #7A7A7A",
"Y 	c #F6F6F6",
"Z 	c #DCDCDC",
"` 	c #1F1F1F",
" .	c #5B5B5B",
"..	c #595959",
"+.	c #9F9F9F",
"@.	c #C5C5C5",
"#.	c #212120",
"$.	c #322D28",
"%.	c #4E4033",
"&.	c #322717",
"*.	c #261F08",
"=.	c #281F0B",
"-.	c #0A0A0A",
";.	c #050505",
">.	c #5F5F5F",
",.	c #3C3C3C",
"'.	c #565553",
").	c #322920",
"!.	c #835E3A",
"~.	c #D5A63E",
"{.	c #EECD27",
"].	c #E7C625",
"^.	c #D5B921",
"/.	c #B49B1B",
"(.	c #7B7305",
"_.	c #2F2F00",
":.	c #1D1C00",
"<.	c #0C0900",
"[.	c #040302",
"}.	c #2F2F2F",
"|.	c #5E5E5E",
"1.	c #685847",
"2.	c #B07C4A",
"3.	c #F0BA45",
"4.	c #FCD72B",
"5.	c #FCDB26",
"6.	c #FDDA29",
"7.	c #FDD92A",
"8.	c #FCDC25",
"9.	c #FBE01D",
"0.	c #F5DF16",
"a.	c #E1C71D",
"b.	c #A7822C",
"c.	c #593D21",
"d.	c #2D2013",
"e.	c #151311",
"f.	c #2A2A2A",
"g.	c #2F2C29",
"h.	c #886645",
"i.	c #E09C58",
"j.	c #EBAC50",
"k.	c #F6B84B",
"l.	c #F9BF47",
"m.	c #FAAE5D",
"n.	c #F9AC60",
"o.	c #FAAC60",
"p.	c #FBAF5A",
"q.	c #FBBF48",
"r.	c #FBC541",
"s.	c #F3B846",
"t.	c #D69452",
"u.	c #573E25",
"v.	c #120F0D",
"w.	c #4E4E4E",
"x.	c #2A2828",
"y.	c #795E44",
"z.	c #B77F4A",
"A.	c #B17A46",
"B.	c #BF8649",
"C.	c #CB9049",
"D.	c #CA8E4C",
"E.	c #CB8D50",
"F.	c #CE8F50",
"G.	c #CC8E4F",
"H.	c #C4874B",
"I.	c #B27B44",
"J.	c #956639",
"K.	c #6D4D2B",
"L.	c #392A1C",
"M.	c #12100F",
"N.	c #262626",
"O.	c #272523",
"P.	c #6D553E",
"Q.	c #B17D4A",
"R.	c #AC7745",
"S.	c #AE7945",
"T.	c #B17A45",
"U.	c #9D6C3D",
"V.	c #7D5731",
"W.	c #553B23",
"X.	c #352615",
"Y.	c #1A130D",
"Z.	c #130F0C",
"`.	c #161513",
" +	c #1C1813",
".+	c #141313",
"++	c #202020",
"@+	c #242220",
"#+	c #2B231D",
"$+	c #3B342C",
"%+	c #39352E",
"&+	c #0C0B0B",
"*+	c #100F0F",
"=+	c #3E3E3E",
"-+	c #474747",
";+	c #232323",
">+	c #212121",
",+	c #0C0C0C",
"'+	c #242424",
")+	c #111111",
"!+	c #101010",
"~+	c #1A1A1A",
"{+	c #5D5D5D",
"]+	c #656565",
"^+	c #BCBCBC",
"/+	c #999999",
"(+	c #121212",
"_+	c #F5F5F5",
":+	c #676767",
"<+	c #7D7D7D",
"[+	c #E0E0E0",
"}+	c #FCFCFC",
"|+	c #F9F9F9",
"1+	c #ACACAC",
"2+	c #989898",
"3+	c #ECECEC",
"4+	c #FDFDFD",
"5+	c #FEFEFE",
"6+	c #D8D8D8",
"7+	c #666666",
"8+	c #B8B8B8",
"9+	c #A5A5A5",
"0+	c #6C6C6C",
"a+	c #747474",
"b+	c #D5D5D5",
"c+	c #FBFBFB",
"d+	c #FFFFFF",
"e+	c #DDDDDD",
"f+	c #A0A0A0",
"g+	c #878787",
"h+	c #E3E3E3",
"i+	c #D9D9D9",
"j+	c #BBBBBB",
"k+	c #949494",
"l+	c #E9E9E9",
"m+	c #F1F1F1",
"n+	c #737373",
"o+	c #919191",
"p+	c #E8E8E8",
"q+	c #F4F4F4",
"r+	c #9E9E9E",
"s+	c #757575",
"t+	c #868686",
"u+	c #F7F7F7",
"v+	c #FAFAFA",
"w+	c #D0D0D0",
"x+	c #626262",
"y+	c #7E7E7E",
"z+	c #6B6B6B",
"A+	c #7B7B7B",
"B+	c #B1B1B1",
"C+	c #E5E5E5",
"D+	c #A2A2A2",
"E+	c #6E6E6E",
"F+	c #E6E6E6",
"G+	c #6A6A6A",
"H+	c #717171",
"I+	c #939393",
"J+	c #C9C9C9",
"K+	c #E2E2E2",
"L+	c #BFBFBF",
"M+	c #A4A4A4",
"N+	c #EFEFEF",
"O+	c #E1E1E1",
"P+	c #C4C4C4",
"Q+	c #47311A",
"R+	c #796331",
"S+	c #49381C",
"T+	c #C0C0C0",
"U+	c #463119",
"V+	c #856633",
"W+	c #DDBA5B",
"X+	c #6A532A",
"Y+	c #523D1E",
"Z+	c #AE8E45",
"`+	c #EACD65",
" @	c #D6AF57",
".@	c #2E2210",
"+@	c #342613",
"@@	c #654D26",
"#@	c #E8D165",
"$@	c #EACD64",
"%@	c #D9B459",
"&@	c #251B0D",
"*@	c #686868",
"=@	c #322513",
"-@	c #856C37",
";@	c #F2DC6C",
">@	c #E8C761",
",@	c #D7AF57",
"'@	c #2F2512",
")@	c #767676",
"!@	c #0D0C09",
"~@	c #040403",
"{@	c #6F6F6F",
"]@	c #302213",
"^@	c #E1C159",
"/@	c #F1D766",
"(@	c #E6C35E",
"_@	c #C8A351",
":@	c #503A1D",
"<@	c #231B0D",
"[@	c #1D1A0E",
"}@	c #0B0A05",
"|@	c #060503",
"1@	c #010000",
"2@	c #AD8853",
"3@	c #EDC15B",
"4@	c #EECB62",
"5@	c #D3A453",
"6@	c #9C7F3F",
"7@	c #3F2B17",
"8@	c #462F1A",
"9@	c #533E20",
"0@	c #26220F",
"a@	c #221F0C",
"b@	c #110E07",
"c@	c #423D37",
"d@	c #CFA25A",
"e@	c #F0C45E",
"f@	c #E8B75D",
"g@	c #CDA150",
"h@	c #684D26",
"i@	c #3A2816",
"j@	c #50371D",
"k@	c #5F4023",
"l@	c #604C26",
"m@	c #3A3318",
"n@	c #1F1A0E",
"o@	c #826D49",
"p@	c #DDB15C",
"q@	c #EEB95A",
"r@	c #E6B45B",
"s@	c #A88141",
"t@	c #1A130A",
"u@	c #422E18",
"v@	c #573D1E",
"w@	c #815A31",
"x@	c #A5733E",
"y@	c #A07D3D",
"z@	c #26200E",
"A@	c #0D0C07",
"B@	c #CFA85B",
"C@	c #E8BD61",
"D@	c #E8B65C",
"E@	c #D19C51",
"F@	c #805F30",
"G@	c #493318",
"H@	c #896031",
"I@	c #B17C44",
"J@	c #BC8548",
"K@	c #846A34",
"L@	c #1C190A",
"M@	c #030302",
"N@	c #554C33",
"O@	c #D7A758",
"P@	c #E1A858",
"Q@	c #DDA556",
"R@	c #BE8B47",
"S@	c #29210F",
"T@	c #2B1D0E",
"U@	c #6B4C23",
"V@	c #BE8547",
"W@	c #C0884A",
"X@	c #C48C4C",
"Y@	c #866C35",
"Z@	c #18130F",
"`@	c #B27D44",
" #	c #CE9C51",
".#	c #DBA155",
"+#	c #BE8A47",
"@#	c #624824",
"##	c #443217",
"$#	c #A77739",
"%#	c #C18945",
"&#	c #DA9F55",
"*#	c #D29951",
"=#	c #403819",
"-#	c #19160B",
";#	c #B68146",
">#	c #C5924B",
",#	c #CF9850",
"'#	c #9F733C",
")#	c #322313",
"!#	c #5B411F",
"~#	c #B98540",
"{#	c #D0954B",
"]#	c #E3AB59",
"^#	c #DCA853",
"/#	c #4F431C",
"(#	c #121110",
"_#	c #131210",
":#	c #161412",
"<#	c #1A1815",
"[#	c #21180E",
"}#	c #8A6836",
"|#	c #BA8548",
"1#	c #C9964E",
"2#	c #C2904C",
"3#	c #432F18",
"4#	c #6F4F26",
"5#	c #BE8A40",
"6#	c #DEA548",
"7#	c #EBBB5A",
"8#	c #EAB751",
"9#	c #362C16",
"0#	c #363027",
"a#	c #5B4626",
"b#	c #815931",
"c#	c #8E6637",
"d#	c #8E6937",
"e#	c #48331B",
"f#	c #664B21",
"g#	c #CE9744",
"h#	c #E3AE4C",
"i#	c #EEBE5C",
"j#	c #E7B952",
"k#	c #201D0D",
"l#	c #060502",
"m#	c #2F2E2C",
"n#	c #291F16",
"o#	c #76512C",
"p#	c #7C592F",
"q#	c #523B1F",
"r#	c #3D2A16",
"s#	c #55411A",
"t#	c #DCA847",
"u#	c #F3C24C",
"v#	c #EFCC5A",
"w#	c #E7C253",
"x#	c #413A1B",
"y#	c #4D3C18",
"z#	c #E2AE4A",
"A#	c #F3CF5B",
"B#	c #EBC554",
"C#	c #D2AE49",
"D#	c #524921",
"E#	c #251D0B",
"F#	c #725C25",
"G#	c #EDC453",
"H#	c #F1CB59",
"I#	c #EBC454",
"J#	c #B0943F",
"K#	c #604C20",
"L#	c #211A0A",
"M#	c #ECC352",
"N#	c #F0CA58",
"O#	c #EAC353",
"P#	c #AF933E",
"Q#	c #644F21",
"R#	c #171307",
"S#	c #755E27",
"T#	c #C69C3D",
"U#	c #B9963D",
"V#	c #9A7931",
"W#	c #59451E",
"X#	c #6E5424",
"Y#	c #725925",
"Z#	c #705825",
"                                                                                                                                ",
"                                                                                                                                ",
"                                                                                                                                ",
"                                                                                                                                ",
"                                                                                                                                ",
"                                                                                                                                ",
"                                                                                                                                ",
"                                                                                                                                ",
"                                                                                                                                ",
"                                                                                                                                ",
"                                                                                                                                ",
"                                                                                                                                ",
"                                                                                                                                ",
"                                                              . + @ # $                                                         ",
"                                                        % & * = - ; > , ' ) $                                                   ",
"                                                    @ ! ~ { ] ^ / ( _ : < [ } +                                                 ",
"                                                  | & 1 ^ 2 3 4 5 6 ] 7 < 8 { 9 0                                               ",
"                                                a b ; c d e 3 4 ^ ] : < { f f g h %                                             ",
"                                              i j k l d m n o p 6 5 q g g f 1 r s * +                                           ",
"                                              | 1 9 2 e n t 4 p ( 7 u f < v w e s - x                                           ",
"                                            i y z : n A t o / / < g B B C D E F G H 0                                           ",
"                                            ) 9 f 4 A A A n A _ 7 f I J D K L M N z b +                 O i #                   ",
"                                            P r { / Q A n 3 o R : B ; S T U V z / g = .               O O a $ O                 ",
"                                            j 1 W 4 o 3 d 3 2 R : B ; X Y Z 1 * 9 u ` )               O $ P @ i                 ",
"                                            0 1 l R A  ...3 Q _ < f 8 +.Y @.s #.$.%.&.*.=.        O $ $ -.;.$ O                 ",
"                                            ' r B _ 3 >.m t R 6 ,.f ^ C M M '.).!.~.{.].^./.(._.:.<.[.+ i O O #                 ",
"                                          O P }.c p n |.m o ^ < u f g t m 2 1.2.3.4.5.6.7.8.9.0.a.b.c.d.e.O O )                 ",
"                                          O . f._ 4 A J n R c ,.B f { ,.,.g.h.i.j.k.l.m.n.o.p.q.r.s.t.u.v.O O                   ",
"                                          O ) - < R w...2 ^ < f l l u ,.g x.y.z.A.B.C.D.E.F.G.H.I.J.K.L.M.i O                   ",
"                                            ) ` ,._ 5 A / 6 8 B l f u { g N.O.P.Q.R.S.T.U.V.W.X.Y.Z.`. +.+O                     ",
"                                            x ` 1 ,.,.p ( 5 ,.f l B g { g [ f.++@+#+$+%+&+% ' P @ ) a *+| O                     ",
"                                          O % = f.[ ,.g g 8 =+g l z r r r s }.- % } -+O O # i # $ $ | + a i                     ",
"                                          i 0 = I 9 r s r f B u z s I k ; k N.;+k I b O O O O O O ;.-.;.i                       ",
"                                          ;.} >+9 k f.9 ~ W s W I }.H ~ ; - > } 9 f.O i i O O O @ . -.;.,+                      ",
"                                          % ` >+g q z 1 f.>+> ;+;+- '+> > >+} ~ - % # . -.# O i -.-.@ @                         ",
"                                        x >+> f.5 A t =+g W I f.= b )+!+P )+)+} ~+a @ !+P @ # | -.+ i P                         ",
"                                        ~+'+B t / e e  .2 _ 7 1 f.N., * * ~+y * ! | ) % -.) @ P P + O                           ",
"                                      x j l w. . ...m J {+m 2 p =+r ; ;+` >+= - k } % ' ,+,+,+!+P ;.                            ",
"                                    # -.9 -+..|.{+J m e d 3 3 R q g I ; > >+++~ r y y y y ' ' !+. O                             ",
"                                  O . * : n {+{+|.{+m d 2 R 6 8 B s h N.> >+* ++=+; b ! ~+j ' P ;.                              ",
"                                  x = { t J {+{+{+..t R c q { l 1 h 9 '+` ++} }...]+++y = & j ) O                               ",
"                                ~+= B 2 {+>.J n 3 Q R : =+{ f 1 I k '+> ++` ; J ^+/+[ (+` > & +                                 ",
"                              j >+l ^  .{+ .4 -+] -+] < ,.g [ }.f.- ++++, ` o @._+E :+~+~+} } a                                 ",
"                            P , > 8 t J ..4 c q q : q 8 g l s H N.'+>+, , f.<+[+}+|+1+s 0 )+'                                   ",
"                            , s l 4 ..d ( -+: 8 8 u { { l z W 9 ;+= , * ` { 2+3+4+5+6+7+++-.                                    ",
"                          ' [ ,._ 3 n w.-+: ^ Q { l g g [ 1 I ; ++, * ~+'+Q 8+Y 5+5+U 9+2 +                                     ",
"                        . ~ g 5 2 2 / ^ ] 2 0+a+8 z u f [ W f.'+` } ~+, }.0+b+c+d+d+c+e+f+8                                     ",
"                      . N.W u p / 4 _ ^ e 0+0+u f.f u B [ I ; > , * * '+g g+h+4+d+d+d+Y i+j+i                                   ",
"                      , h B _ w.4 p ^ d G |.f H { 8 u g z ~ - >+} ~+` - ,.k+l+}+d+d+d+c+m+[+                                    ",
"                    & ~ W < R ( _ ( 3 n+7+u }.W < 8 { l W 9 '+` & * ` ;+8 o+p+4+d+d+5+4+|+q+r+                                  ",
"                  ' 9 h u ^ _ ^ ( o s+..g 9 h { < { f s ~ k ;+} ! } ` ;+l t+K }+d+d+5+5+u+v+w+                                  ",
"                  > k }.5 ^ ( t x+y+m f 1 B 7 q { [ I ~ ~ N.` ! & * = > s S i+}+d+d+d+4+Y }+Z ..                                ",
"                }.> N.g 5 p d z+A+n l I 8 c : < { z h ~ ~ > } & b ! } ++~ o B+q+4+d+d+4+Y v+C+D+a                               ",
"                !+++f.< t :+a+a+4 1 9 8 ^ q =+,.g [ }.h h ;+, b b b * ++N.B E+M K |+d+4+u+u+F+j+`                               ",
"                y - g ^ G+H+A H r l -+^ : ,.{ g l l z }.}.- , y ! b ~+= ;+H 5 v I+J+m+v+Y U K+L+c                               ",
"                (+0 B e S < ~ h =+Q p 5 : 8 f f f f l s s N.` b & b ~+, >+; l _ e n+M+6+T N+O+P+J     Q+R+S+                    ",
"                  % ! ;+++= W : 3 n R 6 q { B B f f l 1 1 k ++& ! b ! * ` '+h ,._ Q ..a+j+6+Z T+n   U+V+W+X+                    ",
"                      -.+ )+k 8 _ m A w.6 7 g u u B z r r ~ >+& ! & & ~+= >+- }.: R t d G 1+J+I+6   Y+Z+`+ @.@                  ",
"                          O | ,+H : Q A 5 c =+,.u g [ [ I ; ` ~+* & b ! , ++;+k r < /  .x+Q 7 ..[ +@@@#@$@%@&@                  ",
"                          O O @ } ] / / ] 8 ,.{ g l [ s ~ ;+= ~+~+! y b ~+= >+'+k 1 8 / *@A+5 '+* =@-@;@>@,@'@                  ",
"                          O O # ' B R ^ < B u u g l z }.9 > ` * ! ! b b b * ++'+N.h 1 =+Q G )@6 a =@-@;@>@,@'@                  ",
"                        + !@~@$ !+++R p ,.1 [ g B [ s }.9 '+` * ~+! & b b b } ++> k 1 { 7 ..{@]+u ]@^@/@(@_@                    ",
"                    :@<@[@}@|@1@x (+8 Q < 1 r [ [ s W I f.- >+, * ~+& & b & & } ++` ` h 1 [ ]+m I 2@3@4@5@6@                    ",
"                  7@8@9@0@a@b@i ,+(+++^ p f s r r h H H f.; - > = * ! b b b & ! * ` 0 } ;+; -+,.c@d@e@f@g@h@                    ",
"                  i@j@k@l@m@n@O ;.% (+H 5 : l r I f.9 k N.N.'+;+>+` } * ~+& b b y y 0 '+9 N.9 ;+o@p@q@r@s@t@                    ",
"                  u@v@w@x@y@z@A@O ;.0 > 1 =+=+B W ~ ; - ;+;+> >+++= } } , } * & & j , * - N.= b B@C@D@E@F@                      ",
"                    G@H@I@J@K@L@M@O | ! k h [ ,.[ I 9 > > > >+>+>+> ` = = * , } } } b ! ! [ > N@O@P@Q@R@S@                      ",
"                    T@U@V@W@X@Y@|@O O | & ;+k H 1 z W f.k ++>+;+- ; f.~ ~ f.N.'+>+++>+j ~+~+Z@`@ #.#+#@#                        ",
"                      ##$#%#&#*#=#$ O O a P & ++'+'+k H I ! ++> ;+> N.f.~ H H I ~ f.; ++* -.-#;#>#,#'#)#                        ",
"                        !#~#{#]#^#/#a $ O i y ! (#M._#:#<#@ (+~ f ; > 9 k 9 9 k ~ h h ; ` [#}#|#1#2#3#                          ",
"                          4#5#6#7#8#9#O x j *                               0#- 9 9 ; f.f.a#b#c#d#e#                            ",
"                            f#g#h#i#j#k#l#                                            ;+m#n#o#p#q#r#                            ",
"                              s#t#u#v#w#x#                                                                                      ",
"                                y#z#A#B#C#D#                                                                                    ",
"                                E#F#G#H#I#J#K#                                                                                  ",
"                                  L#F#M#N#O#P#Q#                                                                                ",
"                                    R#S#T#U#V#W#                                                                                ",
"                                        X#Y#Z#                                                                                  ",
"                                                                                                                                ",
"                                                                                                                                "};
