/* XPM */
static xpm_row_t const tux_duck_xpm[] = {
"64 80 532 2",
"  	c None",
". 	c #4A4A4A",
"+ 	c #303030",
"@ 	c #323131",
"# 	c #313131",
"$ 	c #545454",
"% 	c #666666",
"& 	c #676767",
"* 	c #3A3939",
"= 	c #262626",
"- 	c #181818",
"; 	c #0F0F0F",
"> 	c #121212",
", 	c #151515",
"' 	c #1E1E1E",
") 	c #222222",
"! 	c #252525",
"~ 	c #2F2E2E",
"{ 	c #2F2F2F",
"] 	c #403F3F",
"^ 	c #747474",
"/ 	c #1A1A1A",
"( 	c #232323",
"_ 	c #2B2A2A",
": 	c #2E2E2E",
"< 	c #343333",
"[ 	c #3C3C3C",
"} 	c #414141",
"| 	c #484747",
"1 	c #515151",
"2 	c #555454",
"3 	c #595858",
"4 	c #565555",
"5 	c #464545",
"6 	c #383838",
"7 	c #2D2C2C",
"8 	c #444444",
"9 	c #696969",
"0 	c #1D1D1D",
"a 	c #2D2D2D",
"b 	c #2E2D2D",
"c 	c #292828",
"d 	c #262525",
"e 	c #313030",
"f 	c #363535",
"g 	c #3D3C3C",
"h 	c #434242",
"i 	c #4F4F4F",
"j 	c #5E5D5D",
"k 	c #686767",
"l 	c #646363",
"m 	c #575656",
"n 	c #292929",
"o 	c #1B1B1B",
"p 	c #242424",
"q 	c #222121",
"r 	c #232222",
"s 	c #1A1919",
"t 	c #151414",
"u 	c #161515",
"v 	c #1E1D1D",
"w 	c #282727",
"x 	c #2C2B2B",
"y 	c #343434",
"z 	c #3E3D3D",
"A 	c #4D4C4C",
"B 	c #626161",
"C 	c #605F5F",
"D 	c #4A4949",
"E 	c #282828",
"F 	c #131313",
"G 	c #434343",
"H 	c #000000",
"I 	c #393939",
"J 	c #2B2B2B",
"K 	c #1F1F1F",
"L 	c #191818",
"M 	c #141313",
"N 	c #111010",
"O 	c #1F1E1E",
"P 	c #212020",
"Q 	c #252424",
"R 	c #2A2929",
"S 	c #302F2F",
"T 	c #4C4C4C",
"U 	c #5C5C5C",
"V 	c #656565",
"W 	c #656464",
"X 	c #323232",
"Y 	c #353535",
"Z 	c #201F1F",
"` 	c #262625",
" .	c #272626",
"..	c #272727",
"+.	c #333232",
"@.	c #383737",
"#.	c #535353",
"$.	c #5F5F5F",
"%.	c #636363",
"&.	c #0A0A0A",
"*.	c #2A2A2A",
"=.	c #141414",
"-.	c #0E0E0E",
";.	c #242323",
">.	c #212121",
",.	c #111111",
"'.	c #080808",
").	c #3D3D3D",
"!.	c #646464",
"~.	c #626262",
"{.	c #202020",
"].	c #333333",
"^.	c #050505",
"/.	c #535252",
"(.	c #7D7D7D",
"_.	c #838383",
":.	c #828282",
"<.	c #808080",
"[.	c #5A5959",
"}.	c #5A5A5A",
"|.	c #505050",
"1.	c #3A3A3A",
"2.	c #363636",
"3.	c #4B4A4A",
"4.	c #707070",
"5.	c #6E6D6D",
"6.	c #424141",
"7.	c #1C1B1B",
"8.	c #161616",
"9.	c #737373",
"0.	c #616060",
"a.	c #6A6A6A",
"b.	c #525252",
"c.	c #717171",
"d.	c #767676",
"e.	c #3B3B3A",
"f.	c #171717",
"g.	c #595959",
"h.	c #404040",
"i.	c #222120",
"j.	c #232221",
"k.	c #21201F",
"l.	c #1F1E1D",
"m.	c #0C0C0C",
"n.	c #1C1C1C",
"o.	c #414040",
"p.	c #686868",
"q.	c #454545",
"r.	c #373636",
"s.	c #858585",
"t.	c #282726",
"u.	c #272726",
"v.	c #2A2928",
"w.	c #2B2A29",
"x.	c #292928",
"y.	c #989898",
"z.	c #474646",
"A.	c #474747",
"B.	c #5E5E5E",
"C.	c #313130",
"D.	c #585858",
"E.	c #9E9E9E",
"F.	c #010101",
"G.	c #353434",
"H.	c #2C2C2C",
"I.	c #282827",
"J.	c #2C2C2B",
"K.	c #30302F",
"L.	c #616161",
"M.	c #4E4E4E",
"N.	c #8B8B8B",
"O.	c #070707",
"P.	c #3F3F3F",
"Q.	c #2B2B2A",
"R.	c #3C3B3B",
"S.	c #4F4E4E",
"T.	c #323231",
"U.	c #464646",
"V.	c #3B3A3A",
"W.	c #232322",
"X.	c #242423",
"Y.	c #565656",
"Z.	c #5D5D5C",
"`.	c #060606",
" +	c #424242",
".+	c #1F1F1E",
"++	c #191919",
"@+	c #5C5C5B",
"#+	c #3F3E3E",
"$+	c #504F4F",
"%+	c #020202",
"&+	c #444343",
"*+	c #484848",
"=+	c #20201F",
"-+	c #191918",
";+	c #4D4D4D",
">+	c #7B7B7B",
",+	c #6B6B6B",
"'+	c #0D0D0D",
")+	c #3B3B3B",
"!+	c #555554",
"~+	c #3F3F3E",
"{+	c #3E3D3C",
"]+	c #1E1E1D",
"^+	c #171716",
"/+	c #1B1A1A",
"(+	c #2A2A29",
"_+	c #606060",
":+	c #7E7D7D",
"<+	c #7E7E7E",
"[+	c #797979",
"}+	c #5B5B5B",
"|+	c #0B0B0B",
"1+	c #494949",
"2+	c #575757",
"3+	c #373737",
"4+	c #6F6F6F",
"5+	c #252524",
"6+	c #1A1A19",
"7+	c #3E3E3E",
"8+	c #7A7A7A",
"9+	c #6A6969",
"0+	c #2D2D2C",
"a+	c #555555",
"b+	c #6C6C6B",
"c+	c #3C3C3B",
"d+	c #040404",
"e+	c #7C7C7C",
"f+	c #8D8D8D",
"g+	c #090909",
"h+	c #A4A4A4",
"i+	c #C5C5C5",
"j+	c #1D1C1C",
"k+	c #383633",
"l+	c #3E3B35",
"m+	c #3A3932",
"n+	c #2E2E2C",
"o+	c #101010",
"p+	c #C6C6C6",
"q+	c #BCBCBC",
"r+	c #C4C4C4",
"s+	c #727272",
"t+	c #2C2B29",
"u+	c #0C0A07",
"v+	c #080703",
"w+	c #121009",
"x+	c #181611",
"y+	c #1D1C19",
"z+	c #181817",
"A+	c #777777",
"B+	c #C7C7C7",
"C+	c #C3C3C3",
"D+	c #C9C9C9",
"E+	c #A2A2A2",
"F+	c #32302B",
"G+	c #5E4E2E",
"H+	c #3B311B",
"I+	c #2D2514",
"J+	c #0F0C08",
"K+	c #110F09",
"L+	c #11100C",
"M+	c #29200E",
"N+	c #31302D",
"O+	c #DBDBDB",
"P+	c #D1D1D1",
"Q+	c #CACACA",
"R+	c #CDCDCD",
"S+	c #B4B4B4",
"T+	c #5F5E5D",
"U+	c #574217",
"V+	c #594214",
"W+	c #342810",
"X+	c #523D11",
"Y+	c #2A1F09",
"Z+	c #1E180E",
"`+	c #13110C",
" @	c #171612",
".@	c #0C0C09",
"+@	c #070605",
"@@	c #130E02",
"#@	c #85620B",
"$@	c #947D24",
"%@	c #B1AD9A",
"&@	c #CCCCCC",
"*@	c #DFDFDF",
"=@	c #CECECE",
"-@	c #BABABA",
";@	c #8B7F65",
">@	c #776848",
",@	c #533E12",
"'@	c #65490C",
")@	c #6C4C09",
"!@	c #6E5010",
"~@	c #58410F",
"{@	c #443310",
"]@	c #372A0B",
"^@	c #564013",
"/@	c #8C733B",
"(@	c #996C0D",
"_@	c #D2B121",
":@	c #D3BA51",
"<@	c #CCCCC8",
"[@	c #F4F4F4",
"}@	c #4B4B4B",
"|@	c #BBBBBB",
"1@	c #CBCBCB",
"2@	c #ECECEC",
"3@	c #E2E2E2",
"4@	c #CFCFCF",
"5@	c #BEBCB8",
"6@	c #7B725D",
"7@	c #5C4E2F",
"8@	c #5B4312",
"9@	c #8A620C",
"0@	c #AB7606",
"a@	c #B67D03",
"b@	c #D2A23D",
"c@	c #D8B567",
"d@	c #D5B366",
"e@	c #D7B65B",
"f@	c #CDA519",
"g@	c #ECCB27",
"h@	c #DDD3B0",
"i@	c #E9E9E9",
"j@	c #B7B7B7",
"k@	c #919191",
"l@	c #DEDEDE",
"m@	c #F1F1F1",
"n@	c #B9B9B9",
"o@	c #BEBDBA",
"p@	c #5C5138",
"q@	c #625028",
"r@	c #92680F",
"s@	c #B27B07",
"t@	c #C68A08",
"u@	c #C4993B",
"v@	c #E9C557",
"w@	c #F6D64B",
"x@	c #EEC928",
"y@	c #ECCA27",
"z@	c #D4B633",
"A@	c #E1E1E1",
"B@	c #F5F5F5",
"C@	c #E4E4E4",
"D@	c #B1B1B1",
"E@	c #D0D0D0",
"F@	c #E8E8E8",
"G@	c #F0F0F0",
"H@	c #EDEDED",
"I@	c #C0C0C0",
"J@	c #878172",
"K@	c #5B4E32",
"L@	c #806323",
"M@	c #F1B124",
"N@	c #E7AA29",
"O@	c #DDAD47",
"P@	c #E8CB75",
"Q@	c #E8C643",
"R@	c #EAC625",
"S@	c #EFCD29",
"T@	c #C6BB97",
"U@	c #EFEFEF",
"V@	c #030303",
"W@	c #E3E3E3",
"X@	c #C5C4C1",
"Y@	c #6D6147",
"Z@	c #65542F",
"`@	c #A7812F",
" #	c #F1C871",
".#	c #EFD5A1",
"+#	c #E0C577",
"@#	c #DDBE38",
"##	c #F6D429",
"$#	c #C0A52A",
"%#	c #E6E6E6",
"&#	c #D4D4D4",
"*#	c #B5B5B5",
"=#	c #E7E7E7",
"-#	c #F9F9F9",
";#	c #BDBCBC",
">#	c #6C5B38",
",#	c #7D6023",
"'#	c #A57816",
")#	c #C59724",
"!#	c #DCB426",
"~#	c #F5D229",
"{#	c #CAAE31",
"]#	c #BCB8AC",
"^#	c #F1F0F0",
"/#	c #A6A6A6",
"(#	c #9A9A9A",
"_#	c #C2C2C2",
":#	c #EEEEEE",
"<#	c #D7D7D7",
"[#	c #CFCECC",
"}#	c #5D5239",
"|#	c #826A21",
"1#	c #C5A221",
"2#	c #DCBA26",
"3#	c #D2B434",
"4#	c #C4C0B5",
"5#	c #E3E1DA",
"6#	c #6E6E6E",
"7#	c #868686",
"8#	c #F7F7F7",
"9#	c #FAFAFA",
"0#	c #F7F7F6",
"a#	c #F2F1EF",
"b#	c #F6F5F0",
"c#	c #F9F7F2",
"d#	c #F7F5EF",
"e#	c #767575",
"f#	c #818181",
"g#	c #6C6C6C",
"h#	c #BFBFBF",
"i#	c #C6C2BC",
"j#	c #D2D2D2",
"k#	c #9F9F9F",
"l#	c #151412",
"m#	c #393836",
"n#	c #5B5A58",
"o#	c #646360",
"p#	c #877349",
"q#	c #806C41",
"r#	c #816B3B",
"s#	c #A38137",
"t#	c #B08426",
"u#	c #AF852A",
"v#	c #A67F29",
"w#	c #AF8428",
"x#	c #BD9540",
"y#	c #C59735",
"z#	c #6F6A5F",
"A#	c #8B8A8A",
"B#	c #5D5C5C",
"C#	c #48443E",
"D#	c #5A5750",
"E#	c #56492D",
"F#	c #8D6B21",
"G#	c #968158",
"H#	c #8C7D5C",
"I#	c #60543A",
"J#	c #201F1C",
"K#	c #3E341F",
"L#	c #5E4819",
"M#	c #8E691C",
"N#	c #9C741F",
"O#	c #B98820",
"P#	c #AF8326",
"Q#	c #AD8226",
"R#	c #B48625",
"S#	c #C59020",
"T#	c #E0A11A",
"U#	c #E3AA33",
"V#	c #F0C260",
"W#	c #F7DCA3",
"X#	c #F5D185",
"Y#	c #DEA327",
"Z#	c #725C2E",
"`#	c #464034",
" $	c #534A38",
".$	c #7B683E",
"+$	c #A37E32",
"@$	c #AC8228",
"#$	c #B58726",
"$$	c #C4942B",
"%$	c #D6A53A",
"&$	c #EBBF61",
"*$	c #EDC87A",
"=$	c #D7AD50",
"-$	c #A37D2D",
";$	c #573E07",
">$	c #B68724",
",$	c #B48624",
"'$	c #AA8027",
")$	c #A47D2A",
"!$	c #A67E2A",
"~$	c #A87F29",
"{$	c #BB8A22",
"]$	c #C28D1F",
"^$	c #CD941A",
"/$	c #DE9E15",
"($	c #EBA714",
"_$	c #EFAE22",
":$	c #F4B734",
"<$	c #F6CB72",
"[$	c #F8E1B0",
"}$	c #F5D38A",
"|$	c #C09331",
"1$	c #624E26",
"2$	c #A68030",
"3$	c #B18528",
"4$	c #AD8227",
"5$	c #C38E1E",
"6$	c #D09619",
"7$	c #E5A519",
"8$	c #EEAE23",
"9$	c #F6C55D",
"0$	c #F5D48D",
"a$	c #DAB463",
"b$	c #A99363",
"c$	c #402D05",
"d$	c #7C580A",
"e$	c #AF8121",
"f$	c #AD7F1F",
"g$	c #A27820",
"h$	c #9F7722",
"i$	c #9E7724",
"j$	c #A17823",
"k$	c #A17926",
"l$	c #A37B26",
"m$	c #A17A26",
"n$	c #A07928",
"o$	c #A07927",
"p$	c #A47C28",
"q$	c #A17B2A",
"r$	c #977630",
"s$	c #9B7E41",
"t$	c #94732C",
"u$	c #775F2D",
"v$	c #9B7422",
"w$	c #A77D26",
"x$	c #9F7928",
"y$	c #A37B28",
"z$	c #A97F27",
"A$	c #B28425",
"B$	c #BA8923",
"C$	c #BA8A23",
"D$	c #BD8C22",
"E$	c #C7901D",
"F$	c #CA9420",
"G$	c #A7802E",
"                                                                                                                                ",
"                                                                                                                                ",
"                                                                                                                                ",
"                                                                                                                                ",
"                                                                                                                                ",
"                                                                                                                                ",
"                                                                                                                                ",
"                                                                                                                                ",
"                                                                                                                                ",
"                                                                                                                                ",
"                                                                                                                                ",
"                                                                                                                                ",
"                                                                                                                                ",
"                                                                                                                                ",
"                                                                                                                                ",
"                                                                                                                                ",
"                                                                                                                                ",
"                                                                                                                                ",
"                                                                                                                                ",
"                                                                                                                                ",
"                                                                                                                                ",
"                                                                                                                                ",
"                                                                                                                                ",
"                                                                                                                                ",
"                                                                                                                                ",
"                                                                                                                                ",
"                                                                                                                                ",
"                                                                                                                                ",
"                                                                                                                                ",
"                                                                                                                                ",
"                                                                                                                                ",
"                                                                                                                                ",
"                                                                                                                                ",
"                                                                                                                                ",
"                                                                                                                                ",
"                                                                                                                                ",
"                                                                                                                                ",
"                                                                                                                                ",
"                                                                                                                                ",
"                                                            . + @ # $ %                                                         ",
"                                                  & * = - ; > , ' ' ) ! ~ { ] %                                                 ",
"                                              ^ ) / ( _ : < [ ] } | 1 2 3 4 5 6 7 8 9                                           ",
"                                            8 0 a 7 b c d _ ~ e @ f g h i j k l m g + n                                         ",
"                                        1 ) o p q r s t u v p w c x # y z A B 9 9 C D E F G                                     ",
"                                    H I E J J = K L M N M L O P q Q E R S * T U V 9 W 2 6 -                                     ",
"                                    n ! X Y # E 0 L L L Z `  .R J ..K = +.@.] #.$.%.V V m 6 &.H                                 ",
"                                  H *.Y 6 y # ( =.N -.t o ) w Z ;.( >.,.'.K ).1 $.!.~.%.!.#.{.H H                               ",
"                                H ) 6 I ].: {.^.&.t ' R I /.(._.:.:._.<.].*.{.| [.k ~.$.}.|.1.- K H H                           ",
"                              H ) ].1.2.+ = > = J 3.4.5.[.6.R  .7.8.&.F 9._.w ] 0.a.b.6 c.d.9.<.G K H                           ",
"                              a 2.[ e.y J ' f.I }.g.h.< _ ;.Q i.j.k.l.m.n.~.$ o.3.p.).q.6 {.' r._.s.+ H                         ",
"                            H J ).* Y a ..0 o ].[ { t.! u.v.w.w.v.v.x.n -.K y.z.A.B.} % C.E {.) # D.E.n H                       ",
"                            F.y 1.G.e H.p / = a = p = I.J.a : { K.K.e ~ H.L._.D 5 }.A.M.M.G E E ..*.1 N.[                       ",
"                            O.P.6 Y { n K =.{.( ( ! I.x.E n Q.a + 6 R.h.b.g.6.r.q.S.a.T.U.^ G ! J ! *.M.1.                      ",
"                          H Y h V.G.+ ../ > K >.W.X.>.= ].+ #.}.}.$.B.U T e { < 8 Y.& Z.`.).^ . p + ( + #.                      ",
"                          H 6  +V.< : = / =./ .+++=.F ! ).@+# z # + n ' E : @ g #+$+& d.~.%+].a.U.+ a ]. +                      ",
"                          a ).&+[ f : *./ ; -.,.m.> } U.B.*+f e n I =+-+r u.# * V.;+% ^ >+~.F.T ,+).X a 6                       ",
"                          : } 8 #+I + *./ '+^.O.`.y )+i y $.!+~+{+)+]+- ^+/+(+f Y U._+:+<+[+}+|+$.1+6 X +                       ",
"                          n q.q.} [ ]...n.&.^.^.( L.2+i 3+h.4+V.5+@.K.6+]+{.! 7 S 7+}+8+[+:.9+a , . [ 6                         ",
"                          { *+U.G 7+2.= - O.^.- h.V $.& X E ..I ;.) S = 0++ *.*._ V.a+b+^ B.).c+F } [ P.                        ",
"                          ) z.A.q.P.I ..=.^.d+m.y e+f+[+X n X I y Q o / {.u.n ! E Y ;+L.g.S.!.+ 2.h.P.y                         ",
"                          ' G *+U.h.6 E 8.g+`.&.4.y.h+i+#.n # j+k+l+m+n+c .+K 8.K a @.&++ 8 : ].= E # H                         ",
"                          a [ A.A.h.3+..o &.O.o+<.p+q+r+s+Y E t+u+v+w+x+y+K ' 8.o O ! + ) z+2.d.;+O.,.                          ",
"                          a I 8 A.8 )+H.( ++'+O.A+B+C+D+E+a.F+G+H+I+J+K+L+t.{ J p > &.m.M+N+2+O+{ ++                            ",
"                          1+{  +A.q.[ *.p o f.> g.P+Q+P+R+S+T+U+V+W+X+Y+Z+`+ @.@+@%+@@#@$@%@S+E.8 ;                             ",
"                            E  +U.q.6 ) K - / - i &@P+*@=@D+-@;@>@,@'@)@!@~@{@]@^@/@(@_@:@<@[@Q+, %+                            ",
"                            I P.8 q.).J F -.F : }@|@1@2@3@4@=@5@6@7@8@9@0@a@b@c@d@e@f@g@h@2@i@j@'.                              ",
"                            $ X h.G 7+Y ' o+f.>.o k@p+l@2@m@1@n@o@p@q@r@s@t@u@v@w@x@y@z@A@B@C@Y.^.                              ",
"                              ) + )+ +P.{ - f.! ,.b.D@E@F@G@H@p+I@J@K@L@M@N@O@P@Q@R@S@T@U@i@q+a V@                              ",
"                              4+0 >.3+[ 3+..F ( a O.q.D@3@F@B@W@P+X@Y@Z@`@ #.#+#@###$#%#B@&#,+8.                                ",
"                              2.9.{.o n ].: ++! I [ ; _.*#=#-#i@3@&#;#>#,#'#)#!#~#{#]#^#A@/#E n.                                ",
"                            H ^.7+& ) > 8.n.' 2.p G Y G (#_#:#[@=#C@<#[#}#|#1#2#3#4#5#O+h+2+)                                   ",
"                          H H F.'.: % a+) ..]. +i p.6# +7+7#*#W@G@8#9#-#0#a#b#c#d#G@p+B.a.n a                                   ",
"                        H H H H ++m.) p =.y ].. p.e#f#^ g#).A+h#i#i@i@m@B@8#B@G@3@j#k#).l#o+                                    ",
"                      H H H H H H J ++H.T.m#n#o#p#q#r#s#t#u#v#w#x#y#z#A#,+V U B#C#D#E#F#G#H#I#                                  ",
"                    H H H H H H H H a J#K#L#M#N#O#P#Q#R#S#T#U#V#W#X#Y#Z#`# $.$+$@$#$$$%$&$*$=$-$                                ",
"                      H H H H H H H ;$>$,$'$)$!$~${$]$^$/$($_$:$<$[$}$|$1$2$3$4$>$5$6$7$8$9$0$a$b$                              ",
"                                H c$d$e$O#f$g$h$i$j$k$l$m$n$o$p$q$r$s$t$u$v$w$x$y$z$A$B$C$D$E$F$G$                              ",
"                                                                                                                                ",
"                                                                                                                                ",
"                                                                                                                                "};
