/* XPM */
static xpm_row_t const tux_duckb_xpm[] = {
"64 80 532 2",
"  	c None",
". 	c #666666",
"+ 	c #545454",
"@ 	c #313131",
"# 	c #323131",
"$ 	c #303030",
"% 	c #4A4A4A",
"& 	c #403F3F",
"* 	c #2F2F2F",
"= 	c #2F2E2E",
"- 	c #252525",
"; 	c #222222",
"> 	c #1E1E1E",
", 	c #151515",
"' 	c #121212",
") 	c #0F0F0F",
"! 	c #181818",
"~ 	c #262626",
"{ 	c #3A3939",
"] 	c #676767",
"^ 	c #696969",
"/ 	c #444444",
"( 	c #2D2C2C",
"_ 	c #383838",
": 	c #464545",
"< 	c #565555",
"[ 	c #595858",
"} 	c #555454",
"| 	c #515151",
"1 	c #484747",
"2 	c #414141",
"3 	c #3C3C3C",
"4 	c #343333",
"5 	c #2E2E2E",
"6 	c #2B2A2A",
"7 	c #232323",
"8 	c #1A1A1A",
"9 	c #747474",
"0 	c #292929",
"a 	c #3D3C3C",
"b 	c #575656",
"c 	c #646363",
"d 	c #686767",
"e 	c #5E5D5D",
"f 	c #4F4F4F",
"g 	c #434242",
"h 	c #363535",
"i 	c #313030",
"j 	c #262525",
"k 	c #292828",
"l 	c #2E2D2D",
"m 	c #2D2D2D",
"n 	c #1D1D1D",
"o 	c #434343",
"p 	c #131313",
"q 	c #282828",
"r 	c #4A4949",
"s 	c #605F5F",
"t 	c #626161",
"u 	c #4D4C4C",
"v 	c #3E3D3D",
"w 	c #343434",
"x 	c #2C2B2B",
"y 	c #282727",
"z 	c #242424",
"A 	c #1E1D1D",
"B 	c #161515",
"C 	c #151414",
"D 	c #1A1919",
"E 	c #232222",
"F 	c #222121",
"G 	c #1B1B1B",
"H 	c #656464",
"I 	c #656565",
"J 	c #5C5C5C",
"K 	c #4C4C4C",
"L 	c #302F2F",
"M 	c #2A2929",
"N 	c #252424",
"O 	c #212020",
"P 	c #1F1E1E",
"Q 	c #191818",
"R 	c #141313",
"S 	c #111010",
"T 	c #1F1F1F",
"U 	c #2B2B2B",
"V 	c #393939",
"W 	c #000000",
"X 	c #0A0A0A",
"Y 	c #636363",
"Z 	c #5F5F5F",
"` 	c #535353",
" .	c #383737",
"..	c #333232",
"+.	c #272727",
"@.	c #272626",
"#.	c #262625",
"$.	c #201F1F",
"%.	c #353535",
"&.	c #323232",
"*.	c #202020",
"=.	c #646464",
"-.	c #626262",
";.	c #3D3D3D",
">.	c #080808",
",.	c #111111",
"'.	c #212121",
").	c #242323",
"!.	c #0E0E0E",
"~.	c #141414",
"{.	c #2A2A2A",
"].	c #3A3A3A",
"^.	c #505050",
"/.	c #5A5A5A",
"(.	c #5A5959",
"_.	c #333333",
":.	c #808080",
"<.	c #838383",
"[.	c #828282",
"}.	c #7D7D7D",
"|.	c #535252",
"1.	c #050505",
"2.	c #737373",
"3.	c #767676",
"4.	c #717171",
"5.	c #525252",
"6.	c #6A6A6A",
"7.	c #616060",
"8.	c #161616",
"9.	c #1C1B1B",
"0.	c #424141",
"a.	c #6E6D6D",
"b.	c #707070",
"c.	c #4B4A4A",
"d.	c #363636",
"e.	c #858585",
"f.	c #373636",
"g.	c #454545",
"h.	c #686868",
"i.	c #414040",
"j.	c #1C1C1C",
"k.	c #0C0C0C",
"l.	c #1F1E1D",
"m.	c #21201F",
"n.	c #232221",
"o.	c #222120",
"p.	c #404040",
"q.	c #595959",
"r.	c #171717",
"s.	c #3B3B3A",
"t.	c #9E9E9E",
"u.	c #585858",
"v.	c #313130",
"w.	c #5E5E5E",
"x.	c #474747",
"y.	c #474646",
"z.	c #989898",
"A.	c #292928",
"B.	c #2A2928",
"C.	c #2B2A29",
"D.	c #272726",
"E.	c #282726",
"F.	c #8B8B8B",
"G.	c #4E4E4E",
"H.	c #616161",
"I.	c #2C2C2C",
"J.	c #30302F",
"K.	c #2C2C2B",
"L.	c #282827",
"M.	c #353434",
"N.	c #010101",
"O.	c #464646",
"P.	c #323231",
"Q.	c #4F4E4E",
"R.	c #3C3B3B",
"S.	c #2B2B2A",
"T.	c #3F3F3F",
"U.	c #070707",
"V.	c #060606",
"W.	c #5D5D5C",
"X.	c #565656",
"Y.	c #242423",
"Z.	c #232322",
"`.	c #3B3A3A",
" +	c #424242",
".+	c #020202",
"++	c #504F4F",
"@+	c #3F3E3E",
"#+	c #5C5C5B",
"$+	c #191919",
"%+	c #1F1F1E",
"&+	c #6B6B6B",
"*+	c #7B7B7B",
"=+	c #4D4D4D",
"-+	c #191918",
";+	c #20201F",
">+	c #484848",
",+	c #444343",
"'+	c #494949",
")+	c #0B0B0B",
"!+	c #5B5B5B",
"~+	c #797979",
"{+	c #7E7E7E",
"]+	c #7E7D7D",
"^+	c #606060",
"/+	c #2A2A29",
"(+	c #1B1A1A",
"_+	c #171716",
":+	c #1E1E1D",
"<+	c #3B3B3B",
"[+	c #3E3D3C",
"}+	c #3F3F3E",
"|+	c #555554",
"1+	c #0D0D0D",
"2+	c #6A6969",
"3+	c #7A7A7A",
"4+	c #3E3E3E",
"5+	c #1A1A19",
"6+	c #252524",
"7+	c #6F6F6F",
"8+	c #373737",
"9+	c #575757",
"0+	c #3C3C3B",
"a+	c #6C6C6B",
"b+	c #555555",
"c+	c #2D2D2C",
"d+	c #8D8D8D",
"e+	c #7C7C7C",
"f+	c #040404",
"g+	c #2E2E2C",
"h+	c #3A3932",
"i+	c #3E3B35",
"j+	c #383633",
"k+	c #1D1C1C",
"l+	c #C5C5C5",
"m+	c #A4A4A4",
"n+	c #090909",
"o+	c #181817",
"p+	c #1D1C19",
"q+	c #181611",
"r+	c #121009",
"s+	c #080703",
"t+	c #0C0A07",
"u+	c #2C2B29",
"v+	c #727272",
"w+	c #C4C4C4",
"x+	c #BCBCBC",
"y+	c #C6C6C6",
"z+	c #101010",
"A+	c #DBDBDB",
"B+	c #31302D",
"C+	c #29200E",
"D+	c #11100C",
"E+	c #110F09",
"F+	c #0F0C08",
"G+	c #2D2514",
"H+	c #3B311B",
"I+	c #5E4E2E",
"J+	c #32302B",
"K+	c #A2A2A2",
"L+	c #C9C9C9",
"M+	c #C3C3C3",
"N+	c #C7C7C7",
"O+	c #777777",
"P+	c #B4B4B4",
"Q+	c #B1AD9A",
"R+	c #947D24",
"S+	c #85620B",
"T+	c #130E02",
"U+	c #070605",
"V+	c #0C0C09",
"W+	c #171612",
"X+	c #13110C",
"Y+	c #1E180E",
"Z+	c #2A1F09",
"`+	c #523D11",
" @	c #342810",
".@	c #594214",
"+@	c #574217",
"@@	c #5F5E5D",
"#@	c #CDCDCD",
"$@	c #D1D1D1",
"%@	c #CACACA",
"&@	c #F4F4F4",
"*@	c #CCCCC8",
"=@	c #D3BA51",
"-@	c #D2B121",
";@	c #996C0D",
">@	c #8C733B",
",@	c #564013",
"'@	c #372A0B",
")@	c #443310",
"!@	c #58410F",
"~@	c #6E5010",
"{@	c #6C4C09",
"]@	c #65490C",
"^@	c #533E12",
"/@	c #776848",
"(@	c #8B7F65",
"_@	c #BABABA",
":@	c #CECECE",
"<@	c #DFDFDF",
"[@	c #CCCCCC",
"}@	c #B7B7B7",
"|@	c #E9E9E9",
"1@	c #ECECEC",
"2@	c #DDD3B0",
"3@	c #ECCB27",
"4@	c #CDA519",
"5@	c #D7B65B",
"6@	c #D5B366",
"7@	c #D8B567",
"8@	c #D2A23D",
"9@	c #B67D03",
"0@	c #AB7606",
"a@	c #8A620C",
"b@	c #5B4312",
"c@	c #5C4E2F",
"d@	c #7B725D",
"e@	c #BEBCB8",
"f@	c #CFCFCF",
"g@	c #E2E2E2",
"h@	c #CBCBCB",
"i@	c #BBBBBB",
"j@	c #4B4B4B",
"k@	c #E4E4E4",
"l@	c #F5F5F5",
"m@	c #E1E1E1",
"n@	c #D4B633",
"o@	c #ECCA27",
"p@	c #EEC928",
"q@	c #F6D64B",
"r@	c #E9C557",
"s@	c #C4993B",
"t@	c #C68A08",
"u@	c #B27B07",
"v@	c #92680F",
"w@	c #625028",
"x@	c #5C5138",
"y@	c #BEBDBA",
"z@	c #B9B9B9",
"A@	c #F1F1F1",
"B@	c #DEDEDE",
"C@	c #919191",
"D@	c #030303",
"E@	c #EFEFEF",
"F@	c #C6BB97",
"G@	c #EFCD29",
"H@	c #EAC625",
"I@	c #E8C643",
"J@	c #E8CB75",
"K@	c #DDAD47",
"L@	c #E7AA29",
"M@	c #F1B124",
"N@	c #806323",
"O@	c #5B4E32",
"P@	c #878172",
"Q@	c #C0C0C0",
"R@	c #EDEDED",
"S@	c #F0F0F0",
"T@	c #E8E8E8",
"U@	c #D0D0D0",
"V@	c #B1B1B1",
"W@	c #D4D4D4",
"X@	c #E6E6E6",
"Y@	c #C0A52A",
"Z@	c #F6D429",
"`@	c #DDBE38",
" #	c #E0C577",
".#	c #EFD5A1",
"+#	c #F1C871",
"@#	c #A7812F",
"##	c #65542F",
"$#	c #6D6147",
"%#	c #C5C4C1",
"&#	c #E3E3E3",
"*#	c #A6A6A6",
"=#	c #F1F0F0",
"-#	c #BCB8AC",
";#	c #CAAE31",
">#	c #F5D229",
",#	c #DCB426",
"'#	c #C59724",
")#	c #A57816",
"!#	c #7D6023",
"~#	c #6C5B38",
"{#	c #BDBCBC",
"]#	c #F9F9F9",
"^#	c #E7E7E7",
"/#	c #B5B5B5",
"(#	c #E3E1DA",
"_#	c #C4C0B5",
":#	c #D2B434",
"<#	c #DCBA26",
"[#	c #C5A221",
"}#	c #826A21",
"|#	c #5D5239",
"1#	c #CFCECC",
"2#	c #D7D7D7",
"3#	c #EEEEEE",
"4#	c #C2C2C2",
"5#	c #9A9A9A",
"6#	c #F7F5EF",
"7#	c #F9F7F2",
"8#	c #F6F5F0",
"9#	c #F2F1EF",
"0#	c #F7F7F6",
"a#	c #FAFAFA",
"b#	c #F7F7F7",
"c#	c #868686",
"d#	c #6E6E6E",
"e#	c #151412",
"f#	c #9F9F9F",
"g#	c #D2D2D2",
"h#	c #C6C2BC",
"i#	c #BFBFBF",
"j#	c #6C6C6C",
"k#	c #818181",
"l#	c #767575",
"m#	c #60543A",
"n#	c #8C7D5C",
"o#	c #968158",
"p#	c #8D6B21",
"q#	c #56492D",
"r#	c #5A5750",
"s#	c #48443E",
"t#	c #5D5C5C",
"u#	c #8B8A8A",
"v#	c #6F6A5F",
"w#	c #C59735",
"x#	c #BD9540",
"y#	c #AF8428",
"z#	c #A67F29",
"A#	c #AF852A",
"B#	c #B08426",
"C#	c #A38137",
"D#	c #816B3B",
"E#	c #806C41",
"F#	c #877349",
"G#	c #646360",
"H#	c #5B5A58",
"I#	c #393836",
"J#	c #A37D2D",
"K#	c #D7AD50",
"L#	c #EDC87A",
"M#	c #EBBF61",
"N#	c #D6A53A",
"O#	c #C4942B",
"P#	c #B58726",
"Q#	c #AC8228",
"R#	c #A37E32",
"S#	c #7B683E",
"T#	c #534A38",
"U#	c #464034",
"V#	c #725C2E",
"W#	c #DEA327",
"X#	c #F5D185",
"Y#	c #F7DCA3",
"Z#	c #F0C260",
"`#	c #E3AA33",
" $	c #E0A11A",
".$	c #C59020",
"+$	c #B48625",
"@$	c #AD8226",
"#$	c #AF8326",
"$$	c #B98820",
"%$	c #9C741F",
"&$	c #8E691C",
"*$	c #5E4819",
"=$	c #3E341F",
"-$	c #201F1C",
";$	c #A99363",
">$	c #DAB463",
",$	c #F5D48D",
"'$	c #F6C55D",
")$	c #EEAE23",
"!$	c #E5A519",
"~$	c #D09619",
"{$	c #C38E1E",
"]$	c #B68724",
"^$	c #AD8227",
"/$	c #B18528",
"($	c #A68030",
"_$	c #624E26",
":$	c #C09331",
"<$	c #F5D38A",
"[$	c #F8E1B0",
"}$	c #F6CB72",
"|$	c #F4B734",
"1$	c #EFAE22",
"2$	c #EBA714",
"3$	c #DE9E15",
"4$	c #CD941A",
"5$	c #C28D1F",
"6$	c #BB8A22",
"7$	c #A87F29",
"8$	c #A67E2A",
"9$	c #A47D2A",
"0$	c #AA8027",
"a$	c #B48624",
"b$	c #573E07",
"c$	c #A7802E",
"d$	c #CA9420",
"e$	c #C7901D",
"f$	c #BD8C22",
"g$	c #BA8A23",
"h$	c #BA8923",
"i$	c #B28425",
"j$	c #A97F27",
"k$	c #A37B28",
"l$	c #9F7928",
"m$	c #A77D26",
"n$	c #9B7422",
"o$	c #775F2D",
"p$	c #94732C",
"q$	c #9B7E41",
"r$	c #977630",
"s$	c #A17B2A",
"t$	c #A47C28",
"u$	c #A07927",
"v$	c #A07928",
"w$	c #A17A26",
"x$	c #A37B26",
"y$	c #A17926",
"z$	c #A17823",
"A$	c #9E7724",
"B$	c #9F7722",
"C$	c #A27820",
"D$	c #AD7F1F",
"E$	c #AF8121",
"F$	c #7C580A",
"G$	c #402D05",
"                                                                                                                                ",
"                                                                                                                                ",
"                                                                                                                                ",
"                                                                                                                                ",
"                                                                                                                                ",
"                                                                                                                                ",
"                                                                                                                                ",
"                                                                                                                                ",
"                                                                                                                                ",
"                                                                                                                                ",
"                                                                                                                                ",
"                                                                                                                                ",
"                                                                                                                                ",
"                                                                                                                                ",
"                                                                                                                                ",
"                                                                                                                                ",
"                                                                                                                                ",
"                                                                                                                                ",
"                                                                                                                                ",
"                                                                                                                                ",
"                                                                                                                                ",
"                                                                                                                                ",
"                                                                                                                                ",
"                                                                                                                                ",
"                                                                                                                                ",
"                                                                                                                                ",
"                                                                                                                                ",
"                                                                                                                                ",
"                                                                                                                                ",
"                                                                                                                                ",
"                                                                                                                                ",
"                                                                                                                                ",
"                                                                                                                                ",
"                                                                                                                                ",
"                                                                                                                                ",
"                                                                                                                                ",
"                                                                                                                                ",
"                                                                                                                                ",
"                                                                                                                                ",
"                                                        . + @ # $ %                                                             ",
"                                                . & * = - ; > > , ' ) ! ~ { ]                                                   ",
"                                          ^ / ( _ : < [ } | 1 2 & 3 4 5 6 7 8 ; 9                                               ",
"                                        0 $ a b c d e f g a h # i = 6 j k l ( m n /                                             ",
"                                    o p q r s ^ ^ t u v w @ x k y z A B C D E F z G ; |                                         ",
"                                    ! _ } H ^ I J K { L M q N F O P Q R S R Q T ~ U U q V W                                     ",
"                                W X _ b I I Y Z ` &  ...~ T +.U M @.#.$.Q Q Q n q @ %.&.- 0                                     ",
"                              W W *.` =.Y -.=.Z | ;.T >.,.'.7 ).$.y ; G C !.S ~.7 @ w _ %.{.W                                   ",
"                          W W T ! ].^./.Z -.d (.1 *.{._.:.<.[.[.<.}.|.V M > C X 1.*.5 _.V _ ; W                                 ",
"                          W T o :.2.3.4._ 5.6.7.& y <.2.p X 8.9.@.M 0.(.a.b.c.U ~ ' ~ $ d.]._.; W                               ",
"                        W $ e.<.f.> *._ g.;.h.c.i.+ -.j.k.l.m.n.o.N ).6 4 p.q./.V r.> U w s.3 d.m                               ",
"                      W 0 t.u.@ ; *.q v.. 2 w.x.y.z.T !.0 A.B.B.C.C.B.D.- E.* 3 _.G n +.m %.{ ;.U W                             ",
"                      3 F.| {.+.q q o G.G.x./.: r <.H.I.= i J.J.* 5 m K.L.~ z ~ m ~ 8 z I.i M.].w N.                            ",
"                      ].G.{.- U - o 9 O.P.6.Q.g.f.0.q.5.p.R._ $ m S.0 q A.L.- 7 7 *.~.T 0 * %._ T.U.                            ",
"                      ` $ 7 $ z % 9 ;.V.W.] X./ 4 * i K J w.Z /./.` $ _.~ '.Y.Z.'.T ' 8 +.$ M.`.g %.W                           ",
"                       +_.m $ O.6._..+-.3.] ++@+a # 5 q > 0 $ @ v @ #+;.- p ~.$+%+8 ~.8 ~ 5 4 `. +_ W                           ",
"                      _ m &.;.&+K N.-.*+9 . =+`.{ @ D.E -+;+V 0 i h >+w.O.2 ' k.,.!.) 8 {.5 h 3 ,+;.m                           ",
"                      $ &._ '+Z )+!+~+{+]+^+O.%.h /+(+_+! :+<+[+}+|+Z w f <+w V.U.1.1+8 {.$ V @+/ 2 5                           ",
"                        _ 3 % , m 2+[.~+3+!+4+L ( - *.:+5+J. .6+`.7+p.8+f 9+H.7 1.1.X j.+._.3 2 g.g.0                           ",
"                        T.3 2 p 0+;.w.9 a+b+`.6 {.{.$ c+~ L ; ).V +.q &.] Z I p.! 1.U.! ~ d.4+o O.>+*                           ",
"                        w T.p.d.$ =.Q.q.H.=+%.q - 0 D.*.8 G N w V &.0 &.~+d+e+w k.f+1.~.+.V T.g.x.y.;                           ",
"                        W @ q ~ _.5 / $ ,+ .m T 8.T %+k g+h+i+j+k+@ 0 ` l+m+z.b.X V.n+8.q _ p.O.>+o >                           ",
"                          ,.U.=+3.d.o+; $ - P G 8.> T p+q+r+s+t+u+q %.v+w+x+y+:.z+U.X G +.8+p.x.x.3 m                           ",
"                            $+* A+9+B+C+k.X ' z U * E.D+E+F+G+H+I+J+6.K+L+M+N+O+U.1+$+7 I.<+/ x./ V m                           ",
"                            ) / t.P+Q+R+S+T+.+U+V+W+X+Y+Z+`+ @.@+@@@P+#@$@%@$@q.' r.G z {.3 g.x. +* '+                          ",
"                            .+, %@&@*@=@-@;@>@,@'@)@!@~@{@]@^@/@(@_@L+:@<@$@[@f ! 8 ! T ; _ g.O. +q                             ",
"                              >.}@|@1@2@3@4@5@6@7@8@9@0@a@b@c@d@e@:@f@g@1@h@i@j@5 p !.p U ;.g./ T.V                             ",
"                              1.X.k@l@m@n@o@p@q@r@s@t@u@v@w@x@y@z@h@A@1@B@y+C@G '.r.z+> %.4+o p.&.+                             ",
"                              D@m x+|@E@F@G@H@I@J@K@L@M@N@O@P@Q@y+R@S@T@U@V@5.,.- r.! * T. +<+$ ;                               ",
"                                8.&+W@l@X@Y@Z@`@ #.#+#@###$#%#$@&#l@T@g@V@g.U.m 7 p +.8+3 8+'.n 7+                              ",
"                                j.q *#m@=#-#;#>#,#'#)#!#~#{#W@g@|@]#^#/#<.) 3 V - $+5 _.0 G *.2.d.                              ",
"                                  ; 9+m+A+(#_#:#<#[#}#|#1#2#k@^#&@3#4#5#o %.o z d.> j.8.' ; ] 4+1.W                             ",
"                                  m 0 6.w.y+S@6#7#8#9#0#]#a#b#S@&#/#c#4+ +d#h.f  +_.+.; b+. 5 >.N.W W                           ",
"                                    z+e#;.f#g#g@S@l@b#l@A@|@|@h#i#O+;.j#9 k#l#h.% _.w ~.z ; k.$+W W W W                         ",
"                                  m#n#o#p#q#r#s#t#J I &+u#v#w#x#y#z#A#B#C#D#E#F#G#H#I#P.I.$+U W W W W W W                       ",
"                                J#K#L#M#N#O#P#Q#R#S#T#U#V#W#X#Y#Z#`# $.$+$@$#$$$%$&$*$=$-$m W W W W W W W W                     ",
"                              ;$>$,$'$)$!$~${$]$^$/$($_$:$<$[$}$|$1$2$3$4$5$6$7$8$9$0$a$]$b$W W W W W W W                       ",
"                              c$d$e$f$g$h$i$j$k$l$m$n$o$p$q$r$s$t$u$v$w$x$y$z$A$B$C$D$$$E$F$G$W                                 ",
"                                                                                                                                ",
"                                                                                                                                ",
"                                                                                                                                "};
