/* XPM */
static xpm_row_t const tux_jumpb_xpm[] = {
"64 80 459 2",
"  	c None",
". 	c #010101",
"+ 	c #030303",
"@ 	c #060606",
"# 	c #090909",
"$ 	c #0B0B0B",
"% 	c #080808",
"& 	c #131313",
"* 	c #1D1D1D",
"= 	c #222222",
"- 	c #272727",
"; 	c #252525",
"> 	c #1E1E1E",
", 	c #1B1B1B",
"' 	c #181818",
") 	c #0F0F0F",
"! 	c #1C1C1C",
"~ 	c #353535",
"{ 	c #404040",
"] 	c #424242",
"^ 	c #494949",
"/ 	c #4B4B4B",
"( 	c #4F4F4F",
"_ 	c #484848",
": 	c #444444",
"< 	c #3B3B3B",
"[ 	c #2B2B2B",
"} 	c #191919",
"| 	c #141414",
"1 	c #292929",
"2 	c #3D3D3D",
"3 	c #3F3F3F",
"4 	c #454545",
"5 	c #464646",
"6 	c #4D4D4D",
"7 	c #555555",
"8 	c #525252",
"9 	c #333333",
"0 	c #070707",
"a 	c #2D2D2D",
"b 	c #393939",
"c 	c #383838",
"d 	c #585858",
"e 	c #575757",
"f 	c #434343",
"g 	c #171717",
"h 	c #040404",
"i 	c #323232",
"j 	c #313131",
"k 	c #414141",
"l 	c #4A4A4A",
"m 	c #515151",
"n 	c #565656",
"o 	c #5A5A5A",
"p 	c #363636",
"q 	c #282828",
"r 	c #151515",
"s 	c #020202",
"t 	c #0D0D0D",
"u 	c #838383",
"v 	c #707070",
"w 	c #3A3A3A",
"x 	c #545454",
"y 	c #2C2C2C",
"z 	c #6D6D6D",
"A 	c #DEDEDE",
"B 	c #DBDBDB",
"C 	c #CBCBCB",
"D 	c #979797",
"E 	c #373737",
"F 	c #535353",
"G 	c #343434",
"H 	c #161616",
"I 	c #000000",
"J 	c #929292",
"K 	c #B7B7B7",
"L 	c #D2D2D2",
"M 	c #E4E4E4",
"N 	c #5C5C5C",
"O 	c #2E2E2E",
"P 	c #636363",
"Q 	c #F3F3F3",
"R 	c #EDEDED",
"S 	c #727272",
"T 	c #4C4C4C",
"U 	c #505050",
"V 	c #0E0E0E",
"W 	c #1F1F1F",
"X 	c #DCDCDC",
"Y 	c #F6F6F6",
"Z 	c #7A7A7A",
"` 	c #303030",
" .	c #050505",
"..	c #0A0A0A",
"+.	c #281F0B",
"@.	c #261F08",
"#.	c #322717",
"$.	c #4E4033",
"%.	c #322D28",
"&.	c #212120",
"*.	c #C5C5C5",
"=.	c #9F9F9F",
"-.	c #595959",
";.	c #5B5B5B",
">.	c #040302",
",.	c #0C0900",
"'.	c #1D1C00",
").	c #2F2F00",
"!.	c #7B7305",
"~.	c #B49B1B",
"{.	c #D5B921",
"].	c #E7C625",
"^.	c #EECD27",
"/.	c #D5A63E",
"(.	c #835E3A",
"_.	c #322920",
":.	c #565553",
"<.	c #3C3C3C",
"[.	c #5F5F5F",
"}.	c #151311",
"|.	c #2D2013",
"1.	c #593D21",
"2.	c #A7822C",
"3.	c #E1C71D",
"4.	c #F5DF16",
"5.	c #FBE01D",
"6.	c #FCDC25",
"7.	c #FDD92A",
"8.	c #FDDA29",
"9.	c #FCDB26",
"0.	c #FCD72B",
"a.	c #F0BA45",
"b.	c #B07C4A",
"c.	c #685847",
"d.	c #5E5E5E",
"e.	c #2F2F2F",
"f.	c #120F0D",
"g.	c #573E25",
"h.	c #D69452",
"i.	c #F3B846",
"j.	c #FBC541",
"k.	c #FBBF48",
"l.	c #FBAF5A",
"m.	c #FAAC60",
"n.	c #F9AC60",
"o.	c #FAAE5D",
"p.	c #F9BF47",
"q.	c #F6B84B",
"r.	c #EBAC50",
"s.	c #E09C58",
"t.	c #886645",
"u.	c #2F2C29",
"v.	c #2A2A2A",
"w.	c #12100F",
"x.	c #392A1C",
"y.	c #6D4D2B",
"z.	c #956639",
"A.	c #B27B44",
"B.	c #C4874B",
"C.	c #CC8E4F",
"D.	c #CE8F50",
"E.	c #CB8D50",
"F.	c #CA8E4C",
"G.	c #CB9049",
"H.	c #BF8649",
"I.	c #B17A46",
"J.	c #B77F4A",
"K.	c #795E44",
"L.	c #2A2828",
"M.	c #4E4E4E",
"N.	c #141313",
"O.	c #1C1813",
"P.	c #161513",
"Q.	c #130F0C",
"R.	c #1A130D",
"S.	c #352615",
"T.	c #553B23",
"U.	c #7D5731",
"V.	c #9D6C3D",
"W.	c #B17A45",
"X.	c #AE7945",
"Y.	c #AC7745",
"Z.	c #B17D4A",
"`.	c #6D553E",
" +	c #272523",
".+	c #262626",
"++	c #100F0F",
"@+	c #0C0B0B",
"#+	c #39352E",
"$+	c #3B342C",
"%+	c #2B231D",
"&+	c #242220",
"*+	c #202020",
"=+	c #474747",
"-+	c #3E3E3E",
";+	c #232323",
">+	c #0C0C0C",
",+	c #212121",
"'+	c #242424",
")+	c #101010",
"!+	c #1A1A1A",
"~+	c #111111",
"{+	c #5D5D5D",
"]+	c #656565",
"^+	c #121212",
"/+	c #999999",
"(+	c #BCBCBC",
"_+	c #676767",
":+	c #F5F5F5",
"<+	c #ACACAC",
"[+	c #F9F9F9",
"}+	c #FCFCFC",
"|+	c #E0E0E0",
"1+	c #7D7D7D",
"2+	c #666666",
"3+	c #D8D8D8",
"4+	c #FEFEFE",
"5+	c #FDFDFD",
"6+	c #ECECEC",
"7+	c #989898",
"8+	c #A5A5A5",
"9+	c #B8B8B8",
"0+	c #A0A0A0",
"a+	c #DDDDDD",
"b+	c #FBFBFB",
"c+	c #FFFFFF",
"d+	c #D5D5D5",
"e+	c #6C6C6C",
"f+	c #747474",
"g+	c #BBBBBB",
"h+	c #D9D9D9",
"i+	c #E3E3E3",
"j+	c #878787",
"k+	c #F1F1F1",
"l+	c #E9E9E9",
"m+	c #949494",
"n+	c #9E9E9E",
"o+	c #F4F4F4",
"p+	c #E8E8E8",
"q+	c #919191",
"r+	c #737373",
"s+	c #D0D0D0",
"t+	c #FAFAFA",
"u+	c #F7F7F7",
"v+	c #868686",
"w+	c #757575",
"x+	c #7E7E7E",
"y+	c #626262",
"z+	c #A2A2A2",
"A+	c #E5E5E5",
"B+	c #B1B1B1",
"C+	c #7B7B7B",
"D+	c #6B6B6B",
"E+	c #E6E6E6",
"F+	c #6E6E6E",
"G+	c #BFBFBF",
"H+	c #E2E2E2",
"I+	c #C9C9C9",
"J+	c #939393",
"K+	c #717171",
"L+	c #6A6A6A",
"M+	c #49381C",
"N+	c #796331",
"O+	c #47311A",
"P+	c #C4C4C4",
"Q+	c #E1E1E1",
"R+	c #EFEFEF",
"S+	c #A4A4A4",
"T+	c #6A532A",
"U+	c #DDBA5B",
"V+	c #856633",
"W+	c #463119",
"X+	c #C0C0C0",
"Y+	c #2E2210",
"Z+	c #D6AF57",
"`+	c #EACD65",
" @	c #AE8E45",
".@	c #523D1E",
"+@	c #251B0D",
"@@	c #D9B459",
"#@	c #EACD64",
"$@	c #E8D165",
"%@	c #654D26",
"&@	c #342613",
"*@	c #2F2512",
"=@	c #D7AF57",
"-@	c #E8C761",
";@	c #F2DC6C",
">@	c #856C37",
",@	c #322513",
"'@	c #686868",
")@	c #767676",
"!@	c #C8A351",
"~@	c #E6C35E",
"{@	c #F1D766",
"]@	c #E1C159",
"^@	c #302213",
"/@	c #6F6F6F",
"(@	c #040403",
"_@	c #0D0C09",
":@	c #9C7F3F",
"<@	c #D3A453",
"[@	c #EECB62",
"}@	c #EDC15B",
"|@	c #AD8853",
"1@	c #010000",
"2@	c #060503",
"3@	c #0B0A05",
"4@	c #1D1A0E",
"5@	c #231B0D",
"6@	c #503A1D",
"7@	c #684D26",
"8@	c #CDA150",
"9@	c #E8B75D",
"0@	c #F0C45E",
"a@	c #CFA25A",
"b@	c #423D37",
"c@	c #110E07",
"d@	c #221F0C",
"e@	c #26220F",
"f@	c #533E20",
"g@	c #462F1A",
"h@	c #3F2B17",
"i@	c #1A130A",
"j@	c #A88141",
"k@	c #E6B45B",
"l@	c #EEB95A",
"m@	c #DDB15C",
"n@	c #826D49",
"o@	c #1F1A0E",
"p@	c #3A3318",
"q@	c #604C26",
"r@	c #5F4023",
"s@	c #50371D",
"t@	c #3A2816",
"u@	c #805F30",
"v@	c #D19C51",
"w@	c #E8B65C",
"x@	c #E8BD61",
"y@	c #CFA85B",
"z@	c #0D0C07",
"A@	c #26200E",
"B@	c #A07D3D",
"C@	c #A5733E",
"D@	c #815A31",
"E@	c #573D1E",
"F@	c #422E18",
"G@	c #29210F",
"H@	c #BE8B47",
"I@	c #DDA556",
"J@	c #E1A858",
"K@	c #D7A758",
"L@	c #554C33",
"M@	c #030302",
"N@	c #1C190A",
"O@	c #846A34",
"P@	c #BC8548",
"Q@	c #B17C44",
"R@	c #896031",
"S@	c #493318",
"T@	c #624824",
"U@	c #BE8A47",
"V@	c #DBA155",
"W@	c #CE9C51",
"X@	c #B27D44",
"Y@	c #18130F",
"Z@	c #866C35",
"`@	c #C48C4C",
" #	c #C0884A",
".#	c #BE8547",
"+#	c #6B4C23",
"@#	c #2B1D0E",
"##	c #322313",
"$#	c #9F733C",
"%#	c #CF9850",
"&#	c #C5924B",
"*#	c #B68146",
"=#	c #19160B",
"-#	c #403819",
";#	c #D29951",
">#	c #DA9F55",
",#	c #C18945",
"'#	c #A77739",
")#	c #443217",
"!#	c #432F18",
"~#	c #C2904C",
"{#	c #C9964E",
"]#	c #BA8548",
"^#	c #8A6836",
"/#	c #21180E",
"(#	c #1A1815",
"_#	c #161412",
":#	c #131210",
"<#	c #121110",
"[#	c #4F431C",
"}#	c #DCA853",
"|#	c #E3AB59",
"1#	c #D0954B",
"2#	c #B98540",
"3#	c #5B411F",
"4#	c #48331B",
"5#	c #8E6937",
"6#	c #8E6637",
"7#	c #815931",
"8#	c #5B4626",
"9#	c #363027",
"0#	c #362C16",
"a#	c #EAB751",
"b#	c #EBBB5A",
"c#	c #DEA548",
"d#	c #BE8A40",
"e#	c #6F4F26",
"f#	c #3D2A16",
"g#	c #523B1F",
"h#	c #7C592F",
"i#	c #76512C",
"j#	c #291F16",
"k#	c #2F2E2C",
"l#	c #060502",
"m#	c #201D0D",
"n#	c #E7B952",
"o#	c #EEBE5C",
"p#	c #E3AE4C",
"q#	c #CE9744",
"r#	c #664B21",
"s#	c #413A1B",
"t#	c #E7C253",
"u#	c #EFCC5A",
"v#	c #F3C24C",
"w#	c #DCA847",
"x#	c #55411A",
"y#	c #524921",
"z#	c #D2AE49",
"A#	c #EBC554",
"B#	c #F3CF5B",
"C#	c #E2AE4A",
"D#	c #4D3C18",
"E#	c #604C20",
"F#	c #B0943F",
"G#	c #EBC454",
"H#	c #F1CB59",
"I#	c #EDC453",
"J#	c #725C25",
"K#	c #251D0B",
"L#	c #644F21",
"M#	c #AF933E",
"N#	c #EAC353",
"O#	c #F0CA58",
"P#	c #ECC352",
"Q#	c #211A0A",
"R#	c #59451E",
"S#	c #9A7931",
"T#	c #B9963D",
"U#	c #C69C3D",
"V#	c #755E27",
"W#	c #171307",
"X#	c #705825",
"Y#	c #725925",
"Z#	c #6E5424",
"                                                                                                                                ",
"                                                                                                                                ",
"                                                                                                                                ",
"                                                                                                                                ",
"                                                                                                                                ",
"                                                                                                                                ",
"                                                                                                                                ",
"                                                                                                                                ",
"                                                                                                                                ",
"                                                                                                                                ",
"                                                                                                                                ",
"                                                                                                                                ",
"                                                                                                                                ",
"                                                        . + @ # $                                                               ",
"                                                  . % & * = - ; > , ' )                                                         ",
"                                                # ! ~ { ] ^ / ( _ : < [ } @                                                     ",
"                                              | 1 < 2 { 3 : 4 5 6 7 8 _ 9 ' 0                                                   ",
"                                            ) a b c c < { ] : _ 6 7 d e f - g h                                                 ",
"                                          # , i j 9 c b b k 5 4 l m n o e p q r s                                               ",
"                                          t ; i d u v { c w 3 / l 6 x n d 8 1 9 0                                               ",
"                                          | y z A B C D E E b { ( ( m x F n ] G H s                                             ",
"                  + s I                 # g G J K L M C N O c 3 ^ F n F F F 6 c 1 %                                             ",
"                I . h I I               $ > b ( G P Q R S - E ] T m 7 n F U ( < j V                                             ",
"                s @ V . I               % W w 1 , 9 X Y Z - E ] T 8 7 e 7 m 6 ` 9 r                                             ",
"                I .  .... . I         +.@.#.$.%.&.i *.Y =.2 c { ^ U 7 -.;.F T p 9 |                                             ",
"                + I I s # >.,.'.).!.~.{.].^./.(._.:.K K D _ c <.4 T x o [.7 ^ E j &                                             ",
"                % I I }.|.1.2.3.4.5.6.7.8.9.0.a.b.c.8 o x b c w { _ m o d.n l f e.V I                                           ",
"                  I I f.g.h.i.j.k.l.m.n.o.p.q.r.s.t.u.<.<.< c E <.f T n N F 6 ^ v.$ I                                           ",
"                  I s w.x.y.z.A.B.C.D.E.F.G.H.I.J.K.L.b <.w p p c { _ 8 -.M.T { ; % I                                           ",
"                    I N.O.P.Q.R.S.T.U.V.W.X.Y.Z.`. +.+b < w c p E 2 4 ( F 5 ^ <.W %                                             ",
"                    I 0 ++h % @ V & ) @+#+$+%+&+*+v.~ b < b E p c <.5 / l <.<.9 W t                                             ",
"                    s h # 0 . . + s + I I =+! ) ; e.i j j j G p b -+2 b b <.~ v.> ) I                                           ",
"                      s  ... .I I I I I I g O q ;+.+q - q O i G w E c j i j 1 O > | s                                           ",
"                      >+ ...$ @ I I I s s I v.1 ! = ; - [ y e.O ` i ` [ 1 v.q 1 ,+!  .                                          ",
"                        @ @ ....s I + ..$ + ) ; [ ! ,+= = '+; ;+;+= ,+v.9 G k b ,+W )                                           ",
"                        V s # ..0 + @ V )+@ h !+! ~+~+V )+~+g > v.O ` b -+x F 5 v.= ,+t                                         ",
"                          I # V V @ % ..) % 0 } , H !+, , * .+v.9 3 ^ 8 ;.d d ( x E '+!+                                        ",
"                             .V )+>+>+>+& ) ! q ; > ,+W ;+- j -+l 8 o {+N o -.;.;.M.p r t                                       ",
"                            I $ )+& & H H H H j [ *+,+= - O b k T 7 7 e d o N {+d.-.=+1 ..+                                     ",
"                               .V & r !+} g - -+*+, ,+= .+a i E 2 4 T 8 e o {+d.{+{+n ] , $ I                                   ",
"                              I % r ' > H *+]+-.e.! *+W '+1 a 9 p < k f T x -.{+{+{+N x < > t                                   ",
"                                # ' = W ^+~ /+(+N - W *+= '+q O 9 c < -+] T U 7 n N [.{+8 E > !+                                ",
"                                h ! ! !+!+_+B :+*.m W * *+*+; v.e.~ b <.{ : =+: =+6 ;.{+;._ p ,+r                               ",
"                                  & ~+| i <+[+}+|+1+v.* * ,+'+.+y i p b 2 k ] k k f 6 -.N x 2 = * V                             ",
"                                    ..*+2+3+4+5+6+7+< W , * > ;+1 ` G p < < w 2 2 ] =+/ e -.6 p i *                             ",
"                                    # 8 8+Q 4+4+Y 9+U '+!+, * *+- O 9 ~ b b p < U _ ] =+M.n 7 ^ <.~ &                           ",
"                                    2 0+a+b+c+c+b+d+e+e.* !+! W '+v.` ~ c w G 2 f+e+8 : _ ( 8 8 5 b [ $                         ",
"                                  s g+h+Y c+c+c+5+i+j+b '+, , * = - O ~ E w c v.w e+e+d _ ^ 6 ( l w ` .+$                       ",
"                                    |+k+b+c+c+c+}+l+m+<.; W !+! ,+; [ G b w 2 < y c d.z e _ l 6 M.^ E a *                       ",
"                                  n+o+[+5+4+c+c+5+p+q+2 ;+W , ' W '+1 ` p < 2 { ` e.w 2+r+7 / ^ / T { ` [ '                     ",
"                                  s+t+u+4+4+c+c+}+M v+p ;+W ! } ! ;+q [ i c < { < a 1 b -.w+m / _ ^ _ w a 1 &                   ",
"                                -.X }+Y 5+c+c+c+}+h+S i = > , ' } W .+[ [ O ~ < k 3 E 9 c o x+y+x / _ 5 e.q =                   ",
"                              h z+A+t+Y 5+c+c+5+o+B+m [ *+! } g ' ! = [ [ a G < { ] f 2 O p n C+D+e l 5 b .+= e.                ",
"                              W g+E+u+u+5+c+[+M K F+E .+*+, g g g * ;+a a e.~ b <.-+k _ 2 1 9 6 f+f+_+x { v.*+)+                ",
"                              f G+H+Q Y t+k+I+J+v 5 y ;+> !+g } H * ; e.e.G p p b < <.] _ =+p j y F K+L+_ b ; H                 ",
"                    M+N+O+    N P+Q+R+R 3+S+r+d ^ p - ,+* !+g ' g W .+i i p c c c c 2 ] 5 l U -+a [ { S d E | ^+                ",
"                    T+U+V+W+  n X+X 3+g+f+-.U ^ <.a '+W , } g } ' *+q 9 9 p c c E E < k 4 T n 7 ] ` > *+;+} )                   ",
"                  Y+Z+`+ @.@  4 J+I+<+z e x T ] e.; ,+> !+' ' } ' ,+[ j j G E w w b 3 4 M.F o ^ 2 q ~+# ..                      ",
"                  +@@@#@$@%@&@~ -.3 U y+;.( { j q ;+*+* } g ' , !+W - O ~ ~ b w <.-+f 5 F U ] y >+0 I                           ",
"                  *@=@-@;@>@,@, '+5 C+'@( 2 9 q '+,+> !+g H } !+!+> ;+[ i ~ p b < <.2 : ( ( : ! @ I I                           ",
"                  *@=@-@;@>@,@h 4 )@z U -+9 a .+'+*+, g g g } } , W = 1 e.G p b w w E { _ T E & + I I                           ",
"                    !@~@{@]@^@w ]+/@-.3 < 9 q = *+! g g g ' } !+, W '+1 e.i ~ E b ~ 9 <.l T *+)+. (@_@#                         ",
"                    :@<@[@}@|@O o ]+~ 9 a W W *+! ' ' g ' ' !+, * ,+; v.O ` i ~ ~ j 9 { U 2 ^+t 1@2@3@4@5@6@                    ",
"                    7@8@9@0@a@b@<.=+- ;+! | W , } ' g g g } , > = ; - v.y y a j j i c l _ *+^+>+s c@d@e@f@g@h@                  ",
"                    i@j@k@l@m@n@;+1 .+1 '+| H H g g ' !+, ! W ,+;+'+.+.+q 1 v.O j p ] 5 y ^+)  .I o@p@q@r@s@t@                  ",
"                      u@v@w@x@y@g > .+; , * r ' ' , ! * ! ! > *+,+= ;+;+; - [ ` E -+-+9 = |  .I z@A@B@C@D@E@F@                  ",
"                      G@H@I@J@K@L@= ~ } } g ! ! ! * , > > W = ,+,+,+= = = 1 O ~ <.~ a q } 0 I M@N@O@P@Q@R@S@                    ",
"                        T@U@V@W@X@Y@!+!+r ,+*+,+'+.+v.[ [ v.- ; ;+,+*+q v.` G 9 y q ;+' 0 I I 2@Z@`@ #.#+#@#                    ",
"                        ##$#%#&#*#=#.., *+- v.[ O y y [ v..+= ;+= *+} O y q '+'+*+' V h I I . -#;#>#,#'#)#                      ",
"                          !#~#{#]#^#/#W - a a [ q 1 1 q 1 = - c [ ^+@ (#_#:#w.<#} H s I . h [#}#|#1#2#3#                        ",
"                            4#5#6#7#8#v.v.- 1 1 ; 9#                              , r t I 0#a#b#c#d#e#                          ",
"                            f#g#h#i#j#k#;+                                            l#m#n#o#p#q#r#                            ",
"                                                                                      s#t#u#v#w#x#                              ",
"                                                                                    y#z#A#B#C#D#                                ",
"                                                                                  E#F#G#H#I#J#K#                                ",
"                                                                                L#M#N#O#P#J#Q#                                  ",
"                                                                                R#S#T#U#V#W#                                    ",
"                                                                                  X#Y#Z#                                        ",
"                                                                                                                                ",
"                                                                                                                                "};
