/* XPM */
static xpm_row_t const zeekling_dead_5_xpm[] = {
"64 51 277 2",
"  	c None",
". 	c #FFE900",
"+ 	c #FFC500",
"@ 	c #FFEA00",
"# 	c #FFB400",
"$ 	c #FFCB00",
"% 	c #FFE500",
"& 	c #FFE800",
"* 	c #FFDA00",
"= 	c #FFED00",
"- 	c #FFE200",
"; 	c #FFB900",
"> 	c #FFD000",
", 	c #FFC900",
"' 	c #FFDB00",
") 	c #FF9700",
"! 	c #FFB300",
"~ 	c #FFB100",
"{ 	c #FCED00",
"] 	c #FDDD00",
"^ 	c #FF9400",
"/ 	c #FFC300",
"( 	c #FFD300",
"_ 	c #FFC800",
": 	c #FFE600",
"< 	c #FFC700",
"[ 	c #FF9500",
"} 	c #FFAF00",
"| 	c #FFB000",
"1 	c #F2CC05",
"2 	c #FBED01",
"3 	c #FADB01",
"4 	c #F58603",
"5 	c #FFCD00",
"6 	c #FFD500",
"7 	c #FFBB00",
"8 	c #FFB600",
"9 	c #FFD100",
"0 	c #FFEE00",
"a 	c #FFE400",
"b 	c #FFD700",
"c 	c #FF9900",
"d 	c #FF9100",
"e 	c #FFA700",
"f 	c #FFAB00",
"g 	c #FF9D00",
"h 	c #FDC100",
"i 	c #FFD900",
"j 	c #FFF300",
"k 	c #FE9B00",
"l 	c #FD6C00",
"m 	c #F77602",
"n 	c #FA8201",
"o 	c #FD9A00",
"p 	c #FED500",
"q 	c #FFD600",
"r 	c #FEC700",
"s 	c #FEAB00",
"t 	c #FA9F01",
"u 	c #FAB001",
"v 	c #FEB500",
"w 	c #FED900",
"x 	c #FFEF00",
"y 	c #FFE000",
"z 	c #FED100",
"A 	c #FDC500",
"B 	c #FCB801",
"C 	c #FCA301",
"D 	c #FE9700",
"E 	c #FE8C00",
"F 	c #FD9B00",
"G 	c #FDA300",
"H 	c #FC9600",
"I 	c #FC9701",
"J 	c #FDA000",
"K 	c #FD9F00",
"L 	c #FDA600",
"M 	c #FCBC01",
"N 	c #FEF100",
"O 	c #FFF500",
"P 	c #FBB200",
"Q 	c #FB6F00",
"R 	c #D4540E",
"S 	c #E96907",
"T 	c #F69602",
"U 	c #FCCF00",
"V 	c #FBBC01",
"W 	c #FBB501",
"X 	c #EF9405",
"Y 	c #E19A0C",
"Z 	c #F2A505",
"` 	c #F9B402",
" .	c #FCDC00",
"..	c #FEEB00",
"+.	c #FED600",
"@.	c #FCC701",
"#.	c #FAC002",
"$.	c #F7B504",
"%.	c #F0A808",
"&.	c #F1A408",
"*.	c #F99F03",
"=.	c #FB8C02",
"-.	c #FA8502",
";.	c #F98B03",
">.	c #F79404",
",.	c #F58705",
"'.	c #F68003",
").	c #F77E03",
"!.	c #F88502",
"~.	c #FB9401",
"{.	c #FDAE00",
"].	c #FED200",
"^.	c #FFF200",
"/.	c #FDAD00",
"(.	c #FA6D01",
"_.	c #BA4513",
":.	c #D94F0C",
"<.	c #EB7206",
"[.	c #F9C701",
"}.	c #FBC901",
"|.	c #F8A302",
"1.	c #F68B03",
"2.	c #EF8706",
"3.	c #E7940B",
"4.	c #F0A107",
"5.	c #F2B006",
"6.	c #F9D502",
"7.	c #FDE301",
"8.	c #FDC801",
"9.	c #FBB602",
"0.	c #F7B304",
"a.	c #F0A809",
"b.	c #E49D13",
"c.	c #E79B13",
"d.	c #F39609",
"e.	c #F57407",
"f.	c #F0750B",
"g.	c #EC800D",
"h.	c #E58011",
"i.	c #D86B17",
"j.	c #D36018",
"k.	c #CF6318",
"l.	c #D47012",
"m.	c #E67D0A",
"n.	c #F08C06",
"o.	c #F7B703",
"p.	c #FBD901",
"q.	c #FBCE01",
"r.	c #F68E03",
"s.	c #EC6708",
"t.	c #D84705",
"u.	c #DF5107",
"v.	c #E86F07",
"w.	c #F28305",
"x.	c #F26D06",
"y.	c #F26B07",
"z.	c #F17708",
"A.	c #EF880A",
"B.	c #EE980B",
"C.	c #EC9F0C",
"D.	c #F0AF08",
"E.	c #F9C903",
"F.	c #FAAE02",
"G.	c #F79B04",
"H.	c #F4A106",
"I.	c #F09509",
"J.	c #EB8A0D",
"K.	c #EA8D0E",
"L.	c #F38D08",
"M.	c #F56507",
"N.	c #EA540F",
"O.	c #DD5D18",
"P.	c #CD5D23",
"Q.	c #BA502B",
"R.	c #A7492F",
"S.	c #9A4C2E",
"T.	c #AB5C1F",
"U.	c #C36112",
"V.	c #CE5F11",
"W.	c #D66911",
"X.	c #DD760F",
"Y.	c #DE720E",
"Z.	c #D3620E",
"`.	c #DA4704",
" +	c #C14005",
".+	c #D85111",
"++	c #E45510",
"@+	c #EA560D",
"#+	c #EB600E",
"$+	c #E86911",
"%+	c #E67113",
"&+	c #E77412",
"*+	c #ED7C0C",
"=+	c #F37C08",
"-+	c #F87A04",
";+	c #F77304",
">+	c #F57905",
",+	c #F37F06",
"'+	c #ED690B",
")+	c #EC5D0B",
"!+	c #F06B08",
"~+	c #F47205",
"{+	c #F46305",
"]+	c #EE5108",
"^+	c #D64614",
"/+	c #BC4624",
"(+	c #9D4535",
"_+	c #753837",
":+	c #693630",
"<+	c #8B4417",
"[+	c #99410A",
"}+	c #A9501D",
"|+	c #A9491F",
"1+	c #B64D1E",
"2+	c #B85424",
"3+	c #762104",
"4+	c #AA3810",
"5+	c #D14B17",
"6+	c #DC5115",
"7+	c #DD5713",
"8+	c #CD5A1D",
"9+	c #C25B24",
"0+	c #CA5B20",
"a+	c #DE5F13",
"b+	c #ED6609",
"c+	c #F36006",
"d+	c #F45505",
"e+	c #F35105",
"f+	c #ED5109",
"g+	c #DE4B13",
"h+	c #D94515",
"i+	c #E94D0A",
"j+	c #F34F04",
"k+	c #F24C04",
"l+	c #E74406",
"m+	c #C13408",
"n+	c #83220C",
"o+	c #521F19",
"p+	c #3D1D1D",
"q+	c #442118",
"r+	c #6C2A04",
"s+	c #551804",
"t+	c #7D290E",
"u+	c #973514",
"v+	c #A74019",
"w+	c #994623",
"x+	c #9A4D2A",
"y+	c #AC542B",
"z+	c #BE5322",
"A+	c #D15116",
"B+	c #D9460F",
"C+	c #DF330B",
"D+	c #E53209",
"E+	c #D9340C",
"F+	c #BD3215",
"G+	c #BB3213",
"H+	c #D93908",
"I+	c #E23A03",
"J+	c #E03603",
"K+	c #D63207",
"L+	c #B9290C",
"M+	c #371910",
"N+	c #48281E",
"O+	c #53291A",
"P+	c #653320",
"Q+	c #813B20",
"R+	c #8E3719",
"S+	c #802C16",
"T+	c #6A2019",
"U+	c #831811",
"V+	c #8C150D",
"W+	c #8C170E",
"X+	c #AE1806",
"Y+	c #D02103",
"Z+	c #D72203",
"`+	c #E52507",
" @	c #2C1B19",
"                                                                                                                                ",
"                                                                                                                                ",
"                                                                                                                                ",
"                                                                                                                                ",
"                                                                                                                                ",
"                                                                                                                                ",
"                                                                                                                                ",
"                                                                                                                                ",
"                                                                                                                                ",
"                                                                                                                                ",
"                                                                                                                                ",
"                                                                                                                                ",
"                                                                                                                                ",
"                                                                                                                                ",
"                                                                                                                                ",
"                                                                                                                                ",
"                                                                                                                                ",
"                                                                                                                                ",
"                                                                                                                                ",
"                                                                                                                                ",
"                                                                                                                                ",
"                                                                                                                                ",
"                                                                                                                                ",
"                                                                                                                                ",
"                                                                                                                                ",
"                                                                                                                                ",
"                                                                                                                                ",
"                                                                                                                                ",
"                                                                                                                                ",
"                                                                                                                                ",
"                                                                                                                                ",
"                                                                                                                                ",
"                                                                                                                                ",
"                                                                                                                                ",
"                                            .                                                                                   ",
"                          +                 @                 #                                                                 ",
"                          $               % & *               #                 = -                                             ",
"                        ; >             , . & '             ) ! ~               { ]                                             ",
"                      ^ / (             _ @ : * <           [ } |             1 2 3 4                                           ",
"                      [ 5 6 7         8 9 0 a b <         c d e f g         h i j @ k l                                         ",
"                  m n o p q r s t   u v w x y z A B     C D E F G H I J K L M w N O P Q                                         ",
"                  R S T ] U V W X Y Z `  ...+.@.#.$.%.&.*.=.-.;.>.,.'.).!.~.{.].x ^./.(.                                        ",
"                  _.:.<.[.}.|.1.2.3.4.5.6.7.8.9.0.a.b.c.d.e.f.g.h.i.j.k.l.m.n.o.p.q.r.s.                                        ",
"                    t.u.v.w.x.y.z.A.B.C.D.E.F.G.H.I.J.K.L.M.N.O.P.Q.R.S.T.U.V.W.X.Y.Z.                                          ",
"                    `. +.+++@+#+$+%+&+*+=+-+;+>+,+'+)+!+~+{+]+^+/+(+_+:+<+[+}+|+1+2+                                            ",
"                      3+4+5+6+7+8+9+0+a+b+c+d+e+f+g+h+i+j+k+l+m+n+o+p+q+r+                                                      ",
"                        s+t+u+v+w+x+y+z+A+B+C+D+E+F+G+H+I+J+K+L+                                                                ",
"                              M+N+O+P+Q+R+S+T+U+V+W+X+Y+Z+`+                                                                    ",
"                                                 @                                                                              ",
"                                                                                                                                ",
"                                                                                                                                "};
