/* XPM */
static xpm_row_t const zeekling_dead_4_xpm[] = {
"64 51 460 2",
"  	c None",
". 	c #FFE900",
"+ 	c #FFE700",
"@ 	c #FFE500",
"# 	c #FF8F00",
"$ 	c #FFE400",
"% 	c #FF8400",
"& 	c #FFE300",
"* 	c #FFE200",
"= 	c #FF7700",
"- 	c #FF8300",
"; 	c #FF9300",
"> 	c #FFE000",
", 	c #FFDF00",
"' 	c #FAC401",
") 	c #FAC501",
"! 	c #FF7500",
"~ 	c #FF8000",
"{ 	c #FFDC00",
"] 	c #FFD900",
"^ 	c #FFE100",
"/ 	c #FFDE00",
"( 	c #FFC700",
"_ 	c #FFC100",
": 	c #FF6900",
"< 	c #FF7400",
"[ 	c #FF9500",
"} 	c #FFD700",
"| 	c #FFD400",
"1 	c #FFDB00",
"2 	c #FFCF00",
"3 	c #FFC500",
"4 	c #FFB900",
"5 	c #FFC000",
"6 	c #FF6D00",
"7 	c #FF7800",
"8 	c #FF9700",
"9 	c #FFD300",
"0 	c #FFCD00",
"a 	c #FFCE00",
"b 	c #FFD500",
"c 	c #FFC800",
"d 	c #FFAF00",
"e 	c #FFB600",
"f 	c #F56A05",
"g 	c #FC7301",
"h 	c #FD7B00",
"i 	c #FD8501",
"j 	c #FF9A00",
"k 	c #FFCB00",
"l 	c #FFC200",
"m 	c #FFC900",
"n 	c #FFDD00",
"o 	c #FFCC00",
"p 	c #FFD200",
"q 	c #FECA00",
"r 	c #FFA800",
"s 	c #EA7408",
"t 	c #F57B03",
"u 	c #F77A03",
"v 	c #F48105",
"w 	c #F69604",
"x 	c #FFBF00",
"y 	c #FFDA00",
"z 	c #FFCA00",
"A 	c #FFA200",
"B 	c #FF9C00",
"C 	c #E68007",
"D 	c #F28304",
"E 	c #F57A03",
"F 	c #F17C04",
"G 	c #F09005",
"H 	c #E69E09",
"I 	c #F9D302",
"J 	c #FCD301",
"K 	c #FDD700",
"L 	c #F6D804",
"M 	c #E1C70E",
"N 	c #F6AA04",
"O 	c #FBB201",
"P 	c #FDB100",
"Q 	c #FEAF00",
"R 	c #FFBA00",
"S 	c #FFD800",
"T 	c #FDD200",
"U 	c #FDA600",
"V 	c #FD8B00",
"W 	c #FD9A00",
"X 	c #B86D14",
"Y 	c #E38D09",
"Z 	c #F18904",
"` 	c #F27004",
" .	c #ED7705",
"..	c #E88508",
"+.	c #D3900F",
"@.	c #D5A50F",
"#.	c #DDB30D",
"$.	c #E7BF0B",
"%.	c #F1C706",
"&.	c #F4CC05",
"*.	c #E6C90B",
"=.	c #BCA71E",
"-.	c #A28D2A",
";.	c #A4872A",
">.	c #C3981C",
",.	c #D79D12",
"'.	c #E49D0B",
").	c #EAA008",
"!.	c #F2A205",
"~.	c #F8A302",
"{.	c #FBB301",
"].	c #FDD400",
"^.	c #FDCE00",
"/.	c #FAC002",
"(.	c #EFAF07",
"_.	c #F4C904",
":.	c #FBCE01",
"<.	c #FCCA00",
"[.	c #FDAC00",
"}.	c #FD7C00",
"|.	c #FC8D00",
"1.	c #B47117",
"2.	c #E1960A",
"3.	c #EF8A05",
"4.	c #EF6406",
"5.	c #EA6F08",
"6.	c #E17B0C",
"7.	c #D18B15",
"8.	c #D19D16",
"9.	c #D0A618",
"0.	c #DAB013",
"a.	c #E6BD0C",
"b.	c #EDC408",
"c.	c #E4C30B",
"d.	c #BDA71A",
"e.	c #B49820",
"f.	c #B9931F",
"g.	c #C59619",
"h.	c #CF9614",
"i.	c #DD980C",
"j.	c #E0950B",
"k.	c #E3950A",
"l.	c #EA9508",
"m.	c #EEA507",
"n.	c #F3C705",
"o.	c #F0BB07",
"p.	c #E6AF0D",
"q.	c #CA961B",
"r.	c #BB9422",
"s.	c #CBA617",
"t.	c #E7BC09",
"u.	c #F1C404",
"v.	c #F4C502",
"w.	c #F59F01",
"x.	c #F36A01",
"y.	c #E97802",
"z.	c #C48111",
"A.	c #E69D07",
"B.	c #EF8C05",
"C.	c #EC5D07",
"D.	c #E6630A",
"E.	c #DB7111",
"F.	c #D48117",
"G.	c #D09219",
"H.	c #CD9F19",
"I.	c #DBAE10",
"J.	c #E7B80A",
"K.	c #ECBD07",
"L.	c #E6C009",
"M.	c #CFB011",
"N.	c #C6A116",
"O.	c #CC9F14",
"P.	c #CB9912",
"Q.	c #D1950F",
"R.	c #DF990B",
"S.	c #DE910C",
"T.	c #DF8F0D",
"U.	c #E38D0C",
"V.	c #E49A0D",
"W.	c #E8B50D",
"X.	c #E3AC10",
"Y.	c #D7A217",
"Z.	c #C39122",
"`.	c #BD9524",
" +	c #D3A717",
".+	c #E7B70A",
"++	c #EEC207",
"@+	c #F0C005",
"#+	c #F28F04",
"$+	c #F06204",
"%+	c #E66A03",
"&+	c #814A17",
"*+	c #D38B0A",
"=+	c #EAA005",
"-+	c #EE8D04",
";+	c #EB5B05",
">+	c #E75707",
",+	c #DF6A0C",
"'+	c #D9760D",
")+	c #D1880E",
"!+	c #CE9A0F",
"~+	c #DEAC0A",
"{+	c #E8B008",
"]+	c #EAB307",
"^+	c #E4B609",
"/+	c #D9B20D",
"(+	c #CDA210",
"_+	c #D19E0D",
":+	c #CE980F",
"<+	c #D5990F",
"[+	c #E39D0B",
"}+	c #E1930D",
"|+	c #E08D0E",
"1+	c #DE860F",
"2+	c #DA8F13",
"3+	c #DEA213",
"4+	c #D99B15",
"5+	c #D0941A",
"6+	c #C9901F",
"7+	c #C8941F",
"8+	c #D8A116",
"9+	c #E6B00F",
"0+	c #EBBD0D",
"a+	c #EDB50B",
"b+	c #EE820A",
"c+	c #EC6008",
"d+	c #DC5A01",
"e+	c #7A370D",
"f+	c #CA7907",
"g+	c #E69704",
"h+	c #EB8A03",
"i+	c #EB5905",
"j+	c #EA5607",
"k+	c #EA6C0A",
"l+	c #E67E0A",
"m+	c #DB8E0C",
"n+	c #D89C0B",
"o+	c #E2A204",
"p+	c #E8A503",
"q+	c #E4A905",
"r+	c #DBA608",
"s+	c #DBA90B",
"t+	c #D9A612",
"u+	c #DEAB13",
"v+	c #DBA414",
"w+	c #DD9F11",
"x+	c #E8A20D",
"y+	c #E6970C",
"z+	c #E08D10",
"A+	c #D97B11",
"B+	c #CE7D14",
"C+	c #D08614",
"D+	c #CE8416",
"E+	c #CA8318",
"F+	c #CA861A",
"G+	c #CC8619",
"H+	c #D89013",
"I+	c #E3A310",
"J+	c #E9B410",
"K+	c #E9A511",
"L+	c #E9780F",
"M+	c #DC5803",
"N+	c #E05700",
"O+	c #BB5103",
"P+	c #DF7509",
"Q+	c #E46405",
"R+	c #E95106",
"S+	c #EB5607",
"T+	c #EC6B07",
"U+	c #E97808",
"V+	c #E7890C",
"W+	c #E6970A",
"X+	c #EC9F07",
"Y+	c #E8A406",
"Z+	c #E5AA10",
"`+	c #DEA10B",
" @	c #DFA309",
".@	c #EDB918",
"+@	c #E4B212",
"@@	c #E0AB13",
"#@	c #E6A710",
"$@	c #EBA009",
"%@	c #EB990A",
"&@	c #E88810",
"*@	c #D66918",
"=@	c #C76D1C",
"-@	c #C26B1F",
";@	c #B8611E",
">@	c #BB6719",
",@	c #B9671D",
"'@	c #BA6A1B",
")@	c #CF7E12",
"!@	c #DF910F",
"~@	c #E6A411",
"{@	c #E89A12",
"]@	c #E1770E",
"^@	c #CF5500",
"/@	c #E05D00",
"(@	c #AE3500",
"_@	c #CA4506",
":@	c #D94B0A",
"<@	c #E34D0B",
"[@	c #E84E06",
"}@	c #ED5405",
"|@	c #F06809",
"1@	c #ED7B06",
"2@	c #EB8903",
"3@	c #F1A30E",
"4@	c #E4A20B",
"5@	c #DD9C09",
"6@	c #E9A312",
"7@	c #E6A006",
"8@	c #EBB80A",
"9@	c #E2B109",
"0@	c #EBB714",
"a@	c #F0AB10",
"b@	c #F3A10C",
"c@	c #F4980B",
"d@	c #EF7411",
"e@	c #E26322",
"f@	c #D4672F",
"g@	c #C35B34",
"h@	c #AF522D",
"i@	c #AC5020",
"j@	c #A65221",
"k@	c #AC5E1B",
"l@	c #C66D12",
"m@	c #D87910",
"n@	c #E28B13",
"o@	c #E28615",
"p@	c #DC7911",
"q@	c #C05701",
"r@	c #D55900",
"s@	c #C83E00",
"t@	c #B53902",
"u@	c #CF4A11",
"v@	c #DE5013",
"w@	c #E44C08",
"x@	c #ED5008",
"y@	c #F2620A",
"z@	c #F1730A",
"A@	c #F08408",
"B@	c #F0990F",
"C@	c #E99C0F",
"D@	c #E6950B",
"E@	c #F1970D",
"F@	c #F29404",
"G@	c #EEAE02",
"H@	c #EEB508",
"I@	c #EFAC0A",
"J@	c #F2A009",
"K@	c #F59408",
"L@	c #F58C07",
"M@	c #F36509",
"N@	c #E84E13",
"O@	c #DA4D1E",
"P@	c #C95332",
"Q@	c #B64E32",
"R@	c #9B4026",
"S@	c #8C4025",
"T@	c #A2561E",
"U@	c #B4570C",
"V@	c #C45D15",
"W@	c #CB641C",
"X@	c #CA6920",
"Y@	c #CA6A22",
"Z@	c #9E470B",
"`@	c #8F3300",
" #	c #C94206",
".#	c #AB3905",
"+#	c #D7551A",
"@#	c #E45414",
"##	c #EA560E",
"$#	c #EC5F0D",
"%#	c #EC6A0E",
"&#	c #EF740C",
"*#	c #F1780A",
"=#	c #F07D0A",
"-#	c #F37909",
";#	c #F77005",
">#	c #F76D04",
",#	c #F58304",
"'#	c #F58F05",
")#	c #F68105",
"!#	c #F77105",
"~#	c #F67204",
"{#	c #F46305",
"]#	c #EE5108",
"^#	c #D64614",
"/#	c #BF4623",
"(#	c #AC432D",
"_#	c #83352E",
":#	c #713529",
"<#	c #8D4314",
"[#	c #963F07",
"}#	c #AD541F",
"|#	c #AB4C20",
"1#	c #B9501F",
"2#	c #B6592A",
"3#	c #732004",
"4#	c #A93810",
"5#	c #D04B17",
"6#	c #DC5115",
"7#	c #E05712",
"8#	c #E35D10",
"9#	c #E65A0E",
"0#	c #E7520E",
"a#	c #ED570A",
"b#	c #F35E06",
"c#	c #F55A04",
"d#	c #F45305",
"e#	c #F35205",
"f#	c #F35706",
"g#	c #F55B05",
"h#	c #F55305",
"i#	c #F55004",
"j#	c #F24C04",
"k#	c #E74406",
"l#	c #C43508",
"m#	c #9A260A",
"n#	c #7D2213",
"o#	c #5A1E19",
"p#	c #502317",
"q#	c #6F2B04",
"r#	c #551804",
"s#	c #7D290E",
"t#	c #973514",
"u#	c #AA4018",
"v#	c #AC431C",
"w#	c #A44426",
"x#	c #A7482E",
"y#	c #C04321",
"z#	c #D73F13",
"A#	c #D83610",
"B#	c #DD2B0C",
"C#	c #E63208",
"D#	c #E73608",
"E#	c #E33909",
"F#	c #E43B07",
"G#	c #E83F05",
"H#	c #E43A03",
"I#	c #E03603",
"J#	c #D73307",
"K#	c #C12A0B",
"L#	c #341811",
"M#	c #352321",
"N#	c #2D2120",
"O#	c #412C28",
"P#	c #5C3029",
"Q#	c #602C23",
"R#	c #4F221E",
"S#	c #5C1C1B",
"T#	c #831711",
"U#	c #93150C",
"V#	c #A2160B",
"W#	c #C21905",
"X#	c #D52203",
"Y#	c #D72203",
"Z#	c #E52507",
"`#	c #2C1B19",
"                                                                                                                                ",
"                                                                                                                                ",
"                                                                                                                                ",
"                                                                                                                                ",
"                                                                                                                                ",
"                                                                                                                                ",
"                                                                                                                                ",
"                                                                                                                                ",
"                                                                                                                                ",
"                                                                                                                                ",
"                                                                                                                                ",
"                                                                                                                                ",
"                                                                                                                                ",
"                                                                                                                                ",
"                                                                                                                                ",
"                                                                                                                                ",
"                                                                                                                                ",
"                                                                                                                                ",
"                                                                                                                                ",
"                                                                                                                                ",
"                                                                                                                                ",
"                                                                                                                                ",
"                                                                                                                                ",
"                                                                                                                                ",
"                                                                                                                                ",
"                                                                .                                                               ",
"                                                                + @                                                             ",
"                            #                                 @ @ $                                                             ",
"                          % #                                 & & *                                                             ",
"                        = - ;                               > , * >             ' )                                             ",
"                        ! ~ ;                               { ] ^ /             ( _                                             ",
"                      : < % [                             } | | / 1 2           3 4 5                                           ",
"                      6 7 % 8           * *               9 0 a / { a         b c d e                                           ",
"                    f g h i j         ^ > *               k l m n n o         p q r r                                           ",
"                    s t u v w         n { >               x 4 _ y y z         | z A B                                           ",
"                    C D E F G H     I J K L M         N O P Q R S } c       b T 0 U V W                                         ",
"                  X Y Z `  ...+.@.#.$.%.&.*.=.-.;.>.,.'.).!.~.{.].^./.(.    _.:.<.[.}.|.                                        ",
"                  1.2.3.4.5.6.7.8.9.0.a.b.c.d.e.f.g.h.i.j.k.l.m.n.o.p.q.r.s.t.u.v.w.x.y.                                        ",
"                  z.A.B.C.D.E.F.G.H.I.J.K.L.M.N.O.P.Q.R.S.T.U.V.W.X.Y.Z.`. +.+++@+#+$+%+                                        ",
"                &+*+=+-+;+>+,+'+)+!+~+{+]+^+/+(+_+:+<+[+}+|+1+2+3+4+5+6+7+8+9+0+a+b+c+d+                                        ",
"                e+f+g+h+i+j+k+l+m+n+o+p+q+r+s+t+u+v+w+x+y+z+A+B+C+D+E+F+G+H+I+J+K+L+M+N+                                        ",
"                  O+P+Q+R+S+T+U+V+W+X+Y+Z+`+ @.@+@@@#@$@%@&@*@=@-@;@>@,@'@)@!@~@{@]@^@/@                                        ",
"                  (@_@:@<@[@}@|@1@2@3@4@5@6@7@8@9@0@a@b@c@d@e@f@g@h@i@j@k@l@m@n@o@p@q@r@                                        ",
"                  s@t@u@v@w@x@y@z@A@B@C@D@E@F@G@H@I@J@K@L@M@N@O@P@Q@R@S@T@U@V@W@X@Y@Z@`@                                        ",
"                     #.#+#@###$#%#&#*#=#-#;#>#,#'#)#!#~#~#{#]#^#/#(#_#:#<#[#}#|#1#2#                                            ",
"                      3#4#5#6#7#8#9#0#a#b#c#d#e#f#g#h#h#i#j#k#l#m#n#o#p#q#                                                      ",
"                        r#s#t#u#v#w#x#y#z#A#B#C#D#E#F#G#H#I#J#K#                                                                ",
"                              L#M#N#O#P#Q#R#S#T#U#V#W#X#Y#Z#                                                                    ",
"                                                `#                                                                              ",
"                                                                                                                                ",
"                                                                                                                                "};
